<svg xmlns="http://www.w3.org/2000/svg" xmlns:xlink="http://www.w3.org/1999/xlink" data-name="Layer 1" width="808.8406982421875" height="681.8936157226562"><rect id="backgroundrect" width="100%" height="100%" x="0" y="0" fill="none" stroke="none"/><g class="currentLayer" style=""><title>Layer 1</title><path d="M670.6658638623047,550.2606702319335 L402.32078386230467,427.7560202319336 L540.4955938623046,125.08565023193358 l268.34507,122.50466 z" fill="#f2f2f2" id="svg_1"/><path d="M711.5437438623047,374.4250702319336 l-203.14462,-92.7394 a1.5859400000000001,1.5859400000000001 0 0 1 1.31725,-2.88543 l203.14462,92.7394 a1.5859400000000001,1.5859400000000001 0 0 1 -1.31725,2.88543 z" fill="#fff" id="svg_2"/><path d="M722.8399538623047,349.6808502319336 L519.6953338623047,256.9414502319336 a1.5859400000000001,1.5859400000000001 0 1 1 1.31725,-2.88543 l203.14462,92.7394 a1.5859400000000001,1.5859400000000001 0 1 1 -1.31725,2.88543 z" fill="#fff" id="svg_3"/><path d="M734.1361638623047,324.9366402319336 L530.9915438623046,232.1972302319336 a1.5859400000000001,1.5859400000000001 0 1 1 1.31725,-2.88543 l203.14462,92.7394 a1.58595,1.58595 0 0 1 -1.31725,2.88544 z" fill="#fff" id="svg_4"/><path d="M745.4323338623046,300.19242023193357 L542.2877538623047,207.4530102319336 a1.5859400000000001,1.5859400000000001 0 1 1 1.31725,-2.88543 l203.14462,92.73941 a1.5859400000000001,1.5859400000000001 0 0 1 -1.31725,2.88543 z" fill="#fff" id="svg_5"/><path d="M701.3350238623046,396.78716023193357 L498.1904038623047,304.0478002319336 a1.5859400000000001,1.5859400000000001 0 1 1 1.31725,-2.88543 l203.14462,92.7394 a1.5859400000000001,1.5859400000000001 0 0 1 -1.31725,2.88543 z" fill="#fff" id="svg_6"/><path d="M735.2577538623046,263.8952002319336 L576.5760638623046,191.45397023193357 a3.9649,3.9649 0 0 1 -2.22982,-4.77891 a3.816,3.816 0 0 1 5.20033,-2.25249 L738.1800038623047,256.8418002319336 a4.00065,4.00065 0 0 1 2.261,4.85011 A3.8157900000000002,3.8157900000000002 0 0 1 735.2577538623046,263.8952002319336 z" fill="#fff" id="svg_7"/><path d="M124.69098386230468,247.59031023193359 L393.0360538623047,125.08565023193358 L531.2108638623047,427.7560202319336 L262.8657938623047,550.2606702319335 z" fill="#f2f2f2" id="svg_8"/><path d="M221.9879138623047,374.4250702319336 l203.14461,-92.7394 a1.5859400000000001,1.5859400000000001 0 1 0 -1.31725,-2.88543 l-203.14462,92.7394 a1.5859400000000001,1.5859400000000001 0 1 0 1.31726,2.88543 z" fill="#fff" id="svg_9"/><path d="M210.69170386230468,349.6808502319336 L413.83633386230474,256.9414502319336 a1.5859400000000001,1.5859400000000001 0 0 0 -1.31726,-2.88543 l-203.14462,92.7394 a1.5859400000000001,1.5859400000000001 0 1 0 1.31726,2.88543 z" fill="#fff" id="svg_10"/><path d="M199.3954938623047,324.9366402319336 l203.14462,-92.73941 a1.5859400000000001,1.5859400000000001 0 0 0 -1.31726,-2.88543 L198.07823386230467,322.0512002319336 a1.58595,1.58595 0 0 0 1.31726,2.88544 z" fill="#fff" id="svg_11"/><path d="M188.09933386230466,300.19242023193357 l203.14462,-92.73941 a1.5859400000000001,1.5859400000000001 0 1 0 -1.31726,-2.88543 L186.7820238623047,297.3069902319336 a1.5859400000000001,1.5859400000000001 0 0 0 1.31726,2.88543 z" fill="#fff" id="svg_12"/><path d="M232.19663386230468,396.78716023193357 L435.3412538623047,304.0478002319336 a1.5859400000000001,1.5859400000000001 0 0 0 -1.31726,-2.88543 L230.8793338623047,393.9017302319336 a1.5859400000000001,1.5859400000000001 0 1 0 1.31726,2.88543 z" fill="#fff" id="svg_13"/><path d="M198.2738938623047,263.8952002319336 l158.68169,-72.44123 a3.96488,3.96488 0 0 0 2.22982,-4.77891 a3.816,3.816 0 0 0 -5.20032,-2.25249 L195.35164386230468,256.8418002319336 a4.00067,4.00067 0 0 0 -2.261,4.85011 A3.8157900000000002,3.8157900000000002 0 0 0 198.2738938623047,263.8952002319336 z" fill="#fff" id="svg_14"/><path d="M26.825143862304685,604.9780602319336 c1.6942300000000001,-26.24429 16.317,-52.871 40.65983,-62.82314 a121.16927,121.16927 0 0 0 4.93287,83.04447 c4.43053,10.10062 10.41006,20.87363 7.43637,31.49487 c-1.85017,6.60882 -7.02235,11.888 -12.94859,15.34869 c-5.92661,3.46069 -12.6203,5.33966 -19.23087,7.18405 l-1.2532299999999998,1.16816 C34.36693386230468,657.0216902319336 25.13091386230468,631.2223502319335 26.825143862304685,604.9780602319336 z" fill="#a5e5c5" id="svg_15" class="" fill-opacity="1"/><path d="M67.76075386230468,542.6328902319336 a103.56706,103.56706 0 0 0 -22.24942,59.71 a44.59937,44.59937 0 0 0 1.3334700000000002,13.91012 a25.57977,25.57977 0 0 0 7.05351,11.46684 c3.04906,2.97518 6.51244,5.66536 8.78518,9.32991 a15.66257,15.66257 0 0 1 1.52111,12.71858 c-1.5005799999999998,5.29374 -4.81379,9.73259 -8.20469,13.96082 c-3.76494,4.694640000000001 -7.74992,9.51126 -9.11223,15.51981 c-0.16506000000000004,0.7280000000000001 -1.28505,0.42933000000000004 -1.12024,-0.29759 c2.37018,-10.45385 12.00015,-16.88329 16.20867,-26.422 c1.9637700000000002,-4.45092 2.5981,-9.52061 0.24636000000000002,-13.9565 c-2.05648,-3.879 -5.62559,-6.6562 -8.73886,-9.64195 a27.29558,27.29558 0 0 1 -7.31456,-10.95513 a41.23112,41.23112 0 0 1 -1.86335,-13.80753 a100.47854,100.47854 0 0 1 5.51711,-30.9156 a105.40343,105.40343 0 0 1 17.12084,-31.44219 c0.46185000000000004,-0.58333 1.27593,0.24285 0.8171,0.82236 z" fill="#fff" id="svg_16"/><path d="M45.40733386230468,595.3223302319336 a15.53836,15.53836 0 0 1 -12.771,-15.548 a0.5800500000000001,0.5800500000000001 0 0 1 1.15934,-0.010840000000000002 a14.38817,14.38817 0 0 0 11.90924,14.43856 c0.73455,0.12924000000000002 0.43276000000000003,1.24874 -0.29759,1.12023 z" fill="#fff" id="svg_17"/><path d="M52.153643862304676,626.4149502319336 a29.94891,29.94891 0 0 0 12.329,-18.01017 c0.16764000000000004,-0.72741 1.28767,-0.42894000000000004 1.12024,0.29759 A31.15139,31.15139 0 0 1 52.735333862304685,627.4175102319336 c-0.6190000000000001,0.41865 -1.19736,-0.58618 -0.5817000000000001,-1.00256 z" fill="#fff" id="svg_18"/><path d="M54.83353386230468,562.9048002319336 a8.79547,8.79547 0 0 0 8.29544,-0.916 c0.61341,-0.42629 1.19112,0.5790000000000001 0.5817000000000001,1.00255 a9.856,9.856 0 0 1 -9.17473,1.0337 a0.5990000000000001,0.5990000000000001 0 0 1 -0.4113200000000001,-0.7089200000000001 a0.58248,0.58248 0 0 1 0.70891,-0.4113200000000001 z" fill="#fff" id="svg_19"/><path d="M145.9791338623047,584.1939802319336 c-0.37545000000000006,0.27708000000000005 -0.7509100000000001,0.55416 -1.12626,0.8410000000000001 A115.83119,115.83119 0 0 0 130.75333386230471,597.4547102319336 c-0.3423100000000001,0.3437200000000001 -0.6840000000000002,0.6972100000000001 -1.01576,1.05 a122.11237,122.11237 0 0 0 -24.32369,37.80982 a118.58674,118.58674 0 0 0 -5.489,17.16153 c-1.92168,8.08117 -3.36229,16.99612 -7.71329,23.77108 a20.34637,20.34637 0 0 1 -1.46623,2.04693 l-42.80152,2.53933 c-0.10017000000000001,-0.04305000000000001 -0.20024000000000003,-0.07635 -0.3008800000000001,-0.11936000000000002 l-1.7043,0.17952 c0.05071000000000001,-0.30679 0.10989000000000002,-0.6239000000000001 0.16059000000000004,-0.9307000000000001 c0.028670000000000005,-0.17809000000000003 0.06688000000000001,-0.35674 0.09555000000000002,-0.53483 c0.022140000000000003,-0.11891000000000002 0.04474000000000001,-0.23790000000000003 0.057920000000000006,-0.3464600000000001 c0.007220000000000002,-0.03961000000000001 0.014920000000000001,-0.07924000000000002 0.022710000000000004,-0.10913000000000002 c0.013180000000000002,-0.10857000000000001 0.037000000000000005,-0.20800000000000002 0.05071000000000001,-0.3068000000000001 q0.4888700000000001,-2.66019 1.01683,-5.32276 c-0.0005800000000000001,-0.009780000000000004 -0.0005800000000000001,-0.009780000000000004 0.008380000000000002,-0.020120000000000002 c2.7164200000000003,-13.51815 6.58525,-26.9283 12.36649,-39.32491 c0.17406000000000002,-0.3729100000000001 0.3470700000000001,-0.75556 0.54068,-1.12963 a113.15757,113.15757 0 0 1 9.23324,-15.99213 a100.03668,100.03668 0 0 1 6.19893,-8.00172 a83.18731,83.18731 0 0 1 19.85692,-16.7988 c14.87044,-9.016 32.45882,-13.17575 49.1586,-9.19806 C145.1333338623047,583.9796102319336 145.55141386230468,584.0821502319336 145.9791338623047,584.1939802319336 z" fill="#a5e5c5" id="svg_20" class="" fill-opacity="1"/><path d="M145.91514386230466,584.7429302319335 a103.56714,103.56714 0 0 0 -53.71447,34.27942 a44.59967,44.59967 0 0 0 -7.31015,11.90929 a25.57987,25.57987 0 0 0 -1.272,13.40234 c0.6432400000000001,4.21125 1.78888,8.44441 1.39723,12.73869 a15.66261,15.66261 0 0 1 -6.44294,11.07089 c-4.38533,3.3233 -9.703240000000001,4.87269 -14.95637,6.20714 c-5.83259,1.4816500000000001 -11.91431,2.92822 -16.6196,6.90551 c-0.57011,0.48190000000000005 -1.28453,-0.43090000000000006 -0.71528,-0.91207 c8.18639,-6.9198 19.74636,-6.25544 28.84956,-11.337720000000001 c4.24772,-2.37149 7.8065,-6.03745 8.59949,-10.99517 c0.6934300000000001,-4.33531 -0.48423,-8.70159 -1.17237,-12.95995 a27.29557,27.29557 0 0 1 0.7554700000000001,-13.15093 a41.2313,41.2313 0 0 1 6.82531,-12.1464 a100.47866,100.47866 0 0 1 23.01843,-21.3627 a105.40368,105.40368 0 0 1 32.6004,-14.7969 c0.7200000000000001,-0.18769000000000002 0.87255,0.9621000000000001 0.15729000000000004,1.14856 z" fill="#fff" id="svg_21" class=""/><path d="M96.3445238623047,613.3542202319336 a15.53837,15.53837 0 0 1 -0.8360000000000001,-20.10319 c0.46083,-0.58635 1.39363,0.10222000000000002 0.9321900000000001,0.6893400000000002 a14.38819,14.38819 0 0 0 0.8158500000000001,18.69857 c0.5087,0.54544 -0.40628000000000003,1.2576 -0.91207,0.71528 z" fill="#fff" id="svg_22"/><path d="M83.0111538623047,642.2416602319336 a29.94894,29.94894 0 0 0 20.68738,-6.9572 c0.5718000000000001,-0.4798700000000001 1.28639,0.43278000000000005 0.71528,0.91207 a31.15143,31.15143 0 0 1 -21.54181,7.1958400000000005 c-0.7463200000000001,-0.038430000000000006 -0.60311,-1.18893 0.13915,-1.1507100000000001 z" fill="#fff" id="svg_23"/><path d="M123.3884038623047,593.1458002319335 a8.79545,8.79545 0 0 0 7.17495,4.263 c0.74643,0.029000000000000005 0.6024200000000001,1.17947 -0.13915,1.1507100000000001 a9.856,9.856 0 0 1 -7.94787,-4.69847 a0.5990000000000001,0.5990000000000001 0 0 1 0.09840000000000003,-0.8136700000000001 a0.58246,0.58246 0 0 1 0.8136700000000001,0.09839000000000003 z" fill="#fff" id="svg_24"/><path d="M666.4173338623046,552.8050202319336 H265.16122386230467 V100.22240023193359 H666.4173338623046 z" fill="#fff" id="svg_25"/><path d="M666.4173338623046,552.8050202319336 H265.16122386230467 V100.22240023193359 H666.4173338623046 zm-399.09877,-2.15729 H664.2599938623047 v-448.268 H267.3185138623047 z" fill="#cacaca" id="svg_26"/><path d="M617.6702038623047,312.1322402319336 H313.9083338623047 a2.15729,2.15729 0 1 1 0,-4.31458 h303.7619 a2.15729,2.15729 0 0 1 0,4.31458 z" fill="#e4e4e4" id="svg_27"/><path d="M617.6702038623047,275.1322402319336 H313.9083338623047 a2.15729,2.15729 0 1 1 0,-4.31458 h303.7619 a2.15729,2.15729 0 0 1 0,4.31458 z" fill="#e4e4e4" id="svg_28"/><path d="M617.6702038623047,238.13224023193362 H313.9083338623047 a2.15729,2.15729 0 1 1 0,-4.31458 h303.7619 a2.15729,2.15729 0 0 1 0,4.31458 z" fill="#e4e4e4" id="svg_29"/><path d="M617.6702038623047,201.13224023193362 H313.9083338623047 a2.15729,2.15729 0 1 1 0,-4.31458 h303.7619 a2.15729,2.15729 0 0 1 0,4.31458 z" fill="#e4e4e4" id="svg_30"/><path d="M617.6702038623047,345.5702402319336 H313.9083338623047 a2.15729,2.15729 0 1 1 0,-4.31458 h303.7619 a2.15729,2.15729 0 0 1 0,4.31458 z" fill="#e4e4e4" id="svg_31"/><path d="M617.6702038623047,511.57024023193355 H313.9083338623047 a2.15729,2.15729 0 1 1 0,-4.31458 h303.7619 a2.15729,2.15729 0 0 1 0,4.31458 z" fill="#e4e4e4" id="svg_32"/><path d="M544.9047438623047,476.9405002319336 h-158.231 a3.9933899999999998,3.9933899999999998 0 0 1 -3.989,-3.989 V379.8744202319336 a3.99338,3.99338 0 0 1 3.989,-3.989 h158.231 a3.99337,3.99337 0 0 1 3.989,3.989 v93.07706 A3.99338,3.99338 0 0 1 544.9047438623047,476.9405002319336 z" fill="#fff" id="svg_33"/><path d="M492.06358386230465,423.76715023193356 a8.8014,8.8014 0 0 0 -12.64552,-0.22600000000000003 L434.8876838623047,468.0718002319336 a6.28787,6.28787 0 0 1 -8.86881,0.013310000000000002 l-6.59513,-6.5818900000000005 a8.78014,8.78014 0 0 0 -12.41958,0 L394.23983386230464,474.28139023193364 H537.3386638623047 v-1.82165 z" fill="#0a42a5" id="svg_34"/><path d="M544.9047438623047,476.9405002319336 h-158.231 a3.9933899999999998,3.9933899999999998 0 0 1 -3.989,-3.989 V379.8744202319336 a3.99338,3.99338 0 0 1 3.989,-3.989 h158.231 a3.99337,3.99337 0 0 1 3.989,3.989 v93.07706 A3.99338,3.99338 0 0 1 544.9047438623047,476.9405002319336 zM386.6737538623047,378.5448002319336 a1.3312,1.3312 0 0 0 -1.3296700000000001,1.3296700000000001 v93.07706 a1.33119,1.33119 0 0 0 1.3296700000000001,1.3296700000000001 h158.231 a1.33119,1.33119 0 0 0 1.3296800000000002,-1.3296700000000001 V379.8744202319336 a1.3312,1.3312 0 0 0 -1.3296800000000002,-1.3296700000000001 z" fill="#3f3d56" id="svg_35"/><path d="M163.4377138623047,461.38242023193357 a10.05575,10.05575 0 0 0 -8.67173,-12.74978 l-8.29088,-34.75975 l-12.7075,13.5408 l9.82137,30.9325 a10.11027,10.11027 0 0 0 19.84874,3.03623 z" fill="#ffb6b6" id="svg_36"/><path d="M141.2759638623047,448.77486023193364 a4.505,4.505 0 0 1 -2.70763,-2.47619 l-17.579,-42.99751 a46.37343,46.37343 0 0 1 -1.6481700000000001,-32.60257 l11.264,-35.28292 a14.49652,14.49652 0 1 1 28.87239,2.6420000000000003 l-14.93809,56.81578 l10.00513,44.62172 a4.51466,4.51466 0 0 1 -2.20041,4.67919 l-7.41611,4.23741 a4.50564,4.50564 0 0 1 -2.62316,0.5756700000000001 A4.45469,4.45469 0 0 1 141.2759638623047,448.77486023193364 z" fill="#0a42a5" id="svg_37" class="" fill-opacity="1"/><polygon points="203.799 669.082 216.058 669.082 221.891 621.794 203.796 621.794 203.799 669.082" fill="#ffb6b6" id="svg_38"/><path d="M200.67126386230467,665.0794202319336 l24.144,-0.0010000000000000002 h0.0010000000000000002 a15.3873,15.3873 0 0 1 15.38647,15.38623 v0.5 l-39.53076,0.0014600000000000004 z" fill="#2f2e41" id="svg_39"/><polygon points="134.799 669.082 147.058 669.082 152.891 621.794 134.796 621.794 134.799 669.082" fill="#ffb6b6" id="svg_40"/><path d="M131.67126386230467,665.0794202319336 l24.144,-0.0010000000000000002 h0.0010000000000000002 a15.3873,15.3873 0 0 1 15.38647,15.38623 v0.5 l-39.53076,0.0014600000000000004 z" fill="#2f2e41" id="svg_41"/><path d="M211.18085386230467,430.5649102319336 l-71.89678,-6.32584 s-7.10322,45.32584 -6.10322,63.32584 s2,46 2,46 l-8,122 l31,-4 l4,-101 l13,-55 l15,70 l10,90 l27,-3 l-9,-109 S226.1808238623047,445.5649102319336 211.18085386230467,430.5649102319336 z" fill="#2f2e41" id="svg_42"/><circle cx="182.1808624267578" cy="277.56494140625" r="20" fill="#ffb8b8" id="svg_43"/><path d="M204.08267386230466,322.2224002319336 l-14.284510000000001,-11.3709 s-15.469,-11.93613 -24.54315,-3.11136 l-4.07412,5.82477 s-23.09822,8.65749 -23.09822,19.65749 l1.09822,60.34251 s-8,31 4,33 l69.90178,5.65749 l-0.90178,-57.65749 z" fill="#0a42a5" id="svg_44" class="" fill-opacity="1"/><path d="M166.68085386230467,295.0649102319336 s-21,-15 -10,-33 c7.63117,-12.48737 23.44413,-11.49893 32.414,-9.72226 a15.154,15.154 0 0 1 11.086,8.72226 c1.5,3.5 1.5,7 -4.5,7 c-12,0 -6,9 -6,9 s-8,2 -6,9 S166.68085386230467,295.0649102319336 166.68085386230467,295.0649102319336 z" fill="#919191" id="svg_45" class="" fill-opacity="1"/><path d="M276.2389838623047,427.60964023193355 a10.05576,10.05576 0 0 0 -13.94451,-6.58077 L237.50233386230468,395.29315023193357 l-4.072,18.11774 l24.16736,21.66143 a10.11027,10.11027 0 0 0 18.64135,-7.46268 z" fill="#ffb6b6" id="svg_46"/><path d="M250.74504386230467,428.00107023193357 a4.505,4.505 0 0 1 -3.58993,-0.75841 l-36.97666,-28.11642 a46.37345,46.37345 0 0 1 -17.97415,-27.2502 l-8.21132,-36.11559 a14.49652,14.49652 0 1 1 26.215,-12.38415 l15.97959,56.5317 l31.276510000000002,33.36137 a4.51469,4.51469 0 0 1 0.48026,5.1484 l-4.2374,7.41612 a4.50564,4.50564 0 0 1 -1.96754,1.82787 A4.45492,4.45492 0 0 1 250.74504386230467,428.00107023193357 z" fill="#0a42a5" id="svg_47" class="" fill-opacity="1"/><path d="M758.6558438623047,30.177080231933587 H181.1000638623047 a0.83826,0.83826 0 0 1 0,-1.67651 H758.6558438623047 a0.83826,0.83826 0 0 1 0,1.67651 z" fill="#cacaca" id="svg_48"/><circle cx="199.96734619140625" cy="9.220769882202148" r="9.220769882202148" fill="#3f3d56" id="svg_49"/><circle cx="231.8209228515625" cy="9.220769882202148" r="9.220769882202148" fill="#3f3d56" id="svg_50"/><circle cx="263.67449951171875" cy="9.220769882202148" r="9.220769882202148" fill="#3f3d56" id="svg_51"/><path d="M739.5707538623047,5.6400502319336 H716.9379438623047 a1.67651,1.67651 0 0 1 0,-3.353 h22.63281 a1.67651,1.67651 0 0 1 0,3.353 z" fill="#3f3d56" id="svg_52"/><path d="M739.5707538623047,11.9269402319336 H716.9379438623047 a1.67651,1.67651 0 0 1 0,-3.353 h22.63281 a1.67651,1.67651 0 0 1 0,3.353 z" fill="#3f3d56" id="svg_53"/><path d="M739.5707538623047,18.21380023193359 H716.9379438623047 a1.67651,1.67651 0 0 1 0,-3.353 h22.63281 a1.67651,1.67651 0 0 1 0,3.353 z" fill="#3f3d56" id="svg_54"/><path d="M584.5756738623047,161.96534023193357 H347.29913386230464 a5.39326,5.39326 0 0 1 -5.45881,-4.65385 a5.19076,5.19076 0 0 1 5.1625,-5.7249300000000005 H584.2072038623047 a5.44194,5.44194 0 0 1 5.53758,4.72437 A5.19046,5.19046 0 0 1 584.5756738623047,161.96534023193357 z" fill="#0a42a5" id="svg_56"/></g></svg>