<svg xmlns="http://www.w3.org/2000/svg" xmlns:xlink="http://www.w3.org/1999/xlink" data-name="Layer 1" width="669.17503" height="511.62846"><rect id="backgroundrect" width="100%" height="100%" x="0" y="0" fill="none" stroke="none"/><g class="currentLayer" style=""><title>Layer 1</title><path d="M623.9018344140625,441.0443542431641 l1.14386,-25.71948 a83.06565,83.06565 0 0 1 38.74475,-9.8078 c-18.60845,15.21374 -16.28295,44.54071 -28.899,64.99963 a49.96442,49.96442 0 0 1 -36.63941,23.08923 l-15.5722,9.53437 a83.72447,83.72447 0 0 1 17.647,-67.8451 a80.87424,80.87424 0 0 1 14.863,-13.81018 C618.9193544140625,431.31922424316406 623.9018344140625,441.0443542431641 623.9018344140625,441.0443542431641 z" fill="#a5e5c5" id="svg_1" class="" fill-opacity="1"/><path d="M387.7608344140625,509.5427842431641 c-7.93145,-0.56438 -10,1 -22,0 h-22 l2.86191,-52.6484 l34.63431,13.87845 l172.114,4.2252600000000005 l-0.10092000000000001,0.2918200000000001 c-0.07793000000000001,0.22491000000000005 -7.7194400000000005,22.57717 -1.7462400000000002,31.04161 l0.24761000000000002,0.3502 l-0.48329,0.004710000000000001 L393.40044441406246,508.1342242431641 C391.67662441406253,508.1499842431641 389.4709544140625,509.664474243164 387.7608344140625,509.5427842431641 z" fill="#f2f2f2" id="svg_2"/><path d="M396.6882444140625,510.2311342431641 c-15.3216,-1.09024 -31.18673,4.86614 -44.42775,-1.85825 l-10.5846,0.6410700000000001 l-0.030050000000000007,-0.08908000000000002 c-0.08209000000000002,-0.24412 -5.08221,-39.58569 5.02571,-54.83946 l0.44523,-0.6716500000000002 l0.3476100000000001,3.6131900000000003 l-3.33235,49.008 l7.38552,-2.46491 c17.937170000000002,8.44269 39.26965,2.86708 59.79952,2.78923 l139.71444,-0.5163599999999999 c2.92672,-0.009790000000000004 5.36473,1.98989 5.44261,4.45873 l0.007550000000000002,0.24112 L405.12721441406245,510.53122424316405 Q400.8933644140625,510.53081424316406 396.6882444140625,510.2311342431641 z" fill="#ccc" id="svg_3"/><polygon points="543.667 485.616 386.44 482.491 386.279 482.431 349.132 468.509 349.834 466.636 386.821 480.499 543.707 483.616 543.667 485.616" fill="#e6e6e6" id="svg_4"/><polygon points="542.828 494.035 385.601 490.91 385.441 490.85 348.293 476.928 348.995 475.055 385.983 488.918 542.868 492.035 542.828 494.035" fill="#e6e6e6" id="svg_5"/><polygon points="541.989 502.455 384.762 499.329 384.602 499.269 347.454 485.346 348.156 483.473 385.144 497.337 542.029 500.455 541.989 502.455" fill="#e6e6e6" id="svg_6"/><path d="M397.7743444140625,475.54167424316404 a105.2174,105.2174 0 0 1 -41.73336,-11.7754 l-10.89789,-5.78026 l0.28472000000000003,-2.8575 a1.72931,1.72931 0 0 1 1.83824,-1.40191 l0.9620000000000001,0.011870000000000004 L494.8565244140625,455.896334243164 a85.93542,85.93542 0 0 1 28.13252,5.10591 l31.94794,11.5989 l-0.016790000000000003,0.16854000000000005 c-0.26824,2.6921500000000003 -2.98266,4.77232 -6.18013,4.73523 l-144.43382,-1.6925700000000001 Q401.0289944140625,475.7737342431641 397.7743444140625,475.54167424316404 z" fill="#e6e6e6" id="svg_7"/><polygon points="554.63 473.22 554.597 473.218 378.763 469.189 378.641 469.133 346.939 454.452 347.261 453.961 348.224 453.973 379.057 468.259 553.261 472.247 554.657 472.28 554.63 473.22" fill="#ccc" id="svg_8"/><path d="M417.9345244140625,455.0003242431641 l-2.232,-0.03163000000000001 l-50.39167,-0.74536 l-2.3879,-0.03330000000000001 c11.51365,12.25815 36.97231,15.32488 74.28841,10.57594 z" fill="#e7f7ff" id="svg_9" class="" fill-opacity="1"/><polygon points="559.613 161.814 562.687 168.965 557.663 194.36 506.408 187.234 506.817 156.267 507.846 149.485 559.613 161.814" fill="#ffb6b6" id="svg_10"/><polygon points="586.094 490.943 574.786 490.943 569.404 447.327 586.094 447.327 586.094 490.943" fill="#ffb6b6" id="svg_11"/><path d="M552.4580344140625,505.704774243164 a4.83508,4.83508 0 0 0 4.83112,4.83111 h21.51311 l3.7084,-7.65491 l1.44022,7.65491 h8.10856 l-2.27947,-27.34221 l-3.6857,-0.21547000000000002 l-12.38393,-0.7371700000000001 l-1.996,-0.12473000000000002 v7.74559 L554.5446744140625,501.72422424316403 A4.83766,4.83766 0 0 0 552.4580344140625,505.704774243164 z" fill="#2f2e41" id="svg_12"/><polygon points="481.576 440.943 470.268 440.943 463.616 376.73 484.863 375.461 481.576 440.943" fill="#ffb6b6" id="svg_13"/><path d="M447.9392344140625,455.704774243164 a4.83508,4.83508 0 0 0 4.83111,4.83111 h21.51312 l3.7084,-7.65491 l1.44028,7.65491 h8.1085 l-2.27947,-27.34221 l-3.2887399999999998,-0.19284000000000004 l-12.59948,-0.7598000000000001 l-2.17738,-0.12473000000000002 v7.74559 L450.02586441406254,451.72422424316403 A4.83765,4.83765 0 0 0 447.9392344140625,455.704774243164 z" fill="#2f2e41" id="svg_14"/><path d="M590.8939244140626,453.3306942431641 h-0.04400000000000001 l-2.17473,-70.91863 a18.54444,18.54444 0 0 0 -0.24332,-17.52412 l-0.3113600000000001,-0.56361 l0.8073,-3.7421800000000003 a23.83637,23.83637 0 0 0 -1.36215,-14.34564 l-2.02882,-66.15392 c7.24815,-46.97409 -27.29438,-77.6088 -27.29438,-77.6088 l3.17482,-24.62047 l-55.87036,1.26978 l0.95037,23.35069 l-11.1091,38.1682 c-5.84641,56.95965 -45.19416,92.76163 -39.21349,147.23118 a1.03984,1.03984 0 0 1 -0.06818000000000002,0.46 a13.90645,13.90645 0 0 0 1.12309,11.22171 a4.24375,4.24375 0 0 1 0.50587,1.3923 c1.23214,9.549 1.39259,-2.5300000000000002 3.02544,6.93464 l-0.31771000000000005,0.16067 c-1.1440000000000001,0.3948900000000001 -1.6346500000000002,1.97966 -1.0962100000000001,3.5398 s1.90242,2.50479 3.04642,2.1099 l29.86695,0.31928000000000006 c1.1440000000000001,-0.3948000000000001 1.63484,-1.97966 1.09622,-3.53981 c-0.53844,-1.56014 -1.90242,-2.50469 -3.04642,-2.10989 l-1.8581,0.93981 l3.10868,-10.17079 l1.08969,-1.01733 a4.73668,4.73668 0 0 0 -0.60218,-7.40162 l0,0 l3.09671,-16.52756 l-0.43976000000000004,-12.49986 l0.906,-14.18084 L534.7999744140625,290.71822424316406 l15.85517,78.438 L566.8504244140624,454.12002424316404 a2.96812,2.96812 0 0 0 -0.929,2.75281 a3.07737,3.07737 0 0 0 3.06578,2.4347 h21.98563 a2.99464,2.99464 0 0 0 2.88387,-3.79109 A3.03127,3.03127 0 0 0 590.8939244140626,453.3306942431641 z" fill="#2f2e41" id="svg_15"/><path d="M571.3425244140625,41.14029424316405 a27.66159,27.66159 0 1 1 -47.57794,-19.18618 l0.13277,-0.13263 c0.22131000000000003,-0.23245000000000002 0.44261000000000006,-0.46477 0.6750000000000002,-0.6861400000000002 a0.010830000000000003,0.010830000000000003 0 0 0 0.011000000000000003,-0.011080000000000003 a5.80526,5.80526 0 0 0 0.8741400000000001,-0.78555 c3.73412,-5.21807 7.968,-9.59349 18.22344,-6.86 C558.4457044140624,17.414094243164072 571.3425244140625,25.859964243164058 571.3425244140625,41.14029424316405 z" fill="#dadada" id="svg_16" class="" fill-opacity="1"/><path d="M419.39145441406254,29.298644243164063 a10.13242,10.13242 0 0 0 11.479,10.47018 l71.33755,58.54655 L513.1044744140625,79.16322424316405 L439.55566441406245,27.636224243164065 a10.18731,10.18731 0 0 0 -20.16421,1.66246 z" fill="#ffb6b6" id="svg_17"/><path d="M532.3303644140625,115.58141424316409 s-0.021920000000000005,-2.10855 -11.36244,-2.02746 c-14.07666,0.10064000000000001 -52.84558,-20.10913 -49.4544,-39.14246 a7.95989,7.95989 0 0 1 -9.48943,-2.27617 l18.87351,-18.17158 c5.92256,0.4 5.98315,4.3630700000000004 5.47577,6.6387 l15.16832,6.02728 l39.50613,22.69717 l-6.9758700000000005,22.79876 z" fill="#0a42a5" id="svg_18"/><circle cx="536.8659057617188" cy="47.54039001464844" r="23.195430755615234" fill="#ffb7b7" id="svg_19"/><path d="M504.9861644140625,162.91194424316404 a9.31192,9.31192 0 0 0 0.45365,11.72623 c0.011350000000000002,0.6804000000000001 0.11338000000000001,1.3381800000000001 1.07737,3.77644 a4.26777,4.26777 0 0 0 0.4423000000000001,0.6690600000000001 a1.6597700000000002,1.6597700000000002 0 0 0 0.10200000000000001,0.14743000000000003 a7.71059,7.71059 0 0 0 4.02591,2.71042 l42.45927,11.851 l5.61362,1.56494 l0.98662,0.27224 l0.5444,-7.66627 a6.8644300000000005,6.8644300000000005 0 0 0 1.5082499999999999,-8.81168 l-0.7825,-1.29285 l4.55895,-12.2592 l0.4423000000000001,-1.21346 l11.624130000000001,-31.28872 l0.011350000000000002,-2.0867 l0.022630000000000004,-2.15468 l0.11345000000000001,-15.03767 a30.67606,30.67606 0 0 0 -12.13447,-24.47306 a30.14821,30.14821 0 0 0 -11.624130000000001,-5.44349 l-0.09075000000000003,-0.011350000000000002 l-4.59293,-6.18065 l-18.63263,1.85988 l-1.5423,3.164 l-1.8712300000000002,3.8105 l-13.50665,8.04045 l-4.61564,10.72825 l-3.11867,7.258 c-4.83111,3.47029 -7.71167,7.92714 -8.53951,13.23454 c-1.7691400000000002,11.27258 6.124,22.55651 7.06518,23.84928 l0.23818,12.93969 z" fill="#0a42a5" id="svg_20"/><path d="M561.1409544140625,53.62122424316405 c-0.21023000000000003,-0.03323000000000001 -0.42047000000000007,-0.07753000000000002 -0.6307000000000001,-0.11075000000000002 c-3.61815,-0.6417000000000002 -7.2362400000000004,-1.27233 -10.84333,-1.92524 l-0.3320000000000001,-8.17665 l-4.37048,7.32465 c-9.96925,3.30832 -19.29673,1.43846 -28.071,-2.6886300000000003 a79.25037,79.25037 0 0 1 -8.40917,-4.636 c-0.8912400000000001,-13.82864 4.69967,-22.68158 15.10326,-21.75313 c0.38000000000000006,0.033920000000000006 0.6527700000000002,-0.35400000000000004 0.98477,-0.52013 a0.010830000000000003,0.010830000000000003 0 0 0 0.011000000000000003,-0.011080000000000003 c0.56431,-0.26554 1.13969,-0.52 1.71508,-0.7523200000000001 a25.55056,25.55056 0 0 1 26.82066,5.20033 C560.2004144140625,32.332884243164074 563.3870344140626,43.49706424316406 561.1409544140625,53.62122424316405 z" fill="#dadada" id="svg_21" class="" fill-opacity="1"/><path d="M560.5102544140625,53.51048424316406 s-6.87116,-25.64776 -36.32522,-31.56744 c-0.03316000000000001,-0.010940000000000002 -0.14384000000000002,-0.05525000000000001 -0.28769,-0.12156000000000002 c-0.08847000000000002,-0.055380000000000006 -0.19915000000000002,-0.11076000000000003 -0.30977000000000005,-0.16600000000000004 c0.3319200000000001,-0.18815 0.6527700000000002,-0.35400000000000004 0.98477,-0.52014 a0.010830000000000003,0.010830000000000003 0 0 0 0.011000000000000003,-0.011080000000000003 c0.2877,-0.26554 0.5753900000000001,-0.53108 0.8741500000000001,-0.78554 l0.8409300000000001,0.033220000000000006 S555.8520244140625,15.691624243164057 560.5102544140625,53.51048424316406 z" fill="#a5e5c5" id="svg_22" class="" fill-opacity="1"/><path d="M571.8414344140625,215.18836424316407 a3.91253,3.91253 0 0 1 -4.01625,0.6500000000000001 a9.31373,9.31373 0 0 1 -3.43193,-2.51029 a32.35943,32.35943 0 0 1 -7.91817,-14.27085 l1.27279,-2.26353 A12.42821,12.42821 0 0 1 565.2335244140625,183.11822424316404 a7.6634,7.6634 0 0 1 4.722,-0.41068000000000005 a4.47559,4.47559 0 0 1 3.25418,3.22322 c0.49016000000000004,2.4215 -1.52713,4.60782 -3.56957,5.998 a25.39873,25.39873 0 0 1 -11.95631,4.2779 a41.19218,41.19218 0 0 1 13.26943,11.90816 a9.7574,9.7574 0 0 1 1.7555,3.4463600000000003 A3.9227,3.9227 0 0 1 571.8414344140625,215.18836424316407 z" fill="#2f2e41" id="svg_23"/><path d="M382.0318344140625,190.7692742431641 v0.6514900000000001 c-1.40222,-1.64291 -2.83282,-3.27182 -4.24926,-4.90073 q-0.8921800000000001,-1.01976 -1.7846700000000002,-2.03955 q-3.782,-4.2918 -7.606,-8.55517 c-2.56378,-2.83283 -5.12756,-5.66565 -7.71973,-8.48429 c-0.62316,-0.6798400000000002 -1.24627,-1.35971 -1.8836000000000002,-2.03955 a14.66188,14.66188 0 0 0 -1.65741,-1.58654 a6.14963,6.14963 0 0 0 -2.02539,-1.119 a5.07756,5.07756 0 0 0 -2.606,-0.028170000000000004 c-0.9776,0.22668000000000002 -1.91229,0.5807800000000001 -2.8611400000000002,0.8781700000000001 c-0.9776,0.32575000000000004 -1.94068,0.6373300000000001 -2.91791,0.9488900000000001 c-1.9548400000000001,0.63748 -3.89514,1.275 -5.85,1.91229 a0.19356000000000004,0.19356000000000004 0 0 1 -0.2522,-0.10651000000000001 l-0.002680000000000001,-0.0069200000000000025 a0.19743000000000005,0.19743000000000005 0 0 1 0.14178000000000002,-0.269 c0.48169,-0.15579000000000004 0.97724,-0.31155000000000005 1.47315,-0.46753 c1.96869,-0.6514900000000001 3.92315,-1.28881 5.89215,-1.92611 c0.9772299999999999,-0.32593000000000005 1.9544700000000002,-0.6374900000000001 2.93207,-0.9490700000000001 a8.76215,8.76215 0 0 1 2.83282,-0.56659 a6.40867,6.40867 0 0 1 4.16419,1.95465 c0.6090000000000001,0.56659 1.1615600000000001,1.16138 1.7138,1.7705099999999998 q0.9772299999999999,1.06229 1.9548400000000001,2.12463 q3.93025,4.29182 7.80407,8.61173 q3.88825,4.33428 7.70557,8.68262 q0.276,0.31878000000000006 0.55225,0.63748 C379.21317441406245,187.51146424316408 380.6153944140625,189.14052424316407 382.0318344140625,190.7692742431641 z" fill="#fff" id="svg_24"/><path d="M356.9114144140625,166.42464424316404 a4.7883700000000005,4.7883700000000005 0 0 0 -2.06268,-1.53281 l-0.8053,0.028260000000000004 a85.05416,85.05416 0 0 0 24.32916,24.75754 Q367.64189441406245,178.05116424316407 356.9114144140625,166.42464424316404 z" fill="#fff" id="svg_25"/><path d="M488.8413444140625,268.65482424316406 L456.75352441406255,96.84522424316407 a12.72616,12.72616 0 0 0 -12.08553,-10.29808 q-0.38925000000000004,-0.008640000000000002 -0.77844,0 l-21.85889,0.78412 l-2.35253,0.08649000000000003 l-10.90929,0.3920800000000001 l-2.35253,0.08073000000000002 l-7.01724,0.25371 L257.9013244140625,93.22412424316406 c-0.21331000000000003,0.011520000000000002 -0.43246000000000007,0.011520000000000002 -0.6457700000000002,0.005730000000000001 l-31.70725,-0.6630800000000001 l-11.73382,-0.24216000000000001 l-0.3748100000000001,-0.005760000000000001 l-8.66055,-0.18451000000000004 l-75.46547,-1.5683799999999999 l-20.008,-0.42092000000000007 l-9.86567,-0.20179000000000002 l-2.364,-0.05192000000000001 l-11.24949,-0.23067 l-2.35826,-0.05187000000000001 l-11.509,-0.23643000000000003 l-2.35831,-0.05187000000000001 l-12.64486,-0.26526 l-1.9834999999999998,-0.04037000000000001 l-11.27832,-0.23638 l-1.78166,-0.03459000000000001 h-0.25945 a12.69162,12.69162 0 0 0 -12.4661,10.59791 L0.16671441406248277,277.6266942431641 a12.62409,12.62409 0 0 0 12.46034,14.65716 H179.2876344140625 a11.54884,11.54884 0 0 1 6.81544,2.24874 l3.15975,2.341 a12.73914,12.73914 0 0 0 7.51309,2.4793600000000002 a192.43946,192.43946 0 0 1 98.21814,0 a12.54838,12.54838 0 0 0 8.93154,-3.7017800000000003 a11.457,11.457 0 0 1 7.49578,-3.3385000000000002 l165.66885,-8.72973 a12.62479,12.62479 0 0 0 11.75112,-14.92815 z" fill="#ccc" id="svg_26"/><path d="M443.4408244140625,241.86279424316405 a21.97626,21.97626 0 0 1 -22.75,21.16 c-9.620000000000001,-0.3400000000000001 -21.1,-0.51 -33.56,-0.25 c-40.69,0.8700000000000001 -91.81,6.47 -122.56,26.61 a21.96635,21.96635 0 0 1 -13.05,3.58 c-0.3400000000000001,-0.020000000000000004 -0.6700000000000002,-0.04000000000000001 -1.01,-0.07 a21.928,21.928 0 0 1 -12.84,-5.69 c-16.94,-15.5 -55.79,-34.27 -144.72,-35.59 c-0.37000000000000005,0 -0.7300000000000001,-0.020000000000000004 -1.09,-0.04000000000000001 a21.96391,21.96391 0 0 1 -20.54,-23.32 l8.74,-138.71 l1.31,-20.79 l2.3,-36.37 a14.44272,14.44272 0 0 1 14.4,-13.53 h0.09000000000000002 l52.98,0.31000000000000005 q33.48,1.5150000000000001 55.46,8.53 a95.87524,95.87524 0 0 1 14.56,5.86005 a55.97512,55.97512 0 0 1 16.94,12.65 a19.1189,19.1189 0 0 0 11.5,6.21 a18.27586,18.27586 0 0 0 2.08,0.19000000000000003 a19.05655,19.05655 0 0 0 11.53,-3.3 c34.61,-23.19 105.14,-24.95 144.09,-23.95 a21.93093,21.93093 0 0 1 21.36005,20.31 l1.5799500000000002,20.69 l1.57,20.63 l9.06,119.23 l2.52,33.17 A22.80586,22.80586 0 0 1 443.4408244140625,241.86279424316405 z" fill="#f2f2f2" id="svg_27"/><path d="M106.1312944140625,67.66261424316406 c31.92709,-10.18628 67.54611,-7.4895 97.79251,6.86087 a128.76776,128.76776 0 0 1 24.30152,14.96765 c2.1275,1.6697400000000002 5.155,-1.3170000000000002 3.00463,-3.00467 a139.18738,139.18738 0 0 0 -97.705,-28.65176 a133.69712,133.69712 0 0 0 -28.52335,5.73047 c-2.59534,0.8280000000000001 -1.48608,4.932 1.12961,4.09744 z" fill="#3f3d56" id="svg_28"/><path d="M281.81516441406245,91.13951424316406 c29.68384,-15.60223 65.22949,-19.00455 97.50385,-10.14807 a128.52077,128.52077 0 0 1 26.512,10.5412 c2.4118,1.28692 4.56079,-2.3798500000000002 2.14465,-3.66907 c-30.75982,-16.41327 -67.684,-20.19162 -101.27417,-11.04221 a133.6584,133.6584 0 0 0 -27.031,10.649000000000001 C277.2490044140625,88.74322424316404 279.3942644140625,92.41197424316408 281.81516441406245,91.13951424316406 z" fill="#3f3d56" id="svg_29"/><path d="M281.81516441406245,119.46773424316405 c29.68384,-15.60224 65.22949,-19.00455 97.50385,-10.14807 a128.51919,128.51919 0 0 1 26.512,10.54123 c2.4118,1.28692 4.56079,-2.37986 2.14465,-3.6691000000000003 c-30.75982,-16.41327 -67.684,-20.19162 -101.27417,-11.04221 a133.65819,133.65819 0 0 0 -27.031,10.649000000000001 c-2.42151,1.27276 -0.27625,4.94156 2.14465,3.6691000000000003 z" fill="#3f3d56" id="svg_30"/><path d="M409.0152944140625,146.27629424316405 a1.82116,1.82116 0 0 0 -1.047,-1.76126 a139.3498,139.3498 0 0 0 -80.222,-15.02646 c-0.17334000000000002,0.013860000000000003 -0.3328800000000001,0.04160000000000001 -0.52008,0.055450000000000006 h-0.007000000000000002 a4.25348,4.25348 0 0 0 -0.50622,0.07633000000000001 a134.22235,134.22235 0 0 0 -47.04175,14.49945 a2.14426,2.14426 0 0 0 -1.04706,1.84454 v52.8457 a2.14417,2.14417 0 0 0 2.69049,2.03867 c0.6518000000000002,-0.18720000000000003 1.30365,-0.36749000000000004 1.96936,-0.54086 a210.61943,210.61943 0 0 1 45.3498,-7.09375 c0.3259200000000001,-0.013860000000000003 0.6517900000000002,-0.027710000000000005 0.99157,-0.04160000000000001 a237.56873,237.56873 0 0 1 37.4101,1.34512 a7.80069,7.80069 0 0 1 0.77661,0.08319000000000003 c0.6379400000000002,0.06937000000000001 1.28973,0.14563 1.92773,0.22886000000000004 c0.25653,0.027740000000000004 0.49927000000000005,0.05548 0.7350000000000001,0.09707000000000003 c2.4824200000000003,0.31200000000000006 4.94409,0.6656500000000002 7.41266,1.04709 q5.34623,0.8529000000000001 10.69256,1.9 c0.22193000000000004,0.04160000000000001 0.45075,0.09708000000000003 0.6795700000000001,0.13871000000000003 c5.7207,1.13717 11.41376,2.45471 17.079,3.91086 a2.15291,2.15291 0 0 0 2.69049,-2.0525 V146.35945424316407 A0.17566,0.17566 0 0 0 409.0152944140625,146.27629424316405 z" fill="#3f3d56" id="svg_31"/><path d="M331.0775244140625,132.37010424316406 a6.98814,6.98814 0 0 0 -5.00678,-0.4398500000000001 a5.93365,5.93365 0 0 0 -3.33483,3.13626 a15.08268,15.08268 0 0 0 -1.09772,4.31412 c-0.08800000000000002,0.5838900000000001 -0.09351000000000002,1.32065 0.49341000000000007,1.59326 a1.24289,1.24289 0 0 0 1.2612299999999999,-0.24972000000000003 a3.72853,3.72853 0 0 0 0.73846,-1.03034 a11.21528,11.21528 0 0 1 9.47388,-5.15079 l1.5687200000000001,0.62531 A18.58135,18.58135 0 0 0 331.0775244140625,132.37010424316406 z" fill="#a5e5c5" id="svg_32" class="" fill-opacity="1"/><path d="M348.05607441406255,144.55028424316407 c-1.21741,-1.79224 -2.66,-3.70581 -4.91919,-4.291 c-2.61628,-0.6777000000000002 -5.3039000000000005,0.6685800000000001 -7.58362,1.9971299999999998 a221.538,221.538 0 0 0 -19.66638,12.89771 l0.006890000000000002,0.06958000000000002 l14.67536,-0.9008200000000001 c3.5343,-0.21695000000000003 7.19006,-0.46381000000000006 10.31341,-1.952 a9.72561,9.72561 0 0 1 3.6836,-1.37164 a6.15637,6.15637 0 0 1 4.26684,2.05573 c6.76331,6.41064 8.72052,16.214 16.30829,21.84622 A206.08337,206.08337 0 0 0 348.05607441406255,144.55028424316407 z" fill="#fff" id="svg_33"/><path d="M329.6277244140625,193.1714942431641 c-0.33960000000000007,0.01416 -0.6656500000000002,0.028350000000000007 -0.99139,0.04254000000000001 c-2.3653,-0.8498200000000001 -4.7873,-1.6005500000000001 -7.23767,-2.25222 c-1.58655,-0.42484000000000005 -3.20111,-0.80728 -4.816,-1.133 c-1.82721,-0.3964800000000001 -3.66828,-0.7082200000000001 -5.50971,-0.97742 a88.11615,88.11615 0 0 0 -10.58056,-0.8921800000000001 a0.19234000000000004,0.19234000000000004 0 1 1 0,-0.38244000000000006 c0.453,0 0.90637,0.014190000000000001 1.34552,0.04254000000000001 a88.23556,88.23556 0 0 1 10.59472,1.034 c1.82721,0.29740000000000005 3.65448,0.6514900000000001 5.46753,1.04813 c1.6428900000000002,0.36829 3.28583,0.77908 4.90076,1.23227 Q326.26364441406247,191.91089424316408 329.6277244140625,193.1714942431641 z" fill="#fff" id="svg_34"/><path d="M370.4771544140625,194.9278442431641 c-0.24066,-0.04254000000000001 -0.48169,-0.07089000000000001 -0.73658,-0.09906000000000004 c-0.9772299999999999,-0.80728 -1.96868,-1.5722 -3.00262,-2.32294 c-1.28912,-0.9348700000000001 -2.62048,-1.8130000000000002 -3.98022,-2.63449 a70.67256,70.67256 0 0 0 -9.40516,-4.78747 A93.7826,93.7826 0 0 0 337.46052441406255,180.06972424316405 a158.13617,158.13617 0 0 0 -18.79547,-2.9460800000000003 c-6.3175,-0.6516700000000002 -12.663,-1.04812 -19.00848,-1.44476 c-0.269,-0.014190000000000001 -0.2832,-0.41065 0,-0.39664000000000005 c0.79327,0.05670000000000001 1.58655,0.09906000000000004 2.3936800000000003,0.15579000000000004 c6.41638,0.39664000000000005 12.83276,0.8500000000000001 19.2066,1.57236 a146.42427,146.42427 0 0 1 18.76746,3.25763 a91.27949,91.27949 0 0 1 15.38238,5.2832 a69.94339,69.94339 0 0 1 8.27161,4.405 c1.6854200000000001,1.06232 3.3145100000000003,2.1955 4.87237,3.39945 C369.2025244140625,193.8655242431641 369.85398441406255,194.37556424316404 370.4771544140625,194.9278442431641 z" fill="#fff" id="svg_35"/><path d="M367.8144344140625,194.60210424316404 a7.6982,7.6982 0 0 0 -0.77912,-0.08509000000000003 c-0.29736000000000007,-0.24069000000000002 -0.60931,-0.46734000000000003 -0.92053,-0.6940000000000002 a64.77218,64.77218 0 0 0 -6.813,-4.26339 a72.16328,72.16328 0 0 0 -6.58654,-3.15857 a92.52516,92.52516 0 0 0 -15.89209,-5.014 a158.11034,158.11034 0 0 0 -18.79584,-2.9460800000000003 c-6.31714,-0.6516700000000002 -12.66266,-1.04812 -19.00812,-1.44476 c-0.269,-0.028350000000000007 -0.269,-0.41083000000000003 0,-0.39664000000000005 c0.80743,0.05670000000000001 1.6004,0.09906000000000004 2.3936800000000003,0.15580000000000002 c6.41638,0.3964500000000001 12.83276,0.8498200000000001 19.2066,1.5722 a146.39341,146.39341 0 0 1 18.76746,3.25781 a90.80432,90.80432 0 0 1 15.382,5.28317 c1.8697500000000002,0.8498300000000001 3.697,1.7705099999999998 5.48169,2.77613 A57.98749,57.98749 0 0 1 367.8144344140625,194.60210424316404 z" fill="#fff" id="svg_36"/><path d="M389.2587644140625,198.01570424316407 c-0.22650000000000003,-0.04254000000000001 -0.45337000000000005,-0.09909000000000004 -0.6798700000000002,-0.1416 c-0.25488000000000005,-0.2692 -0.49585000000000007,-0.55243 -0.7365700000000001,-0.8358200000000001 q-1.82685,-2.10333 -3.61194,-4.24923 c-4.6880500000000005,-5.58057 -9.1358,-11.3313 -13.32831,-17.1951 q-5.3965700000000005,-7.52124 -10.2406,-15.33985 c-1.544,-2.46453 -3.03131,-4.95742 -4.48993,-7.47869 q-1.6998600000000001,-2.93175 -3.3145100000000003,-5.878 c-0.3115800000000001,-0.56658 -0.6090000000000001,-1.1332 -0.90637,-1.6997900000000001 c-0.6944000000000001,-1.33152 -1.38843,-2.677 -2.12464,-3.99421 a11.28725,11.28725 0 0 0 -3.428,-4.07928 a5.01576,5.01576 0 0 0 -2.43622,-0.8356300000000001 a7.36581,7.36581 0 0 0 -3.5127,0.90634 a114.45093,114.45093 0 0 0 -22.28,13.66843 a107.68509,107.68509 0 0 0 -18.1018,17.88928 c-0.16980000000000003,0.19830000000000003 -0.53839,0.01416 -0.38245000000000007,-0.19834000000000004 c0.6373300000000001,-0.7930900000000001 1.28882,-1.5863900000000002 1.94031,-2.36547 a108.58208,108.58208 0 0 1 17.12451,-16.27445 c0.01416,-0.014190000000000001 0.04254000000000001,-0.028350000000000007 0.05670000000000001,-0.04236000000000001 c0.55225,-0.43918000000000007 1.10486,-0.8640000000000001 1.6712700000000003,-1.27481 a115.91722,115.91722 0 0 1 10.935,-7.13876 q2.8891400000000003,-1.67853 5.90632,-3.18692 c0.49554000000000004,-0.25485 1.00561,-0.5098900000000001 1.51531,-0.7507300000000001 c0.51008,-0.25486000000000003 1.0201500000000001,-0.49555000000000005 1.5298500000000002,-0.73658 a8.33823,8.33823 0 0 1 3.24365,-0.8921800000000001 c3.93769,-0.05670000000000001 5.963,3.9093 7.3653,6.58618 c0.43915000000000004,0.8358200000000001 0.8925200000000001,1.67145 1.33166,2.50708 c1.69965,3.15857 3.47016,6.30313 5.31153,9.405 c1.11865,1.9263 2.28021,3.83859 3.456,5.73654 c1.6854300000000002,2.70539 3.41339,5.38227 5.21228,8.04529 a0.013900000000000003,0.013900000000000003 0 0 0 0.013610000000000002,0.014190000000000001 h0.0005500000000000001 c2.08209,3.14438 4.24927,6.23206 6.48731,9.30576 q5.7576600000000004,7.88227 12.06787,15.41055 Q387.0211544140625,195.49445424316406 389.2587644140625,198.01570424316407 z" fill="#fff" id="svg_37"/><path d="M338.72552441406253,135.46013424316408 l-0.3917800000000001,0.17132 a10.691,10.691 0 0 0 -8.6363,-5.22851 c-5.79889,-0.41193 -10.89282,3.45257 -11.35589,8.614 a8.53066,8.53066 0 0 0 1.72436,5.9379 l-0.36371000000000003,0.21500000000000002 a8.88365,8.88365 0 0 1 -1.79583,-6.18381 c0.4818700000000001,-5.37491 5.787,-9.39942 11.82586,-8.97046 A11.133,11.133 0 0 1 338.72552441406253,135.46013424316408 z" fill="#a5e5c5" id="svg_38" class="" fill-opacity="1"/><path d="M310.0716344140625,145.90288424316407 a10.45861,10.45861 0 0 0 -9.525,0.6063200000000001 a150.1542,150.1542 0 0 1 15.45623,3.211 C313.8944444140625,148.62038424316404 312.24515441406254,146.8972242431641 310.0716344140625,145.90288424316407 z" fill="#fff" id="svg_39"/><path d="M300.5173744140625,146.50450424316404 l-0.5731200000000001,0.41464 c0.19385000000000002,-0.14514000000000002 0.3953800000000001,-0.28119 0.6024200000000001,-0.41000000000000003 z" fill="#fff" id="svg_40"/><path d="M317.77652441406246,148.90929424316408 c-0.22845000000000004,-0.22669000000000003 -0.45544,-0.45334 -0.6853600000000001,-0.6800000000000002 a19.891000000000002,19.891000000000002 0 0 0 -6.2486,-4.57235 a10.00033,10.00033 0 0 0 -3.798,-0.78366 a11.985,11.985 0 0 0 -3.94348,0.76553 c-0.5937500000000001,0.21112 -1.17438,0.45074 -1.74622,0.7059300000000001 c-0.6533800000000001,0.29273 -1.29516,0.6048900000000001 -1.9340000000000002,0.9196500000000001 q-1.7986300000000002,0.8860000000000001 -3.55066,1.8496700000000001 q-3.486,1.9177 -6.75354,4.12808 q-1.6939000000000002,1.14633 -3.31787,2.36777 q-1.5104199999999999,1.13466 -2.9598400000000002,2.3302 c-0.2066,0.16968000000000003 -0.51513,-0.10492000000000001 -0.30853,-0.2746 c0.25464,-0.21115 0.5122099999999999,-0.42100000000000004 0.7697800000000001,-0.6282000000000001 q1.0914,-0.8781800000000001 2.21771,-1.7227200000000003 q2.05389,-1.5427 4.21423,-2.96619 q3.35926,-2.21493 6.95,-4.12936 q1.7943500000000001,-0.9559500000000001 3.638,-1.83154 c0.37110000000000004,-0.17615 0.7465900000000001,-0.3484500000000001 1.12635,-0.51163 a19.2827,19.2827 0 0 1 2.67755,-0.97019 a10.64414,10.64414 0 0 1 4.044,-0.3536 a11.41873,11.41873 0 0 1 3.73114,1.14892 a24.482,24.482 0 0 1 6.186,4.93244 C318.27134441406247,148.81990424316405 317.96421441406255,149.09581424316406 317.77652441406246,148.90929424316408 z" fill="#fff" id="svg_41"/><path d="M106.1312944140625,95.99086424316408 c31.92709,-10.18628 67.54611,-7.4895 97.79251,6.8608400000000005 a128.76673,128.76673 0 0 1 24.30152,14.96765 c2.1275,1.6697400000000002 5.155,-1.3170000000000002 3.00463,-3.00467 a139.18733,139.18733 0 0 0 -97.705,-28.65176 a133.69712,133.69712 0 0 0 -28.52335,5.73047 c-2.59534,0.8280000000000001 -1.48608,4.932 1.12961,4.09744 z" fill="#3f3d56" id="svg_42"/><path d="M106.1312944140625,124.31908424316407 c31.92709,-10.18628 67.54611,-7.48951 97.79251,6.8608400000000005 a128.76673,128.76673 0 0 1 24.30152,14.96765 c2.1275,1.6697400000000002 5.155,-1.3170000000000002 3.00463,-3.00467 a139.18738,139.18738 0 0 0 -97.705,-28.65177 a133.69835,133.69835 0 0 0 -28.52335,5.73047 c-2.59534,0.8280000000000001 -1.48608,4.932 1.12961,4.09745 z" fill="#3f3d56" id="svg_43"/><path d="M106.1312944140625,152.64729424316408 c31.92709,-10.18628 67.54611,-7.4895 97.79251,6.8608400000000005 a128.76776,128.76776 0 0 1 24.30152,14.96765 c2.1275,1.6697400000000002 5.155,-1.3170000000000002 3.00463,-3.00467 a139.18738,139.18738 0 0 0 -97.705,-28.65176 a133.69712,133.69712 0 0 0 -28.52335,5.73047 c-2.59534,0.8280000000000001 -1.48608,4.932 1.12961,4.09744 z" fill="#3f3d56" id="svg_44"/><path d="M106.1312944140625,180.97554424316405 c31.92709,-10.18628 67.54611,-7.4895 97.79251,6.8608400000000005 a128.76673,128.76673 0 0 1 24.30152,14.96765 c2.1275,1.6697400000000002 5.155,-1.3170000000000002 3.00463,-3.00467 a139.18733,139.18733 0 0 0 -97.705,-28.65176 a133.69712,133.69712 0 0 0 -28.52335,5.73047 c-2.59534,0.8280000000000001 -1.48608,4.932 1.12961,4.09744 z" fill="#3f3d56" id="svg_45"/><path d="M106.1312944140625,209.30376424316404 c31.92709,-10.18628 67.54611,-7.48951 97.79251,6.8608400000000005 a128.76532,128.76532 0 0 1 24.30152,14.96768 c2.1275,1.6697400000000002 5.155,-1.3170000000000002 3.00463,-3.00467 a139.18738,139.18738 0 0 0 -97.705,-28.65177 a133.69835,133.69835 0 0 0 -28.52335,5.73047 c-2.59534,0.8280000000000001 -1.48608,4.932 1.12961,4.09745 z" fill="#3f3d56" id="svg_46"/><path d="M221.16086441406247,33.55279424316407 v67.93 c0,1.35 -2.36005,2.48 -5.54,2.79 a0.21977000000000002,0.21977000000000002 0 0 0 -0.08000000000000002,0.010000000000000002 c-0.53,0.04000000000000001 -1.09,0.07 -1.6600000000000001,0.07 a14.57029,14.57029 0 0 1 -5.15,-0.8400000000000001 c-0.15000000000000002,-0.06000000000000001 -0.30000000000000004,-0.13 -0.45,-0.19000000000000003 c-0.14,-0.08000000000000002 -0.29000000000000004,-0.15000000000000002 -0.43000000000000005,-0.23 c-0.79,-0.47000000000000003 -1.25,-1.02 -1.25,-1.61 v-73.79 A95.87524,95.87524 0 0 1 221.16086441406247,33.55279424316407 z" fill="#0a42a5" id="svg_47"/><rect x="249.59866333007812" y="49.30815124511719" width="2.0802600383758545" height="242.23463439941406" fill="#e6e6e6" id="svg_48"/><path d="M477.90063441406255,215.13456424316405 a10.13242,10.13242 0 0 0 8.84853,-12.77092 L529.9269744140626,182.20822424316407 l25.99443,-42.0491 l-20.43246,-8.24933 l-17.5361,33.88436 L473.56813441406246,195.37122424316408 a10.18731,10.18731 0 0 0 4.3325000000000005,19.76331 z" fill="#ffb6b6" id="svg_49"/><path d="M571.9561244140625,99.87730424316408 s5.08849,1.661 -0.49651000000000006,11.53124 c-4.47122,7.90188 -26.25242,53.4177 -35.14229,62.35456 a7.95988,7.95988 0 0 1 -0.9924099999999999,9.708 L514.8021444140625,167.18522424316404 c-0.39215000000000005,-5.92309 3.52758,-6.51081 5.8505,-6.31094 l4.72136,-16.73345 L541.8415244140625,102.86197424316407 l26.45777,-4.25063 z" fill="#0a42a5" id="svg_50"/><path d="M572.3994444140625,22.50822424316405 c0.9702799999999999,-3.92322 8.00959,-6.82 -4.0487,-12.2973 c-2.92646,-1.32929 -2.80518,-5.90708 -5.28064,-7.95718 s-6.10071,-3.00056 -8.97772,-1.5676200000000002 c-2.56928,1.27961 -4.01707,4.17541 -4.32579,7.02911 a25.89228,25.89228 0 0 0 0.98129,8.51209 l-0.2338,0.34154000000000007 q7.16485,5.48264 14.32982,10.96512 c1.7551900000000002,1.34314 4.0498,2.74952 6.01679,1.74173 C573.0875844140625,28.134824243164076 571.7987344140626,24.937164243164062 572.3994444140625,22.50822424316405 z" fill="#dadada" id="svg_51" class="" fill-opacity="1"/></g></svg>