<svg xmlns="http://www.w3.org/2000/svg" xmlns:xlink="http://www.w3.org/1999/xlink" data-name="Layer 1" width="1000" height="575"><rect id="backgroundrect" width="100%" height="100%" x="0" y="0" fill="none" stroke="none"/><g class="currentLayer" style=""><title>Layer 1</title><path d="M650.44069,519.07469 H331.799 a28.51851,28.51851 0 0 1 -28.48629,-28.48629 V28.486289999999997 A28.51851,28.51851 0 0 1 331.799,0 H650.44069 A28.51851,28.51851 0 0 1 678.927,28.486289999999997 V490.5884 A28.51851,28.51851 0 0 1 650.44069,519.07469 z" fill="#cbcbcb" id="svg_1"/><path d="M651.00156,500.89981 H331.23814 a8.79126,8.79126 0 0 1 -8.78122,-8.78122 V26.956099999999992 a8.79126,8.79126 0 0 1 8.78122,-8.78122 H651.00156 a8.79126,8.79126 0 0 1 8.78121,8.78122 V492.11859000000004 A8.79125,8.79125 0 0 1 651.00156,500.89981 z" fill="#fff" id="svg_2"/><circle cx="489.908203125" cy="8.723939895629883" r="2.4233200550079346" fill="#fff" id="svg_3"/><path d="M488.21238000000005,373.64160000000004 h-0.18506000000000003 a1.50164,1.50164 0 0 1 -1.5,-1.5 v-15 a1.50164,1.50164 0 0 1 1.5,-1.5 h0.18506000000000003 a1.50164,1.50164 0 0 1 1.5,1.5 v15 A1.50164,1.50164 0 0 1 488.21238000000005,373.64160000000004 z" fill="#3f3d56" id="svg_4"/><path d="M494.21238000000005,373.64160000000004 h-0.18506000000000003 a1.50164,1.50164 0 0 1 -1.5,-1.5 v-15 a1.50164,1.50164 0 0 1 1.5,-1.5 h0.18506000000000003 a1.50164,1.50164 0 0 1 1.5,1.5 v15 A1.50164,1.50164 0 0 1 494.21238000000005,373.64160000000004 z" fill="#3f3d56" id="svg_5"/><path d="M363.30491,373.5 h-0.18506000000000003 a1.50164,1.50164 0 0 1 -1.5,-1.5 v-15 a1.50164,1.50164 0 0 1 1.5,-1.5 h0.18506000000000003 a1.50164,1.50164 0 0 1 1.5,1.5 v15 A1.50164,1.50164 0 0 1 363.30491,373.5 z" fill="#3f3d56" id="svg_6"/><path d="M372.218,373.64160000000004 a0.8967800000000001,0.8967800000000001 0 0 1 -0.7341300000000001,-0.3823200000000001 l-5.43726,-7.7236400000000005 a1.5043,1.5043 0 0 1 -0.009270000000000004,-1.7128900000000002 l5.44116,-7.91015 a0.8998700000000002,0.8998700000000002 0 0 1 1.6413600000000002,0.50976 v16.31836 a0.8973000000000001,0.8973000000000001 0 0 1 -0.6284200000000001,0.8584 A0.9148200000000001,0.9148200000000001 0 0 1 372.218,373.64160000000004 z" fill="#3f3d56" id="svg_7"/><path d="M617.43479,372 v-15 a1.50164,1.50164 0 0 1 1.5,-1.5 h0.18506000000000003 a1.50164,1.50164 0 0 1 1.5,1.5 v15 a1.50164,1.50164 0 0 1 -1.5,1.5 h-0.18506000000000003 A1.50164,1.50164 0 0 1 617.43479,372 z" fill="#3f3d56" id="svg_8"/><path d="M609.74826,373.59911999999997 a0.8973000000000001,0.8973000000000001 0 0 1 -0.62841,-0.8584 V356.42236 a0.8998700000000002,0.8998700000000002 0 0 1 1.64135,-0.50976 l5.44117,7.91015 a1.5043,1.5043 0 0 1 -0.009280000000000004,1.7128900000000002 l-5.43726,7.7236400000000005 a0.8967700000000002,0.8967700000000002 0 0 1 -0.7341300000000001,0.3823200000000001 A0.9148700000000001,0.9148700000000001 0 0 1 609.74826,373.59911999999997 z" fill="#3f3d56" id="svg_9"/><rect x="362.1198425292969" y="326" width="258.39990234375" height="2" fill="#cbcbcb" id="svg_10"/><rect x="362.1198425292969" y="326" width="175" height="2" fill="#0a42a5" id="svg_11"/><circle cx="537.119873046875" cy="327" r="7" fill="#0a42a5" id="svg_12"/><path d="M491.11985000000004,187.5 a17.52,17.52 0 0 1 -17.5,-17.5 v-38 a17.5,17.5 0 0 1 35,0 v38 A17.52,17.52 0 0 1 491.11985000000004,187.5 z" fill="#0a42a5" id="svg_13"/><path d="M491.11985000000004,202 a37.04192,37.04192 0 0 1 -37,-37 a3,3 0 0 1 6,0 a31,31 0 0 0 62,0 a3,3 0 0 1 6,0 A37.04192,37.04192 0 0 1 491.11985000000004,202 z" fill="#0a42a5" id="svg_14"/><path d="M491.11985000000004,236 a3.00015,3.00015 0 0 1 -3,-3 v-33 a3,3 0 0 1 6,0 v33 A3.00015,3.00015 0 0 1 491.11985000000004,236 z" fill="#0a42a5" id="svg_15"/><circle cx="484.1198425292969" cy="126" r="2" fill="#fff" id="svg_16"/><circle cx="484.1198425292969" cy="145" r="2" fill="#fff" id="svg_17"/><circle cx="498.1198425292969" cy="133" r="2" fill="#fff" id="svg_18"/><path d="M514.88352,236.53710999999998 H467.35617 a3,3 0 0 1 0,-6 h47.52735 a3,3 0 0 1 0,6 z" fill="#0a42a5" id="svg_19"/><path d="M813.08892,451.23 c-1.12989,-0.8300000000000001 -2.29,-1.6 -3.47022,-2.33 c-0.7100000000000001,-0.46 -1.43994,-0.8900000000000001 -2.16992,-1.31 q-0.14942000000000003,-0.09000000000000002 -0.29980000000000007,-0.18006000000000003 a67.1861,67.1861 0 0 0 -11.5,-5.16 a66.10111,66.10111 0 0 0 -11.89014,-2.8600000000000003 a1.24972,1.24972 0 0 0 -0.18994000000000005,-0.030000000000000006 c-1.08985,-0.16000000000000003 -2.18994,-0.29000000000000004 -3.29981,-0.38000000000000006 c-0.77,-0.08000000000000002 -1.55029,-0.13995000000000002 -2.33008,-0.17 c-1,-0.07 -2,-0.11000000000000001 -3.02,-0.12000000000000001 c-0.30030000000000007,-0.010000000000000002 -0.6098700000000001,-0.010000000000000002 -0.91993,-0.010000000000000002 a66.93853,66.93853 0 0 0 -9.76025,0.7100000000000001 c-0.7100000000000001,0.1 -1.41992,0.21000000000000002 -2.12012,0.33000000000000007 c-0.46972,0.09000000000000002 -0.9296900000000001,0.18005000000000002 -1.38965,0.27 q-2.86523,0.5850000000000001 -5.62988,1.3900000000000001 c-0.84033,0.25 -1.67041,0.51 -2.5,0.79 c-1.12012,0.37000000000000005 -2.2202100000000002,0.77 -3.31006,1.21 c-0.9702099999999999,0.37000000000000005 -1.92041,0.78 -2.86035,1.2 a67.53825,67.53825 0 0 0 -20.67969,14.5 a66.58176,66.58176 0 0 0 -6.45019,7.67 q-1.39527,1.935 -2.6499,3.98 a65.25961,65.25961 0 0 0 -4.12012,7.75 A66.69444,66.69444 0 0 0 707.44878,495.53 a67.57114,67.57114 0 0 0 -0.8198200000000001,10.52 c0,0.6400000000000001 0.009760000000000003,1.28 0.029780000000000004,1.9100000000000001 a66.90257,66.90257 0 0 0 14.69043,40.06 c0.97949,1.24 2.00977,2.44 3.07959,3.6 c1.07031,1.1600000000000001 2.18018,2.29 3.33008,3.37 c1.41016,1.34 2.87012,2.6 4.37988,3.81 a67.21188,67.21188 0 0 0 66.77,9.83 c1.52,-0.6000000000000001 3.01026,-1.25 4.46,-1.97 q-1.61938,-1.77 -3.07959,-3.68 c-1.45019,0.6800000000000002 -2.92041,1.3000500000000001 -4.43017,1.8600500000000002 A62.66627,62.66627 0 0 1 733.49907,553.91 c-1.32031,-1.12 -2.61035,-2.3 -3.83007,-3.5300000000000002 c-1.37012,-1.37 -2.68018,-2.8 -3.91016,-4.29 c-1.06006,-1.27 -2.08008,-2.59 -3.02979,-3.95 a62.5862,62.5862 0 0 1 3.92969,-77.21 q0.8400900000000001,-0.97494 1.71,-1.8900000000000001 c1.19043,-1.25 2.42041,-2.46 3.7002,-3.6100000000000003 A62.677,62.677 0 0 1 752.709,447.03999999999996 c0.06983000000000002,-0.030000000000000006 0.14991000000000004,-0.05000000000000001 0.21973000000000004,-0.08000000000000002 c0.24024000000000004,-0.09000000000000002 0.49024,-0.17 0.7402400000000001,-0.26 a63.087,63.087 0 0 1 7.25,-2.01 c0.8901300000000001,-0.19000000000000003 1.79,-0.36000000000000004 2.68994,-0.51 c0.020000000000000004,0 0.029780000000000004,-0.010000000000000002 0.04980000000000001,-0.010000000000000002 a64.65205,64.65205 0 0 1 7.68018,-0.79 c0.8798800000000001,-0.04000000000000001 1.77,-0.06000000000000001 2.6601500000000002,-0.06000000000000001 c1.1001,0 2.21,0.030000000000000006 3.29981,0.1 c0.77978,0.030000000000000006 1.56982,0.09000000000000002 2.33984,0.16000000000000003 c0.6801800000000001,0.06000000000000001 1.36035,0.13 2.03028,0.22000000000000003 a62.03569,62.03569 0 0 1 22.21972,7.12 a60.51815,60.51815 0 0 1 5.18018,3.15 c1.3398400000000001,0.91 2.6499,1.87 3.91015,2.87 c1.2998100000000001,-0.9500000000000001 2.64991,-1.85 4.02979,-2.6900000000000004 C815.73882,453.19000000000005 814.42876,452.16999999999996 813.08892,451.23 z" fill="#3f3d56" id="svg_20"/><path d="M783.31088,350.48438999999996 l-3.63952,61.8561 H708.19769 a24.77974,24.77974 0 0 0 -16.81143,6.35753 a22.40241,22.40241 0 0 0 -7.20931,14.558 l8.15406,2.90386 a12.04974,12.04974 0 0 1 0.28651000000000004,-2.78768 c0.56527,-2.45472 2.1295,-6.92281 6.33428,-9.43174 a11.87879,11.87879 0 0 1 6.071,-1.54872 h81.01382 l4.55325,-64.58187 h27.28079 v-7.32549 z" fill="#3f3d56" id="svg_21"/><path d="M854.25884,381.44000000000005 l-0.020000000000000004,0.49000000000000005 l-2.21973,58.37 l-0.18017,4.640000000000001 c-0.6499100000000001,-0.020000000000000004 -1.2998100000000001,-0.030000000000000006 -1.96,-0.030000000000000006 q-1.9196900000000001,0 -3.81006,0.12006000000000001 a61.72109,61.72109 0 0 0 -18.06006,3.81 c-1.5,0.56 -2.98,1.18 -4.41992,1.85 a61.248,61.248 0 0 0 -6.58008,3.56 c-1.37988,0.8400000000000001 -2.73,1.7400000000000002 -4.02979,2.6900000000000004 A63.22256,63.22256 0 0 0 798.649,471.49 a58.37424,58.37424 0 0 0 -3.79,6.08 l-5.29,0.05000000000000001 l-36.12012,0.4 l-20.96973,0.24000000000000002 h-0.010250000000000002 l-14.77979,0.16000000000000003 l-5.16015,0.06000000000000001 h-0.37012000000000006 l-4.71,0.05005000000000001 l-10.16992,0.12000000000000001 l-4.73,0.05000000000000001 l-6.56006,0.07 l4.08984,-38.66 l35.67041,1.97 l6.31983,0.35000000000000003 l1.6601500000000002,0.09000000000000002 l15.56006,0.8600000000000001 l3.33985,0.18000000000000002 l8.25976,0.46 l2.77,0.15000000000000002 l13.43018,0.7400000000000001 l0.21000000000000002,-1.49 l0.3999000000000001,-2.88 l0.24023000000000003,-1.73 l1.29,-9.31 l0.40967000000000003,-2.92 l0.58008,-4.19 v-0.030000000000000006 l0.05029000000000001,-0.38000000000000006 l1.3398500000000002,-9.63995 l1.08984,-7.79 l1.01025,-7.25 v-0.030000000000000006 l1.6098700000000001,-11.65 l0.27,-1.9100000000000001 l3.18017,-0.11000000000000001 l12.35987,-0.4 l5.46,-0.18000000000000002 l17.16992,-0.5700000000000001 l23.95019,-0.79 h0.009770000000000004 l1.98,-0.06994000000000002 l0.47022,-0.020000000000000004 h0.009760000000000003 z" fill="#2f2e41" id="svg_22"/><circle cx="849.8789672851562" cy="507.6300048828125" r="12.390080451965332" fill="#3f3d56" id="svg_23"/><circle cx="767.3171997070312" cy="507.91754150390625" r="8.517990112304688" fill="#3f3d56" id="svg_24"/><path d="M824.959,445.04999999999995 c-1.51025,0.5900000000000001 -3,1.25 -4.46,1.96 a66.77364,66.77364 0 0 0 -7.41015,4.22 q-2.06984,1.335 -4.02,2.84 a67.82823,67.82823 0 0 0 -16.02,17.42 h5.6001 a63.22256,63.22256 0 0 1 14.33007,-14.55 c1.2998100000000001,-0.9500000000000001 2.64991,-1.85 4.02979,-2.6900000000000004 a61.248,61.248 0 0 1 6.58008,-3.56 c1.43994,-0.6700000000000002 2.9199200000000003,-1.29 4.41992,-1.85 a61.72109,61.72109 0 0 1 18.06006,-3.81 v-4.66 A66.68043,66.68043 0 0 0 824.959,445.04999999999995 zm-36.77,35.53 h5.10987 c0.49023,-1.02 1.01025,-2.03 1.56006,-3.01 l-5.29,0.05000000000000001 C789.07866,478.59000000000003 788.6187,479.58000000000004 788.189,480.58000000000004 zm66.06983,-40.17 c-0.7397500000000001,-0.06000000000000001 -1.48975,-0.09000000000000002 -2.23975,-0.11000000000000001 c-0.7100000000000001,-0.030000000000000006 -1.41992,-0.04000000000000001 -2.14013,-0.04000000000000001 c-1.27979,0 -2.5503,0.04000000000000001 -3.81006,0.11000000000000001 a66.68043,66.68043 0 0 0 -21.10987,4.68 c-1.51025,0.5900000000000001 -3,1.25 -4.46,1.96 a66.77364,66.77364 0 0 0 -7.41015,4.22 q-2.06984,1.335 -4.02,2.84 a67.86083,67.86083 0 0 0 -19.5,23.55 c-0.49024,0.97 -0.9502,1.96 -1.37989,2.96 a65.3114,65.3114 0 0 0 -3.58007,10.36 a64.32506,64.32506 0 0 0 -1.3999100000000002,6.98 q-0.45043,3.09 -0.6098600000000001,6.25 c-0.06006000000000001,1.15 -0.09033000000000002,2.3 -0.09033000000000002,3.46 a68.83527,68.83527 0 0 0 0.43017000000000005,7.640000000000001 a67.11456,67.11456 0 0 0 12.91993,32.57 c0.9697200000000001,1.3 1.99023,2.56994 3.0498,3.79 a67.35309,67.35309 0 1 0 55.3501,-111.22 zM849.879,570.35 a62.554,62.554 0 0 1 -46.51026,-20.69 q-1.61938,-1.77 -3.07959,-3.68 a62.33629,62.33629 0 0 1 -13.09033,-36.15 c-0.029780000000000004,-0.7300000000000001 -0.04000000000000001,-1.46 -0.04000000000000001,-2.2 a62.37929,62.37929 0 0 1 6.14014,-27.05 c0.49023,-1.02 1.01025,-2.03 1.56006,-3.01 a58.37424,58.37424 0 0 1 3.79,-6.08 a63.22256,63.22256 0 0 1 14.33007,-14.55 c1.2998100000000001,-0.9500000000000001 2.64991,-1.85 4.02979,-2.6900000000000004 a61.248,61.248 0 0 1 6.58008,-3.56 c1.43994,-0.6700000000000002 2.9199200000000003,-1.29 4.41992,-1.85 a61.72109,61.72109 0 0 1 18.06006,-3.81 q1.8896400000000002,-0.12000000000000001 3.81006,-0.12006000000000001 c0.6601500000000001,0 1.31005,0.010000000000000002 1.96,0.030000000000000006 c0.81006,0.030000000000000006 1.62011,0.07 2.4199200000000003,0.12000000000000001 A62.72124,62.72124 0 0 1 849.879,570.35 zm-62.68018,-60.52 c-0.029780000000000004,-0.7300000000000001 -0.04000000000000001,-1.46 -0.04000000000000001,-2.2 a62.37929,62.37929 0 0 1 6.14014,-27.05 H788.189 a65.3114,65.3114 0 0 0 -3.58007,10.36 a8.59076,8.59076 0 0 1 0.23,1.98 a8.47094,8.47094 0 0 1 -1.62989,5 q-0.45043,3.09 -0.6098600000000001,6.25 c-0.06006000000000001,1.15 -0.09033000000000002,2.3 -0.09033000000000002,3.46 a68.83527,68.83527 0 0 0 0.43017000000000005,7.640000000000001 a67.11456,67.11456 0 0 0 12.91993,32.57 c1.50976,-0.56 2.98,-1.18006 4.43017,-1.8600500000000002 A62.33629,62.33629 0 0 1 787.19878,509.83000000000004 z" fill="#3f3d56" id="svg_25"/><circle cx="811.3892822265625" cy="412.1546630859375" r="1.0531200170516968" opacity="0.1" style="isolation:isolate" id="svg_26"/><circle cx="807.8117065429688" cy="429.60101318359375" r="1.0531200170516968" opacity="0.1" style="isolation:isolate" id="svg_27"/><polygon points="674.09 540.015 664.596 540.014 660.08 503.396 674.091 503.397 674.09 540.015" fill="#ffb7b7" id="svg_28"/><path d="M674.08892,536.92 l-9.87012,-0.010000000000000002 h-6.3999 A11.91525,11.91525 0 0 0 645.899,548.83 V549.22 h30.60986 v-12.3 z" fill="#2f2e41" id="svg_29"/><polygon points="705.525 544.579 696.033 544.384 692.266 507.682 706.275 507.969 705.525 544.579" fill="#ffb7b7" id="svg_30"/><path d="M705.58892,541.48 L695.709,541.28 l-6.39013,-0.13 a11.8955,11.8955 0 0 0 -12.16016,11.66 l-0.009760000000000003,0.39000000000000007 l30.60986,0.6300000000000001 l0.05029000000000001,-2.5300000000000002 l0.19971000000000005,-9.77 z" fill="#2f2e41" id="svg_31"/><path d="M738.58986,413.40450999999996 l-54.84728,18.091920000000002 a17.69392,17.69392 0 0 0 -13.1122,13.68365 l-16.57,82.19823 l26.56068,0.41500000000000004 l16.78817,-69.08086 l36.24557,-14.82907 l-27.77277,16.07284 a18.254,18.254 0 0 0 -5.62629,7.57557 l-16.34364,61.00642 h29.29411 l16.64923,-48.78485 L802.1108,438.56579999999997 z" fill="#2f2e41" id="svg_32"/><path d="M793.91808,327.58781 l-34.72244,4.21435 s-20.38237,9.14211 -20.38237,13.78829 s-8.11252,71.24441 -8.11252,71.24441 s-7.21753,4.45411 20.9681,12.29225 s33.24339,18.65912 33.24339,18.65912 l2.145,9.041 l32.28978,-11.344 l5.42054,-77.43626 l6.18612,-30.15279 l-20.899,-11.6628 z" fill="#e7f7ff" id="svg_33" class="" fill-opacity="1"/><circle cx="779.022216796875" cy="296.01953125" r="24.821880340576172" fill="#ffb7b7" id="svg_34"/><path d="M796.03575,270.53773 l0.49355000000000004,-2.6590000000000003 l-6.64759,-1.23389 s-9.4023,-8.62184 -20.18954,-2.37214 s-15.51625,9.497910000000001 -15.51625,9.497910000000001 l-4.97562,4.57773 l3.74174,2.06986 l-4.72885,3.24824 l3.98852,0.7403200000000001 l-3.39939,3.495 l5.6016200000000005,11.35466 s1.046,-10.12077 9.023,-8.64013 s19.258,-7.428 19.258,-7.428 l17.22823,18.32636 s0.14415,-8.18631 4.801,-7.3414 C804.71426,294.17319 810.41362,274.5818 796.03575,270.53773 z" fill="#b6b6b6" id="svg_35" class="" fill-opacity="1"/><path d="M802.41269,380.56087 a10.3803,10.3803 0 0 1 15.82345,-1.7227800000000002 L851.098,362.08000000000004 l-2.1312,19.05017 l-30.87943,12.99316 a10.43656,10.43656 0 0 1 -15.67467,-13.56247 z" fill="#ffb7b7" id="svg_36"/><polygon points="822.893 339.351 830.954 337.894 873.964 357.13 876.891 375.98 851.096 382.76 837.599 365.402 817.844 370.884 806.183 353.334 822.893 339.351" fill="#e7f7ff" id="svg_37" class="" fill-opacity="1"/><rect x="1100.9856414794922" y="1799.8018798828125" width="47.652801513671875" height="22.54916000366211" rx="2.029320001602173" transform="rotate(-88.69000244140625 229.5006561279297,1265.591552734375) " fill="#3f3d56" id="svg_38"/><circle cx="795.856689453125" cy="373.19195556640625" r="3.545300006866455" fill="#fff" id="svg_39"/><path d="M785.19536,385.55987000000005 a9.90319,9.90319 0 0 0 -13.61866,6.71762 l-35.03347,3.34223 l11.4723,14.24195 l31.50956,-5.35729 a9.95684,9.95684 0 0 0 5.67027,-18.94451 z" fill="#ffb7b7" id="svg_40"/><polygon points="749.578 352.222 747.743 386.324 754.627 388.501 751.669 412.274 733.993 414.945 741.37 353.398 749.578 352.222" fill="#e7f7ff" id="svg_41" class="" fill-opacity="1"/><path d="M851.52886,350.48 l-0.6899400000000002,11.73 l-0.27,4.58 v0.06000000000000001 l-0.8398500000000001,14.15 l-0.030270000000000005,0.5900000000000001 l-1.81006,30.75 h-71.73 a24.75225,24.75225 0 0 0 -16.55957,6.36 a22.83376,22.83376 0 0 0 -2.1001,2.19 a18.538,18.538 0 0 0 -1.14013,1.5 a20.78255,20.78255 0 0 0 -1.25977,1.99 a21.97976,21.97976 0 0 0 -2.05029,5.14 a3.22877,3.22877 0 0 0 -0.12012000000000002,0.44000000000000006 a21.449,21.449 0 0 0 -0.5498000000000001,3.3 l0.22021000000000004,8.91 l0.029790000000000004,1.3900000000000001 l0.08007000000000002,3.48 l0.46,19.42 l0.27978000000000003,11.56 L753.709,488.90999999999997 c-6.57031,-0.16000000000000003 -17.85986,3.3200000000000003 -24.39013,26.64 c-1.43994,5.14 -2.6001000000000003,9.63 -3.56006,13.54 q-0.7346200000000002,2.985 -1.3300800000000002,5.53 c-0.6699200000000002,2.9 -1.21973,5.39 -1.69971,7.52 c-0.53027,2.4 -0.9702099999999999,4.33 -1.37988,5.88 c-1.43017,5.26 -2.57031,5.93 -6.18017,4.57 a40.029,40.029 0 0 0 -7.35987,-1.29 c-7.41015,-0.8800000000000001 -18.88037,-1.6900000000000002 -29.93017,-2.34 c-0.46,-0.020000000000000004 -0.91016,-0.05000000000000001 -1.37012,-0.08000000000000002 c-15.77,-0.92 -30.27979,-1.5 -30.27979,-1.5 v9.08 l68.93995,6.2 s7.10986,3.19 12.58984,-7.67 a33.70426,33.70426 0 0 0 1.9101599999999999,-4.61 q0.52513,-1.485 0.9897400000000001,-3.21 q0.73536,-2.67 1.48,-5.37 c0.4502,-1.6300000000000001 0.91016,-3.27 1.36035,-4.890000000000001 c2.96973,-10.68 5.82959,-20.71 7.50977,-26.48 a16.50562,16.50562 0 0 1 9.08008,-10.66 a11.284,11.284 0 0 1 4.91992,-1.07 l8.14014,-0.36000000000000004 l-0.82032,-17.76 h30.97022 c0.49023,-1.02 1.01025,-2.03 1.56006,-3.01 a58.37424,58.37424 0 0 1 3.79,-6.08 H761.97905 l-0.39013000000000003,-9.83 l-0.6699200000000002,-16.97 l-0.030280000000000005,-0.6700000000000002 l-0.15967,-4.03 l-0.15039000000000002,-3.83 a11.66463,11.66463 0 0 1 0.28028000000000003,-2.81994 c0.08007000000000002,-0.35000000000000003 0.18017,-0.7500000000000001 0.31006000000000006,-1.17 a15.88754,15.88754 0 0 1 2.43994,-4.99 a12.3998,12.3998 0 0 1 2.79,-2.7600000000000002 a8.88894,8.88894 0 0 1 0.79,-0.51 a11.89508,11.89508 0 0 1 5.08008,-1.52 a7.95319,7.95319 0 0 1 0.98,-0.030000000000000006 H846.0689 v22.67 q1.8896400000000002,-0.12000000000000001 3.81006,-0.12006000000000001 c0.6601500000000001,0 1.31005,0.010000000000000002 1.96,0.030000000000000006 c0.81006,0.030000000000000006 1.62011,0.07 2.4199200000000003,0.12000000000000001 V422.14 l2.87988,-40.97 L858.78911,357.78 h27.28955 l0.010260000000000002,-7.30005 z" fill="#3f3d56" id="svg_42"/><path d="M188.70731,376.58363999999995 a10.74267,10.74267 0 0 0 3.84155,-16.01843 l8.033,-78.54 H183.22176000000002 l-6.384,76.69032 a10.80091,10.80091 0 0 0 11.86954,17.86816 z" fill="#9f616a" id="svg_43"/><circle cx="204.64695739746094" cy="214.11964416503906" r="24.5610294342041" fill="#9f616a" id="svg_44"/><path d="M209.27084000000002,327.76442 a4.49182,4.49182 0 0 1 -4.3291,-3.29883 c-1.96778,-7.14941 -7.08741,-19.2373 -15.21631,-35.92969 a29.76179,29.76179 0 0 1 16.90088,-41.09033 h0 a29.74832,29.74832 0 0 1 38.2268,18.95068 c6.30078,19.75391 5.99658,40.91407 5.57324,49.09375 a4.511,4.511 0 0 1 -3.53393,4.165 l-36.6565,8.00489 A4.47755,4.47755 0 0 1 209.27084000000002,327.76442 z" fill="#0a42a5" id="svg_45"/><polygon points="244.768 560.993 257.028 560.993 262.86 513.705 244.766 513.705 244.768 560.993" fill="#9f616a" id="svg_46"/><path d="M241.64177,572.87744 l-0.0007300000000000002,-15.88721 l24.14392,-0.0010000000000000002 a15.38689,15.38689 0 0 1 15.38745,15.38623 v0.5 z" fill="#2f2e41" id="svg_47"/><polygon points="122.177 545.104 132.92 551.011 160.815 512.383 144.959 503.666 122.177 545.104" fill="#9f616a" id="svg_48"/><path d="M148.35222,573.05664 l-34.64087,-19.04492 l7.65393,-13.92188 l21.15711,11.63233 a15.404,15.404 0 0 1 6.07068,20.896 z" fill="#2f2e41" id="svg_49"/><path d="M244.19564000000003,534.74586 a4.49946,4.49946 0 0 1 -4.45825,-3.92089 L224.40510999999998,412.67652999999996 a2.5,2.5 0 0 0 -4.66845,-0.8857400000000002 L155.838,527.72145 a4.52455,4.52455 0 0 1 -5.54273,2.03418 l-13.928,-5.30664 a4.49962,4.49962 0 0 1 -2.56592,-5.90137 l44.26416,-108.7373 a3.466,3.466 0 0 0 0.22608000000000003,-0.86133 c5.99536,-46.40332 21.24951,-70.001 25.78174,-76.12793 a3.48482,3.48482 0 0 0 0.49585000000000007,-3.17285 l-0.6230500000000001,-1.8691400000000002 a4.49768,4.49768 0 0 1 0.8660000000000001,-4.377 c16.3313,-18.60156 44.79614,-8.45117 45.08178,-8.34668 l0.14258,0.05274000000000001 l0.08936000000000002,0.12207000000000001 c31.91748,43.77246 20.11645,185.94433 17.42675,214 a4.48763,4.48763 0 0 1 -4.134,4.0498 L244.54500000000002,534.73317 C244.42782,534.742 244.31135999999998,534.74586 244.19564000000003,534.74586 z" fill="#2f2e41" id="svg_50"/><path d="M300.131,242.64986 a10.526,10.526 0 0 0 -0.2393,1.64013 l-42.95745,24.782 L246.49283000000003,263.061 l-11.13116,14.57227 L252.812,290.07086 a8,8 0 0 0 9.5982,-0.23384000000000002 l44.29652,-34.94583 a10.4971,10.4971 0 1 0 -6.57573,-12.24133 z" fill="#9f616a" id="svg_51"/><path d="M255.49813999999998,270.24573 l-13.88374,17.994 a4.5,4.5 0 0 1 -6.80392,0.37267000000000006 l-15.71733,-16.32121 A12.49741,12.49741 0 0 1 234.41978999999998,252.54700000000003 l19.713,11.02278 a4.5,4.5 0 0 1 1.36538,6.67593 z" fill="#0a42a5" id="svg_52"/><path d="M201.68669999999997,301.50794 l-22.365850000000002,-4.03855 a4.5,4.5 0 0 1 -3.46382,-5.86806 l7.25056,-21.46732 a12.49741,12.49741 0 0 1 24.58384,4.51347 l-0.7074,22.574370000000002 a4.5,4.5 0 0 1 -5.29733,4.28609 z" fill="#0a42a5" id="svg_53"/><path d="M208.53437000000002,208.47030999999998 c6.31272,4.3205100000000005 14.60145,8.76174 21.04891,4.16075 c4.23352,-3.02109 5.56737,-8.61545 3.8506,-13.52487 c-3.08725,-8.82856 -11.56943,-12.71531 -19.68052,-15.69458 c-10.54441,-3.873 -22.02572,-6.95424 -32.91111,-4.18055 S160.33664,192.54399999999998 162.30166000000003,203.60399999999998 c1.58023,8.89423 9.97,16.29493 8.779,25.24959 c-1.19868,9.01215 -11.3338,13.75589 -20.2815,15.36658 s-18.96038,2.12821 -25.39074,8.5552 c-8.2031,8.1988 -6.15464,22.85325 1.56414,31.50954 s19.36684,12.58012 30.65381,15.24758 c14.95454,3.53422 31.129,5.3916 45.33208,-0.47378000000000003 s25.25566,-21.65434 21.14127,-36.45976 c-1.73791,-6.2538 -5.83192,-11.5391 -9.78855,-16.68452 s-7.9631,-10.526 -9.47237,-16.83888 c-1.25773,-5.26072 -0.32683000000000006,-11.36868 3.16182,-15.31483 a4.43706,4.43706 0 0 0 0.5943900000000001,-5.18644 z" fill="#dadada" id="svg_54" class="" fill-opacity="1"/></g></svg>