<svg xmlns="http://www.w3.org/2000/svg" xmlns:xlink="http://www.w3.org/1999/xlink" data-name="Layer 1" width="660.47198" height="645.44823" style=""><rect id="backgroundrect" width="100%" height="100%" x="0" y="0" fill="none" stroke="none"/><g class="currentLayer" style=""><title>Layer 1</title><path d="M204.14124243164065,604.2551934643554 l0.7071500000000001,-15.90018 a51.3526,51.3526 0 0 1 23.9526,-6.06332 c-11.504,9.405380000000001 -10.06637,27.53575 -17.86583,40.18377 a30.88872,30.88872 0 0 1 -22.651,14.27412 l-9.627,5.89429 a51.75979,51.75979 0 0 1 10.90965,-41.9429 a49.9971,49.9971 0 0 1 9.18851,-8.53763 C201.0609924316406,598.2429534643554 204.14124243164065,604.2551934643554 204.14124243164065,604.2551934643554 z" fill="#a5e5c5" id="svg_1" class="" fill-opacity="1"/><path d="M602.0727124316406,372.57788346435547 c25.95488,-19.769 38.35157,-52.98886 30.590700000000002,-84.67859 q-0.28926,-1.1811 -0.6106000000000001,-2.3568100000000003 c-5.14512,-18.81065 -17.87431,-36.68854 -36.42655,-42.69907 c-15.57757,-5.0467 -32.58093,-1.1658600000000001 -48.83212,-3.1727600000000002 c-31.90193,-3.93968 -56.63485,-29.75207 -74.03758,-56.77793 c-17.40278,-27.02593 -30.7774,-57.27755 -53.90189,-79.60489 c-38.117,-36.80284 -100.29531,-44.72652 -147.55489,-20.77062 c-47.25953,23.956 -77.36335,77.10423 -76.07951,130.07313 c1.28391,52.96891 32.72919,103.61087 78.39555,130.47968 c16.776,9.87049 36.179,16.863 55.4889,14.41614 c16.755,-2.12308 31.97891,-11.12589 48.655,-13.79866 c26.21872,-4.20226 52.27041,7.65208 74.94762,21.466 c22.67715,13.8139 44.58172,30.18754 70.35126,36.59165 C548.0808024316407,407.9635234643555 579.0807924316406,390.09011346435545 602.0727124316406,372.57788346435547 z" fill="#e7f7ff" id="svg_2" class="" fill-opacity="1"/><path d="M396.7053024316406,136.02320346435545 h-258.57 a20.36369,20.36369 0 0 0 -20.34,20.34 v128.69 a20.36368,20.36368 0 0 0 20.34,20.34 h258.57 a20.35727,20.35727 0 0 0 20.34,-20.34 v-128.69 A20.35729,20.35729 0 0 0 396.7053024316406,136.02320346435545 z" fill="#fff" id="svg_3"/><path d="M396.70626243164065,306.39577346435544 H138.1398624316406 a21.36452,21.36452 0 0 1 -21.34034,-21.34033 V156.36159346435545 a21.36452,21.36452 0 0 1 21.34034,-21.34033 h258.5664 a21.36451,21.36451 0 0 1 21.34033,21.34033 V285.05544346435545 A21.36451,21.36451 0 0 1 396.70626243164065,306.39577346435544 zM138.1398624316406,137.02126346435546 a19.36254,19.36254 0 0 0 -19.34034,19.34033 V285.05544346435545 a19.36254,19.36254 0 0 0 19.34034,19.34033 h258.5664 a19.36254,19.36254 0 0 0 19.34033,-19.34033 V156.36159346435545 a19.36254,19.36254 0 0 0 -19.34033,-19.34033 z" fill="#ccc" id="svg_4"/><path d="M408.60027243164063,341.9723534643555 H160.8116924316406 a8.07568,8.07568 0 0 1 0,-16.15137 H408.60027243164063 a8.07568,8.07568 0 0 1 0,16.15137 z" fill="#e6e6e6" id="svg_5"/><path d="M240.24771243164065,264.96473346435545 a8.69449,8.69449 0 0 1 -4.19432,-1.09245 a8.58133,8.58133 0 0 1 -4.50753,-7.61978 V184.4301134643555 a8.69394,8.69394 0 0 1 13.35561,-7.33865 l68.13087,35.91118 a8.69448,8.69448 0 0 1 0,14.6773 L244.90147243164063,263.5911134643555 A8.65288,8.65288 0 0 1 240.24771243164065,264.96473346435545 z" fill="#f2f2f2" id="svg_6"/><path d="M640.3517324316406,229.15655346435545 H532.2994924316406 a8.50951,8.50951 0 0 1 -8.5,-8.5 V166.8767734643555 a8.5095,8.5095 0 0 1 8.5,-8.5 H640.3517324316406 a8.50949,8.50949 0 0 1 8.5,8.5 v53.77978 A8.5095,8.5095 0 0 1 640.3517324316406,229.15655346435545 z" fill="#fff" id="svg_7"/><path d="M640.3517724316406,230.15651346435544 H532.2995224316406 a9.51081,9.51081 0 0 1 -9.5,-9.5 V166.87673346435548 a9.51081,9.51081 0 0 1 9.5,-9.5 H640.3517724316406 a9.51081,9.51081 0 0 1 9.5,9.5 V220.65651346435544 A9.51081,9.51081 0 0 1 640.3517724316406,230.15651346435544 zM532.2995224316406,159.37673346435548 a7.5082,7.5082 0 0 0 -7.5,7.5 V220.65651346435544 a7.5082,7.5082 0 0 0 7.5,7.5 H640.3517724316406 a7.5082,7.5082 0 0 0 7.5,-7.5 V166.87673346435548 a7.5082,7.5082 0 0 0 -7.5,-7.5 z" fill="#ccc" id="svg_8"/><path d="M622.6002724316406,255.47247346435546 H549.8116924316406 a8.07569,8.07569 0 0 1 0,-16.15137 h72.78858 a8.07568,8.07568 0 0 1 0,16.15137 z" fill="#e6e6e6" id="svg_9"/><path d="M574.7066324316406,212.9053434643555 a3.63334,3.63334 0 0 1 -1.75276,-0.45652000000000004 a3.5860000000000003,3.5860000000000003 0 0 1 -1.8836500000000003,-3.18423 V179.2507834643555 a3.6331,3.6331 0 0 1 5.58116,-3.06675 l28.47118,15.00691 a3.63333,3.63333 0 0 1 0,6.13349 l-28.47118,15.00691 A3.61592,3.61592 0 0 1 574.7066324316406,212.9053434643555 z" fill="#0a42a5" id="svg_10"/><path d="M571.3517324316406,460.51239346435545 H463.2994924316406 a8.50982,8.50982 0 0 1 -8.5,-8.5 V398.2326034643555 a8.50951,8.50951 0 0 1 8.5,-8.5 H571.3517324316406 a8.5095,8.5095 0 0 1 8.5,8.5 v53.77979 A8.50981,8.50981 0 0 1 571.3517324316406,460.51239346435545 z" fill="#fff" id="svg_11"/><path d="M571.3517724316406,461.5124734643555 H463.29952243164064 a9.51081,9.51081 0 0 1 -9.5,-9.5 V398.23268346435543 a9.51081,9.51081 0 0 1 9.5,-9.5 H571.3517724316406 a9.51081,9.51081 0 0 1 9.5,9.5 v53.77979 A9.51081,9.51081 0 0 1 571.3517724316406,461.5124734643555 zM463.29952243164064,390.73268346435543 a7.5082,7.5082 0 0 0 -7.5,7.5 v53.77979 a7.5082,7.5082 0 0 0 7.5,7.5 H571.3517724316406 a7.5082,7.5082 0 0 0 7.5,-7.5 V398.23268346435543 a7.5082,7.5082 0 0 0 -7.5,-7.5 z" fill="#ccc" id="svg_12"/><path d="M553.6002724316406,486.9723534643555 H480.8116924316406 a8.07569,8.07569 0 0 1 0,-16.15137 h72.78858 a8.07568,8.07568 0 0 1 0,16.15137 z" fill="#e6e6e6" id="svg_13"/><path d="M505.44393243164063,445.9053434643555 a3.63334,3.63334 0 0 1 -1.75276,-0.45652000000000004 a3.5860000000000003,3.5860000000000003 0 0 1 -1.8836500000000003,-3.18423 V412.25078346435544 a3.6331100000000003,3.6331100000000003 0 0 1 5.58117,-3.06675 l28.47118,15.00691 a3.63334,3.63334 0 0 1 0,6.13349 L507.3886924316406,445.3313434643554 A3.616,3.616 0 0 1 505.44393243164063,445.9053434643555 z" fill="#0a42a5" id="svg_14"/><path d="M204.4410824316406,274.44802346435546 l-55.30415,0.37144000000000005 s-31.49717,-10.154 -45.78146,-8.03242 l-5.46159,21.45485 l39.23459,12.99945 L205.4119924316406,291.3341134643555 a9.77391,9.77391 0 1 0 -0.97088,-16.88606 z" fill="#a0616a" id="svg_15"/><path d="M136.66025243164063,303.3188934643555 L71.04659243164065,284.44802346435546 l-5.97349,-22.25765 a17.9737,17.9737 0 0 1 1.38938,-18.92117 h0 c5.6014800000000005,-7.58646 9.97993,-0.05089000000000001 17.92945,5.02222 c13.93572,0.9852 48.71956,12.88719 62.83954,26.66818 l-1.11256,8.471260000000001 z" fill="#3f3d56" id="svg_16"/><path d="M193.7484524316406,285.1511134643555 a8.6945,8.6945 0 0 1 -4.19433,-1.09245 a8.58134,8.58134 0 0 1 -4.50753,-7.61979 V204.61647346435547 a8.69394,8.69394 0 0 1 13.35561,-7.33865 l68.13087,35.91118 a8.69448,8.69448 0 0 1 0,14.6773 l-68.13087,35.91119 A8.65291,8.65291 0 0 1 193.7484524316406,285.1511134643555 z" fill="#0a42a5" id="svg_17"/><polygon points="147.978 631.089 161.937 631.088 168.577 577.248 147.976 577.249 147.978 631.089" fill="#a0616a" id="svg_18"/><path d="M144.41749243164065,626.5312134643555 l3.9289,-0.00014000000000000004 l15.33912,-6.238 l8.2213,6.23709 h0.0011200000000000003 a17.51926,17.51926 0 0 1 17.51834,17.51809 v0.56928 l-45.00793,0.0016900000000000003 z" fill="#2f2e41" id="svg_19"/><polygon points="48.578 617.948 61.8 622.424 85.358 573.559 65.845 566.952 48.578 617.948" fill="#a0616a" id="svg_20"/><path d="M46.66729243164065,612.4891134643555 l3.7213700000000003,1.26 l16.52951,-0.98859 l5.78645,8.54447 l0.0010600000000000002,0.0003600000000000001 a17.51925,17.51925 0 0 1 10.974,22.2114 l-0.18259000000000003,0.5392 l-42.63058,-14.43425 z" fill="#2f2e41" id="svg_21"/><path d="M64.75783243164062,399.1808634643555 s-1.6299100000000002,19.55885 2.44485,38.30275 s12.84391,80.96441 12.84391,80.96441 c-17.76168,29.19372 -28.05554,57.92114 -30,87 l25,2 l35.79645,-84.93431 l3.6268700000000003,-85.03007 l26.07847,57.86161 l-1.3410000000000002,4.47013 a5.03633,5.03633 0 0 0 2.15278,5.71677 h0 s-2.44165,15.89157 -0.8117500000000001,15.89157 s5.7046600000000005,2.44483 5.7046600000000005,2.44483 c-10.15972,31.628 -11.52362,61.91681 -2.2064500000000002,90.57947 l22,-1 l14.43445,-124.62239 l-10.59438,-67.641 l-0.8150000000000001,-13.03923 l-3.66728,0.15076000000000003 l-1.86735,-5.4479500000000005 l-3.42984,-9.37195 z" fill="#2f2e41" id="svg_22"/><path d="M63.34919243164063,403.28905346435545 l-0.14524000000000004,-0.20374000000000003 c-7.75717,-10.86019 3.9096200000000003,-36.957 5.66925,-40.74005 l-7.41137,-2.4050700000000003 l-6.48062,-54.84015 L50.24154243164065,286.15511346435545 a41.5924,41.5924 0 0 1 11.80527,-40.307900000000004 l10.95569,-10.32976 l13.3146,-19.70086 H107.7883924316406 l7.362,13.90592 a31.29509,31.29509 0 0 1 24.2138,31.95183 l-1.66851,36.4711 l6.532,45.40971 l0.004000000000000001,8.218 l11.34007,18.59269 l2.47033,11.52711 c1.02227,1.3490000000000002 7.7699,10.34608 7.7699,12.80566 c0,0.36927000000000004 -0.27258000000000004,0.72621 -0.85753,1.1222 c-4.59844,3.11377 -30.01476,9.46188 -41.26372,4.96054 c-11.98235,-4.791 -59.61408,2.39631 -60.094,2.46953 z" fill="#3f3d56" id="svg_23"/><circle cx="99.82636260986328" cy="181.02093505859375" r="28.436019897460938" fill="#a0616a" id="svg_25"/><path d="M205.3859924316406,202.85256346435546 l-43.87271,33.673 s-31.24241,10.91269 -41.35163,21.22509 l8.59349,20.40322 l39.12915,-13.31349 l48.46682,-49.10964 A9.77391,9.77391 0 1 0 205.3859924316406,202.85256346435546 z" fill="#a0616a" id="svg_26"/><path d="M168.76479243164061,266.7795134643555 L107.81799243164062,284.62564346435545 l-20.955,-7.43619 A17.97374,17.97374 0 0 1 76.55159243164064,261.2641134643555 h0 c-0.11217000000000002,-9.42965 7.92682,-6.06361 17.32708,-6.8162 c11.70626,-7.62485 46.62425,-19.12731 66.19987,-16.66062 l4.22542,7.426 z" fill="#3f3d56" id="svg_27"/><path d="M119.32524243164062,148.1894334643555 c-2.038,-0.060550000000000014 -1.3384,-3.90205 -2.98036,-5.1275 q-0.012000000000000002,0.055760000000000004 -0.024860000000000004,0.11131 a4.00215,4.00215 0 0 1 -7.64816,0.3263000000000001 a6.08259,6.08259 0 0 0 -3.862,-4.05152 c-0.10225000000000001,3.56059 -2.79555,6.65085 -6.0086,8.18873 s-6.87661,1.79378 -10.43833,1.84647 c-3.56173,0.05261000000000002 -7.17472,-0.06664000000000002 -10.6286,0.805 c-3.45381,0.8715400000000001 -6.8133,2.9207400000000003 -8.28893,6.16282 c-1.4757,3.24209 -0.4228100000000001,7.70573 2.80391,9.21465 c-2.49971,0.013310000000000002 -4.62078,2.076 -5.4851,4.4215800000000005 a17.557,17.557 0 0 0 -0.542,7.41887 c0.70252,9.19517 2.4153000000000002,19.09484 9.11091,25.43626 c5.103,4.83306 12.40716,6.78 19.43551,6.7519 c7.02835,-0.028180000000000004 5.79255,-0.6741900000000002 12.58822,-2.46805 c0,0 6.4608,-18.52155 4.83392,-20.34359 c-1.6268900000000002,-1.822 -2.97818,-4.15349 -2.6837400000000002,-6.57835 s2.90035,-4.597 5.16184,-3.6740000000000004 c-0.38026000000000004,-0.97209 -0.6667600000000001,-1.15726 -0.8461900000000001,-1.10791 a8.59452,8.59452 0 0 0 0.2988200000000001,-0.8450000000000001 a9.616,9.616 0 0 1 6.00541,-6.36826 a7.4573,7.4573 0 0 1 8.15078,2.46671 C135.71892243164064,163.79711346435545 131.10239243164062,148.53916346435545 119.32524243164062,148.1894334643555 z" fill="#2f2e41" id="svg_28" class=""/><path d="M600.6676324316406,34.48419346435546 h-454.293 a1.807,1.807 0 0 1 0,-3.61318 h454.293 a1.807,1.807 0 0 1 0,3.61318 z" fill="#cacaca" id="svg_29"/><ellipse cx="177.29893493652344" cy="10.823450088500977" rx="10.587510108947754" ry="10.823450088500977" fill="#3f3d56" id="svg_30"/><ellipse cx="213.8739471435547" cy="10.823450088500977" rx="10.587510108947754" ry="10.823450088500977" fill="#3f3d56" id="svg_31"/><ellipse cx="250.448974609375" cy="10.823450088500977" rx="10.587510108947754" ry="10.823450088500977" fill="#3f3d56" id="svg_32"/><path d="M578.6463724316407,2.6827034643554555 h-25.981 a1.96761,1.96761 0 0 0 0,3.93445 h25.981 a1.96761,1.96761 0 0 0 0,-3.93445 z" fill="#3f3d56" id="svg_33"/><path d="M578.6463724316407,10.067113464355458 h-25.981 a1.96761,1.96761 0 0 0 0,3.93445 h25.981 a1.96761,1.96761 0 0 0 0,-3.93445 z" fill="#3f3d56" id="svg_34"/><path d="M578.6463724316407,17.441743464355483 h-25.981 a1.96761,1.96761 0 0 0 0,3.93445 h25.981 a1.96761,1.96761 0 0 0 0,-3.93445 z" fill="#3f3d56" id="svg_35"/><path d="M359.0752924316406,136.02320346435545 v27.16 c0,1.35 -2.36,2.48 -5.54,2.79 a0.22024000000000005,0.22024000000000005 0 0 0 -0.08000000000000002,0.010000000000000002 c-0.53,0.04000000000000001 -1.09,0.07 -1.6600000000000001,0.07 a14.57028,14.57028 0 0 1 -5.15,-0.8400000000000001 c-0.15000000000000002,-0.06000000000000001 -0.30000000000000004,-0.13 -0.45,-0.19000000000000003 c-0.14,-0.08000000000000002 -0.29000000000000004,-0.15000000000000002 -0.43000000000000005,-0.23 c-0.79,-0.47000000000000003 -1.25,-1.02 -1.25,-1.61 v-27.16 z" fill="#ccc" id="svg_36"/><circle cx="580.099609375" cy="457.78558349609375" r="12.372349739074707" fill="#3f3d56" id="svg_37"/><path d="M579.1733124316406,462.73028346435547 c-0.026370000000000008,0 -0.05275000000000001,-0.0008600000000000003 -0.07912000000000002,-0.0021500000000000004 a1.61793,1.61793 0 0 1 -1.19937,-0.62316 l-2.06763,-2.6582 a1.6186000000000003,1.6186000000000003 0 0 1 0.2837,-2.27179 l0.07441,-0.05789000000000001 a1.61842,1.61842 0 0 1 2.27221,0.28391000000000005 a1.18065,1.18065 0 0 0 1.788,0.08707000000000002 l4.1981,-4.43206 a1.621,1.621 0 0 1 2.28872,-0.06218000000000001 l0.06883000000000002,0.06561000000000002 a1.61841,1.61841 0 0 1 0.06176000000000001,2.28851 l-6.51491,6.87668 A1.61694,1.61694 0 0 1 579.1733124316406,462.73028346435547 z" fill="#fff" id="svg_38"/><circle cx="648.099609375" cy="227.78558349609375" r="12.372349739074707" fill="#3f3d56" id="svg_39"/><path d="M647.1733124316406,232.73028346435547 c-0.026370000000000008,0 -0.05275000000000001,-0.0008600000000000003 -0.07912000000000002,-0.0021500000000000004 a1.61793,1.61793 0 0 1 -1.19937,-0.62316 l-2.06763,-2.6582 a1.6186000000000003,1.6186000000000003 0 0 1 0.2837,-2.27179 l0.07441,-0.05789000000000001 a1.61842,1.61842 0 0 1 2.27221,0.28391000000000005 a1.18065,1.18065 0 0 0 1.788,0.08707000000000002 l4.1981,-4.43206 a1.621,1.621 0 0 1 2.28872,-0.06218000000000001 l0.06883000000000002,0.06561000000000002 a1.61841,1.61841 0 0 1 0.06176000000000001,2.28851 l-6.51491,6.87668 A1.61694,1.61694 0 0 1 647.1733124316406,232.73028346435547 z" fill="#fff" id="svg_40"/></g></svg>