<svg xmlns="http://www.w3.org/2000/svg" xmlns:xlink="http://www.w3.org/1999/xlink" data-name="Layer 1" width="590.72392" height="659.36199"><rect id="backgroundrect" width="100%" height="100%" x="0" y="0" fill="none" stroke="none"/><g class="currentLayer" style=""><title>Layer 1</title><path id="e846ef3a-3b5e-448c-8d47-a4173376229f-312" data-name="Path 461" d="M562.9345489941406,621.4881521264648 a22.728,22.728 0 0 1 -21.947,-3.866 c-7.687,-6.452 -10.1,-17.081 -12.058,-26.924 l-5.8,-29.112 l12.143,8.362 c8.733,6.013 17.662,12.219 23.709,20.929 s8.686,20.6 3.8280000000000003,30.024 " fill="#a5e5c5" class="" fill-opacity="1"/><path id="b0167a87-6d3c-4fe1-a02f-2e6974de103a-313" data-name="Path 462" d="M561.8965389941407,656.7341321264648 c1.229,-8.953 2.493,-18.02 1.6310000000000002,-27.069 c-0.7660000000000001,-8.036 -3.217,-15.885 -8.209,-22.321 a37.13174,37.13174 0 0 0 -9.527,-8.633000000000001 c-0.9530000000000001,-0.6000000000000001 -1.8290000000000002,0.909 -0.8810000000000001,1.5070000000000001 a35.3,35.3 0 0 1 13.963000000000001,16.847 c3.04,7.732 3.528,16.161 3,24.374 c-0.31700000000000006,4.9670000000000005 -0.988,9.9 -1.665,14.83 a0.9,0.9 0 0 0 0.6100000000000001,1.074 a0.8780000000000001,0.8780000000000001 0 0 0 1.074,-0.6100000000000001 z" fill="#eafcf3" class="" fill-opacity="1"/><path d="M517.8853489941406,508.03410212646486 H9.850968994140601 V-0.000007873535153635203 H517.8853489941406 z" fill="#fff" id="svg_1"/><path d="M517.8853489941406,508.03410212646486 H9.850968994140601 V-0.000007873535153635203 H517.8853489941406 zM17.357098994140642,500.5279921264648 H510.3791889941406 V7.506162126464844 H17.357098994140642 z" fill="#e5e5e5" id="svg_2"/><rect x="207.88534545898438" y="79.48220825195312" width="220" height="6.853119850158691" fill="#e5e5e5" id="svg_3"/><rect x="207.88534545898438" y="97.30030059814453" width="220" height="6.853119850158691" fill="#e5e5e5" id="svg_4" class=""/><rect x="207.88534545898438" y="97.30030059814453" width="220" height="6.853119850158691" fill="#0a42a5" class="" id="svg_49" fill-opacity="1"/><rect x="207.88534545898438" y="115.11839294433594" width="220" height="6.853119850158691" fill="#e5e5e5" id="svg_5"/><rect x="207.88534545898438" y="232.48252868652344" width="220" height="6.853119850158691" fill="#e5e5e5" id="svg_6"/><rect x="207.88534545898438" y="250.3006134033203" width="220" height="6.853119850158691" fill="#20b97c" id="svg_7" class="" fill-opacity="1"/><rect x="207.88534545898438" y="268.11871337890625" width="220" height="6.853119850158691" fill="#e5e5e5" id="svg_8"/><rect x="207.88534545898438" y="385.48284912109375" width="220" height="6.853119850158691" fill="#e5e5e5" id="svg_9"/><rect x="207.88534545898438" y="403.3009338378906" width="220" height="6.853119850158691" fill="#0a42a5" id="svg_10" class="" fill-opacity="1"/><rect x="207.88534545898438" y="421.1190185546875" width="220" height="6.853119850158691" fill="#e5e5e5" id="svg_11"/><path d="M119.81396899414062,134.08414212646485 a73.48452,73.48452 0 0 0 -11.72491,-4.93423 l-0.51555,-5.70369 l-20.91078,-2.25289 l-2.65757,7.29025 l-7.5044,2.81614 a3.65253,3.65253 0 0 0 -0.7615200000000001,0.39664000000000005 h-0.008140000000000001 a3.71836,3.71836 0 0 0 -1.58656,2.475 a3.80137,3.80137 0 0 0 0.05578,1.49137 l0.39664000000000005,1.62622 c0.5710000000000001,0.3411100000000001 1.15816,0.6663800000000001 1.745,0.97572 l0.37300000000000005,0.19043000000000004 c0.8568000000000001,0.44423 1.7294900000000002,0.8646500000000001 2.62581,1.25335 c0.18243000000000004,0.07935 0.38075000000000003,0.15866000000000002 0.5631900000000001,0.23800000000000002 c0.015880000000000002,0.007940000000000003 0.023630000000000005,0.007940000000000003 0.03951000000000001,0.015880000000000002 c0.42066000000000003,0.17455 0.8409300000000001,0.3411100000000001 1.26933,0.49977000000000005 a41.69109,41.69109 0 0 0 4.29952,1.3803100000000001 a44.21436,44.21436 0 0 0 11.39954,1.49137 c1.40412,0 2.79236,-0.06348000000000001 4.16472,-0.19832000000000002 a44.03857,44.03857 0 0 0 9.2339,-1.8641900000000002 c0.007750000000000002,0 0.015880000000000002,-0.007940000000000003 0.023630000000000005,-0.007940000000000003 a43.34123,43.34123 0 0 0 5.5452200000000005,-2.19741 c0.007740000000000002,-0.007940000000000003 0.023630000000000005,-0.007940000000000003 0.031760000000000004,-0.01583 c0.40439,-0.19043000000000004 0.79328,-0.39664000000000005 1.18992,-0.5950000000000001 l0.19019000000000003,-0.09524000000000003 c0.31723,-0.16656000000000004 0.6348500000000001,-0.33316000000000007 0.9520900000000001,-0.50766 c0.79328,-0.43635000000000007 1.57068,-0.89641 2.33994,-1.3882400000000001 c0.21421000000000004,-0.127 0.42066000000000003,-0.26180000000000003 0.6348600000000001,-0.40458000000000005 c0.3013600000000001,-0.19833000000000003 0.6027100000000001,-0.40459 0.8963200000000001,-0.6187900000000002 C121.37653899414062,134.96467212646485 120.60726899414061,134.51250212646485 119.81396899414062,134.08414212646485 z" fill="#0a42a5" id="svg_12" class="" fill-opacity="1"/><path d="M80.57021899414065,137.59837212646482 l-1.30884,-5.90995 h-3.41909 a0.8180900000000001,0.8180900000000001 0 0 0 -0.10300000000000001,0.007940000000000003 h-0.008140000000000001 a7.40924,7.40924 0 0 0 -3.44271,1.18992 a7.62539,7.62539 0 0 0 -1.84027,1.6500000000000001 c1.01523,0.76946 2.07035,1.48343 3.15724,2.1656400000000002 l0.04764000000000001,0.023770000000000006 c0.30910000000000004,0.19043000000000004 0.6267300000000001,0.3808100000000001 0.9440000000000001,0.56325 c0.5710000000000001,0.3411100000000001 1.15816,0.6663800000000001 1.745,0.97572 l0.37300000000000005,0.19043000000000004 c0.8568000000000001,0.44423 1.7294900000000002,0.8646500000000001 2.62581,1.25335 c0.18243000000000004,0.07935 0.38075000000000003,0.15866000000000002 0.5631900000000001,0.23800000000000002 c0.015880000000000002,0.007940000000000003 0.023630000000000005,0.007940000000000003 0.03951000000000001,0.015880000000000002 c0.42066000000000003,0.17455 0.8409300000000001,0.3411100000000001 1.26933,0.49977000000000005 z" fill="#0a42a5" id="svg_13" class="" fill-opacity="1"/><circle cx="96.29750061035156" cy="102.5272216796875" r="15.06011962890625" fill="#ffb8b8" id="svg_14"/><path d="M86.18626899414062,95.19175212646485 c1.5590000000000002,1.8449400000000002 4.19733,2.36555 6.6311,2.579 a62.45441,62.45441 0 0 0 16.96025,-1.3849 c0.34473000000000004,3.34141 -0.59521,6.94426 1.3729,9.69292 a44.99776,44.99776 0 0 0 1.5988000000000002,-10.20084 a9.76388,9.76388 0 0 0 -0.5651,-4.369 a4.01823,4.01823 0 0 0 -3.423,-2.52361 a8.57906,8.57906 0 0 1 3.8267800000000003,-1.6360000000000001 l-4.78192,-2.4031000000000002 l1.228,-1.26072 l-8.6574,-0.52978 l2.5075,-1.593 a54.37251,54.37251 0 0 0 -11.391210000000001,-0.35958000000000007 a9.77843,9.77843 0 0 0 -5.03814,1.40046 c-1.42943,1.02218 -2.25538,3.05378 -1.368,4.55453 a6.61308,6.61308 0 0 0 -5.03977,3.99885 a10.676,10.676 0 0 0 -0.38256000000000007,5.13155 a36.375,36.375 0 0 0 1.90723,8.06855 z" fill="#2f2e41" id="svg_15"/><path d="M138.64627899414063,86.20167212646484 a44.19307,44.19307 0 1 0 -76.36917,41.98046 c0.39664000000000005,0.49977000000000005 0.80916,0.99954 1.2298200000000001,1.48343 c0.031760000000000004,0.031720000000000005 0.05539000000000001,0.06348000000000001 0.08715000000000002,0.09519000000000004 a42.86334,42.86334 0 0 0 3.292,3.39522 c0.30174,0.27768000000000004 0.6190000000000001,0.56325 0.93621,0.8330000000000001 c0.6027100000000001,0.53943 1.22169,1.055 1.86429,1.5468600000000001 c0.25371,0.19832000000000002 0.49967000000000006,0.39664000000000005 0.7615200000000001,0.5870700000000001 c1.01523,0.76946 2.07035,1.48343 3.15724,2.1656400000000002 l0.04764000000000001,0.023780000000000006 c0.30910000000000004,0.19042000000000003 0.6267300000000001,0.3808000000000001 0.9440000000000001,0.5632400000000001 c0.5710000000000001,0.3411100000000001 1.15816,0.6663800000000001 1.745,0.97572 l0.37300000000000005,0.19043000000000004 c0.8568000000000001,0.44424 1.7294900000000002,0.8646500000000001 2.62581,1.25335 c0.18243000000000004,0.07936000000000001 0.38075000000000003,0.15867 0.5631900000000001,0.23800000000000002 c0.015880000000000002,0.007940000000000003 0.023630000000000005,0.007940000000000003 0.03951000000000001,0.01589 c0.42066000000000003,0.17454000000000003 0.8409300000000001,0.34110000000000007 1.26933,0.49977000000000005 a41.69345,41.69345 0 0 0 4.29952,1.3803 a44.21436,44.21436 0 0 0 11.39954,1.49137 c1.40412,0 2.79236,-0.06348000000000001 4.16472,-0.19832000000000002 a44.03857,44.03857 0 0 0 9.2339,-1.8641900000000002 c0.007750000000000002,0 0.015880000000000002,-0.007940000000000003 0.023630000000000005,-0.007940000000000003 a43.33976,43.33976 0 0 0 5.5452200000000005,-2.19741 c0.007740000000000002,-0.007940000000000003 0.023630000000000005,-0.007940000000000003 0.031760000000000004,-0.01583 c0.40439,-0.19043000000000004 0.79328,-0.39664000000000005 1.18992,-0.5950000000000001 l0.19019000000000003,-0.09524000000000003 c0.31723,-0.16656000000000004 0.6348500000000001,-0.33316000000000007 0.9520900000000001,-0.50766 c0.79328,-0.43634000000000006 1.57068,-0.89641 2.33994,-1.3882400000000001 c0.21421000000000004,-0.12695 0.42066000000000003,-0.26180000000000003 0.6348600000000001,-0.40458000000000005 c0.3013600000000001,-0.19832000000000002 0.6027100000000001,-0.40458000000000005 0.8963200000000001,-0.6187900000000002 c0.38850000000000007,-0.26968000000000003 0.7774,-0.54736 1.15816,-0.8329300000000001 c0.11891000000000002,-0.08725000000000002 0.24600000000000002,-0.17450000000000002 0.3648700000000001,-0.26969 a44.17746,44.17746 0 0 0 15.00882,-49.72289 zM122.1779689941406,133.99685212646483 c-0.26184,0.20626000000000003 -0.53144,0.40458000000000005 -0.80141,0.58706 c-0.26185,0.19832000000000002 -0.5233099999999999,0.38870000000000005 -0.79329,0.5632 c-0.23008,0.16661000000000004 -0.46016,0.32528000000000007 -0.6980000000000002,0.47600000000000003 l-0.07127000000000001,0.04760000000000001 c-0.17469,0.11900000000000002 -0.3490000000000001,0.23 -0.5236900000000001,0.34110000000000007 q-0.98772,0.6187000000000001 -1.99908,1.18992 l-0.21420000000000003,0.11900000000000002 c-0.3013600000000001,0.16661000000000004 -0.6027100000000001,0.32528000000000007 -0.90407,0.48394000000000004 c-0.03989000000000001,0.023780000000000006 -0.08754000000000002,0.03966000000000001 -0.127,0.06343000000000001 l-0.04765000000000001,0.023820000000000004 c-0.38076000000000004,0.19832000000000002 -0.7696500000000002,0.38870000000000005 -1.15816,0.5711400000000001 a38.91126,38.91126 0 0 1 -4.624890000000001,1.8721800000000002 c-0.20645000000000002,0.07137 -0.41252000000000005,0.14279000000000003 -0.61858,0.20621000000000003 a41.6098,41.6098 0 0 1 -8.742,1.7770000000000001 c-1.30108,0.11900000000000002 -2.6180000000000003,0.18244000000000005 -3.9427700000000003,0.18244000000000005 a41.21052,41.21052 0 0 1 -10.78056,-1.41206 a39.1725,39.1725 0 0 1 -5.29113,-1.79278 c-0.08754000000000002,-0.039700000000000006 -0.18282,-0.07141 -0.27,-0.11107000000000002 c-0.09490000000000003,-0.03965000000000001 -0.18244000000000005,-0.07141 -0.2696,-0.11107000000000002 c-0.09528000000000003,-0.03965000000000001 -0.18244000000000005,-0.07931 -0.27772,-0.1269 c-0.7456400000000002,-0.32527000000000006 -1.48353,-0.6822600000000001 -2.20515,-1.05508 l-0.3490000000000001,-0.18244000000000005 c-0.8808200000000002,-0.46011 -1.74537,-0.9519400000000001 -2.5863,-1.47554 c-0.24600000000000002,-0.15072000000000002 -0.49967000000000006,-0.30934000000000006 -0.7378900000000002,-0.47600000000000003 c-0.06313000000000002,-0.03965000000000001 -0.11891000000000002,-0.07930000000000001 -0.18244000000000005,-0.11900000000000002 c-0.5631900000000001,-0.3728200000000001 -1.12639,-0.7615200000000001 -1.6737100000000003,-1.1661000000000001 c-0.37263,-0.27767000000000003 -0.7456400000000002,-0.5553 -1.11052,-0.8408700000000001 c-0.6108400000000002,-0.46012000000000003 -1.19805,-0.9519500000000001 -1.7690000000000001,-1.45966 c-0.30135000000000006,-0.25386000000000003 -0.5950000000000001,-0.53149 -0.88043,-0.79328 a40.306,40.306 0 0 1 -3.189,-3.3 c-0.3331200000000001,-0.3808100000000001 -0.6584900000000001,-0.7615700000000001 -0.9680000000000001,-1.15821 a3.02208,3.02208 0 0 1 -0.19832000000000002,-0.24591000000000005 a41.77344,41.77344 0 1 1 58.00479,7.322 z" fill="#3f3d56" id="svg_16" class=""/><path d="M138.64660899414065,239.20204212646485 a44.19305,44.19305 0 1 0 -76.36916,41.98041 c0.39664000000000005,0.49977000000000005 0.80916,0.99954 1.22943,1.48343 c0.031760000000000004,0.031720000000000005 0.05539000000000001,0.06348000000000001 0.08715000000000002,0.09519000000000004 a42.94478,42.94478 0 0 0 3.29243,3.39527 c0.30135000000000006,0.27763 0.6185900000000001,0.5632 0.9358200000000001,0.8329300000000001 c0.6030900000000001,0.53943 1.22168,1.05508 1.86429,1.54691 a43.45061,43.45061 0 0 0 3.91876,2.75266 l0.04764000000000001,0.023820000000000004 c0.88043,0.54737 1.77675,1.055 2.68933,1.5390000000000001 l0.37263,0.19038000000000002 c0.8568000000000001,0.44424 1.7294900000000002,0.8646500000000001 2.6258,1.25335 c0.18244000000000005,0.07936000000000001 0.38076000000000004,0.15867 0.5632,0.23800000000000002 c0.015880000000000002,0.007940000000000003 0.024000000000000004,0.007940000000000003 0.039900000000000005,0.01584 a42.929,42.929 0 0 0 5.56885,1.8800700000000001 a44.21134,44.21134 0 0 0 11.39915,1.49137 c1.40412,0 2.79236,-0.06343000000000001 4.16472,-0.19832000000000002 a44.03355,44.03355 0 0 0 9.2339,-1.8641900000000002 c0.008130000000000002,0 0.015880000000000002,-0.007940000000000003 0.023630000000000005,-0.007940000000000003 a43.31709,43.31709 0 0 0 5.5452200000000005,-2.19741 c0.007740000000000002,-0.007890000000000003 0.024000000000000004,-0.007890000000000003 0.031760000000000004,-0.01583 c0.40439,-0.19038000000000002 0.79328,-0.39664000000000005 1.18992,-0.5950000000000001 l0.19057000000000002,-0.09519000000000004 c0.31724,-0.16660000000000003 0.6344700000000001,-0.33321000000000006 0.9517100000000001,-0.50771 c0.79328,-0.43629 1.57068,-0.89641 2.3403300000000002,-1.3882400000000001 c0.21420000000000003,-0.127 0.42027000000000003,-0.26180000000000003 0.6344700000000001,-0.40458000000000005 c0.6980000000000002,-0.46012000000000003 1.3882400000000001,-0.9520000000000001 2.05447,-1.45172 c0.11931000000000001,-0.08725000000000002 0.24600000000000002,-0.17450000000000002 0.36527000000000004,-0.26969 a44.17946,44.17946 0 0 0 15.00881,-49.72284 z" fill="#fff" id="svg_17"/><circle id="f2095780-2301-4cc1-9693-3d089d317ca1" data-name="Ellipse 188" cx="111.49543762207031" cy="265.32110595703125" r="6.6230998039245605" fill="#2f2e41"/><path id="fe36a822-bf42-420c-ba8a-fcca90365ca6-314" data-name="Path 969" d="M113.3406589941406,258.88047212646484 a6.6239,6.6239 0 0 1 5.83059,9.76688 a6.6215,6.6215 0 1 0 -11.0012,-7.276 a6.60732,6.60732 0 0 1 5.17138,-2.49091 z" fill="#2f2e41"/><circle id="e26e4994-e49f-47aa-919e-dc7dee2cb7c3" data-name="Ellipse 189" cx="99.11866760253906" cy="245.850830078125" r="19.456010818481445" fill="#2f2e41"/><path id="ac420ffb-80fa-461b-bc18-228b12874f63-315" data-name="Path 970" d="M83.8488089941406,233.77950212646482 a19.45283,19.45283 0 0 1 26.9636,-2.04033 c-0.15866000000000002,-0.15150000000000002 -0.31733000000000006,-0.30383000000000004 -0.48151000000000005,-0.45058000000000004 a19.456,19.456 0 0 0 -25.96422,28.98283 q0.055420000000000004,0.04960000000000001 0.11117000000000002,0.09882000000000003 c0.16500000000000004,0.14676000000000003 0.33476000000000006,0.28557000000000005 0.5037400000000001,0.42600000000000005 a19.45283,19.45283 0 0 1 -1.1320000000000001,-27.01677 z" fill="#2f2e41"/><circle id="a12696bc-31d6-40e2-aafc-0c11595f0891" data-name="Ellipse 190" cx="98.95366668701172" cy="252.61117553710938" r="12.530659675598145" fill="#a0616a"/><path d="M121.37686899414064,285.25993212646483 v4.2043800000000005 c-0.7696500000000002,0.49183000000000004 -1.54705,0.9519400000000001 -2.3403300000000002,1.3882400000000001 c-0.31724,0.17450000000000002 -0.6344700000000001,0.34110000000000007 -0.9517100000000001,0.50771 l-0.19057000000000002,0.09519000000000004 c-0.39664000000000005,0.19832000000000002 -0.78553,0.40458000000000005 -1.18992,0.5950000000000001 c-0.007750000000000002,0.007940000000000003 -0.024000000000000004,0.007940000000000003 -0.031760000000000004,0.01583 a43.31709,43.31709 0 0 1 -5.5452200000000005,2.19741 c-0.007750000000000002,0 -0.015500000000000003,0.007940000000000003 -0.023630000000000005,0.007940000000000003 a44.03355,44.03355 0 0 1 -9.2339,1.8641900000000002 c-1.37236,0.13489 -2.7606,0.19832000000000002 -4.16472,0.19832000000000002 a44.2114,44.2114 0 0 1 -11.39915,-1.49137 a42.9291,42.9291 0 0 1 -5.56885,-1.88008 c-0.015880000000000002,-0.007890000000000003 -0.024000000000000004,-0.007890000000000003 -0.039900000000000005,-0.01583 c-0.18244000000000005,-0.07936000000000001 -0.38076000000000004,-0.15866000000000002 -0.5632,-0.23800000000000002 c-0.89631,-0.38870000000000005 -1.7690000000000001,-0.80911 -2.6258,-1.25335 l-0.37263,-0.19038000000000002 c-0.91258,-0.48394000000000004 -1.80889,-0.9916 -2.68933,-1.5390000000000001 l-0.04764000000000001,-0.023820000000000004 a43.45061,43.45061 0 0 1 -3.91876,-2.75266 c-0.6426100000000001,-0.49183000000000004 -1.26119,-1.00748 -1.86429,-1.54691 c-0.31723,-0.26972999999999997 -0.6344700000000001,-0.5553 -0.9358200000000001,-0.8329300000000001 a42.9465,42.9465 0 0 1 -3.29243,-3.39527 a16.04862,16.04862 0 0 1 0.6031000000000001,-2.4353800000000003 l0.007740000000000002,-0.007940000000000003 a3.56229,3.56229 0 0 1 0.16656000000000004,-0.39664000000000005 a3.1644200000000002,3.1644200000000002 0 0 1 0.15068,-0.33316000000000007 c1.42,-2.65747 3.99042,-3.31591 7.17942,-3.45869 c1.80077,-0.07936000000000001 3.79171,0.007940000000000003 5.89422,-0.015880000000000002 c1.11051,-0.007950000000000002 2.2605399999999998,-0.04760000000000001 3.411,-0.15073000000000003 c7.25844,-0.6583900000000001 5.94186,-4.94212 6.26684,-7.2506 c0.3253700000000001,-2.237 2.3403400000000003,-0.30140000000000006 2.47513,-0.17450000000000002 l0.007750000000000002,0.007940000000000003 a25.60037,25.60037 0 0 0 13.16854,2.30843 c0.7774,-0.09519000000000004 1.5548000000000002,-0.15073000000000003 2.3322000000000003,-0.17450000000000002 c2.04672,-0.023820000000000004 1.60244,0.5632 0.8967000000000002,1.04714 a8.87215,8.87215 0 0 1 -1.071,0.6029000000000001 s-0.3253700000000001,1.9832 -0.6584800000000001,4.95006 c-0.31724,2.83991 5.12456,4.17267 5.57659,4.27575 a0.04827000000000001,0.04827000000000001 0 0 0 0.031760000000000004,0.007940000000000003 a10.92623,10.92623 0 0 1 6.03715,0.15867 h0.007750000000000002 A7.15379,7.15379 0 0 1 121.37686899414064,285.25993212646483 z" fill="#20b97c" id="svg_18" class="" fill-opacity="1"/><path d="M80.81612899414063,290.36072212646485 c0,0.5870000000000001 -0.015500000000000003,1.15027 -0.03951000000000001,1.68175 c-0.007750000000000002,0.31733000000000006 -0.023630000000000005,0.6266700000000002 -0.03951000000000001,0.92018 c-0.015880000000000002,-0.007890000000000003 -0.024000000000000004,-0.007890000000000003 -0.039900000000000005,-0.01583 c-0.18244000000000005,-0.07936000000000001 -0.38076000000000004,-0.15866000000000002 -0.5632,-0.23800000000000002 c-0.89631,-0.38870000000000005 -1.7690000000000001,-0.80911 -2.6258,-1.25335 l-0.37263,-0.19038000000000002 c-0.91258,-0.48394000000000004 -1.80889,-0.9916 -2.68933,-1.5390000000000001 c0.023630000000000005,-0.27767000000000003 0.06353000000000002,-0.5553 0.10300000000000001,-0.8330000000000001 c0.08715000000000002,-0.6107900000000002 0.15881000000000003,-1.2295800000000001 0.20645000000000002,-1.84037 a25.53057,25.53057 0 0 0 -2.26093,-12.50211 v-0.007940000000000003 c-0.15881000000000003,-0.31734000000000007 -0.25371,-0.49183000000000004 -0.25371,-0.49183000000000004 s2.30819,-1.98321 5.60022,0 a1.98132,1.98132 0 0 1 0.54771,0.47595000000000004 C80.37222899414064,276.8669921264648 80.91140899414063,284.7363421264648 80.81612899414063,290.36072212646485 z" fill="#2f2e41" id="svg_19"/><path d="M116.83912899414065,289.28187212646486 c-0.031760000000000004,0.8884700000000001 -0.07940000000000001,1.8165900000000001 -0.13479000000000002,2.7606 v0.007940000000000003 c-0.007750000000000002,0.007940000000000003 -0.024000000000000004,0.007940000000000003 -0.031760000000000004,0.01583 a43.31709,43.31709 0 0 1 -5.5452200000000005,2.19741 c-0.007750000000000002,0 -0.015500000000000003,0.007940000000000003 -0.023630000000000005,0.007940000000000003 l-0.08715000000000002,-2.22912 l-0.008140000000000001,-0.29351000000000005 l-0.42027000000000003,-10.85208 a1.82075,1.82075 0 0 1 1.81665,-1.90389 h4.02179 c0.19832000000000002,0 0.34125000000000005,0.40458000000000005 0.43654000000000004,1.13439 v0.007940000000000003 A68.744,68.744 0 0 1 116.83912899414065,289.28187212646486 z" fill="#2f2e41" id="svg_20"/><path id="e6a5f050-bb79-4898-9f1b-a16710d0980e-316" data-name="Path 975" d="M88.23644899414063,236.94783212646485 v12.53383 h2.90183 l3.69275,-3.95689 l-0.49420000000000003,3.95689 h12.82733 l-0.79328,-3.95689 l1.58656,3.95689 h2.04509 V236.94783212646485 z" fill="#2f2e41"/><ellipse id="bcc9b546-fa99-40e5-8b80-3cc98cb6450e" data-name="Ellipse 191" cx="86.25800323486328" cy="249.9735107421875" rx="0.9892200231552124" ry="1.813439965248108" fill="#a0616a"/><ellipse id="aac24dc1-8688-403d-884a-09279027a7ab" data-name="Ellipse 192" cx="111.65013122558594" cy="249.9735107421875" rx="0.9892200231552124" ry="1.813439965248108" fill="#a0616a"/><path d="M124.06580899414064,287.60799212646486 c-0.6662300000000001,0.49977000000000005 -1.35647,0.9916 -2.05447,1.45172 c-0.21420000000000003,0.14278000000000002 -0.42027000000000003,0.27763 -0.6344700000000001,0.40458000000000005 c-0.7696500000000002,0.49183000000000004 -1.54705,0.9519400000000001 -2.3403300000000002,1.3882400000000001 c-0.31724,0.17450000000000002 -0.6344700000000001,0.34110000000000007 -0.9517100000000001,0.50771 v-8.742 s1.26894,1.01542 3.292,2.70507 c0.25371,0.21420000000000003 0.5155599999999999,0.43634000000000006 0.79328,0.6743100000000001 C122.7569689941406,286.48950212646486 123.39183899414064,287.02893212646484 124.06580899414064,287.60799212646486 z" fill="#20b97c" id="svg_21" class="" fill-opacity="1"/><path d="M138.64660899414065,239.20204212646485 a44.19305,44.19305 0 1 0 -76.36916,41.98041 c0.39664000000000005,0.49977000000000005 0.80916,0.99954 1.22943,1.48343 c0.031760000000000004,0.031720000000000005 0.05539000000000001,0.06348000000000001 0.08715000000000002,0.09519000000000004 a42.94478,42.94478 0 0 0 3.29243,3.39527 c0.30135000000000006,0.27763 0.6185900000000001,0.5632 0.9358200000000001,0.8329300000000001 c0.6030900000000001,0.53943 1.22168,1.05508 1.86429,1.54691 a43.45061,43.45061 0 0 0 3.91876,2.75266 l0.04764000000000001,0.023820000000000004 c0.88043,0.54737 1.77675,1.055 2.68933,1.5390000000000001 l0.37263,0.19038000000000002 c0.8568000000000001,0.44424 1.7294900000000002,0.8646500000000001 2.6258,1.25335 c0.18244000000000005,0.07936000000000001 0.38076000000000004,0.15867 0.5632,0.23800000000000002 c0.015880000000000002,0.007940000000000003 0.024000000000000004,0.007940000000000003 0.039900000000000005,0.01584 a42.929,42.929 0 0 0 5.56885,1.8800700000000001 a44.21134,44.21134 0 0 0 11.39915,1.49137 c1.40412,0 2.79236,-0.06343000000000001 4.16472,-0.19832000000000002 a44.03355,44.03355 0 0 0 9.2339,-1.8641900000000002 c0.008130000000000002,0 0.015880000000000002,-0.007940000000000003 0.023630000000000005,-0.007940000000000003 a43.31709,43.31709 0 0 0 5.5452200000000005,-2.19741 c0.007740000000000002,-0.007890000000000003 0.024000000000000004,-0.007890000000000003 0.031760000000000004,-0.01583 c0.40439,-0.19038000000000002 0.79328,-0.39664000000000005 1.18992,-0.5950000000000001 l0.19057000000000002,-0.09519000000000004 c0.31724,-0.16660000000000003 0.6344700000000001,-0.33321000000000006 0.9517100000000001,-0.50771 c0.79328,-0.43629 1.57068,-0.89641 2.3403300000000002,-1.3882400000000001 c0.21420000000000003,-0.127 0.42027000000000003,-0.26180000000000003 0.6344700000000001,-0.40458000000000005 c0.6980000000000002,-0.46012000000000003 1.3882400000000001,-0.9520000000000001 2.05447,-1.45172 c0.11931000000000001,-0.08725000000000002 0.24600000000000002,-0.17450000000000002 0.36527000000000004,-0.26969 a44.17946,44.17946 0 0 0 15.00881,-49.72284 zm-16.46871,47.79518 c-0.26185,0.20626000000000003 -0.53144,0.40458000000000005 -0.801,0.5870000000000001 c-0.26184,0.19832000000000002 -0.5236900000000001,0.38870000000000005 -0.79328,0.5631900000000001 c-0.23008,0.16661000000000004 -0.46016,0.32528000000000007 -0.6983800000000001,0.47600000000000003 c-0.19832000000000002,0.13485 -0.39664000000000005,0.26180000000000003 -0.5950000000000001,0.38870000000000005 q-0.98715,0.6187800000000001 -1.9987,1.18992 l-0.21459000000000003,0.11900000000000002 c-0.30135000000000006,0.16656000000000004 -0.6027000000000001,0.32523 -0.90406,0.48389000000000004 c-0.03989000000000001,0.023780000000000006 -0.08754000000000002,0.03966000000000001 -0.127,0.06348000000000001 l-0.04764000000000001,0.023770000000000006 c-0.38076000000000004,0.19832000000000002 -0.7692700000000001,0.38870000000000005 -1.15816,0.5711900000000001 a38.89278,38.89278 0 0 1 -4.624890000000001,1.87213 c-0.20607,0.07137 -0.41252000000000005,0.14279000000000003 -0.6185900000000001,0.20626000000000003 a41.612,41.612 0 0 1 -8.742,1.7769400000000002 c-1.30109,0.11900000000000002 -2.61806,0.18244000000000005 -3.9427700000000003,0.18244000000000005 a41.21276,41.21276 0 0 1 -10.78057,-1.412 a39.18138,39.18138 0 0 1 -5.29112,-1.79282 c-0.18244000000000005,-0.07142000000000001 -0.3648800000000001,-0.15073000000000003 -0.53957,-0.22215000000000001 c-0.09490000000000003,-0.03965000000000001 -0.18244000000000005,-0.07931 -0.27772,-0.1269 c-0.7456400000000002,-0.32527000000000006 -1.4831400000000001,-0.6822100000000001 -2.20515,-1.05508 l-0.3490000000000001,-0.18244000000000005 c-0.88043,-0.46011 -1.74537,-0.9519400000000001 -2.5863,-1.47549 c-0.30910000000000004,-0.19043000000000004 -0.6185900000000001,-0.38875000000000004 -0.9199400000000001,-0.5950000000000001 c-0.9520900000000001,-0.6267200000000002 -1.8801700000000001,-1.3010000000000002 -2.7846200000000003,-2.007 c-0.6108400000000002,-0.46012000000000003 -1.19767,-0.9520000000000001 -1.7690000000000001,-1.45966 c-0.30135000000000006,-0.25381000000000004 -0.5950000000000001,-0.53148 -0.88043,-0.79328 a40.36294,40.36294 0 0 1 -3.189,-3.3 c-0.3331100000000001,-0.38076000000000004 -0.6584800000000001,-0.76156 -0.9680000000000001,-1.1582000000000001 a3.01537,3.01537 0 0 1 -0.19832000000000002,-0.24592000000000003 a41.77342,41.77342 0 1 1 58.00479,7.322 z" fill="#3f3d56" id="svg_22"/><circle cx="97.16145324707031" cy="409.27630615234375" r="17.31454086303711" fill="#2f2e41" id="svg_23"/><ellipse cx="-172.73251342773438" cy="819.2807312011719" rx="7.164639949798584" ry="5.373479843139648" transform="rotate(-45 -557.217468261719,302.82058715820307) " fill="#2f2e41" id="svg_24"/><ellipse cx="-111.2547607421875" cy="1082.5054016113281" rx="5.373479843139648" ry="7.164639949798584" transform="rotate(-66.86956024169922 -524.5119018554686,570.5585327148438) " fill="#2f2e41" id="svg_25"/><path d="M117.87225899414062,442.8619921264649 l-2.04,-3.21 a8.00714,8.00714 0 0 0 -14.64014,6.49 l0.58008,2.08 l0.6601600000000001,2.36 a45.21049,45.21049 0 0 0 7.87988,-1.7200000000000002 a0.03400000000000001,0.03400000000000001 0 0 0 0.020000000000000004,-0.010000000000000002 a42.14842,42.14842 0 0 0 5.55029,-2.2 c0.009770000000000004,-0.010000000000000002 0.019530000000000002,-0.010000000000000002 0.029790000000000004,-0.020000000000000004 c0.3999000000000001,-0.19000000000000003 0.79,-0.39000000000000007 1.18994,-0.5900000000000001 a1.735,1.735 0 0 0 0.18994000000000005,-0.1 c0.3198200000000001,-0.16000000000000003 0.6401400000000002,-0.33000000000000007 0.9501900000000001,-0.5 q0.47974,-0.25506 0.9296900000000001,-0.54 z" fill="#cacaca" id="svg_26"/><circle cx="97.71057891845703" cy="413.4096984863281" r="14.694669723510742" fill="#ffb6b6" id="svg_27"/><path d="M118.93231899414064,442.2319921264649 a31.78536,31.78536 0 0 0 -5.97022,-7.24 a8.72893,8.72893 0 0 0 -5.81982,-2.22 h-20.7002 a8.7244,8.7244 0 0 0 -8.71,9.28 a8.93713,8.93713 0 0 0 0.36035000000000006,1.98 a9.39745,9.39745 0 0 0 0.54981,1.36 l1.02,2.04 c0.08007000000000002,0.030000000000000006 0.16015000000000001,0.07 0.23974000000000004,0.1 c0.020000000000000004,0.010000000000000002 0.030280000000000005,0.010000000000000002 0.04000000000000001,0.020000000000000004 c0.41992000000000007,0.17 0.84033,0.3400000000000001 1.27,0.5 a41.34909,41.34909 0 0 0 4.30029,1.3800000000000001 a43.32755,43.32755 0 0 0 7.15967,1.29 c1.41016,0.13 2.82031,0.2 4.24024,0.2 c1.41015,0 2.79,-0.07 4.16992,-0.2 c0.45019,-0.04000000000000001 0.8999000000000001,-0.09000000000000002 1.3501,-0.14 a45.21049,45.21049 0 0 0 7.87988,-1.7200000000000002 a0.03400000000000001,0.03400000000000001 0 0 0 0.020000000000000004,-0.010000000000000002 a42.14842,42.14842 0 0 0 5.55029,-2.2 c0.009770000000000004,-0.010000000000000002 0.019530000000000002,-0.010000000000000002 0.029790000000000004,-0.020000000000000004 c0.3999000000000001,-0.19000000000000003 0.79,-0.39000000000000007 1.18994,-0.5900000000000001 a1.735,1.735 0 0 0 0.18994000000000005,-0.1 c0.3198200000000001,-0.16000000000000003 0.6401400000000002,-0.33000000000000007 0.9501900000000001,-0.5 q0.47974,-0.25506 0.9296900000000001,-0.54 c0.3203100000000001,-0.17 0.6201200000000001,-0.36000000000000004 0.93018,-0.55 C119.72234899414065,443.6019921264649 119.33221899414065,442.90199212646485 118.93231899414064,442.2319921264649 z" fill="#0a42a5" id="svg_28" class="" fill-opacity="1"/><path d="M90.19207899414062,435.4519921264648 a8.00082,8.00082 0 0 0 -10.61963,3.81995 l-1.84033,2.7800000000000002 l-0.8798800000000001,1.33 l-1.3398500000000002,2.02 c0.27979,0.15000000000000002 0.54981,0.30005000000000004 0.83008,0.45 l0.36963,0.19000000000000003 c0.8603500000000001,0.44000000000000006 1.73,0.8600000000000001 2.63037,1.25 c0.09961000000000003,0.05000000000000001 0.21000000000000002,0.09000000000000002 0.31983000000000006,0.14 c0.08007000000000002,0.030000000000000006 0.16015000000000001,0.07 0.23974000000000004,0.1 c0.020000000000000004,0.010000000000000002 0.030280000000000005,0.010000000000000002 0.04000000000000001,0.020000000000000004 c0.41992000000000007,0.17 0.84033,0.3400000000000001 1.27,0.5 a41.34909,41.34909 0 0 0 4.30029,1.3800000000000001 a43.32755,43.32755 0 0 0 7.15967,1.29 l0.7002,-2.37 l0.6801700000000002,-2.26 A8.01285,8.01285 0 0 0 90.19207899414062,435.4519921264648 z" fill="#0a42a5" id="svg_29" class="" fill-opacity="1"/><path d="M82.26996899414064,404.1667921264649 a19.98594,19.98594 0 0 0 11.42181,3.52983 a12.24752,12.24752 0 0 1 -4.85431,1.9971 a40.3,40.3 0 0 0 16.46138,0.09249000000000003 a10.65382,10.65382 0 0 0 3.446,-1.18356 a4.361,4.361 0 0 0 2.127,-2.8447 c0.36116000000000004,-2.06322 -1.24653,-3.9377 -2.9172700000000003,-5.201 a21.519,21.519 0 0 0 -18.08306,-3.61349 A9.90262,9.90262 0 0 0 84.51596899414062,399.96999212646483 a4.87853,4.87853 0 0 0 -0.45065,5.79358 z" fill="#2f2e41" id="svg_30"/><path d="M138.65203899414064,392.2019921264648 a44.19385,44.19385 0 1 0 -76.36963,41.98 c0.38965000000000005,0.5 0.81006,1 1.23,1.48 a0.82521,0.82521 0 0 0 0.08008000000000001,0.1 a42.15388,42.15388 0 0 0 3.29981,3.3899500000000002 c0.29980000000000007,0.28 0.6098600000000001,0.5700000000000001 0.93017,0.8400000000000001 c0.5996100000000001,0.54 1.21973,1.05 1.8696300000000001,1.54 c0.25,0.2 0.5,0.4 0.76026,0.5900000000000001 c1.00976,0.77 2.06982,1.48 3.1499,2.17 a0.07523000000000002,0.07523000000000002 0 0 1 0.04980000000000001,0.020000000000000004 c0.31006000000000006,0.19000000000000003 0.6303700000000001,0.38000000000000006 0.9502,0.56 c0.29980000000000007,0.18000000000000002 0.6098600000000001,0.36000000000000004 0.91015,0.53 c0.27979,0.15000000000000002 0.54981,0.30005000000000004 0.83008,0.45 l0.36963,0.19000000000000003 c0.8603500000000001,0.44000000000000006 1.73,0.8600000000000001 2.63037,1.25 c0.09961000000000003,0.05000000000000001 0.21000000000000002,0.09000000000000002 0.31983000000000006,0.14 c0.08007000000000002,0.030000000000000006 0.16015000000000001,0.07 0.23974000000000004,0.1 c0.020000000000000004,0.010000000000000002 0.030280000000000005,0.010000000000000002 0.04000000000000001,0.020000000000000004 c0.41992000000000007,0.17 0.84033,0.3400000000000001 1.27,0.5 a41.34909,41.34909 0 0 0 4.30029,1.3800000000000001 a43.32755,43.32755 0 0 0 7.15967,1.29 c1.41016,0.13 2.82031,0.2 4.24024,0.2 c1.41015,0 2.79,-0.07 4.16992,-0.2 c0.45019,-0.04000000000000001 0.8999000000000001,-0.09000000000000002 1.3501,-0.14 a45.21049,45.21049 0 0 0 7.87988,-1.7200000000000002 a0.03400000000000001,0.03400000000000001 0 0 0 0.020000000000000004,-0.010000000000000002 a42.14842,42.14842 0 0 0 5.55029,-2.2 c0.009770000000000004,-0.010000000000000002 0.019530000000000002,-0.010000000000000002 0.029790000000000004,-0.020000000000000004 c0.3999000000000001,-0.19000000000000003 0.79,-0.39000000000000007 1.18994,-0.5900000000000001 a1.735,1.735 0 0 0 0.18994000000000005,-0.1 c0.3198200000000001,-0.16000000000000003 0.6401400000000002,-0.33000000000000007 0.9501900000000001,-0.5 q0.47974,-0.25506 0.9296900000000001,-0.54 c0.3203100000000001,-0.17 0.6201200000000001,-0.36000000000000004 0.93018,-0.55 q0.24023000000000003,-0.15000000000000002 0.48000000000000004,-0.30000000000000004 c0.22021000000000004,-0.13 0.41992000000000007,-0.26 0.6401300000000001,-0.41000000000000003 c0.2998100000000001,-0.19000000000000003 0.6001000000000001,-0.4 0.8896500000000002,-0.6100000000000001 c0.39014000000000004,-0.27 0.78028,-0.55 1.16016,-0.8400000000000001 a4.34045,4.34045 0 0 0 0.37012000000000006,-0.27 a44.22136,44.22136 0 0 0 15.00976,-49.72 zm-16.46972,47.79 c-0.26026,0.21000000000000002 -0.53028,0.41000000000000003 -0.79981,0.5900000000000001 c-0.27051000000000003,0.2 -0.53027,0.39000000000000007 -0.8002900000000001,0.5700000000000001 c-0.23,0.16000000000000003 -0.46,0.32000000000000006 -0.6997100000000002,0.47000000000000003 a0.43763,0.43763 0 0 1 -0.07031,0.05000000000000001 c-0.16992000000000004,0.12000000000000001 -0.3501,0.23 -0.52,0.3400000000000001 c-0.12012000000000002,0.06994000000000002 -0.23975000000000002,0.15000000000000002 -0.35986000000000007,0.22000000000000003 c-0.3501,0.22000000000000003 -0.7002,0.43000000000000005 -1.06006,0.6300000000000001 c-0.18994000000000005,0.12000000000000001 -0.39014000000000004,0.23 -0.58008,0.3400000000000001 c-0.06983000000000002,0.04000000000000001 -0.14014000000000001,0.08000000000000002 -0.21000000000000002,0.12000000000000001 c-0.31006000000000006,0.17 -0.6098700000000001,0.32000000000000006 -0.91016,0.48000000000000004 c-0.03955000000000001,0.030000000000000006 -0.08984000000000002,0.04000000000000001 -0.11963000000000003,0.07 a0.07766000000000002,0.07766000000000002 0 0 0 -0.05029000000000001,0.020000000000000004 c-0.3798800000000001,0.2 -0.77,0.39000000000000007 -1.15967,0.5700000000000001 a38.6113,38.6113 0 0 1 -4.63037,1.87 c-0.19971000000000005,0.07 -0.40967000000000003,0.15000000000000002 -0.6098600000000001,0.21000000000000002 a41.84782,41.84782 0 0 1 -7.83008,1.6800000000000002 c-0.2998100000000001,0.04000000000000001 -0.6098600000000001,0.07 -0.9199200000000001,0.1 c-1.2998100000000001,0.12000000000000001 -2.60987,0.18000000000000002 -3.93994,0.18000000000000002 c-1.18018,0 -2.37012,-0.05000000000000001 -3.54,-0.15000000000000002 a41.2311,41.2311 0 0 1 -7.23975,-1.26 a38.302,38.302 0 0 1 -5.29,-1.8 c-0.09033000000000002,-0.04000000000000001 -0.18017,-0.07 -0.27,-0.11000000000000001 c-0.10010000000000001,-0.04000000000000001 -0.18017,-0.07 -0.27,-0.11000000000000001 c-0.10009000000000001,-0.04000000000000001 -0.18017,-0.08000000000000002 -0.28027,-0.13 c-0.6499000000000001,-0.28 -1.2998100000000001,-0.5900000000000001 -1.9296900000000001,-0.91 c-0.09033000000000002,-0.05000000000000001 -0.18017,-0.09000000000000002 -0.27,-0.14 l-0.3501,-0.18000000000000002 c-0.21000000000000002,-0.11000000000000001 -0.41992000000000007,-0.22000000000000003 -0.62011,-0.33000000000000007 c-0.6699200000000002,-0.36000000000000004 -1.3300800000000002,-0.7500000000000001 -1.9697300000000002,-1.15 c-0.24023000000000003,-0.15000000000000002 -0.5,-0.31000000000000005 -0.74023,-0.47000000000000003 l-0.18018,-0.12000000000000001 c-0.56006,-0.38000000000000006 -1.1196300000000001,-0.7600000000000001 -1.6699200000000003,-1.17 c-0.37012000000000006,-0.28 -0.7500000000000001,-0.55 -1.10986,-0.8400000000000001 c-0.6098700000000001,-0.46 -1.2002,-0.9500000000000001 -1.77,-1.46 c-0.30030000000000007,-0.25 -0.6001000000000001,-0.53 -0.8798900000000002,-0.79 a39.67486,39.67486 0 0 1 -3.18994,-3.3 c-0.3300800000000001,-0.37994000000000006 -0.6601500000000001,-0.7600000000000001 -0.9702099999999999,-1.1600000000000001 c-0.06983000000000002,-0.08000000000000002 -0.12989,-0.16000000000000003 -0.20020000000000002,-0.25 a41.77848,41.77848 0 1 1 58.01026,7.32 z" fill="#3f3d56" id="svg_31"/><path d="M170.84602899414062,176.28922212646484 a103.86271,103.86271 0 1 0 5.88861,153.38883 l127.40025,107.4997 A9.571,9.571 0 0 0 316.4934589941406,422.55999212646486 l-0.014090000000000002,-0.011880000000000003 L189.07907899414062,315.04836212646484 A103.86855,103.86855 0 0 0 170.84602899414062,176.28922212646484 zm-8.213,128.40762 a77.81462,77.81462 0 1 1 -9.28981,-109.65368 l0,0 A77.81462,77.81462 0 0 1 162.6330289941406,304.69684212646484 z" fill="#3f3d56" id="svg_32"/><path d="M52.97931899414061,313.98668212646487 A77.81885,77.81885 0 0 1 39.7748489941406,209.37839212646486 q-2.23174,2.24755 -4.315,4.70769 A77.81463,77.81463 0 1 0 154.4033589941406,314.44999212646485 q2.07849,-2.4632899999999998 3.91466,-5.04544 A77.81872,77.81872 0 0 1 52.97931899414061,313.98668212646487 z" opacity="0.3" style="isolation:isolate" id="svg_33"/><path d="M427.6846489941406,441.19674212646487 a10.74269,10.74269 0 0 0 -3.06875,-16.18426 l-23.222,-95.04913 l-16.94052,5.4078100000000004 l25.07572,94.40044 a10.8009,10.8009 0 0 0 18.15552,11.42514 z" fill="#ffb6b6" id="svg_34"/><polygon points="415.682 380.399 403.302 391.079 385.982 406.01 378.332 366.87 377.532 362.8 376.902 359.57 394.452 329 409.082 329.839 410.082 329.899 410.102 330.12 410.332 332.17 413.332 359.149 413.402 359.8 415.682 380.399" fill="#3f3d56" id="svg_35"/><polygon points="334.763 646.074 322.504 646.073 316.671 598.785 334.766 598.786 334.763 646.074" fill="#ffb6b6" id="svg_36"/><path d="M337.8900689941406,657.9578321264648 l-39.53077,-0.0014700000000000004 v-0.5 a15.38731,15.38731 0 0 1 15.38648,-15.38623 h0.0010000000000000002 l24.144,0.0010000000000000002 z" fill="#2f2e41" id="svg_37"/><polygon points="462.763 647.074 450.504 647.073 444.671 599.785 462.766 599.786 462.763 647.074" fill="#ffb6b6" id="svg_38"/><path d="M465.8900689941406,658.9578321264648 l-39.53077,-0.0014700000000000004 v-0.5 a15.38731,15.38731 0 0 1 15.38648,-15.38623 h0.0010000000000000002 l24.144,0.0010000000000000002 z" fill="#2f2e41" id="svg_39"/><path d="M472.56205899414067,628.2495221264649 l-33,5 l-48.00977,-162.48 l-50.99023,163.48 l-37,-5 l48,-190 v-15 l6.5,-22.5 l-0.6801800000000001,-6.09 l-4.73,-42.59 l-2.0498,-18.47 l-0.13286,-1.19314 a4.05551,4.05551 0 0 1 3.19291,-4.41685 h0 l15.3999,-3.24 H394.23196899414063 l14.8501,4.09 l1.02,0.28 l0.46,0.13 l-0.23,1.92 l-3.48,29.18 l-0.18994000000000005,1.6 l-3.36011,28.13 l-0.7400000000000001,6.17 c29,21 30,42 30,42 z" fill="#2f2e41" id="svg_40"/><circle cx="378.6053466796875" cy="288.53692626953125" r="24.5610294342041" fill="#ffb6b6" id="svg_41"/><rect x="660.7000732421875" y="515.0685424804688" width="49" height="7" transform="matrix(0.99156,-0.12967,0.12967,0.99156,-366.09696,-27.08894) " fill="#3f3d56" id="svg_42"/><path d="M290.6444489941406,400.05189212646485 a10.52714,10.52714 0 0 1 1.31644,1.00712 l48.05634,-12.25059 l3.2784,-11.59339 l18.14314,2.66086 l-3.8092,21.08784 a8,8 0 0 1 -7.03475,6.53393 l-56.11128,5.90907 a10.4971,10.4971 0 1 1 -3.83909,-13.35484 z" fill="#ffb6b6" id="svg_43"/><path d="M364.56205899414067,335.24952212646485 l-8.5,-6.5 c-2.29816,-0.8717200000000002 -5.44731,1.605 -6,4 l-12,49 l25,18 l3.5,-5.5 z" fill="#3f3d56" id="svg_44"/><g opacity="0.2" id="svg_45"><path d="M413.3320789941406,359.1494821264648 a67.67916,67.67916 0 0 1 -6.48,2.2 c-0.7000000000000001,0.21000000000000002 -1.41992,0.41000000000000003 -2.12988,0.6000000000000001 a66.01864,66.01864 0 0 1 -14.34034,2.3200000000000003 a45.13975,45.13975 0 0 1 -6.25976,-0.17 a35.24268,35.24268 0 0 1 -6.58985,-1.3 c-0.07031,-0.020000000000000004 -0.15039000000000002,-0.04000000000000001 -0.22021000000000004,-0.06000000000000001 a28.90627,28.90627 0 0 1 -11.9502,-6.79 a23.56071,23.56071 0 0 1 -2.10986,-2.35 a21.23882,21.23882 0 0 1 -4.56006,-16.53 a14.15553,14.15553 0 0 1 0.3403300000000001,-1.57 a25.10846,25.10846 0 0 1 1.48975,-4.1 c0.27,-0.6200000000000001 0.57031,-1.23 0.8901400000000002,-1.8299500000000002 l11.2998,-3.8200000000000003 h21.52 l14.8501,4.09 l1,0.06000000000000001 l0.020000000000000004,0.22000000000000003 l0.46,0.13 l-0.23,1.92 z" id="svg_46"/></g><path d="M359.7849689941406,268.2029321264648 c-4.59329,-0.5630000000000001 -9.634,-0.16485000000000002 -13.21412,2.7673900000000002 s-4.73557,9.0278 -1.34592,12.17828 c3.00083,2.7891 7.6933,2.13322 11.71262,2.92632 a15.85418,15.85418 0 0 1 12.38363,15.15657 c-0.05982000000000001,10.17413 -9.8241,17.87895 -11.578,27.90093 c-1.197,6.8398200000000005 1.68772,14.03819 6.675,18.86966 s11.84324,7.44255 18.7509,8.1498 s13.8926,-0.37300000000000005 20.60576,-2.14766 c6.74127,-1.7821500000000001 13.3778,-4.31055 19.03424,-8.388 s10.2931,-9.82559 12.10927,-16.55777 s0.51227,-14.45089 -4.16774,-19.61986 c-5.359,-5.9190000000000005 -14.27435,-7.95446 -18.90988,-14.45565 c-5.1964,-7.28778 -3.27353,-17.66625 -7.47921,-25.5673 c-2.80791,-5.27514 -8.12457,-8.87315 -13.79191,-10.76858 s-11.719,-2.26953 -17.69211,-2.4531 c-3.13957,-0.09649000000000003 -6.37528,-0.12863 -9.30036,1.016 s-5.49633,3.7531600000000003 -5.648,6.89055 S359.7849689941406,268.2029321264648 359.7849689941406,268.2029321264648 z" fill="#2f2e41" id="svg_47"/></g></svg>