<svg width="196" height="146" xmlns="http://www.w3.org/2000/svg" xmlns:xlink="http://www.w3.org/1999/xlink" overflow="hidden"><defs><clipPath id="clip0"><rect x="456" y="1255" width="196" height="146"/></clipPath></defs><g clip-path="url(#clip0)" transform="translate(-456 -1255)"><path d="M0.0754504 4.85121 177.026 4.85121 177.026 88.8172 0.0754445 88.8172Z" fill="#E6E6E6" transform="matrix(1 0 0 1.00047 456 1255.04)"/><path d="M5.13541 12.0514 171.966 12.0514 171.966 82.1069 5.1354 82.1069Z" fill="#FFFFFF" transform="matrix(1 0 0 1.00047 456 1255.04)"/><path d="M0 0 176.95 0 176.95 7.51737-2.82448e-06 7.51737Z" fill="#007D71" transform="matrix(1 0 0 1.00047 456 1255.04)"/><path d="M6.97966 4.42039C6.97966 5.1899 6.35586 5.8137 5.58635 5.8137 4.81684 5.8137 4.19303 5.1899 4.19303 4.42039 4.19303 3.65088 4.81684 3.02707 5.58635 3.02707 6.35586 3.02707 6.97966 3.65088 6.97966 4.42039Z" fill="#FFFFFF" transform="matrix(1 0 0 1.00047 456 1255.04)"/><path d="M12.2682 4.42039C12.2682 5.1899 11.6444 5.8137 10.8749 5.8137 10.1054 5.8137 9.4816 5.1899 9.4816 4.42039 9.4816 3.65088 10.1054 3.02707 10.8749 3.02707 11.6444 3.02707 12.2682 3.65088 12.2682 4.42039Z" fill="#FFFFFF" transform="matrix(1 0 0 1.00047 456 1255.04)"/><path d="M17.5571 4.42039C17.5571 5.1899 16.9332 5.8137 16.1637 5.8137 15.3942 5.8137 14.7704 5.1899 14.7704 4.42039 14.7704 3.65088 15.3942 3.02707 16.1637 3.02707 16.9332 3.02707 17.5571 3.65088 17.5571 4.42039Z" fill="#FFFFFF" transform="matrix(1 0 0 1.00047 456 1255.04)"/><path d="M101.268 22.7025 124.764 22.7025 124.764 24.4685 101.268 24.4685Z" fill="#E6E6E6" transform="matrix(1 0 0 1.00047 456 1255.04)"/><path d="M101.268 27.887 137.551 27.887 137.551 29.653 101.268 29.653Z" fill="#007D71" transform="matrix(1 0 0 1.00047 456 1255.04)"/><path d="M101.646 32.8244 131.215 32.8244 131.215 34.5905 101.646 34.5905Z" fill="#E6E6E6" transform="matrix(1 0 0 1.00047 456 1255.04)"/><path d="M101.268 38.242 118.531 38.242 118.531 40.008 101.268 40.008Z" fill="#E6E6E6" transform="matrix(1 0 0 1.00047 456 1255.04)"/><path d="M101.268 43.5336 127.322 43.5336 127.322 45.2996 101.268 45.2996Z" fill="#007D71" transform="matrix(1 0 0 1.00047 456 1255.04)"/><path d="M90.5591 22.1469 93.4362 22.1469 93.4362 25.024 90.5591 25.024Z" fill="#E6E6E6" transform="matrix(1 0 0 1.00047 456 1255.04)"/><path d="M90.5591 27.3314 93.4362 27.3314 93.4362 30.2085 90.5591 30.2085Z" fill="#007D71" transform="matrix(1 0 0 1.00047 456 1255.04)"/><path d="M90.5591 32.2689 93.4362 32.2689 93.4362 35.146 90.5591 35.146Z" fill="#E6E6E6" transform="matrix(1 0 0 1.00047 456 1255.04)"/><path d="M90.5591 37.6865 93.4362 37.6865 93.4362 40.5635 90.5591 40.5635Z" fill="#E6E6E6" transform="matrix(1 0 0 1.00047 456 1255.04)"/><path d="M90.5591 42.9783 93.4362 42.9783 93.4362 45.8554 90.5591 45.8554Z" fill="#007D71" transform="matrix(1 0 0 1.00047 456 1255.04)"/><path d="M101.268 48.8587 124.764 48.8587 124.764 50.6247 101.268 50.6247Z" fill="#E6E6E6" transform="matrix(1 0 0 1.00047 456 1255.04)"/><path d="M101.268 54.0431 137.551 54.0431 137.551 55.8091 101.268 55.8091Z" fill="#007D71" transform="matrix(1 0 0 1.00047 456 1255.04)"/><path d="M101.646 58.9806 131.215 58.9806 131.215 60.7466 101.646 60.7466Z" fill="#E6E6E6" transform="matrix(1 0 0 1.00047 456 1255.04)"/><path d="M101.268 64.3982 118.531 64.3982 118.531 66.1642 101.268 66.1642Z" fill="#E6E6E6" transform="matrix(1 0 0 1.00047 456 1255.04)"/><path d="M101.268 69.6898 127.322 69.6898 127.322 71.4558 101.268 71.4558Z" fill="#E6E6E6" transform="matrix(1 0 0 1.00047 456 1255.04)"/><path d="M90.5591 48.3031 93.4362 48.3031 93.4362 51.1802 90.5591 51.1802Z" fill="#E6E6E6" transform="matrix(1 0 0 1.00047 456 1255.04)"/><path d="M90.5591 53.4875 93.4362 53.4875 93.4362 56.3646 90.5591 56.3646Z" fill="#007D71" transform="matrix(1 0 0 1.00047 456 1255.04)"/><path d="M90.5591 58.425 93.4362 58.425 93.4362 61.3021 90.5591 61.3021Z" fill="#E6E6E6" transform="matrix(1 0 0 1.00047 456 1255.04)"/><path d="M90.5591 63.8426 93.4362 63.8426 93.4362 66.7197 90.5591 66.7197Z" fill="#E6E6E6" transform="matrix(1 0 0 1.00047 456 1255.04)"/><path d="M90.5591 69.1344 93.4362 69.1344 93.4362 72.0115 90.5591 72.0115Z" fill="#E6E6E6" transform="matrix(1 0 0 1.00047 456 1255.04)"/><path d="M26.9388 62.7111 50.4348 62.7111 50.4348 64.4771 26.9388 64.4771Z" fill="#3F3D56" transform="matrix(1 0 0 1.00047 456 1255.04)"/><path d="M23.7951 67.3 53.3649 67.3 53.3649 69.066 23.7951 69.066Z" fill="#3F3D56" transform="matrix(1 0 0 1.00047 456 1255.04)"/><path d="M106.859 80.6811C106.856 89.157 99.9821 96.0257 91.506 96.0227 88.9709 96.0217 86.4755 95.3927 84.2429 94.192L84.2399 94.189C76.7801 90.1703 73.9907 80.865 78.0094 73.4052 82.0282 65.9454 91.3335 63.156 98.7932 67.1747 103.761 69.851 106.859 75.0382 106.859 80.6811Z" fill="#3F3D56" transform="matrix(1 0 0 1.00047 403.099 1214.77)"/><path d="M42.8653 35.5185C42.8653 37.8218 40.9981 39.689 38.6947 39.689 36.3914 39.689 34.5242 37.8218 34.5242 35.5185 34.5242 33.2152 36.3914 31.348 38.6947 31.348 40.9981 31.348 42.8653 33.2152 42.8653 35.5185Z" fill="#FFFFFF" transform="matrix(1 0 0 1.00047 456 1255.04)"/><path d="M98.7168 88.5536C94.0545 90.1901 88.9706 90.1705 84.3211 88.4978L84.3181 88.4958 87.4251 82.3627 95.7662 82.3627Z" fill="#FFFFFF" transform="matrix(1 0 0 1.00047 403.099 1214.77)"/><path d="M165.003 142.7 161.92 142.7 160.453 130.807 165.004 130.808 165.003 142.7Z" fill="#FFB7B7" transform="matrix(1 0 0 1.00047 456 1255.04)"/><path d="M218.69 185.936 208.748 185.936 208.748 185.81C208.748 183.673 210.481 181.941 212.618 181.941L212.618 181.941 218.69 181.941Z" fill="#2F2E41" transform="matrix(1 0 0 1.00047 403.099 1214.77)"/><path d="M172.534 142.7 175.617 142.7 177.084 130.807 172.533 130.808 172.534 142.7Z" fill="#FFB7B7" transform="matrix(1 0 0 1.00047 456 1255.04)"/><path d="M224.648 181.941 230.721 181.941 230.721 181.941C232.858 181.941 234.59 183.673 234.59 185.81L234.59 185.936 224.649 185.936Z" fill="#2F2E41" transform="matrix(1 0 0 1.00047 403.099 1214.77)"/><path d="M217.802 87.618C217.802 90.5946 215.389 93.0077 212.412 93.0077 209.436 93.0077 207.023 90.5946 207.023 87.618 207.023 84.6413 209.436 82.2283 212.412 82.2283 215.389 82.2283 217.802 84.6413 217.802 87.618Z" fill="#FFB7B7" transform="matrix(0.444909 -0.895896 0.895471 0.44512 442.528 1453.72)"/><path d="M208.424 124.684C208.424 124.684 206.722 131.775 207.573 135.179 208.424 138.583 210.977 161.841 210.977 161.841L212.679 180.278 219.486 180.845 218.635 159.288 219.486 140.568 224.308 158.721 224.308 180.342 231.528 180.626 231.683 152.481C231.683 152.481 232.25 130.357 228.562 127.52 224.875 124.684 224.308 124.117 224.308 124.117Z" fill="#2F2E41" transform="matrix(1 0 0 1.00047 403.099 1214.77)"/><path d="M218.701 93.4833 225.159 96.8871 226.01 126.386C226.01 126.386 222.322 124.117 216.65 126.953 210.977 129.79 207.289 127.804 207.289 127.804L210.693 115.04 209.275 98.0216 211.303 96.1804Z" fill="#CBCBCB" transform="matrix(1 0 0 1.00047 403.099 1214.77)"/><path d="M211.304 95.6437 210.126 96.6034C210.126 96.6034 202.751 100.291 202.467 102.844L207.573 116.742C207.573 116.742 208.991 119.862 207.857 120.997 206.722 122.131 205.587 124.968 205.871 126.386 206.155 127.804 204.169 133.76 206.438 133.76 208.708 133.76 214.097 120.146 213.813 114.757 213.529 109.367 213.333 95.2511 211.304 95.6437Z" fill="#2F2E41" transform="matrix(1 0 0 1.00047 403.099 1214.77)"/><path d="M216.262 93.8029 218.86 93.3706C218.86 93.3706 228.504 95.9234 229.922 100.178L225.951 110.106C225.951 110.106 228.787 128.259 227.937 128.259L227.086 128.259C227.086 128.259 229.355 129.961 227.937 130.528 226.518 131.095 223.115 135.633 222.264 133.648 221.413 131.662 216.307 108.12 216.875 103.014 217.442 97.909 215.758 94.3379 216.262 93.8029Z" fill="#2F2E41" transform="matrix(1 0 0 1.00047 403.099 1214.77)"/><path d="M217.389 82.333 217.642 81.825 216.372 81.1939C216.372 81.1939 214.971 78.9141 212.435 79.5546 209.9 80.1955 208.759 80.5788 208.759 80.5788L207.493 81.2163 208.128 81.8488 206.988 82.2324 207.75 82.6109 206.863 83.1207 207.34 85.7333C207.34 85.7333 208.133 83.7517 209.657 84.509 211.181 85.2662 213.969 84.1174 213.969 84.1174L216.391 88.8049C216.391 88.8049 216.891 87.1616 217.782 87.5997 217.782 87.5997 220.058 83.9753 217.389 82.333Z" fill="#2F2E41" transform="matrix(1 0 0 1.00047 403.099 1214.77)"/><path d="M225.279 132.105C224.749 130.812 225.368 129.335 226.661 128.806 226.798 128.749 226.941 128.705 227.087 128.674L228.178 119.753 231.736 122.779 230.154 130.786C230.358 132.176 229.397 133.467 228.008 133.672 226.845 133.843 225.717 133.195 225.279 132.105Z" fill="#FFB7B7" transform="matrix(1 0 0 1.00047 403.099 1214.77)"/><path d="M210.062 131.491C210.452 130.15 209.68 128.747 208.339 128.357 208.196 128.315 208.049 128.287 207.901 128.271L205.87 119.516 202.653 122.902 205.075 130.697C205.019 132.1 206.112 133.283 207.515 133.339 208.689 133.385 209.742 132.621 210.062 131.491Z" fill="#FFB7B7" transform="matrix(1 0 0 1.00047 403.099 1214.77)"/><path d="M225.416 97.8665C225.416 97.8665 229.103 96.4482 230.238 100.703 231.372 104.958 232.791 113.467 232.791 113.467 232.861 118.199 232.61 118.199 232.791 122.827L231.94 127.082 227.118 126.514 227.328 115.684 224.849 104.674Z" fill="#2F2E41" transform="matrix(1 0 0 1.00047 403.099 1214.77)"/><path d="M205.02 101.142 203.272 101.329C203.272 101.329 201.617 102.56 201.617 105.396 201.617 108.233 201.333 116.742 201.333 116.742 201.333 116.742 201.172 116.941 202.467 124.117 203.099 127.614 204.19 129.265 204.19 129.265L207.711 125.995 207.289 117.593 208.424 113.055Z" fill="#2F2E41" transform="matrix(1 0 0 1.00047 403.099 1214.77)"/><path d="M248.649 186.104 192.313 186.104C192.174 186.104 192.061 185.991 192.061 185.852 192.061 185.714 192.174 185.601 192.313 185.601L248.649 185.601C248.788 185.601 248.901 185.714 248.901 185.852 248.901 185.991 248.788 186.104 248.649 186.104Z" fill="#CBCBCB" transform="matrix(1 0 0 1.00047 403.099 1214.77)"/><path d="M131.45 186.104 101.521 186.104C101.382 186.104 101.27 185.991 101.27 185.852 101.27 185.714 101.382 185.601 101.521 185.601L131.45 185.601C131.589 185.601 131.701 185.714 131.701 185.852 131.701 185.991 131.589 186.104 131.45 186.104Z" fill="#CBCBCB" transform="matrix(1 0 0 1.00047 403.099 1214.77)"/><path d="M118.141 175.406C113.235 179.064 111.844 185.5 111.844 185.5 111.844 185.5 118.409 186.005 123.316 182.347 128.223 178.689 129.614 172.253 129.614 172.253 129.614 172.253 123.049 171.748 118.141 175.406Z" fill="#F2F2F2" transform="matrix(1 0 0 1.00047 403.099 1214.77)"/><path d="M120.186 177.123C117.827 182.771 111.921 185.681 111.921 185.681 111.921 185.681 109.838 179.435 112.196 173.787 114.555 168.139 120.461 165.229 120.461 165.229 120.461 165.229 122.544 171.476 120.186 177.123Z" fill="#F2F2F2" transform="matrix(1 0 0 1.00047 403.099 1214.77)"/></g></svg>