<svg xmlns="http://www.w3.org/2000/svg" xmlns:xlink="http://www.w3.org/1999/xlink" data-name="Layer 1" width="570.22183" height="670.69599"><rect id="backgroundrect" width="100%" height="100%" x="0" y="0" fill="none" stroke="none"/><g class="currentLayer" style=""><title>Layer 1</title><path d="M561.7218513964843,560.9999919433594 h-380 a8.50981,8.50981 0 0 1 -8.5,-8.5 v-544 a8.5095,8.5095 0 0 1 8.5,-8.5 h380 a8.50951,8.50951 0 0 1 8.5,8.5 v544 A8.50982,8.50982 0 0 1 561.7218513964843,560.9999919433594 z" fill="#3f3d56" id="svg_1"/><path d="M553.7218513964843,552.9999919433594 h-364 a8.50981,8.50981 0 0 1 -8.5,-8.5 v-528 a8.5095,8.5095 0 0 1 8.5,-8.5 h364 a8.50951,8.50951 0 0 1 8.5,8.5 v528 A8.50982,8.50982 0 0 1 553.7218513964843,552.9999919433594 z" fill="#fff" id="svg_2"/><path d="M289.28912139648435,525.3144319433594 c-32.38038,-42.74419 -19.53926,-91.5294 -38.50972,-125.56309 C178.07286139648437,269.3118919433594 267.6009313964844,281.3294619433594 368.82140139648436,306.6956719433594 l0.24132,2.814 c-64.423,9.942 -106.79137,43.09817 -116.24155,90.96614 c-7.34453,37.20144 6.1329,80.82022 37.94974,122.82118 z" fill="#f0f0f0" id="svg_3"/><path d="M360.4169313964844,366.23493194335936 l-0.6764500000000001,-2.68253 c36.14364,-16.38694 33.03824,-65.1951 65.3754,-76.34061 c246.33374,-84.90381 3.17529,-94.47852 -51.51855,-139.38867 c-48.91016,-40.16114 -102.21394,-86.85395 -169.95685,-110.902 l0.54033,-2.7378400000000003 c68.03886,24.15384 128.69039,63.744 170.77978,111.47782 c42.30181,47.97305 60.83921,98.50072 52.197,142.27506 C420.3424613964844,322.45507194335937 397.2637813964843,349.5299919433594 360.4169313964844,366.23493194335936 z" fill="#f0f0f0" id="svg_4"/><path d="M262.0290613964844,272.16309194335935 c-16.51709,-1.3048000000000002 2.97279,-12.23534 4.27759,-28.75243 a30,30 0 1 1 59.81365,4.7251 C324.81550139648436,264.6528519433594 278.54614139648436,273.46789194335935 262.0290613964844,272.16309194335935 z" fill="#6ad39e" id="svg_5"/><path d="M420.6196513964844,169.3329919433594 a30,30 0 0 1 -27.54428,-32.26938 c1.3048000000000002,-16.51709 -31.49549,-27.56594 -14.97841,-26.26114 s76.09687,14.46916 74.79207,30.98624 A30,30 0 0 1 420.6196513964844,169.3329919433594 z" fill="#6ad39e" id="svg_6"/><path d="M456.7715413964844,131.68236194335938 c2.17675,4.51555 0.8934300000000001,9.73249 -1.9812699999999999,13.63107 c-3.26977,4.43438 -8.47065,6.6203 -13.8058,7.34275 a42.49189,42.49189 0 0 1 -17.07063,-1.40565 c-5.3401,-1.54119 -10.88219,-4.84459 -11.98367,-10.746220000000001 c-0.7341400000000001,-3.93343 0.9440000000000001,-8.13111 5.02867,-9.22143 a9.83561,9.83561 0 0 1 9.31137,2.52616 c3.39174,3.53011 3.13355,9.196 0.978,13.29618 c-2.53524,4.82231 -7.60794,7.48342 -12.82353,8.36157 c-6.20085,1.044 -12.43164,-0.41436000000000006 -18.265,-2.48939 c-6.34024,-2.25532 -12.49067,-5.06371 -18.702840000000002,-7.64345 c-12.11472,-5.03092 -24.49025,-9.757 -37.51805,-11.76066 c-19.90135,-3.0608 -43.52029,1.70533 -55.70318,19.15317 c-6.5766100000000005,9.41875 -8.43964,21.23107 -7.02416,32.4683 c1.49275,11.85062 6.692690000000001,22.74052 13.57806,32.384 a137.50588,137.50588 0 0 0 11.91555,14.259 a9.82012,9.82012 0 0 1 2.267,10.69886 c-3.77426,9.27354 -18.864440000000002,6.31808 -19.98881,-3.241 c-0.5108900000000001,-4.3434800000000005 1.9123999999999999,-8.8168 4.94033,-11.76289 a23.28384,23.28384 0 0 1 12.418,-6.01583 c9.791690000000001,-1.63516 20.14217,1.99532 27.6269,8.3014 c8.45572,7.12418 13.216,17.95059 15.7234,28.48985 c2.8547000000000002,11.99923 3.00032,24.3408 3.27158,36.60637 c0.2776,12.55182 0.7547500000000001,25.25217 4.3557500000000005,37.36709 a92.3427,92.3427 0 0 0 13.37931,27.22636 a96.45416,96.45416 0 0 0 48.07938,35.62972 a88.35188,88.35188 0 0 0 14.38441,3.36974 c1.9106400000000001,0.28326 2.1388,-2.7086200000000002 0.23625000000000002,-2.99069 c-21.27419,-3.154 -40.838,-14.67269 -54.84308,-30.86338 a91.476,91.476 0 0 1 -16.38869,-27.31853 c-4.56715,-12.038 -5.72527,-24.82483 -6.09812,-37.60112 c-0.3808000000000001,-13.04851 -0.17345000000000002,-26.21511 -2.78586,-39.069 c-2.3095,-11.36339 -6.83963,-22.87024 -15.22921,-31.14969 c-7.39735,-7.30025 -17.98029,-11.81673 -28.43941,-11.33223 c-9.73194,0.45082000000000005 -20.138,5.8107500000000005 -23.03,15.74038 c-1.357,4.65913 -0.4937,9.66088 3.06325,13.12161 a15.12983,15.12983 0 0 0 15.49294,3.27426 a12.55132,12.55132 0 0 0 6.9685500000000005,-15.35454 a15.27554,15.27554 0 0 0 -3.762,-5.75445 c-8.77942,-9.376 -16.83617,-19.86816 -21.20806,-32.07675 c-4.07776,-11.38723 -4.91413,-24.4864 -0.21133000000000002,-35.817 c8.90314,-21.45071 34.74174,-27.89613 55.78886,-24.89809 c13.77417,1.96205 26.81632,7.177 39.5755,12.5113 c6.51539,2.72391 12.98879,5.75115 19.746,7.83625 c6.04993,1.8668500000000001 12.54194,2.80431 18.775,1.2732299999999999 c5.44023,-1.33633 10.44021,-4.49941 13.07554,-9.55943 c2.3938,-4.59628 2.80686,-10.42859 -0.03994,-14.93152 c-4.1159,-6.51034 -15.48059,-7.97481 -19.622,-0.6625500000000001 c-2.748,4.85192 -1.3979300000000001,11.06485 2.21105,15.08881 c4.04614,4.51138 10.10529,6.35408 15.90385,7.28411 c10.957,1.7574100000000001 24.44964,0.37629 30.31151,-10.44615 c2.41495,-4.45857 3.06707,-9.77442 0.82027,-14.43528 a1.50112,1.50112 0 0 0 -2.70161,1.30546 z" fill="#3f3d56" id="svg_7"/><path d="M421.5264913964844,399.11808194335936 c-17.51544,-1.38367 -64.34826,22.58261 -77.02568,12.27219 q-2.3763300000000003,-1.9180000000000001 -4.59731,-4.0245 a82.599,82.599 0 0 1 -12.75013,-15.23146 c-0.6276900000000002,-0.94231 -1.22477,-1.8923100000000002 -1.80106,-2.8506400000000003 a84.197,84.197 0 0 1 -5.35155,-10.6044 c-0.26861,-0.6632300000000001 -0.53637,-1.33637 -0.8042,-2.00958 a83.50589,83.50589 0 0 1 141.79559,-83.87381 c0.6794200000000001,0.796 1.3373000000000002,1.6103200000000002 1.9836900000000002,2.4437800000000003 a83.16474,83.16474 0 0 1 14.24826,27.75827 c-0.0007900000000000002,0.010000000000000002 0.009190000000000002,0.010770000000000004 0.008400000000000001,0.020750000000000005 a83.83137,83.83137 0 0 1 0.20678000000000002,46.27 l-0.0015800000000000005,0.020000000000000004 c-0.09656000000000003,0.3333900000000001 -0.19313000000000002,0.6668500000000002 -0.29962000000000005,0.99952 C466.1984013964844,407.33156194335936 461.55182139648434,402.2799919433594 421.5264913964844,399.11808194335936 z" fill="#6ad39e" id="svg_8"/><path d="M320.3788013964844,378.71917194335936 a1.5802200000000002,1.5802200000000002 0 0 1 -0.37800000000000006,-0.039900000000000005 c-0.26861,-0.6632300000000001 -0.53637,-1.33637 -0.8042,-2.00958 a1.4997500000000001,1.4997500000000001 0 0 1 1.4185,-0.9412 a20.49565,20.49565 0 0 0 4.5047,-0.51685 c12.82812,-2.89879 20.30549,-16.03071 23.50876,-27.75486 c3.93187,-14.3449 3.98591,-29.7585 11.09187,-43.14048 a37.88812,37.88812 0 0 1 11.82515,-13.82164 a26.92226,26.92226 0 0 1 18.75375,-4.38677 c15.477,2.0452 26.77361,13.96183 41.14184,18.8686 c5.91911,2.02241 12.21949,2.52012 18.139,0.21914000000000003 c5.02917,-1.9500000000000002 9.61669,-5.80067 10.65581,-11.336 a1.45264,1.45264 0 0 1 0.75616,-1.06375 c0.6794200000000001,0.796 1.3373000000000002,1.6103200000000002 1.9836900000000002,2.4437800000000003 a14.57849,14.57849 0 0 1 -1.00152,2.90017 c-2.525,5.29758 -7.5603,8.72167 -13.042300000000001,10.43529 c-6.34533,1.97641 -12.94661,1.22423 -19.12152,-0.989 c-14.39831,-5.15987 -26.24083,-17.91212 -42.13768,-18.70647 c-13.77865,-0.6872600000000001 -23.30015,10.63812 -27.88484,22.45371 c-5.66887,14.619 -4.82678,31.00622 -11.19087,45.40976 C343.5892013964843,368.0739919433594 333.5538713964844,378.6665419433594 320.3788013964844,378.71917194335936 z" fill="#3f3d56" id="svg_9"/><path d="M327.15337139648443,392.13431194335936 c-0.6276900000000002,-0.94231 -1.22477,-1.8923100000000002 -1.80106,-2.8506400000000003 a1.24765,1.24765 0 0 1 1.00293,-0.25182000000000004 a50.76505,50.76505 0 0 0 36.20233,-9.649000000000001 a50.15773,50.15773 0 0 0 11.72725,-12.07392 c3.3241,-4.87335 5.3318200000000004,-10.35225 7.584820000000001,-15.76163 c2.216,-5.3220600000000005 4.81787,-10.70381 9.22516,-14.55871 c4.49331,-3.92836 10.29116,-5.57687 16.16339,-5.755 c13.916,-0.41539000000000004 26.05068,7.4948 39.59425,9.12644 c6.04145,0.7280000000000001 12.03859,-0.14234000000000002 17.21031,-3.51556 c4.46366,-2.91755 7.71351,-7.4858 7.50469,-12.96929 c-0.07760000000000002,-1.8117200000000002 2.5613,-1.6935700000000002 2.94688,-0.09825000000000003 a1.60151,1.60151 0 0 1 0.04380000000000001,0.3345100000000001 c0.23840000000000003,6.37861 -3.68359,11.8367 -8.84533,15.21064 c-5.9981,3.92986 -13.00637,4.901 -20.01977,3.90557 c-13.56978,-1.9346400000000001 -26.11195,-10.14788 -40.153,-8.90983 a21.07324,21.07324 0 0 0 -15.22591,7.85536 c-3.6950600000000002,4.74376 -5.64742,10.538 -7.92746,16.03549 a55.59973,55.59973 0 0 1 -8.961,15.15136 a54.8931,54.8931 0 0 1 -13.337,11.24462 A53.17958,53.17958 0 0 1 327.15337139648443,392.13431194335936 z" fill="#3f3d56" id="svg_10"/><path d="M344.5008113964843,411.3902719433594 q-2.3763300000000003,-1.9180000000000001 -4.59731,-4.0245 a56.746,56.746 0 0 0 23.37591,0.97392 a58.90217,58.90217 0 0 0 26.83179,-11.66323 a51.60253,51.60253 0 0 0 10.202,-10.66971 c3.273,-4.60654 6.13274,-9.69712 11.06832,-12.7479 c10.71433,-6.61678 23.53783,-0.5681700000000001 34.23489,2.6843700000000004 c5.58308,1.705 11.58069,2.8608900000000004 17.26706,0.97282 c4.40921,-1.46732 8.6887,-4.72043 9.5599,-9.52673 c0.3398300000000001,-1.88908 3.3412800000000002,-1.6620000000000001 2.9906800000000002,0.23626000000000003 q-0.1023,0.53357 -0.23461,1.06484 c-1.37515,5.21791 -5.6450000000000005,8.98338 -10.68464,10.81214 c-6.577,2.36942 -13.39077,1.25937 -19.92427,-0.73131 c-10.74532,-3.27643 -24.788429999999998,-10.01326 -34.5105,-0.7200000000000001 c-4.10135,3.9191700000000003 -6.61723,9.22751 -10.31591,13.50953 a55.75879,55.75879 0 0 1 -11.31423,10.02011 A62.58588,62.58588 0 0 1 344.5008113964843,411.3902719433594 z" fill="#3f3d56" id="svg_11"/><path d="M554.2218513964843,624.4999919433594 h-71 a8.50981,8.50981 0 0 1 -8.5,-8.5 v-25 a8.5095,8.5095 0 0 1 8.5,-8.5 h71 a8.50951,8.50951 0 0 1 8.5,8.5 v25 A8.50982,8.50982 0 0 1 554.2218513964843,624.4999919433594 z" fill="#e6e6e6" id="svg_12" class=""/><path d="M554.2218513964843,623.7857062120438 h-71 a8.50981,8.50981 0 0 1 -8.5,-8.5 v-25 a8.5095,8.5095 0 0 1 8.5,-8.5 h71 a8.50951,8.50951 0 0 1 8.5,8.5 v25 A8.50982,8.50982 0 0 1 554.2218513964843,623.7857062120438 z" fill="#a5e5c5" class="" id="svg_28" fill-opacity="1"/><polygon points="142.482 334.364 144.356 351.746 143.253 374.538 193.738 368.54 198.482 334.364 192.438 334.424 142.482 334.364" fill="#ffb6b6" id="svg_13"/><path d="M202.72185139648434,280.49999194335936 l-15.6085,-5.77271 l-6.67,-9.68594 l-23.99252,-2.39925 l-14.79926,9.48075 l-12.40673,6.31775 l0.21253000000000002,32.98785 L143.7218513964844,370.49999194335936 l51,-2 l6.713,-42.12345 s15.59514,-20.94623 -1.19962,-32.94249 z" fill="#a5e5c5" id="svg_14" class="" fill-opacity="1"/><polygon points="116.296 649.938 127.334 649.938 132.586 607.364 116.296 607.364 116.296 649.938" fill="#ffb6b6" id="svg_15"/><path d="M112.69381139648436,642.3780919433593 l17.634,-1.05251 v7.55516 l16.76509,11.57857 a4.71924,4.71924 0 0 1 -2.68162,8.60273 H123.41735139648438 l-3.6186100000000003,-7.4732 l-1.41289,7.4732 h-7.91553 z" fill="#2f2e41" id="svg_16"/><polygon points="178.296 649.938 189.334 649.938 194.586 607.364 178.296 607.364 178.296 649.938" fill="#ffb6b6" id="svg_17"/><path d="M174.69381139648436,642.3780919433593 l17.634,-1.05251 v7.55516 l16.76509,11.57857 a4.71924,4.71924 0 0 1 -2.68162,8.60273 H185.41735139648438 l-3.6186100000000003,-7.4732 l-1.41289,7.4732 h-7.91553 z" fill="#2f2e41" id="svg_18"/><path d="M111.53371139648436,613.2243319433594 h0.12000000000000001 l2.12275,-69.22333 a18.10108,18.10108 0 0 1 0.23750000000000002,-17.1052 l0.30391000000000007,-0.5501400000000001 l-0.788,-3.6527200000000004 a23.26659,23.26659 0 0 1 1.32959,-14.00271 l1.9803199999999999,-64.57252 c-7.07488,-45.85118 26.64191,-75.75358 26.64191,-75.75358 H193.9899313964844 l10.84353,37.2558 c7.16852,69.84052 5.8678,137.898 -5.50763,203.83417 l0.31012000000000006,0.15682000000000001 c1.11666,0.3854600000000001 1.59558,1.93234 1.07,3.45519 s-1.8569400000000003,2.44491 -2.9735899999999997,2.05946 l-26.67414,-0.92778 c-1.11665,-0.3853600000000001 -1.5957500000000002,-1.93234 -1.07,-3.45519 c0.52557,-1.52285 1.8569400000000003,-2.44482 2.9736000000000002,-2.05945 l1.8136700000000001,0.91734 l-3.8679300000000003,-66.79789 l0.42925,-12.20106 l-0.8843200000000001,-13.84185 l-4.08866,-62.26057 l-15.47616,76.563 L135.07952139648438,613.9947919433594 a2.908,2.908 0 0 1 -1.9609200000000002,5.0635 H111.53371139648436 a2.917,2.917 0 0 1 0,-5.834 z" fill="#2f2e41" id="svg_19"/><path d="M106.28261139648436,417.10813194335935 a9.15747,9.15747 0 0 1 0.982,-14.00749 l13.4572,-82.60064 l15.782540000000001,5.5529 l-15.99258,79.57037 a9.20709,9.20709 0 0 1 -14.2292,11.48486 z" fill="#ffb6b6" id="svg_20"/><path d="M131.36722139648435,278.3670619433594 s-4.52689,-1.706 -6.16987,8.41106 c-1.31532,8.09948 -14.15648,56.98834 -12.94154,68.31593 a7.194,7.194 0 0 0 -4.78934,7.406 l23.67831,0.12117000000000001 c3.6255,-3.95447 4.09577,-8.72533 2.3449400000000002,-9.89783 l3.276,-14.454 L152.19331139648438,291.63699194335936 l-17.53194,-12.09491 z" fill="#a5e5c5" id="svg_21" class="" fill-opacity="1"/><path d="M215.29512139648432,420.6245419433594 a9.15743,9.15743 0 0 0 0.22700000000000004,-14.04 l-4.80022,-83.0845 l-17.701,3.80645 l9.08614,80.65139 a9.20709,9.20709 0 0 0 13.18814,12.6667 z" fill="#ffb6b6" id="svg_22"/><path d="M202.24237139648437,280.23954194335937 s4.65691,-1.31012 5.4232,8.91079 c0.61348,8.18262 9.20007,57.99514 7.01488,69.17616 a7.194,7.194 0 0 1 4.13429,7.7906 l-23.60091,-1.91682 c-3.27177,-4.25177 -3.32975,-9.04541 -1.48452,-10.0629 l-2.02,-14.68227 L180.35163139648438,291.6681819433594 l18.5077,-10.5414 z" fill="#a5e5c5" id="svg_23" class="" fill-opacity="1"/><circle cx="157.92013549804688" cy="237.06195068359375" r="23.87575912475586" fill="#ffb8b8" id="svg_24"/><path d="M110.46941139648436,287.2393819433594 q-7.57867,-2.6859 -15.15737,-5.38157 a15.25778,15.25778 0 0 1 3.28123,-3.86194 c4.81048,-4.01685 11.45032,-4.74278 17.55782,-6.0978200000000005 c6.11719,-1.3550900000000001 12.757,-4.133 14.993,-9.97914 c2.32294,-6.07849 -1.04536,-12.64088 -3.00055,-18.83552 c-2.7392000000000003,-8.64342 -2.68113,-18.2935 0.9872799999999999,-26.5788 c3.66835,-8.2853 11.12126,-15.00259 19.968,-16.9771 c8.84664,-1.96488 18.84515,1.23889 24.28479,8.47889 a14.97418,14.97418 0 0 1 18.02246,8.34337 c1.268,3.17471 1.30671,6.998 -0.5807200000000001,9.8533 s-5.9236,4.3169 -8.96284,2.72951 l1.7616,-4.47173 c-5.44933,1.84868 -8.991859999999999,11.702 -8.25629,17.41267 c0.7259300000000001,5.7010000000000005 4.05554,10.69538 7.43359,15.351 c3.378,4.65564 6.97858,9.35966 8.43045,14.92514 c2.09071,8.00462 -0.7356200000000002,16.7545 -5.9623,23.17174 c-5.22673,6.41724 -12.5925,10.77283 -20.21963,13.9766 a93.731,93.731 0 0 1 -17.71272,5.459 c1.08406,-2.11 2.15842,-4.22006 3.24248,-6.3301 l-12.86349,7.782 c-2.48753,0.24200000000000002 -4.99444,0.3871800000000001 -7.5013,0.43557000000000007 c-7.298,0.12583 -14.74117,-0.6388600000000001 -21.41988,-3.55221 c-6.68817,-2.9231 -12.56344,-8.217600000000001 -14.98321,-15.09941 a19.56891,19.56891 0 0 1 -1.0839400000000001,-6.93021 Q101.59849139648435,289.1461719433594 110.46941139648436,287.2393819433594 z" fill="#b6b6b6" id="svg_25" class="" fill-opacity="1"/><path d="M86.39078139648439,642.0487062120437 a3.6132400000000002,3.6132400000000002 0 0 1 -2.61866,-6.26263 c0.09111000000000004,-0.3621200000000001 0.15647000000000005,-0.6221700000000002 0.24758000000000005,-0.98429 q-0.04889000000000002,-0.11823000000000006 -0.09837000000000005,-0.23628000000000005 a9.70311,9.70311 0 0 0 -17.89849,0.06652000000000004 c-2.92739,7.05051 -6.65446,14.11307 -7.57216,21.56779 a28.70546,28.70546 0 0 0 0.50391,9.87235 a115.086,115.086 0 0 1 -10.46893,-47.79893 a111.07977,111.07977 0 0 1 0.6890000000000004,-12.392 q0.5708000000000002,-5.05968 1.5837700000000003,-10.0473 a116.41944,116.41944 0 0 1 23.087,-49.34152 a30.98262,30.98262 0 0 0 12.88557,-13.36893 a23.6336,23.6336 0 0 0 2.14933,-6.45821 c-0.6272900000000002,0.08228000000000003 -1.26489,0.13369 -1.8921800000000002,0.17479000000000006 c-0.19542000000000007,0.010230000000000006 -0.4010800000000001,0.020550000000000013 -0.5965,0.03086000000000001 l-0.07370000000000003,0.0033100000000000017 a3.5799000000000003,3.5799000000000003 0 0 1 -2.9401,-5.83225 q0.40629,-0.5 0.81306,-0.99949 c0.4113900000000001,-0.51422 0.8330000000000002,-1.01813 1.24434,-1.53227 a1.78219,1.78219 0 0 0 0.13369,-0.15433000000000005 c0.4731200000000001,-0.58618 0.9460900000000002,-1.16206 1.41921,-1.74824 a10.35164,10.35164 0 0 0 -3.39366,-3.28044 c-4.74084,-2.7766200000000003 -11.28133,-0.85358 -14.70586,3.43476 c-3.43477,4.28826 -4.0826,10.30438 -2.88976,15.66218 a41.48489,41.48489 0 0 0 5.73842,12.793 c-0.25716,0.3291200000000002 -0.52454,0.6479200000000004 -0.78161,0.977 a117.17121,117.17121 0 0 0 -12.22973,19.37481 a48.70916,48.70916 0 0 0 -2.908,-22.62447 c-2.78346,-6.71479 -8.00064,-12.37 -12.595,-18.175 c-5.51857,-6.9726 -16.83489,-3.92959 -17.80714,4.90927 q-0.014100000000000003,0.12839 -0.027560000000000015,0.25666 q1.02362,0.5774900000000002 2.004,1.22586 a4.9011,4.9011 0 0 1 -1.976,8.91908 l-0.09994000000000006,0.015430000000000006 a48.76572,48.76572 0 0 0 1.28543,7.29124 a50.2099,50.2099 0 0 0 24.99984,31.46837 c0.4010800000000001,0.20565 0.79193,0.4113100000000001 1.193,0.6067300000000002 a119.59684,119.59684 0 0 0 -6.43767,30.296 a113.43411,113.43411 0 0 0 0.08228000000000003,18.31542 l-0.03087000000000001,-0.21600000000000005 A29.974,29.974 0 0 0 36.17593139648437,610.5500862120438 c-7.87437,-6.46853 -18.99939,-8.8505 -27.49445,-14.04994 a5.62528,5.62528 0 0 0 -8.61571,5.47252 q0.01707000000000001,0.11350000000000003 0.034740000000000014,0.22700000000000006 a32.92361,32.92361 0 0 1 3.6918300000000004,1.779 q1.02363,0.5776100000000002 2.004,1.22585 a4.90115,4.90115 0 0 1 -1.976,8.91916 l-0.1,0.015350000000000006 c-0.07200000000000002,0.010320000000000003 -0.13369,0.020640000000000006 -0.20558,0.031000000000000014 a48.80783,48.80783 0 0 0 8.97768,14.05786 a50.25441,50.25441 0 0 0 36.44572,15.99129 h0.010320000000000003 a119.562,119.562 0 0 0 8.03167,23.447 h28.691670000000002 c0.10291,-0.3188000000000002 0.19542000000000007,-0.6479200000000004 0.2880000000000001,-0.9667200000000002 a32.59922,32.59922 0 0 1 -7.93916,-0.4730000000000001 c2.12878,-2.61214 4.25747,-5.24483 6.38625,-7.85688 a1.78444,1.78444 0 0 0 0.13369,-0.15424000000000007 c1.07978,-1.3368600000000004 2.16988,-2.6634700000000002 3.24966,-4.00032 l0.0005800000000000002,-0.0016600000000000005 a47.75069,47.75069 0 0 0 -1.3991600000000002,-12.16411 z" fill="#a5e5c5" id="svg_26" class="" fill-opacity="1"/></g></svg>