<svg xmlns="http://www.w3.org/2000/svg" xmlns:xlink="http://www.w3.org/1999/xlink" data-name="Layer 1" width="952" height="586"><rect id="backgroundrect" width="100%" height="100%" x="0" y="0" fill="none" stroke="none"/><g class="currentLayer" style=""><title>Layer 1</title><path id="a163713d-a7fc-4807-a77b-111ad75719e9-864" data-name="Path 133" d="M46.63353000000001,540.233 a158.3937,158.3937 0 0 0 7.4,43.785 c0.1,0.32900000000000007 0.21100000000000002,0.6530000000000001 0.31900000000000006,0.982 h27.613 c-0.029000000000000005,-0.29500000000000004 -0.05900000000000001,-0.6240000000000001 -0.08800000000000002,-0.982 c-1.8410000000000002,-21.166 8.677,-148.453 21.369,-170.483 C102.13453999999999,415.322 44.49253999999999,472.97900000000004 46.63353000000001,540.233 z" fill="#e7f7ff" class="" fill-opacity="1"/><path id="a1d5a274-7181-45f3-aae5-db776f20014a-865" data-name="Path 134" d="M48.70558,584.018 c0.231,0.32900000000000007 0.47100000000000003,0.6580000000000001 0.7170000000000001,0.982 h20.716 c-0.15700000000000003,-0.28 -0.3390000000000001,-0.6090000000000001 -0.55,-0.982 c-3.422,-6.176 -13.551,-24.642 -22.953,-43.785 c-10.1,-20.572 -19.374,-41.924 -18.593,-49.652 C27.800579999999997,492.323 20.808609999999987,545.457 48.70558,584.018 z" fill="#e7f7ff" class="" fill-opacity="1"/><path d="M651.29126,120.577 a14.422460000000001,14.422460000000001 0 0 0 21.04127,6.80778 l39.97977,32.06957 l2.47488,-26.51836 l-38.34489,-26.38825 a14.50066,14.50066 0 0 0 -25.151,14.02926 z" fill="#9f616a" id="svg_1"/><polygon points="713.205 130.446 698.283 119.903 681.358 139.458 701.046 151.126 713.205 130.446" fill="#b9e8ff" id="svg_2"/><path d="M709.93681,123.29581999999999 l50.28691,19.349 L808.63291,110.947 a24.62075,24.62075 0 0 1 31.79547,37.06016 l-0.43300000000000005,0.48083000000000004 l-74.454,39.9183 l-81.32649,-37.15291 z" fill="#3f3d56" id="svg_3"/><polygon points="695.76 583 171.76 583 190.76 212 272.76 212 348.374 265 714.76 265 695.76 583" fill="#e5e5e5" id="svg_4"/><path d="M567.4891,469.86285999999996 L264.6242,345.13469 a4.32609,4.32609 0 0 1 -2.35009,-5.64107 L399.50800000000004,6.262319999999988 a4.3261,4.3261 0 0 1 5.64107,-2.35009 L708.014,128.6404 a4.32609,4.32609 0 0 1 2.35009,5.64107 L573.13017,467.51277000000005 A4.32609,4.32609 0 0 1 567.4891,469.86285999999996 z" fill="#fff" id="svg_5"/><path d="M567.4891,469.86285999999996 L264.6242,345.13469 a4.32609,4.32609 0 0 1 -2.35009,-5.64107 L399.50800000000004,6.262319999999988 a4.3261,4.3261 0 0 1 5.64107,-2.35009 L708.014,128.6404 a4.32609,4.32609 0 0 1 2.35009,5.64107 L573.13017,467.51277000000005 A4.32609,4.32609 0 0 1 567.4891,469.86285999999996 zM404.49087999999995,5.510459999999995 a2.59553,2.59553 0 0 0 -3.38465,1.41006 L263.87234,340.15182 a2.59552,2.59552 0 0 0 1.41005,3.38464 l302.8649,124.72817 a2.59553,2.59553 0 0 0 3.38465,-1.4100000000000001 L708.76583,133.62327 a2.59552,2.59552 0 0 0 -1.41005,-3.38464 z" fill="#3f3d56" id="svg_6"/><path d="M490.03119000000004,168.86654 L414.9143,137.93132000000003 a4.32609,4.32609 0 0 1 -2.35009,-5.64107 l30.93522,-75.11689 a4.3261,4.3261 0 0 1 5.64107,-2.35009 l75.11689,30.93522 a4.3261,4.3261 0 0 1 2.35009,5.64107 l-30.93522,75.11689 A4.3261,4.3261 0 0 1 490.03119000000004,168.86654 zM448.4823,56.42150000000001 a2.59553,2.59553 0 0 0 -3.38464,1.41006 l-30.93522,75.11689 a2.59553,2.59553 0 0 0 1.41006,3.38464 l75.11688,30.93522 a2.59553,2.59553 0 0 0 3.38465,-1.41006 l30.93521,-75.11689 a2.59551,2.59551 0 0 0 -1.4100000000000001,-3.38464 z" fill="#f2f2f2" id="svg_7"/><path d="M464.67043,169.17072000000002 L389.55354,138.2355 a3.89342,3.89342 0 0 1 -2.11508,-5.077 l30.93522,-75.11689 a3.89343,3.89343 0 0 1 5.077,-2.11508 l75.11688,30.93522 a3.8934100000000003,3.8934100000000003 0 0 1 2.11508,5.077 l-30.93522,75.11689 A3.8934100000000003,3.8934100000000003 0 0 1 464.67043,169.17072000000002 z" fill="#b9e8ff" id="svg_8"/><path d="M609.35509,271.74966 L374.415,174.99482999999998 a3.8890000000000002,3.8890000000000002 0 1 1 2.9618900000000004,-7.192 L612.317,264.55762 a3.8890000000000002,3.8890000000000002 0 0 1 -2.96188,7.192 z" fill="#ccc" id="svg_9"/><path d="M542.41582,273.15629 L364.213,199.76742000000002 a3.8890000000000002,3.8890000000000002 0 1 1 2.96188,-7.192 l178.20284,73.38887 a3.8890000000000002,3.8890000000000002 0 1 1 -2.9618900000000004,7.192 z" fill="#ccc" id="svg_10"/><path d="M646.07315,180.32136000000003 L542.18809,137.53861 a3.8890000000000002,3.8890000000000002 0 1 1 2.9618900000000004,-7.192 l103.885,42.78275 a3.8890000000000002,3.8890000000000002 0 0 1 -2.96188,7.192 z" fill="#ccc" id="svg_11"/><path d="M609.94491,194.41683 L531.98605,162.31119999999999 a3.8890000000000002,3.8890000000000002 0 1 1 2.9618900000000004,-7.192 l77.95886,32.10562 a3.8890000000000002,3.8890000000000002 0 0 1 -2.9618900000000004,7.192 z" fill="#ccc" id="svg_12"/><path d="M588.951,321.29485 L354.011,224.54000000000002 a3.8890000000000002,3.8890000000000002 0 1 1 2.96188,-7.192 L591.91289,314.1028 a3.8890000000000002,3.8890000000000002 0 0 1 -2.96188,7.192 z" fill="#ccc" id="svg_13"/><path d="M522.01174,322.70147 L343.80891,249.31259999999997 a3.8890000000000002,3.8890000000000002 0 1 1 2.96188,-7.192 l178.20284,73.38887 a3.8890000000000002,3.8890000000000002 0 1 1 -2.9618900000000004,7.192 z" fill="#ccc" id="svg_14"/><path d="M568.54693,370.84000000000003 L333.60687,274.0852 a3.8890000000000002,3.8890000000000002 0 0 1 2.96188,-7.192 L571.50881,363.648 a3.8890000000000002,3.8890000000000002 0 0 1 -2.96188,7.192 z" fill="#ccc" id="svg_15"/><path d="M558.34489,395.61262 L323.40483,298.85779 a3.8890000000000002,3.8890000000000002 0 0 1 2.96188,-7.192 l234.94006,96.75484 a3.8890000000000002,3.8890000000000002 0 0 1 -2.96188,7.192 z" fill="#ccc" id="svg_16"/><path d="M443.73018,393.77248 a84.70308,84.70308 0 0 0 14.09436,-0.43000000000000005 c4.21238,-0.49243000000000003 8.60066,-1.17049 12.29309,-3.38536 a11.6831,11.6831 0 0 0 5.8212,-8.83535 a8.2218,8.2218 0 0 0 -4.975,-8.33661 a9.80892,9.80892 0 0 0 -9.95124,1.3943 a12.959,12.959 0 0 0 -4.44981,10.35166 c0.19400000000000003,8.00444 6.52716,15.90938 13.55947,19.23894 c7.92082,3.7502500000000003 18.73754,0.56318 20.76617,-8.67189 c0.42194000000000004,-1.92082 -2.19428,-2.58835 -3.2880000000000003,-1.35411 a8.72086,8.72086 0 0 0 12.17216,12.44835 l-2.9443099999999998,-1.21255 a20.9902,20.9902 0 0 0 14.43752,15.24852 a19.46991,19.46991 0 0 0 5.37174,0.81856 c2.2119,0.006210000000000001 4.48428,1.11646 6.59962,1.8056100000000002 l15.24432,4.9663900000000005 c2.24232,0.7305200000000001 3.665,-2.6733200000000004 1.40427,-3.40985 l-13.80618,-4.49787 c-2.30073,-0.74955 -4.59586,-1.51967 -6.90308,-2.24893 c-1.6493600000000002,-0.52133 -3.45545,-0.23905 -5.176,-0.5457900000000001 a17.28811,17.28811 0 0 1 -13.5191,-12.64511 a1.8658400000000002,1.8658400000000002 0 0 0 -2.9443,-1.21254 a5.04821,5.04821 0 0 1 -7.02188,-7.25421 l-3.2880000000000003,-1.35411 c-1.3086600000000002,5.95754 -8.576,8.19323 -13.81358,6.47055 c-5.85748,-1.9265599999999998 -10.892,-7.53271 -12.639,-13.4049 a10.8108,10.8108 0 0 1 0.7867000000000001,-8.60233 a6.443,6.443 0 0 1 6.7503400000000005,-3.3063700000000003 a4.6226400000000005,4.6226400000000005 0 0 1 3.95027,5.07015 a8.26891,8.26891 0 0 1 -4.60472,6.264 c-3.29662,1.7695 -7.24432,2.21012 -10.90575,2.61181 a78.79791,78.79791 0 0 1 -12.57356,0.3577 c-2.35393,-0.11867000000000003 -2.82641,3.54144 -0.44763000000000003,3.66136 z" fill="#b9e8ff" id="svg_17"/><polygon points="695.76 290 695.76 583 171.76 583 171.76 237 253.76 237 329.37 290 695.76 290" fill="#fff" id="svg_18"/><rect x="203.7598419189453" y="528" width="214" height="17" fill="#b9e8ff" id="svg_19"/><rect x="203.7598419189453" y="495" width="107" height="17" fill="#b9e8ff" id="svg_20"/><path d="M696.75984,584 h-526 V236 h83.31555 l75.61414,53 H696.75984 zm-524,-2 h522 V291 H329.05843 l-75.61414,-53 H172.75984 z" fill="#3f3d56" id="svg_21"/><polygon points="909.144 548.636 891.414 554.972 858.535 489.598 884.704 480.246 909.144 548.636" fill="#9f616a" id="svg_22"/><path d="M862.63848,584.638 l-0.25872,-0.72291 a23.659,23.659 0 0 1 14.30045,-30.20571 l34.91779,-12.47929 l8.21153,22.97656 z" fill="#2f2e41" id="svg_23"/><polygon points="793.848 566.172 775.019 566.172 766.062 493.546 793.851 493.547 793.848 566.172" fill="#9f616a" id="svg_24"/><path d="M798.64961,584.42424 l-60.71214,-0.0022500000000000007 v-0.7679100000000001 A23.63085,23.63085 0 0 1 761.5687,560.0236 h0.0015000000000000005 l37.08053,0.0015000000000000005 z" fill="#2f2e41" id="svg_25"/><path d="M836.75907,102.18644999999998 l-8.18861,-16.18053 s-30.50532,7.64282 -33.27853,25.32289 z" fill="#b9e8ff" id="svg_26"/><polygon points="870.547 287.198 848.278 411.467 907.407 516.036 872.083 529.858 812.186 428.494 804.507 400.849 799.899 545.216 768.042 544.249 753.435 409.445 776.862 284.127 870.547 287.198" fill="#2f2e41" id="svg_27"/><path d="M865.9385,231.055 l-0.77018,-72.87145 c0,-30.88384 -20.32611,-53.64707 -23.14362,-55.75276 c-1.32569,-4.231 -3.70431,-7.15557 -7.0678,-8.68606 c-6.77553,-3.07086 -15.06191,0.6141200000000001 -15.41273,0.7798900000000001 L794.685,103.84433999999999 l-0.11662000000000003,0.3411800000000001 c-0.26371,0.77988 -25.3466,83.08812 -31.64469,103.74554 c-0.8968000000000002,2.9636400000000003 -1.41327,4.6599 -1.41327,4.6599 s0.09758000000000003,4.77688 0.27275,12.20538 c0.556,25.54152 1.8716700000000002,82.43492 2.39814,84.82336 c0,0 45.91642,6.96052 64.09763,6.96052 c32.70714,0 53.48166,-6.25865 53.94958,-6.36587 l0.7506600000000001,-0.15600000000000003 z" fill="#3f3d56" id="svg_28"/><circle cx="818.7563018798828" cy="517.0469207763672" r="33.608158111572266" transform="rotate(-28.663009643554688 -108.3804168701173,312.74380493164057) " fill="#9f616a" id="svg_29"/><path d="M806.86135,215.63254999999998 l-45.07817,9.16379 c-0.17517,-7.4285 -0.27275,-12.20538 -0.27275,-12.20538 s0.51647,-1.69626 1.41327,-4.6599 z" opacity="0.2" id="svg_30"/><path d="M673.36935,206.02694000000002 a14.4225,14.4225 0 0 0 21.81522,-3.63 l50.24885,10.09416 l-9.99619,-24.68652 l-46.18464,-5.80088 a14.50066,14.50066 0 0 0 -15.88324,24.02326 z" fill="#9f616a" id="svg_31"/><polygon points="732.887 186.321 714.788 183.82 708.751 208.968 731.599 210.276 732.887 186.321" fill="#b9e8ff" id="svg_32"/><path d="M726.69724,181.47437000000002 l53.55238,-5.94132 l28.41215,-50.40785 a24.62075,24.62075 0 0 1 45.27595,18.28923 l-0.16338000000000003,0.6260800000000001 l-47.76016,69.68386 l-89.30252,4.40419 z" fill="#3f3d56" id="svg_33"/><path d="M831.76343,75.76842426868438 l-27.895,1.00127 c-1.70035,0.06100000000000002 -6.31513,-18.28939 -6.91921,-22.09617 a10.3896,10.3896 0 0 0 -10.838000000000001,-8.40483 c-2.08811,0.1972400000000001 -7.35359,-3.70388 -12.78705,-8.32323 c-10.31547,-8.769870000000001 -9.77883,-25.241 1.5526900000000001,-32.65157 q0.4645800000000001,-0.3038100000000002 0.91188,-0.55481 c7.14855,-4.00112 15.511,-5.34475 23.70251,-5.44721 c7.42579,-0.09288000000000003 15.06209,0.8417700000000002 21.60406,4.35653 c11.72836,6.30122 17.97016,20.07116 18.51843,33.37376 s-3.71631,26.31011 -8.55563,38.71336 " fill="#dadada" id="svg_34" class="selected" fill-opacity="1"/></g></svg>