<svg xmlns="http://www.w3.org/2000/svg" xmlns:xlink="http://www.w3.org/1999/xlink" data-name="Layer 1" width="784.3976440429688" height="733.6066284179688"><rect id="backgroundrect" width="100%" height="100%" x="0" y="0" fill="none" stroke="none"/><title>personal_finance</title><g class="currentLayer" style=""><title>Layer 1</title><path d="M624.7446520214844,521.2178189501954 s97.0406,5.017 74.43777,35.56514 s-81.99491,-17.91975 -81.99491,-17.91975 z" fill="#ffb8b8" id="svg_1"/><path d="M445.9155920214844,230.25141895019533 l19.75208,4.938 s11.52205,34.56615 19.75209,65.84028 S510.1098720214844,426.1262989501953 510.1098720214844,426.1262989501953 L637.7201220214844,515.5589289501953 L622.5000020214844,549.6065989501953 l-170,-67 L414.6414520214844,333.9498689501953 z" fill="#ffffff" id="svg_2" class="selected" fill-opacity="1"/><polygon points="464.5 291.607 457.138 445.772 472.5 491.607 427.5 458.607 464.5 291.607" opacity="0.2" id="svg_3"/><path d="M491.18082202148435,565.2138689501953 s21.3981,57.61025 24.69011,97.11442 s6.584,70.77831 6.584,70.77831 H422.04848202148435 l-19.75208,-29.62813 V733.1065989501953 H285.42989202148436 S252.50975202148436,626.1161389501954 265.67782202148436,612.9480789501953 s138.26461,-69.1323 138.26461,-69.1323 z" fill="#2f2e41" id="svg_4"/><circle cx="365.26123046875" cy="105.15486907958984" r="62.54827117919922" fill="#ffb8b8" id="svg_6"/><path d="M317.5270320214844,131.49098895019532 l-4.938,72.42431 l62.54827,83.94637 L406.4114220214843,208.85329895019532 s-27.98213,-18.10608 -11.522,-55.96424 z" fill="#ffb8b8" id="svg_7"/><path d="M500.2299820214844,579.2032989501953 c0,14.82 -41.15,37.86005 -41.15,37.86005 v8.23 l-16.46,8.23 l-36.21,-72.42 l-9.870000000000001,79 s-72.43,11.53 -95.47,0 c-23.05,-11.52 -34.57,-6.58 -67.49,-18.1 s13.17,-166.25 13.17,-166.25 l-32.92,-238.67 l71.92,-35.96 l3.79,-1.9 l9.89,-1.82 l15.16,-2.8 l50.67,34.25 l4.08,21.4 l2.51,13.17 l13.16,-14.82 l9.94,-32.69 l70.72,39.28 l-19.75,158.01 S500.2299820214844,564.3932989501953 500.2299820214844,579.2032989501953 z" fill="#ffffff" id="svg_8" class="selected" fill-opacity="1"/><path d="M258.2708220214844,630.2311489501953 s75.71633,60.90227 39.50417,72.42432 s-55.96424,-62.54827 -55.96424,-62.54827 z" fill="#ffb8b8" id="svg_9"/><path d="M230.28865202148438,220.3753689501953 l-16.46007,-3.292 s-24.69011,13.16806 -26.33612,39.50417 s-23.0441,210.68892 -23.0441,210.68892 l69.1323,185.9988 l55.96425,-21.39809 L235.22667202148438,457.40039895019527 L276.3768220214844,305.9677489501953 z" fill="#ffffff" id="svg_10" class="selected" fill-opacity="1"/><circle cx="372.5" cy="264.6065979003906" r="6" fill="#2f2e41" id="svg_11"/><circle cx="372.5" cy="303.6065979003906" r="6" fill="#2f2e41" id="svg_12"/><circle cx="406.5" cy="560.6066284179688" r="6" fill="#2f2e41" id="svg_13"/><path d="M312.4524220214844,41.07700895019531 l-11.56241,-4.62895 S325.0658920214844,9.831778950195314 358.7021820214844,12.146298950195316 L349.2418220214844,1.7311689501953111 s23.1248,-9.25775 44.14733,15.044 c11.05115,12.77485 23.83743,27.7911 31.80833,44.70667 h12.38253 l-5.168,11.37937 l18.088,11.37937 l-18.5656,-2.044 a63.589,63.589 0 0 1 0.50381,18.8748 a24.42141,24.42141 0 0 1 -8.94287,15.975999999999999 h0 S409.15582202148437,87.36605895019531 409.15582202148437,82.73711895019531 v11.57231 s-11.5624,-10.415 -11.5624,-17.35836 l-6.3067,8.10061 H349.2418220214844 l6.3067,-10.415 L331.37259202148437,78.10829895019532 l9.46041,-12.72959 l-37.431,52.56492 S281.9698220214844,58.43535895019531 312.4524220214844,41.07700895019531 z" fill="#919191" id="svg_14" class="" fill-opacity="1"/><circle cx="684.3976440429688" cy="383.54510498046875" r="100" fill="#3f3d56" id="svg_15"/><circle cx="684.3976440429688" cy="383.54510498046875" r="86" opacity="0.1" id="svg_16"/><path d="M680.2767320214843,434.2929889501953 V421.7759289501953 c-6.32734,-0.12344000000000001 -12.87306,-2.355 -16.69109,-5.45315 l2.6180000000000003,-8.30316 a26.68127,26.68127 0 0 0 15.70942,5.3285 c7.74578,0 12.98225,-5.081 12.98225,-12.14493 c0,-6.81644 -4.2548,-11.02974 -12.32763,-14.74807 c-11.12757,-4.957 -18.00034,-10.6582 -18.00034,-21.43985 c0,-10.28667 6.43653,-18.09426 16.47324,-19.95312 V332.5450889501953 h6.76357 v12.02149 a26.54268,26.54268 0 0 1 14.18232,4.33734 l-2.7277,8.17972 a24.10675,24.10675 0 0 0 -13.74554,-4.2139 c-8.39987,0 -11.56381,5.70063 -11.56381,10.6582 c0,6.4443 4.03641,9.66645 13.52769,14.12845 c11.23623,5.205 16.90947,11.64935 16.90947,22.67908 c0,9.7905 -6.00029,18.962 -17.237,21.06772 v12.889800000000001 z" fill="#b9e8ff" id="svg_17"/><polygon points="250.005 504.87 290 629.803 258 499.803 250.005 504.87" opacity="0.2" id="svg_18"/><path d="M46.09326202148438,260.8032989501953 H20.70654202148438 a4.178,4.178 0 0 1 -4.17334,-4.17334 V220.13679895019533 a4.178,4.178 0 0 1 4.17334,-4.17334 h25.38672 a4.178,4.178 0 0 1 4.17334,4.17334 v36.49316 A4.178,4.178 0 0 1 46.09326202148438,260.8032989501953 zm-25.38672,-42.83984 a2.176,2.176 0 0 0 -2.17334,2.17334 v36.49316 A2.176,2.176 0 0 0 20.70654202148438,258.8032989501953 h25.38672 a2.176,2.176 0 0 0 2.17334,-2.17334 V220.13679895019533 a2.176,2.176 0 0 0 -2.17334,-2.17334 z" fill="#3f3d56" id="svg_19"/><path d="M92.46289202148438,260.8032989501953 H69.53711202148435 a5.41016,5.41016 0 0 1 -5.40381,-5.40381 V181.7002989501953 a5.41016,5.41016 0 0 1 5.40381,-5.40381 h22.92578 a5.41016,5.41016 0 0 1 5.40381,5.40381 v73.69922 A5.41016,5.41016 0 0 1 92.46289202148438,260.8032989501953 zm-22.92578,-82.50684 a3.40756,3.40756 0 0 0 -3.40381,3.40381 v73.69922 A3.40756,3.40756 0 0 0 69.53711202148435,258.8032989501953 h22.92578 a3.40756,3.40756 0 0 0 3.40381,-3.40381 V181.7002989501953 a3.40756,3.40756 0 0 0 -3.40381,-3.40381 z" fill="#3f3d56" id="svg_20"/><path d="M139.1777420214844,260.8032989501953 H118.02246202148439 a6.29622,6.29622 0 0 1 -6.28906,-6.28906 V146.09235895019532 A6.29622,6.29622 0 0 1 118.02246202148439,139.8032989501953 h21.15528 a6.29622,6.29622 0 0 1 6.28906,6.28906 V254.5142389501953 A6.29622,6.29622 0 0 1 139.1777420214844,260.8032989501953 zM118.02246202148439,141.8032989501953 a4.29393,4.29393 0 0 0 -4.28906,4.28906 V254.5142389501953 A4.29393,4.29393 0 0 0 118.02246202148439,258.8032989501953 h21.15528 a4.29393,4.29393 0 0 0 4.28906,-4.28906 V146.09235895019532 A4.29393,4.29393 0 0 0 139.1777420214844,141.8032989501953 z" fill="#3f3d56" id="svg_21"/><rect x="23.8799991607666" y="222.91329956054688" width="19.040000915527344" height="30.940000534057617" fill="#b9e8ff" id="svg_22"/><rect x="71.4800033569336" y="183.64329528808594" width="19.040000915527344" height="70.20999908447266" fill="#b9e8ff" id="svg_23"/><rect x="119.08000183105469" y="147.14996337890625" width="19.040000915527344" height="106.70333099365234" fill="#b9e8ff" id="svg_24"/><path d="M723.0000020214844,145.8032989501953 h-133 a0.9997400000000001,0.9997400000000001 0 0 1 -1,-1 V9.803298950195312 a1,1 0 0 1 2,0 V143.8032989501953 h132 a1,1 0 0 1 0,2 z" fill="#3f3d56" id="svg_25"/><path d="M159.00000202148436,274.8032989501953 h-158 a0.9997400000000001,0.9997400000000001 0 0 1 -1,-1 V116.80329895019531 a1,1 0 0 1 2,0 V272.8032989501953 h157 a1,1 0 0 1 0,2 z" fill="#3f3d56" id="svg_26"/><path d="M635.8984420214844,133.2705889501953 H610.5117220214844 a4.17807,4.17807 0 0 1 -4.17383,-4.17334 V92.60407895019532 a4.17806,4.17806 0 0 1 4.17383,-4.17334 h25.38672 a4.17786,4.17786 0 0 1 4.17285,4.17334 V129.09729895019532 A4.17786,4.17786 0 0 1 635.8984420214844,133.2705889501953 zM610.5117220214844,90.43073895019532 a2.17641,2.17641 0 0 0 -2.17383,2.17334 V129.09729895019532 a2.17641,2.17641 0 0 0 2.17383,2.17334 h25.38672 a2.17557,2.17557 0 0 0 2.17285,-2.17334 V92.60407895019532 a2.17557,2.17557 0 0 0 -2.17285,-2.17334 z" fill="#3f3d56" id="svg_27"/><path d="M687.8877020214844,133.2705889501953 H664.5214920214844 a5.18969,5.18969 0 0 1 -5.1836,-5.18409 V61.98688895019532 A5.18927,5.18927 0 0 1 664.5214920214844,56.80329895019531 h23.36621 a5.18927,5.18927 0 0 1 5.18359,5.18359 V128.0864989501953 A5.18969,5.18969 0 0 1 687.8877020214844,133.2705889501953 zM664.5214920214844,58.80329895019531 a3.187,3.187 0 0 0 -3.1836,3.18359 V128.0864989501953 a3.18709,3.18709 0 0 0 3.1836,3.18409 h23.36621 a3.18708,3.18708 0 0 0 3.18359,-3.18409 V61.98688895019532 A3.187,3.187 0 0 0 687.8877020214844,58.80329895019531 z" fill="#3f3d56" id="svg_28"/><rect x="613.22802734375" y="95.72699737548828" width="19.040000915527344" height="30.940000534057617" fill="#b9e8ff" id="svg_29"/><rect x="666.6846923828125" y="65.10507202148438" width="19.040000915527344" height="59.86370086669922" fill="#b9e8ff" id="svg_30"/><circle cx="623" cy="68.80329895019531" r="9" fill="#b9e8ff" id="svg_31"/><circle cx="676" cy="34.80329895019531" r="9" fill="#b9e8ff" id="svg_32"/></g></svg>