<svg xmlns="http://www.w3.org/2000/svg" xmlns:xlink="http://www.w3.org/1999/xlink" data-name="Layer 1" width="1137" height="531.16816"><rect id="backgroundrect" width="100%" height="100%" x="0" y="0" fill="none" stroke="none"/><title>buy_house</title><g class="currentLayer" style=""><title>Layer 1</title><path d="M125.89819,528.5559059277343 l-1.95117,-0.43945000000000006 c21.75586,-96.751 76.43018000000001,-184.60938 153.95117,-247.3916 A444.114,444.114 0 0 1 990.053,526.9357959277344 l-1.94922,0.4433500000000001 C942.05005,325.1701659277344 764.82935,183.94457592773438 557.134,183.94457592773438 C352.1604,183.94457592773438 170.79956,328.8742659277344 125.89819,528.5559059277343 z" fill="#3f3d56" id="svg_1"/><polygon points="1051.5 482.5 1054.5 504.5 1033.5 506.5 1036.5 479.5 1051.5 482.5" fill="#a0616a" id="svg_2"/><path d="M952.5,180.4999959277344 s2,27 2,28 s-14,70 -14,70 s-20,38 0,37 s14,-36 14,-36 l21,-58 l-9,-41 z" fill="#a0616a" id="svg_3"/><polygon points="985.5 482.5 982.5 504.5 1003.5 506.5 1000.5 479.5 985.5 482.5" fill="#a0616a" id="svg_4"/><path d="M962.5,276.4999959277344 l-5,7 s-3,30 0,40 s9,56 9,59 s1,5 0,6 s-4,1 -2,3 s2,8 2,8 v5 l13,74 s-8,9 -2,9 s28,0 27,-10 l-2,-1 s-3,-66 -2,-69 s0,-9 0,-9 s-2,-3 0,-4 s2,-9 2,-9 l9,-61 s8,41 13,45 s4,14 4,14 l4,88 s-4,10 0,12 s21,9 22,-1 s6,-97 6,-101 s-1,-6 0,-9 s-1,-3 0,-3 s-2,-3 -2,-5 v-49 s1,-10 2,-12 s-1,-4 0,-7 s-2,-13 -2,-13 l-45,-12 z" fill="#2f2e41" id="svg_5"/><path d="M997.5,500.4999959277344 s5,-5 -2,-5 a32.54943,32.54943 0 0 0 -13,3 l-5,18 s-20.5,16.5 2.5,14.5 s19.5,-0.5 19.5,-0.5 s7,-2 8,-4 s-2,-31 -2,-31 S1002.5,503.4999959277344 997.5,500.4999959277344 z" fill="#2f2e41" id="svg_6"/><path d="M1040.5,500.4999959277344 s-5,-5 2,-5 a32.54943,32.54943 0 0 1 13,3 l5,18 s20.5,16.5 -2.5,14.5 s-22.5,-0.5 -22.5,-0.5 s-7,-2 -8,-4 s5,-31 5,-31 S1035.5,503.4999959277344 1040.5,500.4999959277344 z" fill="#2f2e41" id="svg_7"/><rect x="286.14105224609375" y="177.43179321289062" width="8.902620315551758" height="351.6534423828125" fill="#3f3d56" id="svg_8"/><path d="M377.20474,222.24597592773438 c0.5667200000000001,122.96444 -85.94527,223.04766 -85.94527,223.04766 s-87.43083,-99.28154 -87.99756,-222.246 s85.94527,-223.04766 85.94527,-223.04766 S376.638,99.28153592773435 377.20474,222.24597592773438 z" fill="#b9e8ff" id="svg_9"/><rect x="225.5" y="383.5" width="689" height="146" fill="#f2f2f2" id="svg_10"/><polygon points="203.5 399.5 278.5 242.5 877.5 242.5 933.5 399.5 203.5 399.5" fill="#3f3d56" id="svg_11"/><rect x="390.5" y="252.5" width="278" height="92" fill="#f2f2f2" id="svg_12"/><polygon points="408.5 177.5 364.5 269.5 694.5 269.5 668.5 177.5 408.5 177.5" fill="#3f3d56" id="svg_13"/><rect x="415" y="412.5" width="219.5" height="117" fill="#ccc" id="svg_14" class=""/><rect x="252.5" y="416.5" width="117" height="113" fill="#ccc" id="svg_15"/><rect x="672.5" y="423.5" width="60.5" height="106" fill="#3f3d56" id="svg_16"/><rect x="179.9049072265625" y="297.058837890625" width="5.874770164489746" height="232.05349731445312" fill="#3f3d56" id="svg_18"/><path d="M239.99714999999998,326.6313759277344 c0.37400000000000005,81.14332 -56.71464,147.18749 -56.71464,147.18749 s-57.695,-65.51515 -58.06894,-146.65847 s56.71464,-147.1875 56.71464,-147.1875 S239.62317000000002,245.48807592773437 239.99714999999998,326.6313759277344 z" fill="#b9e8ff" id="svg_19"/><path d="M239.99714999999998,326.6313759277344 c0.37400000000000005,81.14332 -56.71464,147.18749 -56.71464,147.18749 s-57.695,-65.51515 -58.06894,-146.65847 s56.71464,-147.1875 56.71464,-147.1875 S239.62317000000002,245.48807592773437 239.99714999999998,326.6313759277344 z" opacity="0.1" id="svg_20"/><rect x="103.5328598022461" y="297.058837890625" width="5.874770164489746" height="232.05349731445312" fill="#3f3d56" id="svg_21"/><path d="M163.62511,326.6313759277344 c0.37400000000000005,81.14332 -56.71464,147.18749 -56.71464,147.18749 s-57.695,-65.51515 -58.06894,-146.65847 s56.71465,-147.1875 56.71465,-147.1875 S163.25114,245.48807592773437 163.62511,326.6313759277344 z" fill="#b9e8ff" id="svg_22"/><rect x="798.5" y="429.5" width="29.5" height="27.5" fill="#3f3d56" id="svg_23"/><rect x="838" y="429.5" width="29.5" height="27.5" fill="#3f3d56" id="svg_24"/><rect x="798.5" y="467" width="29.5" height="28.5" fill="#3f3d56" id="svg_25"/><rect x="838" y="467" width="29.5" height="28.5" fill="#3f3d56" id="svg_26"/><rect x="416" y="277.6739196777344" width="23.086959838867188" height="21.521739959716797" fill="#3f3d56" id="svg_27"/><rect x="446.91302490234375" y="277.6739196777344" width="23.086959838867188" height="21.521739959716797" fill="#3f3d56" id="svg_28"/><rect x="416" y="307.021728515625" width="23.086959838867188" height="22.304349899291992" fill="#3f3d56" id="svg_29"/><rect x="446.91302490234375" y="307.021728515625" width="23.086959838867188" height="22.304349899291992" fill="#3f3d56" id="svg_30"/><rect x="589" y="277.6739196777344" width="23.086959838867188" height="21.521739959716797" fill="#3f3d56" id="svg_31"/><rect x="619.9130249023438" y="277.6739196777344" width="23.086959838867188" height="21.521739959716797" fill="#3f3d56" id="svg_32"/><rect x="589" y="307.021728515625" width="23.086959838867188" height="22.304349899291992" fill="#3f3d56" id="svg_33"/><rect x="619.9130249023438" y="307.021728515625" width="23.086959838867188" height="22.304349899291992" fill="#3f3d56" id="svg_34"/><rect x="503" y="277.6739196777344" width="23.086959838867188" height="21.521739959716797" fill="#3f3d56" id="svg_35"/><rect x="533.9130249023438" y="277.6739196777344" width="23.086959838867188" height="21.521739959716797" fill="#3f3d56" id="svg_36"/><rect x="503" y="307.021728515625" width="23.086959838867188" height="22.304349899291992" fill="#3f3d56" id="svg_37"/><rect x="533.9130249023438" y="307.021728515625" width="23.086959838867188" height="22.304349899291992" fill="#3f3d56" id="svg_38"/><rect x="686" y="434.2391357421875" width="14.536230087280273" height="13.55072021484375" fill="#f2f2f2" id="svg_39"/><rect x="705.4637451171875" y="434.2391357421875" width="14.536230087280273" height="13.55072021484375" fill="#f2f2f2" id="svg_40"/><rect x="686" y="452.7173767089844" width="14.536230087280273" height="14.043479919433594" fill="#f2f2f2" id="svg_41"/><rect x="705.4637451171875" y="452.7173767089844" width="14.536230087280273" height="14.043479919433594" fill="#f2f2f2" id="svg_42"/><circle cx="725" cy="484" r="4" fill="#f2f2f2" id="svg_43"/><rect x="415" y="425" width="220" height="2" fill="#f2f2f2" id="svg_44"/><rect x="415" y="434" width="220" height="2" fill="#f2f2f2" id="svg_45"/><rect x="415" y="443" width="220" height="2" fill="#f2f2f2" id="svg_46"/><rect x="415" y="452" width="220" height="2" fill="#f2f2f2" id="svg_47"/><rect x="415" y="461" width="220" height="2" fill="#f2f2f2" id="svg_48"/><rect x="415" y="470" width="220" height="2" fill="#f2f2f2" id="svg_49"/><rect x="415" y="479" width="220" height="2" fill="#f2f2f2" id="svg_50"/><rect x="415" y="488" width="220" height="2" fill="#f2f2f2" id="svg_51"/><rect x="415" y="497" width="220" height="2" fill="#f2f2f2" id="svg_52"/><rect x="415" y="506" width="220" height="2" fill="#f2f2f2" id="svg_53"/><rect x="415" y="515" width="220" height="2" fill="#f2f2f2" id="svg_54"/><rect x="252.5" y="425" width="117" height="2" fill="#f2f2f2" id="svg_55"/><rect x="252.5" y="434" width="117" height="2" fill="#f2f2f2" id="svg_56"/><rect x="252.5" y="443" width="117" height="2" fill="#f2f2f2" id="svg_57"/><rect x="252.5" y="452" width="117" height="2" fill="#f2f2f2" id="svg_58"/><rect x="252.5" y="461" width="117" height="2" fill="#f2f2f2" id="svg_59"/><rect x="252.5" y="470" width="117" height="2" fill="#f2f2f2" id="svg_60"/><rect x="252.5" y="479" width="117" height="2" fill="#f2f2f2" id="svg_61"/><rect x="252.5" y="488" width="117" height="2" fill="#f2f2f2" id="svg_62"/><rect x="252.5" y="497" width="117" height="2" fill="#f2f2f2" id="svg_63"/><rect x="252.5" y="506" width="117" height="2" fill="#f2f2f2" id="svg_64"/><rect x="252.5" y="515" width="117" height="2" fill="#f2f2f2" id="svg_65"/><circle cx="877" cy="242" r="81" fill="#b9e8ff" id="svg_66"/><polygon points="928 234 885 234 885 191 869 191 869 234 826 234 826 250 869 250 869 293 885 293 885 250 928 250 928 234" fill="#fff" id="svg_67"/><circle cx="975.5" cy="75.5" r="26" fill="#a0616a" id="svg_68"/><path d="M966.5,94.4999959277344 s4,20 4,23 s17,12 17,12 l19,-24 s-12,-17 -12,-21 z" fill="#a0616a" id="svg_69"/><path d="M981.5,120.4999959277344 s-8.71576,-2.31982 -11.35788,-6.15991 c0,0 -27.64212,27.15991 -27.64212,32.15991 l22,39 s0,14 2,15 s0,0 0,4 s-6,30 -4,34 s4,1 2,7 s-7,38 -7,38 s18,-6 44,4 s57,-4 57,-4 s-8,-18 -6,-24 s-5,-17 -5,-17 l-5,-92 s7,-41 2,-43 l-10,-4 L1002.4760000000001,99.5640759277344 S994.5,119.4999959277344 981.5,120.4999959277344 z" fill="#d0cde1" id="svg_70"/><path d="M952.5,139.4999959277344 l-10,7 s-5,15 0,22 s7,17 7,17 l20,-2 z" fill="#d0cde1" id="svg_71"/><path d="M1026.5,148.4999959277344 s-5.79086,14.89077 -4.58123,29.62368 A15.614,15.614 0 0 0 1024.5,185.4999959277344 h0 L953.55556,219.18107592773435 S921.5,222.4999959277344 929.5,236.4999959277344 s37,-7 37,-7 s76,-11 82,-22 s10,-57 10,-57 z" fill="#a0616a" id="svg_72"/><path d="M955.64914,47.30817019641876 l-4.51,-1.8055599999999998 s9.43,-10.38191 22.55014,-9.4791 l-3.6901100000000002,-4.06253 s9.02,-3.61106 17.22007,5.868 c4.31058,4.983 9.298,10.840160000000001 12.40712,17.43823 h4.82992 l-2.01583,4.43863 l7.05541,4.43863 l-7.24168,-0.7973 a24.561,24.561 0 0 1 -0.6850000000000004,11.49557 l0.19411000000000006,3.50829 s-8.394120000000001,-12.987449999999999 -8.394120000000001,-14.793 v4.51388 s-4.51,-4.06247 -4.51,-6.77078 l-2.46,3.15972 l-1.23,-4.96529 l-15.17,4.96529 l2.46,-4.06247 l-9.43,1.35416 l3.6901100000000002,-4.96529 s-10.66,5.868 -11.07009,10.83332 s-5.7399000000000004,11.28466 -5.7399000000000004,11.28466 l-2.46,-4.51388 S943.75913,54.07895019641876 955.64914,47.30817019641876 z" fill="#b6b6b6" id="svg_73" class="" fill-opacity="1"/><path d="M1029.5,107.4999959277344 h15 s11,2 14,22 s6,25 3,25 s-39,-1 -39,-2 S1029.5,107.4999959277344 1029.5,107.4999959277344 z" fill="#d0cde1" id="svg_74"/></g></svg>