<svg xmlns="http://www.w3.org/2000/svg" xmlns:xlink="http://www.w3.org/1999/xlink" data-name="Layer 1" width="885.55805" height="557.51874"><rect id="backgroundrect" width="100%" height="100%" x="0" y="0" fill="none" stroke="none"/><title>heavy_box</title><g class="currentLayer" style=""><title>Layer 1</title><path d="M681.591257475586,421.1110288964844 C718.017037475586,330.04363889648437 706.998087475586,228.3568688964844 660.018667475586,150.25936889648438 L168.24540747558592,218.35102889648437 l471.2759,-98.21687 c-198.62291,-247.68466 -585.21339,-83.39849 -547.948,229.321 z" fill="#e6e6e6" id="svg_1"/><rect x="76.75321960449219" y="320.4445495605469" width="626.5259399414062" height="195.0954132080078" fill="#b9f1ed" id="svg_2"/><path d="M251.48503747558595,296.6524188964844 c5.6212800000000005,4.36531 7.67682,5.77455 8.8739,5.59569 c57.99957,16.88979 7.15438,36.68334 -21.02622,3.08454 z" fill="#ffb8b8" id="svg_3"/><polygon points="60.099 475.093 60.099 514.747 88.649 513.161 80.719 471.921 60.099 475.093" fill="#ffb8b8" id="svg_4"/><polygon points="218.713 475.093 218.713 514.747 190.162 513.161 198.093 471.921 218.713 475.093" fill="#ffb8b8" id="svg_5"/><path d="M131.47511747558593,270.48107889648435 l42.82582,-1.58614 c98.7937,103.57113 61.43194,79.94854 58.68724,222.05982 L180.64550747558593,475.0933688964843 l11.103,-98.34078 c0.005640000000000001,-0.003760000000000001 2.9288,-1.95254 0.49900000000000005,-1.9974599999999998 c-15.19648,5.22229 -26.2843,-59.43676 -59.18629,-51.93136 c-37.44073,-1.791 -43.536,53.75037 -58.68724,53.92882 L85.47703747558595,475.0933688964843 L33.13433747558594,490.95475889648435 c-5.8605,-156.16587 -34.583,-120.8878 58.68724,-222.05982 z" fill="#2f2e41" id="svg_6"/><path d="M68.02944747558593,502.0577488964843 s-6.34456,-12.68913 -14.27527,-6.34456 s-26.96441,25.37826 -26.96441,25.37826 s-45.99811,20.61985 -17.44756,33.309 s52.34268,-17.44756 52.34268,-17.44756 c27.194,-5.67065 42.87962,-9.3011 28.45819,-38.964 C81.95546747558595,501.5319088964844 70.36875747558594,505.6337588964843 68.02944747558593,502.0577488964843 z" fill="#2f2e41" id="svg_7"/><path d="M210.78219747558592,502.0577488964843 s6.34456,-12.68913 14.27527,-6.34456 s26.96441,25.37826 26.96441,25.37826 s45.99811,20.61985 17.44756,33.309 s-52.34268,-17.44756 -52.34268,-17.44756 c-27.194,-5.67065 -42.87962,-9.3011 -28.45819,-38.964 C196.85617747558592,501.5319088964844 208.44288747558596,505.6337588964843 210.78219747558592,502.0577488964843 z" fill="#2f2e41" id="svg_8"/><path d="M174.30093747558595,91.24707889648437 c-2.35907,39.4855 -56.24811,36.00919 -57.10087,-0.0003200000000000001 C119.55890747558595,51.76156889648436 173.44794747558592,55.237878896484375 174.30093747558595,91.24707889648437 z" fill="#ffb8b8" id="svg_9"/><path d="M133.06125747558593,111.86691889648438 c13.87587,41.93775 -18.88432,19.10541 26.96441,52.34267 l17.44755,-34.89511 s-12.68913,-4.75843 -11.103,-22.206 z" fill="#ffb8b8" id="svg_10"/><path d="M218.71290747558595,135.6590388964844 L171.43056747558592,124.86676889648436 c1.32987,28.5097 -29.09516,22.7717 -34.404,8.43062 l-45.205,26.15378 c18.97388,70.667 14.16522,73.58277 -11.103,118.96062 c-9.64336,8.806000000000001 4.77846,13.85306 17.33355,9.03441 c9.576,-5.91024 14.43914,-11.16237 24.7,-9.82589 c48.48518,10.0956 88.84834,12.47853 95.23609,8.53366 C220.27396747558595,282.88263889648437 217.9220374755859,136.2269188964844 218.71290747558595,135.6590388964844 z" fill="#575a89" id="svg_11"/><path d="M206.02376747558594,138.83136889648438 c1.58614,0 9.7566,-3.84164 9.7566,-3.84164 c23.771,-0.40071 39.72292,159.49664 40.99993,164.04194 l-15.86141,11.103 l-25.37827,-65.03181 z" fill="#575a89" id="svg_12"/><path d="M94.99385747558594,324.40988889648435 c0.811,5.98616 2.1911,73.21058 26.27252,41.80855 c3.15944,-22.91 -7.58221,-29.74918 -10.4111,-44.98083 z" fill="#ffb8b8" id="svg_13"/><path d="M101.33842747558595,159.45116889648438 l-4.85992,-2.69431 c-13.02929,-0.42812000000000006 -8.923,34.06114 -14.43543,59.31894 c-4.50341,29.42466 -3.22115,61.86983 2.06236,105.24733 c0.46205,15.91777 28.9725,5.88989 33.0944,4.67291 c0,0 -9.51685,-65.03181 -4.75842,-76.1348 S101.33842747558595,159.45116889648438 101.33842747558595,159.45116889648438 z" fill="#575a89" id="svg_14"/><path d="M173.05303747558594,63.56972889648438 a34.02906,34.02906 0 0 0 -19.357,-14.798 l-5.91821,4.7345500000000005 l2.3009,-5.52232 a31.326,31.326 0 0 0 -5.84937,-0.3380700000000001 l-5.32488,6.84631 l2.20389,-6.611800000000001 c-22.84908,2.4534000000000002 -36.36771,28.683230000000002 -24.50556,47.04084 c1.8298400000000001,-5.62323 4.05069,-10.89971 5.88053,-16.523 a16.64409,16.64409 0 0 0 4.33558,0.021120000000000003 l2.22628,-5.19453 l0.6218600000000001,4.97483 c6.90017,-0.6012200000000001 17.13483,-1.921 23.676470000000002,-3.13031 l-0.6360600000000001,-3.81638 l3.80566,3.17141 c2.00423,-0.46143 3.19416,-0.8797700000000002 3.09583,-1.1995500000000001 c4.86513,7.84319 9.68573,12.8528 14.55074,20.69594 C176.00652747558593,82.85771889648439 179.26675747558596,73.66176889648438 173.05303747558594,63.56972889648438 z" fill="#ffffff" id="svg_15" class="selected" fill-opacity="1"/><rect x="527.4121704101562" y="343.97894287109375" width="138.36732482910156" height="65.63578796386719" fill="#fff" id="svg_16"/><rect x="553.5777587890625" y="357.72698974609375" width="86.03610229492188" height="7.870100021362305" fill="#e6e6e6" id="svg_17"/><rect x="553.5777587890625" y="372.8617858886719" width="86.03610229492188" height="7.870100021362305" fill="#e6e6e6" id="svg_18"/><rect x="553.5777587890625" y="387.9966125488281" width="86.03610229492188" height="7.870100021362305" fill="#e6e6e6" id="svg_19"/><polygon points="406.916 359.57 402.415 351.775 397.915 343.979 393.414 351.775 388.913 359.57 393.749 359.57 393.749 382.144 402.08 382.144 402.08 359.57 406.916 359.57" fill="#fff" id="svg_20"/><circle cx="711.88818359375" cy="483.1330871582031" r="37.06013107299805" fill="#3f3d56" id="svg_21"/><circle cx="718.6264038085938" cy="483.1330871582031" r="16.424379348754883" fill="#e6e6e6" id="svg_22"/><polygon points="688.515 509.033 769.374 542.724 766.847 550.726 720.311 545.461 641.558 510.507 685.356 515.561 688.515 509.033" fill="#3f3d56" id="svg_23"/><path d="M759.989627475586,541.2061088964844 l100.56476,-329.88689 l24.49016,-43.49091 l0.08600000000000002,-0.4197 c0.07900000000000001,-0.38371000000000005 1.8770000000000002,-9.47416 -2.5457400000000003,-16.05732 a14.41879,14.41879 0 0 0 -9.7384,-6.13447 c-13.51631,-2.53423 -43.75393,-3.78284 -45.0342,-3.83486 l-0.24142000000000002,-0.009870000000000004 l-0.23935,0.03269000000000001 c-0.8262400000000001,0.11269000000000003 -20.15088,2.93748 -24.51936,19.8122 l-21.0244,38.2637 l-0.08267000000000002,0.27226 L686.5277974755859,512.6583688964844 l5.2379,1.59325 l95.0945,-312.63319 l21.09473,-38.39264 l0.08555000000000001,-0.35286000000000006 c3.089,-12.6985 17.85682,-15.66929 19.821,-16.00921 c3.089,0.13181 31.50885,1.39646 43.9756,3.7341100000000003 a9.02851,9.02851 0 0 1 6.19122,3.7888 c2.72588,4.03618 2.04358,9.97879 1.8034,11.541 l-24.34,43.22463 l-0.08719000000000003,0.28521 L754.752547475586,539.6095688964843 z" fill="#3f3d56" id="svg_24"/><rect x="1198.46875" y="1494.2550964355469" width="5.4747700691223145" height="73.80538177490234" transform="rotate(-79.76213836669922 233.4631347656252,1119.5472412109377) " fill="#3f3d56" id="svg_25"/><rect x="1109.0449523925781" y="1549.5331420898438" width="5.474740028381348" height="73.5986328125" transform="rotate(-78.46469116210938 157.92349243164062,1129.128173828125) " fill="#3f3d56" id="svg_26"/><rect x="922.6997792720795" y="1616.4071655273438" width="5.474629878997803" height="73.2295913696289" transform="rotate(-74.03214263916016 -3.208790063857913,1113.021728515625) " fill="#3f3d56" id="svg_27"/><polygon points="784.589 511.372 786.585 506.273 718.249 479.515 714.893 443.181 778.675 467.004 799.338 496.902 803.843 493.79 782.201 462.476 708.64 435 713.108 483.382 784.589 511.372" fill="#3f3d56" id="svg_28"/><circle cx="808.3287353515625" cy="518.5086669921875" r="37.06013107299805" fill="#3f3d56" id="svg_29"/><circle cx="818.0149536132812" cy="520.1932373046875" r="16.424379348754883" fill="#e6e6e6" id="svg_30"/></g></svg>