<?xml version="1.0" encoding="UTF-8" standalone="no"?>
<!-- Generator: Adobe Illustrator 24.0.2, SVG Export Plug-In . SVG Version: 6.00 Build 0)  -->

<svg
   version="1.1"
   id="Layer_1"
   x="0px"
   y="0px"
   viewBox="0 0 1046.3579 1139.8479"
   xml:space="preserve"
   sodipodi:docname="personal-wellness.svg"
   width="1046.3579"
   height="1139.8479"
   inkscape:version="1.1.2 (b8e25be833, 2022-02-05)"
   xmlns:inkscape="http://www.inkscape.org/namespaces/inkscape"
   xmlns:sodipodi="http://sodipodi.sourceforge.net/DTD/sodipodi-0.dtd"
   xmlns="http://www.w3.org/2000/svg"
   xmlns:svg="http://www.w3.org/2000/svg"
   xmlns:rdf="http://www.w3.org/1999/02/22-rdf-syntax-ns#"
   xmlns:cc="http://creativecommons.org/ns#"
   xmlns:dc="http://purl.org/dc/elements/1.1/"><defs
   id="defs597" /><sodipodi:namedview
   id="namedview595"
   pagecolor="#505050"
   bordercolor="#ffffff"
   borderopacity="1"
   inkscape:pageshadow="0"
   inkscape:pageopacity="0"
   inkscape:pagecheckerboard="1"
   showgrid="false"
   fit-margin-top="0"
   fit-margin-left="0"
   fit-margin-right="0"
   fit-margin-bottom="0"
   inkscape:zoom="0.51169951"
   inkscape:cx="28.336943"
   inkscape:cy="725.0349"
   inkscape:window-width="1920"
   inkscape:window-height="1017"
   inkscape:window-x="-8"
   inkscape:window-y="-8"
   inkscape:window-maximized="1"
   inkscape:current-layer="Layer_1" />
<style
   type="text/css"
   id="style526">
	.st0{fill:#3F3D56;}
	.st1{opacity:0.1;enable-background:new    ;}
	.st2{fill:#A5E5C5;}
	.st3{fill:#CFCCE0;}
	.st4{fill:#F2F2F2;}
	.st5{fill:#2F2E41;}
	.st6{fill:#FFB9B9;}
</style>
<title
   id="title528">yoga</title>
<path
   class="st0"
   d="m 1046.2175,1026.4246 c 0,34.5323 -234.14609,113.4233 -523.17894,113.4233 C 234.00571,1139.8479 0,1060.9569 0,1026.4246 c 0,-34.53236 234.14609,-11.7916 523.17894,-11.7916 289.03285,0 523.03856,-22.88114 523.03856,11.7916 z"
   id="path530"
   style="stroke-width:1.40375" />
<path
   class="st1"
   d="m 1046.2175,1026.4246 c 0,34.5323 -234.14609,113.4233 -523.17894,113.4233 C 234.00571,1139.8479 0,1060.9569 0,1026.4246 c 0,-34.53236 234.14609,-11.7916 523.17894,-11.7916 289.03285,0 523.03856,-22.88114 523.03856,11.7916 z"
   id="path532"
   style="stroke-width:1.40375" />
<circle
   class="st2"
   cx="148.93825"
   cy="543.95447"
   id="circle534"
   r="22.038931"
   style="stroke-width:1.40375" />
<circle
   class="st2"
   cx="245.51648"
   cy="725.0387"
   id="circle536"
   r="22.038931"
   style="stroke-width:1.40375" />
<circle
   class="st2"
   cx="170.97719"
   cy="679.41669"
   id="circle538"
   r="22.038931"
   style="stroke-width:1.40375" />
<path
   class="st3"
   d="m 177.99595,991.75186 c -0.42113,-0.70188 -9.54553,-15.86241 -12.77416,-47.72762 -2.94788,-29.19807 -0.98263,-78.32945 24.42531,-146.83262 48.28912,-129.8472 -11.08965,-234.56721 -11.79153,-235.54984 l 2.94788,-1.6845 c 0.14038,0.28075 15.44129,26.95207 24.56569,69.4858 11.9319,56.43089 7.58027,114.96741 -12.49341,169.01192 -48.14874,129.56645 -12.35303,190.91048 -11.9319,191.47198 z"
   id="path540"
   style="stroke-width:1.40375" />
<path
   class="st3"
   d="m 159.18565,555.74602 c -13.05491,0 -23.72344,-10.66853 -23.72344,-23.72344 0,-13.0549 10.66853,-23.72343 23.72344,-23.72343 13.05491,0 23.72343,10.66853 23.72343,23.72343 v 0 c -0.14037,13.05491 -10.66852,23.72344 -23.72343,23.72344 z m 0,-43.93749 c -11.23003,0 -20.35443,9.1244 -20.35443,20.35443 0,11.23003 9.1244,20.35442 20.35443,20.35442 11.23003,0 20.35442,-9.12439 20.35442,-20.35442 -0.14037,-11.3704 -9.12439,-20.35443 -20.35442,-20.35443 z"
   id="path542"
   style="stroke-width:1.40375" />
<circle
   class="st3"
   cx="228.53108"
   cy="613.29993"
   id="circle544"
   r="22.038931"
   style="stroke-width:1.40375" />
<path
   class="st3"
   d="m 181.0842,691.20823 c -13.0549,0 -23.72343,-10.66852 -23.72343,-23.72343 0,-13.05491 10.66853,-23.72344 23.72343,-23.72344 13.05491,0 23.72344,10.66853 23.72344,23.72344 0,13.05491 -10.52815,23.72343 -23.72344,23.72343 z m 0,-44.07786 c -11.23002,0 -20.35442,9.1244 -20.35442,20.35443 0,11.23003 9.1244,20.35442 20.35442,20.35442 11.23003,0 20.35443,-9.12439 20.35443,-20.35442 0,-11.23003 -9.1244,-20.35443 -20.35443,-20.35443 z"
   id="path546"
   style="stroke-width:1.40375" />
<path
   class="st3"
   d="m 238.77847,736.9706 c -13.0549,0 -23.72343,-10.66853 -23.72343,-23.72344 0,-13.05491 10.66853,-23.72343 23.72343,-23.72343 13.05491,0 23.72344,10.66852 23.72344,23.72343 0,0 0,0 0,0 -0.14038,13.05491 -10.66853,23.72344 -23.72344,23.72344 z m 0,-44.07786 c -11.23002,0 -20.35442,9.12439 -20.35442,20.35442 0,11.23003 9.1244,20.35443 20.35442,20.35443 11.23003,0 20.35443,-9.1244 20.35443,-20.35443 -0.14038,-11.23003 -9.26477,-20.35442 -20.35443,-20.35442 z"
   id="path548"
   style="stroke-width:1.40375" />
<circle
   class="st3"
   cx="164.23917"
   cy="784.2771"
   id="circle550"
   r="22.038931"
   style="stroke-width:1.40375" />
<path
   class="st3"
   d="m 191.3316,992.59411 c 0,0 -22.03893,-54.18488 44.07786,-94.75336 z"
   id="path552"
   style="stroke-width:1.40375" />
<path
   class="st3"
   d="m 164.23916,991.61148 c 0,0 -9.96665,-57.55389 -87.594218,-57.13276 z"
   id="path554"
   style="stroke-width:1.40375" />
<path
   class="st2"
   d="M 958.76365,1012.8082 H 584.24221 c 0,0 -7.58026,-111.31769 37.33985,-112.58107 44.92011,-1.26338 39.8666,49.41212 96.15711,-20.21405 56.29052,-69.62617 124.65332,-65.83604 133.49696,-24.70606 8.84365,41.12998 -17.12579,73.97781 30.32108,63.87078 47.44687,-10.10702 115.80966,16.56429 77.20644,93.6304 z"
   id="path556"
   style="stroke-width:1.40375" />
<path
   class="st4"
   d="m 765.18604,1012.9485 h -1.26338 c 2.94789,-73.2759 18.2488,-120.44201 30.60183,-147.11333 13.47603,-28.91732 26.39057,-40.56848 26.53094,-40.70885 l 0.84225,0.98263 c -0.14037,0.14037 -12.91453,11.65115 -26.25019,40.4281 -12.21265,26.39056 -27.51357,73.27593 -30.46145,146.41145 z"
   id="path558"
   style="stroke-width:1.40375" />
<path
   class="st4"
   d="m 900.78863,1013.0889 -1.26338,-0.4211 c 14.59904,-50.25439 49.13138,-81.97922 49.41213,-82.25997 l 0.84225,0.98263 c -0.28075,0.28075 -34.53234,31.8652 -48.991,81.69844 z"
   id="path560"
   style="stroke-width:1.40375" />
<path
   class="st4"
   d="m 643.19986,1012.9485 -1.26338,-0.1403 c 4.91314,-35.79575 -4.07088,-63.59007 -12.35303,-80.57549 -9.1244,-18.38917 -19.51217,-28.4962 -19.51217,-28.4962 l 0.84225,-0.98262 c 0.14038,0.14037 10.66853,10.2474 19.79293,28.91732 8.42252,17.12579 17.54691,45.20086 12.4934,81.27729 z"
   id="path562"
   style="stroke-width:1.40375" />
<path
   class="st3"
   d="M 1009.5795,1014.633 H 543.81411 l -0.14037,-1.5441 c -0.28075,-3.9305 -6.17652,-96.57823 23.86381,-129.56644 6.73801,-7.43989 14.73941,-11.23002 24.00418,-11.51077 19.51218,-0.56151 31.86521,6.73801 41.83186,12.63378 18.66992,11.08965 31.02295,18.38917 75.94306,-37.0591 48.56987,-60.08065 101.07026,-72.99518 131.25096,-65.83604 19.51217,4.63239 32.84783,17.82767 36.77834,36.07647 3.79013,17.26617 2.52675,33.54971 1.54413,46.60462 -0.98263,13.89716 -1.82488,24.98681 3.93051,30.04032 4.77276,4.21126 14.31828,4.49201 30.04032,1.123 32.00558,-6.87839 76.64494,-0.98262 98.96459,27.9347 12.0723,15.58166 21.4775,43.79711 -1.6845,90.26136 z m -462.67713,-3.5093 h 460.57153 c 17.2662,-35.09388 17.8277,-64.71308 1.5441,-85.76938 -20.49477,-26.53094 -63.59001,-33.54971 -95.59559,-26.67132 -17.12579,3.64976 -27.23281,3.08826 -32.9882,-1.96525 -7.01877,-6.17652 -6.17652,-17.82767 -5.05352,-32.84784 0.98263,-12.77415 2.10563,-28.77694 -1.54413,-45.62198 -3.64975,-16.98542 -16.14316,-29.0577 -34.25158,-33.40934 -29.19807,-7.01877 -80.15433,5.75539 -127.88195,64.71304 -46.74499,57.69427 -60.78252,49.41212 -80.2947,37.90134 -9.96665,-5.89576 -21.47743,-12.63378 -40.00697,-12.21265 -8.28215,0.28075 -15.58167,3.79013 -21.61781,10.38777 -26.81169,29.75958 -23.44268,113.00216 -22.88118,125.49561 z"
   id="path564"
   style="stroke-width:1.40375" />
<ellipse
   class="st0"
   cx="523.17896"
   cy="1026.4246"
   rx="523.17896"
   ry="62.607407"
   id="ellipse566"
   style="stroke-width:1.40375" />
<path
   class="st5"
   d="m 534.68971,206.91327 c 0,0 -26.10981,-9.40515 -42.95485,28.07507 C 474.88982,272.46856 448.78,313.45816 448.78,313.45816 l 14.87979,3.79013 c 0,0 3.79013,-26.10981 13.0549,-29.89994 l -3.79013,33.69008 c 0,0 112.01953,39.16472 162.55466,-3.79014 l -1.82488,-13.0549 c 0,0 7.43989,1.82488 7.43989,13.0549 l 5.61502,-5.61501 c 0,0 -5.61502,-11.23003 -22.46006,-26.10981 -11.08965,-9.82628 -14.87979,-28.4962 -16.14317,-40.14736 -0.98262,-9.68589 -4.91313,-18.95067 -11.23002,-26.39056 -11.08966,-13.05491 -31.44408,-26.81169 -62.18629,-12.07228 z"
   id="path568"
   style="stroke-width:1.40375" />
<path
   class="st6"
   d="m 507.03577,353.46514 -27.09244,-33.83046 -20.35443,-69.34543 77.90832,-82.96183 c 0,0 16.98542,-64.29191 1.68451,-60.9229 -15.30092,3.36901 -18.66993,50.81587 -18.66993,50.81587 l -98.26274,76.22382 c 0,0 10.10702,106.68527 38.88397,143.88474 l 22.03893,69.34542 z"
   id="path570"
   style="stroke-width:1.40375" />
<path
   class="st6"
   d="m 581.57508,353.46514 27.09245,-33.83046 20.35442,-69.34543 -77.90832,-82.96183 c 0,0 -16.98542,-64.29191 -1.6845,-60.9229 15.30091,3.36901 18.66992,50.81587 18.66992,50.81587 l 98.26274,76.22382 c 0,0 -10.10702,106.68527 -38.88397,143.88474 l -22.03893,69.34542 z"
   id="path572"
   style="stroke-width:1.40375" />
<circle
   class="st6"
   cx="544.23523"
   cy="280.61032"
   id="circle574"
   r="44.077862"
   style="stroke-width:1.40375" />
<path
   class="st6"
   d="m 524.02119,304.33376 c 0,0 1.6845,35.51497 -8.42252,47.44687 -10.10703,11.93191 -20.35443,72.85481 28.77694,74.53931 49.13138,1.68451 44.07786,-50.81587 44.07786,-50.81587 l -10.10702,-28.77695 c 0,0 -15.30091,-22.03893 -10.10703,-42.39336 z"
   id="path576"
   style="stroke-width:1.40375" />
<path
   class="st6"
   d="m 478.25882,698.7885 36.35722,10.94928 c 0,0 29.6192,-17.82767 29.6192,-0.84225 0,16.98541 -10.10703,38.88397 -6.73802,54.18488 3.36901,15.30092 10.10703,52.50038 0,52.50038 -10.10702,0 -30.46145,-65.97641 -30.46145,-65.97641 l -33.83046,-18.66992 z"
   id="path578"
   style="stroke-width:1.40375" />
<path
   class="st6"
   d="m 524.02119,935.88247 -13.47604,52.50038 c 0,0 -11.79153,15.30095 0,22.03895 5.61502,3.2286 9.6859,9.6859 12.35304,15.722 4.91313,11.0897 16.28354,17.9681 28.49619,17.2662 5.75539,-0.4211 10.66853,-2.8075 11.79153,-8.7033 0.70188,-3.7901 -0.28075,-7.5803 -2.66713,-10.6685 -12.49341,-16.8451 -15.30091,-27.9347 -15.30091,-27.9347 l 5.05351,-59.2384 z"
   id="path580"
   style="stroke-width:1.40375" />
<path
   class="st5"
   d="m 491.17336,288.47135 c 0,0 14.87978,-20.4948 28.07507,-24.28494 13.19528,-3.79013 14.87978,-22.46005 14.87978,-22.46005 0,0 33.69009,37.33984 54.18489,39.16472 20.4948,1.82488 1.82488,-44.77974 1.82488,-44.77974 l -37.33984,-9.40515 -35.51497,3.79014 -28.07507,18.66992 z"
   id="path582"
   style="stroke-width:1.40375" />
<path
   class="st5"
   d="m 463.09829,570.20468 -6.73802,13.47603 c 0,0 -164.23916,52.50038 -150.62275,101.63176 13.61641,49.13137 89.69985,35.51496 89.69985,35.51496 l 84.64633,15.30091 8.42252,-37.19946 -59.37877,-15.30092 101.63176,-37.19947 3.369,172.66169 -13.47603,123.53031 33.83046,3.36901 c 0,0 37.19947,-113.42329 32.14596,-160.87016 0,0 62.6074,-193.01611 27.09244,-221.79305 -35.51497,-28.77695 -150.62275,6.87839 -150.62275,6.87839 z"
   id="path584"
   style="stroke-width:1.40375" />
<path
   class="st2"
   d="m 546.34087,375.50407 -26.39057,-31.86521 -17.82767,8.14177 -18.66992,59.2384 c 0,0 -15.30091,28.77695 3.36901,59.2384 0,0 3.36901,20.35442 -1.6845,25.40794 -5.05352,5.05351 -6.73802,37.19947 -6.73802,37.19947 l -22.17931,42.39335 c 0,0 125.21482,22.03893 162.55466,-8.42252 0,0 -19.51217,-72.01256 -7.72064,-94.05149 11.79153,-22.03893 13.47603,-55.72901 0,-71.02992 -13.47604,-15.30092 -27.79432,-55.02714 -27.79432,-55.02714 l -8.14177,-5.19389 z"
   id="path586"
   style="stroke-width:1.40375" />
<polygon
   class="st3"
   points="446.9,87.4 435.3,87.4 435.3,88.5 446.9,88.5 446.9,100 447.9,100 447.9,88.5 459.5,88.5 459.5,87.4 447.9,87.4 447.9,75.9 446.9,75.9 "
   id="polygon588"
   transform="scale(1.4037535)" />
<polygon
   class="st3"
   points="337,63.2 325.4,63.2 325.4,64.3 337,64.3 337,75.9 338,75.9 338,64.3 349.6,64.3 349.6,63.2 338,63.2 338,51.7 337,51.7 "
   id="polygon590"
   transform="scale(1.4037535)" />
<polygon
   class="st3"
   points="389.7,11.6 378.2,11.6 378.2,12.6 389.7,12.6 389.7,24.2 390.8,24.2 390.8,12.6 402.4,12.6 402.4,11.6 390.8,11.6 390.8,0 389.7,0 "
   id="polygon592"
   transform="scale(1.4037535)" />
<metadata
   id="metadata603"><rdf:RDF><cc:Work
       rdf:about=""><dc:title>yoga</dc:title></cc:Work></rdf:RDF></metadata></svg>
