<svg xmlns="http://www.w3.org/2000/svg" xmlns:xlink="http://www.w3.org/1999/xlink" data-name="Layer 1" width="990" height="772.61479"><rect id="backgroundrect" width="100%" height="100%" x="0" y="0" fill="none" stroke="none"/><title>wandering_mind</title><g class="currentLayer" style=""><title>Layer 1</title><polygon points="810.7 163.615 338.02 488.115 305.76 441.125 710 163.615 810.7 163.615" fill="#f2f2f2" id="svg_1"/><polygon points="966 163.615 966 210.605 301.02 667.115 268.76 620.125 933.75 163.615 966 163.615" fill="#f2f2f2" id="svg_2"/><polygon points="966 301.935 966 371.065 452.46 723.615 351.75 723.615 966 301.935" fill="#f2f2f2" id="svg_3"/><ellipse cx="495" cy="749.6148071289062" rx="495" ry="23" fill="#3f3d56" id="svg_4"/><ellipse cx="732" cy="753.6148071289062" rx="115" ry="16" opacity="0.1" id="svg_5"/><ellipse cx="328" cy="750.6148071289062" rx="145" ry="19" opacity="0.1" id="svg_6"/><polygon points="501.73 222.8 527.131 216.994 546 222.8 402.305 736.618 381.985 748.23 402.305 485.515 501.73 222.8" fill="#a5e5c5" id="svg_7"/><polygon points="501.73 222.8 527.131 216.994 546 222.8 402.305 736.618 381.985 748.23 402.305 485.515 501.73 222.8" opacity="0.1" id="svg_8"/><polygon points="143.582 63.502 384.525 747.867 529.671 217.357 143.582 63.502" fill="#a5e5c5" id="svg_9"/><path d="M216.87315999999998,494.0384597497558 c40.62871,36.75244 32.96384,73.73671 6.01424,103.52867 q-0.9390000000000001,1.038 -1.8921000000000001,2.04506 q-1.91817,2.03067 -3.89665,3.92828 c-26.22673,25.16608 -60.03812,32.56842 -97.82272,-1.61128 C80.17355,566.5573997497559 76.03466,471.9433997497558 75.77637999999999,464.8948697497559 c0.003000000000000001,-0.003270000000000001 0.003000000000000001,-0.003270000000000001 0.002650000000000001,-0.009590000000000003 c-0.010260000000000002,-0.26817 -0.013850000000000003,-0.40393 -0.013850000000000003,-0.40393 S176.24776000000003,457.28898974975584 216.87315999999998,494.0384597497558 z" fill="#a5e5c5" id="svg_10"/><path d="M214.89664,593.9087897497559 l-9.71941,-44.66689 l12.7007,47.45406 l3.11737,2.91623 q-1.91817,2.03067 -3.89665,3.92828 L178.37622,564.6473997497559 l-0.3294800000000001,-0.268 l-0.026710000000000005,-0.09030000000000002 l-3.6580000000000004,-3.67628 l-48.60683,-7.914 l45.7835,5.25171 l0.85943,0.6871200000000002 l-29.2565,-29.385 l-47.04815,-11.69354 l41.84,6.603 l-62.15713,-59.26719 l-0.20593000000000003,-0.19826000000000005 l0.20858000000000002,0.18867 l49.95908,45.69826 l-4.62166,-34.9021 l8.87984,38.88653 l27.09315,25.321 l-12.11083,-39.654 l16.09662,43.37383 L176.14058,557.6883997497558 l-16.01187,-56.13243 l21.26494,61.04688 z" fill="#3f3d56" id="svg_11"/><path d="M325,424.61479974975583 a170,170 0 1 0 170,170 A170,170 0 0 0 325,424.61479974975583 zm3,211.5 c-19.05371,0 -34.5,-18.80408 -34.5,-42 s15.44629,-42 34.5,-42 s34.5,18.804 34.5,42 S347.05371,636.1147997497559 328,636.1147997497559 z" fill="#3f3d56" id="svg_12"/><path d="M327,636.1147997497559 c-19.05371,0 -34.5,-18.80408 -34.5,-42 s15.44629,-42 34.5,-42 c18.45313,0 33.52222,17.63739 34.4541,39.82019 c0.021240000000000002,-0.6052900000000001 0.04590000000000001,-1.20972 0.04590000000000001,-1.8201900000000002 a50.98991,50.98991 0 1 0 -26.9563,44.98071 A28.70385,28.70385 0 0 1 327,636.1147997497559 z" opacity="0.1" id="svg_13"/><path d="M148.29892,-2.5024414185281785e-7 a73.29893,73.29893 0 1 0 73.29892,73.29893 A73.29892,73.29892 0 0 0 148.29892,-2.5024414185281785e-7 zm1.29351,91.19249 c-8.21539,0 -14.87537,-8.10776 -14.87537,-18.10915 s6.66,-18.10914 14.87537,-18.10914 s14.87537,8.10773 14.87537,18.10914 S157.80782,91.19248974975585 149.59243,91.19248974975585 z" fill="#3f3d56" id="svg_14"/><path d="M149.16126,91.19248974975585 c-8.21539,0 -14.87537,-8.10776 -14.87537,-18.10915 s6.66,-18.10914 14.87537,-18.10914 c7.95644,0 14.45378,7.60471 14.85558,17.16927 c0.009160000000000001,-0.261 0.019790000000000002,-0.52159 0.019790000000000002,-0.78481 a21.98533,21.98533 0 1 0 -11.62275,19.39434 A12.37641,12.37641 0 0 1 149.16126,91.19248974975585 z" opacity="0.1" id="svg_15"/><path d="M682,661.6147997497559 H671 v93 s71,23 140,0 v-93 z" fill="#3f3d56" id="svg_16"/><ellipse cx="740" cy="662.1148071289062" rx="69" ry="10.5" fill="#3f3d56" id="svg_17"/><ellipse cx="740" cy="662.1148071289062" rx="69" ry="10.5" opacity="0.1" id="svg_18"/><path d="M820.20805,550.5008897497559 c-17.40644,64.34463 -77.0274,104.19488 -77.0274,104.19488 s-31.39956,-64.473 -13.99312,-128.81764 s77.02739,-104.19488 77.02739,-104.19488 S837.61448,486.1562597497558 820.20805,550.5008897497559 z" fill="#3f3d56" id="svg_19"/><path d="M661.85806,550.5008897497559 c17.40643,64.34463 77.0274,104.19488 77.0274,104.19488 s31.39955,-64.473 13.99312,-128.81764 s-77.02739,-104.19488 -77.02739,-104.19488 S644.45163,486.1562597497558 661.85806,550.5008897497559 z" fill="#a5e5c5" id="svg_20"/><path d="M687.43558,536.6725397497559 c47.76351,46.49584 53.59747,117.97077 53.59747,117.97077 s-71.606,-3.90972 -119.36947,-50.40556 s-53.59747,-117.97078 -53.59747,-117.97078 S639.67208,490.17668974975584 687.43558,536.6725397497559 z" fill="#3f3d56" id="svg_21"/><path d="M794.63052,536.6725397497559 C746.867,583.1683997497558 741.03305,654.6433097497559 741.03305,654.6433097497559 s71.606,-3.90972 119.36948,-50.40556 S914,486.26696974975584 914,486.26696974975584 S842.394,490.17668974975584 794.63052,536.6725397497559 z" fill="#3f3d56" id="svg_22"/><circle cx="741" cy="421.6147766113281" r="22" fill="#a5e5c5" id="svg_23"/><path d="M331.43617,249.96839974975586 s42.34638,1.1513 49.34015,3.69576 s10.12111,20.7396 10.12111,20.7396 l-32.87919,10.33437 l-24.59189,-1.393 l-18.50788,1.30783 l10.33421,-27.06532 z" fill="#2f2e41" id="svg_24"/><path d="M333.26275,236.07330974975588 s2.7861599999999997,10.760720000000001 -3.39733,18.38 S356.4475,289.22299974975584 356.4475,289.22299974975584 l17.28539,-2.971 s-3.8097000000000003,-33.064 1.30766,-41.43662 S333.26275,236.07330974975588 333.26275,236.07330974975588 z" fill="#9f616a" id="svg_25"/><path d="M333.26275,236.07330974975588 s2.7861599999999997,10.760720000000001 -3.39733,18.38 S356.4475,289.22299974975584 356.4475,289.22299974975584 l17.28539,-2.971 s-3.8097000000000003,-33.064 1.30766,-41.43662 S333.26275,236.07330974975588 333.26275,236.07330974975588 z" opacity="0.1" id="svg_26"/><polygon points="448.22 550.693 410.081 601.27 436.109 616.465 471.931 557.857 448.22 550.693" fill="#9f616a" id="svg_27"/><path d="M421.46761000000004,602.1226097497558 s-14.04443,-16.31875 -13.419,-12.67972 s-9.993,34.49975 -0.11362000000000003,37.48486 s94.60062,10.90262 95.76622,1.336 S478.427,612.0018497497558 478.427,612.0018497497558 s-15.70758,-15.09625 -19.19024,-13.561 S421.46761000000004,602.1226097497558 421.46761000000004,602.1226097497558 z" fill="#2f2e41" id="svg_28"/><polygon points="439.663 598.995 470.126 650.894 493.125 637.575 462.407 595.086 439.663 598.995" fill="#9f616a" id="svg_29"/><path d="M487.75163999999995,475.52394974975584 l-9.04068,12.7935 s-43.09961,59.85933 -38.52238,64.6924 s23.63955,23.09925 33.33415,19.5597 S517.66,507.84869974975584 517.66,507.84869974975584 l-8.984,-35.92119 z" fill="#2f2e41" id="svg_30"/><path d="M302.09,463.41330974975585 s9.652000000000001,18.01034 34.116,24.10849 s50.02251,18.5646 50.93227,18.40824 s3.48266,-1.5352299999999999 4.10813,2.1038 s7.335,9.97889 7.335,9.97889 s27.02289,91.82859 37.343,91.92807 s31.52877,-7.29237 31.96943,-10.178 s-31.60014,-96.66167 -31.91287,-98.48118 L432.22799999999995,479.44739974975585 s42.37483,6.7662 46.32659,7.96025 S517.66,507.84869974975584 517.66,507.84869974975584 s35.83585,-25.82869 2.3169,-51.91306 s-91.13226,-45.21755 -91.13226,-45.21755 l-20.66857,-5.81386 l-18.01336,-1.07517 l-2.65227,-10.17094 l-42.66206,2.46144 L300.32717,415.01139974975587 z" fill="#2f2e41" id="svg_31"/><circle cx="358.394775390625" cy="224.26060485839844" r="33.231510162353516" fill="#9f616a" id="svg_32"/><path d="M328.3302,250.97059974975588 l3.99683,-0.6870000000000002 s7.21885,27.79487 29.55057,32.38624 c0,0 11.01915,-13.2004 10.54876,-15.4277 s8.72665,-14.111 13.616620000000001,-7.45846 s-1.1937200000000001,123.84077 2.91441,125.94458 s12.92142,4.33553 5.82817,12.11113 s-35.26728,18.2379 -41.50765,14.62731 s-18.99129,-34.20115 -24.50673,-44.49277 s-14.343,-45.303 -14.343,-45.303 s-11.27257,-38.33773 -4.33569,-47.02309 S328.3302,250.97059974975588 328.3302,250.97059974975588 z" fill="#d0cde1" id="svg_33"/><path d="M360.13458,395.24127974975585 A189.57234,189.57234 0 0 1 356.328,419.50939974975586 c-1.62981,6.508 -3.52744,10.43726 -5.6930000000000005,10.26986 c-5.52564,-0.41300000000000003 -8.03729,7.6912400000000005 -9.33222,17.03456 c-1.38419,9.91264 -1.38419,21.22057 -2.14325,25.2169 c-1.00462,5.28008 -7.43445,9.30986 -20.28293,8.1266 a90.65925,90.65925 0 0 1 -22.3481,-5.481 c-17.347080000000002,-6.307 -16.83363,-57.45529 -13.93125,-95.40907 c1.7748599999999999,-23.26346 4.44281,-41.58171 4.44281,-41.58171 s-5.2688500000000005,-15.71735 -6.95445,-26.48955 a35.2107,35.2107 0 0 1 -0.50235,-5.94976 c0.25672999999999996,-9.4103 17.43641,-34.83937 27.81787,-50.67949 c10.39264,-15.84012 24.5695,-4.21953 24.5695,-4.21953 l-4.934,14.89124 s7.64654,11.79917 7.70241,23.029 s18.30708,19.33411 24.85968,24.77042 C363.71782,316.45367974975585 363.6174,362.05406974975585 360.13458,395.24127974975585 z" fill="#2f2e41" id="svg_34"/><path d="M374.56438,255.6685197497559 s1.19752,1.41555 6.681,0.7249500000000001 c6.5762,-0.82821 15.61831,1.4471 17.719,7.72578 c3.85229,11.51411 14.71265,58.35239 14.71265,58.35239 s4.52051,53.54776 6.55328,65.3746 s1.0235400000000001,22.30328 3.02786,28.51521 s-19.78726,-11.58514 -27.81871,-9.26808 s-13.19156,-27.70493 -12.18233,-38.18136 s1.8621,-21.86262 -0.92406,-32.62334 s2.15346,-39.24041 1.9686500000000002,-45.76508 S366.59232,267.55454974975584 374.56438,255.6685197497559 z" fill="#2f2e41" id="svg_35"/><path d="M398.078,422.09431974975587 s35.18569,19.19573 38.5531,46.51753 S389.569,442.15720974975585 389.569,442.15720974975585 z" fill="#9f616a" id="svg_36"/><path d="M418.16354,402.7192897497559 s10.78165,54.34487 27.57717,51.45809 s-9.382,-54.58543 -9.382,-54.58543 z" fill="#9f616a" id="svg_37"/><path d="M475.68359,639.6357497497559 s-8.6,9.90785 -10.73228,8.40107 s-7.03635,19.00543 -2.6154900000000003,22.92874 s21.45041,10.36265 21.63522,16.88732 s45.85749,5.231 47.49219,-1.60642 s-5.72869,-22.4312 -10.902940000000001,-25.28839 s-24.3062,-29.15464 -24.3062,-29.15464 S481.27004999999997,633.9923997497558 475.68359,639.6357497497559 z" fill="#2f2e41" id="svg_38"/><path d="M392.4734,455.3310597497558 c-8.16006,-5.76009 -30.94346,-7.1889 -51.17065,-8.51728 c-8.87443,-0.56932 -17.25776,-1.1274600000000001 -23.69876,-2.03165 c-6.20656,-0.8595700000000001 -11.788,-6.53033 -16.744320000000002,-14.98063 c-7.51259,-12.80379 -13.5852,-32.00395 -18.26245,-50.5343 c1.7748599999999999,-23.26346 4.44281,-41.58171 4.44281,-41.58171 s-5.2688500000000005,-15.71735 -6.95445,-26.48955 a14.17608,14.17608 0 0 1 4.48749,-4.041 c21.455,-9.20937 41.93887,81.422 44.53984,95.64359 c0.044690000000000014,0.23437 0.07815000000000001,0.45764 0.11167000000000002,0.6473900000000001 c1.2613400000000001,7.32285 14.89124,13.58527 27.10343,16.0634 c7.52376,1.52931 14.52291,1.6298000000000001 17.749,-0.35722000000000004 c8.47258,-5.2018699999999995 34.52676,15.61685 36.50255,16.20852 C412.55541000000005,435.96339974975587 404.19442,463.6250697497559 392.4734,455.3310597497558 z" opacity="0.1" id="svg_39"/><path d="M284.57668,301.57599974975585 s-15.5938,7.36339 -8.742090000000001,41.7778 s20.6546,92.92316 41.76383,95.85139 s63.14288,2.26 74.87024,10.5473 S412.55435,430.37739974975585 410.57847000000004,429.7803997497559 s-28.032,-21.40766 -36.50407,-16.205 s-42.81548,-3.88057 -44.84825,-15.70741 S306.38241,292.20827974975583 284.57668,301.57599974975585 z" fill="#2f2e41" id="svg_40"/><path d="M396.94592,285.07210974975584 l17.138,39.76705 s1.72533,-0.8607400000000002 3.72966,5.35119 s2.94253,11.67048 6.45363,15.75017 s19.13352,62.2757 19.60262,65.005 s-21.57707,12.13832 -26.50318,4.55531 S396.94592,285.07210974975584 396.94592,285.07210974975584 z" fill="#2f2e41" id="svg_41"/><path d="M339.48815,223.79802974975587 c1.27358,-0.34005000000000035 1.46068,-2.031 1.5033699999999999,-3.3484700000000003 c0.22859000000000018,-7.05539 4.4771,-14.295 11.23078,-16.34894 a18.88113,18.88113 0 0 1 7.95871,-0.4380000000000002 a30.14537,30.14537 0 0 1 10.77823,3.59581 c1.7590000000000003,0.98891 3.48436,2.18 5.4795300000000005,2.482 c1.3176700000000001,0.19951000000000021 7.02305,1.85834 8.33513,2.09178 c2.8847500000000004,0.5132599999999996 5.56568,3.0942600000000002 8.33384,2.13382 c2.64832,-0.9188700000000004 3.23456,-4.34783 3.2985700000000002,-7.15029 c0.14583000000000004,-6.38458 -4.7010000000000005,-15.22108 -8.97,-19.97071 c-3.23965,-3.60432 -8.11764,-5.26813 -12.88608,-6.13328 a85.791,85.791 0 0 0 -16.85259,-1.02521 c-7.63115,0.1361 -15.47383,0.72511 -22.355,4.027 s-12.66118,9.8735 -12.991,17.49874 c-0.06871000000000008,1.5884 0.09515000000000011,3.18344 -0.03840000000000001,4.76771 c-0.32580000000000037,3.86482 -2.37806,7.35567 -3.34078,11.11282 a20.33478,20.33478 0 0 0 2.83974,16.25034 c2.5538,3.75828 6.56761,7.15739 6.42,11.69885 l5.53742,-5.7369 a4.54727,4.54727 0 0 0 1.35239,-5.55564 l-1.96,-7.64516 a6.89794,6.89794 0 0 1 -0.16972000000000018,-4.25467 C335.09337,216.65752974975584 337.36469,224.36496974975586 339.48815,223.79802974975587 z" fill="#b6b6b6" id="svg_42" class="selected" fill-opacity="1"/></g></svg>