<svg xmlns="http://www.w3.org/2000/svg" xmlns:xlink="http://www.w3.org/1999/xlink" data-name="Layer 1" width="888" height="544.35712" style=""><rect id="backgroundrect" width="100%" height="100%" x="0" y="0" fill="none" stroke="none"/><g class="currentLayer" style=""><title>Layer 1</title><path d="M535.81666,481.23945261829374 l-32.03108,8.59237 l32.26282,-19.83964 c-0.6940000000000004,-31.6281 -11.73343,-64.42416 -11.73343,-64.42416 s-68.94964,19.97485 -87.0457,54.56423 s-3.8517200000000003,57.4245 21.514,70.69506 c25.36535,13.270340000000001 52.24662,11.95083 70.34268,-22.63855 C533.15381,500.4898626182937 535.14674,491.1328826182937 535.81666,481.23945261829374 z" fill="#e7f7ff" id="svg_1" class="" fill-opacity="1"/><path d="M497.66216999999995,488.71489834960937 l-0.8920000000000001,1.70493 c-10.4695,19.76515 -21.90154,33.47938 -34.15608,40.93644 c-0.17673000000000003,0.11180000000000001 -0.35749000000000003,0.21074000000000004 -0.53427,0.3225100000000001 l-0.5003,-0.83148 l-0.47089000000000003,-0.80541 c13.42679,-7.95112 24.69573,-23.2235 33.832,-40.46089 c0.29990000000000006,-0.5526800000000001 0.6042000000000001,-1.11375 0.8916000000000002,-1.6836700000000002 c3.80313,-7.33114 7.22842,-14.96737 10.27323,-22.534 c0.24082,-0.58359 0.47758000000000006,-1.18 0.7143400000000001,-1.7764099999999998 c3.96734,-10.00808 7.275,-19.82376 9.92626,-28.467 c0.19018000000000002,-0.6100900000000001 0.3718800000000001,-1.22454 0.54918,-1.83059 c4.42748,-14.6481 6.88347,-25.65114 7.40983,-28.0957 c0.06940000000000002,-0.29695000000000005 0.10222000000000002,-0.46253 0.11142000000000002,-0.5006900000000001 l0.9210900000000001,0.19159000000000004 l0.012870000000000003,-0.004000000000000001 l0.92953,0.19600000000000004 c-0.009230000000000004,0.03821000000000001 -0.11746000000000002,0.5943900000000001 -0.34923000000000004,1.6126900000000002 c-0.8454900000000001,3.81487 -3.246,14.11591 -7.20329,27.28991 c-0.18133000000000002,0.5931900000000001 -0.36306000000000005,1.20769 -0.55321,1.81772 c-2.1442,7.01643 -4.70671,14.77084 -7.6994,22.751640000000002 q-1.12264,3.0088 -2.28139,5.90189 c-0.22836000000000004,0.6008000000000001 -0.46512000000000003,1.1972 -0.7059300000000001,1.78079 Q502.952,478.50106834960934 497.66216999999995,488.71489834960937 z" fill="#fff" id="svg_2"/><path d="M519.12753,433.97914834960943 c-0.6052500000000001,-0.21986000000000003 -1.2189400000000001,-0.44414000000000003 -1.83222,-0.6897900000000002 a52.55222,52.55222 0 0 1 -4.88848,-2.24569 a51.1186,51.1186 0 0 1 -17.26793,-14.66734 c-0.58851,0.26187000000000005 -1.177,0.52378 -1.77841,0.7896700000000001 a53.01144,53.01144 0 0 0 18.16319,15.56575 a54.37247,54.37247 0 0 0 5.22245,2.3882 c0.6048600000000001,0.24118 1.21855,0.46546000000000004 1.8281900000000002,0.6769200000000002 a52.56515,52.56515 0 0 0 15.5953,2.9664 q-0.18011000000000002,-0.98112 -0.34815000000000007,-1.92373 A50.94312,50.94312 0 0 1 519.12753,433.97914834960943 z" fill="#fff" id="svg_3"/><path d="M508.59353,464.4503983496094 q-0.90006,-0.40643 -1.77366,-0.86343 c-0.18169000000000002,-0.08429000000000003 -0.36735000000000007,-0.18142000000000003 -0.5446200000000001,-0.27416 a51.3897,51.3897 0 0 1 -27.16055,-39.07568 c-0.5981000000000001,0.32134000000000007 -1.19628,0.6427100000000001 -1.79035,0.97692 a53.29793,53.29793 0 0 0 28.06775,39.78684 c0.23635,0.12365000000000001 0.47266,0.24728000000000003 0.71343,0.36249000000000003 c0.59521,0.30063 1.1864400000000002,0.58842 1.78207,0.8678100000000001 a53.016,53.016 0 0 0 29.61826,4.31468 c-0.009590000000000003,-0.63926 -0.019150000000000004,-1.27858 -0.037180000000000005,-1.92226 A51.03685,51.03685 0 0 1 508.59353,464.4503983496094 z" fill="#fff" id="svg_4"/><path d="M497.66216999999995,488.71489834960937 c-0.61728,-0.25844 -1.22577,-0.53381 -1.82987,-0.81757 c-0.6462700000000001,-0.30589000000000005 -1.28814,-0.6201700000000001 -1.92117,-0.95135 a51.5287,51.5287 0 0 1 -26.58585,-55.75026 c-0.7375400000000001,0.48500000000000004 -1.47062,0.96152 -2.19123,1.45532 a53.41569,53.41569 0 0 0 27.89393,55.983 c0.6330000000000001,0.3311800000000001 1.27048,0.6539200000000002 1.9127200000000002,0.9469400000000001 c0.6081200000000001,0.29663 1.21662,0.5720000000000001 1.82951,0.8388300000000001 a53.25942,53.25942 0 0 0 39.09794,1.09295 c0.14950000000000002,-0.7173200000000001 0.26928,-1.43943 0.3934800000000001,-2.17 A51.36248,51.36248 0 0 1 497.66216999999995,488.71489834960937 z" fill="#fff" id="svg_5"/><path d="M115.18333999999999,484.23945261829374 l32.03108,8.59237 L114.95159999999998,472.9921826182938 c0.6940000000000004,-31.6281 11.73343,-64.42416 11.73343,-64.42416 s68.94964,19.97485 87.0457,54.56423 s3.8517200000000003,57.4245 -21.514,70.69506 c-25.36535,13.270340000000001 -52.24662,11.95083 -70.34268,-22.63855 C117.84618999999998,503.4898626182937 115.85325999999998,494.1328826182937 115.18333999999999,484.23945261829374 z" fill="#e7f7ff" id="svg_6" class="" fill-opacity="1"/><path d="M153.33783,491.71489834960937 l0.8920000000000001,1.70493 c10.4695,19.76515 21.90154,33.47938 34.15608,40.93644 c0.17673000000000003,0.11180000000000001 0.35749000000000003,0.21074000000000004 0.53427,0.3225100000000001 l0.5003,-0.83148 l0.47089000000000003,-0.80541 c-13.42679,-7.95112 -24.69573,-23.2235 -33.832,-40.46089 c-0.29990000000000006,-0.5526800000000001 -0.6042000000000001,-1.11375 -0.8916000000000002,-1.6836700000000002 c-3.80313,-7.33114 -7.22842,-14.96737 -10.27323,-22.534 c-0.24082,-0.58359 -0.47758000000000006,-1.18 -0.7143400000000001,-1.7764099999999998 c-3.96734,-10.00808 -7.275,-19.82376 -9.92626,-28.467 c-0.19018000000000002,-0.6100900000000001 -0.3718800000000001,-1.22454 -0.54918,-1.83059 c-4.42748,-14.6481 -6.88347,-25.65114 -7.40983,-28.0957 c-0.06940000000000002,-0.29695000000000005 -0.10222000000000002,-0.46253 -0.11142000000000002,-0.5006900000000001 l-0.9210900000000001,0.19159000000000004 l-0.012870000000000003,-0.004000000000000001 l-0.92953,0.19600000000000004 c0.009230000000000004,0.03821000000000001 0.11746000000000002,0.5943900000000001 0.34923000000000004,1.6126900000000002 c0.8454900000000001,3.81487 3.246,14.11591 7.20329,27.28991 c0.18133000000000002,0.5931900000000001 0.36306000000000005,1.20769 0.55321,1.81772 c2.1442,7.01643 4.70671,14.77084 7.6994,22.751640000000002 q1.12264,3.0088 2.28139,5.90189 c0.22836000000000004,0.6008000000000001 0.46512000000000003,1.1972 0.7059300000000001,1.78079 Q148.048,481.50106834960934 153.33783,491.71489834960937 z" fill="#fff" id="svg_7"/><path d="M117.17853000000002,439.8395583496093 q-0.16806000000000004,0.9426400000000001 -0.34815000000000007,1.92373 a52.56515,52.56515 0 0 0 15.5953,-2.9664 c0.6096400000000002,-0.21146000000000004 1.22333,-0.43574 1.8281900000000002,-0.6769200000000002 a54.37247,54.37247 0 0 0 5.22245,-2.3882 a53.01144,53.01144 0 0 0 18.16319,-15.56575 c-0.6013700000000001,-0.26589 -1.1899,-0.5278 -1.77841,-0.7896700000000001 a51.1186,51.1186 0 0 1 -17.26793,14.66734 a52.55222,52.55222 0 0 1 -4.88848,2.24569 c-0.61328,0.24565 -1.227,0.46993 -1.83222,0.6897900000000002 A50.94312,50.94312 0 0 1 117.17853000000002,439.8395583496093 z" fill="#fff" id="svg_8"/><path d="M113.53132,471.6236083496094 c-0.018000000000000002,0.6436800000000001 -0.027590000000000007,1.283 -0.037180000000000005,1.92226 a53.016,53.016 0 0 0 29.61826,-4.31468 c0.5956300000000001,-0.27939 1.18686,-0.56718 1.78207,-0.8678100000000001 c0.24077,-0.11521000000000002 0.47708000000000006,-0.23884000000000002 0.71343,-0.36249000000000003 a53.29793,53.29793 0 0 0 28.06775,-39.78684 c-0.5940700000000001,-0.33421000000000006 -1.19225,-0.65558 -1.79035,-0.97692 a51.3897,51.3897 0 0 1 -27.16055,39.07568 c-0.17727,0.09274000000000003 -0.36293000000000003,0.18987 -0.5446200000000001,0.27416 q-0.8735900000000001,0.457 -1.77366,0.86343 A51.03685,51.03685 0 0 1 113.53132,471.6236083496094 z" fill="#fff" id="svg_9"/><path d="M114.73836999999997,492.34278834960935 c0.12420000000000002,0.73056 0.24400000000000002,1.45267 0.3934800000000001,2.17 a53.25942,53.25942 0 0 0 39.09794,-1.09295 c0.6128900000000002,-0.26684 1.22139,-0.5422 1.82951,-0.8388300000000001 c0.6422400000000001,-0.29300000000000004 1.27969,-0.6157600000000001 1.9127200000000002,-0.9469400000000001 a53.41569,53.41569 0 0 0 27.89393,-55.983 c-0.7206100000000001,-0.49380000000000007 -1.45369,-0.9703099999999999 -2.19123,-1.45532 a51.5287,51.5287 0 0 1 -26.58585,55.75026 c-0.6330000000000001,0.3311800000000001 -1.2749000000000001,0.64546 -1.92117,0.95135 c-0.6041000000000001,0.28376 -1.21259,0.55913 -1.82987,0.81757 A51.36248,51.36248 0 0 1 114.73836999999997,492.34278834960935 z" fill="#fff" id="svg_10"/><path d="M265.35612,508.4596126182938 l19.06893,5.11526 l-19.20689,-11.81105 c0.4131800000000001,-18.829 6.98521,-38.35337 6.98521,-38.35337 s41.04752,11.89154 51.820570000000004,32.4835 s2.293,34.1863 -12.80787,42.08661 c-15.10065,7.90018 -31.10377,7.11464 -41.87683,-13.47732 C266.94138,519.9198926182937 265.75494,514.3494326182938 265.35612,508.4596126182938 z" fill="#e7f7ff" id="svg_11" class="" fill-opacity="1"/><path d="M288.07048,513.1989983496094 l0.531,1.015 c6.23276,11.76671 13.03855,19.93115 20.334,24.37053 c0.10521000000000001,0.06655000000000001 0.21282,0.12545 0.3180700000000001,0.19200000000000003 l0.29783000000000004,-0.49500000000000005 l0.28033,-0.4794800000000001 c-7.99331,-4.7335 -14.702,-13.82555 -20.14108,-24.08742 c-0.17854000000000003,-0.32900000000000007 -0.35969,-0.6630000000000001 -0.5307900000000001,-1.00233 c-2.2641,-4.36442 -4.30327,-8.91047 -6.11593,-13.41505 c-0.14336000000000002,-0.34743000000000007 -0.28431000000000006,-0.70248 -0.42526,-1.05754 c-2.36186,-5.95807 -4.331,-11.8016 -5.9093599999999995,-16.94716 c-0.11322000000000003,-0.3632 -0.22139000000000003,-0.7290000000000001 -0.32694000000000006,-1.0898 c-2.63579,-8.72039 -4.09791,-15.27078 -4.41126,-16.72609 c-0.04132000000000001,-0.17679000000000003 -0.06086000000000001,-0.27536000000000005 -0.06634000000000001,-0.29808000000000007 l-0.54834,0.11406000000000002 l-0.007660000000000002,-0.0024000000000000007 l-0.55338,0.11670000000000003 c0.005500000000000001,0.022750000000000006 0.06993000000000002,0.35385000000000005 0.20790000000000003,0.9600700000000001 c0.50335,2.27109 1.93241,8.40357 4.28831,16.24639 c0.10800000000000001,0.35314 0.21614000000000003,0.7190000000000001 0.3293400000000001,1.08214 c1.2765,4.17707 2.802,8.79347 4.58366,13.54464 q0.6683300000000001,1.79123 1.35816,3.51355 c0.13595000000000002,0.35767000000000004 0.27690000000000003,0.7127300000000001 0.42027000000000003,1.06016 Q284.92128,507.1184283496094 288.07048,513.1989983496094 z" fill="#fff" id="svg_12"/><path d="M266.54391,482.3162483496094 q-0.1,0.56118 -0.20727,1.14525 a31.29351,31.29351 0 0 0 9.28429,-1.766 c0.36293000000000003,-0.12589 0.72828,-0.25941000000000003 1.08837,-0.403 a32.37024,32.37024 0 0 0 3.10906,-1.42175 a31.55916,31.55916 0 0 0 10.813,-9.2667 c-0.35800000000000004,-0.15829000000000004 -0.70838,-0.31422000000000005 -1.05873,-0.47011000000000003 a30.43228,30.43228 0 0 1 -10.28005,8.73185 a31.28691,31.28691 0 0 1 -2.91024,1.33691 c-0.36510000000000004,0.14624000000000004 -0.73045,0.27977 -1.09077,0.41065 A30.32734,30.32734 0 0 1 266.54391,482.3162483496094 z" fill="#fff" id="svg_13"/><path d="M264.37263,501.2381283496094 c-0.010740000000000003,0.38320000000000004 -0.016430000000000004,0.7638000000000001 -0.022130000000000004,1.1443699999999999 a31.56185,31.56185 0 0 0 17.63252,-2.56863 c0.35459,-0.16634000000000004 0.70656,-0.33766000000000007 1.0609,-0.5166400000000001 c0.14334000000000002,-0.06858000000000002 0.28400000000000003,-0.14218 0.42473,-0.21580000000000002 a31.7296,31.7296 0 0 0 16.70946,-23.68614 c-0.35366000000000003,-0.19900000000000004 -0.7097700000000001,-0.39028000000000007 -1.0658400000000001,-0.58158 a30.59363,30.59363 0 0 1 -16.16938,23.26276 c-0.10553000000000001,0.05521000000000001 -0.21606000000000003,0.11300000000000002 -0.32423,0.16322000000000003 q-0.52006,0.27208000000000004 -1.05591,0.514 A30.38347,30.38347 0 0 1 264.37263,501.2381283496094 z" fill="#fff" id="svg_14"/><path d="M265.09122,513.5727983496093 c0.07394,0.4349200000000001 0.14525000000000002,0.8648100000000001 0.23424000000000003,1.2918500000000002 a31.70674,31.70674 0 0 0 23.276,-0.6506600000000001 c0.3648700000000001,-0.15886000000000003 0.7271200000000001,-0.32279 1.08915,-0.4993800000000001 c0.38234000000000007,-0.17444000000000004 0.7618300000000001,-0.36657000000000006 1.13869,-0.5637400000000001 a31.79973,31.79973 0 0 0 16.606,-33.32815 c-0.42900000000000005,-0.29400000000000004 -0.8654200000000001,-0.5776400000000002 -1.30449,-0.86638 a30.67636,30.67636 0 0 1 -15.82725,33.18957 c-0.3768600000000001,0.19717 -0.7590000000000001,0.38427000000000006 -1.14372,0.56637 c-0.35964,0.16893000000000005 -0.7218900000000001,0.3328600000000001 -1.08937,0.48672000000000004 A30.57741,30.57741 0 0 1 265.09122,513.5727983496093 z" fill="#fff" id="svg_15"/><path d="M646.23611,336.05677834960943 l-0.08154000000000002,-0.006840000000000002 c-15.16675,-2.50439 -32.01514,-2.50342 -51.50806,0.0029300000000000007 h-0.007810000000000002 a3.68561,3.68561 0 0 1 -3.72925,-3.66943 V314.73011834960937 a3.67762,3.67762 0 0 1 3.67334,-3.67334 a199.87414,199.87414 0 0 1 51.71484,0.003900000000000001 h0.006840000000000002 a3.6591400000000003,3.6591400000000003 0 0 1 3.605,3.6694400000000003 v17.65332 A3.67762,3.67762 0 0 1 646.23611,336.05677834960943 z" fill="#fff" id="svg_16"/><path d="M646.23611,336.05677834960943 l-0.08154000000000002,-0.006840000000000002 c-15.16675,-2.50439 -32.01514,-2.50342 -51.50806,0.0029300000000000007 h-0.007810000000000002 a3.68561,3.68561 0 0 1 -3.72925,-3.66943 V314.73011834960937 a3.67762,3.67762 0 0 1 3.67334,-3.67334 a199.87414,199.87414 0 0 1 51.71484,0.003900000000000001 h0.006840000000000002 a3.6591400000000003,3.6591400000000003 0 0 1 3.605,3.6694400000000003 v17.65332 A3.67762,3.67762 0 0 1 646.23611,336.05677834960943 zm-26.48242,-25.6753 a184.49964,184.49964 0 0 0 -25.10279,1.67041 a2.69885,2.69885 0 0 0 -2.74145,2.67823 v17.65332 a2.67632,2.67632 0 0 0 2.67334,2.67334 c19.50952,-2.5127 36.43945,-2.51319 51.69263,-0.0004900000000000002 a2.6762200000000003,2.6762200000000003 0 0 0 2.6340000000000003,-2.6728500000000004 V314.73011834960937 a2.67632,2.67632 0 0 0 -2.67334,-2.67334 A215.52784,215.52784 0 0 0 619.75369,310.3814783496094 z" fill="#b9e8ff" id="svg_17"/><circle cx="620.409423828125" cy="322.714111328125" r="7" fill="#b9e8ff" id="svg_18"/><path d="M602.40945,319.0567783496094 h-6 a1.50164,1.50164 0 0 1 -1.5,-1.5 v-2 a1.50164,1.50164 0 0 1 1.5,-1.5 h6 a1.50164,1.50164 0 0 1 1.5,1.5 v2 A1.50164,1.50164 0 0 1 602.40945,319.0567783496094 z" fill="#b9e8ff" id="svg_19"/><path d="M644.40945,333.0567783496094 h-6 a1.50164,1.50164 0 0 1 -1.5,-1.5 v-2 a1.50164,1.50164 0 0 1 1.5,-1.5 h6 a1.50164,1.50164 0 0 1 1.5,1.5 v2 A1.50164,1.50164 0 0 1 644.40945,333.0567783496094 z" fill="#b9e8ff" id="svg_20"/><path d="M637.69914,328.7554683496094 l-0.07246000000000001,-0.038000000000000006 c-12.999,-8.20544 -28.52151,-14.75669 -47.45472,-20.02821 l-0.0072000000000000015,-0.003000000000000001 a3.68562,3.68562 0 0 1 -2.0087,-4.83086 l6.8651800000000005,-16.26373 a3.67763,3.67763 0 0 1 4.8127200000000006,-1.95567 a199.87381,199.87381 0 0 1 47.64257,20.11493 l0.006300000000000002,0.002660000000000001 a3.6591400000000003,3.6591400000000003 0 0 1 1.8942100000000002,4.7825299999999995 l-6.8651800000000005,16.26373 A3.67763,3.67763 0 0 1 637.69914,328.7554683496094 z" fill="#fff" id="svg_21"/><path d="M637.69914,328.7554683496094 l-0.07246000000000001,-0.038000000000000006 c-12.999,-8.20544 -28.52151,-14.75669 -47.45472,-20.02821 l-0.0072000000000000015,-0.003000000000000001 a3.68562,3.68562 0 0 1 -2.0087,-4.83086 l6.8651800000000005,-16.26373 a3.67763,3.67763 0 0 1 4.8127200000000006,-1.95567 a199.87381,199.87381 0 0 1 47.64257,20.11493 l0.006300000000000002,0.002660000000000001 a3.6591400000000003,3.6591400000000003 0 0 1 1.8942100000000002,4.7825299999999995 l-6.8651800000000005,16.26373 A3.67763,3.67763 0 0 1 637.69914,328.7554683496094 zm-14.413,-33.953 a184.49849,184.49849 0 0 0 -23.77641,-8.22327 a2.69885,2.69885 0 0 0 -3.56719,1.40128 l-6.8651800000000005,16.26373 a2.67632,2.67632 0 0 0 1.42327,3.5025399999999998 c18.951,5.27213 34.54846,11.855550000000001 47.62381,20.10224 a2.67621,2.67621 0 0 0 3.46614,-1.43811 l6.8651800000000005,-16.26373 a2.67633,2.67633 0 0 0 -1.42327,-3.5025399999999998 A215.53,215.53 0 0 0 623.28613,294.8024983496094 z" fill="#b9e8ff" id="svg_22"/><circle cx="619.09423828125" cy="306.41937255859375" r="7" fill="#b9e8ff" id="svg_23"/><path d="M603.93343,296.0499283496094 l-5.52771,-2.33333 a1.5016500000000002,1.5016500000000002 0 0 1 -0.7986000000000001,-1.96526 l0.77778,-1.84257 a1.50164,1.50164 0 0 1 1.96526,-0.7986000000000001 l5.52771,2.33334 a1.50164,1.50164 0 0 1 0.79859,1.96526 l-0.7777700000000001,1.84257 A1.50164,1.50164 0 0 1 603.93343,296.0499283496094 z" fill="#b9e8ff" id="svg_24"/><path d="M637.18294,325.28124834960937 l-5.52771,-2.33333 a1.50164,1.50164 0 0 1 -0.7986000000000001,-1.96526 l0.77778,-1.84257 a1.5016500000000002,1.5016500000000002 0 0 1 1.96526,-0.7986000000000001 l5.52771,2.33334 a1.50164,1.50164 0 0 1 0.79859,1.96526 l-0.7777700000000001,1.84257 A1.50164,1.50164 0 0 1 637.18294,325.28124834960937 z" fill="#b9e8ff" id="svg_25"/><path d="M651.47454,319.0910883496094 a10.0558,10.0558 0 0 0 2.3856800000000002,-15.23366 l17.70867,-31.0384 l-18.53107,1.19717 l-13.97544,29.291 a10.11027,10.11027 0 0 0 12.41216,15.78384 z" fill="#ffb6b6" id="svg_26"/><polygon points="787.796 530.684 775.536 530.684 769.704 483.396 787.798 483.397 787.796 530.684" fill="#ffb6b6" id="svg_27"/><path d="M790.92249,542.5682283496094 l-39.53076,-0.0014600000000000004 v-0.5 A15.3873,15.3873 0 0 1 766.77821,526.6805583496093 h0.0010000000000000002 l24.144,0.0010000000000000002 z" fill="#2f2e41" id="svg_28"/><polygon points="703.796 530.684 691.536 530.684 685.704 483.396 703.798 483.397 703.796 530.684" fill="#ffb6b6" id="svg_29"/><path d="M706.92249,542.5682283496094 l-39.53076,-0.0014600000000000004 v-0.5 A15.3873,15.3873 0 0 1 682.77821,526.6805583496093 h0.0010000000000000002 l24.144,0.0010000000000000002 z" fill="#2f2e41" id="svg_30"/><path d="M672.27085,274.15269834960935 s-3.37214,48.02131 3.26935,72.2062 s7.82743,170.44079 7.82743,170.44079 h22.26172 l19.29489,-199.08529 L769.40641,517.5017583496094 l21.20442,-1.458 L778.982,280.62119834960936 z" fill="#2f2e41" id="svg_31"/><path d="M769.78263,112.27503834960936 l-17.01855,-12.419 L724.24687,106.06555834960938 l-7.71942,18.34224 l-13.30152,6.595 a30.15158,30.15158 0 0 0 -16.44681,22.69232 l-19.00293,131.225 l111.20579,-4.2989 l13.46287,-154.54282 a12.11573,12.11573 0 0 0 -11.367,-13.1468 z" fill="#bfe9ff" id="svg_32" class="" fill-opacity="1"/><polygon points="696.189 141.253 685.918 155.099 641.182 291.544 662.152 299.94 695.729 236.359 696.189 141.253" fill="#bfe9ff" id="svg_33" class="" fill-opacity="1"/><circle cx="732.9606323242188" cy="57.795101165771484" r="34.0372200012207" fill="#2f2e41" id="svg_34"/><circle cx="733.4205932617188" cy="68.53439331054688" r="24.83795928955078" fill="#ffb9b9" id="svg_35"/><path d="M752.27905,65.31465834960937 c-15.81555,-5.7046 -21.16736,-9.20907 -38.63684,0 l-6.43945,-25.75788 H758.7185 z" fill="#2f2e41" id="svg_36"/><circle cx="730.2008666992188" cy="23.91805076599121" r="19.31842041015625" fill="#2f2e41" id="svg_37"/><path d="M707.20276,19.318428349609377 a19.30232,19.30232 0 0 1 18.39849,-19.272 c-0.30700000000000005,-0.014500000000000002 -0.60931,-0.04643000000000001 -0.9199200000000001,-0.04643000000000001 a19.31841,19.31841 0 1 0 0,38.63682 c0.31061000000000005,0 0.6129200000000001,-0.03193000000000001 0.9199200000000001,-0.04643000000000001 A19.30234,19.30234 0 0 1 707.20276,19.318428349609377 z" fill="#2f2e41" id="svg_38"/><polygon points="778.087 149.111 771.157 218.196 746.683 266.431 778.087 149.111" opacity="0.1" id="svg_39"/><rect x="39.5" y="361.73675537109375" width="6" height="5" fill="#f0f0f0" id="svg_40"/><path d="M613.0293,366.73675834960943 H601.20605 v-5 H613.0293 zm-23.64649,0 H577.55859 v-5 h11.82422 zm-23.64746,0 H553.91211 v-5 h11.82324 zm-23.64648,0 H530.26465 v-5 h11.82422 zm-23.64746,0 H506.61816 v-5 h11.82325 zm-23.64746,0 H482.97069999999997 v-5 H494.794 zm-23.64649,0 H459.32421999999997 v-5 h11.82324 zm-23.64746,0 H435.67675999999994 v-5 H447.5 zm-23.647,0 H412.02979000000005 v-5 H423.85299999999995 zm-23.647,0 H388.38232000000005 v-5 h11.82373 zm-23.647,0 H364.73535000000004 v-5 h11.82373 zm-23.647,0 h-11.8237 v-5 h11.82373 zm-23.647,0 H317.44141 v-5 h11.82373 zm-23.64747,0 H293.79443 v-5 h11.82325 zm-23.647,0 H270.14746 v-5 H281.9707 zm-23.647,0 H246.5 v-5 h11.82373 zm-23.647,0 H222.853 v-5 h11.82373 zm-23.647,0 H199.20605 v-5 h11.82374 zm-23.64746,0 H175.55908 v-5 h11.82324 zm-23.647,0 h-11.823 v-5 h11.82324 zm-23.647,0 h-11.823 v-5 h11.82324 zm-23.647,0 H104.61768000000001 v-5 h11.82373 zm-23.647,0 H80.9707 v-5 h11.82373 zm-23.647,0 h-11.8234 v-5 h11.82373 z" fill="#f0f0f0" id="svg_41"/><rect x="39.5" y="234.73675537109375" width="6" height="5" fill="#f0f0f0" id="svg_42"/><path d="M613.0293,239.73675834960937 H601.20605 v-5 H613.0293 zm-23.64649,0 H577.55859 v-5 h11.82422 zm-23.64746,0 H553.91211 v-5 h11.82324 zm-23.64648,0 H530.26465 v-5 h11.82422 zm-23.64746,0 H506.61816 v-5 h11.82325 zm-23.64746,0 H482.97069999999997 v-5 H494.794 zm-23.64649,0 H459.32421999999997 v-5 h11.82324 zm-23.64746,0 H435.67675999999994 v-5 H447.5 zm-23.647,0 H412.02979000000005 v-5 H423.85299999999995 zm-23.647,0 H388.38232000000005 v-5 h11.82373 zm-23.647,0 H364.73535000000004 v-5 h11.82373 zm-23.647,0 h-11.8237 v-5 h11.82373 zm-23.647,0 H317.44141 v-5 h11.82373 zm-23.64747,0 H293.79443 v-5 h11.82325 zm-23.647,0 H270.14746 v-5 H281.9707 zm-23.647,0 H246.5 v-5 h11.82373 zm-23.647,0 H222.853 v-5 h11.82373 zm-23.647,0 H199.20605 v-5 h11.82374 zm-23.64746,0 H175.55908 v-5 h11.82324 zm-23.647,0 h-11.823 v-5 h11.82324 zm-23.647,0 h-11.823 v-5 h11.82324 zm-23.647,0 H104.61768000000001 v-5 h11.82373 zm-23.647,0 H80.9707 v-5 h11.82373 zm-23.647,0 h-11.8234 v-5 h11.82373 z" fill="#f0f0f0" id="svg_43"/><rect x="39.5" y="107.73674774169922" width="6" height="5" fill="#f0f0f0" id="svg_44"/><path d="M613.0293,112.73675834960937 H601.20605 v-5 H613.0293 zm-23.64649,0 H577.55859 v-5 h11.82422 zm-23.64746,0 H553.91211 v-5 h11.82324 zm-23.64648,0 H530.26465 v-5 h11.82422 zm-23.64746,0 H506.61816 v-5 h11.82325 zm-23.64746,0 H482.97069999999997 v-5 H494.794 zm-23.64649,0 H459.32421999999997 v-5 h11.82324 zm-23.64746,0 H435.67675999999994 v-5 H447.5 zm-23.647,0 H412.02979000000005 v-5 H423.85299999999995 zm-23.647,0 H388.38232000000005 v-5 h11.82373 zm-23.647,0 H364.73535000000004 v-5 h11.82373 zm-23.647,0 h-11.8237 v-5 h11.82373 zm-23.647,0 H317.44141 v-5 h11.82373 zm-23.64747,0 H293.79443 v-5 h11.82325 zm-23.647,0 H270.14746 v-5 H281.9707 zm-23.647,0 H246.5 v-5 h11.82373 zm-23.647,0 H222.853 v-5 h11.82373 zm-23.647,0 H199.20605 v-5 h11.82374 zm-23.64746,0 H175.55908 v-5 h11.82324 zm-23.647,0 h-11.823 v-5 h11.82324 zm-23.647,0 h-11.823 v-5 h11.82324 zm-23.647,0 H104.61768000000001 v-5 h11.82373 zm-23.647,0 H80.9707 v-5 h11.82373 zm-23.647,0 h-11.8234 v-5 h11.82373 z" fill="#f0f0f0" id="svg_45"/><rect x="186" y="363.23675537109375" width="49" height="180" fill="#3f3d56" id="svg_46"/><rect x="195" y="363.23675537109375" width="49" height="180" fill="#b9e8ff" id="svg_47"/><rect x="302" y="236.23675537109375" width="49" height="307.0000305175781" fill="#3f3d56" id="svg_48"/><rect x="311" y="236.23675537109375" width="49" height="307.0000305175781" fill="#b9e8ff" id="svg_49"/><rect x="418" y="109.23674774169922" width="49" height="434.0000305175781" fill="#3f3d56" id="svg_50"/><rect x="427" y="109.23674774169922" width="49" height="434.0000305175781" fill="#b9e8ff" id="svg_51"/><circle cx="40" cy="110.23674774169922" r="12" fill="#f0f0f0" id="svg_52"/><circle cx="40" cy="237.23675537109375" r="12" fill="#f0f0f0" id="svg_53"/><circle cx="40" cy="364.23675537109375" r="12" fill="#f0f0f0" id="svg_54"/><path d="M749.23611,314.0567783496094 l-0.08154000000000002,-0.006840000000000002 c-15.16675,-2.50439 -32.01514,-2.50342 -51.50806,0.0029300000000000007 h-0.007810000000000002 a3.68561,3.68561 0 0 1 -3.72925,-3.66943 V292.73011834960937 a3.67762,3.67762 0 0 1 3.67334,-3.67334 a199.87414,199.87414 0 0 1 51.71484,0.003900000000000001 h0.006840000000000002 a3.6591400000000003,3.6591400000000003 0 0 1 3.605,3.6694400000000003 v17.65332 A3.67762,3.67762 0 0 1 749.23611,314.0567783496094 z" fill="#fff" id="svg_56"/><path d="M749.23611,314.0567783496094 l-0.08154000000000002,-0.006840000000000002 c-15.16675,-2.50439 -32.01514,-2.50342 -51.50806,0.0029300000000000007 h-0.007810000000000002 a3.68561,3.68561 0 0 1 -3.72925,-3.66943 V292.73011834960937 a3.67762,3.67762 0 0 1 3.67334,-3.67334 a199.87414,199.87414 0 0 1 51.71484,0.003900000000000001 h0.006840000000000002 a3.6591400000000003,3.6591400000000003 0 0 1 3.605,3.6694400000000003 v17.65332 A3.67762,3.67762 0 0 1 749.23611,314.0567783496094 zm-26.48242,-25.6753 a184.49964,184.49964 0 0 0 -25.10279,1.67041 a2.69885,2.69885 0 0 0 -2.74145,2.67823 v17.65332 a2.67632,2.67632 0 0 0 2.67334,2.67334 c19.50952,-2.5127 36.43945,-2.51319 51.69263,-0.0004900000000000002 a2.6762200000000003,2.6762200000000003 0 0 0 2.6340000000000003,-2.6728500000000004 V292.73011834960937 a2.67632,2.67632 0 0 0 -2.67334,-2.67334 A215.52784,215.52784 0 0 0 722.75369,288.3814783496094 z" fill="#b9e8ff" id="svg_57"/><circle cx="723.409423828125" cy="300.714111328125" r="7" fill="#b9e8ff" id="svg_58"/><path d="M705.40945,297.0567783496094 h-6 a1.50164,1.50164 0 0 1 -1.5,-1.5 v-2 a1.50164,1.50164 0 0 1 1.5,-1.5 h6 a1.50164,1.50164 0 0 1 1.5,1.5 v2 A1.50164,1.50164 0 0 1 705.40945,297.0567783496094 z" fill="#b9e8ff" id="svg_59"/><path d="M747.40945,311.0567783496094 h-6 a1.50164,1.50164 0 0 1 -1.5,-1.5 v-2 a1.50164,1.50164 0 0 1 1.5,-1.5 h6 a1.50164,1.50164 0 0 1 1.5,1.5 v2 A1.50164,1.50164 0 0 1 747.40945,311.0567783496094 z" fill="#b9e8ff" id="svg_60"/><path d="M737.99376,290.9164583496094 a10.05579,10.05579 0 0 1 11.10029,-10.70231 l15.23759,-32.32328 l9.6632,15.85737 l-15.95135,28.26363 a10.11027,10.11027 0 0 1 -20.04973,-1.09541 z" fill="#ffb6b6" id="svg_61"/><path d="M779.42186,121.83905834960939 l6.27559,-8.18388 s15.29017,-3.11417 17.88721,17.88722 l-1.63525,93.36539 L768.4436,277.64445834960935 l-21.761,-5.55612 l28.451,-62.64745 z" fill="#bfe9ff" id="svg_62" class="" fill-opacity="1"/></g></svg>