<?xml version="1.0" encoding="UTF-8" standalone="no"?>
<!-- Created with Inkscape (http://www.inkscape.org/) -->

<svg
   width="292.60001mm"
   height="207.3mm"
   viewBox="0 0 292.60001 207.3"
   version="1.1"
   id="svg5"
   sodipodi:docname="social-change-and-volunteering.svg"
   inkscape:version="1.1.2 (b8e25be833, 2022-02-05)"
   xmlns:inkscape="http://www.inkscape.org/namespaces/inkscape"
   xmlns:sodipodi="http://sodipodi.sourceforge.net/DTD/sodipodi-0.dtd"
   xmlns="http://www.w3.org/2000/svg"
   xmlns:svg="http://www.w3.org/2000/svg">
  <sodipodi:namedview
     id="namedview7"
     pagecolor="#505050"
     bordercolor="#ffffff"
     borderopacity="1"
     inkscape:pageshadow="0"
     inkscape:pageopacity="0"
     inkscape:pagecheckerboard="1"
     inkscape:document-units="mm"
     showgrid="false"
     inkscape:zoom="0.52347032"
     inkscape:cx="419.31699"
     inkscape:cy="584.56037"
     inkscape:window-width="1920"
     inkscape:window-height="1017"
     inkscape:window-x="-8"
     inkscape:window-y="-8"
     inkscape:window-maximized="1"
     inkscape:current-layer="layer1"
     units="mm"
     width="292.6mm" />
  <defs
     id="defs2" />
  <g
     inkscape:label="Layer 1"
     inkscape:groupmode="layer"
     id="layer1">
    <g
       id="g226"
       transform="matrix(0.26458333,0,0,0.26458333,0.49911115,0.14053853)">
      <path
         class="st0"
         d="M 855.1,309.4 C 810.2,132.8 655,5.3 472.8,0.2 376.5,-2.5 275.1,29.4 201.4,141.2 69.5,341 209.5,479 307.1,544.7 c 47.2,31.8 89.6,70 126.2,113.5 65.9,78.2 192.8,175.5 343.8,23.1 C 886.6,570.8 885,427 855.1,309.4 Z"
         id="path13" />
      <ellipse
         class="st1"
         cx="553"
         cy="751.40002"
         rx="553"
         ry="32"
         id="ellipse15" />
      <ellipse
         class="st2"
         cx="199"
         cy="746.40002"
         rx="117"
         ry="14"
         id="ellipse17" />
      <ellipse
         class="st2"
         cx="898"
         cy="752.40002"
         rx="117"
         ry="14"
         id="ellipse19" />
      <path
         class="st3"
         d="M 708.1,141.7 C 652.2,122 597,121.2 553,153.1 c -44,-32 -99.2,-31.2 -155.1,-11.4 -89.4,31.6 -146.8,99.8 -103.7,221.7 40.2,113.5 231,206.2 256.9,218.3 0.4,0.9 0.7,1.4 0.7,1.4 0,0 0.4,-0.2 1.1,-0.5 0.7,0.3 1.1,0.5 1.1,0.5 0,0 0.2,-0.5 0.7,-1.4 26,-12.2 216.8,-104.8 256.9,-218.3 43.3,-121.8 -14.1,-190 -103.5,-221.7 z"
         id="path21" />
      <polygon
         class="st1"
         points="545.2,358.4 541.4,458.9 487,355.4 541.1,467.2 533,680.4 573,680.4 564.7,461.5 616,355.4 564.4,453.6 562,389.4 585,328.4 561.4,375.8 558.1,289 589,207.4 557.5,270.8 553,153.4 545.6,348 478,219.4 "
         id="polygon23" />
      <path
         class="st2"
         d="m 745,710.7 c 0,62.2 -86.7,43 -192.8,43 -106.1,0 -191.5,19.2 -191.5,-43 0,-62.2 86.7,-75.7 192.8,-75.7 106.1,0 191.5,13.5 191.5,75.7 z"
         id="path25" />
      <path
         class="st1"
         d="m 745,695.4 c 0,62.2 -86.7,43 -192.8,43 -106.1,0 -191.5,19.2 -191.5,-43 0,-62.2 86.7,-75.7 192.8,-75.7 106.1,0 191.5,13.5 191.5,75.7 z"
         id="path27" />
      <path
         class="st4"
         d="m 307.8,511.3 c 0,0 -14.3,33 0,33.9 14.3,0.9 15.2,-33.9 15.2,-33.9 z"
         id="path29" />
      <polygon
         class="st5"
         points="239.1,676.2 272.1,676.2 236.4,495.2 200.8,498.8 225.7,617.4 "
         id="polygon31" />
      <polygon
         class="st2"
         points="239.1,676.2 272.1,676.2 236.4,495.2 200.8,498.8 225.7,617.4 "
         id="polygon33" />
      <polygon
         class="st4"
         points="239.1,678 239.1,692.3 257.8,695.8 259.6,681.6 "
         id="polygon35" />
      <path
         class="st5"
         d="m 261.4,691.4 -25,-1.8 c 0,0 -7.1,31.2 -7.1,33.9 0,2.7 -16.9,29.4 -5.3,31.2 11.6,1.8 28.5,3.6 30.3,-1.8 1.8,-5.4 1.8,-20.5 5.3,-26.7 3.5,-6.2 7.1,-13.4 6.2,-16.9 z"
         id="path37" />
      <path
         class="st5"
         d="m 243.6,502.4 c 0,0 -26.7,53.5 -19.6,96.3 7.1,42.8 7.1,82.9 8.9,84.7 1.8,1.8 35.7,4.5 35.7,4.5 0,0 0.9,-81.1 -1.8,-90 -2.7,-8.9 15.2,-58 22.3,-70.4 7.1,-12.4 -45.5,-25.1 -45.5,-25.1 z"
         id="path39" />
      <path
         class="st6"
         d="m 211.5,309.8 c 0,0 -38.3,-8 -33,12.5 5.3,20.5 26.7,25.9 26.7,25.9 z"
         id="path41" />
      <path
         class="st6"
         d="m 220.4,414.1 c 0,0 -18.7,6.2 -18.7,38.3 0,32.1 -8.9,56.2 0,57.1 8.9,0.9 60.6,1.8 60.6,1.8 z"
         id="path43" />
      <polygon
         class="st6"
         points="315.8,333 287.3,354.4 248.9,366 223.9,348.1 225.7,324.1 248.9,306.2 281,317.8 302.4,313.4 "
         id="polygon45" />
      <path
         class="st4"
         d="m 256,288.4 c 0,0 0.9,15.2 -3.6,17.8 -4.5,2.6 41,8.9 41,8.9 L 297,291 Z"
         id="path47" />
      <path
         class="st2"
         d="m 256,288.4 c 0,0 0.9,15.2 -3.6,17.8 -4.5,2.6 41,8.9 41,8.9 L 297,291 Z"
         id="path49" />
      <circle
         class="st4"
         cx="280.10001"
         cy="275"
         r="31.200001"
         id="circle51" />
      <path
         class="st6"
         d="m 309.5,333 12,0.4 c 0,0 10.3,-0.4 12,45.9 1.7,46.3 0,111.4 0,111.4 0,0 5.3,33 -8.9,31.2 -14.2,-1.8 -28.5,-0.9 -22.3,-6.2 6.2,-5.3 8.9,-35.7 8.9,-35.7 L 296.9,371.2 Z"
         id="path53" />
      <path
         class="st1"
         d="m 248.9,307.9 c 0,0 -33.9,-2.6 -39.2,0.1 -5.3,2.7 -9.8,28.5 -9.8,28.5 L 199,357 c 0,0 5.9,42.8 12.7,44.1 6.9,1.3 6,8.5 2.4,11.1 -3.6,2.6 28.5,139.1 38.3,140 9.8,0.9 20.5,-11.6 20.5,-11.6 0,0 19.6,-4.5 24.1,-8 4.5,-3.5 9.8,-106.1 1.8,-107.9 0,0 -8.9,-1.8 -8,-4.5 0.9,-2.7 12.2,-7.8 12.2,-7.8 l -4.1,-41.3 c 0,0 6.2,-34.8 22.3,-38.3 0,0 -7.1,-8.9 -9.8,-8.9 -2.7,0 -19.6,3.6 -25,8.9 -5.4,5.3 -10.7,22.3 -23.2,15.2 -12.5,-7.1 -22.3,-18.7 -19.6,-24.1 2.7,-5.4 5.3,-16 5.3,-16 z"
         id="path55" />
      <path
         class="st1"
         d="m 190,239 c 3.4,2.9 6.9,5.8 9.3,9.2 3.2,4.5 4.4,9.6 4.8,14.7 0.4,4.3 0.1,8.8 -2.9,12.5 -2.1,2.6 -5.6,4.6 -7,7.5 -1.6,3.2 -0.3,6.8 1.7,9.9 2,3.1 4.8,5.8 6.6,8.9 2.6,4.5 3,10 0.9,14.7 -1.9,4.4 -5.8,8.7 -4.6,13.2 1,3.7 5.3,7.3 3,10.7 -1.3,1.8 -4.2,2.6 -6.9,2.8 -6.6,0.4 -13.4,-1.9 -17.5,-5.9 -4,-4 -6,-9.8 -12.2,-11.6 -2.3,-0.6 -4.8,-0.6 -7,-1.2 -4.3,-1.2 -7.4,-4.9 -7.9,-9.3 -0.7,-6.5 3.4,-12.7 8.1,-18 3.4,-3.9 7.2,-7.4 11.2,-10.7 5.7,-4.6 12.1,-8.9 15.4,-14.8 3.7,-6.7 2.4,-15 -3.3,-20.8 -2.1,-2.2 -4.8,-4 -6.6,-6.3 -2.2,-2.8 -6,-12.8 -1.5,-15.1 5.1,-2.7 13.6,7.3 16.4,9.6 z"
         id="path57" />
      <path
         class="st7"
         d="m 141.9,646.8 -8.9,58 c 0,0 15.2,36.6 28.5,36.6 13.3,0 21.4,-1.8 21.4,-3.6 0,-1.8 -8.9,-12.5 -13.4,-14.3 -4.5,-1.8 -8.9,-21.4 -8.9,-26.7 0,-5.3 4.5,-49.9 4.5,-49.9 h -23.2 z"
         id="path59" />
      <path
         class="st2"
         d="m 141.9,646.8 -8.9,58 c 0,0 15.2,36.6 28.5,36.6 13.3,0 21.4,-1.8 21.4,-3.6 0,-1.8 -8.9,-12.5 -13.4,-14.3 -4.5,-1.8 -8.9,-21.4 -8.9,-26.7 0,-5.3 4.5,-49.9 4.5,-49.9 h -23.2 z"
         id="path61" />
      <path
         class="st5"
         d="m 164.2,702.1 c 0,0 -28.5,-4.5 -31.2,-6.2 -2.7,-1.7 -11.6,34.8 2.7,45.5 14.3,10.7 24.1,8.9 26.7,8.9 2.6,0 16,0 18.7,-1.8 2.7,-1.8 4.5,-12.5 1.8,-16.9 -2.7,-4.4 -13.4,-8.9 -14.3,-13.4 -0.9,-4.5 -4.4,-16.1 -4.4,-16.1 z"
         id="path63" />
      <path
         class="st2"
         d="m 164.2,702.1 c 0,0 -28.5,-4.5 -31.2,-6.2 -2.7,-1.7 -11.6,34.8 2.7,45.5 14.3,10.7 24.1,8.9 26.7,8.9 2.6,0 16,0 18.7,-1.8 2.7,-1.8 4.5,-12.5 1.8,-16.9 -2.7,-4.4 -13.4,-8.9 -14.3,-13.4 -0.9,-4.5 -4.4,-16.1 -4.4,-16.1 z"
         id="path65" />
      <path
         class="st7"
         d="m 121.4,649.5 c 0,0 0.9,36.6 -14.3,41.9 C 91.9,696.7 124,719 124,719 l 14.3,-11.6 10.7,-64.2 z"
         id="path67" />
      <path
         class="st5"
         d="m 113.4,678 c 0,0 2.9,25.5 25.1,19.4 0,0 2.5,33.2 6.1,37.6 3.6,4.4 13.4,17.8 -2.7,17.8 -16.1,0 -26.7,-0.9 -32.1,-7.1 -5.4,-6.2 -17.8,-20.4 -21.4,-22.2 -3.6,-1.8 11.6,-40.1 14.3,-40.1 2.7,0 10.7,-5.4 10.7,-5.4 z"
         id="path69" />
      <path
         class="st1"
         d="m 101.8,464.9 c 0,0 -4.5,22.3 7.1,48.1 11.6,25.9 22.3,87.4 16.9,96.3 -5.4,8.9 -15.2,46.4 -5.3,51.7 9.9,5.3 77.6,8.9 82,3.6 4.4,-5.3 0,-62.4 -8,-70.4 -8,-8 6.2,-95.4 6.2,-95.4 l -4.5,-20.5 z"
         id="path71" />
      <circle
         class="st7"
         cx="167.8"
         cy="267.89999"
         r="31.200001"
         id="circle73" />
      <path
         class="st7"
         d="m 148.2,278.6 c 0,0 -11.6,28.5 -27.6,32.1 -16,3.6 -20.6,55.3 -20.6,55.3 l 73.1,-14.3 22.3,-9.8 c 0,0 1.8,-21.4 -6.2,-25.9 -8,-4.5 -24.1,-2.7 -24.1,-2.7 0,0 0,-17.8 8,-21.4 8,-3.6 -24.9,-13.3 -24.9,-13.3 z"
         id="path75" />
      <path
         class="st8"
         d="m 148.2,344.6 c 0,0 -1.8,-34.8 -27.6,-30.3 0,0 -5.3,-1.8 -16.9,15.2 l -3.6,-7.1 c 0,0 15.2,-14 24.1,-12.8 8.9,1.2 14.3,-4.1 33,35.1 l 25.9,-3.6 -2.7,-31.2 h 2.7 l 7.1,26.7 c 0,0 9.8,0 10.7,8 v 8 c 0,0 15.2,10.7 12.5,33.9 -2.7,23.2 -3.6,43.7 -3.6,43.7 0,0 -3.6,30.3 0,41 3.6,10.7 24.1,39.2 8,41.9 -16,2.7 -22.3,2.7 -22.3,2.7 l -3.6,-23.2 c 0,0 2.7,9.8 -14.3,10.7 -17,0.9 -66.9,-13.4 -66.9,-15.2 0,-1.8 1.8,-19.6 -2.7,-16 -4.5,3.6 -6.2,22.3 -12.5,22.3 -6.3,0 9.8,-73.1 9.8,-73.1 L 100,366 v -6.2 c 0,-0.1 34.8,3.5 48.2,-15.2 z"
         id="path77" />
      <path
         class="st7"
         d="m 118.7,318.7 c 0,0 -18.7,16 -20.5,66.9 -1.8,50.9 57.1,93.6 57.1,93.6 0,0 16,53.5 27.6,41 11.6,-12.5 -15.2,-53.5 -15.2,-53.5 l -41,-54.4 12.5,-79.3 c 0.1,0 0.1,-18.7 -20.5,-14.3 z"
         id="path79" />
      <path
         class="st8"
         d="m 102.9,345.8 c 0,0 -7.4,1.4 -9.2,13 -1.8,11.6 7.1,22.3 11.6,22.3 4.5,0 48.1,-8 53.5,-15.2 5.4,-7.2 19.6,-4.5 19.6,-4.5 l -30.3,-16 c 0,0 -22.2,20.2 -47.2,12.3 z"
         id="path81" />
      <path
         class="st1"
         d="m 202.6,301.6 c -1.8,-3.1 -4.6,-5.8 -6.6,-8.9 -1.6,-2.1 -2.4,-4.6 -2.4,-7.2 -5.8,8.5 -15.4,13.6 -25.7,13.6 -2.7,6.5 -2.7,15.2 -2.7,15.2 0,0 5.2,9.8 -0.9,11 0.4,0.1 0.8,0.2 1.1,0.3 6.2,1.7 8.1,7.6 12.2,11.6 4.1,4 10.9,6.3 17.5,5.9 2.7,-0.2 5.6,-0.9 6.9,-2.8 2.3,-3.3 -2,-7 -3,-10.7 -1.2,-4.5 2.7,-8.8 4.6,-13.2 1.9,-4.8 1.6,-10.3 -1,-14.8 z"
         id="path83" />
      <path
         class="st1"
         d="m 137.3,225 c -3.2,1.4 -6.2,3.3 -8.9,5.5 -6.8,5.4 -12.7,12.1 -15.9,20.2 -3.2,8.1 -3.6,17.5 0.3,25.2 1.7,3.5 4.2,6.8 4.1,10.7 -0.2,4.9 -4.6,8.5 -8.9,10.9 -4.3,2.4 -9.2,4.3 -11.9,8.4 -4.4,6.9 -0.5,16.4 -3.5,24.1 -1,2.6 -2.8,5.3 -1.9,7.9 6.1,0.6 12,-2.3 16.8,-6 4.8,-3.7 9,-8.3 13.9,-11.8 6.7,-4.8 14.8,-7.7 20.3,-13.8 5.6,-6.3 7.6,-14.9 5.6,-23 -0.6,-2.1 -1.4,-4.2 -1.4,-6.4 0.1,-3.6 2.7,-6.7 5.4,-9.1 2.7,-2.4 5.8,-4.5 7.6,-7.7 1.8,-3.2 2.1,-6.9 3.3,-10.4 1.2,-3.5 3.6,-7 7.3,-7.3 2.2,-0.2 4.3,0.9 6.3,1.9 l 10.3,5.4 c 1,0.7 2.3,1 3.5,1 2.3,-0.4 3.1,-3.3 3,-5.6 -0.3,-7.6 -5.7,-14.4 -12.4,-18 -6.2,-3.4 -13.6,-4.5 -20.6,-4.5 -7.5,0.2 -15.3,-0.5 -22.3,2.4 z"
         id="path85" />
      <path
         class="st8"
         d="m 293.5,237.3 c 9.7,3.2 17.6,11 21.9,20.3 1.6,3.4 2.7,7 3.2,10.7 0.7,7 -1.4,13.9 -3.7,20.5 -1.9,5.2 -4,10.9 -2.1,16 0.7,1.8 1.8,3.4 2.3,5.2 1,3.5 -0.2,7.3 -3.1,9.6 -2,1.5 -4.7,2.3 -5.8,4.6 2.2,0 3.7,2 4.8,3.9 l 5.5,8.7 -20.7,12.1 c -0.4,-7.5 -1.8,-14.9 -4.3,-22.1 -0.1,-0.5 -0.4,-0.9 -0.8,-1.3 -0.5,-0.3 -1.1,-0.4 -1.7,-0.3 -4.1,0.3 -8,1.3 -12,2 -9,1.4 -18.6,1.1 -26.9,-2.7 -3,-1.2 -5.7,-3.3 -7.6,-5.9 -1.8,-2.7 -2.5,-6.4 -1,-9.3 2.3,-4.4 8.2,-5.4 11.8,-8.8 1.6,6.4 8.9,10.2 15.5,9.8 1.6,-0.1 3.2,-0.5 4.7,-1.1 3,-1.4 5.1,-4.3 6.8,-7.2 4.7,-8 8.3,-16.6 10.9,-25.6 0.8,-2.4 1.4,-4.9 1.7,-7.5 0.7,-7.8 -3.7,-15.7 -10.4,-19.8 -6.7,-4.1 -13.5,-2.4 -20.8,0.5 2.5,-1 2.3,-5.9 4.2,-7.6 2.4,-2 5.3,-3.6 8.3,-4.6 6.4,-2.1 13.1,-2.1 19.3,-0.1 z"
         id="path87" />
      <path
         class="st1"
         d="m 847.8,354.2 c 0,0 50.8,13.4 51.7,19.6 0.9,6.2 -25.9,23.3 -25.9,23.3 l -56.2,-26.8 z"
         id="path89" />
      <path
         class="st2"
         d="m 847.8,354.2 c 0,0 50.8,13.4 51.7,19.6 0.9,6.2 -25.9,23.3 -25.9,23.3 l -56.2,-26.8 z"
         id="path91" />
      <path
         class="st9"
         d="m 874.1,344 c 0,0 -16,19.6 -35.7,17.8 -19.7,-1.8 24.1,41.9 24.1,41.9 l 22.3,-19.6 c 0,0 6.2,-25.9 11.6,-26.7 5.4,-0.8 -22.3,-13.4 -22.3,-13.4 z"
         id="path93" />
      <path
         class="st2"
         d="m 874.1,344 c 0,0 -16,19.6 -35.7,17.8 -19.7,-1.8 24.1,41.9 24.1,41.9 l 22.3,-19.6 c 0,0 6.2,-25.9 11.6,-26.7 5.4,-0.8 -22.3,-13.4 -22.3,-13.4 z"
         id="path95" />
      <path
         class="st4"
         d="m 973,609.7 c 0,0 2.7,16 -5.3,19.6 -8,3.6 -24.1,58 -24.1,58 l 15.2,15.2 42.8,-69.5 c 0,0 12.5,-25 8,-25 -4.5,0 -36.6,1.7 -36.6,1.7 z"
         id="path97" />
      <path
         class="st2"
         d="m 973,609.7 c 0,0 2.7,16 -5.3,19.6 -8,3.6 -24.1,58 -24.1,58 l 15.2,15.2 42.8,-69.5 c 0,0 12.5,-25 8,-25 -4.5,0 -36.6,1.7 -36.6,1.7 z"
         id="path99" />
      <path
         class="st5"
         d="m 947.2,685.4 -3.6,-1.8 c 0,0 -20.5,10.7 -17.8,16 2.7,5.3 8.9,16 8.9,19.6 0,3.6 3.6,25 15.2,26.7 11.6,1.7 11.6,-8.9 9.8,-13.4 -1.8,-4.5 -2.7,-19.6 -1.8,-25 0.8,-3.7 2.2,-7.3 4.1,-10.6 z"
         id="path101" />
      <path
         class="st4"
         d="m 929.3,605.2 c 0,0 -2.7,66.9 16,94.5 0,0 7.1,19.6 8,21.4 0.9,1.8 16,-6.2 16,-6.2 0,0 -8,-53.5 -7.1,-62.4 0.9,-8.9 -4.5,-20.5 -4.5,-20.5 l -0.9,-26.7 h -27.5 z"
         id="path103" />
      <path
         class="st5"
         d="m 971.2,710.4 -18.6,8.8 c 0,0 1.7,13.5 2.6,16.2 0.9,2.7 -12.5,22.3 1.8,24.1 14.3,1.8 28.5,0 25,-4.5 -3.5,-4.5 -8.9,-24.1 -8,-29.4 0.9,-5.3 -2.8,-15.2 -2.8,-15.2 z"
         id="path105" />
      <path
         class="st4"
         d="m 933.8,356.5 c 0,0 -11.6,-0.9 -13.4,33 -1.1,19.6 -1.1,39.2 0,58.8 l 28.5,0.9 -2.7,-53.5 z"
         id="path107" />
      <path
         class="st4"
         d="m 967.7,330.6 c 0,0 2.7,19.6 -9.8,21.4 -12.5,1.8 14.3,29.4 14.3,29.4 l 34.8,-19.6 c 0,0 -13.4,-24.1 -6.2,-35.7 7.2,-11.6 -33.1,4.5 -33.1,4.5 z"
         id="path109" />
      <path
         class="st2"
         d="m 967.7,330.6 c 0,0 2.7,19.6 -9.8,21.4 -12.5,1.8 14.3,29.4 14.3,29.4 l 34.8,-19.6 c 0,0 -13.4,-24.1 -6.2,-35.7 7.2,-11.6 -33.1,4.5 -33.1,4.5 z"
         id="path111" />
      <circle
         class="st9"
         cx="896.29999"
         cy="338.60001"
         r="31.200001"
         id="circle113" />
      <circle
         class="st4"
         cx="980.09998"
         cy="310.10001"
         r="31.200001"
         id="circle115" />
      <path
         class="st9"
         d="m 802.7,419.8 c 0,0 -0.9,33 0,38.3 0.9,5.3 -5.3,50.8 -5.3,50.8 L 817,494.6 c 0,0 15.2,-48.1 8.9,-60.6 -6.3,-12.5 -23.2,-14.2 -23.2,-14.2 z"
         id="path117" />
      <path
         class="st9"
         d="m 905.3,434 c 0,0 -3.6,26.7 8,28.5 11.6,1.8 14.3,-20.5 14.3,-20.5 l -4.5,-22.3 z"
         id="path119" />
      <path
         class="st1"
         d="m 879.5,331.8 c 1.6,1.5 3.2,3.1 5.3,3.7 3.5,1.1 7.7,-0.6 10.6,1.5 2.8,2 3,6.6 6.1,8.2 1.3,0.5 2.7,0.7 4.1,0.6 l 10.9,-0.1 c -1,2.7 0.3,5.7 3,6.7 0.2,0.1 0.4,0.2 0.6,0.2 1.1,0.2 2.6,0.2 3.1,1.2 0.6,1.1 0.3,3.3 1.5,3 1.4,-2.4 3.4,-4.5 5.7,-6 1.3,-0.9 2.8,-1.6 3.6,-3 1.1,-1.9 0.5,-4.2 0.4,-6.4 -0.2,-6.8 5.2,-13.1 3.8,-19.8 -0.4,-1.7 -1.1,-3.3 -1.9,-4.7 l -7,-13.9 c -1.2,-2.5 -2.7,-5.1 -5.2,-6.1 -3.8,-1.6 -8,1.2 -12,2 -4.6,0.8 -9.3,-1.1 -13.8,-2.4 -4.5,-1.3 -10,-1.8 -13.5,1.4 -1.4,1.3 -2.4,3.1 -4.1,4 -2.8,1.6 -7.3,0.7 -8.8,3.6 -0.7,1.4 -0.2,3.2 -0.7,4.7 -0.6,2.1 -2.8,3.3 -4.6,4.5 -1.8,1.2 -3.5,3.4 -2.8,5.4 0.3,0.9 1,1.6 1.3,2.5 0.5,1.6 -0.5,3.3 -1.3,4.8 -2.7,5.1 1.7,6 5,3.8 4.2,-2.8 6.6,-3.1 10.7,0.6 z"
         id="path121" />
      <path
         class="st6"
         d="m 958.7,345.8 c 0,0 1.8,17.8 16,17.8 14.2,0 27.5,-11.9 27.5,-11.9 0,0 25.1,6.6 25.1,10.1 0,3.5 -20.5,29.4 -20.5,29.4 0,0 -8.9,67.8 -5.3,71.3 3.6,3.5 41,131.1 34.8,141.8 -6.2,10.7 -3.6,10.7 -45.5,13.4 -41.9,2.7 -45.5,11.6 -63.3,-1.8 -17.8,-13.4 -20.5,-21.4 -27.6,-22.3 -7.1,-0.9 -15.2,-99 -8,-112.3 7.2,-13.3 19.6,-30.3 24.1,-33.9 4.5,-3.6 15,-37.5 15,-37.5 l 0.1,-55.2 z"
         id="path123" />
      <path
         class="st4"
         d="m 1019.4,360 c 0,0 20.5,-2.7 14.3,18.7 -6.2,21.4 -15.2,60.6 -29.4,62.4 -14.2,1.8 2.7,-51.7 2.7,-51.7 z"
         id="path125" />
      <path
         class="st1"
         d="m 975.4,276.9 c 9.8,-2.2 20.2,-2.7 29.8,0.4 9.6,3.1 18.3,9.9 21.8,19.4 3.5,9.5 1,21.2 -7,27.3 -4.2,3.1 -9.6,4.6 -13.3,8.3 -4,4 -6,10.4 -11.3,12.3 -1.2,-3.9 -1.3,-8.1 -0.4,-12.1 0.7,-2.1 1.1,-4.2 1.4,-6.4 0.1,-2.2 -0.7,-4.6 -2.6,-5.7 -2,-1.1 -4.6,-0.4 -6.9,-0.6 -5.8,-0.4 -9.5,-6.2 -11.7,-11.6 -2.2,-5.4 -4.1,-11.5 -9.1,-14.4 -4.7,-2.7 -9.9,-1.5 -15,-0.8 -0.8,-2.8 7,-8.8 9.3,-10.3 4.7,-2.8 9.7,-4.8 15,-5.8 z"
         id="path127" />
      <path
         class="st4"
         d="m 1014.9,419.8 c 0,0 -8,-35.7 -8,-40.1 0,-4.4 -4.5,-25.9 -1.8,-31.2 2.7,-5.3 8.9,-35.7 -0.9,-33 -9.8,2.7 -14.3,41 -14.3,41 0,0 1.8,22.3 0,29.4 -1.8,7.1 -0.9,54.4 5.3,55.3 6.2,0.9 19.7,-3.6 19.7,-21.4 z"
         id="path129" />
      <circle
         class="st1"
         cx="1023.4"
         cy="290"
         r="19.6"
         id="circle131" />
      <path
         class="st1"
         d="m 813,370.3 c 0,0 -17.4,25.4 -17.4,54.8 0,0 21.4,-0.9 33.9,16.9 C 842,459.8 813,370.3 813,370.3 Z"
         id="path133" />
      <path
         class="st9"
         d="m 810.8,679.2 c 0,0 13.4,28.5 13.4,42.8 0,14.3 27.6,2.7 27.6,2.7 0,0 -17.8,-46.4 -16,-52.6 1.8,-6.2 -25,7.1 -25,7.1 z"
         id="path135" />
      <path
         class="st9"
         d="m 859.8,677.4 c 0,0 3.7,53.1 -0.8,57.8 -4.5,4.7 17.7,2 17.7,2 0,0 0,-40.1 7.1,-56.2 z"
         id="path137" />
      <path
         class="st5"
         d="m 821.4,491.1 c 0,0 -26.7,12.5 -26.7,17.8 0,5.3 -4.5,32.1 -6.2,34.8 -1.7,2.7 -1.8,26.7 0,30.3 1.8,3.6 5.3,113.2 18.7,113.2 13.4,0 32.1,-6.2 33,-11.6 0,0 -12.5,-49 -8,-61.5 4.5,-12.5 6.2,-53.5 15.2,-58.8 9,-5.3 8.9,5.3 8.9,5.3 l -1.8,74.9 c 0,0 -1.8,48.1 1.8,49 3.6,0.9 26.7,4.5 29.4,0.9 2.7,-3.6 11.6,-52.6 11.6,-58 0,-5.4 8.9,-62.4 9.8,-68.6 0.9,-6.2 3.6,-59.7 -2.7,-63.3 -6.3,-3.6 -83,-4.4 -83,-4.4 z"
         id="path139" />
      <path
         class="st5"
         d="m 835.7,721.1 c 0,0 -8.9,-7.1 -14.3,6.2 -3.1,7.9 -8,14.9 -14.3,20.5 0,0 -3.6,8.9 11.6,7.1 15.2,-1.8 41,-17.8 41,-17.8 0,0 -6.4,-16.3 -9.4,-16.2 -3,0.1 -4.8,6.4 -14.6,0.2 z"
         id="path141" />
      <path
         class="st5"
         d="m 873.2,730.9 c 0,0 -13.4,-3.6 -16,0 -2.6,3.6 -6.2,24.1 -1.8,26.7 4.4,2.6 24.1,1.8 26.7,0 2.6,-1.8 0,-13.4 0,-13.4 z"
         id="path143" />
      <path
         class="st1"
         d="m 858,376.1 c 0,0 -13.4,-11.6 -9.8,-21.4 0,0 -40.1,13.4 -39.2,24.1 0.9,10.7 16.9,55.3 16.9,55.3 0,0 -25.9,49.9 -12.5,60.6 13.4,10.7 9.8,-1.8 33,6.2 23.2,8 33,4.5 41.9,2.7 8.9,-1.8 10.7,-0.9 16.9,-0.9 6.2,0 2.7,-17.8 0,-27.6 -2.7,-9.8 -6.2,-24.1 -3.6,-27.6 2.6,-3.5 25.9,-66 25.9,-66 0,0 -18,-14.4 -39.3,-9.4 0,-0.1 -15,12 -30.2,4 z"
         id="path145" />
      <path
         class="st1"
         d="m 918.6,384.1 c 0,-0.9 8.9,-2.7 8.9,-2.7 0,0 5.3,35.7 2.7,42.8 -2.6,7.1 -25,15.2 -28.5,14.3 -3.5,-0.9 16.9,-54.4 16.9,-54.4 z"
         id="path147" />
      <circle
         class="st1"
         cx="899"
         cy="295.70001"
         r="21"
         id="circle149" />
    </g>
  </g>
  <style
     type="text/css"
     id="style9">
	.st0{fill:#F2F2F2;}
	.st1{fill:#3F3D56;}
	.st2{opacity:0.1;enable-background:new    ;}
	.st3{fill:#93E9E3;}
	.st4{fill:#FFB9B9;}
	.st5{fill:#2F2E41;}
	.st6{fill:#56DDD2;}
	.st7{fill:#A0616A;}
	.st8{fill:#D0CDE1;}
	.st9{fill:#CF9595;}
</style>
</svg>
