<svg width="697" height="633" xmlns="http://www.w3.org/2000/svg" xmlns:xlink="http://www.w3.org/1999/xlink" xml:space="preserve" overflow="hidden"><defs><clipPath id="clip0"><rect x="1475" y="170" width="697" height="633"/></clipPath><clipPath id="clip1"><rect x="1757" y="170" width="416" height="263"/></clipPath><clipPath id="clip2"><rect x="1757" y="170" width="416" height="263"/></clipPath><clipPath id="clip3"><rect x="1757" y="170" width="416" height="263"/></clipPath><clipPath id="clip4"><rect x="1475" y="432" width="536" height="371"/></clipPath><clipPath id="clip5"><rect x="1475" y="432" width="536" height="371"/></clipPath><clipPath id="clip6"><rect x="1475" y="432" width="536" height="371"/></clipPath></defs><g clip-path="url(#clip0)" transform="translate(-1475 -170)"><g clip-path="url(#clip1)"><g clip-path="url(#clip2)"><g clip-path="url(#clip3)"><path d="M361.259 198.632C357.456 200.034 350.776 201.186 343.046 202.112 322.026 204.635 293.221 205.53 293.221 205.53 293.221 205.53 145.145 217.811 34.1648 172.136 34.1648 172.136 18.0225 163.674 32.9971 152.284 35.3029 150.582 37.7543 149.087 40.3228 147.815L40.5058 147.632C42.2091 146.058 44.0499 144.639 46.0059 143.393 51.7552 139.676 61.4632 135.27 73.2809 137.267L364.762 184.409C364.762 184.409 375.408 193.405 361.259 198.632Z" fill="#3F3D56" transform="matrix(1.00042 0 0 1 1731.35 125.836)"/><path d="M303.182 177.266 364.202 133.973 391.095 138.625 364.762 184.409C364.762 184.409 303.883 184.896 303.182 177.266Z" fill="#3F3D56" transform="matrix(1.00042 0 0 1 1731.35 125.836)"/><path d="M122.919 106.733 244.463 72.6465 264.054 76.7414 209.15 101.44 191.992 120.638 122.919 106.733Z" fill="#3F3D56" transform="matrix(1.00042 0 0 1 1758 170.067)"/><path d="M343.046 202.112C322.026 204.635 293.221 205.53 293.221 205.53 293.221 205.53 145.145 217.811 34.1648 172.136 34.1648 172.136 18.0225 163.674 32.9971 152.284L33.0477 152.494C33.0477 152.494 56.9946 168.679 171.412 182.19Z" fill="#78E4DC" transform="matrix(1.00042 0 0 1 1731.35 125.836)"/><path d="M323.509 201.178 377.849 223.366 391.5 221.851 358.997 197.422C358.997 197.422 319.683 189.033 323.509 201.178Z" fill="#3F3D56" transform="matrix(1.00042 0 0 1 1731.35 125.836)"/><path d="M52.7517 154.865C50.1593 154.908 44.2192 150.56 40.5252 147.632 42.2286 146.058 44.0694 144.639 46.0254 143.393 49.0032 145.678 54.3009 149.376 57.2476 149.232 61.5021 149.057 56.6559 154.795 52.7517 154.865Z" fill="#78E4DC" transform="matrix(1.00042 0 0 1 1731.35 125.836)"/><path d="M299.62 277.873 264.732 279.698 166.64 213.556 148.43 201.275 139.586 195.308C156.18 181.295 223.883 200.621 223.883 200.621 225.18 201.715 225.592 203.533 225.534 205.542 225.421 209.302 223.654 213.716 222.972 215.304 222.809 215.693 222.708 215.9 222.708 215.9Z" fill="#3F3D56" transform="matrix(1.00042 0 0 1 1731.35 125.836)"/><path d="M184.72 243.58 178.668 247.41 182.334 240.742C181.296 239.914 180.011 239.455 178.683 239.438L178.586 239.438C178.166 239.446 177.746 239.415 177.332 239.344L175.285 240.645 176.161 239.049C174.71 238.539 173.457 237.586 172.58 236.324L168.917 238.659 171.229 234.448C169.088 231.875 166.2 230.298 163.02 230.298 159.209 230.298 155.814 232.564 153.623 236.098 152.3 238.253 149.922 239.531 147.395 239.446L147.192 239.446C142.985 239.446 139.575 244.214 139.575 250.1 139.575 255.985 142.985 260.753 147.192 260.753 148.117 260.75 149.027 260.522 149.843 260.088 152.743 258.681 156.113 258.616 159.065 259.909 161.559 261.022 164.41 261.022 166.904 259.909 169.831 258.64 173.164 258.704 176.04 260.084 176.851 260.507 177.752 260.73 178.668 260.734 182.875 260.734 186.285 255.966 186.285 250.08 186.316 247.817 185.778 245.581 184.72 243.58Z" fill="#F2F2F2" transform="matrix(1.00042 0 0 1 1731.35 125.836)"/><path d="M173.335 259.169C171.137 258.753 168.865 259 166.807 259.878 164.314 260.994 161.464 260.994 158.971 259.878 156.02 258.581 152.648 258.646 149.75 260.057 148.932 260.49 148.021 260.718 147.095 260.722 143.358 260.722 140.248 256.954 139.602 251.987 140.35 251.444 140.984 250.761 141.47 249.975 143.662 246.444 147.056 244.179 150.867 244.179 154.678 244.179 158.037 246.398 160.225 249.901 161.552 252.049 163.908 253.344 166.433 253.315L166.531 253.315C169.505 253.307 172.081 255.689 173.335 259.169Z" fill="#000000" fill-opacity="0.03" transform="matrix(1.00042 0 0 1 1731.35 125.836)"/><path d="M355.603 238.519 349.55 242.35 353.217 235.682C352.179 234.853 350.894 234.394 349.566 234.378L349.468 234.378C349.048 234.386 348.629 234.355 348.215 234.284L346.167 235.584 347.043 233.988C345.593 233.479 344.34 232.526 343.462 231.264L339.799 233.599 342.111 229.387C339.971 226.814 337.082 225.238 333.902 225.238 330.091 225.238 326.697 227.503 324.505 231.038 323.182 233.192 320.804 234.471 318.277 234.385L318.075 234.385C313.867 234.385 310.457 239.154 310.457 245.039 310.457 250.925 313.867 255.693 318.075 255.693 318.999 255.69 319.91 255.462 320.726 255.027 323.625 253.621 326.996 253.555 329.947 254.848 332.442 255.962 335.292 255.962 337.787 254.848 340.714 253.58 344.047 253.644 346.923 255.024 347.734 255.447 348.635 255.67 349.55 255.674 353.758 255.674 357.168 250.905 357.168 245.02 357.198 242.756 356.66 240.521 355.603 238.519Z" fill="#F2F2F2" transform="matrix(1.00042 0 0 1 1731.35 125.836)"/><path d="M344.217 254.109C342.019 253.693 339.747 253.94 337.689 254.817 335.197 255.933 332.347 255.933 329.854 254.817 326.903 253.521 323.531 253.586 320.632 254.996 319.814 255.429 318.903 255.658 317.978 255.662 314.241 255.662 311.131 251.894 310.485 246.927 311.232 246.384 311.867 245.701 312.353 244.915 314.544 241.384 317.939 239.119 321.75 239.119 325.56 239.119 328.92 241.337 331.107 244.841 332.439 246.994 334.804 248.291 337.335 248.255L337.433 248.255C340.387 248.247 342.964 250.629 344.217 254.109Z" fill="#000000" fill-opacity="0.03" transform="matrix(1.00042 0 0 1 1731.35 125.836)"/><path d="M355.603 110.844 349.55 114.674 353.217 108.006C352.179 107.178 350.894 106.719 349.566 106.702L349.468 106.702C349.048 106.71 348.629 106.679 348.215 106.609L346.167 107.909 347.043 106.313C345.593 105.804 344.34 104.851 343.462 103.588L339.799 105.924 342.111 101.712C339.971 99.1391 337.082 97.5626 333.902 97.5626 330.091 97.5626 326.697 99.8281 324.505 103.362 323.182 105.517 320.804 106.795 318.277 106.71L318.075 106.71C313.867 106.71 310.457 111.478 310.457 117.364 310.457 123.249 313.867 128.018 318.075 128.018 318.999 128.015 319.91 127.786 320.726 127.352 323.625 125.945 326.996 125.88 329.947 127.173 332.439 128.293 335.289 128.3 337.787 127.193 340.714 125.924 344.047 125.988 346.923 127.368 347.734 127.791 348.635 128.014 349.55 128.018 353.758 128.018 357.168 123.249 357.168 117.364 357.201 115.094 356.663 112.852 355.603 110.844Z" fill="#F2F2F2" transform="matrix(1.00042 0 0 1 1731.35 125.836)"/><path d="M344.217 126.434C342.019 126.018 339.747 126.264 337.689 127.142 335.197 128.258 332.347 128.258 329.854 127.142 326.903 125.845 323.531 125.911 320.632 127.321 319.814 127.754 318.903 127.982 317.978 127.987 314.241 127.987 311.131 124.219 310.485 119.252 311.232 118.709 311.867 118.025 312.353 117.239 314.544 113.709 317.939 111.443 321.75 111.443 325.56 111.443 328.92 113.662 331.107 117.165 332.439 119.319 334.804 120.615 337.335 120.579L337.433 120.579C340.387 120.571 342.964 122.954 344.217 126.434Z" fill="#000000" fill-opacity="0.03" transform="matrix(1.00042 0 0 1 1731.35 125.836)"/><path d="M105.694 97.0683 102.677 98.9795 104.507 95.6553C103.99 95.2395 103.348 95.0095 102.685 95.0013L102.638 95.0013C102.429 95.0037 102.219 94.9877 102.012 94.9546L100.992 95.6008 101.428 94.8223C100.704 94.5689 100.079 94.0932 99.6412 93.4638L97.8156 94.6315 98.9834 92.5334C98.0001 91.2618 96.4957 90.5008 94.8884 90.4626 92.9889 90.4626 91.2956 91.5915 90.2174 93.3548 89.5568 94.4326 88.3665 95.0706 87.1034 95.0247L87.0021 95.0247C84.9041 95.0247 83.203 97.4069 83.203 100.342 83.203 103.277 84.9041 105.655 87.0021 105.655 87.4634 105.654 87.9177 105.54 88.3256 105.324 89.7717 104.62 91.454 104.587 92.9266 105.235 94.1656 105.786 95.5801 105.786 96.8191 105.235 98.2796 104.601 99.9429 104.634 101.377 105.324 101.782 105.534 102.23 105.644 102.685 105.647 104.783 105.647 106.484 103.269 106.484 100.334 106.499 99.1963 106.227 98.0733 105.694 97.0683Z" fill="#F2F2F2" transform="matrix(1.00042 0 0 1 1731.35 125.836)"/><path d="M100.015 104.846C98.918 104.635 97.7829 104.759 96.7569 105.2 96.1438 105.471 95.4809 105.611 94.8106 105.612 94.1325 105.612 93.4626 105.468 92.8448 105.188 91.3715 104.544 89.6899 104.578 88.2439 105.282 87.8375 105.497 87.3844 105.611 86.9243 105.612 85.0598 105.612 83.5066 103.732 83.1836 101.257 83.5553 100.984 83.8726 100.643 84.1178 100.252 85.2077 98.489 86.9009 97.3602 88.7888 97.3602 90.6767 97.3602 92.3622 98.4774 93.4599 100.217 94.1255 101.294 95.3084 101.94 96.5739 101.918L96.6245 101.918C98.092 101.918 99.3882 103.109 100.015 104.846Z" fill="#000000" fill-opacity="0.03" transform="matrix(1.00042 0 0 1 1731.35 125.836)"/><path d="M374.279 287.413 371.263 289.325 373.092 286C372.575 285.585 371.934 285.355 371.27 285.346L371.224 285.346C371.014 285.349 370.804 285.333 370.597 285.3L369.577 285.946 370.013 285.167C369.289 284.914 368.664 284.438 368.226 283.809L366.401 284.977 367.569 282.879C366.585 281.607 365.081 280.846 363.474 280.808 361.574 280.808 359.881 281.937 358.803 283.7 358.142 284.778 356.952 285.416 355.689 285.37L355.587 285.37C353.489 285.37 351.788 287.752 351.788 290.687 351.788 293.622 353.489 296 355.587 296 356.049 295.999 356.503 295.885 356.911 295.67 358.357 294.965 360.039 294.933 361.512 295.58 362.751 296.131 364.165 296.131 365.404 295.58 366.865 294.947 368.528 294.979 369.963 295.67 370.367 295.879 370.815 295.989 371.27 295.993 373.368 295.993 375.07 293.614 375.07 290.679 375.084 289.541 374.813 288.418 374.279 287.413Z" fill="#F2F2F2" transform="matrix(1.00042 0 0 1 1731.35 125.836)"/><path d="M368.6 295.191C367.503 294.981 366.368 295.104 365.342 295.545 364.729 295.816 364.066 295.956 363.396 295.958 362.718 295.957 362.048 295.813 361.43 295.533 359.957 294.889 358.275 294.923 356.829 295.627 356.423 295.842 355.97 295.956 355.51 295.958 353.645 295.958 352.092 294.077 351.769 291.602 352.141 291.329 352.458 290.988 352.703 290.598 353.793 288.834 355.486 287.705 357.374 287.705 359.262 287.705 360.947 288.823 362.045 290.562 362.711 291.639 363.894 292.285 365.159 292.264L365.21 292.264C366.677 292.264 367.973 293.455 368.6 295.191Z" fill="#000000" fill-opacity="0.03" transform="matrix(1.00042 0 0 1 1731.35 125.836)"/><path d="M94.0165 297.534 90.9998 299.445 92.8293 296.121C92.3123 295.705 91.6709 295.475 91.0076 295.467L90.9609 295.467C90.7511 295.469 90.5412 295.453 90.3342 295.42L89.3143 296.067 89.7503 295.288C89.0267 295.035 88.4015 294.559 87.9636 293.93L86.138 295.097 87.3058 292.999C86.3225 291.728 84.818 290.967 83.2108 290.928 81.3113 290.928 79.618 292.057 78.5398 293.821 77.8792 294.898 76.6889 295.536 75.4257 295.49L75.3245 295.49C73.2264 295.49 71.5254 297.873 71.5254 300.808 71.5254 303.743 73.2264 306.121 75.3245 306.121 75.7858 306.119 76.2401 306.006 76.648 305.79 78.0941 305.086 79.7764 305.053 81.249 305.701 82.488 306.251 83.9025 306.251 85.1415 305.701 86.602 305.067 88.2653 305.1 89.6997 305.79 90.1041 306 90.5521 306.11 91.0076 306.113 93.1057 306.113 94.8067 303.735 94.8067 300.8 94.8215 299.662 94.5498 298.539 94.0165 297.534Z" fill="#F2F2F2" transform="matrix(1.00042 0 0 1 1731.35 125.836)"/><path d="M88.3373 305.311C87.2404 305.101 86.1053 305.225 85.0792 305.666 84.4662 305.936 83.8033 306.077 83.133 306.078 82.4549 306.078 81.785 305.933 81.1672 305.654 79.6939 305.01 78.0123 305.044 76.5662 305.747 76.1599 305.963 75.7068 306.077 75.2467 306.078 73.3822 306.078 71.829 304.198 71.506 301.722 71.8777 301.45 72.1949 301.109 72.4402 300.718 73.5301 298.955 75.2233 297.826 77.1112 297.826 78.9991 297.826 80.6846 298.943 81.7823 300.683 82.4479 301.759 83.6308 302.406 84.8963 302.384L84.9469 302.384C86.4144 302.384 87.7106 303.575 88.3373 305.311Z" fill="#000000" fill-opacity="0.03" transform="matrix(1.00042 0 0 1 1731.35 125.836)"/><path d="M233.377 57.5162 227.324 61.3464 230.991 54.6785C229.953 53.8502 228.668 53.3912 227.34 53.3745L227.243 53.3745C226.823 53.3827 226.403 53.3515 225.989 53.2811L223.942 54.5812 224.818 52.9852C223.367 52.4761 222.114 51.5228 221.236 50.2605L217.574 52.596 219.886 48.3843C217.745 45.8113 214.856 44.2348 211.676 44.2348 207.866 44.2348 204.471 46.5003 202.28 50.0347 200.957 52.1892 198.579 53.4675 196.052 53.3823L195.849 53.3823C191.641 53.3823 188.232 58.1506 188.232 64.0362 188.232 69.9217 191.641 74.69 195.849 74.69 196.774 74.6869 197.684 74.4584 198.5 74.0244 201.4 72.6177 204.77 72.5523 207.721 73.8454 210.213 74.9649 213.064 74.9719 215.561 73.8648 218.488 72.5963 221.821 72.6601 224.697 74.04 225.508 74.4635 226.409 74.6861 227.324 74.69 231.532 74.69 234.942 69.9217 234.942 64.0362 234.975 61.766 234.438 59.5239 233.377 57.5162Z" fill="#F2F2F2" transform="matrix(1.00042 0 0 1 1731.35 125.836)"/><path d="M221.992 73.1058C219.793 72.6901 217.521 72.9365 215.464 73.8142 212.971 74.9302 210.121 74.9302 207.628 73.8142 204.677 72.5176 201.305 72.583 198.407 73.9933 197.588 74.4261 196.678 74.6546 195.752 74.6589 192.015 74.6589 188.905 70.8909 188.259 65.924 189.007 65.381 189.641 64.6975 190.127 63.9116 192.319 60.3811 195.713 58.1156 199.524 58.1156 203.335 58.1156 206.694 60.3344 208.881 63.8376 210.213 65.9914 212.578 67.2876 215.11 67.2514L215.207 67.2514C218.161 67.2436 220.738 69.6259 221.992 73.1058Z" fill="#000000" fill-opacity="0.03" transform="matrix(1.00042 0 0 1 1731.35 125.836)"/><path d="M439.674 124.316 436.657 126.227 438.487 122.903C437.969 122.487 437.327 122.257 436.665 122.249L436.618 122.249C436.408 122.251 436.198 122.235 435.992 122.202L434.972 122.849 435.408 122.07C434.684 121.817 434.057 121.341 433.621 120.712L431.796 121.879 432.963 119.781C431.978 118.51 430.476 117.749 428.868 117.71 426.969 117.71 425.276 118.839 424.197 120.603 423.536 121.68 422.348 122.318 421.083 122.272L420.982 122.272C418.884 122.272 417.183 124.655 417.183 127.59 417.183 130.525 418.884 132.903 420.982 132.903 421.445 132.901 421.897 132.788 422.306 132.572 423.754 131.868 425.435 131.835 426.906 132.483 428.144 133.033 429.561 133.033 430.799 132.483 432.259 131.849 433.925 131.882 435.357 132.572 435.762 132.782 436.21 132.892 436.665 132.895 438.763 132.895 440.464 130.517 440.464 127.582 440.48 126.444 440.207 125.321 439.674 124.316Z" fill="#F2F2F2" transform="matrix(1.00042 0 0 1 1731.35 125.836)"/><path d="M433.995 132.093C432.897 131.883 431.764 132.007 430.737 132.448 430.122 132.718 429.46 132.859 428.79 132.86 428.121 132.857 427.455 132.713 426.844 132.436 425.373 131.792 423.687 131.826 422.243 132.529 421.838 132.745 421.383 132.859 420.924 132.86 419.059 132.86 417.506 130.98 417.183 128.504 417.557 128.232 417.872 127.891 418.117 127.5 419.207 125.737 420.9 124.608 422.788 124.608 424.676 124.608 426.362 125.725 427.459 127.465 428.121 128.536 429.297 129.181 430.554 129.166L430.604 129.166C432.072 129.166 433.368 130.357 433.995 132.093Z" fill="#000000" fill-opacity="0.03" transform="matrix(1.00042 0 0 1 1731.35 125.836)"/></g></g></g><g clip-path="url(#clip4)"><g clip-path="url(#clip5)"><g clip-path="url(#clip6)"><path d="M52.9432 343.108C53.1746 351.744 54.6212 360.303 57.2405 368.534 57.2986 368.726 57.363 368.914 57.4257 369.105L73.461 369.105C73.4442 368.934 73.4268 368.743 73.4099 368.535 72.3408 356.244 78.4488 282.326 85.8192 269.533 85.1735 270.571 51.6999 304.052 52.9432 343.108Z" fill="#BCF2EE" transform="matrix(1 0 0 1.00136 1475 432)"/><path d="M54.1464 368.535C54.2806 368.726 54.42 368.917 54.5628 369.105L66.5929 369.105C66.5017 368.943 66.396 368.752 66.2735 368.535 64.2863 364.949 58.4042 354.225 52.9444 343.108 47.0791 331.162 41.6936 318.763 42.1471 314.275 42.0066 315.286 37.9462 346.142 54.1464 368.535Z" fill="#BCF2EE" transform="matrix(1 0 0 1.00136 1475 432)"/><path d="M249.138 355.897C249.256 360.284 249.99 364.633 251.321 368.816 251.351 368.913 251.383 369.008 251.415 369.105L259.562 369.105C259.553 369.018 259.545 368.921 259.536 368.816 258.993 362.571 262.096 325.016 265.841 318.516 265.513 319.044 248.506 336.055 249.138 355.897Z" fill="#E6E6E6" transform="matrix(1 0 0 1.00136 1475 432)"/><path d="M249.138 355.897C249.256 360.284 249.99 364.633 251.321 368.816 251.351 368.913 251.383 369.008 251.415 369.105L259.562 369.105C259.553 369.018 259.545 368.921 259.536 368.816 258.993 362.571 262.096 325.016 265.841 318.516 265.513 319.044 248.506 336.055 249.138 355.897Z" fill="#BCF2EE" transform="matrix(1 0 0 1.00136 1475 432)"/><path d="M249.749 368.816C249.817 368.913 249.888 369.009 249.961 369.105L256.073 369.105C256.026 369.022 255.973 368.925 255.911 368.816 254.901 366.993 251.912 361.545 249.138 355.897 246.159 349.827 243.422 343.528 243.653 341.248 243.581 341.762 241.519 357.438 249.749 368.816Z" fill="#BCF2EE" transform="matrix(1 0 0 1.00136 1475 432)"/><path d="M200.906 105.781 180.169 120.531 193.073 121.914 211.046 106.705 200.906 105.781Z" fill="#3F3D56" transform="matrix(1 0 0 1.00136 1475 432)"/><path d="M119.774 357.63 132.247 357.63 138.181 309.521 119.772 309.522 119.774 357.63Z" fill="#9F616A" transform="matrix(1 0 0 1.00136 1475 432)"/><path d="M116.592 353.558 141.156 353.557 141.157 353.557C149.802 353.558 156.81 360.566 156.81 369.21L156.81 369.719 116.593 369.721Z" fill="#2F2E41" transform="matrix(1 0 0 1.00136 1475 432)"/><path d="M111.933 185.797C111.933 185.797 106.527 191.907 115.478 215.726L113.901 346.33 142.908 345.764 149.284 282.057 160.893 189.089Z" fill="#2F2E41" transform="matrix(1 0 0 1.00136 1475 432)"/><path d="M82.972 165.18C79.4087 165.17 76.4993 162.329 76.4047 158.767L75.0435 107.468 98.3348 63.2799C99.4103 61.2567 101.454 59.9327 103.74 59.7776L121.49 58.6383 119.957 162.043 83.5492 165.155C83.3558 165.172 83.1636 165.18 82.972 165.18Z" fill="#78E4DC" transform="matrix(1 0 0 1.00136 1475 432)"/><path d="M170.841 203.854 170.523 203.805C133.416 198.146 105.414 192.72 105.136 192.666L104.788 192.599 114.515 168.939C114.438 166.467 112.332 97.0415 116.364 77.0951 120.265 57.786 138.659 54.6215 140.755 54.3238L142.86 47.3504 169.449 61.1864 174.087 77.1468 175.029 120.89Z" fill="#3F3D56" transform="matrix(1 0 0 1.00136 1475 432)"/><path d="M134.301 137.629C117.17 137.629 103.233 119.003 103.233 96.1083 103.233 73.2136 117.17 54.5872 134.301 54.5872 151.432 54.5872 165.369 73.2136 165.369 96.1083 165.369 119.003 151.432 137.629 134.301 137.629ZM134.301 58.6522C119.411 58.6522 107.298 75.4552 107.298 96.1083 107.298 116.761 119.411 133.564 134.301 133.564 149.19 133.564 161.304 116.761 161.304 96.1083 161.304 75.4552 149.19 58.6522 134.301 58.6522Z" fill="#78E4DC" transform="matrix(1 0 0 1.00136 1475 432)"/><path d="M186.855 113.82C184.435 113.82 182.124 114.83 180.481 116.608L135.789 116.608 119.418 120.092 122.106 140.823 180.341 128.299C183.529 131.9 189.031 132.233 192.632 129.046 196.232 125.858 196.566 120.355 193.378 116.755 191.725 114.887 189.35 113.819 186.855 113.82Z" fill="#9F616A" transform="matrix(1 0 0 1.00136 1475 432)"/><path d="M1658.57 445.971C1666.99 454.394 1666.99 468.05 1658.57 476.473 1650.16 484.896 1636.52 484.896 1628.11 476.473 1619.7 468.05 1619.7 454.394 1628.11 445.971 1636.52 437.548 1650.16 437.548 1658.57 445.971Z" fill="#9F616A"/><path d="M148.085 11.9627 147.041 9.861 152.295 7.25046C152.295 7.25046 158.092-2.18068 168.58 0.469671 179.069 3.12002 183.788 4.7062 183.788 4.7062L189.029 7.34326 186.398 9.96042 191.117 11.5466 187.965 13.1129 191.632 15.2213 189.658 26.0292C189.658 26.0292 186.379 17.8318 180.073 20.9644 173.768 24.0971 162.236 19.3451 162.236 19.3451L152.216 38.736C152.216 38.736 150.149 31.9385 146.464 33.751 146.463 33.751 137.048 18.7567 148.085 11.9627Z" fill="#2F2E41" transform="matrix(1 0 0 1.00136 1475 432)"/><path d="M335.243 144.568 334.322 127.301 325.031 119.752 319.648 135.741 289.542 175.894C285.427 176.553 282.626 180.423 283.286 184.538 283.945 188.652 287.815 191.454 291.929 190.794 295.591 190.208 298.283 187.048 298.281 183.34 298.281 183.239 298.27 183.14 298.266 183.039Z" fill="#FFB7B7" transform="matrix(1 0 0 1.00136 1475 432)"/><path d="M353.135 362.184 346.016 362.184 342.628 334.723 353.136 334.724 353.135 362.184Z" fill="#FFB7B7" transform="matrix(1 0 0 1.00136 1475 432)"/><path d="M354.95 369.085 331.994 369.084 331.994 368.794C331.995 363.86 335.995 359.859 340.93 359.859L340.93 359.859 354.951 359.86Z" fill="#2F2E41" transform="matrix(1 0 0 1.00136 1475 432)"/><path d="M386.235 362.184 379.116 362.184 375.729 334.723 386.236 334.724 386.235 362.184Z" fill="#FFB7B7" transform="matrix(1 0 0 1.00136 1475 432)"/><path d="M388.051 369.085 365.095 369.084 365.095 368.794C365.095 363.86 369.095 359.859 374.03 359.859L374.031 359.859 388.052 359.86Z" fill="#2F2E41" transform="matrix(1 0 0 1.00136 1475 432)"/><path d="M378.71 72.4361C381.725 59.9908 384.278 45.9535 378.594 34.491 374.649 26.5378 360.058 23.8595 351.694 26.7247 343.33 29.59 337.283 37.3635 334.623 45.8392 331.963 54.3148 332.272 63.4478 333.431 72.2589 348.815 71.9634 364.198 71.6678 378.71 72.4361Z" fill="#DADADA" transform="matrix(1 0 0 1.00136 1475 432)"/><path d="M361.203 278.375C361.203 288.286 353.169 296.319 343.259 296.319 333.349 296.319 325.316 288.286 325.316 278.375 325.316 268.465 333.349 260.432 343.259 260.432 353.169 260.432 361.203 268.465 361.203 278.375Z" fill="#FFB8B8" transform="matrix(0.87718 -0.480162 0.47951 0.878372 1393.17 406.871)"/><path d="M374.68 50.7994C374.915 38.3581 365.021 28.0819 352.579 27.8469 340.138 27.6119 329.862 37.507 329.627 49.9483 329.617 50.43 329.624 50.9119 329.646 51.3931 344.999 51.4257 360.353 51.4583 374.68 50.7994Z" fill="#DADADA" transform="matrix(1 0 0 1.00136 1475 432)"/><path d="M323.945 162.568C323.945 162.568 321.026 204.967 322.61 217.9 324.195 230.834 341.443 343.906 341.443 343.906L354.453 343.883 358.316 210.635 373.702 345.178 387.156 343.779 394.789 212.171C394.789 212.171 393.592 162.9 383.864 157.959Z" fill="#2F2E41" transform="matrix(1 0 0 1.00136 1475 432)"/><path d="M344.354 204.597C334.797 204.593 325.379 202.313 316.88 197.944L316.694 197.849 323.885 150.13 323.419 93.2588C323.365 86.7664 328.586 81.4598 335.079 81.4069 335.147 81.4064 335.215 81.4064 335.283 81.4069L373.871 81.7612C380.749 81.8245 386.273 87.4504 386.21 94.3279 386.207 94.6182 386.194 94.908 386.171 95.1972L382.56 140.789 394.502 177.795 392.427 180.554C381.081 195.689 363.269 204.597 344.354 204.597Z" fill="#3F3D56" transform="matrix(1 0 0 1.00136 1475 432)"/><path d="M319.541 130.471 323.585 89.21 324.884 87.361C328.618 82.0486 335.952 80.7687 341.264 84.5027 341.277 84.5126 341.291 84.5219 341.305 84.5318L342.419 85.3221 341.319 127.137Z" fill="#3F3D56" transform="matrix(1 0 0 1.00136 1475 432)"/><path d="M485.234 332.056C495.687 329.168 500.148 345.043 489.721 348.023 479.268 350.91 474.807 335.036 485.234 332.056Z" fill="#3F3D56" transform="matrix(1 0 0 1.00136 1475 432)"/><path d="M427.274 352.488C437.727 349.6 442.188 365.474 431.761 368.454 421.308 371.342 416.847 355.467 427.274 352.488Z" fill="#3F3D56" transform="matrix(1 0 0 1.00136 1475 432)"/><path d="M403.817 185.063 403.978 185.018 430.904 258.119 434.454 257.121 407.335 183.495 407.335 183.495C407.214 181.158 405.481 179.22 403.171 178.84 389.705 176.71 384.247 188.664 384.247 188.664L384.301 188.743 411.829 263.481 415.379 262.483 388.661 189.944C396.795 181.899 403.817 185.063 403.817 185.063Z" fill="#3F3D56" transform="matrix(1 0 0 1.00136 1475 432)"/><path d="M434.676 356.6C426.792 356.532 419.865 351.349 417.574 343.805 412.435 326.984 400.309 286.683 398.703 275.746 396.611 261.505 408.398 257.455 408.661 257.368 408.978 257.262 413.717 255.936 420.276 254.099 431.425 250.979 448.274 246.264 448.893 245.986 454.171 244.151 459.974 244.599 464.908 247.223 469.99 249.896 473.753 254.538 475.317 260.064L492.661 321.767C494.87 329.576 491.138 337.843 483.82 341.351 470.438 347.78 450.811 356.356 434.94 356.598 434.853 356.599 434.764 356.6 434.676 356.6Z" fill="#78E4DC" transform="matrix(1 0 0 1.00136 1475 432)"/><path d="M400.953 182.534 392.235 131.607 391.262 114.42 377.167 119.037 389.055 185.723C387.609 189.631 389.607 193.972 393.516 195.417 397.424 196.862 401.765 194.865 403.21 190.956 404.32 187.955 403.415 184.579 400.953 182.534Z" fill="#FFB7B7" transform="matrix(1 0 0 1.00136 1475 432)"/><path d="M394.62 128.413 372.62 127.216 367.451 85.7077 367.955 85.271C373.151 80.7647 381.016 81.3233 385.522 86.519 385.534 86.5323 385.545 86.5457 385.557 86.559L386.574 87.7425 386.59 87.8175Z" fill="#3F3D56" transform="matrix(1 0 0 1.00136 1475 432)"/><path d="M484.205 331.172 461.72 255.068 408.847 270.01 408.531 268.893 462.509 253.638 462.671 254.189 485.319 330.843 484.205 331.172Z" fill="#3F3D56" transform="matrix(1 0 0 1.00136 1475 432)"/><path d="M84.6502 159.723 82.2559 107.516 106.781 59.5761 107.814 60.1052 83.4307 107.771 85.8105 159.67 84.6502 159.723Z" fill="#3F3D56" transform="matrix(1 0 0 1.00136 1475 432)"/><path d="M122.392 144.71 117.281 129.506 116.045 78.8286 118.223 71.6382C121.439 61.0198 132.654 55.0189 143.272 58.2347 153.891 61.4513 159.891 72.666 156.675 83.2844 156.524 83.7844 156.353 84.278 156.163 84.7646L144.491 114.675 145.085 115.826 170.372 115.622 179.355 131.79Z" fill="#3F3D56" transform="matrix(1 0 0 1.00136 1475 432)"/><path d="M283.485 252.897 283.467 252.9 255.44 258.512 231.329 268.221C230.018 268.749 228.527 268.114 227.999 266.804 227.97 266.73 227.944 266.656 227.921 266.58L210.308 207.601C209.923 206.334 210.574 204.985 211.804 204.495L236.355 194.608 236.373 194.605 264.401 188.993 288.511 179.284C289.823 178.756 291.313 179.39 291.841 180.702 291.871 180.775 291.897 180.849 291.92 180.925L309.533 239.904C309.917 241.17 309.267 242.52 308.037 243.009Z" fill="#E5E5E5" transform="matrix(1 0 0 1.00136 1475 432)"/><path d="M253.409 213.28C246.982 211.012 240.339 209.025 233.666 207.374L233.331 207.292 236.719 218.636 253.98 213.481ZM236.983 218.147 233.906 207.84C240.257 209.421 246.577 211.308 252.707 213.45ZM287.089 228.615C284.097 226.924 281.062 225.303 277.984 223.755 277.135 223.328 276.284 222.907 275.43 222.492 270.218 219.956 264.927 217.644 259.556 215.557L259.493 215.533 237.733 222.031 243.675 241.929 287.492 228.843ZM243.94 241.439 238.223 222.296 259.476 215.949C264.656 217.963 269.776 220.194 274.837 222.642 275.716 223.067 276.592 223.498 277.464 223.935 280.512 225.461 283.521 227.06 286.492 228.731ZM287.089 228.615C284.097 226.924 281.062 225.303 277.984 223.755 277.135 223.328 276.284 222.907 275.43 222.492 270.218 219.956 264.927 217.644 259.556 215.557L259.493 215.533 237.733 222.031 243.675 241.929 287.492 228.843ZM243.94 241.439 238.223 222.296 259.476 215.949C264.656 217.963 269.776 220.194 274.837 222.642 275.716 223.067 276.592 223.498 277.464 223.935 280.512 225.461 283.521 227.06 286.492 228.731ZM253.409 213.28C246.982 211.012 240.339 209.025 233.666 207.374L233.331 207.292 236.719 218.636 253.98 213.481ZM236.983 218.147 233.906 207.84C240.257 209.421 246.577 211.308 252.707 213.45ZM253.409 213.28C246.982 211.012 240.339 209.025 233.666 207.374L233.331 207.292 236.719 218.636 253.98 213.481ZM236.983 218.147 233.906 207.84C240.257 209.421 246.577 211.308 252.707 213.45ZM287.089 228.615C284.097 226.924 281.062 225.303 277.984 223.755 277.135 223.328 276.284 222.907 275.43 222.492 270.218 219.956 264.927 217.644 259.556 215.557L259.493 215.533 237.733 222.031 243.675 241.929 287.492 228.843ZM243.94 241.439 238.223 222.296 259.476 215.949C264.656 217.963 269.776 220.194 274.837 222.642 275.716 223.067 276.592 223.498 277.464 223.935 280.512 225.461 283.521 227.06 286.492 228.731ZM226.019 250.9 226.132 251.277 241.03 246.828 242.663 252.297 227.765 256.746 227.878 257.123 243.153 252.562 241.294 246.338ZM247.562 254.943 248.703 258.765 249.07 258.617 248.052 255.207 306.141 237.859 306.029 237.482ZM303.269 228.24 303.156 227.863 244.689 245.324 246.548 251.548 305.015 234.087 304.902 233.709 246.813 251.058 245.179 245.588ZM259.847 211.319C250.943 207.897 241.798 205.144 232.485 203.082L231.344 199.262 230.977 199.41 232.127 203.259 232.512 203.491C241.789 205.552 250.9 208.298 259.769 211.71L259.832 211.734 295.186 201.175 295.073 200.798ZM232.834 219.385 217.937 223.835 218.049 224.212 233.324 219.65 227.676 200.739 227.31 200.887ZM296.2 204.57 265.119 213.852 265.625 214.065C270.392 216.071 275.147 218.288 279.889 220.718 280.563 221.062 281.237 221.412 281.91 221.766 285.257 223.525 288.579 225.381 291.874 227.334L292.24 227.425 302.143 224.468 302.03 224.091 292.151 227.041C288.891 225.106 285.6 223.264 282.279 221.515 281.614 221.165 280.949 220.82 280.283 220.478 275.641 218.093 270.974 215.906 266.282 213.916L296.313 204.948ZM228.892 260.518 229.004 260.895 243.902 256.446 245.036 260.241 245.403 260.094 244.167 255.956ZM219.063 227.607 219.176 227.984 234.073 223.535 239.791 242.678 224.893 247.127 225.006 247.505 240.28 242.943 234.338 223.045ZM253.409 213.28C246.982 211.012 240.339 209.025 233.666 207.374L233.331 207.292 236.719 218.636 253.98 213.481ZM236.983 218.147 233.906 207.84C240.257 209.421 246.577 211.308 252.707 213.45ZM287.089 228.615C284.097 226.924 281.062 225.303 277.984 223.755 277.135 223.328 276.284 222.907 275.43 222.492 270.218 219.956 264.927 217.644 259.556 215.557L259.493 215.533 237.733 222.031 243.675 241.929 287.492 228.843ZM243.94 241.439 238.223 222.296 259.476 215.949C264.656 217.963 269.776 220.194 274.837 222.642 275.716 223.067 276.592 223.498 277.464 223.935 280.512 225.461 283.521 227.06 286.492 228.731ZM253.409 213.28C246.982 211.012 240.339 209.025 233.666 207.374L233.331 207.292 236.719 218.636 253.98 213.481ZM236.983 218.147 233.906 207.84C240.257 209.421 246.577 211.308 252.707 213.45ZM287.089 228.615C284.097 226.924 281.062 225.303 277.984 223.755 277.135 223.328 276.284 222.907 275.43 222.492 270.218 219.956 264.927 217.644 259.556 215.557L259.493 215.533 237.733 222.031 243.675 241.929 287.492 228.843ZM243.94 241.439 238.223 222.296 259.476 215.949C264.656 217.963 269.776 220.194 274.837 222.642 275.716 223.067 276.592 223.498 277.464 223.935 280.512 225.461 283.521 227.06 286.492 228.731Z" fill="#FFFFFF" transform="matrix(1 0 0 1.00136 1475 432)"/><path d="M258.414 215.057C259.84 219.833 254.369 233.057 254.369 233.057 254.369 233.057 242.543 224.999 241.116 220.223 239.69 215.446 242.406 210.417 247.182 208.991 251.959 207.564 256.987 210.28 258.414 215.057Z" fill="#78E4DC" transform="matrix(1 0 0 1.00136 1475 432)"/><path d="M253.607 216.083C254.258 218.266 253.018 220.565 250.833 221.218 248.65 221.87 246.351 220.628 245.699 218.444 245.047 216.261 246.289 213.962 248.472 213.31 250.655 212.657 252.953 213.897 253.606 216.079 253.606 216.081 253.606 216.082 253.607 216.083Z" fill="#FFFFFF" transform="matrix(1 0 0 1.00136 1475 432)"/><path d="M257.97 236.968C257.97 238.311 256.881 239.401 255.537 239.401 254.193 239.401 253.104 238.312 253.104 236.968 253.104 235.624 254.193 234.535 255.537 234.535 256.881 234.535 257.97 235.624 257.97 236.968Z" fill="#78E4DC" transform="matrix(1 0 0 1.00136 1475 432)"/><path d="M282.087 204.976 265.177 210.026C265.156 210.033 265.135 210.038 265.113 210.04L268.973 193.799C269.045 193.484 269.358 193.287 269.673 193.359 269.776 193.383 269.872 193.434 269.948 193.508L278.092 201.201 278.481 201.569Z" fill="#FFFFFF" transform="matrix(1 0 0 1.00136 1475 432)"/><path d="M282.087 204.976 276.313 206.7 277.919 201.737 278.034 201.38 278.092 201.201 278.481 201.569 282.087 204.976Z" fill="#000000" fill-opacity="0.2" transform="matrix(1 0 0 1.00136 1475 432)"/><path d="M291.503 202.164 276.877 206.532 278.481 201.569 278.597 201.212 280.688 194.744C280.849 194.344 281.303 194.15 281.703 194.311 281.728 194.322 281.753 194.333 281.777 194.346 281.803 194.361 281.827 194.378 281.851 194.397Z" fill="#FFFFFF" transform="matrix(1 0 0 1.00136 1475 432)"/></g></g></g></g></svg>