<svg xmlns="http://www.w3.org/2000/svg" xmlns:xlink="http://www.w3.org/1999/xlink" data-name="Layer 1" width="630.6116333007812" height="532.5" style=""><rect id="backgroundrect" width="100%" height="100%" x="0" y="0" fill="none" stroke="none"/><g class="currentLayer" style=""><title>Layer 1</title><polygon points="93.512 510.086 105.746 513.506 124.762 467.944 106.706 462.896 93.512 510.086" fill="#ffb8b8" id="svg_1"/><path d="M672.8060070214844,1995.8365480859375 h39.92574 a0,0 0 0 1 0,0 v15.42585 a0,0 0 0 1 0,0 H686.6879370214845 a13.88193,13.88193 0 0 1 -13.88193,-13.88193 v-1.54392 A0,0 0 0 1 672.8060070214844,1995.8365480859375 z" transform="rotate(-164.37997436523438 299.0581970214844,1301.1390380859375) " fill="#2f2e41" id="svg_2" class=""/><polygon points="239.451 519.667 252.155 519.666 258.196 470.666 239.447 470.667 239.451 519.667" fill="#ffb8b8" id="svg_3"/><path d="M1319.5664612304688,1930.984974609375 h39.92574 a0,0 0 0 1 0,0 v15.42585 a0,0 0 0 1 0,0 H1333.4483912304686 a13.88193,13.88193 0 0 1 -13.88193,-13.88193 V1930.984974609375 A0,0 0 0 1 1319.5664612304688,1930.984974609375 z" transform="rotate(179.9948272705078 798.1427612304688,1231.1989746093752) " fill="#2f2e41" id="svg_4" class=""/><polygon points="145.049 316.237 115.809 387.868 235.206 414.691 236.729 374.615 182.513 316.868 145.049 316.237" fill="#b3b3b3" id="svg_5"/><circle cx="80.92254638671875" cy="456.28802490234375" r="27.29262924194336" transform="rotate(-28.663209915161133 -400.5098571777345,91.83598327636717) " fill="#ffb8b8" id="svg_6"/><path d="M216.23981665039065,312.27344 L162.1958166503906,290.15039 l-4.81176,-31.72754 A36.45558,36.45558 0 0 1 186.28154665039062,217.16699999999997 l7.14843,-1.43554 a36.79131,36.79131 0 0 1 32.94727,9.772 a35.12661,35.12661 0 0 1 10.30688,31.60449 a30.60008,30.60008 0 0 1 -5.78149,13.47021 c-16.97778,22.20167 -14.79834,40.65772 -14.77417,40.8418 z" fill="#b9e8ff" id="svg_7" class="" fill-opacity="1"/><path d="M238.24540665039058,395.01464999999996 l-27.08471,-43.07422 l8.53076,-78.35449 l-11.78418,-58.60108 l0.62646,0.01563 A26.70383,26.70383 0 0 1 234.5708166503906,241.04883 l11.46387,57.42383 z" fill="#0a42a5" id="svg_8" class="" fill-opacity="1"/><path d="M238.86406665039067,510.40381 a4.946,4.946 0 0 1 -4.844,-3.97022 l-11.866,-59.00488 a92.563,92.563 0 0 0 -12.05151,-30.52148 l-33.48169,-54.16162 a1.7224300000000001,1.7224300000000001 0 0 0 -3.05517,0.24414000000000002 l-55.04712,132.2373 a4.9562,4.9562 0 0 1 -5.553,2.94434 l-14.7052,-2.998 a4.924,4.924 0 0 1 -3.88733,-5.67188 l11.99609,-70.69775 a182.47371,182.47371 0 0 1 12.41919,-41.88916 l40.627,-93.89355 l59.95507,19.69043 l3.9563,41.98242 L251.02881665039058,411.77246 a45.98228,45.98228 0 0 1 3.3877,14.54834 l5.11792,77.5249 a4.96767,4.96767 0 0 1 -4.531,5.2544 l-15.73218,1.28711 C239.13481665039058,510.398 238.9988166503906,510.40381 238.86406665039067,510.40381 z" fill="#425d8c" id="svg_9" class="" fill-opacity="1"/><path d="M129.49113665039062,414.22461 l-19.00745,-18.0415 l35.92151,-138.51758 a58.06061,58.06061 0 0 1 34.16468,-39.03076 l0.7053200000000001,-0.28711000000000003 l-1.91944,84.30468 z" fill="#0a42a5" id="svg_10" class="" fill-opacity="1"/><path d="M190.37795665039062,207.89693999999997 c-6.7427,-5.83628 -8.793379999999999,-16.7236 -4.66183,-24.75013 s14.01047,-12.34744 22.45774,-9.82272 c7.9559,2.37787 17.00017,-5.55377 16.03091,-14.05877 s-11.54881,-14.04517 -18.7522,-9.81991 a30.51075,30.51075 0 0 0 -32.52392,6.3346 c-8.46306,8.29077 -11.67367,21.84425 -7.87434,33.24121 S179.45890665039065,209.04658999999998 190.37795665039062,207.89693999999997 z" fill="#2f2e41" id="svg_11"/><path d="M166.5027366503906,429.71362999999997 a4.66266,4.66266 0 0 1 -1.03329,0.26633 l-43.39494,6.0576 a4.67,4.67 0 0 1 -5.02681,-2.96278 l-37.35282,-97.19509 a4.69015,4.69015 0 0 1 3.35629,-6.26032 l0.00023000000000000006,-0.00009000000000000003 l40.80846,-9.10662 a3.728,3.728 0 0 0 0.90578,-0.3313600000000001 l39.692,-20.75223 a4.64571,4.64571 0 0 1 0.96491,-0.37553000000000003 l43.68136,-11.645 a4.681,4.681 0 0 1 5.58631,2.84924 l32.56935,84.74813 a4.66674,4.66674 0 0 1 -0.6161300000000001,4.48382 l-11.26374,15.126 a4.68394,4.68394 0 0 1 -2.07947,1.57648 l-24.61611,9.46016 a3.7085,3.7085 0 0 0 -0.51152,0.24314000000000002 l-41.019,23.5089 A4.68521,4.68521 0 0 1 166.5027366503906,429.71362999999997 z" fill="#fff" id="svg_12"/><path d="M186.69235665039065,300.36523 l-5.547,1.4794100000000001 L166.4458166503906,305.76513 l-0.026170000000000006,0.006000000000000002 l-20.12476,10.5228 l-7.46846,3.9057500000000003 l-0.0034700000000000013,0.0013300000000000005 l-11.21691,5.86409 l-0.30761000000000005,0.06930000000000001 L115.64598665039063,328.73299999999995 l-5.63163,1.2591700000000001 l-22.96944,5.1254 l36.05914,93.82882 l23.66978,-3.303 l5.80365,-0.81156 l12.37,-1.7287400000000002 l0.14359000000000002,-0.018500000000000003 l39.74931,-22.78177 l24.18458,-9.29432 l11.042,-14.8275 l-31.38876,-81.67614 z" fill="#e6e6e6" id="svg_13"/><rect x="-65.28851318359375" y="522.9439697265625" width="128.10653686523438" height="5.708509922027588" transform="rotate(-21.02215003967285 -441.01290893554693,8.445030212402417) " fill="#fff" id="svg_14"/><rect x="-64.37985229492188" y="544.3367919921875" width="128.10653686523438" height="5.708509922027588" transform="rotate(-21.02215003967285 -446.9302673339844,12.075920104980439) " fill="#fff" id="svg_15"/><rect x="-62.544403076171875" y="587.5501708984375" width="128.10653686523438" height="5.708509922027588" transform="rotate(-21.02215003967285 -458.8833618164063,19.410310745239286) " fill="#fff" id="svg_16"/><polygon points="186.692 300.365 222.492 393.519 217.164 395.567 181.145 301.845 186.692 300.365" fill="#fff" id="svg_17"/><polygon points="146.295 316.294 138.944 336.748 136.395 343.843 130.449 360.398 129.175 363.937 127.9 367.493 126.221 372.162 114.17 405.7 111.037 397.547 120.863 370.198 123.086 364.006 123.412 363.102 126.041 355.781 129.358 346.548 131.907 339.452 138.823 320.201 138.826 320.2 146.295 316.294" fill="#fff" id="svg_18"/><polygon points="205.707 399.97 204.84 400.303 165.091 423.085 164.947 423.103 127.298 326.134 127.606 326.065 138.823 320.201 138.826 320.2 146.295 316.294 166.42 305.771 166.446 305.765 205.707 399.97" opacity="0.1" id="svg_19"/><path d="M166.68186665039065,430.18044 a5.17988,5.17988 0 0 1 -1.14313,0.29494000000000004 l-43.39517,6.05769 a5.16845,5.16845 0 0 1 -5.56259,-3.27893 l-37.35282,-97.19508 a5.19044,5.19044 0 0 1 3.71417,-6.92776 l40.80846,-9.10662 a3.24307,3.24307 0 0 0 0.78321,-0.28687000000000007 l39.692,-20.75223 a5.16094,5.16094 0 0 1 1.06729,-0.41540000000000005 l43.682,-11.64475 a5.17964,5.17964 0 0 1 6.18166,3.153 l32.56935,84.74813 a5.16511,5.16511 0 0 1 -0.6818400000000002,4.96207 L235.78081665039065,394.91405 a5.18258,5.18258 0 0 1 -2.30116,1.74485 l-24.61611,9.46016 a3.21137,3.21137 0 0 0 -0.4425200000000001,0.21034000000000003 L167.40221665039064,429.83822 A5.18984,5.18984 0 0 1 166.68186665039065,430.18044 zM82.92771665039061,331.21937 a3.19083,3.19083 0 0 0 -1.8326700000000002,4.12223 L118.44781665039062,432.53668000000005 a3.1767,3.1767 0 0 0 3.41933,2.01544 l43.39517,-6.05769 a3.20364,3.20364 0 0 0 1.14572,-0.39166000000000006 l41.019,-23.5089 a5.20782,5.20782 0 0 1 0.7190000000000001,-0.34169000000000005 l24.6161,-9.46016 a3.18755,3.18755 0 0 0 1.41451,-1.07246 l11.26369,-15.12546 a3.1746,3.1746 0 0 0 0.41908000000000006,-3.05012 l-32.56936,-84.74813 a3.184,3.184 0 0 0 -3.79956,-1.93837 L165.80893665039065,300.5026 a3.2898300000000003,3.2898300000000003 0 0 0 -0.6557300000000001,0.25514 l-39.69255,20.75295 a5.276,5.276 0 0 1 -1.27381,0.466 l-40.80869,9.10671 A3.16512,3.16512 0 0 0 82.92771665039061,331.21937 z" fill="#e6e6e6" id="svg_20"/><polygon points="115.646 328.733 152.577 424.832 146.774 425.643 110.014 329.992 115.646 328.733" fill="#fff" id="svg_21"/><circle cx="126.26773071289062" cy="364.858642578125" r="2.6639699935913086" fill="#3f3d56" id="svg_22"/><circle cx="220.7230224609375" cy="367.6982421875" r="2.6639699935913086" fill="#20ba7d" id="svg_23" class="" fill-opacity="1"/><path d="M221.80151665039062,319.58252 c3.02346,7.86728 -0.6150000000000001,33.93912 -1.89456,42.30813 a1.52108,1.52108 0 0 1 -2.46729,0.9482 c-6.555,-5.35812 -26.71747,-22.28309 -29.74092,-30.15037 a18.267220000000002,18.267220000000002 0 1 1 34.10277,-13.106 z" fill="#20ba7d" id="svg_24" class="" fill-opacity="1"/><circle cx="204.75013732910156" cy="326.135498046875" r="9.894740104675293" fill="#fff" id="svg_25"/><path d="M192.0401766503906,304.78547 a10.41983,10.41983 0 0 1 14.51564,-6.6768 l17.6639,-15.96738 l12.32141,8.36769 l-25.26156,22.19868 a10.47632,10.47632 0 0 1 -19.23939,-7.9221900000000005 z" fill="#ffb8b8" id="svg_26"/><path d="M220.5015166503906,309.99707 l-13.84619,-18.791 l31.5664,-20.20263 l-22.62475,-32.28418 a13.082,13.082 0 0 1 19.53051,-17.17188 l28.32862,25.84619 a23.72945,23.72945 0 0 1 -3.32959,37.59766 z" fill="#0a42a5" id="svg_27" class="" fill-opacity="1"/><path d="M112.02067665039061,359.30087000000003 a10.419880000000001,10.419880000000001 0 0 0 1.44679,-15.912 l9.15293,-21.98169 L110.61881665039061,312.587 l-12.48972,31.22394 a10.47632,10.47632 0 0 0 13.8916,15.49 z" fill="#ffb8b8" id="svg_28"/><path d="M118.2050066503906,336.98145 l-21.64636,-5.041 l16.13086,-46.51514 a76.2628,76.2628 0 0 1 12.13354,-22.20556 l26.31616,-33.46436 a14.715720000000001,14.715720000000001 0 0 1 23.2002,18.10938 l-29.2013,37.68847 z" fill="#0a42a5" id="svg_29" class="" fill-opacity="1"/><path d="M381.9999966503906,532.5 h-381 a1,1 0 1 1 0,-2 h381 a1,1 0 0 1 0,2 z" fill="#ccc" id="svg_30"/><path d="M529.7874066503906,532 h-9 V4.5 a4.5,4.5 0 0 1 9,0 z" fill="#e6e6e6" id="svg_31"/><path d="M594.9999966503906,532.5 h-140 a1,1 0 0 1 0,-2 h140 a1,1 0 0 1 0,2 z" fill="#ccc" id="svg_32"/><path d="M592.2373566503907,69 h-130.95 a4.50507,4.50507 0 0 1 -4.5,-4.5 v-38 a4.50507,4.50507 0 0 1 4.5,-4.5 H592.2468766503906 a4.50953,4.50953 0 0 1 2.19287,0.5708000000000001 l33.86475,18.89893 a4.49979,4.49979 0 0 1 0.017330000000000005,7.84912 l-33.87427,19.10107 A4.51272,4.51272 0 0 1 592.2373566503907,69 z" fill="#20ba7d" id="svg_33" class="" fill-opacity="1"/><path d="M580.2874066503906,151 h-130.95 a4.51114,4.51114 0 0 1 -2.21,-0.58008 l-33.87451,-19.10107 a4.49978,4.49978 0 0 1 0.017340000000000005,-7.84912 l33.86474,-18.89893 a4.50953,4.50953 0 0 1 2.19287,-0.5708000000000001 H580.2874066503906 a4.5050799999999995,4.5050799999999995 0 0 1 4.5,4.5 v38 A4.5050799999999995,4.5050799999999995 0 0 1 580.2874066503906,151 z" fill="#e6f5fe" id="svg_34" class="" fill-opacity="1"/><path d="M580.7874066503906,231.5 h-130.95 a4.51114,4.51114 0 0 1 -2.21,-0.58008 l-33.87451,-19.10107 a4.49978,4.49978 0 0 1 0.017340000000000005,-7.84912 l33.86474,-18.89893 a4.50953,4.50953 0 0 1 2.19287,-0.5708000000000001 H580.7874066503906 a4.5050799999999995,4.5050799999999995 0 0 1 4.5,4.5 v38 A4.5050799999999995,4.5050799999999995 0 0 1 580.7874066503906,231.5 z" fill="#e6f5fe" id="svg_35" class="" fill-opacity="1"/></g></svg>