<svg xmlns="http://www.w3.org/2000/svg" xmlns:xlink="http://www.w3.org/1999/xlink" data-name="Layer 1" width="779.31989" height="579.94408"><rect id="backgroundrect" width="100%" height="100%" x="0" y="0" fill="none" stroke="none"/><g class="currentLayer" style=""><title>Layer 1</title><rect id="ab2e16f2-9798-47da-b25d-769524f3c86f" data-name="Rectangle 62" x="0.30000001192092896" y="19.288999557495117" width="703.5759887695312" height="333.8590087890625" fill="#e6e6e6"/><rect id="bf81c03f-68cf-4889-8697-1102f95f97bb" data-name="Rectangle 75" x="20.418989181518555" y="47.917999267578125" width="663.3389892578125" height="278.54901123046875" fill="#fff"/><rect id="f065dccc-d150-492a-a09f-a7f3f89523f0" data-name="Rectangle 80" width="703.5759887695312" height="29.889999389648438" fill="#0a42a5"/><circle id="bdbbf39c-df25-4682-8b85-5a6af4a1bd14" data-name="Ellipse 90" cx="22.21198081970215" cy="17.575979232788086" r="5.539999961853027" fill="#fff"/><circle id="abcd4292-0b1f-4102-9b5e-e8bbd87baabc" data-name="Ellipse 91" cx="43.2400016784668" cy="17.575979232788086" r="5.539999961853027" fill="#fff"/><circle id="a3fb731e-8b3d-41ca-96f2-91600dc0b434" data-name="Ellipse 92" cx="64.26898956298828" cy="17.575979232788086" r="5.539999961853027" fill="#fff"/><rect x="402.6545715332031" y="90.26775360107422" width="93.4230728149414" height="7.021900177001953" fill="#20b97c" id="svg_1" class="" fill-opacity="1"/><rect x="402.6545715332031" y="110.88168334960938" width="144.26556396484375" height="7.021880149841309" fill="#0a42a5" id="svg_2"/><rect x="404.1545715332031" y="130.51370239257812" width="117.57327270507812" height="7.021880149841309" fill="#e6e6e6" id="svg_3"/><rect x="402.6545715332031" y="152.05453491210938" width="68.63735961914062" height="7.021880149841309" fill="#20b97c" id="svg_4" class="" fill-opacity="1"/><rect x="402.6545715332031" y="173.09536743164062" width="103.59158325195312" height="7.021880149841309" fill="#0a42a5" id="svg_5"/><rect x="360.073974609375" y="88.05889892578125" width="11.439579963684082" height="11.439559936523438" fill="#20b97c" id="svg_6" class="" fill-opacity="1"/><rect x="360.073974609375" y="108.67282104492188" width="11.439579963684082" height="11.439539909362793" fill="#0a42a5" id="svg_7"/><rect x="360.073974609375" y="128.30487060546875" width="11.439579963684082" height="11.439579963684082" fill="#e6e6e6" id="svg_8"/><rect x="360.073974609375" y="149.845703125" width="11.439579963684082" height="11.439579963684082" fill="#20b97c" id="svg_9" class="" fill-opacity="1"/><rect x="360.073974609375" y="170.88653564453125" width="11.439579963684082" height="11.439579963684082" fill="#0a42a5" id="svg_10"/><rect x="402.6545715332031" y="194.26773071289062" width="93.4230728149414" height="7.021880149841309" fill="#e6e6e6" id="svg_11"/><rect x="402.6545715332031" y="214.88168334960938" width="144.26556396484375" height="7.021880149841309" fill="#0a42a5" id="svg_12" class="" fill-opacity="1"/><rect x="404.1545715332031" y="234.51370239257812" width="117.57327270507812" height="7.021880149841309" fill="#e6e6e6" id="svg_13" class=""/><rect x="402.6545715332031" y="256.0545349121094" width="68.63735961914062" height="7.021880149841309" fill="#20b97c" id="svg_14" class="" fill-opacity="1"/><rect x="402.6545715332031" y="277.0953674316406" width="103.59158325195312" height="7.021880149841309" fill="#e6e6e6" id="svg_15"/><rect x="360.073974609375" y="192.05889892578125" width="11.439579963684082" height="11.439579963684082" fill="#e6e6e6" id="svg_16"/><rect x="360.073974609375" y="212.67282104492188" width="11.439579963684082" height="11.439539909362793" fill="#0a42a5" id="svg_17"/><rect x="360.073974609375" y="232.30487060546875" width="11.439579963684082" height="11.439579963684082" fill="#e6e6e6" id="svg_18" class=""/><rect x="360.073974609375" y="253.845703125" width="11.439579963684082" height="11.439579963684082" fill="#20b97c" id="svg_19" class="" fill-opacity="1"/><rect x="360.073974609375" y="274.88653564453125" width="11.439579963684082" height="11.439579963684082" fill="#e6e6e6" id="svg_20" class=""/><rect x="107.1123275756836" y="249.3474884033203" width="93.4230728149414" height="7.021890163421631" fill="#3f3d56" id="svg_21"/><rect x="94.6123275756836" y="267.59344482421875" width="117.57327270507812" height="7.021890163421631" fill="#3f3d56" id="svg_22"/><path d="M214.5442926269531,160.7696858984375 a61.02248,61.02248 0 0 1 -89.92457,53.72147 l-0.011850000000000003,-0.011860000000000002 a61.00362,61.00362 0 1 1 89.93642,-53.70961 z" fill="#3f3d56" id="svg_23"/><circle cx="153.85516357421875" cy="141.22598266601562" r="16.58251953125" fill="#fff" id="svg_24"/><path d="M182.16985262695312,192.07204589843752 a85.47057,85.47057 0 0 1 -57.23926,-0.22169000000000003 l-0.011860000000000002,-0.008220000000000002 l12.3539,-24.38615 h33.16505 z" fill="#fff" id="svg_25"/><polygon points="656.072 567.394 643.813 567.394 637.98 520.106 656.075 520.107 656.072 567.394" fill="#ffb7b7" id="svg_26"/><path d="M659.1990726269531,579.2783758984375 l-39.53076,-0.0014600000000000004 v-0.5 a15.38728,15.38728 0 0 1 15.38647,-15.38623 h0.0010000000000000002 l24.144,0.0010000000000000002 z" fill="#2f2e41" id="svg_27"/><polygon points="686.016 567.394 698.276 567.394 704.108 520.106 686.014 520.107 686.016 567.394" fill="#ffb7b7" id="svg_28"/><path d="M682.8887826269531,563.3916558984375 l24.144,-0.0010000000000000002 h0.0010000000000000002 a15.3873,15.3873 0 0 1 15.38648,15.38623 v0.5 l-39.53077,0.0014600000000000004 z" fill="#2f2e41" id="svg_29"/><circle cx="790.9311752319336" cy="1137.9629516601562" r="21.428119659423828" transform="rotate(-63.579769134521484 -53.56668853759744,789.6157226562501) " fill="#ffb7b7" id="svg_30"/><path d="M618.3789426269532,335.7308258984375 s-6.76678,28.19488 -3.38336,41.72845 s13.53357,106.01282 13.53357,106.01282 l6.76678,73.30676 l27.06708,2.25562 L658.9796126269531,473.3220458984375 l3.38336,-74.43457 l19.17255,72.179 v85.96808 l28.70605,1.12781 l0.6166400000000002,-111.90741 s2.25562,-87.96808 -12.40576,-99.246 s-16.91693,-13.53354 -16.91693,-13.53354 z" fill="#2f2e41" id="svg_31"/><path d="M659.2396226269532,211.67326589843748 l25.67926,13.53354 l3.38336,117.29077 s-14.66138,-9.02237 -37.21728,2.2555899999999998 s-37.21729,3.38339 -37.21729,3.38339 l13.53357,-50.75082 l-5.639,-67.66776 l8.06543,-7.32047 z" fill="#cbcbcb" id="svg_32"/><path d="M629.8304426269531,220.26274589843752 l-4.68475,3.81628 s-29.3227,14.66135 -30.4505,24.81153 l20.30035,55.262 s5.639,12.40576 1.12781,16.91693 s-9.0224,15.78916 -7.8946000000000005,21.42813 s-6.76678,29.3227 2.25562,29.3227 s30.4505,-54.13422 29.32269,-75.56235 S637.8986226269532,218.70204589843752 629.8304426269531,220.26274589843752 z" fill="#2f2e41" id="svg_33"/><path d="M649.5442926269532,212.94404589843748 l10.32985,-1.7188700000000001 s38.34509,10.15015 43.98407,27.06711 l-15.78918,39.47284 s11.278,72.17892 7.89459,72.17892 h-3.38336 s9.02233,6.76679 3.38336,9.02237 s-19.17255,20.30032 -22.55591,12.40573 s-23.68372,-101.50165 -21.4281,-121.802 S647.5413026269531,215.07082589843748 649.5442926269532,212.94404589843748 z" fill="#2f2e41" id="svg_34"/><path d="M654.0272826269531,167.3378158984375 l1.00363,-2.02 l-5.05,-2.50907 s-5.571,-9.06457 -15.65184,-6.51723 s-14.61641,4.07187 -14.61641,4.07187 l-5.03724,2.53457 l2.5281700000000003,2.51545 l-4.53544,1.5245799999999998 l3.03,1.50543 l-3.52547,2.02637 l1.8978400000000002,10.387880000000001 s3.15217,-7.87881 9.21214,-4.86794 s17.14458,-1.55643 17.14458,-1.55643 l9.63008,18.63725 s1.98669,-6.5332799999999995 5.52884,-4.7912099999999995 C655.5861826269531,188.2793658984375 664.6354526269531,173.86776589843748 654.0272826269531,167.3378158984375 z" fill="#2f2e41" id="svg_35"/><path d="M685.3960526269532,365.23684589843754 a10.05573,10.05573 0 0 1 7.18746,-13.6417 l4.34113,-35.47018 l14.14564,12.03057 l-6.29109,31.83867 a10.11027,10.11027 0 0 1 -19.38314,5.24264 z" fill="#ffb7b7" id="svg_36"/><path d="M624.8939426269532,362.79604589843746 a10.05575,10.05575 0 0 0 -8.59341,-12.80269 l-8.07766,-34.80992 L595.4326226269532,328.6460458984375 l9.63157,30.99212 A10.11027,10.11027 0 0 0 624.8939426269532,362.79604589843746 z" fill="#ffb7b7" id="svg_37"/><path d="M685.9412826269531,229.1013658984375 s14.66131,-5.639 19.17255,11.278 S715.2639426269532,291.1302058984375 715.2639426269532,291.1302058984375 c0.28032000000000007,18.81388 -0.7196800000000001,18.81388 0,37.21726 l-3.38336,16.91693 l-19.17255,-2.25562 l0.83623,-43.06469 l-9.85863,-43.77564 z" fill="#2f2e41" id="svg_38"/><path d="M604.8453326269531,242.12373589843747 l-6.95141,0.74356 s-6.58216,4.89542 -6.58216,16.17337 s-1.12781,45.11185 -1.12781,45.11185 s-0.6396600000000001,0.79157 4.51117,29.32269 c2.51059,13.90645 6.84917,20.46888 6.84917,20.46888 l14,-13 l-1.67656,-33.40821 l4.51117,-18.04474 z" fill="#2f2e41" id="svg_39"/><path d="M259.40539262695313,537.4072158984375 c-19.51084,14.54435 -25.04043,40.13465 -25.04043,40.13465 s26.10369,2.00927 45.61453,-12.53511 S305.01994262695314,524.8721058984376 305.01994262695314,524.8721058984376 S278.91624262695314,522.8628958984375 259.40539262695313,537.4072158984375 z" fill="#20b97c" id="svg_42" class="" fill-opacity="1"/><path d="M267.5327426269531,544.2358058984375 C258.15566262695313,566.6920458984375 234.67094262695315,578.2640458984375 234.67094262695315,578.2640458984375 s-8.28141,-24.83665 1.09568,-47.29285 s32.86172,-34.02823 32.86172,-34.02823 S276.9098326269531,521.7795958984375 267.5327426269531,544.2358058984375 z" fill="#20b97c" id="svg_43" class="" fill-opacity="1"/></g></svg>