<svg xmlns="http://www.w3.org/2000/svg" xmlns:xlink="http://www.w3.org/1999/xlink" data-name="Layer 1" width="571.9401" height="689.03807"><rect id="backgroundrect" width="100%" height="100%" x="0" y="0" fill="none" stroke="none"/><g class="currentLayer" style=""><title>Layer 1</title><path d="M4.088801113281249,329.5574910180664 a27.98147,27.98147 0 0 0 42.37447,6.73419 L132.72000111328123,385.7632310180664 L129.50524111328127,334.19083101806643 l-81.418,-39.07245 a28.13311,28.13311 0 0 0 -43.99844,34.43911 z" fill="#ffb8b8" id="svg_1"/><path d="M253.81037111328124,527.7389710180664 c-25.58649,35.81171 -24.67114,95.72552 -17.53253,161.29907 l120.97431,0 l5.25976,-12.27277 l7.013,12.27277 H483.4862811132813 s-8.76624,-166.5589 -24.54554,-171.81867 S253.81037111328124,527.7389710180664 253.81037111328124,527.7389710180664 z" fill="#2f2e41" id="svg_2"/><circle cx="357.252197265625" cy="92.21839904785156" r="61.3637809753418" fill="#ffb8b8" id="svg_3"/><path d="M401.60364111328124,169.50295101806643 l12,23 l83,37 L474.78627111328126,440.6387810180664 L465.60364111328124,462.50295101806637 l4.96133,18.98719 L458.60364111328124,495.50295101806637 c12.00666,10.86383 13.53168,22.23645 7,34 l-38.22143,8.75551 s-212.52143,18.89787 -194.6109,-14.026 c19.5697,-35.97382 24.5531,-142.21509 -18.64893,-198.988 c-36.67743,-48.19873 -8.51874,-110.74154 -8.51874,-110.74154 l87,-26 l32,-19 z" fill="#3f3d56" id="svg_4"/><path d="M384.4951911132813,2.330121018066407 a3.3845,3.3845 0 0 1 3.25677,-1.9327200000000002 c-28.09344,-1.6804700000000001 -57.68463,1.5939 -81.18768,17.0753 c-5.694,3.7506500000000003 -11.06234,8.2243 -17.25845,10.94508 a1.85911,1.85911 0 0 0 -0.37964000000000003,3.1630000000000003 l0.6805200000000001,0.53368 a1.86606,1.86606 0 0 1 -0.60741,3.25335 l0,0 a1.86606,1.86606 0 0 0 -0.46880000000000005,3.3521900000000002 l5.21528,3.37072 a1.85778,1.85778 0 0 1 0.017100000000000004,3.12575 a9.27094,9.27094 0 0 1 -1.38684,0.7031900000000001 a1.8617700000000001,1.8617700000000001 0 0 0 -0.5900000000000001,3.12753 a18.53712,18.53712 0 0 1 5.04588,7.37659 c1.73828,4.51977 2.05054,9.44217 2.34418,14.27575 c1.79657,-6.9742999999999995 9.408,-11.07971 16.597830000000002,-11.49687 s14.20191,1.95513 21.1991,3.66045 a117.27165,117.27165 0 0 0 46.548,1.79065 c-5.25647,10.54876 -0.82245,23.13119 3.63952,34.03981 l14.44311,-6.19059 c19.83576,-11.1969 6.01886,36.16774 -1.39679,42.67007 c15.14148,5.24939 54.77246,-53.01373 42.02326,-75.11433 c-6.632,-11.496410000000001 -1.92432,-26.324 -14.96289,-37.2275 c-6.39032,-6.72715 -19.14893,-3.73718 -25.66358,-9.32824 c-2.56408,-2.20055 1.3441200000000002,-8.08781 -2.17956,-9.37084 C398.2536411132812,3.7059910180664133 384.6887311132813,1.9006210180664027 384.4951911132813,2.330121018066407 z" fill="#2f2e41" id="svg_5"/><path d="M280.5536411132813,194.4428910180664 c-11.26,49.99 -40.14,166.71 -69.44,191.12011 a17.09185,17.09185 0 0 1 -6.52,3.84986 c-102.99,25.09009 -135.99,-38.909909999999996 -135.99,-38.909909999999996 s27.6,-13.45 28.3,-39.74 l55.66,17.27 l48.52,-109.19007 l7.14,-6.66 l0.04000000000000001,-0.039920000000000004 z" fill="#3f3d56" id="svg_6"/><path d="M500.14506111328126,656.0758910180664 a27.9815,27.9815 0 0 0 -2.93831,-42.80551 L526.0786411132813,518.1174710180665 l-49.53858,14.69627 L456.7176411132813,620.9194710180664 a28.13311,28.13311 0 0 0 43.42743,35.15642 z" fill="#ffb8b8" id="svg_7"/><path d="M473.72004111328124,224.17973101806643 l22.8836,5.32322 s94.58417,184.02791 71.79194,219.09292 s-50.7146,151.15612 -50.7146,151.15612 s-41.298,-8.21 -57.07734,-29.249 l28.89558,-137.68626 l-29.8053,-115.7146 z" fill="#3f3d56" id="svg_8"/><path d="M39.579531113281234,497.45568101806646 l0.8217200000000001,-296.38866 a22.65241,22.65241 0 0 1 22.68944,-22.564 l223.83925,0.6205900000000001 a22.65238,22.65238 0 0 1 22.56385,22.68944 l-0.8217200000000001,296.38866 a22.65238,22.65238 0 0 1 -22.68932,22.564 l-223.83924,-0.62058 A22.6524,22.6524 0 0 1 39.579531113281234,497.45568101806646 z" fill="#e6e6e6" id="svg_9"/><path d="M56.99758111328123,407.98149101806644 l0.52828,-190.54552 a21.21423,21.21423 0 0 1 21.24934,-21.13184 l192.371,0.53334 a21.21515,21.21515 0 0 1 21.13292,21.24935 l-0.7312200000000001,263.74558 A21.21517,21.21517 0 0 1 270.2974611132812,502.96423101806636 L151.12764111328124,502.63386101806645 A94.49829,94.49829 0 0 1 56.99758111328123,407.98149101806644 z" fill="#fff" id="svg_10"/><path d="M249.10364111328124,280.0029510180664 h-150 a9,9 0 0 1 0,-18 h150 a9,9 0 0 1 0,18 z" fill="#0a42a5" id="svg_11"/><path d="M132.10364111328124,238.50295101806643 h-33 a9,9 0 0 1 0,-18 h33 a9,9 0 0 1 0,18 z" fill="#0a42a5" id="svg_12"/><path d="M249.10364111328124,321.5029510180664 h-150 a9,9 0 0 1 0,-18 h150 a9,9 0 0 1 0,18 z" fill="#0a42a5" id="svg_13"/><path d="M249.10364111328124,363.0029510180664 h-150 a9,9 0 0 1 0,-18 h150 a9,9 0 0 1 0,18 z" fill="#0a42a5" id="svg_14"/><circle cx="236.966552734375" cy="436.5426330566406" r="35.81101989746094" fill="#20b97c" id="svg_15" class="" fill-opacity="1"/><path d="M232.08118111328122,455.18060101806645 a3.98231,3.98231 0 0 1 -3.18646,-1.5937200000000002 l-9.7698,-13.02661 a3.98339,3.98339 0 1 1 6.3735800000000005,-4.77985 l6.39173,8.52166 l16.41634,-24.62419 a3.9835599999999998,3.9835599999999998 0 1 1 6.6290000000000004,4.41936 L235.39602111328122,453.4066310180664 a3.9851,3.9851 0 0 1 -3.204,1.7726700000000002 C232.15510111328126,455.1799510180664 232.11814111328124,455.18060101806645 232.08118111328122,455.18060101806645 z" fill="#fff" id="svg_16"/><circle cx="160.60365295410156" cy="92.5029525756836" r="17" fill="#20b97c" id="svg_17" class="selected" fill-opacity="1"/><circle cx="98.60365295410156" cy="581.5029296875" r="17" fill="#20b97c" id="svg_18" class="selected" fill-opacity="1"/><circle cx="489.6036376953125" cy="158.50294494628906" r="17" fill="#20b97c" id="svg_19" class="selected" fill-opacity="1"/></g></svg>