<svg xmlns="http://www.w3.org/2000/svg" xmlns:xlink="http://www.w3.org/1999/xlink" data-name="Layer 1" width="1061" height="507.3972"><rect id="backgroundrect" width="100%" height="100%" x="0" y="0" fill="none" stroke="none"/><g class="currentLayer" style=""><title>Layer 1</title><path id="f8c762bc-b7e7-4c8e-b73e-f411c620c2bd-137" data-name="Path 765" d="M828.793,76.23119313964844 H568.623 v-5.362 H450.65200000000004 v5.362 H189.41000000000003 a17.6,17.6 0 0 0 -17.6,17.6 h0 v356.25 a17.6,17.6 0 0 0 17.6,17.6 H828.793 a17.6,17.6 0 0 0 17.6,-17.6 v-356.252 A17.6,17.6 0 0 0 828.793,76.23119313964844 z" fill="#3f3d56"/><rect id="febd0196-f53d-4e2b-8506-d3dc9ab4b723" data-name="Rectangle 125" x="195.406005859375" y="107.33219909667969" width="627.3909912109375" height="353.9129943847656" fill="#e6e6e6"/><rect id="a687e43e-dc25-402c-aff7-aaf80cd82cec" data-name="Rectangle 130" x="222.01300048828125" y="126.04821014404297" width="574.3909912109375" height="305.9129943847656" fill="#fff"/><circle id="fb392c0f-c18b-4dca-9f8d-a13ba02e8cd8" data-name="Ellipse 120" cx="508.56500244140625" cy="91.24620819091797" r="6.434999942779541" fill="#20b97c"/><path id="a3b325e1-b438-4eea-a78d-99975bd1014d-138" data-name="Path 766" d="M864.007,454.81017313964844 H802.778 v-4.412 a0.8750000000000001,0.8750000000000001 0 0 0 -0.8750000000000001,-0.8750000000000001 H780.91 a0.8750000000000001,0.8750000000000001 0 0 0 -0.8750000000000001,0.8750000000000001 h0 v4.412 h-13.12 v-4.412 a0.8750000000000001,0.8750000000000001 0 0 0 -0.8750000000000001,-0.8750000000000001 H745.047 a0.8750000000000001,0.8750000000000001 0 0 0 -0.8750000000000001,0.8750000000000001 h0 v4.412 h-13.12 v-4.412 a0.8750000000000001,0.8750000000000001 0 0 0 -0.8750000000000001,-0.8750000000000001 H709.184 a0.8750000000000001,0.8750000000000001 0 0 0 -0.8750000000000001,0.8750000000000001 h0 v4.412 h-13.12 v-4.412 a0.8750000000000001,0.8750000000000001 0 0 0 -0.8750000000000001,-0.8750000000000001 H673.322 a0.8750000000000001,0.8750000000000001 0 0 0 -0.8750000000000001,0.8750000000000001 h0 v4.412 H659.326 v-4.412 a0.8750000000000001,0.8750000000000001 0 0 0 -0.8750000000000001,-0.8750000000000001 H637.459 a0.8750000000000001,0.8750000000000001 0 0 0 -0.8750000000000001,0.8750000000000001 h0 v4.412 H623.463 v-4.412 a0.8750000000000001,0.8750000000000001 0 0 0 -0.8750000000000001,-0.8750000000000001 H601.6 a0.8750000000000001,0.8750000000000001 0 0 0 -0.8750000000000001,0.8750000000000001 h0 v4.412 H587.6 v-4.412 a0.8750000000000001,0.8750000000000001 0 0 0 -0.8750000000000001,-0.8750000000000001 H422.281 a0.8750000000000001,0.8750000000000001 0 0 0 -0.8750000000000001,0.8750000000000001 h0 v4.412 h-13.12 v-4.412 a0.8750000000000001,0.8750000000000001 0 0 0 -0.8750000000000001,-0.8750000000000001 H386.418 a0.8750000000000001,0.8750000000000001 0 0 0 -0.8750000000000001,0.8750000000000001 h0 v4.412 h-13.12 v-4.412 a0.8750000000000001,0.8750000000000001 0 0 0 -0.8750000000000001,-0.8750000000000001 H350.556 a0.8750000000000001,0.8750000000000001 0 0 0 -0.8750000000000001,0.8750000000000001 h0 v4.412 H336.56 v-4.412 a0.8750000000000001,0.8750000000000001 0 0 0 -0.8750000000000001,-0.8750000000000001 H314.693 a0.8750000000000001,0.8750000000000001 0 0 0 -0.8750000000000001,0.8750000000000001 h0 v4.412 H300.7 v-4.412 a0.8750000000000001,0.8750000000000001 0 0 0 -0.8750000000000001,-0.8750000000000001 H278.83 a0.8750000000000001,0.8750000000000001 0 0 0 -0.8750000000000001,0.8750000000000001 h0 v4.412 h-13.12 v-4.412 a0.8750000000000001,0.8750000000000001 0 0 0 -0.8750000000000001,-0.8750000000000001 H242.96699999999998 a0.8750000000000001,0.8750000000000001 0 0 0 -0.8750000000000001,0.8750000000000001 h0 v4.412 h-13.12 v-4.412 a0.8750000000000001,0.8750000000000001 0 0 0 -0.8750000000000001,-0.8750000000000001 H207.10000000000002 a0.8750000000000001,0.8750000000000001 0 0 0 -0.8750000000000001,0.8750000000000001 h0 v4.412 H165.993 a20.993,20.993 0 0 0 -20.993,20.993 v9.49207 a20.993,20.993 0 0 0 20.993,20.993 H864.007 a20.993,20.993 0 0 0 20.993,-20.992 v-9.492 a20.993,20.993 0 0 0 -20.993,-20.993 z" fill="#3f3d56"/><rect id="e8772b6c-5a9b-4fa1-81c9-662ac65893c6" data-name="Rectangle 126" x="382.2090148925781" y="147.5041961669922" width="254" height="267" fill="#e6e6e6"/><path id="b307d008-1640-4a06-af2e-4466e39d32c3-139" data-name="Path 776" d="M957.9570000000001,435.53216313964845 c14.376,15.426 15.119,38.1 15.119,38.1 s-22.565,-2.338 -36.941,-17.764 s-15.119,-38.1 -15.119,-38.1 S943.581,420.10619313964844 957.9570000000001,435.53216313964845 z" fill="#20b97c"/><path id="e6bb151c-e5ac-48bf-b05a-35e8b71544cc-140" data-name="Path 777" d="M1003.2139999999999,459.6112031396484 c-15.426,14.376 -38.1,15.119 -38.1,15.119 s2.338,-22.565 17.764,-36.941 s38.1,-15.119 38.1,-15.119 S1018.6410000000001,445.2351631396484 1003.2139999999999,459.6112031396484 z" fill="#20b97c"/><path id="e2659c84-c871-46e0-a841-faed920e56d0-141" data-name="Path 778" d="M999.3800000000001,505.39617313964845 h-56.739 a5.8,5.8 0 0 1 -5.219,-3.265 l-12.353,-25.393 a5.8,5.8 0 0 1 5.219,-8.342 h81.446 a5.80007,5.80007 0 0 1 5.219,8.342 l-12.353,25.394 a5.8,5.8 0 0 1 -5.219,3.265 z" fill="#e5e5e5"/><path id="b4ca1fea-0850-4eee-815e-097d11075e0d-142" data-name="Path 779" d="M60.956999999999994,435.53216313964845 c14.376,15.426 15.119,38.1 15.119,38.1 s-22.565,-2.338 -36.941,-17.764 s-15.119,-38.1 -15.119,-38.1 S46.581,420.10619313964844 60.956999999999994,435.53216313964845 z" fill="#0a42a5" class="" fill-opacity="1"/><path id="f6595469-42b3-4592-aaf8-acdcc6d1b7a1-143" data-name="Path 780" d="M93.38,505.39617313964845 H36.641000000000005 a5.7999,5.7999 0 0 1 -5.219,-3.265 l-12.353,-25.393 a5.8,5.8 0 0 1 5.219,-8.342 h81.446 a5.8,5.8 0 0 1 5.219,8.342 L98.6,502.1321931396484 a5.8,5.8 0 0 1 -5.219,3.265 z" fill="#e5e5e5"/><circle id="b9fa2d1d-eaff-4f39-9574-6fdb852a47dd" data-name="Ellipse 127" cx="539.8560180664062" cy="189.3302001953125" r="33.75699996948242" fill="#a0616a"/><path id="a3ede095-a03b-477f-a348-b0bb518c525f-144" data-name="Path 803" d="M462.18600000000004,415.05422313964846 l21.8,-137.237 a52.032,52.032 0 0 1 65.97894,-41.781 h0 a51.87505,51.87505 0 0 1 36.561,59.46 l-22.8,122.559 z" fill="#0a42a5" class="" fill-opacity="1"/><path id="a14f3686-8e71-4892-a260-94847064fbe5-145" data-name="Path 804" d="M549.176,439.6091731396484 a13.821,13.821 0 0 0 2.4,-21.056 l22.535,-43.639 l-25.378,2.708 l-17.509,41.026 a13.9,13.9 0 0 0 17.951,20.962 z" fill="#a0616a"/><path id="aefe090c-eadc-4acf-b060-d0ae14889076-146" data-name="Path 805" d="M554.002,410.85619313964844 a6.19321,6.19321 0 0 1 -3.335,-1.582 l-8.622,-7.9670000000000005 a6.205,6.205 0 0 1 -1.5,-6.946 l17.232,-40.845 l-2.4450000000000003,-80.705 a19.92432,19.92432 0 1 1 39.483,5.386 h0 l4.18,50.733 a63.73711,63.73711 0 0 1 -12.284,43.152 l-26.873,36.329 a6.19082,6.19082 0 0 1 -4.391,2.479 A6.12051,6.12051 0 0 1 554.002,410.85619313964844 z" fill="#0a42a5" class="" fill-opacity="1"/><path id="b24d83c7-6fd4-4d89-b0e2-e143511102b2-147" data-name="Path 806" d="M345.459,170.93819313964843 a13.821,13.821 0 0 0 18.453,10.421 l31.4,37.766 l7.4,-24.426 l-30.952,-32.119 a13.9,13.9 0 0 0 -26.3,8.358 z" fill="#a0616a"/><path id="a479cb15-9c48-424e-90d4-4868fd6ffd90-148" data-name="Path 807" d="M370.056,186.59218313964845 a6.19406,6.19406 0 0 1 2.757,-2.454 l10.7,-4.833 a6.205,6.205 0 0 1 6.982,1.327 l30.894,31.793 l75.272,29.215 a19.92421,19.92421 0 1 1 -20.354,34.258 h0 l-48.347,-15.932 a63.73686,63.73686 0 0 1 -34.948,-28.137 l-22.976,-38.91 a6.19212,6.19212 0 0 1 -0.5710000000000001,-5.01 a6.12558,6.12558 0 0 1 0.5940000000000001,-1.316 z" fill="#0a42a5" class="" fill-opacity="1"/><path id="fbb91ec3-afe3-4815-be57-4aca5997223d-149" data-name="Path 808" d="M567.237,306.38320313964846 l-1.374,43.981 l-25.319,44 l21.141,-49.03 z" opacity="0.1" style="isolation:isolate"/><path id="b3c0f84b-28f9-45ec-afed-9c3bdf0aec76-150" data-name="Path 696" d="M516.995,172.4101931396484 c3.482,4.121 9.374,5.283 14.81,5.76 c11.039,0.9680000000000001 27.091,-0.6000000000000001 37.879,-3.093 c0.77,7.463 -1.3290000000000002,15.509 3.066,21.648 a100.49878,100.49878 0 0 0 3.571,-22.783 c0.133,-3.3 0.08100000000000002,-6.724 -1.262,-9.758000000000001 s-4.272,-5.609 -7.6450000000000005,-5.636 a19.16113,19.16113 0 0 1 8.547,-3.654 l-10.68,-5.367 l2.7430000000000003,-2.816 l-19.336,-1.183 l5.6,-3.558 a121.439,121.439 0 0 0 -25.441,-0.8 c-3.94,0.29000000000000004 -8.06,0.8450000000000001 -11.252,3.128 s-5.037,6.82 -3.055,10.172 a14.77,14.77 0 0 0 -11.256,8.931000000000001 c-1.423,3.608 -1.2930000000000001,7.616 -0.8540000000000001,11.461 a81.23381,81.23381 0 0 0 4.26,18.02 " fill="#2f2e41"/><path id="a138b9cb-cdfc-4f68-9e32-04b91bb430b4-151" data-name="Path 138" d="M661.305,87.84397313964843 L353.7071,158.85859313964846 a5.853,5.853 0 0 1 -7.01124,-4.38111 L329.08018,78.17559313964841 a5.853,5.853 0 0 1 4.38111,-7.01124 l307.59794,-71.01459 a5.853,5.853 0 0 1 7.01124,4.38111 l17.61569,76.302 A5.853,5.853 0 0 1 661.305,87.84397313964843 z" fill="#fff"/><path id="ae469d8c-20b4-445b-a76f-3c35ff3d2f47-152" data-name="Path 138" d="M661.305,87.84397313964843 L353.7071,158.85859313964846 a5.853,5.853 0 0 1 -7.01124,-4.38111 L329.08018,78.17559313964841 a5.853,5.853 0 0 1 4.38111,-7.01124 l307.59794,-71.01459 a5.853,5.853 0 0 1 7.01124,4.38111 l17.61569,76.302 A5.853,5.853 0 0 1 661.305,87.84397313964843 zM333.98745,73.44334313964845 a3.512,3.512 0 0 0 -2.629,4.20721 l17.6157,76.302 a3.511,3.511 0 0 0 4.20721,2.62895 L660.77934,85.56689313964841 a3.511,3.511 0 0 0 2.62895,-4.20721 l-17.61591,-76.30292 a3.511,3.511 0 0 0 -4.20722,-2.629 z" fill="#e6e6e6"/><path id="b1e356c5-36d3-4e1f-8361-52645d018384-153" data-name="Path 139" d="M440.721,73.20742313964843 a3.9690000000000003,3.9690000000000003 0 1 0 1.77222,7.73764 l0.013440000000000002,-0.0031000000000000008 l182.31241,-42.09014 a3.9690000000000003,3.9690000000000003 0 0 0 -1.78566,-7.73454 z" fill="#e6e6e6"/><path id="f47b3ab2-4a63-40b6-b578-ee0e1882dc1b-154" data-name="Path 140" d="M446.07821,96.41207313964844 a3.9690000000000003,3.9690000000000003 0 1 0 1.77222,7.73764 l0.013440000000000002,-0.0031000000000000008 l78.44946,-18.11148 a3.9690000000000003,3.9690000000000003 0 0 0 -1.77222,-7.73764 l-0.013440000000000002,0.0031000000000000008 z" fill="#e6e6e6"/><g id="ebccd953-b296-4a3a-b6cb-ab9b47d83c6a" data-name="Group 45" class=""><circle id="f502afc0-c552-46f8-b839-9472032a2f9d" data-name="Ellipse 18" cx="390.88067626953125" cy="100.82286834716797" r="23.81399917602539" fill="#20b97c"/><path id="e70683fc-6315-4eed-926a-207d48de8bbe-155" data-name="Path 395" d="M390.21085,114.56064313964845 a3.689,3.689 0 0 1 -2.32814,-0.21993000000000004 l-0.045730000000000014,-0.02023 l-9.58212,-4.35 a3.71619,3.71619 0 1 1 3.07693,-6.76555 l6.209,2.82673 l8.71069,-19.14 a3.713,3.713 0 0 1 4.91681,-1.84124 h0 l-0.05224000000000001,0.125 l0.05516000000000001,-0.12563 a3.717,3.717 0 0 1 1.84049,4.918 l-10.24462,22.51563 a3.715,3.715 0 0 1 -2.5525700000000002,2.07539 z" fill="#fff"/></g></g></svg>