<?xml version="1.0" encoding="utf-8"?>
<!-- Generator: Adobe Illustrator 24.0.2, SVG Export Plug-In . SVG Version: 6.00 Build 0)  -->
<svg version="1.1" id="Layer_1" xmlns="http://www.w3.org/2000/svg" xmlns:xlink="http://www.w3.org/1999/xlink" x="0px" y="0px"
	 viewBox="0 0 885.9 622.8" style="enable-background:new 0 0 885.9 622.8;" xml:space="preserve">
<style type="text/css">
	.st0{fill:#3F3D56;}
	.st1{fill:#20B97C;}
	.st2{opacity:0.2;enable-background:new    ;}
	.st3{fill:#E6E6E6;}
	.st4{fill:#FFFFFF;}
	.st5{fill:#9E616A;}
	.st6{fill:#D0CDE1;}
	.st7{fill:#DADADA;}
	.st8{fill:#B9E8FF;}
	.st9{fill:#425D8C;stroke:#4A90D6;}
	.st10{fill:#404040;}
	.st11{fill:#425D8C;}
	.st12{fill:#A5666F;}
	.st13{opacity:0.1;enable-background:new    ;}
	.st14{fill:#DDDBDB;}
</style>
<title>through_the_park</title>
<polygon class="st0" points="461.6,348.4 400.4,348.4 400.4,350.3 410,350.3 410,369.1 411.9,369.1 411.9,350.3 449.1,350.3 
	449.1,369.1 451.1,369.1 451.1,350.3 461.6,350.3 "/>
<polygon class="st0" points="484.3,300 468.5,300 468.5,315.8 475.8,315.8 475.8,369 477.8,369 477.8,315.8 484.3,315.8 "/>
<rect x="400.5" y="342.5" class="st0" width="61.2" height="2"/>
<rect x="400.5" y="337.5" class="st0" width="61.2" height="2"/>
<rect x="400.5" y="332.6" class="st0" width="61.2" height="2"/>
<circle class="st1" cx="755.3" cy="229.8" r="130.6"/>
<path class="st2" d="M852.4,142.6c28.4,66.3-2.4,143.1-68.8,171.4c-51.6,22.1-111.5,8.7-148.9-33.2c28.4,66.3,105.1,97.1,171.4,68.8
	s97.1-105.1,68.8-171.4C869.4,165.1,861.8,153.1,852.4,142.6z"/>
<polygon class="st0" points="755.6,229.8 756,229.8 762.5,600.1 748.8,600.1 "/>
<rect x="754.9" y="431.1" transform="matrix(0.8849 -0.4659 0.4659 0.8849 -113.9994 407.3751)" class="st0" width="24.4" height="6.5"/>
<circle class="st1" cx="369.9" cy="321.7" r="20.6"/>
<path class="st2" d="M385.2,308c4.5,10.4-0.4,22.5-10.8,27c-8.1,3.5-17.6,1.4-23.4-5.2c4.5,10.4,16.5,15.3,27,10.8
	c10.4-4.5,15.3-16.5,10.8-27C387.9,311.5,386.7,309.6,385.2,308z"/>
<polygon class="st0" points="370,321.7 370,321.7 371,380 368.9,380 "/>
<rect x="369.9" y="353.4" transform="matrix(0.8849 -0.4659 0.4659 0.8849 -122.06 213.9413)" class="st0" width="3.8" height="1"/>
<rect x="559.7" y="336.6" transform="matrix(0.8849 -0.4659 0.4659 0.8849 -92.381 301.9491)" class="st0" width="9.8" height="2.6"/>
<path class="st0" d="M197.5,585c0.4-8,0.3-14.3,14.7-12.6"/>
<circle class="st1" cx="193.6" cy="561.5" r="7"/>
<rect x="192.4" y="573.2" class="st0" width="2" height="16.8"/>
<path class="st0" d="M246.9,563.5c0,0,0.7-14.3,14.7-12.6"/>
<circle class="st1" cx="242.9" cy="542.9" r="7"/>
<rect x="241.8" y="554.7" class="st0" width="2" height="13.8"/>
<path class="st0" d="M395.6,453c0,0,0.5-11.3,11.6-10"/>
<circle class="st1" cx="392.5" cy="436.6" r="5.6"/>
<rect x="391.6" y="446" class="st0" width="1.6" height="11"/>
<path class="st0" d="M612.7,417.5c0,0,0.5-11.3,11.6-10"/>
<circle class="st1" cx="609.6" cy="401.1" r="5.6"/>
<rect x="608.7" y="410.5" class="st0" width="1.6" height="11"/>
<path class="st0" d="M405.5,482.6c0,0,0.5-11.3,11.6-10"/>
<circle class="st1" cx="402.3" cy="466.2" r="5.6"/>
<rect x="401.4" y="475.6" class="st0" width="1.6" height="11"/>
<path class="st0" d="M381.8,504.3c0,0,0.5-11.3,11.6-10"/>
<circle class="st1" cx="378.7" cy="488" r="5.6"/>
<rect x="377.8" y="497.3" class="st0" width="1.6" height="11"/>
<path class="st0" d="M646.3,436.2c0,0,0.5-11.3,11.6-10"/>
<circle class="st1" cx="643.1" cy="419.9" r="5.6"/>
<rect x="642.2" y="429.2" class="st0" width="1.6" height="11"/>
<path class="st0" d="M326.5,460.9c0,0,0.5-11.3,11.6-10"/>
<circle class="st1" cx="323.4" cy="444.5" r="5.6"/>
<rect x="322.5" y="453.9" class="st0" width="1.6" height="11"/>
<path class="st0" d="M583.1,404.6c0,0,0.5-11.3,11.6-10"/>
<circle class="st1" cx="580" cy="388.3" r="5.6"/>
<rect x="579.1" y="397.6" class="st0" width="1.6" height="11"/>
<path class="st0" d="M213.8,539.1c0,0,0.7-14.3,14.7-12.6"/>
<circle class="st1" cx="209.8" cy="518.5" r="7"/>
<rect x="208.7" y="530.3" class="st0" width="2" height="13.8"/>
<path class="st0" d="M791.6,595.1c0,0,0.7-14.3,14.7-12.6"/>
<circle class="st1" cx="787.7" cy="574.5" r="7"/>
<rect x="786.5" y="586.2" class="st0" width="2" height="13.8"/>
<path class="st0" d="M734.4,561.5c0,0,0.7-14.3,14.7-12.6"/>
<circle class="st1" cx="730.4" cy="540.9" r="7"/>
<rect x="729.3" y="552.7" class="st0" width="2" height="13.8"/>
<path class="st0" d="M726.5,611.8c0,0,0.7-14.3,14.7-12.6"/>
<circle class="st1" cx="722.5" cy="591.2" r="7"/>
<rect x="721.4" y="603" class="st0" width="2" height="13.8"/>
<path class="st3" d="M188.9,602.9c91.1-29.2,244.1-87.2,242-146.2c-5.4-23.2-42.9-29.1-42.9-29.1s-88.8-11.8-40.5-40.5
	s180.6-21.7,180.6-21.7s-136.2,21.7-76,33.6c48.4,3,110.5,15.8,110.5,15.8s126.3,26.6,144.1,91.8c13.5,49.6,8.2,90.7,4.8,107.4
	c-0.9,4.7-5,8.1-9.8,8.1L192,622.4C180.6,622.4,178,606.4,188.9,602.9z"/>
<path class="st4" d="M461.6,622.8l-1.2-1.6c1.6-1.2,3.3-2.3,4.9-3.5l1.2,1.6C464.9,620.5,463.3,621.6,461.6,622.8z"/>
<path class="st4" d="M476.1,612.1l-1.2-1.6c3.2-2.4,6.4-4.9,9.5-7.3l1.2,1.6C482.6,607.2,479.4,609.7,476.1,612.1z M494.9,597.2
	l-1.3-1.5c3.1-2.6,6.2-5.2,9.1-7.8l1.3,1.5C501.2,592,498.1,594.6,494.9,597.2z M513,581.4l-1.4-1.5c3-2.8,5.9-5.6,8.6-8.3l1.4,1.4
	C518.9,575.7,516,578.5,513,581.4z M529.8,564.2l-1.5-1.3c2.7-3.1,5.3-6.1,7.7-9.1l1.6,1.2C535.2,558,532.6,561.1,529.8,564.2z
	 M544.8,545.4l-1.7-1.1c2.3-3.4,4.4-6.8,6.2-10.1l1.8,1C549.3,538.4,547.1,541.9,544.8,545.4z M556.3,524.1l-1.9-0.7
	c1.5-3.7,2.6-7.4,3.4-11.3l2,0.4C558.9,516.5,557.8,520.4,556.3,524.1L556.3,524.1z M559,500.4c-0.1-3.9-0.6-7.8-1.6-11.5l1.9-0.5
	c1.1,3.9,1.6,7.9,1.7,12L559,500.4z M553,478.1c-1.9-3.4-4.1-6.7-6.7-9.7l1.5-1.3c2.6,3.1,4.9,6.4,6.9,10L553,478.1z M538.1,460
	c-3-2.6-6.1-5.1-9.3-7.3l1.2-1.6c3.3,2.3,6.5,4.8,9.5,7.5L538.1,460z M518.7,446.3c-3.3-1.9-6.8-3.8-10.5-5.7l0.9-1.8
	c3.7,1.9,7.3,3.8,10.6,5.8L518.7,446.3z M497.4,435.4c-3.5-1.5-7.2-3.1-11-4.6l0.7-1.9c3.9,1.5,7.6,3.1,11.1,4.7L497.4,435.4z
	 M475.2,426.6c-3.6-1.3-7.4-2.6-11.3-3.9l0.6-1.9c4,1.3,7.8,2.7,11.4,4L475.2,426.6z M452.4,418.9c-3.5-1.1-7.2-2.3-11.5-3.5
	l0.6-1.9c4.2,1.3,8,2.4,11.5,3.5L452.4,418.9z M429.5,411.9c-4-1.2-7.9-2.4-11.5-3.5l0.6-1.9c3.6,1.1,7.5,2.3,11.5,3.5L429.5,411.9z
	 M406.5,404.7c-3.8-1.3-7.6-2.8-11.3-4.5l0.9-1.8c3.6,1.7,7.3,3.2,11,4.4L406.5,404.7z M391.4,391.6l-1.4-1.4
	c1.8-1.9,5.4-3.7,11-5.5l0.6,1.9C396.4,388.3,392.9,390,391.4,391.6L391.4,391.6z M413,383.3l-0.5-1.9c3.5-0.9,7.4-1.8,11.7-2.7
	l0.4,2C420.4,381.6,416.5,382.5,413,383.3L413,383.3z M436.4,378.3l-0.4-2c3.7-0.7,7.7-1.4,11.8-2.2l0.3,2
	C444.1,376.9,440.1,377.6,436.4,378.3L436.4,378.3z M460,374.1l-0.3-2c3.8-0.6,7.7-1.3,11.8-1.9l0.3,2
	C467.7,372.8,463.8,373.5,460,374.1z"/>
<path class="st4" d="M483.9,370.3l-0.3-2c1.9-0.3,3.9-0.6,5.9-0.9l0.3,2C487.8,369.7,485.8,370,483.9,370.3z"/>
<path class="st0" d="M528.1,167.1l9.1-7.3c-7.1-0.8-10,3.1-11.1,6.1c-5.5-2.3-11.5,0.7-11.5,0.7l18.2,6.6
	C531.8,170.8,530.2,168.7,528.1,167.1z"/>
<path class="st0" d="M372.4,213.4l9.1-7.3c-7.1-0.8-10,3.1-11.1,6.1c-5.5-2.3-11.5,0.7-11.5,0.7l18.2,6.6
	C376.1,217.1,374.5,214.9,372.4,213.4z"/>
<path class="st0" d="M403.8,106.9l9.1-7.3c-7.1-0.8-10,3.1-11.1,6.1c-5.5-2.3-11.5,0.7-11.5,0.7l18.2,6.6
	C407.5,110.6,405.9,108.5,403.8,106.9z"/>
<path class="st5" d="M504.7,409"/>
<path class="st5" d="M527.5,409"/>
<g>
	<polygon id="svg_12" class="st6" points="512.6,514.3 511.8,514.3 511.8,513.5 511.4,513.5 511.4,514.3 510.6,514.3 510.6,514.7 
		511.4,514.7 511.4,515.6 511.8,515.6 511.8,514.7 512.6,514.7 	"/>
	<polygon id="svg_19" class="st6" points="500.6,310.8 499.8,310.8 499.8,310 499.4,310 499.4,310.8 498.6,310.8 498.6,311.2 
		499.4,311.2 499.4,312.1 499.8,312.1 499.8,311.2 500.6,311.2 	"/>
	<path id="svg_38" class="st7" d="M549.7,272.5c-1.7-0.2-2.9,1.5-2.8,3c0.1,1.5,1,2.8,1.5,4.2c1.1,3.1,0.3,6.5-0.5,9.7l-2.8,10.9
		c-1,3.8-2.3,8.1-6.2,10c3.7,0.4,7.5-1.5,9.1-4.4c0.7-1.3,1.1-2.9,2.4-3.9c1.4-1,3.4-1,5-0.4c1.6,0.6,3,1.7,4.3,2.6
		c1.9,1.4,4,2.6,6.4,3c2.4,0.4,5.2-0.3,6.5-2.1c1.2-1.6,1.2-4.1,3.2-5c1.6-0.8,3.6,0,5.1,0.9c1.5,0.9,3.2,1.8,5,1.5
		c2.1-0.4,3.3-2.6,3.1-4.5c-0.2-1.9-1.4-3.6-2.3-5.4c-2.7-5.1-3.6-11-2.4-16.7c0.8-3.7,2.4-7.5,1.8-11.2c-0.9-5.2-6.2-9.2-12-10.3
		c-5.8-1.1-11.9,0.4-17.1,3c-3.4,1.7-6.5,3.9-8.3,6.9c-1.7,3-1.8,7,0.6,9.6"/>
	<path id="svg_39" class="st8" d="M532.5,317.8l-6,10.3l-6.6,22.5c0,0-3.4,7.2-2.8,10.3c0.6,3,0,4.2,0,9.7s-2.6,7.7,0,12.1
		c2.6,4.4,10.5,17.3,10.5,17.3l2.4,1.8c0,0,3.2-12.1,6.6-13.1c0,0-3.8-2-2-4.6c1.8-2.6,3.6-4.1,2-5.9c-1.6-1.8-3.6-0.9-1.6-5
		s2.2-7,2.2-7.7c0-0.6,0.4-6.2,4.6-5.8C546,360.1,532.5,317.8,532.5,317.8z"/>
	<path id="svg_40" class="st8" d="M598.6,305.7c0,0,9.9,1.8,12.5,8.7c2.6,6.8,11.1,41.7,11.1,41.7s2.6,10.1,1.8,13.3
		c-0.8,3.2-2.8,5-1.4,8.7c1.4,3.6,4.4,4.8,2.2,8.9c-2.2,4-4.8,13.7-11.5,16.3c-6.6,2.6-8.7,3.8-8.7,3.8l-3.8-16.3l2.6-1.8
		c0,0,0-4-0.2-4.6c-0.2-0.6,1.4-2.5,2.4-3.4c1-0.9,0.8-7.3,0.8-7.3l-8.9-29.8L598.6,305.7z"/>
	<path id="svg_41" class="st9" d="M604.6,411.6L567.2,430l3.4,69.7c0,0,14.1,51.5,13.1,55.2c-1,3.6-14.3,2.6-29.8-1.2
		c-15.5-3.8-7.9-64.8-7.9-64.8s-15.1-77.1-16.7-85.2c-1.2-6,5.9-16,9.6-20.8c1.3-1.7,2.2-2.7,2.2-2.7l51.5-2.2c0,0,0.1,2,3.4,6.3
		c0.8,1.1,1.9,2.4,3.2,3.8C605.8,394.7,604.6,411.6,604.6,411.6z"/>
	<path id="svg_42" class="st10" d="M559.1,552.5l2.8,18.5l-1.4,19.5c0,0-10.7,24.2,8.9,25.6c19.5,1.4,10.7-20.9,10.7-20.9
		c1-1.9,1.5-4.1,1.2-6.2c-0.4-3.6-6.8-38.1-6.8-38.1L559.1,552.5z"/>
	<path id="svg_43" class="st10" d="M568.4,526.7l1.9,12.3l-0.9,12.9c0,0-7.1,16,5.9,17c12.9,0.9,7.1-13.9,7.1-13.9
		c0.7-1.3,1-2.7,0.8-4.1c-0.3-2.4-4.5-25.2-4.5-25.2L568.4,526.7z"/>
	<polygon id="svg_44" class="st11" points="593.9,398.4 604.6,411.6 584.3,530.8 567,528 565,423.7 	"/>
	<circle id="svg_45" class="st12" cx="565.2" cy="269.7" r="17.1"/>
	<path id="svg_46" class="st12" d="M555.1,281.2l2.4,26.4l21.5-0.8c0,0-5.2-19.9-2.4-28.4L555.1,281.2z"/>
	<path id="svg_49" class="st8" d="M601,385.7c-45.9-13.5-67.6,0.6-68.3,0c-0.6-0.6,10.3-18.9,7.4-23.6s-8.3-36.6-9.3-42.7
		c-1-6,14.9-9.3,14.9-9.3l2.4-1.6l3-2c0,0,35.6-2.6,37.9-4.2c0.6-0.3,1.3-0.4,2-0.3c3.7,0.2,10.7,3.3,13.3,4.6
		c3.2,1.6-2.2,42.9-2.2,42.9s0.2,20.9,2.8,29.2C607.6,386.9,601,385.7,601,385.7z"/>
	<path id="svg_50" class="st13" d="M593.1,305.3c0,0-2.8,6.8-19.5,11.1c-16.7,4.2-19.9-1-24.8-7c-0.2-0.3-0.4-0.5-0.6-0.8l3-2
		c0,0,35.6-2.6,37.9-4.2c0.6-0.3,1.3-0.4,2-0.3C591.9,303,592.6,304.2,593.1,305.3z"/>
	<path id="svg_51" class="st8" d="M582.3,295.7c0,0-1.1-12.5-6.1-4.3c-5,8.2-7,9-7,9s-11.9-10.1-14.1-8.9c-2.2,1.2-5,5.2-2.8,8.9
		c2.2,3.6-8.3,1.2-3.4,7.2c4.8,6,8.1,11.3,24.8,7s19.5-11.1,19.5-11.1S588.9,294.3,582.3,295.7z"/>
	<path id="svg_52" class="st14" d="M552.6,243.7c-4.2,1.2-7.6,4.5-8.8,8.7l0,0.1c0.5-1.6,1-3.2,2.3-4.2s3.6-0.9,4.2,0.6
		c0.2,0.4,0.2,0.8,0.2,1.2c-0.1,1.8-1.7,3.1-3.3,4.1c-1.6,0.9-3.3,1.7-4.3,3.1c-1.7,2.5-0.7,5.8-0.7,8.7c0,3.8-1.8,7.5-4.8,9.8
		l5.7-2.3c-2.7,4.7-4.5,10-5.2,15.4l7.7-6.3c-2.8,4.5-4.6,9.7-5,15l6.2-6.3c1,1.7,0,3.8-1,5.5c-1,1.7-2,3.8-1.1,5.5
		c5.2-2.4,7.9-8.5,8.4-14.2c0.5-5.7-0.8-11.5-1.1-17.2c-0.2-2.8,0.2-6.1,2.6-7.6c2.3-1.4,5.2-0.4,7.6,0.6l13.9,5.8
		c1.3,0.6,2.8,1.2,3.7,2.3c1.7,2,1.3,5.1,0.4,7.6s-2.1,5-1.9,7.7c0.2,1.9,1.2,3.7,2.2,5.3c1,1.7,2.1,3.3,2.4,5.2
		c0.3,1.9-0.2,4.1-1.9,5.1c4.4,1,8.7-1.7,9.8-6c0.2-0.8,0.3-1.6,0.2-2.4c-0.2-3.8-3.1-7.2-2.7-11c0.3-2.9,2.4-5.2,3.2-8
		c1-3.8-0.4-7.9-3.7-10.2l4.4,4.7c1.7-2.5,1.5-5.8-0.5-8.1c-1.9-2.1-5-2.9-6.5-5.3c-1.5-2.5-0.7-5.8-2.1-8.3
		c-3.5-6.2-12.4-1.8-17.7-3.9c-2.2-0.9-3.9-1.9-6.3-1.8C556.6,242.7,554.6,243.1,552.6,243.7z"/>
</g>
<g>
	<g>
		<circle class="st1" cx="253.5" cy="237.2" r="81.6"/>
		<polygon class="st0" points="253.7,237.2 254,237.2 258,468.4 249.5,468.4 		"/>
		
			<rect x="253.3" y="362.9" transform="matrix(0.8849 -0.4659 0.4659 0.8849 -139.9645 163.5664)" class="st0" width="15.2" height="4"/>
	</g>
	<path class="st2" d="M313.8,182.8c17.7,41.4-1.5,89.3-42.9,107.1c-32.2,13.8-69.6,5.4-93-20.7c17.7,41.4,65.6,60.6,107.1,42.9
		c41.4-17.7,60.6-65.6,42.9-107.1C324.5,196.9,319.7,189.4,313.8,182.8z"/>
</g>
</svg>
