<svg xmlns="http://www.w3.org/2000/svg" xmlns:xlink="http://www.w3.org/1999/xlink" data-name="Layer 1" width="717.67003" height="556.32201"><rect id="backgroundrect" width="100%" height="100%" x="0" y="0" fill="none" stroke="none"/><g class="currentLayer" style=""><title>Layer 1</title><path d="M587.3944019726563,-0.000004516601563864242 H129.39702197265626 a14.86759,14.86759 0 0 0 -14.84394,14.843820000000001 V323.90238548339846 A14.85811,14.85811 0 0 0 129.39702197265626,338.7461954833984 H587.3944019726563 a14.85813,14.85813 0 0 0 14.84394,-14.84381 V14.843775483398446 A14.86759,14.86759 0 0 0 587.3944019726563,-0.000004516601563864242 z" fill="#e6e6e6" id="svg_2"/><path d="M584.5716519726562,328.51361548339844 H284.4759519726563 A159.15669,159.15669 0 0 1 125.78502197265624,169.82221548339845 v-151.146 a8.45605,8.45605 0 0 1 8.43847,-8.45459 H584.5716519726562 a8.456,8.456 0 0 1 8.43847,8.45459 V320.07514548339844 A8.44792,8.44792 0 0 1 584.5716519726562,328.51361548339844 z" fill="#fff" id="svg_3"/><path d="M560.9332219726563,52.24738548339843 H139.54446197265622 a1.6761500000000003,1.6761500000000003 0 0 1 0,-3.35149 H560.9332219726563 a1.6761500000000003,1.6761500000000003 0 0 1 0,3.35149 z" fill="#cacaca" id="svg_4"/><ellipse cx="168.2289276123047" cy="30.30038070678711" rx="9.820659637451172" ry="10.039520263671875" fill="#3f3d56" id="svg_5"/><ellipse cx="202.15484619140625" cy="30.30038070678711" rx="9.820659637451172" ry="10.039520263671875" fill="#3f3d56" id="svg_6"/><ellipse cx="236.0807342529297" cy="30.30038070678711" rx="9.820659637451172" ry="10.039520263671875" fill="#3f3d56" id="svg_7"/><path d="M426.5161119726563,202.88971548339845 H255.86767197265624 a12.21076,12.21076 0 0 1 -12.32422,-11.18066 a12.00672,12.00672 0 0 1 11.1666,-12.79181 q0.40247000000000005,-0.027290000000000005 0.80606,-0.027530000000000006 h171 a12,12 0 0 1 0,24 z" fill="#061469" id="svg_8"/><circle cx="426.8321533203125" cy="124.8414535522461" r="10.841500282287598" fill="#e6e6e6" id="svg_9"/><path d="M425.3531419726562,130.48399548339842 a1.2056,1.2056 0 0 1 -0.9646600000000001,-0.4824800000000001 l-2.9577,-3.9437 a1.20594,1.20594 0 1 1 1.92956,-1.447 l1.935,2.57986 l4.9699100000000005,-7.45477 a1.206,1.206 0 0 1 2.01172,1.3306900000000002 l-0.004820000000000001,0.007230000000000001 l-5.91547,8.87317 a1.20657,1.20657 0 0 1 -0.97,0.53668 z" fill="#fff" id="svg_10"/><circle cx="426.8321533203125" cy="256.8414306640625" r="10.841489791870117" fill="#e6e6e6" id="svg_11"/><path d="M425.3531419726562,262.4839954833984 a1.2056,1.2056 0 0 1 -0.9646600000000001,-0.4824800000000001 l-2.9577,-3.9437 a1.20594,1.20594 0 1 1 1.92956,-1.447 l1.935,2.57986 l4.9699100000000005,-7.45477 a1.206,1.206 0 0 1 2.01172,1.3306900000000002 l-0.004820000000000001,0.007230000000000001 l-5.91547,8.87317 a1.20657,1.20657 0 0 1 -0.97,0.53668 z" fill="#fff" id="svg_12"/><path d="M339.5161119726563,136.88971548339845 H255.86767197265624 a12.21076,12.21076 0 0 1 -12.32422,-11.18066 a12.00672,12.00672 0 0 1 11.1666,-12.79181 q0.40247000000000005,-0.027290000000000005 0.80606,-0.027530000000000006 h84 a12,12 0 0 1 0,24 z" fill="#061469" id="svg_13"/><path d="M426.5161119726563,137.38971548339845 h-171 a12.5,12.5 0 0 1 0,-25 h171 a12.5,12.5 0 0 1 0,25 zm-171,-23 a10.5,10.5 0 0 0 0,21 h171 a10.5,10.5 0 0 0 0,-21 z" fill="#3f3d56" id="svg_14"/><path d="M426.5161119726563,203.38971548339845 h-171 a12.5,12.5 0 0 1 0,-25 h171 a12.5,12.5 0 0 1 0,25 zm-171,-23 a10.5,10.5 0 0 0 0,21 h171 a10.5,10.5 0 0 0 0,-21 z" fill="#3f3d56" id="svg_15"/><path d="M303.5161119726563,268.88971548339845 H255.86767197265624 a12.21076,12.21076 0 0 1 -12.32422,-11.18066 a12.00672,12.00672 0 0 1 11.1666,-12.79181 q0.40247000000000005,-0.027290000000000005 0.80606,-0.027530000000000006 h48 a12,12 0 0 1 0,24 z" fill="#061469" id="svg_16"/><path d="M426.5161119726563,269.38971548339845 h-171 a12.5,12.5 0 0 1 0,-25 h171 a12.5,12.5 0 0 1 0,25 zm-171,-23 a10.5,10.5 0 0 0 0,21 h171 a10.5,10.5 0 0 0 0,-21 z" fill="#3f3d56" id="svg_17"/><path d="M287.5169019726562,99.99999548339844 h-40 a4,4 0 0 1 0,-8 h40 a4,4 0 0 1 0,8 z" fill="#ccc" id="svg_18"/><path d="M287.5169019726562,165.99999548339844 h-40 a4,4 0 0 1 0,-8 h40 a4,4 0 0 1 0,8 z" fill="#ccc" id="svg_19"/><path d="M287.5169019726562,231.99999548339844 h-40 a4,4 0 0 1 0,-8 h40 a4,4 0 0 1 0,8 z" fill="#ccc" id="svg_20"/><ellipse cx="227.52792358398438" cy="96.41726684570312" rx="4.346469879150391" ry="4.443319797515869" fill="#3f3d56" id="svg_21"/><ellipse cx="227.52792358398438" cy="162.41726684570312" rx="4.346469879150391" ry="4.443309783935547" fill="#3f3d56" id="svg_22"/><ellipse cx="227.52792358398438" cy="228.41726684570312" rx="4.346469879150391" ry="4.443309783935547" fill="#3f3d56" id="svg_23"/><polygon points="513.946 544.191 504.045 544.19 499.335 506 513.948 506.001 513.946 544.191" fill="#ffb6b6" id="svg_24"/><path d="M514.2944919726563,554.5196254833984 l-30.447,-0.0011500000000000004 v-0.38500000000000006 a11.85147,11.85147 0 0 1 11.85083,-11.85065 h0.0007300000000000002 l5.56152,-4.21924 l10.37659,4.2199100000000005 l2.65784,0.00006000000000000002 z" fill="#2f2e41" id="svg_25"/><polygon points="552.946 544.191 543.045 544.19 538.335 506 552.948 506.001 552.946 544.191" fill="#ffb6b6" id="svg_26"/><path d="M553.2944919726563,554.5196254833984 l-30.447,-0.0011500000000000004 v-0.38500000000000006 a11.85147,11.85147 0 0 1 11.85083,-11.85065 h0.0007300000000000002 l5.56152,-4.21924 l10.37659,4.2199100000000005 l2.65784,0.00006000000000000002 z" fill="#2f2e41" id="svg_27"/><path d="M479.87438197265624,304.99999548339844 l-7,24 l8.24646,101.6449 s-4.24646,6.3551 -1.2464600000000001,6.3551 s6.84687,1.40943 4.4234,5.20471 s5.86,17.4209 5.86,17.4209 L501.87438197265624,531.9999954833985 l14.92914,-0.22046000000000004 s7.59009,-4.22833 3.3305100000000003,-8.504 s-7.25959,-4.27558 -3.25959,-8.27558 s4,-2.79529 4,-5.89764 s4.00751,-41.01575 -5.49627,-55.559 l2.86364,-59.29529 l6.74457,58.16144 l13.888,77.59051 l14.38172,-0.11847000000000002 s6.64276,-6.40271 6.63049,-11.14209 s-4.10419,-5.13312 -1.05823,-7.93628 s3.046,-45.86615 -5.954,-69.80316 l0.06885000000000001,-107.07113 s8.84271,-24.03068 -0.11310000000000002,-33.47977 S479.87438197265624,304.99999548339844 479.87438197265624,304.99999548339844 z" fill="#2f2e41" id="svg_28"/><path d="M570.0147019726562,263.12631548339846 l6.02893,-62.44943 a10.12681,10.12681 0 0 0 -8.98034,-11.00989 h0 a10.1268,10.1268 0 0 0 -11.16907,8.96415 q-0.029300000000000007,0.26706 -0.044310000000000016,0.53537 L551.5760219726562,264.2281854833984 l-4.26349,39.42441 a8.83707,8.83707 0 1 0 10.42536,4.46579 z" fill="#ffb6b6" id="svg_29"/><path d="M547.4066119726563,169.02191548339846 l21.72247,2.72333 s16.27588,30.678440000000002 12.926,33.282 s-18.488,18.84656 -29.64844,11.40043 S547.4066119726563,169.02191548339846 547.4066119726563,169.02191548339846 z" fill="#3f3d56" id="svg_30"/><circle cx="509.9981384277344" cy="116.53230285644531" r="23.055700302124023" fill="#ffb6b6" id="svg_31"/><path d="M518.9067919726563,137.69818548339845 c-6.61615,-0.21707 -7.2171,-1.96463 -13.83325,-2.1817 c-2.10663,-0.06912000000000003 -4.59253,-0.35785000000000006 -5.611,-2.20321 a4.86245,4.86245 0 0 1 0.24682,-4.32813 a39.51744,39.51744 0 0 0 2.03821,-4.0094 a7.00277,7.00277 0 0 0 -6.93847,-9.23236 c-2.01337,0.08700000000000002 -3.9043,1.0338100000000001 -5.91211,1.20685 c-2.75361,0.23733 -8.84247,-8.85434 -7.57471,-11.31021 c1.23407,-2.3905700000000003 3.71753,-4.19419 4.10791,-6.856 c0.25531000000000004,-1.741 -0.46332000000000007,-3.4708 -0.56152,-5.22763 c-0.14557,-2.60492 6.45758,3.26858 5.24823,0.9568200000000001 c-2.96644,-5.671 24.98754,-12.70145 29.58972,-5.59806 c1.7200000000000002,2.65485 4.78534,2.47376 7.51751,4.06815 c1.79071,1.045 6.31232,4.65008 7.34028,6.89709 a17.49431,17.49431 0 0 1 1.30938,7.2386800000000004 c0.04138000000000001,11.52646 -1.71466,22.129 -11.012,28.94229 " fill="#b6b6b6" id="svg_32" class="" fill-opacity="1"/><path d="M503.87438197265624,145.99999548339844 l19,-4 l14.59387,7.0195 s34.51886,13.88529 34.40143,27.57651 s-6.18445,43.69122 -13.15094,46.69122 s6.03351,13 2.03351,19 s-10.059,46.99091 -10.059,46.99091 s14.16522,28.218 2.181,33.72189 s-62.62915,10.64942 -65.87561,3.4683200000000003 s-3.27655,-3.26229 -10.76147,-5.22171 s0.007930000000000003,-29.431820000000002 6.76147,-32.19561 s10.753540000000001,-62.7638 10.753540000000001,-62.7638 l-10.753540000000001,-46.65356 L499.4058219726562,156.53899548339842 z" fill="#3f3d56" id="svg_33"/><path d="M490.56664197265627,274.2392654833984 l17.16584,-60.34579 a10.1268,10.1268 0 0 0 -6.853,-12.44587 h0 a10.12681,10.12681 0 0 0 -12.59955,6.80848 q-0.07681,0.25744 -0.13989000000000001,0.5186400000000001 l-15.90937,63.23114 L460.9438419726563,310.0199954833984 a8.83714,8.83714 0 1 0 9.45178,6.26856 z" fill="#ffb6b6" id="svg_34"/><path d="M485.2576819726562,177.60299548339844 l20.87812,6.587 s13.57959,19.94034 8.496,22.7851 s-6.9909099999999995,2.243 -4.37976,7.26117 s6.37475,3.05981 2.6111400000000002,5.01816 s-21.577,15.21286 -31.215700000000002,5.88037 S485.2576819726562,177.60299548339844 485.2576819726562,177.60299548339844 z" fill="#3f3d56" id="svg_35"/><circle cx="426.8321533203125" cy="190.84144592285156" r="20.41196060180664" fill="#061469" id="svg_37"/><path d="M424.0475419726563,201.4649954833984 a2.26986,2.26986 0 0 1 -1.81623,-0.9084 l-5.56865,-7.425 a2.2705,2.2705 0 0 1 3.63291,-2.72446 l3.6431400000000003,4.85727 l9.35715,-14.03556 a2.27061,2.27061 0 0 1 3.78759,2.50537 l-0.009080000000000003,0.013620000000000002 l-11.13741,16.70606 a2.2717,2.2717 0 0 1 -1.8262200000000002,1.01044 z" fill="#fff" id="svg_38"/></g></svg>