<svg xmlns="http://www.w3.org/2000/svg" xmlns:xlink="http://www.w3.org/1999/xlink" data-name="Layer 1" width="632.6700439453125" height="516.5459594726562"><rect id="backgroundrect" width="100%" height="100%" x="0" y="0" fill="none" stroke="none"/><g class="currentLayer" style=""><title>Layer 1</title><polygon points="104.115 502.753 114.686 502.752 119.715 461.977 104.113 461.977 104.115 502.753" fill="#9e616a" id="svg_1"/><path d="M101.41824197265623,499.30115973632815 l2.9755599999999998,-0.00012000000000000004 l11.61705,-4.72438 l6.22638,4.72366 h0.0008400000000000003 a13.26818,13.26818 0 0 1 13.26749,13.26728 v0.43114 l-34.08668,0.0012600000000000003 z" fill="#2f2e41" id="svg_2"/><polygon points="153.228 502.753 163.799 502.752 168.828 461.977 153.226 461.977 153.228 502.753" fill="#9e616a" id="svg_3"/><path d="M150.53117197265624,499.30115973632815 l2.9755599999999998,-0.00012000000000000004 l11.617,-4.72438 l6.22638,4.72366 h0.0008500000000000003 a13.26818,13.26818 0 0 1 13.26748,13.26728 v0.43114 l-34.08668,0.0012600000000000003 z" fill="#2f2e41" id="svg_4"/><path d="M161.67796197265625,279.6087397363281 l-83.05862,2.16675 l1.4445000000000001,40.44593 s-1.4445000000000001,10.83373 1.44449,13.72273 s4.3335,2.8890000000000002 2.8890000000000002,7.94474 s6.18745,13.31326 5.26047,14.24024 s-3.0937200000000002,5.9827200000000005 -3.0937200000000002,5.9827200000000005 l7.22248,41.16819 s5.05575,71.50263 6.50024,72.94713 s2.8890000000000002,0 1.4445000000000001,3.61125 s-2.8890000000000002,2.16674 -1.4445000000000001,3.61124 a53.19431,53.19431 0 0 1 3.61125,4.33349 H121.36002197265623 s1.31654,-7.22249 1.31654,-7.94473 s1.4445000000000001,-5.05575 1.4445000000000001,-5.7780000000000005 s-1.27674,-1.999 -1.27674,-1.999 a23.76163,23.76163 0 0 1 -0.8900000000000001,-4.50126 c0,-1.4445000000000001 -4.33349,-57.05766 -4.33349,-57.05766 l8.667,-72.22489 L147.23302197265627,411.0580297363281 s0,62.1134 1.4445000000000001,63.557900000000004 s1.44449,0.7222500000000001 0.7222400000000001,3.61124 s-3.61124,2.16675 -1.44449,4.33349 s2.8890000000000002,-1.44449 2.16674,2.16675 l-0.7222500000000001,3.61125 l21.66747,0.30994000000000005 s2.8890000000000002,-6.08794 1.4445000000000001,-8.25468 s-1.35783,-1.5753 0.40446000000000004,-5.12114 s2.48453,-4.2681000000000004 1.76228,-4.99035 s-0.7222400000000001,-4.56381 -0.7222400000000001,-4.56381 l-3.61125,-69.10557 s-0.7222500000000001,-72.94713 -0.7222500000000001,-75.11388 a7.20407,7.20407 0 0 1 0.6000000000000001,-3.24922 v-2.94108 l-2.7667200000000003,-10.42142 z" fill="#2f2e41" id="svg_5"/><path d="M255.67471197265627,122.08438973632815 a8.06517,8.06517 0 0 1 -11.60958,4.2615 L208.01118197265623,156.55097973632815 l-1.9594,-14.76429 l35.26391,-26.99494 a8.1089,8.1089 0 0 1 14.359,7.29261 z" fill="#9e616a" id="svg_6"/><circle cx="96.69645690917969" cy="112.16079711914062" r="22.38970947265625" fill="#9e616a" id="svg_7"/><path d="M114.84775197265623,89.87825973632812 c-2.08444,-4.96819 -11.01748,-7.918 -25.15293,-7.47373 s-16.61088,17.301 -16.61088,17.301 c-7.78581,7.25681 4.78422,29.91413 6.965,26.79028 s5.84225,-0.17107 5.84225,-0.17107 l-3.48932,-19.62672 c3.6848300000000003,1.4175900000000001 7.64781,2.36942 11.11371,0.7178900000000001 l-5.74251,-3.07069 q7.139,0.8883900000000001 14.27814,1.77675 l-5.88835,-4.53 c0.14273000000000002,-0.04712000000000001 0.28548000000000007,-0.09609000000000004 0.42830000000000007,-0.14415 a20.92492,20.92492 0 0 0 7.45992,1.6937000000000002 c3.002,-0.022390000000000007 6.19232,-1.42914 7.4503,-4.155 a6.1387,6.1387 0 0 0 0.53276,-2.3761 c4.13922,1.3438800000000002 6.31262,6.19288 6.31262,6.19288 A76.404,76.404 0 0 0 114.84775197265623,89.87825973632812 z" fill="#2f2e41" id="svg_8"/><path d="M114.61848197265624,135.55197973632812 c-5,0 -8.22,0.6900000000000002 -16,2 c-14.36,2.42 -5.76,16.06452 -5.76,16.06452 s0.6500000000000001,-0.33000000000000007 -1.11,0 s-7.76,5.52 -7.76,5.52 l-10.73,9.53 c-16.17,12.69 -12.55,32.49 -12.55,32.49 l23.58,23.73 l-10.33,47.61 s4.39,7.07 2.11994,10.24 s20,2.26 20,2.26 c15.37,6.85 69.52,1.06 69.52,1.06 c-0.7500000000000001,-1.96 -8,-17.15 -8,-17.15 c3.15,-5.44 0.15000000000000002,-13.3 0.15000000000000002,-13.3 s-3.13,-37.18 -5.13,-42.32 s5.12006,-32.99 9.8,-32.69 s34.91,-15.12 34.91,-15.12 s-0.7600000000000001,-1.21 9.22,-5.29 a48.91157,48.91157 0 0 0 15.49,-9.77 l4.1,-8.19 c-1.97,0.7600000000000001 -8.620000000000001,-11.78 -8.620000000000001,-11.78 l-2.9,1.10549 l-1.6800000000000002,-0.48550000000000004 s-13.11,3.73 -15.79,6.45 s-3.58,1.96 -6,2.5700000000000003 s-2.72,2.31 -3.48,2.12 s-2.11,2.11 -3.17,1.81 s-3.33,0.91 -4.84,1.21 s-12.24,4.84 -12.24,4.84 c-6.640000000000001,-3.36 -24.64,-2 -24.64,-2 s-5.890000000000001,-3.47 -7.5600000000000005,0 a5.69,5.69 0 0 1 -5.13,3.33 l-7.18,-3.07 C122.49117197265628,149.84959973632812 114.65950197265624,133.97312973632813 114.61848197265624,135.55197973632812 z" fill="#061469" id="svg_9"/><path d="M80.33908197265623,321.88512973632817 a8.0652,8.0652 0 0 1 1.80006,-12.2353 L71.96672197265627,269.66138973632815 l13.90765,5.32924 l7.72924,37.76127 a8.1089,8.1089 0 0 1 -13.26453,9.13323 z" fill="#9e616a" id="svg_10"/><path d="M61.61848197265624,193.55197973632812 l-1.25621,15.9685 s-1.56155,17.543309999999998 -1.15267,20.7874 S60.37991197265626,253.3629797363281 60.37991197265626,253.3629797363281 l13.23857,26.189 l15,-4 l-0.8976300000000001,-12.28549 l0.8976300000000001,11.28549 l2,-10 l-5,-17 l3,-6 L87.10562197265625,221.41077973632815 z" fill="#061469" id="svg_11"/><path d="M525.4334319726562,390.70997973632814 H460.7669219726563 a6.50753,6.50753 0 0 1 -6.5,-6.5 v-56 a6.50753,6.50753 0 0 1 6.5,-6.5 h64.66651 a6.50753,6.50753 0 0 1 6.5,6.5 v56 A6.50753,6.50753 0 0 1 525.4334319726562,390.70997973632814 z" fill="#f2f2f2" id="svg_12"/><path d="M525.4334319726562,319.70997973632814 H460.7669219726563 a6.50753,6.50753 0 0 1 -6.5,-6.5 v-56 a6.50753,6.50753 0 0 1 6.5,-6.5 h64.66651 a6.50753,6.50753 0 0 1 6.5,6.5 v56 A6.50753,6.50753 0 0 1 525.4334319726562,319.70997973632814 z" fill="#f2f2f2" id="svg_13"/><path d="M525.4334319726562,461.70997973632814 H460.7669219726563 a6.50753,6.50753 0 0 1 -6.5,-6.5 v-56 a6.50753,6.50753 0 0 1 6.5,-6.5 h64.66651 a6.50753,6.50753 0 0 1 6.5,6.5 v56 A6.50753,6.50753 0 0 1 525.4334319726562,461.70997973632814 z" fill="#f2f2f2" id="svg_14"/><path d="M445.7669219726563,461.70997973632814 h-64.667 a6.50753,6.50753 0 0 1 -6.5,-6.5 v-56 a6.50753,6.50753 0 0 1 6.5,-6.5 h64.667 a6.50753,6.50753 0 0 1 6.5,6.5 v56 A6.5075199999999995,6.5075199999999995 0 0 1 445.7669219726563,461.70997973632814 z" fill="#f2f2f2" id="svg_15"/><path d="M621.6184819726562,319.70997973632814 H540.4334319726562 a6.5075199999999995,6.5075199999999995 0 0 1 -6.5,-6.5 v-56 a6.50753,6.50753 0 0 1 6.5,-6.5 h81.18505 a6.50753,6.50753 0 0 1 6.5,6.5 v56 A6.5075199999999995,6.5075199999999995 0 0 1 621.6184819726562,319.70997973632814 z" fill="#f2f2f2" id="svg_16"/><path d="M292.4334319726562,248.20997973632814 v-0.21000000000000002 h3 v0.21000000000000002 h76.6665 v-0.21000000000000002 h3 v0.21000000000000002 h76.667 v0.43555000000000005 h3 V248.20997973632814 h76.66651 v0.43555000000000005 h3 V248.20997973632814 h93.18505 V36.61022973632814 A36.61023,36.61023 0 0 0 591.0082619726562,-0.000020263671871134648 H234.22871197265624 a36.61024,36.61024 0 0 0 -36.61023,36.61023 V248.20997973632814 z" fill="#e6e6e6" id="svg_17"/><path d="M621.6184819726562,321.70997973632814 H540.4334319726562 c-3.584,0 -6.5,5.92878 -6.5,13.2157 V455.20997973632814 a6.51018,6.51018 0 0 0 4.61578,6.21924 a3.5645,3.5645 0 0 0 1.88422,0.5708000000000001 h81.18505 a3.5645,3.5645 0 0 0 1.88422,-0.5708000000000001 a6.5101700000000005,6.5101700000000005 0 0 0 4.61578,-6.21924 V334.92565973632816 C628.1184819726562,327.63873973632815 625.2024719726562,321.70997973632814 621.6184819726562,321.70997973632814 z" fill="#f2f2f2" id="svg_18"/><path d="M286.4334319726562,461.70997973632814 H203.61848197265624 a6.50753,6.50753 0 0 1 -6.5,-6.5 v-56 a6.50753,6.50753 0 0 1 6.5,-6.5 h82.81495 a6.50753,6.50753 0 0 1 6.5,6.5 v56 A6.50753,6.50753 0 0 1 286.4334319726562,461.70997973632814 z" fill="#f2f2f2" id="svg_19"/><path d="M286.4334319726562,390.70997973632814 H203.61848197265624 a6.50753,6.50753 0 0 1 -6.5,-6.5 v-56 a6.50753,6.50753 0 0 1 6.5,-6.5 h82.81495 a6.50753,6.50753 0 0 1 6.5,6.5 v56 A6.50753,6.50753 0 0 1 286.4334319726562,390.70997973632814 z" fill="#f2f2f2" id="svg_20"/><path d="M534.4334319726562,465.20997973632814 V463.98437973632815 h-3 V465.20997973632814 H454.7669219726563 v0.77442 h-3 V465.20997973632814 h-76.667 v0.77442 h-3 V465.20997973632814 h-76.6665 v0.77442 h-3 V465.20997973632814 H197.61848197265624 v11.17981 A36.61028,36.61028 0 0 0 234.22871197265624,512.9999797363281 H591.0082619726562 a36.61027,36.61027 0 0 0 36.61022,-36.61023 V465.20997973632814 z" fill="#e6e6e6" id="svg_21"/><path d="M286.4334319726562,319.70997973632814 H203.61848197265624 a6.50753,6.50753 0 0 1 -6.5,-6.5 v-56 a6.50753,6.50753 0 0 1 6.5,-6.5 h82.81495 a6.50753,6.50753 0 0 1 6.5,6.5 v56 A6.50753,6.50753 0 0 1 286.4334319726562,319.70997973632814 z" fill="#f2f2f2" id="svg_22"/><path d="M366.09993197265624,390.70997973632814 h-64.6665 a6.5075199999999995,6.5075199999999995 0 0 1 -6.5,-6.5 v-56 a6.50753,6.50753 0 0 1 6.5,-6.5 h64.6665 a6.50753,6.50753 0 0 1 6.5,6.5 v56 A6.50753,6.50753 0 0 1 366.09993197265624,390.70997973632814 z" fill="#f2f2f2" id="svg_23"/><path d="M366.09993197265624,461.70997973632814 h-64.6665 a6.5075199999999995,6.5075199999999995 0 0 1 -6.5,-6.5 v-56 a6.50753,6.50753 0 0 1 6.5,-6.5 h64.6665 a6.50753,6.50753 0 0 1 6.5,6.5 v56 A6.50753,6.50753 0 0 1 366.09993197265624,461.70997973632814 z" fill="#f2f2f2" id="svg_24"/><path d="M445.7669219726563,319.70997973632814 h-64.667 a6.50753,6.50753 0 0 1 -6.5,-6.5 v-56 a6.50753,6.50753 0 0 1 6.5,-6.5 h64.667 a6.50753,6.50753 0 0 1 6.5,6.5 v56 A6.5075199999999995,6.5075199999999995 0 0 1 445.7669219726563,319.70997973632814 z" fill="#f2f2f2" id="svg_25"/><path d="M445.7669219726563,390.70997973632814 h-64.667 a6.50753,6.50753 0 0 1 -6.5,-6.5 v-56 a6.50753,6.50753 0 0 1 6.5,-6.5 h64.667 a6.50753,6.50753 0 0 1 6.5,6.5 v56 A6.5075199999999995,6.5075199999999995 0 0 1 445.7669219726563,390.70997973632814 z" fill="#f2f2f2" id="svg_26"/><path d="M366.09993197265624,319.70997973632814 h-64.6665 a6.5075199999999995,6.5075199999999995 0 0 1 -6.5,-6.5 v-56 a6.50753,6.50753 0 0 1 6.5,-6.5 h64.6665 a6.50753,6.50753 0 0 1 6.5,6.5 v56 A6.50753,6.50753 0 0 1 366.09993197265624,319.70997973632814 z" fill="#f2f2f2" id="svg_27"/><path d="M556.9060819726562,166.4999797363281 H273.3308919726562 a24.24005,24.24005 0 0 1 -24.21241,-24.2124 v-62.5752 a24.24006,24.24006 0 0 1 24.21241,-24.2124 H556.9060819726562 a24.24005,24.24005 0 0 1 24.2124,24.2124 v62.5752 A24.24,24.24 0 0 1 556.9060819726562,166.4999797363281 z" fill="#fff" id="svg_28"/><path d="M462.11848197265624,147.4999797363281 h-61 a5,5 0 0 1 0,-10 h61 a5,5 0 0 1 0,10 z" fill="#061469" id="svg_29"/><path d="M546.1184819726562,147.9999797363281 h-61 a5,5 0 0 1 0,-10 h61 a5,5 0 0 1 0,10 z" fill="#061469" id="svg_30"/><path d="M376.11848197265624,147.9999797363281 h-61 a5,5 0 0 1 0,-10 h61 a5,5 0 0 1 0,10 z" fill="#061469" id="svg_31"/><circle cx="512.6184692382812" cy="304" r="6" fill="#061469" id="svg_32"/><circle cx="515.6184692382812" cy="376" r="6" fill="#061469" id="svg_33"/><circle cx="611.6184692382812" cy="304" r="6" fill="#061469" id="svg_34"/><path d="M57.33123197265627,460.61739973632814 l-0.99775,-22.43416 a72.45547,72.45547 0 0 0 -33.79563,-8.555 c16.23147,13.27042 14.203,38.85123 25.20758,56.6968 A43.582,43.582 0 0 0 79.70464197265625,506.46497973632813 l13.58306,8.31649 a73.02981,73.02981 0 0 0 -15.39284,-59.17883 a70.54258,70.54258 0 0 0 -12.9644,-12.04606 C61.67728197265626,452.1345197363281 57.33123197265627,460.61739973632814 57.33123197265627,460.61739973632814 z" fill="#abe3ff" id="svg_35" class="" fill-opacity="1"/></g></svg>