<svg xmlns="http://www.w3.org/2000/svg" xmlns:xlink="http://www.w3.org/1999/xlink" data-name="Layer 1" width="853.117431640625" height="565" style=""><rect id="backgroundrect" width="100%" height="100%" x="0" y="0" fill="none" stroke="none"/><g class="currentLayer" style=""><title>Layer 1</title><path d="M819.7700158203126,378.11 c-6.16016,6.73 -13.79981,11.74 -22.08985,15.63 h-0.010250000000000002 c-0.7797900000000001,0.37000000000000005 -1.56006,0.7300000000000001 -2.3501,1.07 h-0.009770000000000004 l-0.010250000000000002,0.010000000000000002 l-0.009770000000000004,-0.010000000000000002 h-0.009760000000000003 a0.009880000000000003,0.009880000000000003 0 0 1 -0.010250000000000002,0.010000000000000002 H795.2597158203125 l-0.009760000000000003,-0.010000000000000002 c-0.009770000000000004,0.010000000000000002 -0.009770000000000004,0.010000000000000002 -0.020000000000000004,0 l-0.009770000000000004,0.010000000000000002 l-0.010250000000000002,-0.010000000000000002 h-0.009770000000000004 c-0.010250000000000002,0.010000000000000002 -0.010250000000000002,0.010000000000000002 -0.020000000000000004,0 h-0.010250000000000002 a139.77437,139.77437 0 0 1 -17.06006,6.1 a236.6512,236.6512 0 0 1 -105.10986,5.49 c-0.6699300000000001,-0.12000000000000001 -1.3300800000000002,-0.24000000000000002 -2,-0.36000000000000004 V324.93 c0.6601500000000001,-0.28 1.33007,-0.56 2,-0.8300000000000001 q6.55516,-2.715 13.27,-4.99 q9.65991,-3.3 19.58984,-5.66 a212.16658,212.16658 0 0 1 66.04,-5.34 q6.0454,0.45 12.06006,1.3 c8.39013,1.17005 17.18994,3.21 24.93017,6.75 h0.009770000000000004 c1.13037,0.53 2.24023,1.08 3.3403300000000002,1.6700500000000003 c6.87988,3.73 12.67969,8.86 16.21973,15.89 a30.57258,30.57258 0 0 1 2.72021,7.99 v0.020000000000000004 c0.19971000000000005,0.9600000000000001 0.3398500000000001,1.9300000000000002 0.44971000000000005,2.89 C832.8901258203125,356.46000000000004 827.9799758203125,369.13 819.7700158203126,378.11 z" fill="#a5e5c5" id="svg_1" class="" fill-opacity="1"/><path d="M831.6298758203125,344.62 a1.35827,1.35827 0 0 1 -0.2998100000000001,0.04000000000000001 q-25.69482,1.125 -51.32031,3.34 h-0.029780000000000004 c-0.06983000000000002,0.010000000000000002 -0.12989,0.010000000000000002 -0.19971000000000005,0.020000000000000004 Q753.4702058203125,350.29999999999995 727.2700158203126,353.73 c-0.7397500000000001,0.1 -1.47022,0.2 -2.2002,0.29000000000000004 q-18.11939,2.415 -36.16992,5.36 q-7.96509,1.3050000000000002 -15.8999,2.72 c-0.6699300000000001,0.12000000000000001 -1.3300800000000002,0.23 -2,0.36000000000000004 v-3.03 c0.6699200000000002,-0.13 1.3398400000000001,-0.24000000000000002 2,-0.36000000000000004 q26.43016,-4.68 53.04,-8.17 q6.69,-0.9 13.39991,-1.7000000000000002 q19.37988,-2.34 38.81982,-4.04 c0.9502,-0.08000000000000002 1.8901400000000002,-0.16000000000000003 2.84033,-0.24000000000000002 q24.88477,-2.115 49.83985,-3.21 a0.9390000000000001,0.9390000000000001 0 0 1 0.24023000000000003,0.020000000000000004 C832.7802658203125,341.87 833.1201058203125,344.27 831.6298758203125,344.62 z" fill="#a5e5c5" id="svg_2" class="" fill-opacity="1"/><path d="M796.0561458203125,391.86319000000003 c-21.33986,0.15682000000000001 -42.36351,-8.89183 -57.45793,-23.86936 a77.82614,77.82614 0 0 1 -11.18417,-14.07 c-1.01743,-1.63171 -3.39758,0.16767 -2.3888800000000003,1.78539 c11.7227,18.80042 31.24951,32.19306 52.77823,37.11736 a80.81149,80.81149 0 0 0 18.63625,1.99418 c1.91362,-0.014070000000000003 1.51718,-2.9715499999999997 -0.38350000000000006,-2.95758 z" fill="#fff" id="svg_3"/><path d="M705.8598558203125,313.45 a1.6922000000000001,1.6922000000000001 0 0 1 -1.25,1.13 a65.2198,65.2198 0 0 0 -14.07959,5.5 a68.40608,68.40608 0 0 0 -17.53027,13.25 c-0.27,0.27 -0.5297900000000001,0.54 -0.7797900000000001,0.8200000000000001 c-0.42041000000000006,0.44000000000000006 -0.82031,0.8900000000000001 -1.22021,1.35 v-4.36 c0.6401300000000001,-0.6800000000000002 1.31005,-1.35 2,-1.99 a71.91209,71.91209 0 0 1 13.27,-10.04 Q695.9299258203125,315.81 705.8598558203125,313.45 z" fill="#fff" id="svg_4"/><path d="M810.6587158203125,315.37181 a69.40228,69.40228 0 0 0 -32.42171,28.58557 a1.4995500000000002,1.4995500000000002 0 0 0 0.79261,1.95385 a1.5276,1.5276 0 0 0 1.95385,-0.79261 A66.04852,66.04852 0 0 1 811.7797158203125,318.135 c1.76525,-0.75416 0.6478500000000001,-3.51882 -1.12092,-2.76316 z" fill="#fff" id="svg_5"/><path d="M851.5800658203125,230.44 c-2.32031,8.82 -6.77,16.81 -12.2998,24.1 l-0.010250000000000002,0.010000000000000002 c-0.5102599999999999,0.6800000000000002 -1.04,1.37 -1.5898500000000002,2.03 v0.010000000000000002 a139.27064,139.27064 0 0 1 -12.41015,13.39 a233.4288,233.4288 0 0 1 -53.37012,38.13 c-30.66992,16.02 -64.94971,25.49 -98.8999,26.03 c-0.25977,0.010000000000000002 -0.52,0.010000000000000002 -0.7797900000000001,0.010000000000000002 c-0.41016,0.010000000000000002 -0.82031,0.010000000000000002 -1.22021,0.010000000000000002 V288.71 c0.6499000000000001,-1.24 1.31982,-2.48 2,-3.71 a219.52414,219.52414 0 0 1 32.03027,-43.82 c0.29980000000000007,-0.33000000000000007 0.6098600000000001,-0.6600000000000001 0.9199200000000001,-0.98 q7.01953,-7.41 14.71973,-14.11 a210.81877,210.81877 0 0 1 67.29,-39.85 c7.97021,-2.8600000000000003 16.71,-5.15 25.21,-5.6 c1.25,-0.07 2.49023,-0.1 3.74023,-0.09000000000000002 c7.83008,0.11000000000000001 15.33985,1.96 21.75,6.54 a30.99854,30.99854 0 0 1 6.12012,5.8100000000000005 c0.6196300000000001,0.77 1.18994,1.56 1.7397500000000001,2.37 v0.010000000000000002 C853.1401258203125,205.18 854.6801658203126,218.67000000000002 851.5800658203125,230.44 z" fill="#a5e5c5" id="svg_6" class="" fill-opacity="1"/><path d="M846.5200158203126,195.26999999999998 v0.010000000000000002 a1.46123,1.46123 0 0 1 -0.23975000000000002,0.17 q-22.20043,12.915 -43.84033,26.77 c-0.020000000000000004,0.010000000000000002 -0.029790000000000004,0.020000000000000004 -0.049810000000000014,0.030000000000000006 a1.73947,1.73947 0 0 1 -0.18017,0.11000000000000001 q-22.24512,14.25 -43.85987,29.46 c-0.6000900000000001,0.42000000000000004 -1.21,0.8500000000000001 -1.81982,1.28 q-14.9253,10.545 -29.54,21.54 q-27.60059,20.79 -53.99023,43.12 c-0.6699300000000001,0.56 -1.3300800000000002,1.13 -2,1.7000000000000002 v-3.89 c0.6601500000000001,-0.5700000000000001 1.33007,-1.1400000000000001 2,-1.7000000000000002 q10.11035,-8.535 20.3999,-16.83 c2.05029,-1.6500000000000001 4.10986,-3.3 6.16992,-4.93 q27.45043,-21.855 56.13037,-42.08 h0.009770000000000004 q5.64037,-3.975 11.2998,-7.88 q16.08033,-11.07 32.52051,-21.61 c0.78955,-0.51 1.5898400000000001,-1.02 2.38965,-1.53 q21.0454,-13.44 42.64013,-26 a1.48864,1.48864 0 0 1 0.22022000000000003,-0.11000000000000001 C846.2802658203125,192.3 847.6899358203125,194.27999999999997 846.5200158203126,195.26999999999998 z" fill="#fff" id="svg_7"/><path d="M836.9681158203125,253.63341000000003 c-18.82492,10.05171 -41.64595,11.80452 -61.97038,5.5526800000000005 a77.82663,77.82663 0 0 1 -16.440080000000002,-7.26456 c-1.6590000000000003,-0.9723599999999999 -2.93089,1.7267400000000002 -1.2861500000000001,2.69076 c19.11437,11.20348 42.62774,13.99287 63.980199999999996,8.35308 a80.81169,80.81169 0 0 0 17.42988,-6.891 c1.6881000000000002,-0.90137 -0.03679,-3.33625 -1.71347,-2.441 z" fill="#fff" id="svg_8"/><path d="M696.1212058203125,290.22184 a68.55277,68.55277 0 0 1 -0.95241,-15.86924 a72.31889,72.31889 0 0 1 10.7807,-34.15065 q7.02818,-7.4075 14.72332,-14.11226 a1.70457,1.70457 0 0 1 -0.5861900000000001,1.5848300000000002 a65.45128,65.45128 0 0 0 -9.91171,11.40756 a69.12172,69.12172 0 0 0 -11.08214,50.89232 a1.21242,1.21242 0 0 1 -0.31374,1.14283 A1.6245500000000002,1.6245500000000002 0 0 1 696.1212058203125,290.22184 z" fill="#fff" id="svg_9"/><path d="M814.3677158203125,179.11236000000002 a69.40222,69.40222 0 0 0 -15.43281,40.37487 a1.49954,1.49954 0 0 0 1.60951,1.3620700000000001 a1.5276100000000001,1.5276100000000001 0 0 0 1.3620700000000001,-1.60951 a66.04848,66.04848 0 0 1 14.73742,-38.20118 c1.21291,-1.4878500000000001 -1.06086,-3.41707 -2.27619,-1.92625 z" fill="#fff" id="svg_10"/><path d="M710.8100458203126,211.97000000000003 v0.010000000000000002 c-0.06982000000000002,0.8600500000000001 -0.14990000000000003,1.71 -0.24023000000000003,2.56 v0.020000000000000004 a141.29936,141.29936 0 0 1 -3.25,17.96 c-0.6997100000000002,2.9 -1.46,5.78 -2.28955,8.66 c-0.10010000000000001,0.37000000000000005 -0.21045000000000003,0.7400000000000001 -0.3203100000000001,1.1 v0.010000000000000002 a229.52292,229.52292 0 0 1 -8.73975,24.65 a238.91849,238.91849 0 0 1 -22.97021,42.22 c-0.6499100000000001,0.97 -1.31983,1.94 -2,2.9 V155.45999999999998 c0.6699200000000002,-0.04000000000000001 1.33007,-0.04000000000000001 2,-0.020000000000000004 q0.47973,0 0.9600000000000001,0.030000000000000006 a30.32184,30.32184 0 0 1 8.28027,1.6100500000000002 c0.9399400000000001,0.31000000000000005 1.8496100000000002,0.6600000000000001 2.75,1.05 c10.90967,4.78 19.48,15.32 23.19971,26.91 C710.9799758203125,193.72000000000003 711.5400258203125,202.85000000000002 710.8100458203126,211.97000000000003 z" fill="#a5e5c5" id="svg_11" class="" fill-opacity="1"/><path d="M684.9902258203125,158.13 a1.07625,1.07625 0 0 1 -0.11035,0.28 q-6.07471,11.80509 -11.87988,23.73 c-0.6699300000000001,1.37 -1.3398500000000002,2.75 -2,4.12 v-6.8 q0.9902299999999999,-2.04006 2,-4.08 q4.48535,-9.09 9.12011,-18.1 a1.3035100000000002,1.3035100000000002 0 0 1 0.12012000000000002,-0.2 C683.1601458203126,155.76 685.4399358203125,156.66000000000003 684.9902258203125,158.13 z" fill="#fff" id="svg_12"/><path d="M711.1298758203125,213.57999999999998 c-0.17969000000000002,0.32000000000000006 -0.35986000000000007,0.6399500000000001 -0.56006,0.9600000000000001 a79.81637,79.81637 0 0 1 -10.41992,14.24 a85.91629,85.91629 0 0 1 -27.1499,19.77 c-0.6601600000000001,0.32000000000000006 -1.3300800000000002,0.6200000000000001 -2,0.9 V246.2 c0.6699200000000002,-0.30000000000000004 1.3398400000000001,-0.6100000000000001 2,-0.93 a80.866,80.866 0 0 0 35.37011,-32.82 a1.6448800000000001,1.6448800000000001 0 0 1 2.43994,-0.47000000000000003 A1.15274,1.15274 0 0 1 711.1298758203125,213.57999999999998 z" fill="#fff" id="svg_13"/><path d="M672.9999958203125,33 v76 h-2 v-0.81 h-669 v0.81 h-2 v-76 a33.03244,33.03244 0 0 1 33,-33 h607 A33.03244,33.03244 0 0 1 672.9999958203125,33 z" fill="#0a42a5" id="svg_14"/><path d="M639.9999958203125,0 h-607 a33.03244,33.03244 0 0 0 -33,33 v434 a33.03244,33.03244 0 0 0 33,33 h607 a33.03244,33.03244 0 0 0 33,-33 v-434 A33.03244,33.03244 0 0 0 639.9999958203125,0 zm31,467 a31.03964,31.03964 0 0 1 -31,31 h-607 a31.03963,31.03963 0 0 1 -31,-31 v-434 a31.03963,31.03963 0 0 1 31,-31 h607 a31.03964,31.03964 0 0 1 31,31 z" fill="#3f3d56" id="svg_15"/><circle cx="136" cy="54.5" r="20" fill="#fff" id="svg_16"/><circle cx="537" cy="54.5" r="20" fill="#fff" id="svg_17"/><path d="M193.7846258203125,277.50191 H74.80839582031251 a19.033,19.033 0 0 1 -19.01145,-19.01144 V202.25784 a19.033,19.033 0 0 1 19.01145,-19.01144 H193.7846258203125 a19.033,19.033 0 0 1 19.01145,19.01144 v56.23263 A19.033,19.033 0 0 1 193.7846258203125,277.50191 z" fill="#0a42a5" id="svg_18"/><path d="M395.5984005241203,276.91711470380784 H276.6221605241203 a19.033,19.033 0 0 1 -19.01144,-19.01144 V201.67304470380782 a19.033,19.033 0 0 1 19.01144,-19.01144 H395.5984005241203 a19.033,19.033 0 0 1 19.01144,19.01144 v56.23263 A19.033,19.033 0 0 1 395.5984005241203,276.91711470380784 z" fill="#a5e5c5" id="svg_19" class="" fill-opacity="1"/><path d="M396.18319582031245,422.79328999999996 H277.2069558203125 a19.60963,19.60963 0 0 1 -19.58755,-19.58755 V346.97254999999996 A19.60962,19.60962 0 0 1 277.2069558203125,327.385 H396.18319582031245 A19.60962,19.60962 0 0 1 415.7707158203125,346.97254999999996 v56.23319 A19.60962,19.60962 0 0 1 396.18319582031245,422.79328999999996 z" fill="#f2f2f2" id="svg_20"/><path d="M193.39446582031252,422.79328999999996 H74.4182258203125 A19.60963,19.60963 0 0 1 54.83071582031249,403.20574 V346.97254999999996 A19.60962,19.60962 0 0 1 74.4182258203125,327.385 H193.39446582031252 a19.60962,19.60962 0 0 1 19.58755,19.58754 v56.23319 A19.60963,19.60963 0 0 1 193.39446582031252,422.79328999999996 z" fill="#f2f2f2" id="svg_21"/><path d="M598.5817158203125,422.79328999999996 H479.60551582031246 a19.60962,19.60962 0 0 1 -19.58754,-19.58755 V346.97254999999996 A19.60962,19.60962 0 0 1 479.60551582031246,327.385 H598.5817158203125 a19.60962,19.60962 0 0 1 19.58755,19.58754 v56.23319 A19.60963,19.60963 0 0 1 598.5817158203125,422.79328999999996 z" fill="#f2f2f2" id="svg_22"/><path d="M598.5817158203125,277.615 H479.60551582031246 a19.60962,19.60962 0 0 1 -19.58754,-19.58754 V201.79426 a19.60962,19.60962 0 0 1 19.58754,-19.58755 H598.5817158203125 a19.60963,19.60963 0 0 1 19.58755,19.58755 v56.23319 A19.60962,19.60962 0 0 1 598.5817158203125,277.615 z" fill="#f2f2f2" id="svg_23"/><circle cx="134.29652404785156" cy="230.37416076660156" r="32.2618408203125" fill="#fff" id="svg_24"/><path d="M131.0986158203125,242.68130000000002 a3.34586,3.34586 0 0 1 -2.01323,-0.6687500000000002 l-0.036000000000000004,-0.027000000000000007 l-7.58175,-5.80486 a3.3684000000000003,3.3684000000000003 0 1 1 4.09732,-5.34756 l4.91089,3.7656 l11.6052,-15.13487 a3.36827,3.36827 0 0 1 4.7226300000000005,-0.6234200000000001 l-0.07215,0.09800000000000003 l0.07400000000000001,-0.09655000000000002 a3.3722,3.3722 0 0 1 0.62341,4.72267 l-13.650500000000001,17.80224 A3.36974,3.36974 0 0 1 131.0986158203125,242.68130000000002 z" fill="#0a42a5" id="svg_25"/><circle cx="337.27117919921875" cy="229.9108428955078" r="32.2618408203125" fill="#fff" id="svg_26"/><path d="M333.4884905241203,242.21800000000002 a3.3459000000000003,3.3459000000000003 0 0 1 -2.01324,-0.6687400000000004 l-0.03600000000000001,-0.027000000000000014 l-7.58176,-5.80486 a3.3684000000000003,3.3684000000000003 0 1 1 4.09733,-5.34756 l4.91088,3.7656 l11.6052,-15.13488 a3.3683,3.3683 0 0 1 4.72264,-0.62341 l-0.07215,0.09800000000000006 l0.07400000000000002,-0.09654000000000006 a3.37217,3.37217 0 0 1 0.62341,4.72266 l-13.65049,17.80224 A3.36974,3.36974 0 0 1 333.4884905241203,242.21800000000002 z" fill="#a5e5c5" id="svg_27" class="" fill-opacity="1"/><path d="M555.3122258203125,382.14979000000005 a10.74269,10.74269 0 0 0 -2.18282,-16.32737 l-18.01117,-96.17273 l-21.90458,8.122630000000001 l24.59219,91.98054 a10.80091,10.80091 0 0 0 17.50638,12.39693 z" fill="#a0616a" id="svg_28"/><path d="M380.5272958203125,235.40037999999998 a11.40614,11.40614 0 0 1 0.021870000000000004,1.79608 l42.59,32.77955 l12.0777,-4.95957 l9.86722,17.24911 l-20.528,10.85781 a8.669550000000001,8.669550000000001 0 0 1 -10.27652,-1.62745 l-42.571,-43.8892 a11.37563,11.37563 0 1 1 8.81868,-12.20633 z" fill="#a0616a" id="svg_29"/><polygon points="480.028 552.849 467.769 552.849 461.936 515.561 480.031 515.562 480.028 552.849" fill="#a0616a" id="svg_30"/><path d="M483.15488582031253,564.73337 l-39.53051,-0.0014600000000000004 v-0.5 a15.386050000000001,15.386050000000001 0 0 1 15.38647,-15.38623 h0.0010000000000000002 l24.1438,0.0010000000000000002 z" fill="#2f2e41" id="svg_31"/><polygon points="526.028 552.849 513.769 552.849 507.936 515.561 526.031 515.562 526.028 552.849" fill="#a0616a" id="svg_32"/><path d="M529.1548858203125,564.73337 l-39.53051,-0.0014600000000000004 v-0.5 a15.386050000000001,15.386050000000001 0 0 1 15.38647,-15.38623 h0.0010000000000000002 l24.1438,0.0010000000000000002 z" fill="#2f2e41" id="svg_33"/><path d="M465.2230158203125,545.4793 a4.49017,4.49017 0 0 1 -4.47485,-4.07226 L450.0645758203125,397.71758 l0.50488,-0.04100000000000001 l73.521,-6.043 l0.019780000000000002,0.5224599999999999 L529.9547158203125,541.00664 a4.49964,4.49964 0 0 1 -4.49707,4.668 H511.0421058203125 a4.475,4.475 0 0 1 -4.44751,-3.81543 L487.0184258203125,421.61406999999997 a0.5,0.5 0 0 0 -0.99414,0.07226000000000002 L485.1363458203125,540.41 a4.50454,4.50454 0 0 1 -4.26318,4.46192 l-15.40869,0.60058 C465.38366582031244,545.47735 465.3028558203125,545.4793 465.2230158203125,545.4793 z" fill="#2f2e41" id="svg_34"/><circle cx="477.77191162109375" cy="191.5643768310547" r="24.5610294342041" fill="#a0616a" id="svg_35"/><path d="M482.52663582031255,406.88163999999995 a121.03726,121.03726 0 0 1 -31.76839,-4.34179 a4.51046,4.51046 0 0 1 -3.2358000000000002,-4.68653 c3.30645,-49.69336 4.08385,-88.25683 -2.86906,-114.939 c-2.96342,-11.37207 -1.618,-23.34912 3.6910800000000004,-32.85986 c7.98992,-14.313 22.67547,-23.02442 38.34016,-22.72364 h0 q1.12287,0.021240000000000002 2.26805,0.08008000000000001 c23.7729,1.22412 42.29735,22.73047 41.29428,47.9419 l-4.78177,120.16845 a4.43993,4.43993 0 0 1 -2.81538,4.04395 A114.24513,114.24513 0 0 1 482.52663582031255,406.88163999999995 z" fill="#3f3d56" id="svg_36"/><path d="M448.6951458203125,292.14084 l-18.39762,-22.54449 a5.76149,5.76149 0 0 1 1.51427,-8.59185 l24.92148,-14.85005 a16.00071,16.00071 0 0 1 20.16015,24.85261 l-19.47729,21.37306 a5.7615,5.7615 0 0 1 -8.721,-0.23928000000000002 z" fill="#3f3d56" id="svg_37"/><path d="M506.57007582031247,289.31194 a5.7553,5.7553 0 0 1 -3.16409,-3.60611 l-8.282,-27.70526 A16.00071,16.00071 0 0 1 524.0673658203125,244.349 L540.0837158203125,268.53743 a5.7615,5.7615 0 0 1 -2.36144,8.3986 l-26.35426,12.3361 A5.755,5.755 0 0 1 506.57007582031247,289.31194 z" fill="#3f3d56" id="svg_38"/><path d="M489.9088558203125,211.13244470380783 l-18.206,-4.16705 c-1.8779400000000004,-0.4298300000000001 -4.13413,-1.24991 -4.39457,-3.1587300000000003 c-0.3500000000000001,-2.56513 3.3414900000000003,-4.35213 3.001,-6.91854 c-0.3298300000000001,-2.48578 -3.69254,-2.80615 -6.09035,-3.53991 a9.11065,9.11065 0 0 1 -5.67236,-11.34023 c-2.59437,3.656 -8.52155,3.96913 -11.88655,1.00712 s-4.01043,-8.33613 -1.98963,-12.33777 a14.28744,14.28744 0 0 1 10.724,-7.2405 a22.61663,22.61663 0 0 1 13.02306,2.42787 c0.26664,-2.83339 3.80421,-3.98207 6.65,-4.00735 a28.43074,28.43074 0 0 1 26.64315,19.4463 c3.492,11.25212 1.15619,23.58635 -8.6142,30.16993 z" fill="#2f2e41" id="svg_39" class=""/></g></svg>