

<svg xmlns="http://www.w3.org/2000/svg" xmlns:xlink="http://www.w3.org/1999/xlink" data-name="Layer 1" width="806.6317749023438" height="698.7657470703125" style=""><rect id="backgroundrect" width="100%" height="100%" x="0" y="0" fill="none" stroke="none"/><g class="currentLayer" style=""><title>Layer 1</title><path d="M554.4622374511719,215.9893011645508 a79.82777,79.82777 0 1 1 -79.68611,-79.96918 A79.62142,79.62142 0 0 1 554.4622374511719,215.9893011645508 z" fill="#a5e5c5" id="svg_1" class="" fill-opacity="1"/><path d="M687.3208874511719,262.5226511645508 l11.22422,-21.432 c-10.06526,-12.15439 -43.08848,-26.89558 -43.08848,-26.89558 l-44.695,-40.68137 a10.6812,10.6812 0 1 0 -13.11846,13.02071 l48.28567,57.91133 z" fill="#9e616a" id="svg_2"/><path d="M681.8837774511719,261.0439611645508 l15.84871,5.04619 a54.39316,54.39316 0 0 0 35.29495,-0.7857400000000001 h0 a19.64143,19.64143 0 0 0 12.68529,-16.39871 h0 a19.59506,19.59506 0 0 0 -16.31209,-21.20549 c-14.86281,-2.44252 -34.01358,-3.64706 -40.84584,4.48324 l-0.06924000000000002,0.08239000000000002 z" fill="#3f3d56" id="svg_3"/><circle cx="567.8861083984375" cy="246.82754516601562" r="79.82776641845703" fill="#fff" id="svg_4"/><path d="M535.3070874511719,215.60334116455078 a75.00358,75.00358 0 0 1 -5.35134,17.07973 C515.8740074511719,262.4727511645508 555.9760874511719,252.76288116455078 570.3072274511719,252.76288116455078 c15.669,0 30.661,8.23946 28.3712,-28.37124 c-0.97807,-15.63846 -12.70225,-28.37123 -28.3712,-28.37123 C556.9233374511718,196.0203911645508 538.1056974511719,201.9692811645508 535.3070874511719,215.60334116455078 z" fill="#2f2e41" id="svg_5"/><circle cx="567.9595947265625" cy="229.7010040283203" r="23.05483055114746" fill="#ffb6b6" id="svg_6"/><path d="M552.3029774511718,206.1997911645508 a26.40856,26.40856 0 0 1 40.1504,23.04771 c-11.74766,2.94948 -24.08931,5.20662 -36.61724,0.70548 l-2.9586300000000003,-7.24088 l-1.7442600000000001,7.24624 c-3.81518,1.55942 -7.64029,2.8788400000000003 -11.46535,-0.015050000000000003 A26.96462,26.96462 0 0 1 552.3029774511718,206.1997911645508 z" fill="#2f2e41" id="svg_7"/><path d="M629.9559974511719,299.9080711645508 a79.79985,79.79985 0 0 1 -111.68425,8.07146 l6.847,-19.10548 a20.54572,20.54572 0 0 1 17.45175,-11.984 l4.35591,-0.26741000000000004 l10.38663,-8.95809 s27.98617,-0.99929 27.571,-1.4778 l16.95216,10.19661 l-0.014090000000000002,-0.07035 l6.664,0.40816 a20.53673,20.53673 0 0 1 17.4518,11.984 z" fill="#20b97c" id="svg_8" class="" fill-opacity="1"/><path d="M560.8823974511719,628.8449811645507 L558.8988874511718,601.2564711645508 a89.24424,89.24424 0 0 0 -41.89885,-9.39587 c20.43166,15.79292 18.7951,47.35761 32.9451,68.95962 A53.68059,53.68059 0 0 0 589.9727874511718,684.5418811645508 l17.00408,9.78252 a89.95166,89.95166 0 0 0 -20.94424,-72.34594 a86.88807,86.88807 0 0 0 -16.36787,-14.39539 C565.9479874511719,618.2541411645508 560.8823974511719,628.8449811645507 560.8823974511719,628.8449811645507 z" fill="#a5e5c5" id="svg_9" class="" fill-opacity="1"/><path d="M43.88239745117187,139.84498116455077 L41.89888745117187,112.25647116455079 a89.24424,89.24424 0 0 0 -41.89885,-9.39587 c20.43166,15.79292 18.7951,47.35761 32.9451,68.95962 A53.68059,53.68059 0 0 0 72.97278745117188,195.54188116455077 l17.00408,9.78252 a89.95166,89.95166 0 0 0 -20.94424,-72.34594 a86.88807,86.88807 0 0 0 -16.36787,-14.39539 C48.94798745117188,129.2541411645508 43.88239745117187,139.84498116455077 43.88239745117187,139.84498116455077 z" fill="#a5e5c5" id="svg_10" class="selected" fill-opacity="1"/><polygon points="635.268 684.997 622.004 684.996 615.694 633.837 635.27 633.837 635.268 684.997" fill="#9e616a" id="svg_11"/><path d="M638.6503174511719,697.8540711645508 l-42.76752,-0.0015900000000000005 v-0.5409400000000001 a16.64721,16.64721 0 0 1 16.64631,-16.64605 h0.0010600000000000002 l7.81205,-5.92663 l14.57555,5.9275400000000005 l3.73334,0.00015000000000000007 z" fill="#2f2e41" id="svg_12"/><polygon points="752.165 684.997 738.902 684.996 732.592 633.837 752.168 633.837 752.165 684.997" fill="#9e616a" id="svg_13"/><path d="M755.5479874511718,697.8540711645508 l-42.76752,-0.0015900000000000005 v-0.5409400000000001 a16.64721,16.64721 0 0 1 16.64631,-16.64605 h0.0010600000000000002 L737.2398874511719,674.7388811645508 l14.57555,5.9275400000000005 l3.73334,0.00015000000000000007 z" fill="#2f2e41" id="svg_14"/><path d="M731.9920774511719,411.1857411645508 L743.1478874511719,517.1664611645508 s14.851,106.11694 12.062,120.759 s0.6972200000000002,16.73381 0.6972200000000002,16.73381 L730.4590274511719,652.8468811645508 s0.6972200000000002,-9.06415 -3.48624,-13.24756 s-2.09168,-16.73381 -2.09168,-16.73381 L675.5155674511718,450.23128116455075 L645.5341874511719,540.8726911645508 s-4.88069,99.70557 -5.57791,101.1 s-2.789,20.22 -2.789,20.22 h-25.798000000000002 s3.48619,-11.15583 -1.3945100000000001,-14.64207 s-9.06415,-0.6972300000000001 -4.88069,-6.97243 s5.57792,-13.94484 4.18347,-17.431 s-1.3945100000000001,-17.431 -1.3945100000000001,-17.431 s2.09173,-188.2552 13.94485,-194.5304 S731.9920774511719,411.1857411645508 731.9920774511719,411.1857411645508 z" fill="#2f2e41" id="svg_15"/><circle cx="679.160400390625" cy="169.16317749023438" r="27.43869972229004" fill="#9e616a" id="svg_16"/><path d="M741.4749674511719,422.7367611645508 c-53.13861,10.97387 -123.5581,-7.89282 -123.5581,-7.89282 l18.78517,-81.42975 l-6.678570000000001,-85.21753 c-0.81559,-10.42111 5.12,-20.18968 14.35392,-23.65125 l12.75006,-4.77561 l10.53881,-15.088 l30.10339,0.98771 l12.03414,15.84007 l9.49679,5.03844 l20.58857,10.91955 l0.09059000000000003,0.04524000000000001 v0.04525000000000001 L733.5186474511719,300.22988116455076 l-3.89652,37.7878 s11.8347,42.49992 9.40608,48.13647 c-2.42851,5.62736 -0.31700000000000006,2.90881 0.27190000000000003,5.91729 c0.5890000000000001,3.00859 2.3923300000000003,3.19886 2.66412,9.12533 C742.2451974511719,407.1141711645508 741.4749674511719,422.7367611645508 741.4749674511719,422.7367611645508 z" fill="#3f3d56" id="svg_17" class=""/><path d="M677.8255474511719,195.2835611645508 a84.51463,84.51463 0 0 0 14.34606,-1.37542 c4.68679,-1.07973 15.02743,-9.07571 17.84571,-13.79945 h0 c2.0937900000000003,-3.5096600000000002 3.3505000000000003,-8.93831 4.03625,-12.8741 a37.77914,37.77914 0 0 0 -7.37933,-29.81139 a11.9356,11.9356 0 0 0 -4.92552,-3.98886 c-0.17438,-0.06305000000000001 -0.35356000000000004,-0.11828000000000002 -0.53443,-0.16481000000000004 a14.72647,14.72647 0 0 1 -7.44024,-4.34241 a12.14729,12.14729 0 0 0 -1.2497500000000001,-1.22149 a18.13955,18.13955 0 0 0 -7.66376,-3.60358 c-4.52852,-1.08755 -11.00642,0.27527 -19.2533,4.05408 c-4.14323,1.8985500000000002 -8.74174,1.3689 -12.28619,0.6953200000000002 a1.15374,1.15374 0 0 0 -1.07624,0.40006 a8.14438,8.14438 0 0 1 -5.47647,2.34862 c-1.25845,0.08783000000000002 -2.53516,1.86636 -4.07409,4.18236 c-0.3491800000000001,0.52573 -0.7566400000000002,1.1393 -1.05233,1.5137 l-0.05914000000000001,-0.7031400000000001 l-0.6922800000000001,0.804 a9.88284,9.88284 0 0 0 4.8759500000000005,15.98064 a19.27184,19.27184 0 0 0 3.891,0.51747 c0.7949,0.05088000000000001 1.6172,0.10351 2.40688,0.21962 a14.9,14.9 0 0 1 11.31824,9.38009 a3.8966700000000003,3.8966700000000003 0 0 0 5.92828,1.7393900000000002 a6.4381,6.4381 0 0 1 5.837,-1.2193100000000001 a4.27382,4.27382 0 0 1 1.9437700000000002,2.09335 a5.56964,5.56964 0 0 0 2.17641,2.41036 c3.2352600000000002,1.5637 3.64359,8.85047 2.6539,14.95919 c-0.95406,5.88827 -3.02958,10.1837 -5.04728,10.44548 c-1.55327,0.20133 -1.72851,0.3165700000000001 -1.83418,0.5949000000000001 l-0.09439000000000003,0.24916000000000002 l0.18089000000000002,0.22612000000000002 A6.36358,6.36358 0 0 0 677.8255474511719,195.2835611645508 z" fill="#2f2e41" id="svg_19"/><path d="M567.8862674511719,327.6552811645508 A80.82764,80.82764 0 1 1 648.7138874511719,246.82764116455076 A80.91948,80.91948 0 0 1 567.8862674511719,327.6552811645508 zm0,-159.65528 A78.82764,78.82764 0 1 0 646.7138874511719,246.82764116455076 A78.91719,78.91719 0 0 0 567.8862674511719,168.00000116455078 z" fill="#3f3d56" id="svg_20"/><circle cx="288.8860168457031" cy="80.82763671875" r="79.82776641845703" fill="#fff" id="svg_21"/><circle cx="292.58062744140625" cy="62.94009017944336" r="26.030410766601562" fill="#ffb8b8" id="svg_22"/><path id="f183d98d-beca-4def-af6d-fbe16b93cf6a-478" data-name="bf427902-b9bf-4946-b5d7-5c1c7e04535e" d="M315.4995374511718,45.74388116455077 s6.77741,-12.95636 -8.13309,-14.13422 c0,0 -12.71134,-11.53081 -25.6677,-2.108 c0,0 -7.0671100000000004,0 -10.93165,7.99726 c0,0 -5.55826,-2.108 -6.77973,3.53355 c0,0 -4.06714,11.77854 0,22.37921 s5.41808,11.77851 5.41808,11.77851 s-2.8536,-13.15484 13.41378,-14.3327 s31.19119,-11.36869 32.54688,1.58765 s2.846,7.10347 2.846,7.10347 S331.08832745117184,51.04427116455079 315.4995374511718,45.74388116455077 z" fill="#2f2e41"/><path d="M348.9198874511719,133.9080711645508 a79.79985,79.79985 0 0 1 -111.68425,8.07146 l6.847,-19.10548 a20.54572,20.54572 0 0 1 17.45176,-11.984 l4.3559,-0.26741000000000004 l10.38663,-8.95809 s27.98617,-0.99929 27.571,-1.4778 l16.95216,10.19661 l-0.014090000000000002,-0.07035 l6.664,0.40816 a20.53676,20.53676 0 0 1 17.451810000000002,11.984 z" fill="#0a42a5" id="svg_23"/><path d="M288.8862674511719,161.6552811645508 A80.82764,80.82764 0 1 1 369.7138874511719,80.82764116455078 A80.91948,80.91948 0 0 1 288.8862674511719,161.6552811645508 zm0,-159.65528 A78.82764,78.82764 0 1 0 367.7138874511719,80.82764116455078 A78.91719,78.91719 0 0 0 288.8862674511719,2.000001164550781 z" fill="#3f3d56" id="svg_24"/><circle cx="102.56282043457031" cy="206.82754516601562" r="79.82776641845703" fill="#fff" id="svg_25"/><path d="M65.56338745117188,180.8596211645508 c3.30085,-10.51967 10.80708,-20.16794 21.188,-23.72416 c10.38156,-3.55622 25.58278,1.8610600000000002 33.38738,9.63927 c14.27613,14.22787 17.76,63.10581 7.9517500000000005,78.5518 c-1.9509,-0.10327000000000001 -8.68272,-0.17965 -10.65726,-0.25361 l-2.79322,-9.30969 v9.21794 q-4.71858,-0.14583000000000002 -9.511,-0.20135 a41.39254,41.39254 0 0 1 -40.86673,-40.37123 C64.00673745117189,194.1632211645508 64.26259745117187,185.00518116455078 65.56338745117188,180.8596211645508 z" fill="#2f2e41" id="svg_26"/><circle cx="101.37886810302734" cy="192.97398376464844" r="22.7503604888916" fill="#9e616a" id="svg_27"/><path d="M81.74460745117187,172.99365116455078 l26.19484,-13.1164 h0 a32.9243,32.9243 0 0 1 19.28371,27.27826 l0.6529100000000001,7.820790000000001 l-10.96912,-2.7922599999999997 l-1.20175,-10.0004 l-1.86274,9.22034 l-5.06215,-1.288 l0.04812000000000001,-15.52559 L103.76313745117187,190.10488116455076 l-18.07989,-4.15384 z" fill="#2f2e41" id="svg_28"/><path d="M161.80031745117185,259.65430116455076 a79.79985,79.79985 0 0 1 -111.68425,8.07146 l6.847,-19.10548 a20.54573,20.54573 0 0 1 17.45176,-11.984 l4.35591,-0.26741000000000004 l10.38662,-8.95809 s27.98618,-0.99929 27.571,-1.4778 l16.95216,10.19661 l-0.014080000000000002,-0.07035 l6.664,0.40815 a20.53676,20.53676 0 0 1 17.4518,11.984 z" fill="#0a42a5" id="svg_29" class=""/><path d="M102.56307745117186,287.6551911645508 a80.82764,80.82764 0 1 1 80.82763,-80.82764 A80.91948,80.91948 0 0 1 102.56307745117186,287.6551911645508 zm0,-159.65528 a78.82764,78.82764 0 1 0 78.82763,78.82764 A78.91719,78.91719 0 0 0 102.56307745117186,127.99988116455077 z" fill="#3f3d56" id="svg_30"/><path d="M641.6127574511719,288.24114116455075 l-12.08536,-20.9585 c-15.65516,1.9886599999999999 -45.79252,21.978 -45.79252,21.978 l-58.29422,15.95008 a10.68119,10.68119 0 1 0 3.96793,18.05238 l74.76707,-9.75257 z" fill="#9e616a" id="svg_31"/><path d="M637.4516574511719,292.04026116455077 l27.0572,-22.663 l3.93647,-18.242 a19.6414,19.6414 0 0 0 -7.05244,-19.49608 h0 a19.59507,19.59507 0 0 0 -26.64439,2.41529 c-10.02406,11.24221 -21.29967,26.768440000000002 -18.094,36.89294 l0.032490000000000005,0.10259000000000001 z" fill="#3f3d56" id="svg_32"/><path d="M222.7463074511719,370.7698811645508 H121.08124745117186 a10.28839,10.28839 0 0 1 -10.27672,-10.27678 V297.8769411645508 a10.28839,10.28839 0 0 1 10.27672,-10.27678 H222.7463074511719 a10.28841,10.28841 0 0 1 10.27678,10.27678 v62.61612 A10.28841,10.28841 0 0 1 222.7463074511719,370.7698811645508 z" fill="#e6e6e6" id="svg_33"/><path d="M182.35316745117188,362.7044511645508 H128.22767745117187 a9.63563,9.63563 0 0 1 -9.625,-9.62451 v-47.79 a9.63563,9.63563 0 0 1 9.625,-9.62451 h87.37256000000001 a9.63521,9.63521 0 0 1 9.62451,9.62451 v14.54345 A42.91981,42.91981 0 0 1 182.35316745117188,362.7044511645508 z" fill="#fff" id="svg_34" class=""/><path d="M206.88403745117188,321.8341411645508 H136.94351745117189 a2.281,2.281 0 1 1 0,-4.562 h69.94052 a2.281,2.281 0 1 1 0,4.562 z" fill="#0a42a5" id="svg_35"/><path d="M147.2992421549797,331.43226646074294 H136.35872215497972 a2.2811,2.2811 0 0 1 0,-4.5622 h10.94052 a2.2811,2.2811 0 1 1 0,4.5622 z" fill="#20b97c" id="svg_36" class="" fill-opacity="1"/><path d="M167.26104745117186,339.8608111645508 H136.94351745117189 a2.28111,2.28111 0 0 1 0,-4.56221 h30.31753 a2.28111,2.28111 0 0 1 0,4.56221 z" fill="#0a42a5" id="svg_37"/><circle cx="107.25666809082031" cy="286.3530578613281" r="21.50617027282715" fill="#3f3d56" id="svg_38"/><path d="M486.7463074511719,86.76988116455078 H385.08124745117186 a10.28839,10.28839 0 0 1 -10.27672,-10.27678 V13.876941164550786 a10.28839,10.28839 0 0 1 10.27672,-10.27678 H486.7463074511719 a10.28841,10.28841 0 0 1 10.27678,10.27678 v62.61612 A10.28841,10.28841 0 0 1 486.7463074511719,86.76988116455078 z" fill="#e6e6e6" id="svg_39"/><path d="M446.3531674511719,78.70445116455079 H392.22767745117187 a9.63563,9.63563 0 0 1 -9.625,-9.62451 v-47.79 a9.63563,9.63563 0 0 1 9.625,-9.62451 h87.37256000000001 a9.63521,9.63521 0 0 1 9.62451,9.62451 v14.54345 A42.91981,42.91981 0 0 1 446.3531674511719,78.70445116455079 z" fill="#fff" id="svg_40"/><path d="M470.8840374511718,37.83414116455077 H400.94351745117183 a2.281,2.281 0 1 1 0,-4.562 h69.94052 a2.281,2.281 0 1 1 0,4.562 z" fill="#0a42a5" id="svg_41" class=""/><path d="M470.8840374511718,37.83414116455077 H400.94351745117183 a2.281,2.281 0 1 1 0,-4.562 h69.94052 a2.281,2.281 0 1 1 0,4.562 z" fill="#20b97c" class="" id="svg_45" fill-opacity="1"/><path d="M411.8840374511718,46.84747116455077 H400.94351745117183 a2.2811,2.2811 0 1 1 0,-4.5622 h10.94052 a2.2811,2.2811 0 1 1 0,4.5622 z" fill="#0a42a5" id="svg_42"/><path d="M431.26104745117186,55.86081116455077 H400.94351745117183 a2.28111,2.28111 0 0 1 0,-4.56221 h30.31753 a2.2811,2.2811 0 0 1 0,4.56221 z" fill="#20b97c" id="svg_43" class="" fill-opacity="1"/><circle cx="371.2566833496094" cy="77.35307312011719" r="21.50617027282715" fill="#3f3d56" id="svg_44"/></g></svg>
