<svg width="83" height="82" xmlns="http://www.w3.org/2000/svg" xmlns:xlink="http://www.w3.org/1999/xlink" overflow="hidden"><defs><clipPath id="clip0"><rect x="445" y="795" width="83" height="82"/></clipPath></defs><g clip-path="url(#clip0)" transform="translate(-445 -795)"><path d="M41 8.54167C23.0625 8.54167 8.54167 23.0625 8.54167 41 8.54167 58.9375 23.0625 73.4583 41 73.4583 58.9375 73.4583 73.4583 58.9375 73.4583 41 73.4583 23.0625 58.9375 8.54167 41 8.54167ZM41 13.6667C56.0333 13.6667 68.3333 25.9667 68.3333 41 68.3333 56.0333 56.0333 68.3333 41 68.3333 25.9667 68.3333 13.6667 56.0333 13.6667 41 13.6667 25.9667 25.9667 13.6667 41 13.6667" fill="#0A42A5" transform="matrix(1.0122 0 0 1 445 795)"/><path d="M27.675 54.325 46.4667 46.6375 54.1542 27.8458 35.3625 35.7042 27.675 54.325ZM41 39.2917C42.025 39.2917 42.7083 39.975 42.7083 41 42.7083 42.025 42.025 42.7083 41 42.7083 39.975 42.7083 39.2917 42.025 39.2917 41 39.2917 39.975 39.975 39.2917 41 39.2917" fill="#0A42A5" transform="matrix(1.0122 0 0 1 445 795)"/></g></svg>