<svg xmlns="http://www.w3.org/2000/svg" xmlns:xlink="http://www.w3.org/1999/xlink" data-name="Layer 1" width="758.67004" height="615.32637"><rect id="backgroundrect" width="100%" height="100%" x="0" y="0" fill="none" stroke="none"/><g class="currentLayer" style=""><title>Layer 1</title><path d="M605.6654219726563,112.08322749023438 c-3.94109,43.42331 -15.16888,89.21081 -32.77756,133.38965 c-21.77541,54.633 -51.52607,102.75355 -86.03669,139.15916 l-1.91519,-1.6699400000000002 c34.34355,-36.23054 63.959,-84.13863 85.64344,-138.54566 c19.59746,-49.1666 31.25383,-100.33187 33.7243,-147.9418 l2.44729,0.40972000000000003 Q606.3615419726563,104.42668749023437 605.6654219726563,112.08322749023438 z" fill="#f2f2f2" id="svg_1"/><path d="M621.3619219726562,364.27771749023435 c-48.47245,77.11608 -107.27981,132.21582 -165.59018,155.14809 l-1.17954,-2.16253 C512.4990219726562,494.4894374902344 570.9620219726562,439.67174749023434 619.2130219726563,362.9081774902344 z" fill="#f2f2f2" id="svg_2"/><path d="M604.4889519726562,166.1469574902344 c-3.94109,43.42331 -15.16888,89.2108 -32.77756,133.38965 C549.9360219726562,354.16957749023436 520.1853219726562,402.2901774902343 485.6747019726563,438.6957574902344 l-1.91519,-1.6699300000000001 c34.34355,-36.23054 63.959,-84.13863 85.64344,-138.54566 c19.59746,-49.1666 31.25383,-100.33187 33.7243,-147.9418 l2.44729,0.40972000000000003 Q605.1850219726563,158.4904174902344 604.4889519726562,166.1469574902344 z" fill="#f2f2f2" id="svg_3"/><path d="M60.32578197265627,277.6278074902344 H28.52207197265625 a4.50052,4.50052 0 0 1 -3.53467,-1.7026400000000002 a4.40806,4.40806 0 0 1 -0.8628000000000001,-3.7456 a86.49007,86.49007 0 0 0 -0.55517,-40.53614 a4.509,4.509 0 0 1 1.74951,-4.73828 c16.35352,-11.76172 29.23242,-11.42041 38.2793,1.01611 a4.51934,4.51934 0 0 1 0.7915,1.9096700000000002 a141.54042,141.54042 0 0 1 0.39649000000000006,43.9253 A4.49088,4.49088 0 0 1 60.32578197265627,277.6278074902344 z" fill="#a5e5c5" id="svg_4" class="" fill-opacity="1"/><path d="M50.46581197265624,245.77899749023436 H39.52529197265625 a2.2811,2.2811 0 0 1 0,-4.56221 h10.94052 a2.28111,2.28111 0 0 1 0,4.56221 z" fill="#fff" id="svg_5"/><path d="M50.46581197265624,253.77899749023436 H39.52529197265625 a2.2811,2.2811 0 0 1 0,-4.56221 h10.94052 a2.28111,2.28111 0 0 1 0,4.56221 z" fill="#fff" id="svg_6"/><path d="M50.46581197265624,261.77899749023436 H39.52529197265625 a2.2811,2.2811 0 0 1 0,-4.56221 h10.94052 a2.28111,2.28111 0 0 1 0,4.56221 z" fill="#fff" id="svg_7"/><path d="M638.3257819726563,419.62780749023443 H606.5220719726562 a4.50052,4.50052 0 0 1 -3.53467,-1.7026400000000002 a4.40806,4.40806 0 0 1 -0.8628000000000001,-3.7456 a86.49007,86.49007 0 0 0 -0.55517,-40.53614 a4.509,4.509 0 0 1 1.74951,-4.73828 c16.35352,-11.76172 29.23242,-11.42041 38.2793,1.01611 a4.51934,4.51934 0 0 1 0.7915,1.9096700000000002 a141.54042,141.54042 0 0 1 0.39649000000000006,43.9253 A4.49088,4.49088 0 0 1 638.3257819726563,419.62780749023443 z" fill="#a5e5c5" id="svg_8" class="" fill-opacity="1"/><path d="M628.4658119726563,387.77899749023436 H617.5252919726563 a2.28111,2.28111 0 0 1 0,-4.56221 h10.94052 a2.2811,2.2811 0 0 1 0,4.56221 z" fill="#fff" id="svg_9"/><path d="M628.4658119726563,395.77899749023436 H617.5252919726563 a2.28111,2.28111 0 0 1 0,-4.56221 h10.94052 a2.2811,2.2811 0 0 1 0,4.56221 z" fill="#fff" id="svg_10"/><path d="M628.4658119726563,403.77899749023436 H617.5252919726563 a2.28111,2.28111 0 0 1 0,-4.56221 h10.94052 a2.2811,2.2811 0 0 1 0,4.56221 z" fill="#fff" id="svg_11"/><path d="M199.50352197265624,541.2760974902344 L197.52002197265625,513.6875874902344 a89.24413,89.24413 0 0 0 -41.89886,-9.39587 c20.43166,15.79292 18.79511,47.35761 32.94511,68.95962 a53.68056,53.68056 0 0 0 40.02768,23.72162 L245.59802197265623,606.7554774902344 a89.95172,89.95172 0 0 0 -20.94423,-72.346 A86.88849,86.88849 0 0 0 208.28587197265625,520.0141774902344 C204.56910197265626,530.6852574902343 199.50352197265624,541.2760974902344 199.50352197265624,541.2760974902344 z" fill="#a5e5c5" id="svg_13" class="" fill-opacity="1"/><path d="M559.1665219726563,545.2760974902344 l1.98354,-27.58851 a89.24413,89.24413 0 0 1 41.89886,-9.39587 c-20.43166,15.79292 -18.79511,47.35761 -32.94511,68.95962 a53.68056,53.68056 0 0 1 -40.02768,23.72162 L513.0720219726562,610.7554774902344 a89.95172,89.95172 0 0 1 20.94423,-72.346 A86.88849,86.88849 0 0 1 550.3841719726563,524.0141774902344 C554.1009419726563,534.6852574902343 559.1665219726563,545.2760974902344 559.1665219726563,545.2760974902344 z" fill="#a5e5c5" id="svg_14" class="" fill-opacity="1"/><circle cx="370.33502197265625" cy="214.94235229492188" r="19" fill="#0a42a5" id="svg_15"/><path d="M380.0885019726562,207.02376749023438 a1.53662,1.53662 0 0 0 -2.12134,0 a62.934,62.934 0 0 0 -10.7818,11.01282 q-1.15237,-2.22958 -2.30456,-4.45923 c-0.8867200000000002,-1.7157 -3.4763800000000002,-0.20007 -2.5904,1.51416 q1.6854,3.26119 3.37079,6.52234 a1.51763,1.51763 0 0 0 2.59046,0 a60.74823,60.74823 0 0 1 11.83685,-12.46875 A1.50907,1.50907 0 0 0 380.0885019726562,207.02376749023438 z" fill="#fff" id="svg_16"/><path d="M285.31971197265625,268.81945749023436 L256.66818197265627,223.82377749023436 l33.17775,-17.76832 l8.708,34.32967 l61.3554,33.15483 a13.26628,13.26628 0 1 1 -7.55,18.04831 z" fill="#a0616a" id="svg_17"/><path d="M235.73523197265627,169.85588749023435 c-9.00247,13.21766 22.98989,61.26272 22.98989,61.26272 c1.5585499999999999,-3.35948 16.457,34.366 18.95241,32.13752 c7.09206,-6.3337 18.194,-23.97635 24.36508,-24.7628 c3.52912,-0.44977000000000006 -8.1849,-25.47849 -8.1849,-25.47849 s-5.35362,-14.77941 -12.61819,-33.65869 a33.90293,33.90293 0 0 0 -24.626,-21.53548 S244.73771197265626,156.6382674902344 235.73523197265627,169.85588749023435 z" fill="#3f3d56" id="svg_18"/><polygon points="236.175 600.491 249.782 600.49 256.255 548.005 236.172 548.006 236.175 600.491" fill="#a0616a" id="svg_19"/><path d="M232.70348197265628,596.0481774902344 l3.83,-0.00016000000000000004 l14.95309,-6.08107 l8.01441,6.08014 h0.0010800000000000002 a17.07841,17.07841 0 0 1 17.07749,17.07722 v0.555 l-43.8753,0.0016200000000000003 z" fill="#2f2e41" id="svg_20"/><polygon points="299.391 600.491 312.998 600.49 319.472 548.005 299.389 548.006 299.391 600.491" fill="#a0616a" id="svg_21"/><path d="M295.92008197265625,596.0481774902344 l3.83005,-0.00016000000000000004 l14.95309,-6.08107 l8.0144,6.08014 h0.0010900000000000003 a17.07841,17.07841 0 0 1 17.07749,17.07722 v0.555 l-43.87531,0.0016200000000000003 z" fill="#2f2e41" id="svg_22"/><path d="M305.2810219726563,313.5517674902344 l-88.50724,2.21268 c-16.80943,9.13 -17.06468,28.89072 -11.557,52.35232 c0,0 -1.8593000000000002,13.94482 1.85933,17.66344 s5.57793,3.71863 3.71862,10.22622 s7.9643,17.13641 6.77112,18.32959 s-3.98215,7.70077 -3.98215,7.70077 l9.29656,52.99038 s6.50759,92.03593 8.3669,93.89524 s3.71862,0 1.85931,4.64828 s-3.71862,2.789 -1.85931,4.64828 a68.471,68.471 0 0 1 4.64828,5.57794 h22.47644 s1.6946100000000002,-9.29656 1.6946100000000002,-10.22622 s1.85931,-6.50759 1.85931,-7.43724 s-1.64337,-2.573 -1.64337,-2.573 a30.58473,30.58473 0 0 1 -1.1456,-5.79388 c0,-1.85931 -5.57793,-73.44281 -5.57793,-73.44281 L264.71474197265627,391.3581774902344 l26.96,91.10627 s0,79.9504 1.85931,81.80972 s1.85931,0.9296500000000001 0.92966,4.64827 s-4.64828,2.789 -1.85932,5.57794 s3.71863,-1.85931 2.789,2.789 l-0.9296500000000001,4.64828 l27.88967,0.3989400000000001 s3.71863,-7.83619 1.85931,-10.62516 s-1.7477500000000001,-2.02767 0.52061,-6.59177 s3.198,-5.49375 2.26836,-6.4234100000000005 s-0.9296500000000001,-5.8744 -0.9296500000000001,-5.8744 l-4.64828,-88.9505 s-0.92966,-93.89524 -0.92966,-96.6842 a9.2729,9.2729 0 0 1 0.77227,-4.1823 V359.21917749023436 l-3.56124,-13.41413 z" fill="#2f2e41" id="svg_23"/><circle cx="252.11349487304688" cy="102.01522064208984" r="27.49970054626465" fill="#a0616a" id="svg_24"/><path d="M265.86335197265623,147.6902974902344 c5.92443,3.52211 9.46845,9.9935 11.50286,16.5787 a157.109,157.109 0 0 1 6.75135,37.53694 l2.14881,38.14144 l26.6126,81.21386 c-23.06426,19.51583 -109.75939,4.43539 -109.75939,4.43539 s-2.66125,-0.8870000000000001 0,-3.54834 s5.252,-0.30353 2.59079,-2.96481 s-0.8266800000000001,0.30352000000000007 0.06041000000000001,-2.35777 s0,-0.8870000000000001 -0.8870900000000002,-1.77416 s6.86736,-8.87092 6.86736,-8.87092 L204.65437197265624,259.4631774902344 l-8.87084,-94.03118 c10.64508,-13.3063 32.05365,-21.15028 32.05365,-21.15028 l5.5317,-9.95707 l27.65851,2.21268 z" fill="#3f3d56" id="svg_25"/><path d="M274.7826419726562,87.40507749023436 a12.7442,12.7442 0 0 1 4.52746,6.35983 A89.51311,89.51311 0 0 0 279.36902197265624,81.28617749023437 c-0.3241200000000001,-2.92035 -2.38014,-3.57724 -4.76083,-4.33839 c-2.15,-0.6876800000000002 -4.58148,-1.46449 -5.23567,-4.2994900000000005 c-8.64436,-8.40938 -23.69232,-7.98532 -33.9908,-5.052 c-5.66675,1.61413 -8.92743,3.688 -9.21914,4.9029 l-0.06050000000000001,0.25012 l-0.23013,0.11506000000000002 c-4.3681,2.18405 -5.21839,9.08085 -5.1622,14.48182 c0.10642000000000001,10.17585 3.61991,21.733 5.59922,22.67188 c0.1048,0.04970000000000001 0.13127,0.030250000000000006 0.17665,-0.0075600000000000025 h0 c2.98031,-2.38177 6.61644,0.18100000000000002 8.21436,1.57416 A28.6009,28.6009 0 0 1 260.30946197265627,87.32517749023438 a44.87886,44.87886 0 0 0 6.17238,-1.035 a12.99489,12.99489 0 0 1 3.15318,-0.41379 A8.97355,8.97355 0 0 1 274.7826419726562,87.40507749023436 z" fill="#2f2e41" id="svg_26"/><path d="M445.49731197265623,335.46417749023436 l52.89941,-53.71829 l13.93717,-42.96322 l-22.42808,-9.07171 c-11.11041,11.20695 -22.54731,45.514920000000004 -22.54731,45.514920000000004 l-36.10559,48.45838 c-0.28835000000000005,0.10715000000000001 -0.5757300000000001,0.22044000000000005 -0.8590000000000001,0.35436000000000006 A10.68681,10.68681 0 1 0 445.49731197265623,335.46417749023436 z" fill="#ffb8b8" id="svg_27"/><path d="M483.7877119726562,234.6257474902344 l28.36321,8.20484 l0.10562000000000002,-0.020390000000000005 c10.42569,-2.02431 18.6728,-19.35032 23.755,-33.5285 a19.59609,19.59609 0 0 0 -10.61481,-24.55758 h0 a19.63934,19.63934 0 0 0 -20.49519,3.12519 L490.7600219726562,200.02655749023438 z" fill="#0a42a5" id="svg_28"/><polygon points="459.521 598.895 444.267 598.894 437.011 540.059 459.523 540.06 459.521 598.895" fill="#ffb8b8" id="svg_29"/><path d="M463.41202197265625,593.9146374902343 l-4.29344,-0.00017000000000000007 l-16.76237,-6.81683 l-8.98411,6.8158 h-0.0012200000000000004 a19.14478,19.14478 0 0 0 -19.14379,19.14351 v0.6221000000000001 l49.184,0.0018500000000000005 z" fill="#2f2e41" id="svg_30"/><polygon points="527.204 598.895 511.95 598.894 504.694 540.059 527.207 540.06 527.204 598.895" fill="#ffb8b8" id="svg_31"/><path d="M531.0952119726562,593.9146374902343 l-4.29344,-0.00017000000000000007 l-16.76237,-6.81683 l-8.98411,6.8158 H501.0540219726563 a19.14478,19.14478 0 0 0 -19.14378,19.14351 v0.6221000000000001 l49.184,0.0018500000000000005 z" fill="#2f2e41" id="svg_32"/><path d="M550.4629619726562,345.4695274902344 s1.7811400000000002,21.37362 -2.6717000000000004,41.85668 s-4.45284,78.17012 -4.45284,78.17012 l-9.796240000000001,112.41141 l-29.38874,-2.67171 l-8.01511,-187.90979 l-28.498170000000002,63.23031 l2.67171,8.90568 l-3.55877,2.22641 s2.6682,17.36608 0.8870600000000001,17.36608 s-6.234,2.6717000000000004 -6.234,2.6717000000000004 l3.56227,91.72848 l-30.2793,-0.8905700000000001 L424.00234197265627,443.43200749023435 L435.5797219726562,369.51487749023437 l0.8905700000000001,-14.24908 l4.00756,0.16475000000000004 l2.0406,-5.9534400000000005 l3.7480900000000004,-10.241530000000001 z" fill="#2f2e41" id="svg_33"/><path d="M552.0023019726563,349.95888749023436 l0.15872000000000003,-0.22264000000000003 c8.47691,-11.86786 -4.27238,-40.386 -6.19528,-44.52012 l8.099,-2.6282200000000002 L552.2410219726562,287.0851774902344 l-0.8640500000000001,-6.91147 l6.19006,-6.19 l0.017390000000000006,-0.15437 l3.56227,-31.16987 l5.17945,-20.70271 a45.45158,45.45158 0 0 0 -12.90063,-44.04789 l-11.97222,-11.2882 l-14.55,-21.52881 h-23.4635 l-8.04511,15.19618 a34.19881,34.19881 0 0 0 -26.46048,34.91649 l1.82332,39.85508 l-7.138,49.62306 l-0.004350000000000001,8.98047 l-8.03291,8.92742 l1.7541700000000002,8.77044 l-6.11352,2.62 l-2.69953,12.59666 c-1.11713,1.47413 -8.49083,11.306000000000001 -8.49083,13.993829999999999 c0,0.40354 0.2978700000000001,0.79359 0.9370900000000001,1.22632 c5.0251,3.40268 32.79968,10.33981 45.09239,5.42081 c13.09413,-5.23556 65.14537,2.61865 65.6698,2.6986700000000003 z" fill="#0a42a5" id="svg_34"/><circle cx="512.1405639648438" cy="107.06758117675781" r="31.074459075927734" fill="#ffb8b8" id="svg_35"/><path d="M509.1637019726562,138.6451774902344 a84.51349,84.51349 0 0 0 14.346,-1.37542 c4.68679,-1.07973 15.02744,-9.0757 17.84571,-13.79945 h0 c2.0937900000000003,-3.5096600000000002 3.3505000000000003,-8.93831 4.03626,-12.8741 a37.77915,37.77915 0 0 0 -7.37934,-29.81139 a11.93568,11.93568 0 0 0 -4.92552,-3.98886 c-0.17437,-0.06305000000000001 -0.35356000000000004,-0.11828000000000002 -0.53442,-0.16480000000000003 a14.72652,14.72652 0 0 1 -7.44025,-4.34242 a12.14528,12.14528 0 0 0 -1.2497500000000001,-1.22149 a18.13963,18.13963 0 0 0 -7.66375,-3.60358 c-4.52853,-1.08755 -11.00643,0.27528 -19.25331,4.05409 c-4.14323,1.8985400000000001 -8.74174,1.3689 -12.28618,0.6953200000000002 a1.1537,1.1537 0 0 0 -1.07625,0.40006 a8.14428,8.14428 0 0 1 -5.47647,2.34861 c-1.25845,0.08784000000000002 -2.53516,1.86636 -4.07409,4.18236 c-0.3491800000000001,0.52573 -0.7566300000000001,1.1393 -1.05233,1.51371 l-0.05914000000000001,-0.70315 l-0.6922700000000002,0.804 a9.88285,9.88285 0 0 0 4.87594,15.98065 a19.27346,19.27346 0 0 0 3.891,0.51747 c0.7949,0.05087000000000001 1.6172,0.10350000000000001 2.40688,0.21961000000000003 a14.90011,14.90011 0 0 1 11.31824,9.38009 a3.8966600000000002,3.8966600000000002 0 0 0 5.92827,1.7393900000000002 a6.43813,6.43813 0 0 1 5.837,-1.2193100000000001 a4.27384,4.27384 0 0 1 1.9437700000000002,2.09336 a5.5697,5.5697 0 0 0 2.17641,2.41036 c3.23527,1.5637 3.64359,8.85046 2.6539,14.95919 c-0.9540500000000001,5.88827 -3.02958,10.18369 -5.04727,10.44547 c-1.55328,0.20133 -1.72852,0.3165700000000001 -1.83419,0.5949000000000001 l-0.09439000000000003,0.24917 l0.18090000000000003,0.22612000000000002 A6.36366,6.36366 0 0 0 509.1637019726562,138.6451774902344 z" fill="#b6b6b6" id="svg_36" class="" fill-opacity="1"/><path d="M483.38261197265626,237.9490574902344 L468.4459519726563,218.9171774902344 c-15.21464,4.18967 -42.21109,28.25266 -42.21109,28.25266 l-55.44155,24.0594 a10.6812,10.6812 0 1 0 6.489,17.30681 l72.62706,-20.26172 z" fill="#ffb8b8" id="svg_37"/><path d="M479.8026119726562,242.30010749023438 l23.56811,-26.27257 l1.30851,-18.616 a19.64143,19.64143 0 0 0 -9.747160000000001,-18.29829 h0 a19.59508,19.59508 0 0 0 -26.03218,6.17112 c-8.32764,12.55068 -17.28635,29.51961 -12.67669,39.08688 l0.046710000000000015,0.09700000000000003 z" fill="#0a42a5" id="svg_38"/><path d="M262.5792719726563,341.04993749023436 L201.32490197265628,309.67867749023435 c-4.357,-2.23144 -5.80026,-8.15017 -3.21717,-13.19382 L238.04686197265625,218.5011774902344 c2.5830900000000003,-5.04365 8.22931,-7.33153 12.58634,-5.10009 l61.25437,31.37126 c4.35707,2.23147 5.80031,8.15019 3.21721,13.19385 l-39.93912,77.98366 C272.58257197265624,340.9935274902344 266.93634197265624,343.2813974902344 262.5792719726563,341.04993749023436 z" fill="#e6e6e6" id="svg_39"/><path d="M252.11335197265623,326.6282274902344 l-41.617,-21.31405 c-4.08065,-2.08989 -5.43261,-7.633 -3.01339,-12.35662 l33.18076,-64.78755 c2.41922,-4.72367 7.70727,-6.866070000000001 11.78791,-4.77618 l50.26488,25.743 c4.08065,2.08989 5.43223,7.63276 3.013,12.35643 l-18.02558,35.19607 C276.92821197265624,317.72964749023436 270.28985197265627,335.9372674902344 252.11335197265623,326.6282274902344 z" fill="#fff" id="svg_40"/><path d="M272.68974197265624,291.24779749023435 l-36.8614,-18.87847 a2.30543,2.30543 0 0 1 2.07954,-4.06043 l36.8614,18.87847 a2.30543,2.30543 0 0 1 -2.07954,4.06043 z" fill="#0a42a5" id="svg_41"/><path d="M240.13183197265624,284.7000074902344 l-8.41215,-4.30826 a2.30557,2.30557 0 0 1 2.07965,-4.06064 l8.41215,4.30826 a2.30557,2.30557 0 0 1 -2.07965,4.06064 z" fill="#0a42a5" id="svg_42"/><path d="M250.92213197265625,300.35288749023437 L227.61102197265626,288.41417749023435 a2.30557,2.30557 0 0 1 2.07965,-4.06064 l23.31111,11.93873 a2.30557,2.30557 0 0 1 -2.07965,4.06064 z" fill="#0a42a5" id="svg_43"/><path d="M287.27669197265624,262.7658574902344 l-36.8614,-18.87847 a2.30543,2.30543 0 0 1 2.07954,-4.06043 l36.8614,18.87847 a2.30543,2.30543 0 0 1 -2.07954,4.06043 z" fill="#0a42a5" id="svg_44"/><path d="M254.71878197265625,256.2180674902344 l-8.41215,-4.30826 a2.30557,2.30557 0 0 1 2.07965,-4.06064 l8.41214,4.30826 a2.30557,2.30557 0 0 1 -2.07964,4.06064 z" fill="#0a42a5" id="svg_45"/><path d="M265.50908197265625,271.87094749023436 L242.19802197265625,259.9321774902344 a2.30557,2.30557 0 0 1 2.07965,-4.06064 l23.31111,11.93873 a2.30557,2.30557 0 0 1 -2.07965,4.06064 z" fill="#0a42a5" id="svg_46"/><path d="M211.82039197265624,273.1576074902344 l-13.83816,-51.51724 l36.97936,-7.0002 L232.97302197265623,250.0011774902344 l48.58778,50.02955 a13.26627,13.26627 0 1 1 -12.61527,14.95323 z" fill="#a0616a" id="svg_47"/><path d="M194.19816197265624,163.8787674902344 c-12.55213,9.90933 3.55855,65.33753 3.55855,65.33753 c2.4943400000000002,-2.73742 5.3929100000000005,37.7197 8.44176,36.34213 c8.66512,-3.91519 24.5472,-17.41617 30.67005,-16.31569 c3.50155,0.6293500000000001 -0.16700000000000004,-26.76038 -0.16700000000000004,-26.76038 s-0.6747500000000002,-15.70467 -1.9428900000000002,-35.89361 a33.90293,33.90293 0 0 0 -17.03381,-27.92966 S206.75030197265625,153.9694774902344 194.19816197265624,163.8787674902344 z" fill="#3f3d56" id="svg_48"/><path d="M403.0539319726563,387.5041774902344 l-33.42618,-15.78416 a5.231,5.231 0 0 1 -2.87,-3.54375 a5.12352,5.12352 0 0 1 0.95213,-4.36489 a100.58,100.58 0 0 0 19.41281,-42.25364 a5.19671,5.19671 0 0 1 5.09238,-4.19039 c17.04776,0.05800000000000001 29.78887,6.28279 37.868,18.49922 a5.2612,5.2612 0 0 1 0.6883700000000001,4.37574 a164.52691,164.52691 0 0 1 -21.1081,45.4065 A5.21976,5.21976 0 0 1 403.0539319726563,387.5041774902344 z" fill="#a5e5c5" id="svg_49" class="" fill-opacity="1"/><path d="M412.88702197265627,365.36605749023437 L387.3288819726563,353.29727749023436 a2.65133,2.65133 0 1 1 2.26422,-4.79495 l25.55809,12.06878 a2.65133,2.65133 0 1 1 -2.26422,4.79495 z" fill="#fff" id="svg_50"/><path d="M416.8573719726562,356.9579274902344 L391.29927197265624,344.8891774902344 a2.65133,2.65133 0 0 1 2.26422,-4.79495 l25.5581,12.06877 a2.65133,2.65133 0 0 1 -2.26422,4.795 z" fill="#fff" id="svg_51"/><path d="M382.70637197265626,93.01507749023438 l-2.37941,0.26061 c-10.60747,-41.68436 -31.16817,-70.56285 -59.46151,-83.514 c-35.96775,-16.46321 -80.44329,-5.40786 -125.23408,31.13 c-45.01841,36.7244 -84.87155,94.733 -112.21718,163.34285 l-2.30844,-1.05643 c27.46571,-68.90948 67.52341,-127.1984 112.7941,-164.12694 c45.4977,-37.11521 90.881,-48.25163 127.78958,-31.35736 C350.7942419726562,21.01607749023438 371.89320197265624,50.51979749023437 382.70637197265626,93.01507749023438 z" fill="#f2f2f2" id="svg_52"/><path d="M120.23202197265624,147.30359749023438 c-6.22164,13.10661 -12.13943,26.68513 -17.58916,40.358 c-31.36052,78.68222 -47.25268,159.03767 -45.954,232.38347 l-2.451,-0.26154 c-1.3,-73.61855 14.6379,-154.25079 46.09659,-233.17836 c5.46537,-13.71145 11.4,-27.32833 17.63957,-40.47193 z" fill="#f2f2f2" id="svg_53"/><path d="M119.05559197265626,201.3673274902344 c-6.22164,13.1066 -12.13943,26.68513 -17.58916,40.358 c-31.36052,78.68222 -47.25268,159.03767 -45.954,232.38347 l-2.451,-0.26154 c-1.3,-73.61855 14.6379,-154.25079 46.09659,-233.17837 c5.46537,-13.71144 11.4,-27.32832 17.63957,-40.47193 z" fill="#f2f2f2" id="svg_54"/><ellipse cx="-134.7645263671875" cy="595.8844146728516" rx="8.85669994354248" ry="10.194660186767578" transform="rotate(-56.36397933959961 -400.12100219726574,238.165054321289) " fill="#ccc" id="svg_55"/><ellipse cx="577.0968017578125" cy="1288.9051818847656" rx="8.85669994354248" ry="10.194660186767578" transform="rotate(-56.36397933959961 -265.20166015625,784.1167602539062) " fill="#ccc" id="svg_56"/></g></svg>