<svg width="75" height="75" xmlns="http://www.w3.org/2000/svg" xmlns:xlink="http://www.w3.org/1999/xlink" overflow="hidden"><defs><clipPath id="clip0"><rect x="48" y="545" width="75" height="75"/></clipPath></defs><g clip-path="url(#clip0)" transform="translate(-48 -545)"><path d="M63.625 555.156 58.9375 555.156 58.9375 609.844 112.844 609.844 112.844 605.156 63.625 605.156 63.625 555.156Z" fill="#0A42A5"/><path d="M112.844 600.469 101.125 600.469 101.125 555.156 112.844 555.156Z" fill="#0A42A5"/><path d="M96.4375 600.469 84.7188 600.469 84.7188 570.781 96.4375 570.781Z" fill="#0A42A5"/><path d="M80.0312 600.469 68.3125 600.469 68.3125 584.844 80.0312 584.844Z" fill="#0A42A5"/><path d="M93.3125 565.891 93.3125 555.156 82.5781 555.156 86.8438 559.422 67.9922 578.273 70.1953 580.477 89.0469 561.633 93.3125 565.891Z" fill="#0A42A5"/></g></svg>