<svg xmlns="http://www.w3.org/2000/svg" xmlns:xlink="http://www.w3.org/1999/xlink" data-name="Layer 1" width="718.5089721679688" height="601.7182006835938" style=""><rect id="backgroundrect" width="100%" height="100%" x="0" y="0" fill="none" stroke="none"/><g class="currentLayer" style=""><title>Layer 1</title><path d="M633.3165888183594,36.55248741699219 H0.9932188183593667 a1.0156,1.0156 0 0 1 0,-2.0307 H633.3165888183594 a1.0156,1.0156 0 0 1 0,2.0307 z" fill="#cacaca" id="svg_1"/><ellipse cx="23.348310470581055" cy="11.16880989074707" rx="10.925339698791504" ry="11.16880989074707" fill="#3f3d56" id="svg_2"/><ellipse cx="61.09038162231445" cy="11.16880989074707" rx="10.925339698791504" ry="11.16880989074707" fill="#3f3d56" id="svg_3"/><ellipse cx="98.83245849609375" cy="11.16880989074707" rx="10.925339698791504" ry="11.16880989074707" fill="#3f3d56" id="svg_4"/><path d="M610.6995688183594,2.7682974169921977 h-26.81 a2.0304,2.0304 0 0 0 0,4.06 h26.81 a2.0304,2.0304 0 0 0 0,-4.06 z" fill="#3f3d56" id="svg_5"/><path d="M610.6995688183594,10.388297416992174 h-26.81 a2.0304,2.0304 0 0 0 0,4.06 h26.81 a2.0304,2.0304 0 0 0 0,-4.06 z" fill="#3f3d56" id="svg_6"/><path d="M610.6995688183594,17.99827741699218 h-26.81 a2.0304,2.0304 0 0 0 0,4.06 h26.81 a2.0304,2.0304 0 0 0 0,-4.06 z" fill="#3f3d56" id="svg_7"/><path d="M600.6880388183594,70.8359774169922 H24.748038818359362 a12.048,12.048 0 0 0 -12.03,12.03 v1.94 a12.048,12.048 0 0 0 12.03,12.03 H600.6880388183594 a12.048,12.048 0 0 0 12.03,-12.03 v-1.94 A12.048,12.048 0 0 0 600.6880388183594,70.8359774169922 z" fill="#f0f0f0" id="svg_8"/><path d="M94.25337881835935,88.63615741699218 H39.43048881835938 a4.62947,4.62947 0 0 1 0,-9.25893 h54.82289 C100.22360881835937,79.2938974169922 100.28331881835936,88.72024741699218 94.25337881835935,88.63615741699218 z" fill="#fff" id="svg_9"/><path d="M258.25337881835935,88.63615741699218 H203.43048881835938 a4.62947,4.62947 0 0 1 0,-9.25893 h54.82289 C264.22360881835937,79.2938974169922 264.28331881835936,88.72024741699218 258.25337881835935,88.63615741699218 z" fill="#fff" id="svg_10"/><path d="M422.25337881835935,88.63615741699218 H367.4304888183593 a4.62947,4.62947 0 0 1 0,-9.25893 h54.82289 C428.22360881835937,79.2938974169922 428.28331881835936,88.72024741699218 422.25337881835935,88.63615741699218 z" fill="#fff" id="svg_11"/><path d="M577.7533788183594,88.55136212080001 H522.9304888183593 a4.62946,4.62946 0 0 1 0,-9.25893 h54.82289 C583.7236088183594,79.20910212080003 583.7833188183594,88.63545212080001 577.7533788183594,88.55136212080001 z" fill="#a5e5c5" id="svg_12" class="" fill-opacity="1"/><rect x="490.2180480957031" y="70.83595275878906" width="2" height="26" fill="#fff" id="svg_13"/><path d="M285.2631388183594,455.6484074169922 H50.21003881835935 a7.90878,7.90878 0 0 1 -7.89963,-7.89963 V413.3233974169922 a7.90879,7.90879 0 0 1 7.89963,-7.89964 H285.2631388183594 a7.9088,7.9088 0 0 1 7.89964,7.89964 V447.7487774169922 A7.90879,7.90879 0 0 1 285.2631388183594,455.6484074169922 z" fill="#f0f0f0" id="svg_14"/><path d="M262.4248288183594,450.3199774169922 H55.53970881835937 a7.9088,7.9088 0 0 1 -7.89964,-7.89964 v-23.7643 a7.9088,7.9088 0 0 1 7.89964,-7.89964 h224.395 a7.90879,7.90879 0 0 1 7.89964,7.89964 v6.25441 A25.43817,25.43817 0 0 1 262.4248288183594,450.3199774169922 z" fill="#fff" id="svg_15"/><path d="M191.0614488183594,428.08713741699216 H96.5880388183594 a2.03732,2.03732 0 1 1 0,-4.07464 h94.47342 a2.03732,2.03732 0 0 1 0,4.07464 z" fill="#a5e5c5" id="svg_16" class="" fill-opacity="1"/><path d="M238.88555881835936,436.4198474169922 H96.5880388183594 a2.03733,2.03733 0 1 1 0,-4.07465 H238.88555881835936 a2.03733,2.03733 0 0 1 0,4.07465 z" fill="#a5e5c5" id="svg_17" class="" fill-opacity="1"/><path d="M300.2780388183594,366.03608741699213 H32.2679488183594 a8.07557,8.07557 0 0 1 -8.06636,-8.06636 V153.10214741699218 a8.07531,8.07531 0 0 1 8.06636,-8.06606 H300.2780388183594 a8.07531,8.07531 0 0 1 8.06636,8.06606 V357.9697274169922 A8.07557,8.07557 0 0 1 300.2780388183594,366.03608741699213 z" fill="#fff" id="svg_18"/><path d="M300.2778988183594,367.03608741699213 H32.2681288183594 a9.077,9.077 0 0 1 -9.0664,-9.06641 V153.1019774169922 a9.07652,9.07652 0 0 1 9.0664,-9.06592 H300.2778988183594 a9.07652,9.07652 0 0 1 9.0664,9.06592 V357.9696774169922 A9.077,9.077 0 0 1 300.2778988183594,367.03608741699213 zm-268.00977,-221 a7.07423,7.07423 0 0 0 -7.0664,7.06592 V357.9696774169922 a7.07434,7.07434 0 0 0 7.0664,7.06641 H300.2778988183594 a7.07434,7.07434 0 0 0 7.0664,-7.06641 V153.1019774169922 a7.07423,7.07423 0 0 0 -7.0664,-7.06592 z" fill="#f0f0f0" id="svg_19"/><path d="M24.820628818359353,327.0360874169922 V357.9698774169922 a7.45829,7.45829 0 0 0 7.44716,7.44716 H300.27822881835937 a7.45829,7.45829 0 0 0 7.44717,-7.44716 V327.0360874169922 z" fill="#f0f0f0" id="svg_20"/><rect x="26.222412109375" y="616.7415161132812" width="1.999619960784912" height="333.5596008300781" transform="rotate(-57.3713493347168 -402.0729064941405,382.3417358398438) " fill="#f0f0f0" id="svg_21"/><rect x="-147.157958984375" y="531.322998046875" width="333.5596008300781" height="1.999619960784912" transform="rotate(-32.6286506652832 -410.46649169921875,131.14318847656244) " fill="#f0f0f0" id="svg_22"/><polygon points="545.364 587.788 532.974 587.787 527.079 539.998 545.366 539.999 545.364 587.788" fill="#a0616a" id="svg_23"/><path d="M545.0336188183594,583.7388674169922 l-13.22,-5.37 l-0.39000000000000007,-0.16000000000000003 l-7.3,5.53 a15.54249,15.54249 0 0 0 -15.53,14.870000000000001 c-0.020000000000000004,0.22000000000000003 -0.020000000000000004,0.45 -0.020000000000000004,0.6800000000000002 v0.51 h39.95 v-16.06 z" fill="#2f2e41" id="svg_24"/><polygon points="516.348 576.258 504.66 580.37 483.238 537.245 500.488 531.177 516.348 576.258" fill="#a0616a" id="svg_25"/><path d="M514.6929288183594,572.5478474169922 l-14.2529,-0.6777300000000002 l-0.42100000000000004,-0.021520000000000004 l-5.05069,7.63948 a15.54248,15.54248 0 0 0 -9.71416,19.1816 c0.05413000000000002,0.21415 0.13048,0.43115000000000003 0.20682,0.6480900000000002 l0.16927000000000003,0.4811 l37.68529,-13.2598 L517.9850388183594,571.3894874169922 z" fill="#2f2e41" id="svg_26"/><path d="M549.7421588183594,381.72969741699217 c11.33506,-0.43955000000000005 -2.70631,89.88978 -2.70631,89.88978 s4.10734,79.30546 3.23671,83.46726 s-0.10978000000000002,15.38636 -0.10978000000000002,15.38636 c-2.2207500000000002,-4.04192 -25.13224,-0.9914 -25.13224,-0.9914 l-3.11682,-80.37587 l-15.91342,-64.39953 l-22.06224,43.168 l21.14563,66.26061 s8.56336,7.92394 7.65278,11.0553 s-23.341,10.19318 -27.46279,10.353 s-2.26071,-5.07241 -2.46051,-10.22468 s-19.59569,-52.90457 -26.41781,-69.1522 s-1.51846,-39.15745 1.964,-55.80468 s21.80339,-47.88859 21.80339,-47.88859 C502.90431881835934,346.82297741699216 538.4070888183594,382.1692574169922 549.7421588183594,381.72969741699217 z" fill="#2f2e41" id="svg_27"/><path d="M411.60469881835934,308.7315274169922 a9.15861,9.15861 0 0 0 13.72045,2.99545 l27.25821,17.784 l-0.08300000000000002,-16.91272 L426.62819881835935,298.3031774169922 a9.20824,9.20824 0 0 0 -15.0235,10.42835 z" fill="#a0616a" id="svg_28"/><path d="M543.8551588183594,396.21039741699224 c-28.10986,0.0010000000000000002 -43.60059,-5.626 -51.82666,-10.65039 c-10.05859,-6.14356 -11.77978,-12.62207 -11.84814,-12.89551 l-0.020000000000000004,-0.07812000000000002 l0.979,-12.32032 l0.42822000000000005,-0.9590000000000001 a19.50463,19.50463 0 0 0 0.73438,-14.00684 l-0.030760000000000006,-0.09472000000000004 l0.007810000000000002,-0.09864000000000003 l6.57275,-85.24462 l23.25977,-7.61915 l6.7666,-6.79882 l30.12744,-0.43700000000000006 l4.19776,8.51025 l23.751,8.94141 L565.2858188183594,331.9154774169922 l-5.59375,9.6416 L561.9430388183594,352.0599774169922 l-0.015620000000000002,0.09473000000000004 l-7.33838,43.7998 l-0.40381000000000006,0.017580000000000005 Q548.7565288183594,396.21528741699217 543.8551588183594,396.21039741699224 z" fill="#3f3d56" id="svg_29"/><path d="M471.1330388183594,343.02875741699216 l-11.02783,-6.53809 l-0.6909200000000002,-0.998 a15.7342,15.7342 0 0 0 -12.4541,-6.74805 l-0.12842,-0.003910000000000001 L431.6432488183593,319.81097741699216 l6.2959,-18.44336 l23.81,7.03418 l16.59961,-41.24463 a13.19911,13.19911 0 0 1 23.47559,-2.00635 a13.62434,13.62434 0 0 1 1.9672800000000001,7.20508 v26.9873 l-0.09961000000000003,0.13379000000000002 z" fill="#3f3d56" id="svg_30"/><path d="M544.8601188183594,380.3476174169922 a9.15863,9.15863 0 0 1 12.18666,-6.97916 l20.656,-25.15175 l5.002,16.15634 l-20.38215,21.40758 a9.20824,9.20824 0 0 1 -17.46248,-5.433 z" fill="#a0616a" id="svg_31"/><path d="M575.7443188183594,377.16937741699223 L562.0280388183594,363.45160741699215 l8.73145,-21.27441 l12.65381,-17.27832 c-13.48389,-6.56446 -23.60547,-22.11524 -30.93946,-34.98828 l-0.08252000000000002,-0.14454000000000003 l1.82618,-14.30371 a18.367,18.367 0 0 1 3.87353,-9.14306 a18.36952,18.36952 0 0 1 29.90869,1.709 l24.5918,54.66846 l-0.27686000000000005,0.41308000000000006 l-19.78027,33.71875 l-5.39844,3.501 z" fill="#3f3d56" id="svg_32"/><path d="M555.5730888183593,216.3327074169922 a25.10467,25.10467 0 0 1 -49.75065,-6.77109 l0.04850000000000001,-0.35635000000000006 a25.10467,25.10467 0 0 1 49.69445,7.12639 z" fill="#a0616a" id="svg_33"/><path d="M549.1836188183594,229.2634574169922 c1.28921,-2.61883 2.6135900000000003,-5.43045 2.25128,-8.32684 s-3.20276,-5.66484 -5.99192,-4.80406 c-1.6678600000000001,0.51473 -2.92844,2.1617100000000002 -4.67189,2.246 c-2.39885,0.11600000000000002 -3.77423,-2.62948 -4.5209,-4.91211 l-3.041,-9.296570000000001 a25.15357,25.15357 0 0 1 -20.89111,4.72079 c-2.82347,-0.6455400000000001 -5.6759200000000005,-1.90416 -7.33216,-4.28021 s-1.6462700000000001,-6.0617 0.6254000000000001,-7.85842 c1.11387,-0.8810000000000001 2.59642,-1.2157 3.66088,-2.15577 a4.10217,4.10217 0 0 0 -3.27565,-7.13851 l7.65693,-0.9570000000000001 l-2.28138,-4.12614 a7.535,7.535 0 0 0 5.99172,1.0992 c2.06,-0.37093000000000004 4.0002,-1.2191400000000001 6.01549,-1.78479 a23.15188,23.15188 0 0 1 25.75441,10.81464 a9.80176,9.80176 0 0 1 10.687,3.08588 c2.04974,2.60156 2.60717,6.07331 2.6865900000000003,9.38439 a40.71463,40.71463 0 0 1 -4.15033,18.86012 a15.45115,15.45115 0 0 1 -3.48657,4.94577 a6.97822,6.97822 0 0 1 -5.60143,1.8318400000000001 " fill="#2f2e41" id="svg_34" class=""/><path d="M142.3732288183594,203.43324741699217 a38.99224,38.99224 0 0 0 5.03952,16.61592 c6.12735,10.761 16.635,18.55205 27.952,23.183 c14.13887,5.78576 29.89994,5.964 44.905,4.67391 c13.93671,-1.19822 27.73161,-3.9757 41.71968,-4.54814 a290.67425,290.67425 0 0 1 32.435,0.77368 c20.93161,1.48566 41.77624,4.2422 62.48665,7.5839300000000005 q8.41338,1.3409200000000001 16.79136,2.8814 a8.30457,8.30457 0 0 1 1.55945,0.28974 c0.10141,0.04156000000000001 0.26448000000000005,0.009130000000000003 0.3573200000000001,0.06753000000000002 c0.16859000000000005,0.10618000000000001 -0.6820000000000002,-0.26919 -0.16638000000000003,0.15694000000000005 A15.47381,15.47381 0 0 1 377.3650388183594,257.5719774169922 l7.64885,9.84331 c2.19349,2.82282 4.22918,6.25235 7.064,8.4773 a12.79059,12.79059 0 0 0 14.15922,0.98683 a14.14994,14.14994 0 0 0 5.26533,-5.981 a51.61658,51.61658 0 0 1 6.26129,-9.03759 c9.09984,-10.61576 21.74694,-17.14527 32.32494,-26.07738 a57.57506,57.57506 0 0 0 12.92811,-14.77806 a41.79039,41.79039 0 0 0 5.34147,-16.5949 c1.26668,-11.87124 -2.37608,-23.97752 -8.50294,-34.07663 a68.07168,68.07168 0 0 0 -27.63411,-25.2936 c-12.802,-6.52219 -26.968,-9.69913 -41.16812,-11.28228 c-15.07643,-1.68086 -30.32813,-1.6756200000000003 -45.47815,-1.5059200000000001 q-25.50363,0.28389000000000003 -50.91513,2.24306 q-25.44586,1.96956 -50.69115,5.59916 c-16.14935,2.32185 -32.496,4.74188 -48.30385,8.85022 c-13.96486,3.62937 -27.89045,9.30228 -38.31857,19.58089 C148.07422881835936,177.6645274169922 141.62535881835936,190.17084741699216 142.3732288183594,203.43324741699217 z" fill="#0a42a5" id="svg_35"/><path d="M220.43359881835937,207.2096674169922 a5.00673,5.00673 0 0 1 -4.74267,-5.62432 l0.35883000000000004,-2.82483 a3.37273,3.37273 0 0 0 -1.0977000000000001,-2.9370000000000003 l-2.12184,-1.8960000000000001 a4.99256,4.99256 0 0 1 2.395,-8.62841 l2.79727,-0.53131 a3.36716,3.36716 0 0 0 2.45306,-1.94914 l1.14815,-2.60739 a4.99375,4.99375 0 0 1 8.94657,-0.3878800000000001 l1.3687,2.496 a3.3679,3.3679 0 0 0 2.6145,1.7326300000000001 l2.83185,0.2861 a4.99272,4.99272 0 0 1 3.1339,8.38851 l-1.95031,2.07351 a3.3614800000000002,3.3614800000000002 0 0 0 -0.8384900000000001,3.01891 l0.6017100000000001,2.78437 a4.9927,4.9927 0 0 1 -7.00862,5.57168 l-2.5752800000000002,-1.21347 a3.35983,3.35983 0 0 0 -3.13216,0.13461 l-2.46066,1.43289 A4.99889,4.99889 0 0 1 220.43359881835937,207.2096674169922 z" fill="#fff" id="svg_36"/><path d="M260.52903881835937,206.0451574169922 a5.04346,5.04346 0 0 1 -3.36337,-1.50156 a5.17347,5.17347 0 0 1 -1.3538800000000002,-4.32291 l0.32924000000000003,-2.5919 a3.43188,3.43188 0 0 0 -1.11784,-2.99155 l-1.96831,-1.7588000000000001 a5.13349,5.13349 0 0 1 -1.79914,-4.0285 a4.99124,4.99124 0 0 1 4.06492,-4.71539 l2.76479,-0.52514 a3.43125,3.43125 0 0 0 2.5,-1.98821 l1.03031,-2.33979 a5.22514,5.22514 0 0 1 4.40614,-3.20619 a4.96762,4.96762 0 0 1 4.64379,2.58361 l1.35279,2.467 a3.43328,3.43328 0 0 0 2.66529,1.7651500000000002 l2.62461,0.26516 a5.13094,5.13094 0 0 1 3.82473,2.20359 a4.99253,4.99253 0 0 1 -0.51847,6.20233 l-1.92768,2.04945 a3.4303500000000002,3.4303500000000002 0 0 0 -0.85423,3.07484 l0.5555599999999999,2.57084 a5.15516,5.15516 0 0 1 -0.90576,4.31869 a4.97984,4.97984 0 0 1 -6.06361,1.43465 l-2.54866,-1.20092 a3.4292,3.4292 0 0 0 -3.18733,0.13869 l-2.4321,1.41627 A4.999,4.999 0 0 1 260.52903881835937,206.0451574169922 z" fill="#fff" id="svg_37"/><path d="M300.7281788183594,205.87524741699218 a5.00673,5.00673 0 0 1 -4.74267,-5.6243300000000005 l0.3588200000000001,-2.82482 a3.3727,3.3727 0 0 0 -1.09769,-2.9370000000000003 l-2.12185,-1.8960000000000001 a4.99258,4.99258 0 0 1 2.395,-8.62842 l2.79727,-0.53131 a3.36713,3.36713 0 0 0 2.45306,-1.94913 l1.14814,-2.60739 a4.99376,4.99376 0 0 1 8.94658,-0.38789000000000007 l1.3687,2.496 a3.3679,3.3679 0 0 0 2.61449,1.7326300000000001 l2.83186,0.2861 a4.99272,4.99272 0 0 1 3.1339,8.3885 l-1.95031,2.07352 a3.36142,3.36142 0 0 0 -0.8384900000000001,3.0189 l0.6017000000000001,2.78437 a4.99269,4.99269 0 0 1 -7.00862,5.57168 l-2.57527,-1.21346 a3.35979,3.35979 0 0 0 -3.13217,0.13461 l-2.4606500000000002,1.43289 A4.999,4.999 0 0 1 300.7281788183594,205.87524741699218 z" fill="#fff" id="svg_38" class=""/><path d="M341.78081019653325,204.23782074262618 a5.00673,5.00673 0 0 1 -4.74267,-5.6243300000000005 l0.35882000000000036,-2.82482 a3.3727,3.3727 0 0 0 -1.09769,-2.9370000000000003 l-2.12185,-1.8960000000000008 a4.99258,4.99258 0 0 1 2.395,-8.62842 l2.79727,-0.53131 a3.36713,3.36713 0 0 0 2.45306,-1.94913 l1.14814,-2.60739 a4.99376,4.99376 0 0 1 8.94658,-0.3878900000000003 l1.3687,2.496 a3.3679,3.3679 0 0 0 2.61449,1.7326300000000003 l2.83186,0.2861 a4.99272,4.99272 0 0 1 3.1339,8.3885 l-1.95031,2.07352 a3.36142,3.36142 0 0 0 -0.8384900000000004,3.0189 l0.6017000000000005,2.78437 a4.99269,4.99269 0 0 1 -7.00862,5.57168 l-2.57527,-1.21346 a3.35979,3.35979 0 0 0 -3.13217,0.13461 l-2.4606500000000002,1.43289 A4.999,4.999 0 0 1 341.78081019653325,204.23782074262618 z" fill="#fff" class="" id="svg_39"/><path d="M383.4182174993897,202.6003670673561 a5.00673,5.00673 0 0 1 -4.74267,-5.6243300000000005 l0.35882000000000047,-2.82482 a3.3727,3.3727 0 0 0 -1.09769,-2.9370000000000003 l-2.12185,-1.8960000000000008 a4.99258,4.99258 0 0 1 2.395,-8.62842 l2.79727,-0.53131 a3.36713,3.36713 0 0 0 2.45306,-1.94913 l1.14814,-2.60739 a4.99376,4.99376 0 0 1 8.94658,-0.3878900000000004 l1.3687,2.496 a3.3679,3.3679 0 0 0 2.61449,1.7326300000000003 l2.83186,0.2861 a4.99272,4.99272 0 0 1 3.1339,8.3885 l-1.95031,2.07352 a3.36142,3.36142 0 0 0 -0.8384900000000006,3.0189 l0.6017000000000008,2.78437 a4.99269,4.99269 0 0 1 -7.00862,5.57168 l-2.57527,-1.21346 a3.35979,3.35979 0 0 0 -3.13217,0.13461 l-2.4606500000000002,1.43289 A4.999,4.999 0 0 1 383.4182174993897,202.6003670673561 z" fill="#fff" class="" id="svg_40"/><path d="M628.0417088183593,536.7846221208 L629.1855688183593,511.06518212080005 a83.06565,83.06565 0 0 1 38.74475,-9.8078 c-18.60845,15.21374 -16.283,44.54071 -28.899,64.99963 A49.96442,49.96442 0 0 1 602.3919288183594,589.3461821208 l-15.5722,9.53437 a83.72447,83.72447 0 0 1 17.647,-67.8451 a80.87424,80.87424 0 0 1 14.863,-13.81018 C623.0592288183594,527.0594621208 628.0417088183593,536.7846221208 628.0417088183593,536.7846221208 z" fill="#a5e5c5" id="svg_41" class="" fill-opacity="1"/></g></svg>