<svg xmlns="http://www.w3.org/2000/svg" xmlns:xlink="http://www.w3.org/1999/xlink" data-name="Layer 1" width="643" height="447.57029"><rect id="backgroundrect" width="100%" height="100%" x="0" y="0" fill="none" stroke="none"/><g class="currentLayer" style=""><title>Layer 1</title><path d="M613.0719358105468,87.06346719726565 H29.928065810546855 a29.96193,29.96193 0 0 1 -29.92806,-29.92807 V29.92806719726562 a29.96193,29.96193 0 0 1 29.92806,-29.92807 H613.0719358105468 a29.96193,29.96193 0 0 1 29.92807,29.92807 v27.20733 A29.96193,29.96193 0 0 1 613.0719358105468,87.06346719726565 zM29.928065810546855,1.813817197265621 a28.14617,28.14617 0 0 0 -28.11424,28.11425 v27.20733 a28.14617,28.14617 0 0 0 28.11424,28.11425 H613.0719358105468 a28.14617,28.14617 0 0 0 28.11424,-28.11425 V29.92806719726562 a28.14617,28.14617 0 0 0 -28.11424,-28.11425 z" fill="#3f3d56" id="svg_1"/><rect x="57.135398864746094" y="26.3004207611084" width="421.71368408203125" height="34.46261978149414" rx="17.231290817260742" fill="#e6e6e6" id="svg_2"/><rect x="107.92243194580078" y="177.43017578125" width="421.71368408203125" height="34.46261978149414" rx="17.231290817260742" fill="#0a42a5" id="svg_3"/><rect x="107.92243194580078" y="287.0042419433594" width="421.71368408203125" height="34.46261978149414" rx="17.231290817260742" fill="#e6e6e6" id="svg_4" class=""/><rect x="107.92243194580078" y="287.0042419433594" width="421.71368408203125" height="34.46261978149414" rx="17.231290817260742" fill="#a5e5c5" class="" id="svg_11" fill-opacity="1"/><rect x="107.92243194580078" y="396.5782775878906" width="421.71368408203125" height="34.46261978149414" rx="17.231290817260742" fill="#a5e5c5" id="svg_5" class="" fill-opacity="1"/><path d="M586.3123658105469,62.14736719726562 a2.71409,2.71409 0 0 1 -3.7799,0.6665400000000001 l-14.80667,-10.30275 a2.714,2.714 0 1 1 3.11336,-4.44644 l14.80667,10.30275 A2.71408,2.71408 0 0 1 586.3123658105469,62.14736719726562 z" fill="#0a42a5" id="svg_6"/><path d="M569.5024558105468,50.44194719726562 a19.26672,19.26672 0 1 1 -4.73174,-26.83326 A19.28854,19.28854 0 0 1 569.5024558105468,50.44194719726562 zm-27.61937,-19.33883 a14.45,14.45 0 1 0 20.12494,-3.5488 A14.466380000000001,14.466380000000001 0 0 0 541.8830658105469,31.103117197265647 z" fill="#0a42a5" id="svg_7"/><path d="M596.2940758105469,228.33229719726563 H46.70592581054689 a0.90691,0.90691 0 1 1 0,-1.8138200000000002 H596.2940758105469 a0.90691,0.90691 0 1 1 0,1.8138200000000002 z" fill="#3f3d56" id="svg_8"/><path d="M596.2940758105469,337.9515171972656 H46.70592581054689 a0.90691,0.90691 0 0 1 0,-1.8138200000000002 H596.2940758105469 a0.90691,0.90691 0 0 1 0,1.8138200000000002 z" fill="#3f3d56" id="svg_9"/><path d="M596.2940758105469,447.57028719726566 H46.70592581054689 a0.90691,0.90691 0 0 1 0,-1.8138200000000002 H596.2940758105469 a0.90691,0.90691 0 1 1 0,1.8138200000000002 z" fill="#3f3d56" id="svg_10"/></g></svg>