<svg width="88" height="87" xmlns="http://www.w3.org/2000/svg" xmlns:xlink="http://www.w3.org/1999/xlink" overflow="hidden"><defs><clipPath id="clip0"><rect x="50" y="798" width="88" height="87"/></clipPath></defs><g clip-path="url(#clip0)" transform="translate(-50 -798)"><path d="M19.0312 29.1722C21.5338 29.1722 23.5625 27.1435 23.5625 24.6409 23.5625 22.1384 21.5338 20.1097 19.0312 20.1097 16.5287 20.1097 14.5 22.1384 14.5 24.6409 14.5 27.1435 16.5287 29.1722 19.0312 29.1722Z" fill="#0A42A5" transform="matrix(1.01149 0 0 1 50 798)"/><path d="M24.94 39.44C25.3306 39.7218 25.7997 39.8739 26.2812 39.875L32.625 39.875C33.8763 39.875 34.8906 38.8606 34.8906 37.6094 34.8906 36.3581 33.8763 35.3438 32.625 35.3438L27.0244 35.3438 22.7106 32.1809C21.7686 30.8865 20.2059 30.1951 18.6144 30.3684 16.2695 30.66 14.5222 32.6731 14.5634 35.0356L14.5634 48.0312C14.5634 50.5338 16.5922 52.5625 19.0947 52.5625L23.5625 52.5625 23.5625 52.5625 29 52.5625 29 64.09C29 65.3413 30.0144 66.3556 31.2656 66.3556 32.5169 66.3556 33.5312 65.3413 33.5312 64.09L33.5312 50.2697C33.5312 49.0184 32.5169 48.0041 31.2656 48.0041L23.5625 48.0041 23.5625 38.4159Z" fill="#0A42A5" transform="matrix(1.01149 0 0 1 50 798)"/><path d="M67.9688 29.1722C70.4713 29.1722 72.5 27.1435 72.5 24.6409 72.5 22.1384 70.4713 20.1097 67.9688 20.1097 65.4662 20.1097 63.4375 22.1384 63.4375 24.6409 63.4375 27.1435 65.4662 29.1722 67.9688 29.1722Z" fill="#0A42A5" transform="matrix(1.01149 0 0 1 50 798)"/><path d="M68.3856 30.3231C66.7941 30.1498 65.2314 30.8412 64.2894 32.1356L59.9756 35.3438 54.375 35.3438C53.1237 35.3438 52.1094 36.3581 52.1094 37.6094 52.1094 38.8606 53.1237 39.875 54.375 39.875L60.7188 39.875C61.2003 39.8739 61.6694 39.7218 62.06 39.44L63.4375 38.4159 63.4375 48.0312 55.7616 48.0312C54.5103 48.0312 53.4959 49.0456 53.4959 50.2969L53.4959 64.09C53.4959 65.3413 54.5103 66.3556 55.7616 66.3556 57.0128 66.3556 58.0272 65.3413 58.0272 64.09L58.0272 52.5625 63.4647 52.5625 63.4647 52.5625 67.8872 52.5625C70.3897 52.5625 72.4184 50.5338 72.4184 48.0312L72.4184 34.9903C72.4608 32.6339 70.7232 30.6231 68.3856 30.3231Z" fill="#0A42A5" transform="matrix(1.01149 0 0 1 50 798)"/><path d="M58.9062 41.6875 28.0938 41.6875C27.0927 41.6875 26.2812 42.499 26.2812 43.5 26.2812 44.501 27.0927 45.3125 28.0938 45.3125L41.6875 45.3125 41.6875 63.4375 36.25 63.4375 36.25 67.0625 50.75 67.0625 50.75 63.4375 45.3125 63.4375 45.3125 45.3125 58.9062 45.3125C59.9073 45.3125 60.7188 44.501 60.7188 43.5 60.7188 42.499 59.9073 41.6875 58.9062 41.6875Z" fill="#0A42A5" transform="matrix(1.01149 0 0 1 50 798)"/><path d="M25.375 54.375 12.6875 54.375 12.6875 36.25C12.6875 35.249 11.876 34.4375 10.875 34.4375 9.87396 34.4375 9.0625 35.249 9.0625 36.25L9.0625 56.1875C9.0625 57.1885 9.87396 58 10.875 58L16.3125 58 16.3125 63.4375 12.6875 63.4375 12.6875 67.0625 23.5625 67.0625 23.5625 63.4375 19.9375 63.4375 19.9375 58 25.375 58C26.376 58 27.1875 57.1885 27.1875 56.1875 27.1875 55.1865 26.376 54.375 25.375 54.375Z" fill="#0A42A5" transform="matrix(1.01149 0 0 1 50 798)"/><path d="M76.125 34.8906C75.124 34.8906 74.3125 35.7021 74.3125 36.7031L74.3125 54.375 61.625 54.375C60.624 54.375 59.8125 55.1865 59.8125 56.1875 59.8125 57.1885 60.624 58 61.625 58L67.0625 58 67.0625 63.4375 63.4375 63.4375 63.4375 67.0625 74.3125 67.0625 74.3125 63.4375 70.6875 63.4375 70.6875 58 76.125 58C77.126 58 77.9375 57.1885 77.9375 56.1875L77.9375 36.7031C77.9375 35.7021 77.126 34.8906 76.125 34.8906Z" fill="#0A42A5" transform="matrix(1.01149 0 0 1 50 798)"/></g></svg>