<svg width="75" height="75" xmlns="http://www.w3.org/2000/svg" xmlns:xlink="http://www.w3.org/1999/xlink" overflow="hidden"><defs><clipPath id="clip0"><rect x="452" y="545" width="75" height="75"/></clipPath></defs><g clip-path="url(#clip0)" transform="translate(-452 -545)"><path d="M501.062 592.891C501.453 592.109 501.219 591.172 500.438 590.781 499.656 590.391 498.719 590.625 498.328 591.406L495.203 596.953 497.312 588.594C497.547 587.734 497 586.875 496.141 586.719 495.281 586.484 494.422 587.031 494.266 587.891L492.469 595.078 492.469 587.266C492.469 586.406 491.766 585.703 490.906 585.703 490.047 585.703 489.344 586.406 489.344 587.266L489.344 595.625 487.547 587.891C487.391 587.031 486.531 586.562 485.672 586.719 484.812 586.875 484.344 587.734 484.5 588.594L486.688 597.891C486.609 598.984 486.375 600.078 486.141 601.016 486.141 601.016 486.141 600.938 486.062 600.938 484.734 598.906 482.625 597.109 480.594 596.562 479.812 596.328 479.031 596.797 478.797 597.578 478.562 598.359 479.031 599.141 479.812 599.375 480.828 599.609 481.766 601.094 482.781 602.656 484.031 604.609 485.594 606.875 487.938 608.203L487.938 616.562 494.812 616.562 494.812 607.734C497.391 606.406 497.703 600.859 497.781 598.75L501.062 592.891Z" fill="#0A42A5"/><path d="M473.484 593.516 480.281 593.594C480.281 593.594 480.281 593.594 480.281 593.594 481.141 593.594 481.844 592.891 481.844 592.031 481.844 591.172 481.141 590.469 480.281 590.469L473.953 590.391 482.234 588.281C483.094 588.047 483.562 587.188 483.328 586.406 483.094 585.547 482.234 585.078 481.453 585.312L474.266 587.188 481.141 583.438C481.922 583.047 482.156 582.109 481.766 581.328 481.375 580.547 480.438 580.312 479.656 580.703L472.312 584.609 478.25 579.375C478.875 578.828 478.953 577.812 478.406 577.188 477.859 576.562 476.844 576.484 476.219 577.031L469.031 583.281C468.016 583.75 467 584.062 465.984 584.219 465.984 584.219 465.984 584.141 466.062 584.141 467.234 581.953 467.781 579.297 467.312 577.266 467.156 576.484 466.297 576.016 465.516 576.172 464.734 576.328 464.266 577.188 464.422 577.969 464.656 578.984 463.875 580.469 463.016 582.109 461.922 584.141 460.672 586.562 460.594 589.297L453.25 593.281 456.531 599.297 464.266 595.156C466.609 596.797 471.609 594.453 473.484 593.516Z" fill="#0A42A5"/><path d="M474.344 568.047 475.984 574.609C476.141 575.312 476.766 575.781 477.469 575.781 477.625 575.781 477.703 575.781 477.859 575.703 478.719 575.469 479.188 574.688 479.031 573.828L477.547 567.656 481.688 575.078C482 575.625 482.469 575.859 483.094 575.859 483.328 575.859 483.641 575.781 483.875 575.625 484.656 575.234 484.891 574.219 484.5 573.516L480.906 567.031 486.219 572.734C486.531 573.047 486.922 573.203 487.391 573.203 487.781 573.203 488.172 573.047 488.484 572.812 489.109 572.188 489.109 571.25 488.562 570.625L482.859 564.531 489.5 568.984C489.734 569.141 490.047 569.219 490.359 569.219 490.828 569.219 491.375 568.984 491.688 568.516 492.156 567.812 492 566.797 491.297 566.328L483.328 561.016C482.625 560.156 482.078 559.219 481.609 558.359 481.609 558.359 481.688 558.359 481.688 558.359 484.031 558.906 486.766 558.828 488.641 557.812 489.344 557.422 489.578 556.562 489.188 555.859 488.797 555.156 487.938 554.922 487.234 555.312 486.375 555.781 484.656 555.391 482.859 555 480.594 554.453 477.938 553.828 475.281 554.531L469.578 548.438 464.578 553.125 470.594 559.531C469.344 562.266 472.859 566.562 474.344 568.047Z" fill="#0A42A5"/><path d="M525.75 598.75 519.812 592.266C520.828 589.531 517.312 585.234 515.906 583.672L514.344 577.109C514.109 576.25 513.328 575.781 512.469 575.938 511.609 576.172 511.141 576.953 511.297 577.812L512.781 583.984 508.641 576.484C508.25 575.703 507.312 575.469 506.531 575.859 505.75 576.25 505.516 577.188 505.906 577.969L509.5 584.531 504.188 578.828C503.562 578.203 502.625 578.125 502 578.75 501.375 579.375 501.297 580.312 501.922 580.938L507.625 587.109 501.062 582.656C500.359 582.188 499.344 582.344 498.875 583.047 498.406 583.75 498.562 584.766 499.266 585.234L507.156 590.625C507.859 591.484 508.406 592.422 508.875 593.281 508.875 593.281 508.797 593.281 508.797 593.281 506.453 592.734 503.719 592.812 501.844 593.828 501.141 594.219 500.828 595.078 501.219 595.781 501.609 596.484 502.469 596.797 503.172 596.406 504.031 595.938 505.75 596.328 507.547 596.797 509.812 597.344 512.469 597.969 515.125 597.344L520.75 603.438 525.75 598.75Z" fill="#0A42A5"/><path d="M493.641 565.312C493.797 565.312 493.953 565.312 494.188 565.234L500.125 563.125 493.094 567.969C492.391 568.438 492.234 569.453 492.703 570.156 493.016 570.625 493.484 570.859 493.953 570.859 494.266 570.859 494.578 570.781 494.812 570.547L500.906 566.328 495.75 572.188C495.203 572.812 495.281 573.828 495.906 574.375 496.219 574.609 496.531 574.766 496.922 574.766 497.391 574.766 497.781 574.609 498.094 574.219L503.641 567.891 499.891 574.922C499.5 575.703 499.734 576.641 500.516 577.031 500.75 577.188 500.984 577.188 501.219 577.188 501.766 577.188 502.312 576.875 502.625 576.328L507.156 567.891C507.938 567.109 508.797 566.484 509.656 565.938 509.656 565.938 509.656 566.016 509.656 566.016 509.344 568.438 509.734 571.172 510.906 572.891 511.375 573.594 512.234 573.75 512.938 573.281 513.641 572.812 513.797 571.953 513.328 571.25 512.781 570.391 513.016 568.672 513.25 566.797 513.562 564.531 513.875 561.797 513.016 559.219L518.484 552.969 513.328 548.438 507.547 555.078C504.734 554.375 500.828 558.359 499.422 559.844L493.016 562.109C492.234 562.422 491.766 563.281 492.078 564.141 492.391 564.922 493.016 565.312 493.641 565.312Z" fill="#0A42A5"/></g></svg>