<svg xmlns="http://www.w3.org/2000/svg" xmlns:xlink="http://www.w3.org/1999/xlink" data-name="Layer 1" width="649.6753540039062" height="624.5416259765625"><rect id="backgroundrect" width="100%" height="100%" x="0" y="0" fill="none" stroke="none"/><g class="currentLayer" style=""><title>Layer 1</title><path d="M491.0349270019532,332.0279629882813 c23.20617,-13.57216 54.12956,-16.40841 76.48255,-1.47333 a123.8633,123.8633 0 0 0 -67.54444,51.66847 c-6.02488,9.53009 -11.73369,20.75719 -22.43378,24.31124 c-6.6578100000000004,2.21155 -14.08868,0.8480000000000001 -20.40988,-2.19449 c-6.32143,-3.04276 -11.74128,-7.640000000000001 -17.08431,-12.18654 l-1.7064599999999999,-0.3938800000000001 C451.25004700195313,368.1792829882813 467.82875700195314,345.60013298828125 491.0349270019532,332.0279629882813 z" fill="#a5e5c5" id="svg_1" class="" fill-opacity="1"/><path d="M567.2701770019531,331.0616429882813 a105.86978,105.86978 0 0 0 -63.31679,15.29261 a45.59114,45.59114 0 0 0 -11.02378,9.08434 a26.14849,26.14849 0 0 0 -5.6825600000000005,12.53387 c-0.77734,4.28487 -1.07626,8.75784 -2.88165,12.77914 a16.01082,16.01082 0 0 1 -9.90687,8.562 c-5.34359,1.7557400000000003 -10.99938,1.48673 -16.52112,1.03146 c-6.13084,-0.5055 -12.49085,-1.12769 -18.361,1.154 c-0.71126,0.27646000000000004 -1.09864,-0.8433400000000001 -0.3884500000000001,-1.11937 c10.21314,-3.96971 21.16781,0.5133099999999999 31.65675,-1.3753900000000001 c4.89433,-0.88131 9.55272,-3.24292 11.96652,-7.77224 c2.11076,-3.9607 2.423,-8.573 3.17252,-12.91834 a27.90243,27.90243 0 0 1 5.0997,-12.46244 a42.14789,42.14789 0 0 1 10.63385,-9.47465 a102.71264,102.71264 0 0 1 29.35037,-13.00424 a107.74732,107.74732 0 0 1 36.43212,-3.47328 c0.7583700000000001,0.057760000000000006 0.52386,1.22 -0.22956000000000004,1.16261 z" fill="#fff" id="svg_2" class=""/><path d="M509.84261700195316,342.2514629882813 a15.88384,15.88384 0 0 1 5.871,-19.71217 c0.6403200000000001,-0.41374 1.31332,0.5618400000000001 0.6721500000000001,0.97612 a14.7081,14.7081 0 0 0 -5.42382,18.3476 c0.31055000000000005,0.6963100000000001 -0.8106000000000001,1.08077 -1.11937,0.3884500000000001 z" fill="#fff" id="svg_3"/><path d="M487.3550370019532,365.74794298828124 a30.61478,30.61478 0 0 0 22.3107,0.14756000000000002 c0.71221,-0.27393 1.0998,0.8457800000000001 0.3884500000000001,1.11937 a31.844,31.844 0 0 1 -23.216,-0.20073000000000002 c-0.7087200000000001,-0.28511000000000003 -0.18800000000000003,-1.34975 0.5168400000000001,-1.0662 z" fill="#fff" id="svg_4"/><path d="M542.7010070019531,331.70056298828126 a8.991,8.991 0 0 0 5.51988,6.5050799999999995 c0.7120000000000001,0.276 0.19050000000000003,1.3403800000000001 -0.51685,1.06619 a10.07516,10.07516 0 0 1 -6.12241,-7.18282 a0.6123400000000001,0.6123400000000001 0 0 1 0.36546000000000006,-0.7539100000000001 a0.5954400000000001,0.5954400000000001 0 0 1 0.7539200000000001,0.36546000000000006 z" fill="#fff" id="svg_5"/><path d="M576.7835770019532,421.1042729882812 c-0.4494800000000001,-0.15968000000000002 -0.8990000000000001,-0.3193700000000001 -1.35667,-0.47336000000000006 a118.40826,118.40826 0 0 0 -18.58627,-4.84469 c-0.48700000000000004,-0.09349000000000003 -0.98192,-0.18091000000000004 -1.47058,-0.26021 a124.82707,124.82707 0 0 0 -45.94646,1.01148 a121.22256,121.22256 0 0 0 -17.68017,5.16285 c-7.94625,2.99291 -16.32388,6.87025 -24.55256,7.05779 a20.79516,20.79516 0 0 1 -2.57286,-0.07183 L437.99045700195313,393.87181298828125 c-0.020810000000000002,-0.10949000000000002 -0.049810000000000014,-0.21332 -0.07092000000000001,-0.32320000000000004 l-1.12671,-1.34142 c0.28895000000000004,-0.13248000000000001 0.59148,-0.26367 0.88043,-0.39615000000000006 c0.16730000000000003,-0.07755000000000001 0.3405200000000001,-0.14734000000000003 0.50782,-0.22488000000000002 c0.11340000000000001,-0.049240000000000006 0.22716000000000003,-0.09813000000000004 0.3266800000000001,-0.14900000000000002 c0.03769000000000001,-0.016530000000000003 0.07567000000000002,-0.03267000000000001 0.10546000000000001,-0.04316000000000001 c0.09952000000000004,-0.05092000000000001 0.19737000000000002,-0.08764000000000002 0.28895000000000004,-0.13248000000000001 q2.5335900000000002,-1.107 5.09156,-2.18222 c0.007950000000000002,-0.006080000000000002 0.007950000000000002,-0.006080000000000002 0.021830000000000002,-0.004400000000000001 c13.00759,-5.42865 26.58266,-9.81906 40.39255,-12.00946 c0.41551000000000005,-0.06576000000000003 0.8386700000000001,-0.138 1.26635,-0.18786000000000003 a115.674,115.674 0 0 1 18.83046,-1.32153 a102.26086,102.26086 0 0 1 10.32486,0.6767200000000002 a85.03677,85.03677 0 0 1 25.58909,7.21883 c16.143,7.44427 29.72557,19.96851 35.90491,36.39321 C576.4815570019531,420.2650329882813 576.6337470019531,420.67791298828126 576.7835770019532,421.1042729882812 z" fill="#a5e5c5" id="svg_6" class="" fill-opacity="1"/><path d="M576.2818470019531,421.3639629882813 A105.86973,105.86973 0 0 0 516.5196770019531,395.45318298828124 a45.59123,45.59123 0 0 0 -14.27127,0.6162500000000001 a26.14861,26.14861 0 0 0 -12.08346,6.5863 c-3.20045,2.95322 -6.13216,6.34467 -9.99476,8.46849 a16.0108,16.0108 0 0 1 -13.065,0.8716100000000001 c-5.32364,-1.81535 -9.67751,-5.43531 -13.8122,-9.12329 c-4.59079,-4.0948 -9.29431,-8.42076 -15.35505,-10.13324 c-0.7343400000000001,-0.20749000000000004 -0.36945000000000006,-1.33481 0.36379,-1.12764 c10.54465,2.97943 16.59226,13.15434 26.10422,17.96138 c4.43846,2.24306 9.57977,3.16212 14.234,0.999 c4.06994,-1.89158 7.09614,-5.38628 10.31081,-8.40449 a27.90262,27.90262 0 0 1 11.57508,-6.8802 a42.14809,42.14809 0 0 1 14.19493,-1.16266 a102.71252,102.71252 0 0 1 31.26407,7.28779 a107.74716,107.74716 0 0 1 31.18016,19.16143 c0.5707500000000001,0.5027200000000001 -0.31624,1.2895 -0.8832500000000001,0.79007 z" fill="#fff" id="svg_7"/><path d="M523.6921070019531,395.7230529882812 a15.88382,15.88382 0 0 1 16.555790000000002,-12.20429 a0.5929400000000001,0.5929400000000001 0 0 1 -0.05100000000000001,1.1840600000000001 a14.70808,14.70808 0 0 0 -15.37713,11.384 c-0.17127,0.7429400000000002 -1.29793,0.37490000000000007 -1.12763,-0.36378000000000005 z" fill="#fff" id="svg_8"/><path d="M491.5905270019531,400.9446129882813 a30.61479,30.61479 0 0 0 17.725,13.55038 c0.73358,0.21009000000000003 0.36891000000000007,1.3374700000000002 -0.36378000000000005,1.12764 a31.844,31.844 0 0 1 -18.41581,-14.1379 c-0.39422000000000007,-0.6543400000000001 0.66251,-1.1909100000000001 1.05459,-0.54012 z" fill="#fff" id="svg_9"/><path d="M556.2800570019531,407.0818129882813 a8.991,8.991 0 0 0 0.4908100000000001,8.51729 c0.40232000000000007,0.6490000000000001 -0.6549000000000001,1.1849100000000001 -1.05459,0.54012 a10.07515,10.07515 0 0 1 -0.5638500000000001,-9.4212 a0.61233,0.61233 0 0 1 0.7457100000000001,-0.3819200000000001 a0.59543,0.59543 0 0 1 0.3819200000000001,0.7457100000000001 z" fill="#fff" id="svg_10"/><path d="M39.187487001953116,543.6892229882812 c2.7226,-26.74542 18.66661,-53.39291 43.90977,-62.63932 a123.86328,123.86328 0 0 0 1.9005,85.01924 c4.1442,10.48558 9.84534,21.71657 6.40619,32.45414 c-2.13979,6.68122 -7.62287,11.87862 -13.80752,15.18984 c-6.185,3.31123 -13.09388,4.97768 -19.91651,6.6119400000000015 l-1.32437,1.146 C44.92474700195311,597.1386129882812 36.46489700195315,570.4346329882812 39.187487001953116,543.6892229882812 z" fill="#a5e5c5" id="svg_11" class="" fill-opacity="1"/><path d="M83.36090700195314,482.3298129882812 A105.86972,105.86972 0 0 0 58.375677001953136,542.4848129882813 a45.59107,45.59107 0 0 0 0.83646,14.26006 a26.14849,26.14849 0 0 0 6.772,11.98035 c3.00227,3.15448 6.43857,6.0335 8.62175,9.86286 a16.01084,16.01084 0 0 1 1.07318,13.04995 c-1.733,5.351 -5.28529,9.76025 -8.909,13.95138 c-4.02345,4.65344 -8.27628,9.42317 -9.895,15.50963 c-0.19613000000000003,0.73746 -1.3290000000000002,0.39000000000000007 -1.13312,-0.3463400000000001 c2.81632,-10.58939 12.89666,-16.79333 17.55631,-26.37836 c2.17428,-4.47255 3.01387,-9.62744 0.77915,-14.24774 c-1.95417,-4.04025 -5.49517,-7.01215 -8.56264,-10.17986 a27.90247,27.90247 0 0 1 -7.05805,-11.46749 a42.148,42.148 0 0 1 -1.38163,-14.17529 a102.71249,102.71249 0 0 1 6.80435,-31.37284 a107.747,107.747 0 0 1 18.67786,-31.47222 c0.49384000000000006,-0.5784400000000001 1.29423,0.29630000000000006 0.80361,0.8709500000000001 z" fill="#fff" id="svg_12"/><path d="M58.53479700195311,535.3091029882812 a15.88382,15.88382 0 0 1 -12.45838,-16.36543 a0.5930000000000001,0.5930000000000001 0 0 1 1.18471,0.03273000000000001 a14.70809,14.70809 0 0 0 11.620000000000001,15.19959 c0.7454900000000001,0.15978000000000003 0.3948900000000001,1.292 -0.3463400000000001,1.13311 z" fill="#fff" id="svg_13"/><path d="M64.25123700195314,567.3262629882812 a30.61481,30.61481 0 0 0 13.27518,-17.93205 c0.19874000000000006,-0.7367400000000002 1.33161,-0.3895100000000001 1.13312,0.3463400000000001 a31.844,31.844 0 0 1 -13.852,18.63184 c-0.6481800000000001,0.40427 -1.201,-0.6440600000000001 -0.5563400000000001,-1.04613 z" fill="#fff" id="svg_14"/><path d="M69.38915700195315,502.5497029882813 a8.991,8.991 0 0 0 8.50869,-0.6222200000000001 c0.6427400000000002,-0.41228000000000004 1.19489,0.63653 0.5563400000000001,1.04613 a10.07515,10.07515 0 0 1 -9.41137,0.70921 a0.6123400000000001,0.6123400000000001 0 0 1 -0.3933900000000001,-0.7397300000000001 a0.5954400000000001,0.5954400000000001 0 0 1 0.7397300000000001,-0.3933900000000001 z" fill="#fff" id="svg_15"/><path d="M161.69292700195314,526.9608829882812 c-0.3940000000000002,0.2688500000000001 -0.788,0.53771 -1.1823000000000001,0.81658 a118.40724,118.40724 0 0 0 -14.87259,12.15426 c-0.3626700000000001,0.3381800000000002 -0.7251200000000002,0.6863700000000003 -1.07732,1.03427 a124.827,124.827 0 0 0 -26.27647,37.70474 a121.22316000000001,121.22316000000001 0 0 0 -6.25579,17.32364 c-2.2684800000000003,8.18257 -4.077,17.23506 -8.7778,23.99147 a20.7948,20.7948 0 0 1 -1.57516,2.03559 l-43.8192,0.97637 c-0.10070000000000003,-0.04776000000000001 -0.20167,-0.08556000000000004 -0.3028500000000001,-0.1333 l-1.7477900000000004,0.11900000000000004 c0.06339000000000003,-0.3114900000000001 0.13583,-0.6331900000000003 0.19922000000000006,-0.9446800000000002 c0.03600000000000001,-0.18084000000000006 0.08181000000000002,-0.3619000000000001 0.11783000000000003,-0.5427400000000002 c0.027100000000000013,-0.12062000000000003 0.05469000000000003,-0.24132 0.07226000000000003,-0.35173 c0.008870000000000006,-0.040180000000000014 0.01823,-0.08038000000000002 0.027320000000000014,-0.11062000000000004 c0.017570000000000013,-0.11040000000000003 0.04561000000000004,-0.21109000000000006 0.06339000000000003,-0.3114900000000001 q0.5999400000000003,-2.6990000000000007 1.23991,-5.399 c-0.00023000000000000012,-0.010000000000000004 -0.00023000000000000012,-0.010000000000000004 0.009310000000000004,-0.02023 c3.28582,-13.70661 7.74479,-27.25931 14.119,-39.70438 c0.19190000000000007,-0.3743600000000002 0.3831000000000001,-0.7587200000000004 0.5950000000000002,-1.13353 A115.67383,115.67383 0 0 1 82.28544700195312,558.4775629882813 a102.26084,102.26084 0 0 1 6.6348400000000005,-7.93975 A85.03658,85.03658 0 0 1 109.83967700195313,534.1277629882812 c15.53143,-8.64812 33.65578,-12.23274 50.56484,-7.53824 C160.83702700195312,526.7099329882813 161.26022700195313,526.8304729882813 161.69292700195314,526.9608829882812 z" fill="#a5e5c5" id="svg_16" class="" fill-opacity="1"/><path d="M161.60680700195314,528.3004829882813 a105.8698,105.8698 0 0 0 -56.16675,32.98752 a45.59158,45.59158 0 0 0 -7.91767,11.88947 a26.14862,26.14862 0 0 0 -1.80591,13.64288 c0.49793000000000004,4.32625 1.5082499999999999,8.69387 0.94586,13.06582 a16.01083,16.01083 0 0 1 -7.0001,11.06579 c-4.60536,3.22913 -10.09635,4.6109 -15.513,5.77555 c-6.01419,1.29312 -12.28155,2.541 -17.23848,6.42609 c-0.6006000000000001,0.47073 -1.2959100000000001,-0.48872000000000004 -0.6962100000000001,-0.9587500000000001 c8.62421,-6.75941 20.408,-5.6438500000000005 29.89932,-10.491530000000001 c4.42882,-2.262 8.20279,-5.87241 9.20023,-10.90693 c0.87221,-4.40246 -0.16579000000000005,-8.90728 -0.70781,-13.28334 a27.90236,27.90236 0 0 1 1.26877,-13.40558 a42.14776,42.14776 0 0 1 7.43135,-12.15 a102.71255,102.71255 0 0 1 24.3215,-20.95278 a107.7473,107.7473 0 0 1 33.86168,-13.88344 c0.74256,-0.16452000000000003 0.8550000000000001,1.0158 0.11726000000000003,1.17924 z" fill="#fff" id="svg_17"/><path d="M109.8873770019531,555.6544229882812 a15.88384,15.88384 0 0 1 -0.09420000000000003,-20.56769 c0.4929200000000001,-0.58156 1.4197899999999999,0.15708000000000003 0.92622,0.73941 a14.70808,14.70808 0 0 0 0.12672,19.13207 c0.49900000000000005,0.57642 -0.46257000000000004,1.26933 -0.9587400000000001,0.6962100000000001 z" fill="#fff" id="svg_18"/><path d="M95.17509700195313,584.6600229882813 a30.61483,30.61483 0 0 0 21.39582,-6.32516 c0.6022500000000001,-0.46859 1.29773,0.49071000000000004 0.6962100000000001,0.9587400000000001 a31.844,31.844 0 0 1 -22.27767,6.53665 c-0.7609300000000001,-0.06746000000000002 -0.57116,-1.23733 0.18564000000000003,-1.17023 z" fill="#fff" id="svg_19"/><path d="M138.27739700195315,536.0329429882812 a8.991,8.991 0 0 0 7.16833,4.626 c0.76141,0.057780000000000005 0.5708200000000001,1.22763 -0.18564000000000003,1.17023 a10.07518,10.07518 0 0 1 -7.94144,-5.1 a0.61233,0.61233 0 0 1 0.13127,-0.82747 a0.59543,0.59543 0 0 1 0.82748,0.13126000000000002 z" fill="#fff" id="svg_20"/><g id="a319387a-1074-4617-a9d7-8c11a1aba957" data-name="Group 1"><path id="a64f6941-3d46-45f6-b9a5-e3f4c7441463-470" data-name="Path 1" d="M376.90521700195313,73.51001298828126 l-235.885,-23.202 a19.3559,19.3559 0 0 1 -7.747,-2.529 a23.475,23.475 0 0 1 -6.407,-5.48 a26.432,26.432 0 0 1 -5.97,-16.648 a24.49392,24.49392 0 0 1 0.39300000000000007,-4.409 a22.07142,22.07142 0 0 1 1.153,-4.079 a20.066,20.066 0 0 1 1.872,-3.648 a18.69279,18.69279 0 0 1 2.549,-3.12 a17.388,17.388 0 0 1 3.084,-2.4210000000000003 a16.34494,16.34494 0 0 1 7.171,-2.371 a17.58147,17.58147 0 0 1 3.9,0.1 l235.887,31.908 a10.9,10.9 0 0 1 4.959,2.077 a16.39086,16.39086 0 0 1 4.017,4.352 a22.49311,22.49311 0 0 1 2.692,5.987 a25.37834,25.37834 0 0 1 0.984,7.011 a24.54784,24.54784 0 0 1 -0.24000000000000002,3.454 a21.70315,21.70315 0 0 1 -0.7060000000000001,3.222 a18.66649,18.66649 0 0 1 -1.151,2.92 a15.78432,15.78432 0 0 1 -1.577,2.547 a12.85834,12.85834 0 0 1 -1.925,2.037 a10.412,10.412 0 0 1 -2.173,1.42 a9.054,9.054 0 0 1 -4.881,0.8710000000000001 z" fill="#e4e4e4"/><path id="f573f903-41a4-475b-90ae-b1e8d0598757-471" data-name="Path 2" d="M272.0612070019531,63.198002988281246 l-131.041,-12.89 a19.3559,19.3559 0 0 1 -7.747,-2.529 a23.475,23.475 0 0 1 -6.407,-5.48 a26.432,26.432 0 0 1 -5.97,-16.648 a24.49392,24.49392 0 0 1 0.39300000000000007,-4.409 a22.07142,22.07142 0 0 1 1.153,-4.079 a20.066,20.066 0 0 1 1.872,-3.648 a18.69279,18.69279 0 0 1 2.549,-3.12 a17.388,17.388 0 0 1 3.084,-2.4210000000000003 a16.34494,16.34494 0 0 1 7.171,-2.371 a17.58147,17.58147 0 0 1 3.9,0.1 l131.04,17.729 z" fill="#20b97c"/><path id="b9dc6a73-2ff5-489e-a572-426ec7a03266-472" data-name="Path 3" d="M271.72620700195307,66.12700298828125 a3.86587,3.86587 0 0 1 -1.7000000000000002,-0.6000000000000001 a5.177,5.177 0 0 1 -1.3860000000000001,-1.3130000000000002 a6.526,6.526 0 0 1 -0.9400000000000001,-1.847 a7.057,7.057 0 0 1 -0.3460000000000001,-2.182 v-34.846000000000004 a6.3231,6.3231 0 0 1 0.3450000000000001,-2.1 a4.88,4.88 0 0 1 0.9410000000000001,-1.625 a3.693,3.693 0 0 1 1.3900000000000001,-1 a3.32307,3.32307 0 0 1 1.7000000000000002,-0.2 a4.007,4.007 0 0 1 1.6900000000000002,0.6660000000000001 a5.458,5.458 0 0 1 1.374,1.37 a6.80028,6.80028 0 0 1 0.928,1.87 a7.1632,7.1632 0 0 1 0.3400000000000001,2.177 v34.565 a6.42481,6.42481 0 0 1 -0.3400000000000001,2.1 a5.09988,5.09988 0 0 1 -0.928,1.6520000000000001 a3.87889,3.87889 0 0 1 -1.3780000000000001,1.045 A3.365,3.365 0 0 1 271.72620700195307,66.12700298828125 z" fill="#3f3d56"/><path id="b44bc342-b83f-44d8-9fe9-a8f7383873d1-473" data-name="Path 4" d="M62.1062170019531,37.52400298828124 a5.17536,5.17536 0 0 1 -0.6930000000000002,-0.11900000000000002 a5.47518,5.47518 0 0 1 -0.6870000000000002,-0.21600000000000003 a5.83748,5.83748 0 0 1 -0.6720000000000002,-0.31100000000000005 a6.24936,6.24936 0 0 1 -0.6500000000000001,-0.406 a6.47,6.47 0 0 1 -2.526,-3.715 a6.3534500000000005,6.3534500000000005 0 0 1 -0.18500000000000003,-1.525 v-26.166 a5.8347,5.8347 0 0 1 0.18500000000000003,-1.479 a5.07666,5.07666 0 0 1 0.535,-1.3 a4.6,4.6 0 0 1 1.992,-1.8250000000000002 a4.70838,4.70838 0 0 1 1.3210000000000002,-0.40700000000000003 a4.90017,4.90017 0 0 1 1.3800000000000001,-0.012000000000000002 a5.42839,5.42839 0 0 1 1.377,0.37400000000000005 a6.20047,6.20047 0 0 1 1.312,0.7500000000000001 l20.898,15.525 a6.391,6.391 0 0 1 1.02,0.9480000000000001 a6.46325,6.46325 0 0 1 1.311,2.4 a6.38473,6.38473 0 0 1 0.24500000000000002,1.361 a0.8696700000000002,0.8696700000000002 0 0 0 0.007000000000000002,0.11000000000000001 a0.43451000000000006,0.43451000000000006 0 0 1 0,0.11000000000000001 v0.22100000000000003 a5.85729,5.85729 0 0 1 -0.17600000000000002,1.445 a5.1104,5.1104 0 0 1 -0.51,1.2730000000000001 a4.64708,4.64708 0 0 1 -0.8150000000000001,1.05 a4.54207,4.54207 0 0 1 -1.082,0.776 l-20.9,10.641 a4.82027,4.82027 0 0 1 -0.6450000000000001,0.271 a4.77062,4.77062 0 0 1 -0.6680000000000001,0.17300000000000001 a4.82031,4.82031 0 0 1 -0.6840000000000002,0.07500000000000001 A4.94777,4.94777 0 0 1 62.1062170019531,37.52400298828124 z" fill="#cacaca"/></g><g id="ed5e4939-ca06-4842-8bf9-38ff7399ab22" data-name="Group 2"><path id="ad4c3588-958a-44e3-8958-86383ba49959-474" data-name="Path 5" d="M376.9512070019531,187.44500298828126 l-235.86,4.448 a17.751,17.751 0 0 1 -7.746,-1.621 a19.823,19.823 0 0 1 -6.407,-4.729 a22.65406,22.65406 0 0 1 -4.361,-7.141 a24.918,24.918 0 0 1 0,-17.613 a22.67616,22.67616 0 0 1 4.361,-7.143 a19.845,19.845 0 0 1 6.407,-4.735 a17.7598,17.7598 0 0 1 7.746,-1.6260000000000001 l235.86,4.263 a9.7709,9.7709 0 0 1 4.959,1.5 a13.77868,13.77868 0 0 1 4.016,3.873 a19.69239,19.69239 0 0 1 2.6910000000000003,5.671 a24.66307,24.66307 0 0 1 0,13.792 a19.71128,19.71128 0 0 1 -2.6910000000000003,5.674 a13.80034,13.80034 0 0 1 -4.016,3.8850000000000002 A9.776,9.776 0 0 1 376.9512070019531,187.44500298828126 z" fill="#e4e4e4"/><path id="b33bc1e4-6ad7-49be-b233-6aeb4dd08a7d-475" data-name="Path 6" d="M233.27820700195315,190.15500298828124 l-92.187,1.738 a17.751,17.751 0 0 1 -7.746,-1.621 a19.823,19.823 0 0 1 -6.407,-4.729 a22.65406,22.65406 0 0 1 -4.361,-7.141 a24.61323,24.61323 0 0 1 -1.608,-8.806000000000001 a25.26544,25.26544 0 0 1 0.39300000000000007,-4.455 a24.16391,24.16391 0 0 1 1.153,-4.213 a23.08043,23.08043 0 0 1 1.872,-3.867 a22.15279,22.15279 0 0 1 2.548,-3.419 a20.65914,20.65914 0 0 1 3.084,-2.787 a18.9058,18.9058 0 0 1 3.45,-2.01 a17.8,17.8 0 0 1 7.622,-1.56 l92.187,1.6660000000000001 z" fill="#20b97c"/><path id="f48897ce-ac32-418c-8d3c-67ca4382e4e0-476" data-name="Path 7" d="M234.35520700195315,192.76200298828127 a3.8778900000000003,3.8778900000000003 0 0 1 -1.816,-0.41000000000000003 a4.6339500000000005,4.6339500000000005 0 0 1 -1.488,-1.194 a5.79206,5.79206 0 0 1 -1.007,-1.8 a6.70007,6.70007 0 0 1 -0.37000000000000005,-2.214 v-36.06 a6.69994,6.69994 0 0 1 0.37000000000000005,-2.216 a5.78989,5.78989 0 0 1 1.007,-1.8 a4.63291,4.63291 0 0 1 1.488,-1.19 a3.8778900000000003,3.8778900000000003 0 0 1 1.816,-0.41000000000000003 a3.974,3.974 0 0 1 1.81,0.48600000000000004 a4.87506,4.87506 0 0 1 1.475,1.247 a6.044,6.044 0 0 1 0.993,1.822 a6.81015,6.81015 0 0 1 0.36400000000000005,2.211 v35.76 a6.81211,6.81211 0 0 1 -0.36400000000000005,2.211 a6.046,6.046 0 0 1 -0.993,1.823 a4.87486,4.87486 0 0 1 -1.475,1.249 A3.974,3.974 0 0 1 234.35520700195315,192.76200298828127 z" fill="#3f3d56"/><path id="b8c06ef9-eeb4-4e99-947d-47e1efa9800c-477" data-name="Path 8" d="M62.18621700195314,188.35900298828125 a5.00725,5.00725 0 0 1 -1.3800000000000001,-0.17300000000000001 a5.13927,5.13927 0 0 1 -0.6720000000000002,-0.232 a5.3469,5.3469 0 0 1 -0.6490000000000001,-0.33000000000000007 a5.44372,5.44372 0 0 1 -1.138,-0.9 a5.5,5.5 0 0 1 -0.8530000000000001,-1.1600000000000001 a5.7266,5.7266 0 0 1 -0.535,-1.36 a6.08457,6.08457 0 0 1 -0.18500000000000003,-1.5 v-26.166 a6.08738,6.08738 0 0 1 0.18500000000000003,-1.5 a5.73138,5.73138 0 0 1 0.535,-1.358 a5.41716,5.41716 0 0 1 1.992,-2.059 a5.25608,5.25608 0 0 1 1.3210000000000002,-0.5670000000000001 a5.013,5.013 0 0 1 2.7560000000000002,0.03900000000000001 a5.386,5.386 0 0 1 1.311,0.5970000000000001 l20.9,13.074 l0.07500000000000001,0.04800000000000001 l0.07500000000000001,0.04900000000000001 l0.07400000000000001,0.05000000000000001 l0.07300000000000001,0.05100000000000001 a5.3790000000000004,5.3790000000000004 0 0 1 0.913,0.8360000000000001 a5.50612,5.50612 0 0 1 0.7000000000000001,1.017 a5.73671,5.73671 0 0 1 0.463,1.161 a6.03836,6.03836 0 0 1 0.21000000000000002,1.268 v0.36500000000000005 a6.1004,6.1004 0 0 1 -0.17600000000000002,1.465 a5.75431,5.75431 0 0 1 -0.51,1.332 a5.50022,5.50022 0 0 1 -0.8140000000000001,1.145 a5.37657,5.37657 0 0 1 -1.091,0.9 l-20.892,13.097 a5.4864,5.4864 0 0 1 -0.6440000000000001,0.3470000000000001 a5.25459,5.25459 0 0 1 -0.6680000000000001,0.251 a5.10067,5.10067 0 0 1 -0.6840000000000002,0.15500000000000003 A5.01481,5.01481 0 0 1 62.18621700195314,188.35900298828125 z" fill="#cacaca"/></g><path id="b462dce5-9b01-4b3d-8b91-2a1db41ed251-478" data-name="Path 9" d="M376.90521700195313,300.99901298828127 l-235.885,32.007 a16.668,16.668 0 0 1 -14.155,-4.7 a19.37108,19.37108 0 0 1 -4.362,-6.631 a23.12613,23.12613 0 0 1 -1.6070000000000002,-8.615 a26.439,26.439 0 0 1 5.97,-16.65 a23.489,23.489 0 0 1 6.407,-5.483 a19.36414,19.36414 0 0 1 7.747,-2.532 l235.885,-23.294 a9.03791,9.03791 0 0 1 4.959,0.916 a11.607,11.607 0 0 1 4.017,3.412 a17.1627,17.1627 0 0 1 2.692,5.357 a23.00048,23.00048 0 0 1 0.984,6.781 a25.38166,25.38166 0 0 1 -0.984,7.011 a22.5,22.5 0 0 1 -2.692,5.9879999999999995 a16.40006,16.40006 0 0 1 -4.017,4.354 A10.9,10.9 0 0 1 376.90521700195313,300.99901298828127 z" fill="#e4e4e4"/><path id="aa3c64d8-5563-4d05-b78c-2abe85ac0fb1-479" data-name="Path 10" d="M339.8152170019531,306.0310229882812 l-198.795,26.974 a16.668,16.668 0 0 1 -14.155,-4.7 a19.37,19.37 0 0 1 -4.362,-6.631 a23.126,23.126 0 0 1 -1.6070000000000002,-8.611 a26.04652,26.04652 0 0 1 0.39300000000000007,-4.5 a26.3319,26.3319 0 0 1 5.574,-12.157 a24.59917,24.59917 0 0 1 3.084,-3.143 a22.15236,22.15236 0 0 1 3.449,-2.417 a20.13139,20.13139 0 0 1 3.721,-1.6360000000000001 a18.72338,18.72338 0 0 1 3.9,-0.8150000000000001 l198.798,-19.632 z" fill="#20b97c"/><path id="b26b52bd-87f8-4a7b-abf9-07c8514958b4-480" data-name="Path 12" d="M62.10521700195312,338.69102298828125 a4.99964,4.99964 0 0 1 -0.6930000000000002,0.04300000000000001 a4.80626,4.80626 0 0 1 -0.6860000000000002,-0.05400000000000001 a4.69989,4.69989 0 0 1 -1.3210000000000002,-0.40700000000000003 a4.6,4.6 0 0 1 -1.992,-1.8290000000000002 a5.07494,5.07494 0 0 1 -0.535,-1.3 a5.83333,5.83333 0 0 1 -0.18500000000000003,-1.473 v-26.17 a6.3533,6.3533 0 0 1 0.18500000000000003,-1.522 a6.477,6.477 0 0 1 2.527,-3.716 a6.03437,6.03437 0 0 1 1.3210000000000002,-0.7170000000000001 a5.33236,5.33236 0 0 1 1.3800000000000001,-0.3350000000000001 a4.88788,4.88788 0 0 1 1.377,0.05200000000000001 a4.773,4.773 0 0 1 1.31,0.44300000000000006 l20.9,10.633000000000001 l0.07600000000000001,0.03900000000000001 l0.07500000000000001,0.04100000000000001 l0.07400000000000001,0.04200000000000001 l0.07300000000000001,0.04300000000000001 a4.52324,4.52324 0 0 1 0.8700000000000001,0.6860000000000002 a4.64617,4.64617 0 0 1 0.6780000000000002,0.8720000000000001 a5.01207,5.01207 0 0 1 0.46900000000000003,1.029 a5.57623,5.57623 0 0 1 0.24400000000000002,1.157 q0.008000000000000002,0.07800000000000001 0.014000000000000002,0.15600000000000003 t0.010000000000000002,0.15800000000000003 q0,0.07900000000000001 0.006000000000000002,0.15900000000000003 a1.08153,1.08153 0 0 1 0,0.16100000000000003 a6.36265,6.36265 0 0 1 -0.17600000000000002,1.486 a6.46713,6.46713 0 0 1 -1.3130000000000002,2.6340000000000003 a6.38738,6.38738 0 0 1 -1.1,1.031 l-20.9,15.533 a6.43013,6.43013 0 0 1 -0.6450000000000001,0.42200000000000004 a5.98123,5.98123 0 0 1 -0.6680000000000001,0.32900000000000007 a5.59432,5.59432 0 0 1 -0.6840000000000002,0.23500000000000001 A5.27057,5.27057 0 0 1 62.10521700195312,338.69102298828125 z" fill="#cacaca"/><path d="M338.38124700195317,279.2601729882812 a10.05578,10.05578 0 0 1 11.48425,10.28921 l33.3496,12.83679 l-15.10948,10.79525 L338.7526770019531,299.3363629882812 a10.11027,10.11027 0 0 1 -0.3714700000000001,-20.07619 z" fill="#ffb6b6" id="svg_21"/><path d="M465.0097370019531,272.95864298828127 l5.64194,10.25772 a29.45576,29.45576 0 0 1 -9.99855,16.60937 c-8.63806,7.28517 -53.804,34.418 -53.804,34.418 l-57.01976,-28.62531 l9.97484,-13.255 L404.5701770019531,307.36591298828125 l25.25384,-23.84726 z" fill="#3f3d56" id="svg_22"/><rect x="371.76275634765625" y="584.9890747070312" width="6" height="192" transform="rotate(-10.670920372009277 -385.4183349609375,14.556670188903771) " fill="#cacaca" id="svg_23"/><rect x="1708.3740234375" y="1885.029541015625" width="6" height="192" transform="rotate(-169.32908630371094 1003.9835815429686,1314.597045898437) " fill="#cacaca" id="svg_24"/><ellipse cx="454.518798828125" cy="428.1974182128906" rx="44.5" ry="14.5" fill="#cacaca" id="svg_25"/><polygon points="360.004 611.715 347.744 611.714 341.912 564.426 360.006 564.427 360.004 611.715" fill="#ffb6b6" id="svg_26"/><path d="M363.1302470019531,623.5986229882812 l-39.53076,-0.0014600000000000004 v-0.5 a15.3873,15.3873 0 0 1 15.38648,-15.38623 h0.0010000000000000002 l24.144,0.0010000000000000002 z" fill="#2f2e41" id="svg_27"/><polygon points="419.518 547.373 408.809 553.342 380.689 514.878 396.494 506.068 419.518 547.373" fill="#ffb6b6" id="svg_28"/><path d="M428.0351370019531,556.2302629882812 l-34.52864,19.24719 l-0.24346000000000004,-0.43672000000000005 a15.38729,15.38729 0 0 1 5.94731,-20.93106 l0.0008500000000000003,-0.0004800000000000002 l21.089,-11.75546 z" fill="#2f2e41" id="svg_29"/><path d="M489.1512770019531,392.74640298828126 s5.9442900000000005,18.41721 -30.52785,41.7086 L411.6512770019531,481.26081298828126 L362.8446170019531,598.0101829882813 L333.8688570019531,585.0197129882813 l44.55956,-118.94151 l26.0575,-45.6243 l0.7559100000000001,-24.7565 l6.40945,-17.451 l46.5,-16.5 z" fill="#2f2e41" id="svg_30"/><path d="M393.7804970019531,546.6075629882813 l-48.47974,-73.09131000000001 a17.36012,17.36012 0 0 1 2.325,-21.98047 l49.08642,-48.01562 l8.32276,-8.32276 h18.62426 l-8.73315,32.22119 l-30.29688,34.34278 l35.02417,61.978 z" fill="#2f2e41" id="svg_31"/><path d="M429.4106770019531,292.60342298828124 l14.60815,-20.906 l33.37879,-2.68536 s28.69539,27.03569 23.47455,62.635 s-10.22084,70.59934 -10.22084,70.59934 s-52,-37 -79,-24 z" fill="#3f3d56" id="svg_32"/><path d="M419.4934570019532,401.67057298828126 a10.05576,10.05576 0 0 1 13.38046,-7.66284 l22.67946,-27.6156 l5.492,17.739 L438.66655700195315,407.63581298828126 a10.11028,10.11028 0 0 1 -19.1731,-5.96522 z" fill="#ffb6b6" id="svg_33"/><path d="M448.04514700195307,399.8761129882813 l-9.98877,-14.42822 L466.4206770019531,347.62904298828124 l-14.61182,-31.311 l1.064,-37.24414 l12.07446,-2.23047 l0.14990000000000003,0.07519000000000002 a29.676000000000002,29.676000000000002 0 0 1 12.85938,14.97852 c3.0122,7.53027 9.73632,35.79883 13.47656,51.97851 a18.86066,18.86066 0 0 1 -5.07153,17.68409 z" fill="#3f3d56" id="svg_34"/><circle cx="484.04833984375" cy="1053.6790771484375" r="23.033710479736328" transform="rotate(-59.27098846435547 -244.82330322265634,674.3194580078126) " fill="#ffb6b6" id="svg_35"/><path d="M468.4355870019531,233.36010298828126 c-0.24354000000000003,3.34464 2.89346,15.67759 2.89346,15.67759 c2.299,-3.86749 -1.31247,8.985479999999999 -1.31247,8.985479999999999 c37.7304,-26.3005 7.91786,-52.72347 -3.744,-50.37464 c0.24347000000000002,-3.34466 -9.26765,-2.01966 -9.26765,-2.01966 c-3.624,-5.64368 -11.56663,1.8478 -11.56663,1.8478 l1.53267,-2.5783300000000002 c-6.16648,1.5684900000000002 -12.26129,20.62658 -12.26129,20.62658 C436.8009570019532,233.74687298828127 468.67912700195313,230.01545298828125 468.4355870019531,233.36010298828126 z" fill="#dadada" id="svg_36" class="" fill-opacity="1"/><path id="ac880d58-80e8-403c-adcc-ec282a435c95-481" data-name="Path 11" d="M338.9312070019531,308.53302298828123 a2.762,2.762 0 0 1 -1.491,-0.2 a3.3,3.3 0 0 1 -1.221,-0.9420000000000001 a4.70515,4.70515 0 0 1 -0.8300000000000001,-1.533 a6.3112,6.3112 0 0 1 -0.30000000000000004,-1.9729999999999999 v-32.663 a7.00018,7.00018 0 0 1 0.30000000000000004,-2.044 a6.23177,6.23177 0 0 1 0.8300000000000001,-1.726 a4.646,4.646 0 0 1 1.222,-1.227 a3.24287,3.24287 0 0 1 1.49,-0.549 a2.79988,2.79988 0 0 1 1.486,0.263 a3.4748900000000003,3.4748900000000003 0 0 1 1.212,0.988 a4.91571,4.91571 0 0 1 0.8160000000000001,1.5550000000000002 a6.40878,6.40878 0 0 1 0.30000000000000004,1.969 v32.416 a7.10007,7.10007 0 0 1 -0.30000000000000004,2.039 a6.4801,6.4801 0 0 1 -0.8160000000000001,1.746 a4.89979,4.89979 0 0 1 -1.212,1.27 A3.3681200000000002,3.3681200000000002 0 0 1 338.9312070019531,308.53302298828123 z" fill="#3f3d56"/></g></svg>