<svg xmlns="http://www.w3.org/2000/svg" xmlns:xlink="http://www.w3.org/1999/xlink" data-name="Layer 1" width="844.67538" height="595.26155" style=""><rect id="backgroundrect" width="100%" height="100%" x="0" y="0" fill="none" stroke="none"/><g class="currentLayer" style=""><title>Layer 1</title><circle cx="431.392822265625" cy="548" r="46" fill="#061469" id="svg_1"/><path d="M706.1994522607422,591.4156530810546 c25.7345,-7.72868 53.09381,-15.78786 73.50313,-34.161 c18.23763,-16.41813 30.55024,-41.48912 22.99475,-66.1115 c-7.54,-24.57187 -30.12421,-40.95629 -53.44165,-49.10532 c-13.225,-4.62188 -27.06087,-7.1860800000000005 -40.89147,-9.20037 c-15.03485,-2.18967 -30.13615,-3.98373 -45.23026,-5.71012 q-91.67724,-10.48563 -184.04386,-12.811 c-30.38456,-0.7652500000000001 -60.76358,-0.7468200000000002 -91.15243,-0.3057 c-27.13937,0.3940000000000001 -55.72215,0.38417000000000007 -80.899,-11.15051 c-19.57846,-8.96979 -37.348,-25.28881 -42.8033,-46.73352 c-6.29728,-24.75467 5.318,-49.96382 21.97993,-67.892 c8.78265,-9.45011 19.04731,-17.40385 29.63621,-24.71743 c11.487400000000001,-7.93416 23.37539,-15.30643 35.52084,-22.18813 a494.63414,494.63414 0 0 1 74.7667,-34.4685 c12.74555,-4.63445 25.68047,-8.63281 38.72759,-12.32143 c11.017,-3.11469 22.06832,-6.23382 32.71588,-10.47748 c20.58349,-8.20371 40.161,-22.09985 45.39464,-44.88142 c4.96024,-21.591450000000002 -3.40305,-45.03067 -18.065,-61.07057 c-16.96282,-18.557 -42.53949,-26.69181 -67.06007,-28.008 c-27.52842,-1.4776500000000001 -54.42246,5.412 -80.29678,14.15585 c-27.59673,9.326 -54.59854,20.04924 -82.77827,27.60322 a556.95783,556.95783 0 0 1 -85.19574,15.83655 c-14.08227,1.4995100000000001 -28.59019,3.19273 -42.75626,2.04475 c-11.87246,-0.96211 -23.684260000000002,-4.45375 -32.43408,-12.87964 c-7.50252,-7.22477 -11.97184,-17.154 -10.4353,-27.63238 c0.27909,-1.9031799999999999 3.17022,-1.09407 2.89284,0.79752 c-1.8704,12.75513 6.79991,24.50863 17.48415,30.5293 c12.34817,6.9583200000000005 27.37408,6.9678 41.1218,6.172 a537.82528,537.82528 0 0 0 88.51452,-12.79561 c28.59252,-6.53059 56.16382,-15.86633 83.70391,-25.83908 c26.15594,-9.47153 52.89665,-18.71579 80.84009,-20.76729 c24.24611,-1.78007 49.75165,1.75222 70.87426,14.42313 c18.56387,11.136 32.21482,29.70722 36.56451,51.01813 c4.25044,20.82462 -1.63632,41.785 -17.4,56.31714 c-16.32147,15.04633 -38.7007,21.47909 -59.55655,27.40368 c-26.45223,7.5143699999999995 -52.33726,16.29809 -77.39248,27.7031 a485.82354,485.82354 0 0 0 -72.8001,40.92805 c-22.24625,15.20228 -44.2007,34.33058 -51.236580000000004,61.45126 c-3.27739,12.63313 -2.67227,26.03212 2.8116000000000003,37.96461 c4.87605,10.60993 12.90656,19.53469 22.26169,26.41853 c22.32074,16.42443 50.45266,19.79665 77.41421,20.13212 c30.28143,0.37678000000000006 60.56382,-0.6451800000000001 90.85508,-0.14800000000000002 q92.5988,1.51977 184.81863,11.27265 q23.108,2.4459400000000002 46.15759,5.40711 c13.82158,1.776 27.68967,3.54058 41.27849,6.694640000000001 c24.16222,5.60822 47.67389,16.39167 62.69178,36.878 a61.31938,61.31938 0 0 1 11.94709,30.44593 c1.05134,11.52384 -1.7698500000000001,23.0693 -6.98016,33.32083 c-11.53233,22.69042 -33.13363,37.12286 -56.07337,46.60471 c-12.28683,5.0786 -25.03167,8.926 -37.7516,12.74609 c-1.8530000000000002,0.55651 -2.64487,-2.338 -0.79752,-2.89283 z" fill="#f2f2f2" id="svg_2"/><circle cx="125.89280700683594" cy="69.5" r="24" fill="#abe3ff" id="svg_3" class="" fill-opacity="1"/><circle cx="292.392822265625" cy="115" r="24" fill="#f2f2f2" id="svg_4"/><circle cx="433.392822265625" cy="24" r="24" fill="#abe3ff" id="svg_5" class="" fill-opacity="1"/><circle cx="521.392822265625" cy="126" r="24" fill="#f2f2f2" id="svg_6"/><circle cx="402.392822265625" cy="244" r="24" fill="#f2f2f2" id="svg_7"/><circle cx="251.39280700683594" cy="301" r="24" fill="#f2f2f2" id="svg_8" class=""/><circle cx="251.39280700683594" cy="301" r="24" fill="#abe3ff" class="" id="svg_46" fill-opacity="1"/><circle cx="411.392822265625" cy="390" r="24" fill="#f2f2f2" id="svg_9"/><circle cx="583.392822265625" cy="440" r="24" fill="#f2f2f2" id="svg_10"/><circle cx="784.392822265625" cy="429" r="24" fill="#abe3ff" id="svg_11" class="" fill-opacity="1"/><path d="M426.46532226074214,68.00342308105468 c-71.89185,0.50782 -130.75611,58.92987 -131.77735,130.81635 c-0.009460000000000001,0.6636900000000002 -0.013810000000000003,5.33048 -0.013240000000000004,11.43422 a33.74778,33.74778 0 0 0 33.74387,33.746 h0.00007000000000000003 a33.76855,33.76855 0 0 0 33.76114,-33.79775 c-0.003430000000000001,-4.15211 -0.005510000000000001,-7.02584 -0.005510000000000001,-7.20227 a64.00037,64.00037 0 1 1 98.52027,53.8794 l0.011710000000000003,0.014220000000000002 s-48.02832,30.91956 -62.67089,73.33545 l0.012450000000000001,0.003000000000000001 a94.00389,94.00389 0 0 0 -3.87354,26.76794 c0,3.72538 0.21916000000000002,36.32138 0.6426100000000001,62.77767 a34.78649,34.78649 0 0 0 34.79009,34.22233 h0.00007000000000000003 a34.79588,34.79588 0 0 0 34.79384,-35.01061 c-0.14706000000000002,-24.22912 -0.22661000000000003,-52.44168 -0.22661000000000003,-54.48939 c0,-26.04473 25.12525,-51.99475 45.76367,-68.91741 c23.76587,-19.48694 40.86792,-46.04291 47.73706,-75.99909 a86.7618,86.7618 0 0 0 2.49927,-18.8335 A132.75,132.75 0 0 0 426.46532226074214,68.00342308105468 z" fill="#061469" id="svg_12"/><circle cx="628.4488525390625" cy="242.9958953857422" r="30" fill="#2f2e41" id="svg_14"/><polygon points="573.012 582.129 560.753 582.129 554.92 534.841 573.015 534.841 573.012 582.129" fill="#a0616a" id="svg_15"/><path d="M551.99554,578.62562h23.64387a0,0,0,0,1,0,0v14.88687a0,0,0,0,1,0,0H537.10868a0,0,0,0,1,0,0v0A14.88686,14.88686,0,0,1,551.99554,578.62562Z" fill="#2f2e41" id="svg_16"/><polygon points="668.012 582.129 655.753 582.129 649.92 534.841 668.015 534.841 668.012 582.129" fill="#a0616a" id="svg_17"/><path d="M646.99554,578.62562h23.64387a0,0,0,0,1,0,0v14.88687a0,0,0,0,1,0,0H632.10868a0,0,0,0,1,0,0v0A14.88686,14.88686,0,0,1,646.99554,578.62562Z" fill="#2f2e41" id="svg_18"/><circle cx="623.8897705078125" cy="248.61007690429688" r="24.5610294342041" fill="#a0616a" id="svg_19"/><path d="M638.5289222607422,352.4058830810547 l10.98975,-25.25 a31.38253,31.38253 0 0 0 -6.94971,-35.6 a31.87322,31.87322 0 0 0 -3.07031,-2.67 a30.93522,30.93522 0 0 0 -18.98975,-6.57 a32.179,32.179 0 0 0 -13.3999,2.98 c-0.36035000000000006,0.16000000000000003 -0.7100000000000001,0.33000000000000007 -1.07031,0.5 c-0.6899400000000002,0.33000000000000007 -1.36963,0.6900000000000002 -2.02979,1.06 a31.67823,31.67823 0 0 0 -15.70019,23.88 l-4.8501,40.64 c-1.21973,3.19 -44.73975,118.39 -29.51953,206.34 a4.46692,4.46692 0 0 0 3.81982,3.67 l15.43018,2.1 a4.49661,4.49661 0 0 0 5.00976,-3.5300000000000002 l25.89014,-123.41 a3.50323,3.50323 0 0 1 6.79981,-0.23 l36.58007,129.78 a4.47129,4.47129 0 0 0 4.31006,3.2800000000000002 a5.12184,5.12184 0 0 0 0.8701200000000001,-0.08000000000000002 l18.84961,-3.63 a4.471,4.471 0 0 0 3.63037,-4.8100000000000005 C672.3590022607422,529.9658830810547 657.6387922607422,375.23590308105474 638.5289222607422,352.4058830810547 z" fill="#2f2e41" id="svg_20"/><path d="M528.4393522607422,269.04987308105467 A10.05576,10.05576 0 0 0 539.0336922607422,280.2532830810547 l13.72894,32.99236 l10.385,-15.3943 l-14.62937,-28.97 a10.11027,10.11027 0 0 0 -20.07892,0.16852000000000003 z" fill="#a0616a" id="svg_21"/><path d="M622.5279422607422,385.6263130810547 a10.05577,10.05577 0 0 0 8.42651,-12.91316 l28.88533,-21.03846 l-17.39036,-6.51224 l-24.76387,20.97687 a10.11028,10.11028 0 0 0 4.84239,19.487 z" fill="#a0616a" id="svg_22"/><path d="M575.4395722607422,335.24102308105466 a17.05692,17.05692 0 0 1 -3.29834,-0.32519000000000003 a16.30539,16.30539 0 0 1 -11.94751,-9.61621 l-19.23438,-23.45313 a4.50075,4.50075 0 0 1 1.11109,-6.6806600000000005 l13.68432,-8.4707 a4.50007,4.50007 0 0 1 6.21533,1.49023 l13.5564,22.334 L601.4879122607422,291.3327830810547 A9.72146,9.72146 0 0 1 612.7976922607422,306.89434308105467 l-25.91186,23.63672 A16.25271,16.25271 0 0 1 575.4395722607422,335.24102308105466 z" fill="#2f2e41" id="svg_23"/><path d="M645.5896922607421,370.5134830810547 c-0.03515000000000001,0 -0.07055,0 -0.10571000000000001,-0.0010000000000000002 a4.50783,4.50783 0 0 1 -3.31079,-1.57031 l-12.16626,-14.19336 a4.49979,4.49979 0 0 1 0.92041,-6.67286 l22.78149,-15.1875 l-20.63842,-24.8125 a9.721,9.721 0 0 1 14.8872,-12.18261 l25.0835,24.51269 a16.52481,16.52481 0 0 1 -3.6752900000000004,26.94043 l-20.50122,21.75391 A4.50742,4.50742 0 0 1 645.5896922607421,370.5134830810547 z" fill="#2f2e41" id="svg_24"/><path d="M617.6447622607421,318.21436308105467 a4.6321200000000005,4.6321200000000005 0 0 1 -0.5840000000000001,-0.03711000000000001 a4.46111,4.46111 0 0 1 -3.71045,-3.06885 l-9.14234,-28.02929 a3.08255,3.08255 0 0 1 1.594,-3.72461 l0.29663,-0.14014000000000001 c0.269,-0.12793000000000002 0.5354,-0.25439 0.80737,-0.37549000000000005 a32.57412,32.57412 0 0 1 13.603,-3.023 a31.327,31.327 0 0 1 17.16138,5.15674 a3.13007,3.13007 0 0 1 0.9013599999999999,4.29443 L621.4216222607422,316.1347830810547 A4.45513,4.45513 0 0 1 617.6447622607421,318.21436308105467 z" fill="#e6e6e6" id="svg_25"/><circle cx="652.10107421875" cy="219.78616333007812" r="9.816679954528809" fill="#2f2e41" id="svg_26"/><path d="M618.4488422607421,208.9959130810547 h0 a26,26 0 0 0 -26,25.99994 v11.00006 h13.5293 l6.4707,-11 l1.9414099999999999,11 h41.05859 l-11,-11.00006 A26,26 0 0 0 618.4488422607421,208.9959130810547 z" fill="#2f2e41" id="svg_27"/><path d="M657.1465222607421,213.0619930810547 a15.15,15.15 0 0 1 16.48081,-10.39558 c6.256,1.04586 11.20228,6.07455 14.14944,11.69107 s4.30806,11.902519999999999 6.28935,17.92793 s4.79124,12.08362 9.79306,15.984 s12.67721,4.9584 17.58966,0.9460700000000001 a20.11809,20.11809 0 0 1 -37.47706,7.18124 c-2.59206,-4.61172 -3.26121,-10.01684 -4.02988,-15.251 s-1.7674,-10.6498 -4.86211,-14.94043 s-8.88772,-7.09293 -13.80374,-5.13859 z" fill="#2f2e41" id="svg_28"/><path d="M337.9465222607422,228.0383330810547 h0 a33.748,33.748 0 0 1 -33.74414,-33.746 c-0.0004900000000000002,-6.10376 0.003900000000000001,-10.77051 0.013180000000000002,-11.4342 a131.50724,131.50724 0 0 1 15.35889,-59.90875 a131.80321,131.80321 0 0 0 -25.35889,75.90875 c-0.009280000000000004,0.6636900000000002 -0.013670000000000003,5.33044 -0.013180000000000002,11.4342 a33.748,33.748 0 0 0 33.74414,33.746 h0 A33.77281,33.77281 0 0 0 360.4343122607422,219.4477830810547 A33.62247,33.62247 0 0 1 337.9465222607422,228.0383330810547 z" fill="#3f3d56" id="svg_29"/><path d="M428.75269226074215,139.10926308105468 a64.00385,64.00385 0 0 1 55.65918,89.413 a63.9972,63.9972 0 1 0 -107.42578,-66.98523 A63.87073,63.87073 0 0 1 428.75269226074215,139.10926308105468 z" fill="#3f3d56" id="svg_30"/><path d="M439.1345122607422,438.0383330810547 h0 a34.78682,34.78682 0 0 1 -34.79,-34.22235 c-0.42334000000000005,-26.45629 -0.64258,-59.0523 -0.64258,-62.77765 a94.00389,94.00389 0 0 1 3.87354,-26.76794 l-0.012210000000000002,-0.003000000000000001 a95.069,95.069 0 0 1 5.49414,-12.70087 a110.04745,110.04745 0 0 0 -15.49414,28.700870000000002 l0.012210000000000002,0.003000000000000001 a94.00389,94.00389 0 0 0 -3.87354,26.76794 c0,3.72535 0.21924000000000005,36.32136 0.64258,62.77765 a34.78682,34.78682 0 0 0 34.79,34.22235 h0 a34.80287,34.80287 0 0 0 33.40185,-25.04846 A34.66005,34.66005 0 0 1 439.1345122607422,438.0383330810547 z" fill="#3f3d56" id="svg_31"/><polygon points="126.541 582.585 138.8 582.584 144.633 535.296 126.538 535.297 126.541 582.585" fill="#ffb8b8" id="svg_32"/><path d="M765.6300771484375,2056.8549468749998 H804.1607771484375 a0,0 0 0 1 0,0 v14.88687 a0,0 0 0 1 0,0 H780.5169071484374 A14.88686,14.88686 0 0 1 765.6300771484375,2056.854956875 v0 A0,0 0 0 1 765.6300771484375,2056.8549468749998 z" transform="rotate(179.99737548828125 464.0540771484375,1325.4042968749998) " fill="#2f2e41" id="svg_33"/><polygon points="82.541 582.585 94.8 582.584 100.633 535.296 82.538 535.297 82.541 582.585" fill="#ffb8b8" id="svg_34"/><path d="M633.6300771484375,2056.8568999999998 H672.1607771484375 a0,0 0 0 1 0,0 v14.88687 a0,0 0 0 1 0,0 H648.5169071484374 A14.88686,14.88686 0 0 1 633.6300771484375,2056.85691 v0 A0,0 0 0 1 633.6300771484375,2056.8568999999998 z" transform="rotate(179.99737548828125 376.0540771484375,1325.4062500000002) " fill="#2f2e41" id="svg_35"/><path d="M93.25428226074217,568.0414630810546 l-11.975,-0.6298800000000001 a4.6735,4.6735 0 0 1 -4.41851,-4.9670000000000005 l14.31268,-158.46594 l65.911,17.78562 l6.35023,-1.73241 L143.57637226074218,560.3166130810547 a4.69622,4.69622 0 0 1 -4.35816,3.94458 l-12.9089,0.6014700000000001 a4.67413,4.67413 0 0 1 -4.93149,-4.79557 l2.339,-84.19641 a1.55813,1.55813 0 0 0 -3.0832,-0.36007000000000006 L98.07669226074216,564.3230630810547 a4.6456800000000005,4.6456800000000005 0 0 1 -4.56913,3.7255000000000003 C93.4236922607422,568.0485630810547 93.33923226074216,568.0465330810547 93.25428226074217,568.0414630810546 z" fill="#2f2e41" id="svg_36"/><circle cx="128.7420196533203" cy="249.7587890625" r="24.5610294342041" fill="#ffb8b8" id="svg_37"/><path d="M87.8496222607422,321.91771308105467 l2.70056,58.26748 l0.97625,21.19852 a4.64221,4.64221 0 0 0 3.07432,4.17534 l63.336,22.94342 a4.47742,4.47742 0 0 0 1.5995400000000002,0.28045000000000003 a4.64358,4.64358 0 0 0 4.66371,-4.7881 L161.60339226074217,319.2276830810547 A36.93044,36.93044 0 0 0 130.85969226074218,283.5505230810547 c-0.6126300000000001,-0.09345000000000002 -1.2359200000000001,-0.18695000000000003 -1.8592,-0.27006 a36.24947,36.24947 0 0 0 -29.165,9.44122 a37.23612,37.23612 0 0 0 -11.9859,29.196 z" fill="#abe3ff" id="svg_38" class="" fill-opacity="1"/><path d="M188.19221226074217,416.87590308105473 a10.06355,10.06355 0 0 1 -5.36877,-15.22659 l-21.478,-28.56 l18.53424,-1.14707 l17.55439,27.29693 a10.111,10.111 0 0 1 -9.24184,17.63673 z" fill="#ffb8b8" id="svg_39"/><path d="M173.09101226074216,396.4810030810547 a4.64437,4.64437 0 0 1 -2.54106,-2.51848 L138.19169226074217,316.86818308105467 a12.4634,12.4634 0 1 1 22.98438,-9.64693 l32.3582,77.09534 a4.679,4.679 0 0 1 -2.50048,6.11822 l-14.36542,6.029 a4.64165,4.64165 0 0 1 -3.57741,0.017240000000000002 z" fill="#abe3ff" id="svg_40" class="" fill-opacity="1"/><path d="M120.8454522607422,393.7616430810547 L151.92469226074218,334.2528330810547 a4.87826,4.87826 0 0 1 6.57494,-2.06344 l45.11152,23.5601 a4.87826,4.87826 0 0 1 2.06343,6.57494 l-31.07927,59.50881 a4.8782700000000006,4.8782700000000006 0 0 1 -6.57494,2.06344 L122.90889226074216,400.33658308105464 A4.87826,4.87826 0 0 1 120.8454522607422,393.7616430810547 z" fill="#3f3d56" id="svg_41"/><path d="M141.68831226074218,366.57356308105466 a10.06358,10.06358 0 0 0 -15.517,-4.46026 l-29.77845,-19.75406 l-0.050610000000000016,18.56963 L124.62809226074216,376.8407830810547 a10.111,10.111 0 0 0 17.06022,-10.26718 z" fill="#ffb8b8" id="svg_42"/><path d="M104.0382922607422,370.7496130810547 l-24.33677,-19.27776 a17.16326,17.16326 0 0 1 -7.82343,-27.13518 l22.09715,-28.95951 a10.096,10.096 0 0 1 17.1296,10.28435 l-17.48384,28.6 l25.694,12.18686 a4.67363,4.67363 0 0 1 1.94814,6.71958 l-10.37175,16.41406 a4.682,4.682 0 0 1 -3.16671,2.1111 c-0.025650000000000006,0.004480000000000001 -0.05149000000000001,0.00846 -0.07730000000000001,0.012300000000000002 A4.69555,4.69555 0 0 1 104.0382922607422,370.7496130810547 z" fill="#abe3ff" id="svg_43" class="" fill-opacity="1"/><path d="M110.18306226074219,266.2052530810547 a2.13479,2.13479 0 0 1 1.85636,-2.81905 a4.93046,4.93046 0 0 1 3.4761,1.71495 a13.8334,13.8334 0 0 0 3.07115,2.63711 c1.18812,0.5988900000000001 2.79953,0.51354 3.47685,-0.6282400000000001 c0.6360500000000001,-1.07221 0.20023000000000002,-2.508 -0.18482,-3.75347 a36.90711,36.90711 0 0 1 -1.6299100000000002,-9.77 c-0.11092000000000002,-3.70032 0.41115,-7.562 2.45972,-10.44807 c2.64387,-3.7247500000000002 7.3714200000000005,-5.1388300000000005 11.84544,-5.0363 s8.87547,1.4836200000000002 13.30713,2.35665 c1.5299200000000002,0.30139000000000005 3.32826,0.4555 4.35153,-0.7302500000000001 c1.08805,-1.26082 0.6884400000000002,-3.3014 0.22563000000000002,-5.00376 c-1.2009400000000001,-4.41743 -2.475,-8.98461 -5.26525,-12.55224 a18.89839,18.89839 0 0 0 -12.06081,-6.79014 a28.93848,28.93848 0 0 0 -13.46236,1.5283799999999998 a36.09628,36.09628 0 0 0 -17.682850000000002,12.3186 a29.23592,29.23592 0 0 0 -5.57809,21.60019 a26.66712,26.66712 0 0 0 9.88579,16.85462 z" fill="#b6b6b6" id="svg_44" class="" fill-opacity="1"/><path d="M421.2581222607422,582.7800030810547 a45.99375,45.99375 0 0 1 -17.07033,-71.4888 a45.99715,45.99715 0 1 0 62.56892,66.464 A45.96919,45.96919 0 0 1 421.2581222607422,582.7800030810547 z" fill="#3f3d56" id="svg_45"/></g></svg>