<svg xmlns="http://www.w3.org/2000/svg" xmlns:xlink="http://www.w3.org/1999/xlink" data-name="Layer 1" width="913.2141" height="482.65195"><rect id="backgroundrect" width="100%" height="100%" x="0" y="0" fill="none" stroke="none"/><g class="currentLayer" style=""><title>Layer 1</title><path d="M798.6394956640625,422.8893735107422 a554.59191,554.59191 0 0 1 -71.26188,-5.22833 c-0.8293900000000001,-0.11450000000000002 -1.6587200000000002,-0.23925000000000002 -2.488,-0.35424 l1.24755,-223.2763 c0.8236800000000001,-0.65556 1.65726,-1.30082 2.5007900000000003,-1.9260000000000002 c2.7916600000000003,-2.08453 5.66267,-4.03825 8.6327,-5.83174 c14.30839,-8.62038 31.06069,-12.56688 42.61879,-8.6121 l0.1796,0.07083 a20.28144,20.28144 0 0 1 6.878,3.9584099999999998 c10.14979,9.01681 8.45787,27.24788 0.26533,43.79221 c16.24314,-14.83916 36.73947,-26.655 55.03481,-27.55279 c17.84517,-0.8802900000000001 30.59322,8.45085 41.42685,18.5716 c0.35814,0.3320800000000001 0.7063200000000001,0.6641100000000001 1.05445,0.99614 c0.17909000000000003,0.16116000000000003 0.34819000000000006,0.3320000000000001 0.52728,0.4927 c8.256,7.89635 16.39469,17.10212 15.41019,30.42691 c-1.08167,14.61381 -13.32235,30.81618 -27.58606,42.1766 c-14.2537,11.36048 -30.4461,18.90977 -46.24911,26.56183 c-15.79306,7.66188 -31.98965,15.95139 -45.488550000000004,28.24628 c21.06334,-16.65259 45.02875,-30.079 68.33686,-35.03865 s45.694,-0.5947900000000002 56.67128,14.24656 a34.71258,34.71258 0 0 1 6.13511,15.20493 c0.10641,0.6402500000000001 0.19280000000000003,1.29064 0.26913,1.95124 c1.56321,13.73893 -3.18849,30.14281 -14.54662,44.09958 c-12.50612,15.37031 -31.04593,26.02665 -48.645830000000004,31.32879 C831.9622256640625,422.49547351074216 815.0188056640625,423.0604835107422 798.6394956640625,422.8893735107422 z" fill="#a5e5c5" id="svg_1" class="" fill-opacity="1"/><path d="M725.6746056640625,276.8089735107422 l0.023850000000000007,-4.2694600000000005 q1.27134,-2.03346 2.51286,-4.08612 c0.53471,-0.84713 1.04952,-1.7041300000000001 1.57434,-2.56156 q12.97391,-21.24278 24.88928,-42.75125 q11.92524,-21.48888 22.751640000000002,-43.19386 a1.78938,1.78938 0 0 1 2.04582,-1.02863 a0.51586,0.51586 0 0 1 0.14957,0.07115 c0.3788800000000001,0.20183 0.5364,0.6529100000000001 0.21271000000000004,1.31127 c-0.8899400000000002,1.7748400000000002 -1.77993,3.55994 -2.68988,5.33466 q-11.01171,21.76427 -23.12254,43.3417 q-12.10564,21.56257 -25.28,42.87944 c-0.18166000000000002,0.29879 -0.37334000000000006,0.5980000000000001 -0.555,0.8968200000000002 C727.3496956640626,274.1083535107422 726.5121456640625,275.4537935107422 725.6746056640625,276.8089735107422 z" fill="#fff" id="svg_2"/><path d="M725.3670556640625,331.8584335107422 l0.014750000000000003,-2.6401000000000003 c0.8333,-0.59545 1.6666000000000003,-1.18065 2.5,-1.7761 q29.42769,-20.98532 58.85537,-41.96184 q48.17767,-34.35147 96.35524,-68.68242 a1.70023,1.70023 0 0 1 0.5816800000000001,-0.29700000000000004 c0.71113,-0.19574000000000005 1.1282,0.3266200000000001 1.05445,0.99614 a2.00556,2.00556 0 0 1 -0.8878100000000001,1.395 q-27.018,19.25925 -54.016,38.50885 q-47.93672,34.17264 -95.86329,68.33556 c-2.02815,1.44865 -4.06624,2.89725 -6.09439,4.3459 C727.0336056640625,330.6777835107422 726.2002556640625,331.2732335107422 725.3670556640625,331.8584335107422 z" fill="#fff" id="svg_3"/><path d="M740.6985956640625,390.67497351074223 c-4.44933,-0.13473000000000002 -8.82776,-0.42921000000000004 -13.16564,-0.81381 q-1.24443,-0.11169000000000003 -2.48878,-0.22387 l0.015480000000000002,-2.77 c0.8294900000000001,0.08472000000000003 1.6590500000000001,0.16943000000000005 2.48866,0.24389000000000002 c6.26685,0.5853200000000001 12.60459,1.00062 19.11439,1.057 a266.65608,266.65608 0 0 0 53.75014,-5.24957 a334.66588,334.66588 0 0 0 55.84172,-16.25855 a383.49442,383.49442 0 0 0 55.24953,-26.60138 a1.47563,1.47563 0 0 1 0.9813599999999999,-0.24452000000000002 c0.78941,0.11427000000000002 1.02353,1.1654 0.26913,1.95124 a2.29324,2.29324 0 0 1 -0.50223,0.39710000000000006 q-3.29575,1.91667 -6.61115,3.76341 A383.22557,383.22557 0 0 1 850.1980556640625,371.38660351074213 a333.08038,333.08038 0 0 1 -55.92559,15.15749 A263.0737,263.0737 0 0 1 740.6985956640625,390.67497351074223 z" fill="#fff" id="svg_4"/><path d="M718.7035456640625,-0.000026489257805906163 h-607 a8.72767,8.72767 0 0 0 -8.71973,8.72 V420.03997351074224 a8.72767,8.72767 0 0 0 8.71973,8.72 h607 a8.71246,8.71246 0 0 0 6.63037,-3.06 a2.04577,2.04577 0 0 0 0.18994000000000005,-0.24000000000000002 a8.1667,8.1667 0 0 0 1.25,-2.11005 a8.507,8.507 0 0 0 0.6596700000000002,-3.31 V8.720033510742184 A8.72954,8.72954 0 0 0 718.7035456640625,-0.000026489257805906163 zm6.24023,420.04 a6.17537,6.17537 0 0 1 -1.03027,3.42 a6.446,6.446 0 0 1 -2.35987,2.12 a6.18426,6.18426 0 0 1 -2.8500900000000002,0.6900000000000002 h-607 a6.23757,6.23757 0 0 1 -6.23,-6.23 V8.720033510742184 a6.23757,6.23757 0 0 1 6.23,-6.23005 h607 a6.23944,6.23944 0 0 1 6.24023,6.23005 z" fill="#3f3d56" id="svg_5"/><rect x="104.22644805908203" y="34.94921112060547" width="621.956787109375" height="2.492810010910034" fill="#3f3d56" id="svg_6"/><circle cx="125.41535949707031" cy="18.69610023498535" r="7.478439807891846" fill="#3f3d56" id="svg_7"/><circle cx="146.91586303710938" cy="18.69610023498535" r="7.478439807891846" fill="#3f3d56" id="svg_8"/><circle cx="168.4163818359375" cy="18.69610023498535" r="7.478439807891846" fill="#3f3d56" id="svg_9"/><path d="M571.3031556640625,92.65197351074221 h-312 a13,13 0 0 1 0,-26 h312 a13,13 0 0 1 0,26 zm-312,-24 a11,11 0 0 0 0,22 h312 a11,11 0 0 0 0,-22 z" fill="#3f3d56" id="svg_10"/><path d="M261.9095156640625,172.1519735107422 h-28 a8,8 0 0 1 0,-16 h28 a8,8 0 0 1 0,16 z" fill="#ccc" id="svg_11"/><path d="M294.9095156640625,199.1519735107422 h-61 a8,8 0 0 1 0,-16 h61 a8,8 0 0 1 0,16 z" fill="#ccc" id="svg_12"/><path d="M266.9095156640625,290.1519735107422 h-28 a8,8 0 0 1 0,-16 h28 a8,8 0 0 1 0,16 z" fill="#ccc" id="svg_13"/><path d="M299.9095156640625,317.1519735107422 h-61 a8,8 0 0 1 0,-16 h61 a8,8 0 1 1 0,16 z" fill="#ccc" id="svg_14"/><path d="M450.9095156640625,287.1519735107422 h-28 a8,8 0 0 1 0,-16 h28 a8,8 0 0 1 0,16 z" fill="#ccc" id="svg_15"/><path d="M483.9095156640625,314.1519735107422 h-61 a8,8 0 1 1 0,-16 h61 a8,8 0 1 1 0,16 z" fill="#ccc" id="svg_16"/><path d="M447.9095156640625,177.1519735107422 h-28 a8,8 0 0 1 0,-16 h28 a8,8 0 0 1 0,16 z" fill="#ccc" id="svg_17"/><path d="M480.9095156640625,204.1519735107422 h-61 a8,8 0 0 1 0,-16 h61 a8,8 0 0 1 0,16 z" fill="#ccc" id="svg_18"/><path d="M634.9095156640625,171.1519735107422 h-28 a8,8 0 0 1 0,-16 h28 a8,8 0 0 1 0,16 z" fill="#ccc" id="svg_19"/><path d="M667.9095156640625,198.1519735107422 h-61 a8,8 0 0 1 0,-16 h61 a8,8 0 0 1 0,16 z" fill="#ccc" id="svg_20"/><circle cx="184.5078125" cy="177.65194702148438" r="30" fill="#20b97c" id="svg_21"/><path d="M198.50793566406247,191.15214351074218 h-28 a3.00328,3.00328 0 0 1 -3,-3 v-21 a3.00328,3.00328 0 0 1 3,-3 h7.88232 a2.98116,2.98116 0 0 1 2.55518,1.42725 l2.19824,3.57275 h15.36426 a3.00328,3.00328 0 0 1 3,3 v16 A3.00328,3.00328 0 0 1 198.50793566406247,191.15214351074218 zm-28,-25 a1.0013,1.0013 0 0 0 -1,1 v21 a1.0013,1.0013 0 0 0 1,1 h28 a1.0013,1.0013 0 0 0 1,-1 v-16 a1.0013,1.0013 0 0 0 -1,-1 H182.02648566406248 l-2.78418,-4.52441 a0.9941099999999999,0.9941099999999999 0 0 0 -0.8520000000000001,-0.47559 z" fill="#fff" id="svg_22"/><circle cx="368.5078125" cy="182.65194702148438" r="30" fill="#20b97c" id="svg_23"/><path d="M381.50793566406253,201.65214351074218 h-26 a3.00328,3.00328 0 0 1 -3,-3 v-32 a3.00328,3.00328 0 0 1 3,-3 h18.83935 a3.00735,3.00735 0 0 1 1.8794,0.6616200000000002 l7.16016,5.75391 a2.9844,2.9844 0 0 1 1.12109,2.33838 v26.24609 A3.00328,3.00328 0 0 1 381.50793566406253,201.65214351074218 zm-26,-36 a1.0013,1.0013 0 0 0 -1,1 v32 a1.0013,1.0013 0 0 0 1,1 h26 a1.0013,1.0013 0 0 0 1,-1 V172.4060535107422 a0.99457,0.99457 0 0 0 -0.37354000000000004,-0.7793 l-7.16113,-5.75439 a1.00207,1.00207 0 0 0 -0.6260000000000001,-0.22022000000000003 z" fill="#fff" id="svg_24"/><path d="M376.50793566406253,177.65214351074218 h-16 a1,1 0 0 1 0,-2 h16 a1,1 0 0 1 0,2 z" fill="#fff" id="svg_25"/><path d="M376.50793566406253,183.65214351074218 h-16 a1,1 0 0 1 0,-2 h16 a1,1 0 0 1 0,2 z" fill="#fff" id="svg_26"/><path d="M376.50793566406253,189.65214351074218 h-16 a1,1 0 0 1 0,-2 h16 a1,1 0 0 1 0,2 z" fill="#fff" id="svg_27"/><circle cx="553.5078125" cy="176.65194702148438" r="30" fill="#20b97c" id="svg_28"/><path d="M567.5074456640625,187.65214351074218 h-28 a3.00328,3.00328 0 0 1 -3,-3 v-16 a3.00328,3.00328 0 0 1 3,-3 h28 a3.00328,3.00328 0 0 1 3,3 v16 A3.00328,3.00328 0 0 1 567.5074456640625,187.65214351074218 zm-28,-20 a1.001,1.001 0 0 0 -1,1 v16 a1.001,1.001 0 0 0 1,1 h28 a1.001,1.001 0 0 0 1,-1 v-16 a1.001,1.001 0 0 0 -1,-1 z" fill="#fff" id="svg_29"/><path d="M553.5074456640625,179.2903335107422 a3.00347,3.00347 0 0 1 -1.5898400000000001,-0.45264 l-14.94043,-9.3374 a1.00027,1.00027 0 0 1 1.06054,-1.6962900000000003 l14.94043,9.3374 a1.00557,1.00557 0 0 0 1.05957,0 l14.93946,-9.3374 a1.00027,1.00027 0 0 1 1.06054,1.6962900000000003 l-14.93945,9.3374 A3.00432,3.00432 0 0 1 553.5074456640625,179.2903335107422 z" fill="#fff" id="svg_30"/><circle cx="184.5078125" cy="295.6519470214844" r="30" fill="#20b97c" id="svg_31"/><path d="M198.50793566406247,306.65214351074223 h-28 a3.00328,3.00328 0 0 1 -3,-3 v-16 a3.00328,3.00328 0 0 1 3,-3 h28 a3.00328,3.00328 0 0 1 3,3 v16 A3.00328,3.00328 0 0 1 198.50793566406247,306.65214351074223 zm-28,-20 a1.001,1.001 0 0 0 -1,1 v16 a1.001,1.001 0 0 0 1,1 h28 a1.001,1.001 0 0 0 1,-1 v-16 a1.001,1.001 0 0 0 -1,-1 z" fill="#fff" id="svg_32"/><path d="M194.06994566406252,306.65214351074223 h-20.124 a1.99958,1.99958 0 0 1 -1.7319400000000003,-3 l6.06153,-10.5 a2.00022,2.00022 0 0 1 3.46435,0 l3.915,6.78125 l2.26807,-3.92871 a2.00022,2.00022 0 0 1 3.46435,0 l4.415,7.64746 a2,2 0 0 1 -1.73242,3 zm0,-2 h0 l-4.415,-7.64746 l-3.13379,5.42871 a0.99985,0.99985 0 0 1 -0.86621,0.5 h0 a0.99985,0.99985 0 0 1 -0.86621,-0.5 l-4.78076,-8.28125 l-6.062,10.5 z" fill="#fff" id="svg_33"/><circle cx="195.5078125" cy="290.6519470214844" r="2" fill="#fff" id="svg_34"/><circle cx="370.5078125" cy="292.6519470214844" r="30" fill="#20b97c" id="svg_35"/><path d="M370.50793566406253,293.1521435107422 a9,9 0 1 1 9,-9 A9.01016,9.01016 0 0 1 370.50793566406253,293.1521435107422 zm0,-16 a7,7 0 1 0 7,7 A7.00818,7.00818 0 0 0 370.50793566406253,277.1521435107422 z" fill="#fff" id="svg_36"/><path d="M378.50793566406253,310.15214351074223 h-16 a3.5042400000000002,3.5042400000000002 0 0 1 -3.5,-3.5 a11.5,11.5 0 1 1 23,0 A3.5042400000000002,3.5042400000000002 0 0 1 378.50793566406253,310.15214351074223 zm-8,-13 a9.51081,9.51081 0 0 0 -9.5,9.5 a1.50164,1.50164 0 0 0 1.5,1.5 h16 a1.50164,1.50164 0 0 0 1.5,-1.5 A9.51081,9.51081 0 0 0 370.50793566406253,297.1521435107422 z" fill="#fff" id="svg_37"/><polygon points="80.937 471.198 93.197 471.198 99.029 423.91 80.935 423.911 80.937 471.198" fill="#ffb8b8" id="svg_38"/><path d="M560.2776175488282,1835.3084551953125 h38.53073 a0,0 0 0 1 0,0 v14.88687 a0,0 0 0 1 0,0 H575.1644675488282 a14.88686,14.88686 0 0 1 -14.88686,-14.88686 v0 A0,0 0 0 1 560.2776175488282,1835.3084551953125 z" transform="rotate(179.99737548828125 338.5747375488282,1158.9395751953123) " fill="#2f2e41" id="svg_39"/><polygon points="34.937 471.198 47.197 471.198 53.029 423.91 34.935 423.911 34.937 471.198" fill="#ffb8b8" id="svg_40"/><path d="M422.2776175488281,1835.310530390625 h38.53073 a0,0 0 0 1 0,0 v14.88687 a0,0 0 0 1 0,0 H437.16446754882816 a14.88686,14.88686 0 0 1 -14.88686,-14.88686 v0 a0,0 0 0 1 0,0 z" transform="rotate(179.99737548828125 246.57473754882812,1158.941650390625) " fill="#2f2e41" id="svg_41"/><path d="M36.434255664062505,330.35984351074217 a10.7427,10.7427 0 0 0 2.06222,-16.343 l8.0725,-114.55784 l-23.253,2.25509 l-0.6386800000000001,112.18665 a10.80091,10.80091 0 0 0 13.757,16.45913 z" fill="#ffb8b8" id="svg_42"/><path d="M81.3024256640625,447.3814535107422 a4.5171,4.5171 0 0 1 -4.46875,-3.96582 l-7.12622,-59.60254 a3.5,3.5 0 0 0 -6.93287,-0.12793000000000002 l-8.977,57.06738 a4.47888,4.47888 0 0 1 -4.44531,3.80078 h-14.55 a4.50047,4.50047 0 0 1 -4.5,-4.53418 L37.246515664062514,313.4849735107422 a4.47381,4.47381 0 0 1 3.85351,-4.41992 l53.99366,-7.83789 a4.50111,4.50111 0 0 1 5.14648,4.48535 l-0.9418900000000001,136.55664 a4.499,4.499 0 0 1 -4.28589,4.46289 l-13.49634,0.64356 Q81.40875566406251,447.3814435107422 81.3024256640625,447.3814535107422 z" fill="#2f2e41" id="svg_43"/><path d="M53.30974566406249,318.26524351074215 a45.08471,45.08471 0 0 1 -15.22583,-2.71094 a4.46544,4.46544 0 0 1 -2.918,-4.00488 c-0.46582000000000007,-10.33692 -3.19092,-63.54395 -11.12451,-95.999 a33.17817,33.17817 0 0 1 12.63647,-34.57324 q0.6401400000000002,-0.46 1.30518,-0.90332 a32.30589,32.30589 0 0 1 31.39551,-2.46094 a33.21917,33.21917 0 0 1 19.36352,25.957 l12.9375,96.05078 a4.47791,4.47791 0 0 1 -0.93115,3.40137 a4.418,4.418 0 0 1 -3.05347,1.6728500000000002 c-4.48291,0.44727000000000006 -13.78051,2.18457 -25.67993,8.7959 A38.12461,38.12461 0 0 1 53.30974566406249,318.26524351074215 z" fill="#3f3d56" id="svg_44"/><path d="M37.493055664062496,238.64658351074218 l-21.29064,-5.77256 a4.50507,4.50507 0 0 1 -3.16561,-5.52077 l7.48456,-27.6049 a12.39859,12.39859 0 0 1 24.34642,3.9268400000000003 l-1.70385,30.87614 a4.49955,4.49955 0 0 1 -5.67088,4.09525 z" fill="#3f3d56" id="svg_45"/><circle cx="61.19340133666992" cy="140.01002502441406" r="24.5610294342041" fill="#ffb8b8" id="svg_46"/><path d="M150.19712566406253,188.2646435107422 a10.52582,10.52582 0 0 0 -0.23929000000000003,1.64013 l-42.95745,24.782 l-10.44142,-6.01094 l-11.13116,14.57228 l22.33714,15.92056 L156.7728556640625,200.5059735107422 a10.49579,10.49579 0 1 0 -6.57573,-12.24132 z" fill="#ffb8b8" id="svg_47"/><path d="M103.44020566406249,215.8825735107422 l-18.5043,12.00854 a4.5050799999999995,4.5050799999999995 0 0 1 -6.22447,-1.32511 l-15.57,-23.9922 A12.3986,12.3986 0 0 1 82.30955566406249,187.0575735107422 l21.8634,21.86849 a4.49956,4.49956 0 0 1 -0.7327500000000001,6.95651 z" fill="#3f3d56" id="svg_48"/><path d="M43.812805664062495,159.4415835107422 c4.582,4.88078 13.09132,2.26067 13.68835,-4.40717 a8.05557,8.05557 0 0 0 -0.010130000000000002,-1.5557 c-0.30827000000000004,-2.95357 -2.01461,-5.635 -1.60588,-8.7536 a4.59057,4.59057 0 0 1 0.84011,-2.14891 c3.65124,-4.88934 12.22227,2.18687 15.6682,-2.2393 c2.113,-2.714 -0.3708000000000001,-6.98712 1.2506599999999999,-10.0205 c2.14005,-4.00358 8.47881,-2.0286 12.45387,-4.22116 c4.42275,-2.43948 4.15822,-9.22524 1.24686,-13.35269 c-3.55052,-5.03359 -9.77572,-7.71951 -15.92335,-8.10661 s-12.25292,1.27475 -17.9923,3.51145 c-6.5210799999999995,2.54134 -12.98768,6.05351 -17.00066,11.78752 c-4.8802200000000004,6.97317 -5.3498600000000005,16.34794 -2.90917,24.50175 C35.00405566406249,149.3967135107422 40.071135664062496,155.4559035107422 43.812805664062495,159.4415835107422 z" fill="#b6b6b6" id="svg_49" class="selected" fill-opacity="1"/></g></svg>