<svg width="75" height="75" xmlns="http://www.w3.org/2000/svg" xmlns:xlink="http://www.w3.org/1999/xlink" overflow="hidden"><defs><clipPath id="clip0"><rect x="20" y="335" width="75" height="75"/></clipPath></defs><g clip-path="url(#clip0)" transform="translate(-20 -335)"><path d="M50.4688 386.797C50.4688 386.797 46.3281 382.031 40.0781 380.391 33.8281 378.75 27.8125 380.781 27.8125 380.781 27.8125 380.781 31.9531 385.547 38.2031 387.188 44.4531 388.828 50.4688 386.797 50.4688 386.797Z" fill="#D4AF37"/><path d="M43.5938 379.688C43.5938 379.688 42.3438 373.516 37.8125 368.906 33.2031 364.375 27.0312 363.125 27.0312 363.125 27.0312 363.125 28.2812 369.297 32.8125 373.906 37.4219 378.438 43.5938 379.688 43.5938 379.688Z" fill="#D4AF37"/><path d="M41.4062 370.312C41.4062 370.312 43.4375 364.297 41.7969 358.047 40.1562 351.797 35.3906 347.656 35.3906 347.656 35.3906 347.656 33.3594 353.672 35 359.922 36.6406 366.172 41.4062 370.312 41.4062 370.312Z" fill="#D4AF37"/><path d="M51.1719 353.906C52.8125 347.656 50.7812 341.641 50.7812 341.641 50.7812 341.641 46.0156 345.781 44.375 352.031 42.7344 358.281 44.7656 364.297 44.7656 364.297 44.7656 364.297 49.4531 360.156 51.1719 353.906Z" fill="#D4AF37"/><path d="M74.9219 380.391C68.6719 382.031 64.5312 386.797 64.5312 386.797 64.5312 386.797 70.5469 388.828 76.7969 387.188 83.0469 385.547 87.1875 380.781 87.1875 380.781 87.1875 380.781 81.1719 378.672 74.9219 380.391Z" fill="#D4AF37"/><path d="M87.9688 363.125C87.9688 363.125 81.7969 364.375 77.1875 368.906 72.5781 373.516 71.4062 379.688 71.4062 379.688 71.4062 379.688 77.5781 378.438 82.1875 373.906 86.7188 369.297 87.9688 363.125 87.9688 363.125Z" fill="#D4AF37"/><path d="M80.0781 359.922C81.7188 353.672 79.6875 347.656 79.6875 347.656 79.6875 347.656 74.9219 351.797 73.2812 358.047 71.6406 364.297 73.6719 370.312 73.6719 370.312 73.6719 370.312 78.3594 366.172 80.0781 359.922Z" fill="#D4AF37"/><path d="M70.3125 364.297C70.3125 364.297 72.3438 358.281 70.7031 352.031 69.0625 345.781 64.2969 341.641 64.2969 341.641 64.2969 341.641 62.2656 347.656 63.9062 353.906 65.5469 360.156 70.3125 364.297 70.3125 364.297Z" fill="#D4AF37"/><path d="M68.5938 389.375C63.9844 388.125 59.5312 388.906 57.5 389.375 55.4688 388.906 51.0156 388.125 46.4062 389.297 40.1562 390.938 36.0156 395.703 36.0156 395.703 36.0156 395.703 42.0312 397.734 48.2812 396.094 49.2969 395.781 50.3125 395.469 51.25 395 50.0781 396.641 48.9062 397.969 46.4844 398.984L48.2812 403.281C52.5 401.484 54.2969 398.828 55.9375 396.484 56.4844 395.703 56.9531 395 57.5781 394.297 58.125 395 58.6719 395.703 59.2188 396.484 60.7812 398.828 62.5781 401.484 66.875 403.281L68.6719 398.984C66.25 397.969 65.0781 396.641 63.9062 395 64.8438 395.391 65.7812 395.781 66.875 396.094 73.125 397.734 79.1406 395.703 79.1406 395.703 79.1406 395.703 74.8438 391.016 68.5938 389.375Z" fill="#D4AF37"/></g></svg>