<svg xmlns="http://www.w3.org/2000/svg" xmlns:xlink="http://www.w3.org/1999/xlink" data-name="Layer 1" width="819.07045" height="584"><rect id="backgroundrect" width="100%" height="100%" x="0" y="0" fill="none" stroke="none"/><g class="currentLayer" style=""><title>Layer 1</title><path d="M747.9016825439453,525.35934 c7.18382,12.69813 1.0921,55.58546 1.0921,55.58546 s-39.89068,-16.88557 -47.07316,-29.57842 a26.41318,26.41318 0 0 1 45.98106,-26.007 z" fill="#21bc7e" id="svg_1" class="" fill-opacity="1"/><path d="M749.5722325439453,580.8895 l-0.8474400000000001,0.17853000000000002 c-8.16221,-38.77834 -36.66552,-65.075 -36.95246,-65.33607 l0.5827400000000001,-0.6406400000000002 C712.6440325439453,515.35408 741.3506825439454,541.82958 749.5722325439453,580.8895 z" fill="#fff" id="svg_2"/><path d="M813.1731125439453,539.81816 c-9.74789,17.68309 -64.70648,41.63828 -64.70648,41.63828 s-9.06086,-59.2631 0.6817700000000002,-76.94077 a36.55622,36.55622 0 1 1 64.02471,35.30249 z" fill="#21bc7e" id="svg_3" class="" fill-opacity="1"/><path d="M748.9516925439453,582.09789 l-0.82555,-0.8690000000000001 c39.76932,-37.7685 50.06448,-90.44509 50.16385,-90.97274 l1.17793,0.22160000000000002 C799.3680925439453,491.009 789.0097725439454,544.05508 748.9516925439453,582.09789 z" fill="#fff" id="svg_4"/><path d="M192.56560254394532,405.91909 a75.18955,75.18955 0 0 1 -18.63955,-2.41115 l-1.19992,-0.3320000000000001 l-1.1130900000000001,-0.5576800000000001 c-40.242,-20.17656 -74.192,-46.827 -100.90712,-79.21137 a299.86458,299.86458 0 0 1 -50.94916,-90.47014 a348.20978,348.20978 0 0 1 -19.69086,-122.66453 c0.017000000000000005,-0.87611 0.03139000000000001,-1.55256 0.03139000000000001,-2.01861 c0,-20.28912 11.262,-38.0913 28.69121,-45.35357 c13.33947,-5.55813 134.45539,-55.30526 143.20632,-58.89963 c16.48038,-8.25772 34.062,-1.36535 36.87554,-0.16006000000000004 c6.31094,2.58025 118.2752,48.375 142.47062,59.89621 c24.93578,11.87415 31.5889,33.20566 31.5889,43.93787 c0,48.58822 -8.415,93.99778 -25.01129,134.9674 a312.51684,312.51684 0 0 1 -56.16213,90.51087 c-45.84677,51.59381 -91.7057,69.8841 -92.14828,70.0453 A50.11,50.11 0 0 1 192.56560254394532,405.91909 zm-10.78453,-26.71374 c3.97586,0.8913800000000001 13.12949,2.22845 19.0957,0.05200000000000001 c7.57929,-2.76408 45.96243,-22.668 81.83036,-63.03189 c49.55709,-55.769 74.70242,-125.87542 74.73919,-208.37177 c-0.08852000000000003,-1.6713400000000003 -1.27542,-13.59188 -17.06153,-21.10867 C316.6585425439453,75.44668999999999 200.2812325439453,27.86014 199.1084325439453,27.38051999999999 l-0.32154000000000005,-0.13631000000000001 c-2.43886,-1.022 -10.20055,-3.1747 -15.55082,-0.37100000000000005 l-1.07124,0.49943000000000004 c-1.2972000000000001,0.5327900000000001 -129.86317,53.33754 -143.57481,59.05064 c-9.59168,3.99651 -13.00917,13.89729 -13.00917,21.83037 c0,0.5797300000000001 -0.015000000000000003,1.423 -0.03619000000000001,2.51294 C24.44881254394531,167.21375 37.511002543945324,306.11262 181.7810725439453,379.20534999999995 z" fill="#3f3d56" id="svg_5"/><path d="M177.32388254394533,15.58610999999999 S47.589382543945305,68.86992000000001 33.68923254394531,74.66164 s-20.85019,19.69184 -20.85019,33.592 S2.413982543945309,303.53177 177.32388254394533,391.22767999999996 c0,0 15.87478,4.39241 27.91882,0 s164.9454,-78.52642 164.9454,-283.55325 c0,0 0,-20.85018 -24.32522,-32.43362 s-141.93358,-59.6547 -141.93358,-59.6547 S189.48648254394533,9.215219999999988 177.32388254394533,15.58610999999999 z" fill="#21bc7e" id="svg_6"/><path d="M191.2240025439453,57.28648000000001 V341.53673 S60.33116254394531,278.53013 61.489512543945324,112.887 z" opacity="0.1" id="svg_7"/><polygon points="192.931 261.581 151.235 207.969 175.483 189.11 195.226 214.494 261.921 144.088 284.224 165.219 192.931 261.581" fill="#fff" id="svg_8"/><polygon points="547.206 568.237 562.671 568.236 570.029 508.583 547.203 508.584 547.206 568.237" fill="#ffb8b8" id="svg_10"/><path d="M543.2605525439453,563.18754 l30.45762,-0.0012300000000000004 h0.0012300000000000004 a19.411,19.411 0 0 1 19.41,19.40966 v0.6307500000000001 l-49.86791,0.0018500000000000005 z" fill="#2f2e41" id="svg_11"/><polygon points="599.206 568.237 614.671 568.236 622.029 508.583 599.203 508.584 599.206 568.237" fill="#ffb8b8" id="svg_12"/><path d="M595.2605525439453,563.18754 l30.45762,-0.0012300000000000004 h0.0012300000000000004 a19.411,19.411 0 0 1 19.41,19.40966 v0.6307500000000001 l-49.86791,0.0018500000000000005 z" fill="#2f2e41" id="svg_13"/><polygon points="571.514 358.75 575.224 548 545.213 546.139 524.393 425.597 517.817 343.408 571.514 358.75" fill="#2f2e41" id="svg_14"/><path d="M623.0183825439453,326.9709 L627.2240025439453,551 l-35,-1 l-7.5600000000000005,-133.17025 l-13.15012,-48.21688 l-53.6962,-25.20436 l8.76674,-60.27119 l78.90049,-1.09584 z" fill="#2f2e41" id="svg_15"/><circle cx="562.6756591796875" cy="99.59388732910156" r="26.838260650634766" fill="#ffb8b8" id="svg_16"/><polygon points="584.936 137.738 589.047 143.966 600.006 174.649 591.239 294.095 539.734 295.192 533.16 158.211 546.933 140.995 584.936 137.738" fill="#ccc" id="svg_17"/><path d="M512.3384825439454,161.49900000000002 l-8.76674,-1.09584 s-2.19169,1.09584 -3.2875,8.76671 s-14.24592,75.613 -14.24592,75.613 l17.53342,83.28385 l19.7251,-26.30016 l-12.05417,-46.02526 l12.05424,-46.0253 z" fill="#2f2e41" id="svg_18"/><polygon points="624.114 160.404 630.689 160.404 647.127 249.166 631.785 318.204 616.443 293 620.826 265.604 618.635 241.496 610.964 227.249 624.114 160.404" fill="#2f2e41" id="svg_19"/><path d="M578.5346825439453,99.59388000000001 l-4.87969,-1.21993 s-3.65974,-20.73866 -12.19924,-18.29882 s-30.498,4.8797 -30.498,-4.87969 s20.73867,-18.29882 32.93783,-17.0789 s27.77947,5.267 31.71794,23.17848 c6.31357,28.713 -13.02638,35.96549 -13.02638,35.96549 l0.3218500000000001,-1.04544 a16.28235,16.28235 0 0 0 -4.37432,-16.62119 z" fill="#2f2e41" id="svg_20"/><path d="M504.6676125439453,160.40319 l35.06691,-14.24592 l8.2188,-6.02712 l24.65642,109.03608 l11.5063,-112.32365 l45.47733,23.56058 L614.2516325439453,234.92027000000002 l-2.19168,28.49185 l6.57505,23.01263 s23.0126,16.43761 15.34174,33.971 s-16.43761,18.6293 -16.43761,18.6293 s-37.25859,-35.06688 -39.45021,-43.83362 s-5.47918,-24.10847 -5.47918,-24.10847 s-18.6293,70.13377 -40.546,69.0379 s-21.91679,-24.10848 -21.91679,-24.10848 l5.47918,-24.10848 l8.76674,-25.20432 l-4.38337,-41.64192 z" fill="#2f2e41" id="svg_21"/></g></svg>