<svg width="86" height="84" xmlns="http://www.w3.org/2000/svg" xmlns:xlink="http://www.w3.org/1999/xlink" overflow="hidden"><defs><clipPath id="clip0"><rect x="102" y="699" width="86" height="84"/></clipPath></defs><g clip-path="url(#clip0)" transform="translate(-102 -699)"><path d="M79.2882 101.183 77.0486 103.245 78.8285 100.259C77.4262 97.7158 75.1329 95.5181 75.1329 95.5181 75.1329 95.5181 70.3749 100.077 70.3749 103.66 70.3749 107.243 72.505 108.494 75.1329 108.494 77.7605 108.494 79.8908 107.243 79.8908 103.66 79.8908 102.862 79.6547 102.016 79.2882 101.183Z" fill="#F2F2F2" transform="matrix(1 0 0 1.00272 55.9165 674.006)"/><path d="M76.4727 103.357 76.4727 103.533C76.4621 105.586 76.1159 107.188 75.4365 108.316 75.427 108.333 75.4164 108.349 75.4068 108.365L75.3308 108.319 75.2582 108.273C76.0118 107.055 76.2786 105.334 76.2881 103.543 76.289 103.485 76.2899 103.427 76.289 103.368 76.2865 102.61 76.2402 101.843 76.1658 101.098 76.1606 101.041 76.1543 100.982 76.1483 100.923 76.0451 99.9405 75.8964 99.0014 75.7443 98.1857 75.7339 98.128 75.7224 98.0702 75.7112 98.0135 75.4479 96.6338 75.1795 95.6342 75.1183 95.413 75.1113 95.386 75.1069 95.3711 75.106 95.3676L75.1891 95.344 75.19 95.3431 75.2739 95.3195C75.2748 95.323 75.2896 95.3728 75.3141 95.4656 75.4077 95.8118 75.6507 96.7518 75.8895 97.9915 75.9 98.0475 75.9113 98.1053 75.9218 98.163 76.046 98.8249 76.1676 99.5646 76.2638 100.341 76.2881 100.536 76.3101 100.728 76.3292 100.918 76.3362 100.977 76.3425 101.035 76.3477 101.093 76.4281 101.898 76.4697 102.653 76.4727 103.357Z" fill="#FFFFFF" transform="matrix(1 0 0 1.00272 55.9165 674.006)"/><path d="M75.8895 97.9915C75.8308 97.9994 75.7714 98.0073 75.7112 98.0135 75.5472 98.0303 75.3826 98.0387 75.2179 98.0387 74.516 98.0398 73.8227 97.8831 73.1894 97.5807 73.1527 97.627 73.116 97.6733 73.0783 97.7206 73.7446 98.0457 74.4765 98.2145 75.2179 98.2136 75.3937 98.2136 75.5695 98.2043 75.7443 98.1857 75.8038 98.1796 75.8632 98.1718 75.9218 98.163 76.4054 98.0937 76.8756 97.9511 77.3164 97.7406 77.2789 97.6925 77.2421 97.6453 77.2063 97.599 76.7891 97.7941 76.3453 97.9263 75.8895 97.9915Z" fill="#FFFFFF" transform="matrix(1 0 0 1.00272 55.9165 674.006)"/><path d="M76.3292 100.918C76.269 100.922 76.2085 100.923 76.1483 100.923 76.1299 100.924 76.1107 100.924 76.0923 100.924 74.5486 100.924 73.1025 100.169 72.2206 98.9018 72.1855 98.9533 72.1506 99.005 72.1165 99.0574 73.0352 100.339 74.5155 101.099 76.0923 101.099 76.1168 101.099 76.1413 101.099 76.1658 101.098 76.227 101.097 76.2874 101.096 76.3477 101.093 77.2812 101.045 78.1813 100.73 78.9401 100.184 78.9122 100.132 78.8842 100.081 78.8554 100.029 78.1177 100.565 77.2398 100.874 76.3292 100.918Z" fill="#FFFFFF" transform="matrix(1 0 0 1.00272 55.9165 674.006)"/><path d="M76.4727 103.357C76.4115 103.362 76.3503 103.365 76.289 103.368 76.2235 103.371 76.1579 103.372 76.0923 103.372 73.9932 103.37 72.1466 101.984 71.5578 99.9695 71.5184 100.04 71.4791 100.11 71.4415 100.181 72.104 102.188 73.9785 103.545 76.0923 103.547 76.1579 103.547 76.2235 103.546 76.2881 103.543 76.3503 103.541 76.4115 103.538 76.4727 103.533 77.709 103.437 78.8623 102.874 79.6991 101.959 79.6807 101.894 79.6598 101.83 79.6388 101.765 78.8306 102.687 77.6947 103.258 76.4727 103.357Z" fill="#FFFFFF" transform="matrix(1 0 0 1.00272 55.9165 674.006)"/><path d="M131.959 29.4605 46.2079 29.4605C46.1392 29.4604 46.0836 29.4044 46.0839 29.3356 46.0841 29.2672 46.1394 29.2118 46.2079 29.2117L131.959 29.2117C132.028 29.2118 132.083 29.2678 132.083 29.3365 132.083 29.4048 132.027 29.4604 131.959 29.4605Z" fill="#CACACA" transform="matrix(1 0 0 1.00272 55.9165 674.006)"/><path d="M4.29475 1.36903C4.29475 2.12512 3.68182 2.73806 2.92572 2.73806 2.16963 2.73806 1.55669 2.12512 1.55669 1.36903 1.55669 0.612936 2.16963-1.74897e-08 2.92572-1.74897e-08 3.68182-1.74897e-08 4.29475 0.612936 4.29475 1.36903Z" fill="#3F3D56" transform="matrix(1 0 0 1.00272 102 699.054)"/><path d="M9.02414 1.36903C9.02414 2.12512 8.4112 2.73806 7.65511 2.73806 6.89901 2.73806 6.28608 2.12512 6.28608 1.36903 6.28608 0.612936 6.89901-1.74897e-08 7.65511-1.74897e-08 8.4112-1.74897e-08 9.02414 0.612936 9.02414 1.36903Z" fill="#3F3D56" transform="matrix(1 0 0 1.00272 102 699.054)"/><path d="M13.7535 1.36903C13.7535 2.12512 13.1406 2.73806 12.3845 2.73806 11.6284 2.73806 11.0155 2.12512 11.0155 1.36903 11.0155 0.612936 11.6284-1.74897e-08 12.3845-1.74897e-08 13.1406-1.74897e-08 13.7535 0.612936 13.7535 1.36903Z" fill="#3F3D56" transform="matrix(1 0 0 1.00272 102 699.054)"/><path d="M129.125 25.8174 125.765 25.8174C125.628 25.817 125.517 25.7052 125.517 25.5677 125.517 25.4308 125.628 25.32 125.765 25.3196L129.125 25.3196C129.263 25.3192 129.375 25.4302 129.375 25.5677 129.376 25.7052 129.265 25.817 129.127 25.8174 129.127 25.8174 129.126 25.8174 129.125 25.8174Z" fill="#3F3D56" transform="matrix(1 0 0 1.00272 55.9165 674.006)"/><path d="M129.125 26.7509 125.765 26.7509C125.628 26.7504 125.517 26.6386 125.517 26.5011 125.517 26.3643 125.628 26.2535 125.765 26.253L129.125 26.253C129.263 26.2526 129.375 26.3637 129.375 26.5011 129.376 26.6386 129.265 26.7504 129.127 26.7509 129.127 26.7509 129.126 26.7509 129.125 26.7509Z" fill="#3F3D56" transform="matrix(1 0 0 1.00272 55.9165 674.006)"/><path d="M129.125 27.6843 125.765 27.6843C125.628 27.6839 125.517 27.5721 125.517 27.4346 125.517 27.2977 125.628 27.1869 125.765 27.1865L129.125 27.1865C129.263 27.186 129.375 27.2971 129.375 27.4346 129.376 27.5721 129.265 27.6839 129.127 27.6843 129.127 27.6843 129.126 27.6843 129.125 27.6843Z" fill="#3F3D56" transform="matrix(1 0 0 1.00272 55.9165 674.006)"/><path d="M2.58332 10.1089 81.1668 10.1089 81.1668 51.7435 2.58332 51.7435Z" fill="#F0F0F0" transform="matrix(1 0 0 1.00272 102 699.054)"/><path d="M127.25 42.8823 127.25 42.474 111.953 42.474 111.953 35.0889 111.545 35.0889 111.545 42.474 96.2477 42.474 96.2477 35.0889 95.8394 35.0889 95.8394 42.474 80.5423 42.474 80.5423 35.0889 80.134 35.0889 80.134 42.474 64.8369 42.474 64.8369 35.0889 64.4286 35.0889 64.4286 42.474 48.6667 42.474 48.6667 42.8823 64.4286 42.8823 64.4286 51.0408 48.6667 51.0408 48.6667 51.4491 64.4286 51.4491 64.4286 59.6077 48.6667 59.6077 48.6667 60.016 64.4286 60.016 64.4286 68.1731 48.6667 68.1731 48.6667 68.5814 64.4286 68.5814 64.4286 76.7236 64.8369 76.7236 64.8369 68.5814 80.134 68.5814 80.134 76.7236 80.5423 76.7236 80.5423 68.5814 95.8394 68.5814 95.8394 76.7236 96.2477 76.7236 96.2477 68.5814 111.545 68.5814 111.545 76.7236 111.953 76.7236 111.953 68.5814 127.25 68.5814 127.25 68.1731 111.953 68.1731 111.953 60.016 127.25 60.016 127.25 59.6077 111.953 59.6077 111.953 51.4491 127.25 51.4491 127.25 51.0408 111.953 51.0408 111.953 42.8823ZM80.134 68.1731 64.8369 68.1731 64.8369 60.016 80.134 60.016ZM80.134 59.6077 64.8369 59.6077 64.8369 51.4491 80.134 51.4491ZM80.134 51.0408 64.8369 51.0408 64.8369 42.8823 80.134 42.8823ZM95.8394 68.1731 80.5423 68.1731 80.5423 60.016 95.8394 60.016ZM95.8394 59.6077 80.5423 59.6077 80.5423 51.4491 95.8394 51.4491ZM95.8394 51.0408 80.5423 51.0408 80.5423 42.8823 95.8394 42.8823ZM111.545 68.1731 96.2477 68.1731 96.2477 60.016 111.545 60.016ZM111.545 59.6077 96.2477 59.6077 96.2477 51.4491 111.545 51.4491ZM111.545 51.0408 96.2477 51.0408 96.2477 42.8823 111.545 42.8823Z" fill="#FFFFFF" transform="matrix(1 0 0 1.00272 55.9165 674.006)"/><path d="M21.7965 19.8863 27.0538 19.8863 27.0538 24.9759 21.7965 24.9759Z" fill="#CACACA" transform="matrix(1 0 0 1.00272 102 699.054)"/><path d="M70.1985 36.3667 75.4558 36.3667 75.4558 41.4564 70.1985 41.4564Z" fill="#CACACA" transform="matrix(1 0 0 1.00272 102 699.054)"/><path d="M23.4297 44.8296 28.687 44.8296 28.687 49.9193 23.4297 49.9193Z" fill="#CACACA" transform="matrix(1 0 0 1.00272 102 699.054)"/><path d="M24.9835 18.942 30.2407 18.942 30.2407 24.0316 24.9835 24.0316Z" fill="#0A42A5" transform="matrix(1 0 0 1.00272 102 699.054)"/><path d="M54.9541 40.0988 61.1928 34.5405 63.0332 35.4524 55.5508 43.3004 54.9541 40.0988Z" fill="#FFB6B6" transform="matrix(1 0 0 1.00272 102 699.054)"/><path d="M63.4986 34.9662C63.4986 35.7861 62.8338 36.4509 62.0138 36.4509 61.1938 36.4509 60.5291 35.7861 60.5291 34.9662 60.5291 34.1462 61.1938 33.4814 62.0138 33.4814 62.8338 33.4814 63.4986 34.1462 63.4986 34.9662Z" fill="#FFB6B6" transform="matrix(1 0 0 1.00272 102 699.054)"/><path d="M49.1145 81.9354 47.6383 81.9354 46.936 76.2415 49.1147 76.2416 49.1145 81.9354Z" fill="#FFB6B6" transform="matrix(1 0 0 1.00272 102 699.054)"/><path d="M95.5744 108.346 90.8145 108.346 90.8145 108.286C90.8147 107.263 91.644 106.434 92.6673 106.433L92.6673 106.433 95.5745 106.434Z" fill="#2F2E41" transform="matrix(1 0 0 1.00272 55.9165 674.006)"/><path d="M43.7695 81.9354 42.2933 81.9354 41.591 76.2415 43.7697 76.2416 43.7695 81.9354Z" fill="#FFB6B6" transform="matrix(1 0 0 1.00272 102 699.054)"/><path d="M90.2294 108.346 85.4695 108.346 85.4695 108.286C85.4697 107.263 86.299 106.434 87.3223 106.433L87.3223 106.433 90.2295 106.434Z" fill="#2F2E41" transform="matrix(1 0 0 1.00272 55.9165 674.006)"/><path d="M96.4378 74.3678C96.4378 74.3678 100.15 74.0708 98.9618 80.6036 97.774 87.1364 95.3137 105.007 95.3137 105.007L93.0832 105.313 91.7653 81.4747 90.7683 105.313 87.9315 105.007 85.1539 79.4158C85.1539 79.4158 84.262 77.3583 85.1534 75.9373 86.0447 74.5162 96.4378 74.3678 96.4378 74.3678Z" fill="#2F2E41" transform="matrix(1 0 0 1.00272 55.9165 674.006)"/><path d="M94.0622 58.1843 95.0928 57.6323C95.0928 57.6323 97.6318 57.4156 98.668 60.3983L101.416 64.5488 105.87 60.6886 107.8 62.0248 102.187 68.7246 99.8526 69.0228 94.8046 62.49Z" fill="#3F3D56" transform="matrix(1 0 0 1.00272 55.9165 674.006)"/><path d="M90.3226 46.1383C86.0886 46.1383 84.9034 50.7895 84.9034 53.4134 84.9034 56.0374 87.3297 55.6405 90.3226 55.6405 91.6074 55.6405 92.7868 55.713 93.7157 55.589L94.1623 54.4981 94.5219 55.4021C95.2843 55.1219 95.7419 54.5525 95.7419 53.4134 95.7419 50.7895 94.7026 46.1383 90.3226 46.1383Z" fill="#2F2E41" transform="matrix(1 0 0 1.00272 55.9165 674.006)"/><path d="M47.8678 27.0094C47.8678 29.0233 46.2352 30.656 44.2212 30.656 42.2072 30.656 40.5746 29.0233 40.5746 27.0094 40.5746 24.9954 42.2072 23.3627 44.2212 23.3627 46.2352 23.3627 47.8678 24.9954 47.8678 27.0094Z" fill="#FFB6B6" transform="matrix(1 0 0 1.00272 102 699.054)"/><path d="M86.0912 51.6317 86.0912 51.6317 87.5336 51.6317 88.1698 49.8501 88.297 51.6317 88.9864 51.6317 89.3576 50.5924 89.4318 51.6317 94.5541 51.6317 94.5541 51.6317C94.5541 49.4998 92.8259 47.7715 90.6938 47.7715L89.9514 47.7715C87.8195 47.7715 86.0912 49.4998 86.0912 51.6317Z" fill="#2F2E41" transform="matrix(1 0 0 1.00272 55.9165 674.006)"/><path d="M59.1321 29.335 64.3894 29.335 64.3894 34.4247 59.1321 34.4247Z" fill="#0A42A5" transform="matrix(1 0 0 1.00272 102 699.054)"/><path d="M97.5915 73.0244C97.0317 73.0315 95.3452 63.0248 95.3452 63.0248L95.0928 57.6323 93.2501 57.5702 93.2501 57.449C93.2501 56.9422 92.8392 56.5313 92.3324 56.5313L88.8228 56.5313C88.3389 56.5315 87.9385 56.9077 87.908 57.3907L86.4629 57.3421 83.9603 65.2934C83.9603 65.2934 86.2664 72.6814 85.1534 75.9373 85.1534 75.9373 95.9975 76.8685 98.0735 74.8016 98.0735 74.8016 98.1514 73.0171 97.5915 73.0244Z" fill="#3F3D56" transform="matrix(1 0 0 1.00272 55.9165 674.006)"/><path d="M87.084 58.3327 86.4629 57.3421C86.4629 57.3421 84.4422 56.8425 83.6102 58.1815 82.7783 59.5205 80.333 66.7759 80.333 66.7759L82.857 67.6668 85.7212 63.6512Z" fill="#3F3D56" transform="matrix(1 0 0 1.00272 55.9165 674.006)"/><path d="M42.0578 38.5403 47.3151 38.5403 47.3151 43.63 42.0578 43.63Z" fill="#0A42A5" transform="matrix(1 0 0 1.00272 102 699.054)"/><path d="M84.1077 65.36 82.2787 65.1665 82.2787 65.1665C81.8581 66.0637 82.2445 67.1321 83.1418 67.5527 83.2726 67.6141 83.4103 67.6593 83.5521 67.6877L90.7891 69.132 90.0343 66.8071Z" fill="#FFB6B6" transform="matrix(1 0 0 1.00272 55.9165 674.006)"/><path d="M46.2122 42.694C46.2122 43.514 45.5475 44.1787 44.7275 44.1787 43.9075 44.1787 43.2428 43.514 43.2428 42.694 43.2428 41.874 43.9075 41.2093 44.7275 41.2093 45.5475 41.2093 46.2122 41.874 46.2122 42.694Z" fill="#FFB6B6" transform="matrix(1 0 0 1.00272 102 699.054)"/><path d="M88.9576 69.2039 83.444 67.9441C82.6315 67.7561 81.9764 67.1569 81.717 66.3642L81.4942 65.6772 82.925 64.5512 89.4805 66.3834Z" fill="#3F3D56" transform="matrix(1 0 0 1.00272 55.9165 674.006)"/><path d="M119.939 108.645 63.3715 108.645C63.2895 108.645 63.223 108.579 63.223 108.497 63.223 108.415 63.2895 108.348 63.3715 108.348L119.939 108.348C120.021 108.348 120.088 108.415 120.088 108.497 120.088 108.579 120.021 108.645 119.939 108.645Z" fill="#CACACA" transform="matrix(1 0 0 1.00272 55.9165 674.006)"/></g></svg>