<svg width="91" height="84" xmlns="http://www.w3.org/2000/svg" xmlns:xlink="http://www.w3.org/1999/xlink" overflow="hidden"><defs><clipPath id="clip0"><rect x="94" y="340" width="91" height="84"/></clipPath></defs><g clip-path="url(#clip0)" transform="translate(-94 -340)"><path d="M98.4887 62.9885C95.7178 70.2233 80.7722 79.1129 61.5029 84.3816 38.8321 90.5818 18.7621 89.4225 16.6754 81.7921 14.5887 74.1627 35.0678 84.2404 57.7397 78.0402 70.1195 74.6542 80.5919 67.1154 87.8895 62.2115 93.9558 58.133 97.8282 55.8753 98.7752 59.3397 99.0884 60.4845 98.9782 61.7107 98.4887 62.9885Z" fill="#3F3D56" transform="matrix(1.00446 0 0 1 77.3977 335.63)"/><path d="M36.5393 77.8742C36.5393 78.4433 31.9258 78.9047 26.2348 78.9047 20.5439 78.9047 15.9304 78.4433 15.9304 77.8742 15.9304 77.3051 20.5439 76.8438 26.2348 76.8438 31.9258 76.8438 36.5393 77.3051 36.5393 77.8742Z" fill="#000000" fill-opacity="0.1" transform="matrix(1.00446 0 0 1 94 340.002)"/><path d="M11.7056 76.9468C11.7056 77.5159 9.60646 77.9773 7.01706 77.9773 4.42766 77.9773 2.32853 77.5159 2.32853 76.9468 2.32853 76.3777 4.42766 75.9164 7.01706 75.9164 9.60646 75.9164 11.7056 76.3777 11.7056 76.9468Z" fill="#000000" fill-opacity="0.1" transform="matrix(1.00446 0 0 1 94 340.002)"/><path d="M66.1143 51.4959C65.7021 51.4959 65.2874 51.4826 64.8793 51.4567L64.8923 51.251C65.2967 51.2768 65.7073 51.2898 66.1132 51.2898L66.1254 51.2897 66.1254 51.4958 66.1157 51.4959ZM67.372 51.4549 67.3586 51.2492C67.7673 51.2227 68.1804 51.1822 68.5863 51.1291L68.613 51.3334C68.2028 51.3871 67.7852 51.428 67.372 51.4549ZM63.638 51.3368C63.227 51.2835 62.8129 51.216 62.4072 51.136L62.4471 50.9337C62.8484 51.0129 63.2581 51.0797 63.6646 51.1324ZM69.8435 51.1309 69.8035 50.9289C70.205 50.8492 70.6092 50.7551 71.0048 50.6492L71.0581 50.8483C70.6582 50.9554 70.2495 51.0505 69.8435 51.1309ZM61.1923 50.8547C60.793 50.7483 60.3913 50.6271 59.9985 50.4941L60.0644 50.299C60.4531 50.4303 60.8504 50.5504 61.2453 50.6556ZM72.2515 50.4861 72.1852 50.2909C72.5718 50.1595 72.9594 50.0134 73.3375 49.8565L73.4166 50.0468C73.0343 50.2055 72.6423 50.3533 72.2515 50.4861ZM58.8291 50.0549C58.4467 49.8966 58.064 49.7234 57.6917 49.5397L57.7828 49.355C58.1512 49.5364 58.5297 49.7079 58.9079 49.8644ZM74.5507 49.5317 74.4594 49.3469C74.8265 49.1655 75.192 48.9696 75.5457 48.7649L75.649 48.9432C75.2913 49.1502 74.9219 49.3483 74.5507 49.5317ZM56.5909 48.951C56.2321 48.7438 55.8756 48.522 55.5312 48.2916L55.6456 48.1203C55.9864 48.3481 56.3391 48.5676 56.6939 48.7725ZM76.7065 48.2839 76.5918 48.1127C76.9316 47.8853 77.2685 47.6434 77.5936 47.3935L77.7192 47.5569C77.3906 47.8096 77.0499 48.0541 76.7065 48.2839ZM54.517 47.5646C54.1887 47.3125 53.8642 47.0463 53.5526 46.7732L53.6884 46.6182C53.9967 46.8884 54.3177 47.1518 54.6425 47.4011ZM78.6827 46.7654 78.5467 46.6105C78.8544 46.3404 79.1573 46.0566 79.447 45.767L79.5927 45.9127C79.2998 46.2055 78.9938 46.4923 78.6827 46.7654ZM52.6419 45.9209C52.3488 45.6283 52.0616 45.3222 51.7886 45.0114L51.9434 44.8753C52.2136 45.1828 52.4975 45.4855 52.7875 45.7751ZM80.4457 45.0026 80.2907 44.8666C80.561 44.5587 80.8246 44.2378 81.0742 43.9131L81.2376 44.0386C80.9853 44.3669 80.7189 44.6912 80.4457 45.0026ZM50.9964 44.0485C50.744 43.7205 50.4992 43.3799 50.2687 43.0364L50.4399 42.9215C50.6679 43.2615 50.91 43.5984 51.1597 43.9228ZM81.9654 43.0248 81.794 42.9103C82.0221 42.5695 82.2418 42.2171 82.4469 41.8624L82.6253 41.9656C82.4179 42.3241 82.1959 42.6805 81.9654 43.0248ZM49.6088 41.9791C49.4011 41.6209 49.2029 41.2515 49.0196 40.8813L49.2042 40.7898C49.3856 41.156 49.5817 41.5214 49.787 41.8758ZM83.2147 40.8651 83.03 40.7739C83.2113 40.4067 83.383 40.0282 83.5402 39.6492L83.7306 39.728C83.5717 40.1114 83.3981 40.4939 83.2147 40.8651ZM48.5037 39.7475C48.3449 39.3656 48.1969 38.9736 48.0636 38.5827L48.2588 38.5162C48.3905 38.903 48.5369 39.2906 48.694 39.6684ZM84.1708 38.5591 83.9755 38.4929C84.1071 38.105 84.2273 37.7077 84.333 37.3123L84.532 37.3655C84.4253 37.7652 84.3037 38.1668 84.1708 38.5591ZM47.7007 37.3895C47.5933 36.9897 47.4979 36.5812 47.417 36.1752L47.6192 36.1349C47.699 36.5365 47.7934 36.9407 47.8997 37.3361ZM84.814 36.1506 84.6117 36.1106C84.6912 35.7091 84.7583 35.2995 84.8113 34.8934L85.0155 34.9201C84.9621 35.3306 84.8941 35.7446 84.814 36.1506ZM47.2139 34.9448C47.16 34.5354 47.1189 34.118 47.0915 33.7039L47.2972 33.6903C47.3242 34.0999 47.365 34.5129 47.4183 34.918ZM85.1364 33.6789 84.9307 33.6656C84.957 33.2585 84.9704 32.8436 84.9704 32.4327L84.9703 32.3838 85.1764 32.3838 85.1765 32.4321C85.1765 32.848 85.163 33.2673 85.1364 33.6789ZM47.256 32.4573 47.0499 32.4573 47.0499 32.4321C47.0499 32.0261 47.0628 31.615 47.0884 31.2112L47.2941 31.2242C47.2688 31.6238 47.256 32.0304 47.256 32.4327ZM84.9275 31.1509C84.9001 30.7421 84.8589 30.3291 84.8049 29.9235L85.0092 29.8963C85.0638 30.3065 85.1054 30.7239 85.1332 31.1372ZM47.4119 29.9963 47.2075 29.9699C47.2605 29.5594 47.3278 29.1452 47.4074 28.739L47.6097 28.7787C47.5309 29.1805 47.4643 29.5901 47.4119 29.9963ZM84.6022 28.7068C84.5218 28.3054 84.4269 27.9014 84.3202 27.5059L84.5193 27.4522C84.6272 27.852 84.723 28.2605 84.8043 28.6663ZM47.8871 27.5768 47.6879 27.5238C47.7943 27.1235 47.9154 26.7217 48.0479 26.3298L48.243 26.3957C48.112 26.7834 47.9923 27.1807 47.8871 27.5768ZM83.9596 26.3263C83.8273 25.9392 83.6804 25.5519 83.5229 25.1747L83.713 25.0953C83.8722 25.4766 84.0208 25.8683 84.1547 26.2596ZM48.6767 25.2389 48.4862 25.1602C48.6444 24.7773 48.8175 24.3946 49.0007 24.0225L49.1856 24.1136C49.0043 24.4815 48.8332 24.8601 48.6767 25.2389ZM83.0112 24.0539C82.8298 23.6886 82.6333 23.3235 82.427 22.9686L82.6052 22.8651C82.8138 23.2238 83.0124 23.5929 83.1958 23.9622ZM49.7672 23.0241 49.5887 22.9211C49.7955 22.5625 50.0171 22.2058 50.2473 21.861L50.4187 21.9755C50.191 22.3166 49.9718 22.6694 49.7672 23.0241ZM81.7728 21.9237C81.5443 21.5836 81.3016 21.2471 81.0517 20.9233L81.2149 20.7974C81.4675 21.1248 81.7127 21.4649 81.944 21.8087ZM51.1373 20.9717 50.9737 20.8463C51.2257 20.5177 51.4918 20.193 51.7646 19.8814L51.9195 20.0172C51.6498 20.3254 51.3866 20.6466 51.1373 20.9717ZM80.2668 19.9718C79.9964 19.6649 79.7121 19.3626 79.4215 19.0731L79.567 18.9271C79.8607 19.2197 80.1482 19.5254 80.4214 19.8356ZM52.7621 19.1157 52.6162 18.9701C52.9087 18.677 53.2144 18.3898 53.5252 18.1163L53.6613 18.2709C53.3539 18.5415 53.0514 18.8257 52.7621 19.1157ZM78.5195 18.2313C78.2108 17.9613 77.8895 17.6983 77.5646 17.4496L77.6897 17.2859C78.0183 17.5374 78.3431 17.8032 78.6552 18.0761ZM54.6133 17.4868 54.4875 17.3236C54.8153 17.0709 55.1557 16.8258 55.4992 16.5952L55.6141 16.7663C55.2743 16.9945 54.9375 17.2369 54.6133 17.4867ZM76.5603 16.7316C76.2194 16.5042 75.8664 16.2853 75.5113 16.0807L75.6141 15.9022C75.9732 16.109 76.33 16.3303 76.6747 16.5601ZM56.6595 16.1128 56.5561 15.9345C56.9136 15.727 57.2828 15.5285 57.6535 15.3446L57.7451 15.5292C57.3784 15.7111 57.0132 15.9074 56.6595 16.1128ZM74.4215 15.4998C74.0533 15.3188 73.6747 15.1479 73.2958 14.9917L73.3743 14.8011C73.7574 14.9591 74.1403 15.1319 74.5124 15.3148ZM58.8663 15.0182 58.787 14.828C59.1688 14.669 59.5606 14.5206 59.9516 14.3872L60.0181 14.5823C59.6315 14.7143 59.244 14.861 58.8663 15.0182ZM72.1387 14.5587C71.7507 14.4279 71.3531 14.3085 70.9573 14.2036L71.0101 14.0043C71.4103 14.1103 71.8121 14.2312 72.2045 14.3634ZM61.198 14.2225 61.1445 14.0234C61.544 13.9159 61.9526 13.8202 62.3586 13.739L62.3991 13.9411C61.9973 14.0215 61.5933 14.1161 61.198 14.2225ZM69.7551 13.927C69.3539 13.8485 68.9442 13.7822 68.5376 13.73L68.5637 13.5256C68.9748 13.5783 69.389 13.6454 69.7948 13.7247ZM63.6158 13.7395 63.5889 13.5351C63.9982 13.481 64.4157 13.4396 64.8298 13.412L64.8434 13.6177C64.4339 13.6449 64.0208 13.6859 63.6158 13.7395ZM67.3096 13.6129C66.914 13.5881 66.5115 13.5755 66.1132 13.5755L66.0764 13.5756 66.0764 13.3695 66.1128 13.3694C66.5158 13.3694 66.9226 13.3821 67.3225 13.4072Z" fill="#E6E6E6" transform="matrix(1.00446 0 0 1 77.3977 335.63)"/><path d="M66.1208 45.7254 66.1206 45.5193C66.5232 45.5191 66.9294 45.5004 67.328 45.4637L67.3469 45.669C66.9422 45.7062 66.5296 45.7252 66.1208 45.7254ZM64.8949 45.6704C64.4883 45.6335 64.0791 45.5772 63.6791 45.5032L63.7165 45.3005C64.1104 45.3734 64.5131 45.4289 64.9137 45.4651ZM68.5626 45.5003 68.525 45.2977C68.9197 45.2241 69.3155 45.1312 69.7013 45.0214L69.7577 45.2197C69.3657 45.3312 68.9637 45.4256 68.5626 45.5003ZM62.4837 45.2239C62.0915 45.1128 61.6998 44.982 61.3194 44.8348L61.3938 44.6426C61.7682 44.7874 62.1538 44.9163 62.5398 45.0257ZM70.9214 44.8292 70.8469 44.6371C71.2205 44.4921 71.5923 44.3275 71.9518 44.148L72.0437 44.3324C71.6787 44.5148 71.301 44.6819 70.9214 44.8292ZM60.1961 44.3391C59.8311 44.1574 59.4702 43.9564 59.1235 43.7416L59.232 43.5663C59.5734 43.7778 59.9287 43.9757 60.2879 44.1546ZM73.1154 43.7338 73.0067 43.5587C73.3473 43.3473 73.6825 43.1171 74.0029 42.8746L74.1273 43.0389C73.8018 43.2852 73.4613 43.5189 73.1154 43.7338ZM58.1107 43.0477C57.7856 42.8023 57.4678 42.5385 57.166 42.2638L57.3048 42.1113C57.6018 42.3819 57.9148 42.6416 58.2348 42.8833ZM75.071 42.2538 74.9322 42.1016C75.2285 41.8312 75.516 41.5436 75.7866 41.2467L75.9389 41.3856C75.664 41.687 75.372 41.9791 75.071 42.2538ZM56.2972 41.3963C56.0219 41.095 55.7576 40.7776 55.5117 40.4531L55.676 40.3286C55.9181 40.6481 56.1783 40.9606 56.4493 41.2574ZM76.7235 40.4414 76.5592 40.3171C76.8014 39.9966 77.0315 39.6613 77.2429 39.3204L77.418 39.4289C77.2034 39.7752 76.9697 40.1158 76.7235 40.4414ZM54.8161 39.4416C54.6008 39.0953 54.3992 38.7349 54.2168 38.3703L54.4012 38.2781C54.5807 38.637 54.7791 38.9919 54.9911 39.3327ZM78.016 38.3567 77.8317 38.2647C78.0107 37.9059 78.1751 37.5339 78.3203 37.1592L78.5125 37.2336C78.3649 37.6143 78.198 37.9921 78.016 38.3567ZM53.7195 37.2482C53.5719 36.8683 53.4403 36.4769 53.3284 36.0846L53.5265 36.028C53.6367 36.4142 53.7662 36.7996 53.9116 37.1735ZM78.9023 36.0695 78.704 36.0133C78.8136 35.6271 78.9062 35.2313 78.9795 34.8368L79.1822 34.8744C79.1077 35.2751 79.0136 35.6772 78.9023 36.0695ZM53.047 34.8898C52.9723 34.4899 52.9153 34.0809 52.8776 33.6742L53.0828 33.6551C53.1199 34.0555 53.176 34.4582 53.2495 34.8519ZM79.3502 33.6586 79.1449 33.6398C79.1813 33.2414 79.1999 32.8352 79.1999 32.4327L79.1998 32.4021 79.4059 32.4021 79.406 32.4317C79.406 32.8415 79.3872 33.2539 79.3502 33.6586ZM53.0265 32.448 52.8204 32.448 52.8204 32.4327C52.8204 32.0294 52.8387 31.622 52.8748 31.2222L53.08 31.2408C53.0445 31.6344 53.0265 32.0354 53.0265 32.4327ZM79.1421 31.1951C79.1044 30.7945 79.0478 30.3919 78.9738 29.9986L79.1763 29.9605C79.2515 30.3599 79.3089 30.7689 79.3471 31.1758ZM53.244 30.0436 53.0414 30.0062C53.1153 29.6053 53.2089 29.2033 53.3198 28.8108L53.5182 28.8667C53.4091 29.2531 53.3168 29.649 53.244 30.0436ZM78.6957 28.8227C78.5851 28.4368 78.4551 28.0516 78.3093 27.6778L78.5012 27.6029C78.6494 27.9826 78.7815 28.374 78.8937 28.7659ZM53.9006 27.7204 53.7082 27.6462C53.855 27.266 54.0216 26.8879 54.2032 26.5226L54.3878 26.6144C54.209 26.974 54.045 27.3462 53.9006 27.7204ZM77.8182 26.5738C77.6387 26.2156 77.4398 25.861 77.2271 25.5198L77.402 25.4108C77.618 25.7573 77.82 26.1176 78.0024 26.4814ZM54.9754 25.5581 54.8002 25.4497C55.0146 25.103 55.2479 24.7621 55.4935 24.4364L55.6581 24.5605C55.4163 24.8812 55.1866 25.2169 54.9754 25.5581ZM76.5412 24.5247C76.2984 24.2052 76.0379 23.8931 75.7667 23.5968L75.9186 23.4577C76.1941 23.7585 76.4587 24.0756 76.7053 24.4ZM56.4295 23.6299 56.277 23.4912C56.5514 23.1896 56.843 22.8971 57.1438 22.622L57.2829 22.7741C56.9868 23.045 56.6996 23.3329 56.4295 23.6299ZM74.9102 22.7439C74.613 22.4737 74.2997 22.2144 73.9793 21.973L74.1033 21.8084C74.4287 22.0536 74.7469 22.317 75.0488 22.5913ZM58.2113 22.0001 58.0868 21.8359C58.4116 21.5894 58.7518 21.3552 59.0978 21.1398L59.2068 21.3148C58.8661 21.5268 58.5312 21.7575 58.2113 22.0001ZM72.9813 21.2911C72.64 21.0801 72.2844 20.8826 71.9247 20.704L72.0163 20.5195C72.3818 20.7008 72.7429 20.9015 73.0895 21.1158ZM60.261 20.7241 60.1688 20.5399C60.5333 20.3574 60.9107 20.1897 61.2905 20.0419L61.3652 20.2338C60.9915 20.3795 60.6199 20.5444 60.261 20.7241ZM70.8183 20.2174C70.4436 20.073 70.0579 19.9446 69.6718 19.8357L69.7277 19.6373C70.12 19.7479 70.5118 19.8783 70.8924 20.0251ZM62.5105 19.8481 62.4539 19.6501C62.846 19.538 63.2479 19.4432 63.6485 19.3681L63.6865 19.5706C63.2922 19.6445 62.8965 19.7379 62.5105 19.8481ZM68.4949 19.5622C68.1007 19.4898 67.6979 19.4348 67.2976 19.399L67.316 19.1936C67.7226 19.2301 68.1318 19.2859 68.5321 19.3595ZM64.8832 19.4031 64.8641 19.1979C65.2688 19.1602 65.6813 19.1407 66.0899 19.14L66.0903 19.3461C65.6879 19.3468 65.2818 19.366 64.8832 19.4031Z" fill="#E6E6E6" transform="matrix(1.00446 0 0 1 77.3977 335.63)"/><path d="M67.9174 59.4795C67.324 59.2858 66.5837 58.9445 66.1183 58.5704L66.4702 59.434C54.4824 59.6 43.7141 51.7175 40.2543 40.2012 36.8063 28.7248 41.4113 16.2358 51.455 9.75265L51.6405 10.6668C51.8206 10.0974 52.248 9.40314 52.6348 8.91317 52.0221 9.03242 51.2093 9.09383 50.6207 8.99289L51.3476 9.57658C46.4834 12.7356 42.7473 17.3568 40.6773 22.7748 36.3 34.3066 40.2273 47.3406 50.2468 54.5344 54.8765 57.8438 60.4218 59.6296 66.1126 59.6439 66.2343 59.6439 66.3564 59.6417 66.4784 59.64L66.1964 60.5288C66.6305 60.1187 67.3413 59.7196 67.9174 59.4795Z" fill="#3F3D56" transform="matrix(1.00446 0 0 1 77.3977 335.63)"/><path d="M92.1636 24.6057C88.8203 13.477 78.7793 5.69901 67.168 5.24374L67.4966 4.37181C67.0413 4.75824 66.3103 5.11907 65.7223 5.32821 66.3046 5.55314 67.0257 5.93329 67.4705 6.3317L67.1648 5.44994C82.0688 6.0372 93.6747 18.5952 93.0874 33.4992 92.763 41.7297 88.7004 49.3623 82.054 54.2277L81.8151 53.3255C81.6686 53.9044 81.2828 54.6225 80.9254 55.1343 81.53 54.9794 82.3379 54.8703 82.9314 54.9366L82.1718 54.3968C91.4773 47.586 95.4806 35.6501 92.1636 24.6057Z" fill="#3F3D56" transform="matrix(1.00446 0 0 1 77.3977 335.63)"/><path d="M98.4887 62.9885C97.7787 63.0204 97.0492 63.0369 96.3052 63.0369 93.0881 63.0369 90.1472 62.7257 87.8895 62.2115 93.9558 58.133 97.8282 55.8753 98.7752 59.3397 99.0884 60.4845 98.9782 61.7107 98.4887 62.9885Z" fill="#000000" fill-opacity="0.1" transform="matrix(1.00446 0 0 1 77.3977 335.63)"/><path d="M39.2321 9.04158 39.2321 9.04158C36.3759 9.04158 34.2966 10.981 33.5956 13.7498L32.7267 17.9034 33.3449 17.9034 34.6845 14.5029 34.4026 17.9034 35.0967 17.9034 35.6119 16.1516 35.5035 17.9034 43.8555 17.9034 43.8555 13.6651C43.8555 11.1116 41.7855 9.04158 39.2321 9.04158Z" fill="#2F2E41" transform="matrix(1.00446 0 0 1 77.3977 335.63)"/><path d="M17.3316 35.6925 19.2894 45.1544 30.0061 45.3121 27.3269 35.3771 17.3316 35.6925Z" fill="#3F3D56" transform="matrix(1.00446 0 0 1 94 340.002)"/><path d="M17.3316 35.6925 19.2894 45.1544 30.0061 45.3121 27.3269 35.3771 17.3316 35.6925Z" fill="#000000" fill-opacity="0.1" transform="matrix(1.00446 0 0 1 94 340.002)"/><path d="M35.4573 32.6903C35.4573 32.6903 31.2325 38.5638 31.4386 40.9339 31.6447 43.3039 34.3239 81.9456 34.3239 81.9456L40.6096 82.2548 38.7548 54.4327 40.3004 46.9104 44.1131 81.9456 51.8414 82.1517 44.9375 36.709 43.5979 32.6903Z" fill="#2F2E41" transform="matrix(1.00446 0 0 1 77.3977 335.63)"/><path d="M36.9 14.7605C36.9 14.7605 38.2395 17.2336 36.4878 18.8823 34.736 20.531 33.9117 24.9619 33.9117 24.9619L43.804 24.2406 42.9796 18.6762C42.9796 18.6762 40.8157 17.3366 41.3309 14.9666Z" fill="#A0616A" transform="matrix(1.00446 0 0 1 77.3977 335.63)"/><path d="M36.9 14.7605C36.9 14.7605 38.2395 17.2336 36.4878 18.8823 34.736 20.531 33.9117 24.9619 33.9117 24.9619L43.804 24.2406 42.9796 18.6762C42.9796 18.6762 40.8157 17.3366 41.3309 14.9666Z" fill="#000000" fill-opacity="0.1" transform="matrix(1.00446 0 0 1 77.3977 335.63)"/><path d="M35.2513 21.3554C35.2513 21.3554 35.8695 23.2102 38.5487 23.0041 40.1799 22.868 41.745 22.2988 43.0826 21.3554L43.0826 33.4116 34.8391 33.1025 34.8391 25.7863Z" fill="#154BAA" transform="matrix(1.00446 0 0 1 77.3977 335.63)"/><path d="M37.1723 17.8991 36.3847 18.4701 31.6447 20.7371 33.2934 29.2898 34.4269 31.1446 34.4269 33.4116 31.6447 37.3273C31.0193 40.1023 30.6741 42.933 30.6142 45.777 30.5112 50.517 31.7477 49.2805 32.366 49.1774 32.9843 49.0744 34.3239 48.7652 34.3239 48.7652L32.1599 38.6669 35.7665 33.4116 36.3847 31.3507C36.3847 31.3507 36.1787 26.5076 35.3543 24.5498 35.3543 24.5498 36.9295 19.389 37.1723 17.8991Z" fill="#3F3D56" transform="matrix(1.00446 0 0 1 77.3977 335.63)"/><path d="M41.5048 16.9245 43.3918 18.7793 47.1014 19.9128 45.3496 29.5989 44.3192 31.6598 44.5253 33.7207C44.5253 33.7207 48.3867 37.8622 48.9562 46.0861 49.2553 50.4052 48.6371 50.1991 48.6371 50.1991L41.0218 50.1048 39.7852 32.9994 42.1552 20.1188Z" fill="#3F3D56" transform="matrix(1.00446 0 0 1 77.3977 335.63)"/><path d="M49.2653 41.6552C49.2653 41.6552 50.2958 46.0861 48.2349 46.6013 46.174 47.1165 46.8953 41.6552 46.8953 41.6552Z" fill="#A0616A" transform="matrix(1.00446 0 0 1 77.3977 335.63)"/><path d="M31.0894 37.0562C31.0894 37.0562 35.0573 39.2811 34.049 41.1509 33.0407 43.0207 29.4921 38.8071 29.4921 38.8071Z" fill="#A0616A" transform="matrix(1.00446 0 0 1 77.3977 335.63)"/><path d="M45.5557 20.1188 47.1014 19.9128C47.1014 19.9128 48.0288 21.1493 48.1318 22.0767 48.2349 23.0041 49.8836 38.6669 49.8836 38.6669L51.5323 41.6552C51.5323 41.6552 51.4293 42.1704 50.6049 42.1704L49.7805 42.1704 49.4714 43.4069C49.4714 43.4069 48.8531 41.0369 46.4831 42.2734L45.5557 41.9643 46.174 40.8308C46.174 40.8308 45.5557 35.3694 45.5557 32.7933 45.5557 30.2172 45.3496 27.435 45.3496 27.435Z" fill="#3F3D56" transform="matrix(1.00446 0 0 1 77.3977 335.63)"/><path d="M23.0273 77.7291C23.0273 78.0326 22.3713 78.2786 21.5621 78.2786 20.7528 78.2786 20.0968 78.0326 20.0968 77.7291 20.0968 77.4257 20.7528 77.1797 21.5621 77.1797 22.3713 77.1797 23.0273 77.4257 23.0273 77.7291Z" fill="#2F2E41" transform="matrix(1.00446 0 0 1 94 340.002)"/><path d="M32.9179 77.7291C32.9179 78.0326 32.2619 78.2786 31.4526 78.2786 30.6434 78.2786 29.9874 78.0326 29.9874 77.7291 29.9874 77.4257 30.6434 77.1797 31.4526 77.1797 32.2619 77.1797 32.9179 77.4257 32.9179 77.7291Z" fill="#2F2E41" transform="matrix(1.00446 0 0 1 94 340.002)"/><path d="M32.7782 20.6341 31.6447 20.7371 29.0686 30.7324C29.0686 30.7324 28.0381 37.3273 28.2442 37.6364 28.4503 37.9456 28.2442 38.4608 28.0381 38.6669 27.832 38.873 28.8625 41.7582 29.8929 41.6552 30.9234 41.5521 31.3356 41.243 31.3356 41.243 31.3356 41.243 30.4082 38.5638 32.7782 37.6364L33.3965 35.5755 32.7782 32.1751 33.6025 27.435Z" fill="#3F3D56" transform="matrix(1.00446 0 0 1 77.3977 335.63)"/><path d="M26.2965 9.40983C26.2965 9.69438 26.2273 9.92505 26.1419 9.92505 26.0565 9.92505 25.9873 9.69438 25.9873 9.40983 25.9873 9.12528 26.0565 8.89461 26.1419 8.89461 26.2273 8.89461 26.2965 9.12528 26.2965 9.40983Z" fill="#A0616A" transform="matrix(1.00446 0 0 1 94 340.002)"/><path d="M19.2894 9.40983C19.2894 9.69438 19.2202 9.92505 19.1349 9.92505 19.0495 9.92505 18.9803 9.69438 18.9803 9.40983 18.9803 9.12528 19.0495 8.89461 19.1349 8.89461 19.2202 8.89461 19.2894 9.12528 19.2894 9.40983Z" fill="#A0616A" transform="matrix(1.00446 0 0 1 94 340.002)"/><path d="M26.0389 9.15222C26.0389 11.0302 24.5164 12.5527 22.6384 12.5527 20.7604 12.5527 19.2379 11.0302 19.2379 9.15222 19.2379 7.27419 20.7604 5.75174 22.6384 5.75174 24.5164 5.75174 26.0389 7.27419 26.0389 9.15222Z" fill="#A0616A" transform="matrix(1.00446 0 0 1 94 340.002)"/><path d="M21.1442 7.34894 21.0574 8.17329 23.4112 8.17329 23.7204 7.55503 23.6552 8.17329 26.5026 8.17329 24.5447 5.08195 20.2168 5.185 19.1864 8.17329 20.7321 8.17329 21.1442 7.34894Z" fill="#2F2E41" transform="matrix(1.00446 0 0 1 94 340.002)"/><path d="M90.5963 44.445C90.5963 50.4205 85.7522 55.2647 79.7766 55.2647 73.8011 55.2647 68.9569 50.4205 68.9569 44.445 68.9569 38.4695 73.8011 33.6253 79.7766 33.6253 85.7522 33.6253 90.5963 38.4695 90.5963 44.445Z" fill="#3F3D56" transform="matrix(1.00446 0 0 1 94 340.002)"/><path d="M88.5354 26.5152C88.5354 30.9542 84.9369 34.5527 80.4979 34.5527 76.059 34.5527 72.4605 30.9542 72.4605 26.5152 72.4605 22.0763 76.059 18.4778 80.4979 18.4778 84.9369 18.4778 88.5354 22.0763 88.5354 26.5152Z" fill="#3F3D56" transform="matrix(1.00446 0 0 1 94 340.002)"/><path d="M87.4019 12.089C87.4019 15.902 84.3109 18.993 80.4979 18.993 76.685 18.993 73.594 15.902 73.594 12.089 73.594 8.27602 76.685 5.185 80.4979 5.185 84.3109 5.185 87.4019 8.27602 87.4019 12.089Z" fill="#3F3D56" transform="matrix(1.00446 0 0 1 94 340.002)"/><path d="M83.2802 3.53629C83.2802 5.01594 82.0806 6.21545 80.601 6.21545 79.1213 6.21545 77.9218 5.01594 77.9218 3.53629 77.9218 2.05663 79.1213 0.857125 80.601 0.857125 82.0806 0.857125 83.2802 2.05663 83.2802 3.53629Z" fill="#154BAA" transform="matrix(1.00446 0 0 1 94 340.002)"/><path d="M23.1864 77.1869C23.8775 79.7415 26.2445 81.3235 26.2445 81.3235 26.2445 81.3235 27.4911 78.7639 26.8001 76.2093 26.1089 73.6549 23.742 72.0727 23.742 72.0727 23.742 72.0727 22.4954 74.6323 23.1864 77.1869Z" fill="#3F3D56" transform="matrix(1.00446 0 0 1 77.3977 335.63)"/><path d="M24.2019 76.6379C26.0981 78.4838 26.3298 81.3215 26.3298 81.3215 26.3298 81.3215 23.487 81.1663 21.5906 79.3204 19.6944 77.4744 19.4628 74.6368 19.4628 74.6368 19.4628 74.6368 22.3057 74.7919 24.2019 76.6379Z" fill="#154BAA" transform="matrix(1.00446 0 0 1 77.3977 335.63)"/><path d="M53.8094 28.0609C53.8094 30.3942 51.9179 32.2857 49.5846 32.2857 47.2512 32.2857 45.3597 30.3942 45.3597 28.0609 45.3597 25.7276 47.2512 23.8361 49.5846 23.8361 51.9179 23.8361 53.8094 25.7276 53.8094 28.0609Z" fill="#F2F2F2" transform="matrix(1.00446 0 0 1 94 340.002)"/></g></svg>