<svg width="108" height="72" xmlns="http://www.w3.org/2000/svg" xmlns:xlink="http://www.w3.org/1999/xlink" overflow="hidden"><defs><clipPath id="clip0"><rect x="92" y="525" width="108" height="72"/></clipPath></defs><g clip-path="url(#clip0)" transform="translate(-92 -525)"><path d="M114.942 67.4417C115.013 67.4206 115.085 67.405 115.159 67.3954L118.095 61.4293 117.199 60.0854 119.05 58.4675 121.377 61.3153 116.637 68.2135C116.955 68.923 116.637 69.7553 115.927 70.0725 115.217 70.3896 114.385 70.0716 114.068 69.3619 113.751 68.6523 114.069 67.8201 114.778 67.5029 114.832 67.4792 114.886 67.4588 114.942 67.4417Z" fill="#A0616A" transform="matrix(1.00436 0 0 1 65.2019 500.665)"/><path d="M119.954 59.2918C119.914 59.334 119.868 59.3701 119.818 59.3992L116.814 61.1407C116.525 61.3078 116.156 61.2097 115.989 60.9215 115.981 60.9069 115.973 60.892 115.966 60.8769L114.504 57.79C114.376 57.5216 114.464 57.1994 114.711 57.0331L116.573 55.7663C116.813 55.6033 117.135 55.6339 117.339 55.8393L119.942 58.4513C120.173 58.6824 120.178 59.0545 119.954 59.2918Z" fill="#CCCCCC" transform="matrix(1.00436 0 0 1 65.2019 500.665)"/><path d="M97.4872 69.1427 95.9011 69.5743 93.4816 63.6618 95.8226 63.0248 97.4872 69.1427Z" fill="#A0616A" transform="matrix(1.00436 0 0 1 92.0032 525)"/><path d="M121.607 93.6034 124.778 93.6034 124.778 93.6034 124.778 95.5999 124.778 95.5999 119.611 95.5999 119.611 95.5999 119.611 95.5999C119.611 94.4973 120.505 93.6034 121.607 93.6034Z" fill="#2F2E41" transform="matrix(0.968843 -0.262459 0.263604 0.964634 44.5684 536.053)"/><path d="M83.9277 70.353 82.2841 70.3529 81.502 64.0126 83.928 64.0127 83.9277 70.353Z" fill="#A0616A" transform="matrix(1.00436 0 0 1 92.0032 525)"/><path d="M81.1098 69.8832 84.28 69.8832 84.28 69.8832 84.28 71.8792 84.28 71.8792 79.1138 71.8792 79.1138 71.8792 79.1138 71.8792C79.1138 70.7768 80.0076 69.8832 81.1098 69.8832Z" fill="#2F2E41" transform="matrix(1.00436 0 0 1 92.0032 525)"/><path d="M88.9527 26.0333C88.9527 27.852 87.4784 29.3264 85.6596 29.3264 83.8409 29.3264 82.3665 27.852 82.3665 26.0333 82.3665 24.2146 83.8409 22.7402 85.6596 22.7402 87.4784 22.7402 88.9527 24.2146 88.9527 26.0333Z" fill="#A0616A" transform="matrix(1.00436 0 0 1 92.0032 525)"/><path d="M110.512 90.1676 108.266 90.1676C107.947 90.1671 107.683 89.9194 107.663 89.6014 106.993 78.9608 107.385 71.328 108.895 65.5809 108.902 65.5557 108.91 65.531 108.919 65.5069L109.04 65.2061C109.131 64.9766 109.353 64.826 109.6 64.8268L114.219 64.8268C114.395 64.8267 114.563 64.9036 114.677 65.0375L115.305 65.7695C115.317 65.7839 115.328 65.7983 115.339 65.8136 118.169 69.759 120.704 77.4724 123.64 87.8399 123.731 88.1532 123.555 88.4813 123.244 88.5795L120.83 89.352C120.543 89.4422 120.234 89.3092 120.102 89.0393L113.838 76.0462C113.725 75.8128 113.445 75.7148 113.211 75.8274 113.07 75.8958 112.972 76.0305 112.95 76.1865L111.11 89.6459C111.068 89.9444 110.813 90.1667 110.512 90.1676Z" fill="#2F2E41" transform="matrix(1.00436 0 0 1 65.2019 500.665)"/><path d="M115.051 65.8232C115.045 65.8232 115.039 65.823 115.033 65.8229L109.422 65.6456C109.123 65.6373 108.876 65.4117 108.841 65.1155 108.13 59.358 110.081 57.8156 110.952 57.4198 111.1 57.3529 111.203 57.2133 111.222 57.052L111.298 56.4485C111.31 56.3419 111.352 56.2407 111.417 56.1554 112.784 54.3849 114.65 53.8181 115.641 53.6377 115.968 53.5789 116.281 53.7966 116.34 54.124 116.342 54.1339 116.343 54.1439 116.345 54.1538L116.458 55.0203C116.469 55.1031 116.502 55.1812 116.553 55.2472 119.404 58.9735 116.228 64.4754 115.563 65.5404L115.563 65.5404C115.452 65.7162 115.259 65.8229 115.051 65.8232Z" fill="#CCCCCC" transform="matrix(1.00436 0 0 1 65.2019 500.665)"/><path d="M118.988 50.7392C118.254 49.7048 117.373 48.7826 116.373 48.0013 115.542 47.3523 114.617 46.7976 113.596 46.5324 112.576 46.267 111.449 46.3122 110.518 46.8071 109.586 47.302 108.624 48.2852 108.618 49.3397 108.616 49.6785 108.702 50.1368 109.036 50.0782L109.132 50.0911C109.937 49.9284 110.742 49.7659 111.547 49.6033 111.889 50.7929 112.232 51.9824 112.575 53.1719 112.647 53.4227 112.744 53.703 112.982 53.8099 113.206 53.9106 113.465 53.8158 113.692 53.7211 113.729 53.7054 114.05 52.9861 114.05 52.9861 114.075 52.9164 114.151 52.88 114.221 52.905 114.245 52.9133 114.265 52.928 114.281 52.9475L114.471 53.1853C114.546 53.2788 114.673 53.3114 114.784 53.2653 116.096 52.7174 117.409 52.1696 118.721 51.6217 118.902 51.546 119.105 51.4472 119.158 51.2577 119.208 51.0763 119.097 50.8929 118.988 50.7392Z" fill="#2F2E41" transform="matrix(1.00436 0 0 1 65.2019 500.665)"/><path d="M134.075 96.3352 93.7175 96.3352C93.6434 96.3352 93.5834 96.2751 93.5834 96.2011 93.5834 96.1271 93.6434 96.067 93.7175 96.067L134.075 96.067C134.149 96.067 134.21 96.1271 134.21 96.2011 134.21 96.2751 134.149 96.3352 134.075 96.3352Z" fill="#3F3D56" transform="matrix(1.00436 0 0 1 65.2019 500.665)"/><path d="M112.196 75.441C112.105 75.4406 112.016 75.4112 111.942 75.3572L111.332 74.9137C111.228 74.8379 111.087 74.8379 110.983 74.9137L110.373 75.3572C110.181 75.497 109.911 75.4543 109.771 75.2619 109.69 75.1503 109.667 75.0066 109.71 74.8754L109.943 74.158C109.983 74.0357 109.939 73.9016 109.835 73.8263L109.225 73.3828C109.032 73.2429 108.99 72.9734 109.13 72.7809 109.211 72.6693 109.34 72.6034 109.478 72.6034L110.233 72.6034C110.361 72.6036 110.475 72.5208 110.515 72.3984L110.748 71.6809C110.821 71.4546 111.064 71.3307 111.291 71.4042 111.422 71.4468 111.525 71.5496 111.567 71.6809L111.801 72.3984C111.84 72.5208 111.954 72.6036 112.083 72.6034L112.837 72.6034C113.075 72.6034 113.268 72.7963 113.268 73.0343 113.268 73.1721 113.202 73.3016 113.09 73.3828L112.48 73.8261C112.376 73.9016 112.332 74.0357 112.372 74.158L112.605 74.8754C112.665 75.053 112.602 75.2487 112.449 75.3572 112.376 75.4112 112.287 75.4406 112.196 75.441Z" fill="#154BAA" transform="matrix(1.00436 0 0 1 65.2019 500.665)"/><path d="M114.528 74.0066C115.179 73.5498 115.337 72.6516 114.88 72.0003 114.832 71.9308 114.777 71.8659 114.717 71.8061L115.759 59.2199 112.656 59.6468 112.597 71.8754C112.072 72.4785 112.135 73.3933 112.738 73.9185 113.243 74.358 113.983 74.3944 114.528 74.0066Z" fill="#A0616A" transform="matrix(1.00436 0 0 1 65.2019 500.665)"/><path d="M115.962 61.0323C115.904 61.0323 115.846 61.024 115.79 61.0075L112.459 60.0276C112.139 59.9336 111.956 59.5984 112.05 59.2788 112.055 59.2626 112.06 59.2467 112.066 59.2311L113.299 56.0462C113.405 55.7681 113.699 55.61 113.99 55.6745L116.191 56.153C116.474 56.2147 116.674 56.4693 116.666 56.7592L116.563 60.4453C116.554 60.7714 116.288 61.0312 115.962 61.0323Z" fill="#CCCCCC" transform="matrix(1.00436 0 0 1 65.2019 500.665)"/><path d="M84.6066 76.7598 27.6233 76.7598C27.1051 76.7592 26.6853 76.3393 26.6848 75.8212L26.6848 58.7933C26.6853 58.2752 27.1051 57.8553 27.6233 57.8548L84.6066 57.8548C85.1246 57.8553 85.5444 58.2752 85.5451 58.7933L85.5451 75.8212C85.5444 76.3393 85.1246 76.7592 84.6066 76.7598ZM27.6233 58.1229C27.2533 58.1233 26.9533 58.4232 26.9529 58.7933L26.9529 75.8212C26.9533 76.1913 27.2533 76.4912 27.6233 76.4916L84.6066 76.4916C84.9766 76.4912 85.2766 76.1913 85.277 75.8212L85.277 58.7933C85.2766 58.4232 84.9766 58.1233 84.6066 58.1229Z" fill="#3F3D56" transform="matrix(1.00436 0 0 1 65.2019 500.665)"/><path d="M52.5585 83.9296C52.4468 83.9292 52.3381 83.8933 52.2483 83.8269L51.5005 83.2838C51.3733 83.1907 51.2005 83.1907 51.0732 83.2838L50.3256 83.8269C50.0897 83.9983 49.7596 83.946 49.5883 83.7101 49.4889 83.5735 49.4611 83.3976 49.5133 83.2368L49.7989 82.3579C49.8479 82.2082 49.7945 82.0438 49.6669 81.9514L48.9191 81.4081C48.6833 81.2369 48.631 80.9068 48.8023 80.671 48.9017 80.5342 49.0604 80.4534 49.2294 80.4534L50.1536 80.4534C50.3111 80.4536 50.451 80.3521 50.4994 80.2022L50.7849 79.3232C50.8749 79.0461 51.1727 78.8943 51.45 78.9843 51.6107 79.0366 51.7366 79.1626 51.7889 79.3232L52.0744 80.2022C52.1229 80.3521 52.2626 80.4536 52.4202 80.4534L53.3444 80.4534C53.6358 80.4534 53.8722 80.6897 53.8722 80.9812 53.8721 81.1502 53.7912 81.3089 53.6546 81.4081L52.9069 81.9514C52.7792 82.0438 52.7259 82.2082 52.7749 82.3579L53.0605 83.2368C53.1337 83.4543 53.0558 83.694 52.8687 83.8269 52.7788 83.8931 52.6702 83.9292 52.5585 83.9296Z" fill="#154BAA" transform="matrix(1.00436 0 0 1 65.2019 500.665)"/><path d="M60.135 83.9296C60.0233 83.9292 59.9147 83.8933 59.8248 83.8269L59.0771 83.2838C58.9498 83.1907 58.7771 83.1907 58.6497 83.2838L57.9021 83.8269C57.6662 83.9983 57.3361 83.946 57.1648 83.7101 57.0656 83.5735 57.0377 83.3976 57.0898 83.2368L57.3754 82.3579C57.4244 82.2082 57.371 82.0438 57.2434 81.9514L56.4957 81.4081C56.2599 81.2368 56.2076 80.9067 56.379 80.671 56.4783 80.5342 56.6371 80.4534 56.806 80.4534L57.7301 80.4534C57.8877 80.4536 58.0274 80.3521 58.0758 80.2022L58.3614 79.3232C58.4515 79.0461 58.7492 78.8943 59.0265 78.9843 59.1872 79.0366 59.3133 79.1626 59.3654 79.3232L59.651 80.2022C59.6994 80.3521 59.8391 80.4536 59.9968 80.4534L60.921 80.4534C61.2125 80.4534 61.4487 80.6897 61.4487 80.9812 61.4487 81.1502 61.3679 81.3089 61.2312 81.4081L60.4835 81.9514C60.3558 82.0438 60.3025 82.2081 60.3514 82.3579L60.637 83.2368C60.7104 83.4543 60.6325 83.694 60.4453 83.8269 60.3553 83.8931 60.2467 83.9292 60.135 83.9296Z" fill="#154BAA" transform="matrix(1.00436 0 0 1 65.2019 500.665)"/><path d="M67.7116 83.9296C67.6 83.9292 67.4912 83.8931 67.4014 83.8269L66.6536 83.2838C66.5263 83.191 66.3537 83.191 66.2263 83.2838L65.4786 83.8269C65.2429 83.9983 64.9128 83.946 64.7414 83.7101 64.6421 83.5735 64.6142 83.3976 64.6665 83.2368L64.9519 82.3579C65.001 82.2082 64.9476 82.0438 64.82 81.9514L64.0722 81.4081C63.8364 81.2368 63.7842 80.9067 63.9556 80.671 64.0548 80.5342 64.2135 80.4534 64.3825 80.4534L65.3067 80.4534C65.4642 80.4536 65.6039 80.3521 65.6525 80.2022L65.9381 79.3232C66.028 79.0461 66.3258 78.8943 66.6031 78.9843 66.7637 79.0366 66.8897 79.1626 66.9419 79.3232L67.2276 80.2022C67.276 80.3521 67.4157 80.4536 67.5733 80.4534L68.4975 80.4534C68.789 80.4534 69.0253 80.6897 69.0252 80.9812 69.0252 81.1502 68.9444 81.3089 68.8077 81.4081L68.0601 81.9514C67.9323 82.0438 67.879 82.2082 67.928 82.3579L68.2135 83.2368C68.2868 83.4543 68.2089 83.694 68.0219 83.8269 67.9319 83.8931 67.8233 83.9292 67.7116 83.9296Z" fill="#154BAA" transform="matrix(1.00436 0 0 1 65.2019 500.665)"/><path d="M75.2881 83.9296C75.1764 83.9292 75.0678 83.8933 74.9779 83.8269L74.2303 83.2838C74.103 83.1907 73.9302 83.1907 73.803 83.2838L73.0552 83.8269C72.8194 83.9983 72.4893 83.946 72.3179 83.7101 72.2187 83.5735 72.1908 83.3976 72.243 83.2368L72.5285 82.3579C72.5776 82.2082 72.5241 82.0438 72.3965 81.9514L71.6487 81.4081C71.413 81.2368 71.3607 80.9068 71.5321 80.671 71.6314 80.5342 71.79 80.4534 71.959 80.4534L72.8832 80.4534C73.0409 80.4536 73.1806 80.3521 73.229 80.2022L73.5146 79.3232C73.6047 79.0461 73.9023 78.8943 74.1796 78.9843 74.3403 79.0366 74.4662 79.1626 74.5185 79.3232L74.8041 80.2022C74.8525 80.3521 74.9922 80.4536 75.1499 80.4534L76.074 80.4534C76.3655 80.4534 76.6018 80.6897 76.6018 80.9812 76.6018 81.1502 76.521 81.3089 76.3842 81.4081L75.6366 81.9514C75.509 82.0438 75.4556 82.2082 75.5045 82.3579L75.7901 83.2368C75.8635 83.4543 75.7856 83.6942 75.5984 83.8269 75.5086 83.8933 75.3998 83.9292 75.2881 83.9296Z" fill="#154BAA" transform="matrix(1.00436 0 0 1 65.2019 500.665)"/><path d="M80.3216 83.9818C80.1989 83.9812 80.0796 83.9418 79.9807 83.869 79.7752 83.7231 79.6895 83.4597 79.7701 83.2207L80.0557 82.3419C80.0977 82.2134 80.0519 82.0726 79.9425 81.9935L79.1948 81.4502C78.9357 81.262 78.8784 80.8994 79.0666 80.6404 79.1756 80.4902 79.35 80.4015 79.5356 80.4015L80.4598 80.4015C80.5948 80.4016 80.7147 80.3146 80.7561 80.1861L81.0417 79.3071C81.1407 79.0026 81.4678 78.836 81.7723 78.9349 81.9487 78.9923 82.0871 79.1307 82.1445 79.3071L82.4301 80.1861C82.4716 80.3146 82.5914 80.4016 82.7264 80.4015L83.6506 80.4015C83.9708 80.4015 84.2304 80.661 84.2304 80.9812 84.2304 81.1668 84.1416 81.3411 83.9914 81.4502L83.2437 81.9935C83.1343 82.0726 83.0885 82.2134 83.1305 82.3419L83.4161 83.2207C83.515 83.5252 83.3484 83.8524 83.0438 83.9513 82.8673 84.0086 82.6741 83.978 82.5239 83.8689L81.7763 83.3257C81.6672 83.2461 81.519 83.2461 81.4099 83.3257L80.6623 83.8689C80.5636 83.9418 80.4442 83.9812 80.3216 83.9818ZM81.5932 82.9978C81.7156 82.9978 81.8349 83.0367 81.9339 83.1088L82.6815 83.6519C82.8206 83.7532 83.0156 83.7223 83.1167 83.5832 83.1754 83.5024 83.1919 83.3985 83.1611 83.3036L82.8755 82.4247C82.7973 82.1858 82.8825 81.9238 83.0861 81.7766L83.8337 81.2333C83.9729 81.1321 84.0039 80.9373 83.9027 80.7981 83.8441 80.7174 83.7504 80.6696 83.6506 80.6696L82.7264 80.6696C82.4751 80.67 82.2523 80.5082 82.1751 80.269L81.8895 79.3901C81.8363 79.2264 81.6605 79.1369 81.4969 79.1899 81.402 79.2208 81.3276 79.2952 81.2967 79.3901L81.0111 80.269C80.9339 80.5082 80.7111 80.67 80.4598 80.6696L79.5356 80.6696C79.3636 80.6696 79.224 80.8091 79.224 80.9811 79.224 81.0809 79.2717 81.1746 79.3524 81.2333L80.1002 81.7766C80.3037 81.9239 80.3889 82.1858 80.3107 82.4247L80.0251 83.3036C79.9719 83.4673 80.0615 83.6431 80.2252 83.6962 80.3201 83.727 80.424 83.7107 80.5046 83.6519L81.2523 83.1088C81.3513 83.0367 81.4706 82.9978 81.5932 82.9978Z" fill="#3F3D56" transform="matrix(1.00436 0 0 1 65.2019 500.665)"/><path d="M34.0591 61.8771C33.5777 61.8771 33.1876 62.2673 33.1876 62.7486 33.1876 63.2299 33.5777 63.6201 34.0591 63.6201L78.1708 63.6201C78.652 63.6201 79.0423 63.2299 79.0423 62.7486 79.0423 62.2673 78.652 61.8771 78.1708 61.8771Z" fill="#CCCCCC" transform="matrix(1.00436 0 0 1 65.2019 500.665)"/><path d="M34.0591 66.4358C33.5777 66.4358 33.1876 66.8259 33.1876 67.3073 33.1876 67.7886 33.5777 68.1788 34.0591 68.1788L78.1708 68.1788C78.652 68.1788 79.0423 67.7886 79.0423 67.3073 79.0423 66.8259 78.652 66.4358 78.1708 66.4358Z" fill="#CCCCCC" transform="matrix(1.00436 0 0 1 65.2019 500.665)"/><path d="M34.0591 70.9944C33.5777 70.9944 33.1876 71.3846 33.1876 71.8659 33.1876 72.3473 33.5777 72.7374 34.0591 72.7374L78.1708 72.7374C78.652 72.7374 79.0423 72.3473 79.0423 71.8659 79.0423 71.3846 78.652 70.9944 78.1708 70.9944Z" fill="#CCCCCC" transform="matrix(1.00436 0 0 1 65.2019 500.665)"/><path d="M34.0591 61.8771C33.5777 61.8771 33.1876 62.2673 33.1876 62.7486 33.1876 63.2299 33.5777 63.6201 34.0591 63.6201L78.1708 63.6201C78.652 63.6201 79.0423 63.2299 79.0423 62.7486 79.0423 62.2673 78.652 61.8771 78.1708 61.8771Z" fill="#CCCCCC" transform="matrix(1.00436 0 0 1 65.2019 500.665)"/><path d="M34.0591 66.4358C33.5777 66.4358 33.1876 66.8259 33.1876 67.3073 33.1876 67.7886 33.5777 68.1788 34.0591 68.1788L78.1708 68.1788C78.652 68.1788 79.0423 67.7886 79.0423 67.3073 79.0423 66.8259 78.652 66.4358 78.1708 66.4358Z" fill="#CCCCCC" transform="matrix(1.00436 0 0 1 65.2019 500.665)"/><path d="M34.0591 70.9944C33.5777 70.9944 33.1876 71.3846 33.1876 71.8659 33.1876 72.3473 33.5777 72.7374 34.0591 72.7374L78.1708 72.7374C78.652 72.7374 79.0423 72.3473 79.0423 71.8659 79.0423 71.3846 78.652 70.9944 78.1708 70.9944Z" fill="#CCCCCC" transform="matrix(1.00436 0 0 1 65.2019 500.665)"/><path d="M84.6066 43.2402 27.6233 43.2402C27.1051 43.2397 26.6853 42.8198 26.6848 42.3017L26.6848 25.2737C26.6853 24.7557 27.1051 24.3357 27.6233 24.3352L84.6066 24.3352C85.1246 24.3357 85.5444 24.7557 85.5451 25.2737L85.5451 42.3017C85.5444 42.8198 85.1246 43.2397 84.6066 43.2402ZM27.6233 24.6034C27.2533 24.6038 26.9533 24.9037 26.9529 25.2737L26.9529 42.3017C26.9533 42.6717 27.2533 42.9717 27.6233 42.9721L84.6066 42.9721C84.9766 42.9717 85.2766 42.6717 85.277 42.3017L85.277 25.2737C85.2766 24.9037 84.9766 24.6038 84.6066 24.6034Z" fill="#3F3D56" transform="matrix(1.00436 0 0 1 65.2019 500.665)"/><path d="M52.5585 50.4101C52.4468 50.4097 52.3381 50.3737 52.2483 50.3074L51.5005 49.7642C51.3733 49.6712 51.2005 49.6712 51.0732 49.7642L50.3256 50.3074C50.0897 50.4787 49.7596 50.4264 49.5883 50.1906 49.4889 50.0539 49.4611 49.878 49.5133 49.7173L49.7989 48.8384C49.8479 48.6886 49.7945 48.5243 49.6669 48.4319L48.9191 47.8886C48.6833 47.7174 48.631 47.3873 48.8023 47.1514 48.9017 47.0147 49.0604 46.9338 49.2294 46.9338L50.1536 46.9338C50.3111 46.9341 50.451 46.8326 50.4994 46.6827L50.7849 45.8037C50.8749 45.5265 51.1727 45.3748 51.45 45.4647 51.6107 45.517 51.7366 45.643 51.7889 45.8037L52.0744 46.6827C52.1229 46.8326 52.2626 46.9341 52.4202 46.9338L53.3444 46.9338C53.6358 46.9338 53.8722 47.1702 53.8722 47.4617 53.8721 47.6306 53.7912 47.7894 53.6546 47.8886L52.9069 48.4319C52.7792 48.5243 52.7259 48.6886 52.7749 48.8384L53.0605 49.7173C53.1337 49.9347 53.0558 50.1745 52.8687 50.3074 52.7788 50.3736 52.6702 50.4097 52.5585 50.4101Z" fill="#154BAA" transform="matrix(1.00436 0 0 1 65.2019 500.665)"/><path d="M60.135 50.4101C60.0233 50.4097 59.9147 50.3737 59.8248 50.3074L59.0771 49.7642C58.9498 49.6712 58.7771 49.6712 58.6497 49.7642L57.9021 50.3074C57.6662 50.4787 57.3361 50.4264 57.1648 50.1906 57.0656 50.0539 57.0377 49.878 57.0898 49.7173L57.3754 48.8384C57.4244 48.6886 57.371 48.5243 57.2434 48.4319L56.4957 47.8886C56.2599 47.7172 56.2076 47.3873 56.379 47.1514 56.4783 47.0147 56.6371 46.9338 56.806 46.9338L57.7301 46.9338C57.8877 46.9341 58.0274 46.8326 58.0758 46.6827L58.3614 45.8037C58.4515 45.5265 58.7492 45.3748 59.0265 45.4647 59.1872 45.517 59.3133 45.643 59.3654 45.8037L59.651 46.6827C59.6994 46.8326 59.8391 46.9341 59.9968 46.9338L60.921 46.9338C61.2125 46.9338 61.4487 47.1702 61.4487 47.4617 61.4487 47.6306 61.3679 47.7894 61.2312 47.8886L60.4835 48.4319C60.3558 48.5243 60.3025 48.6885 60.3514 48.8384L60.637 49.7173C60.7104 49.9347 60.6325 50.1745 60.4453 50.3074 60.3553 50.3736 60.2467 50.4097 60.135 50.4101Z" fill="#154BAA" transform="matrix(1.00436 0 0 1 65.2019 500.665)"/><path d="M67.7116 50.4101C67.6 50.4097 67.4912 50.3736 67.4014 50.3074L66.6536 49.7642C66.5263 49.6714 66.3537 49.6714 66.2263 49.7642L65.4786 50.3074C65.2429 50.4787 64.9128 50.4264 64.7414 50.1906 64.6421 50.0539 64.6142 49.878 64.6665 49.7173L64.9519 48.8384C65.001 48.6886 64.9476 48.5243 64.82 48.4319L64.0722 47.8886C63.8364 47.7172 63.7842 47.3873 63.9556 47.1514 64.0548 47.0147 64.2135 46.9338 64.3825 46.9338L65.3067 46.9338C65.4642 46.9341 65.6039 46.8326 65.6525 46.6827L65.9381 45.8037C66.028 45.5265 66.3258 45.3748 66.6031 45.4647 66.7637 45.517 66.8897 45.643 66.9419 45.8037L67.2276 46.6827C67.276 46.8326 67.4157 46.9341 67.5733 46.9338L68.4975 46.9338C68.789 46.9338 69.0253 47.1702 69.0252 47.4617 69.0252 47.6306 68.9444 47.7894 68.8077 47.8886L68.0601 48.4319C67.9323 48.5243 67.879 48.6886 67.928 48.8384L68.2135 49.7173C68.2868 49.9347 68.2089 50.1745 68.0219 50.3074 67.9319 50.3736 67.8233 50.4097 67.7116 50.4101Z" fill="#154BAA" transform="matrix(1.00436 0 0 1 65.2019 500.665)"/><path d="M80.3216 50.4622C80.1989 50.4617 80.0796 50.4223 79.9807 50.3495 79.7752 50.2036 79.6895 49.9401 79.7701 49.7012L80.0557 48.8223C80.0977 48.6939 80.0519 48.5531 79.9425 48.474L79.1948 47.9307C78.9357 47.7424 78.8784 47.3799 79.0666 47.1208 79.1756 46.9707 79.35 46.8819 79.5356 46.8819L80.4598 46.8819C80.5948 46.8822 80.7147 46.795 80.7561 46.6666L81.0417 45.7876C81.1407 45.4831 81.4678 45.3164 81.7723 45.4154 81.9487 45.4728 82.0871 45.6111 82.1445 45.7876L82.4301 46.6666C82.4716 46.795 82.5914 46.8821 82.7264 46.8819L83.6506 46.8819C83.9708 46.8819 84.2304 47.1415 84.2304 47.4617 84.2304 47.6472 84.1416 47.8215 83.9914 47.9307L83.2437 48.474C83.1343 48.5531 83.0885 48.6939 83.1305 48.8223L83.4161 49.7012C83.515 50.0057 83.3484 50.3328 83.0438 50.4318 82.8673 50.489 82.6741 50.4585 82.5239 50.3493L81.7763 49.8062C81.6672 49.7265 81.519 49.7265 81.4099 49.8062L80.6623 50.3493C80.5636 50.4223 80.4442 50.4617 80.3216 50.4622ZM81.5932 49.4782C81.7156 49.4782 81.8349 49.5171 81.9339 49.5892L82.6815 50.1324C82.8206 50.2336 83.0156 50.2028 83.1167 50.0636 83.1754 49.9829 83.1919 49.879 83.1611 49.784L82.8755 48.9052C82.7973 48.6662 82.8825 48.4043 83.0861 48.257L83.8337 47.7137C83.9729 47.6125 84.0039 47.4177 83.9027 47.2785 83.8441 47.1978 83.7504 47.1501 83.6506 47.1501L82.7264 47.1501C82.4751 47.1505 82.2523 46.9887 82.1751 46.7495L81.8895 45.8706C81.8363 45.7069 81.6605 45.6173 81.4969 45.6704 81.402 45.7012 81.3276 45.7756 81.2967 45.8706L81.0111 46.7495C80.9339 46.9887 80.7111 47.1505 80.4598 47.1501L79.5356 47.1501C79.3636 47.1501 79.224 47.2895 79.224 47.4615 79.224 47.5613 79.2717 47.655 79.3524 47.7137L80.1002 48.257C80.3037 48.4044 80.3889 48.6662 80.3107 48.9052L80.0251 49.784C79.9719 49.9478 80.0615 50.1235 80.2252 50.1766 80.3201 50.2075 80.424 50.1911 80.5046 50.1324L81.2523 49.5892C81.3513 49.5171 81.4706 49.4782 81.5932 49.4782Z" fill="#3F3D56" transform="matrix(1.00436 0 0 1 65.2019 500.665)"/><path d="M72.6791 50.4406C72.5564 50.4401 72.4371 50.4007 72.3383 50.3279 72.1327 50.182 72.0471 49.9185 72.1276 49.6796L72.4132 48.8007C72.4552 48.6724 72.4095 48.5316 72.3001 48.4524L71.5523 47.9091C71.2933 47.721 71.2359 47.3584 71.4241 47.0993 71.5331 46.9492 71.7076 46.8603 71.8931 46.8603L72.8173 46.8603C72.9524 46.8606 73.0722 46.7736 73.1137 46.645L73.3992 45.7661C73.4982 45.4616 73.8253 45.295 74.1298 45.3939 74.3063 45.4512 74.4446 45.5895 74.502 45.7661L74.7876 46.645C74.8292 46.7736 74.9489 46.8606 75.0839 46.8603L76.0081 46.8603C76.3283 46.8603 76.5879 47.1199 76.5879 47.4401 76.5879 47.6257 76.4991 47.8001 76.349 47.9091L75.6012 48.4524C75.4918 48.5315 75.4461 48.6724 75.4881 48.8007L75.7736 49.6796C75.8726 49.9842 75.7059 50.3112 75.4013 50.4102 75.2249 50.4676 75.0316 50.4369 74.8815 50.3279L74.1339 49.7847C74.0247 49.7051 73.8766 49.7051 73.7674 49.7847L73.0198 50.3279C72.9211 50.4007 72.8018 50.4402 72.6791 50.4406ZM73.9507 49.4566C74.0731 49.4566 74.1925 49.4955 74.2914 49.5676L75.039 50.1109C75.1782 50.212 75.3731 50.1813 75.4742 50.042 75.533 49.9613 75.5495 49.8574 75.5186 49.7626L75.233 48.8836C75.1549 48.6448 75.24 48.3828 75.4437 48.2354L76.1913 47.6922C76.3305 47.5911 76.3614 47.3961 76.2602 47.2569 76.2016 47.1762 76.1079 47.1285 76.0081 47.1285L75.0839 47.1285C74.8327 47.1289 74.6098 46.9671 74.5326 46.7279L74.247 45.849C74.1938 45.6853 74.018 45.5957 73.8544 45.6489 73.7595 45.6798 73.6851 45.7541 73.6543 45.849L73.3687 46.7279C73.2915 46.9671 73.0686 47.129 72.8173 47.1285L71.8931 47.1285C71.7211 47.1285 71.5816 47.2679 71.5816 47.4401 71.5816 47.5398 71.6293 47.6336 71.71 47.6922L72.4577 48.2354C72.6613 48.3828 72.7464 48.6448 72.6683 48.8836L72.3827 49.7626C72.3294 49.9262 72.4191 50.1019 72.5827 50.1552 72.6776 50.186 72.7815 50.1695 72.8621 50.1109L73.6099 49.5676C73.7088 49.4955 73.8282 49.4566 73.9507 49.4566Z" fill="#3F3D56" transform="matrix(1.00436 0 0 1 65.2019 500.665)"/><path d="M34.0591 28.3575C33.5777 28.3575 33.1876 28.7477 33.1876 29.2291 33.1876 29.7104 33.5777 30.1006 34.0591 30.1006L78.1708 30.1006C78.652 30.1006 79.0423 29.7104 79.0423 29.2291 79.0423 28.7477 78.652 28.3575 78.1708 28.3575Z" fill="#CCCCCC" transform="matrix(1.00436 0 0 1 65.2019 500.665)"/><path d="M34.0591 32.9162C33.5777 32.9162 33.1876 33.3064 33.1876 33.7877 33.1876 34.2691 33.5777 34.6592 34.0591 34.6592L78.1708 34.6592C78.652 34.6592 79.0423 34.2691 79.0423 33.7877 79.0423 33.3064 78.652 32.9162 78.1708 32.9162Z" fill="#CCCCCC" transform="matrix(1.00436 0 0 1 65.2019 500.665)"/><path d="M34.0591 37.4749C33.5777 37.4749 33.1876 37.865 33.1876 38.3464 33.1876 38.8277 33.5777 39.2179 34.0591 39.2179L78.1708 39.2179C78.652 39.2179 79.0423 38.8277 79.0423 38.3464 79.0423 37.865 78.652 37.4749 78.1708 37.4749Z" fill="#CCCCCC" transform="matrix(1.00436 0 0 1 65.2019 500.665)"/><path d="M34.0591 28.3575C33.5777 28.3575 33.1876 28.7477 33.1876 29.2291 33.1876 29.7104 33.5777 30.1006 34.0591 30.1006L78.1708 30.1006C78.652 30.1006 79.0423 29.7104 79.0423 29.2291 79.0423 28.7477 78.652 28.3575 78.1708 28.3575Z" fill="#CCCCCC" transform="matrix(1.00436 0 0 1 65.2019 500.665)"/><path d="M34.0591 32.9162C33.5777 32.9162 33.1876 33.3064 33.1876 33.7877 33.1876 34.2691 33.5777 34.6592 34.0591 34.6592L78.1708 34.6592C78.652 34.6592 79.0423 34.2691 79.0423 33.7877 79.0423 33.3064 78.652 32.9162 78.1708 32.9162Z" fill="#CCCCCC" transform="matrix(1.00436 0 0 1 65.2019 500.665)"/><path d="M34.0591 37.4749C33.5777 37.4749 33.1876 37.865 33.1876 38.3464 33.1876 38.8277 33.5777 39.2179 34.0591 39.2179L78.1708 39.2179C78.652 39.2179 79.0423 38.8277 79.0423 38.3464 79.0423 37.865 78.652 37.4749 78.1708 37.4749Z" fill="#CCCCCC" transform="matrix(1.00436 0 0 1 65.2019 500.665)"/></g></svg>