<svg xmlns="http://www.w3.org/2000/svg" xmlns:xlink="http://www.w3.org/1999/xlink" data-name="Layer 1" width="518.73706" height="619.10262"><rect id="backgroundrect" width="100%" height="100%" x="0" y="0" fill="none" stroke="none"/><g class="currentLayer" style=""><title>Layer 1</title><path d="M227.02853027343747,617.5070153076172 H192.04353027343745 c-1.49755,0 -2.716,-1.53808 -2.716,-3.42835 V576.9038753076172 c0,-1.8902700000000001 1.2184300000000001,-3.42835 2.716,-3.42835 H227.02853027343747 c1.49755,0 2.716,1.53808 2.716,3.42835 v37.17479 C229.74453027343748,615.9689353076172 228.52606027343745,617.5070153076172 227.02853027343747,617.5070153076172 z" fill="#ffffff" id="svg_1" class="" fill-opacity="1"/><path d="M67.58653027343752,599.7094653076172 a2.26935,2.26935 0 0 1 -1.6446900000000002,-3.9333299999999998 l0.15550000000000003,-0.6181900000000001 q-0.030710000000000005,-0.07426000000000002 -0.06179000000000001,-0.14839000000000002 a6.0941600000000005,6.0941600000000005 0 0 0 -11.24138,0.041760000000000005 c-1.83859,4.42818 -4.17942,8.86389 -4.7558,13.54595 a18.02889,18.02889 0 0 0 0.31649000000000005,6.20046 a72.28129,72.28129 0 0 1 -6.57515,-30.02076 a69.76619,69.76619 0 0 1 0.43274,-7.783 q0.35850000000000004,-3.17781 0.99471,-6.31034 a73.11893,73.11893 0 0 1 14.50012,-30.98962 a19.459,19.459 0 0 0 8.093,-8.39652 a14.84331,14.84331 0 0 0 1.3499100000000002,-4.05617 c-0.3940000000000001,0.051670000000000015 -1.48556,-5.94866 -1.1884000000000001,-6.3168 c-0.54906,-0.8331700000000001 -1.53178,-1.24733 -2.13144,-2.06034 c-2.98232,-4.04341 -7.0912,-3.33741 -9.2362,2.15726 c-4.5822400000000005,2.31266 -4.6266,6.14806 -1.815,9.83683 c1.78878,2.34682 2.03456,5.52233 3.6040900000000002,8.03479 c-0.16151000000000004,0.20670000000000002 -0.3294500000000001,0.40700000000000003 -0.49090000000000006,0.6136600000000001 a73.59144,73.59144 0 0 0 -7.681,12.16859 a30.59244,30.59244 0 0 0 -1.8264,-14.20959 c-1.7481900000000001,-4.21731 -5.02491,-7.76915 -7.91045,-11.415 a6.2792200000000005,6.2792200000000005 0 0 0 -11.184,3.08332 q-0.008860000000000002,0.08063000000000002 -0.017310000000000006,0.16120000000000004 q0.6429000000000001,0.36267000000000005 1.25864,0.7699200000000002 a3.0782,3.0782 0 0 1 -1.2410700000000001,5.60174 l-0.06277000000000002,0.009670000000000003 a30.628,30.628 0 0 0 0.8073400000000001,4.5793800000000005 c-3.70179,14.31579 4.29011,19.5299 15.70147,19.76412 c0.25191,0.12916999999999998 0.49739000000000005,0.25833 0.7492900000000001,0.38109000000000004 a75.11456,75.11456 0 0 0 -4.04326,19.02779 a71.24459,71.24459 0 0 0 0.051670000000000015,11.50323 l-0.019380000000000005,-0.13563 a18.82564,18.82564 0 0 0 -6.4266,-10.87027 c-4.94561,-4.06264 -11.93283,-5.55869 -17.26826,-8.82426 a3.533,3.533 0 0 0 -5.41121,3.43709 l0.021820000000000003,0.1426 a20.67715,20.67715 0 0 1 2.3187100000000003,1.11733 q0.6428800000000001,0.36276 1.25864,0.7699200000000002 a3.07824,3.07824 0 0 1 -1.24108,5.6018 l-0.06282000000000001,0.009650000000000002 c-0.045190000000000015,0.006460000000000002 -0.08400000000000002,0.012950000000000001 -0.12911,0.019440000000000002 a30.65462,30.65462 0 0 0 5.63854,8.82922 c2.31464,12.49712 12.256,13.68282 22.89023,10.04354 h0.006480000000000002 a75.09206,75.09206 0 0 0 5.0444,14.7262 h18.02018 c0.06464000000000002,-0.20021000000000003 0.12274000000000002,-0.40692000000000006 0.18090000000000003,-0.6071700000000001 a20.47485,20.47485 0 0 1 -4.9863,-0.29700000000000004 c1.3370000000000002,-1.64059 2.6740000000000004,-3.2941000000000003 4.011,-4.93462 a1.11757,1.11757 0 0 0 0.08400000000000002,-0.09690000000000003 c0.6781700000000002,-0.8396000000000001 1.3628200000000001,-1.6728300000000003 2.041,-2.51245 l0.0003600000000000001,-0.0010000000000000002 a29.99043,29.99043 0 0 0 -0.8787500000000001,-7.63984 z" fill="#ffffff" id="svg_2" class="" fill-opacity="1"/><path d="M501.3842402734375,143.2472553076172 c0,-1.47834 -1.7227100000000002,-2.6767600000000003 -3.84784,-2.6767600000000003 c-2.12506,0 -3.84778,1.19842 -3.84778,2.6767600000000003 s1.7227200000000003,2.6766900000000002 3.84778,2.6766900000000002 C499.6615302734375,145.92400530761716 501.3842402734375,144.72558530761717 501.3842402734375,143.2472553076172 z" fill="#f2f2f2" id="svg_3"/><ellipse cx="473.1110534667969" cy="149.2698974609375" rx="3.8478400707244873" ry="2.676759958267212" fill="#f2f2f2" id="svg_4"/><ellipse cx="507.2396545410156" cy="162.31907653808594" rx="3.8478400707244873" ry="2.676759958267212" fill="#f2f2f2" id="svg_5"/><path d="M517.3651302734374,171.1513153076172 a1.50511,1.50511 0 0 1 -0.56,-0.05000000000000001 a2.52593,2.52593 0 0 1 -1.45,-2.13 a2.39013,2.39013 0 0 1 0.9900599999999999,-2.5300000000000002 a1.09676,1.09676 0 0 1 0.35000000000000003,-0.11000000000000001 c0.93,-0.13 1.83,0.8500000000000001 2.01,2.18 C518.8851502734375,169.8413153076172 518.2851802734375,171.02137530761718 517.3651302734374,171.1513153076172 z" fill="#f2f2f2" id="svg_6"/><path d="M299.58303027343754,211.28008530761718 c-0.18328000000000003,-1.3305 -1.0822100000000001,-2.30572 -2.00775,-2.17816 c-0.9256000000000001,0.1275 -1.52728,1.30945 -1.344,2.6399500000000002 c0.18335,1.33051 1.08227,2.30567 2.00781,2.17817 C299.16470027343746,213.7925353076172 299.76638027343745,212.61053530761717 299.58303027343754,211.28008530761718 z" fill="#f2f2f2" id="svg_7"/><path d="M490.2646102734375,158.29882530761716 c-0.92559,0.1275 -1.52728,1.30951 -1.344,2.6399500000000002 c0.18335,1.33051 1.08227,2.30573 2.00781,2.17817 c0.9256000000000001,-0.12751 1.52728,-1.30945 1.34393,-2.64 C492.0890802734375,159.14648530761718 491.19015027343755,158.1713153076172 490.2646102734375,158.29882530761716 z" fill="#f2f2f2" id="svg_8"/><path d="M503.3760002734375,152.75671530761718 c-0.18335,-1.3304500000000001 -1.08227,-2.30567 -2.00781,-2.17817 c-0.9256000000000001,0.12757 -1.52728,1.30951 -1.34393,2.64 c0.18329000000000004,1.33044 1.0822100000000001,2.30566 2.00775,2.17816 C502.95761027343747,155.2691653076172 503.55929027343745,154.0872153076172 503.3760002734375,152.75671530761718 z" fill="#f2f2f2" id="svg_9"/><ellipse cx="824.0565795898438" cy="284.8121643066406" rx="1.6916999816894531" ry="2.4318199157714844" transform="matrix(0.99064,-0.1365,0.1365,0.99064,-371.79485,-25.30098) " fill="#f2f2f2" id="svg_10"/><path d="M392.0551402734375,285.4713153076172 h-62.63 a11.555,11.555 0 1 0 0,23.11005 h62.63 a11.555,11.555 0 1 0 0,-23.11 z" fill="#ffffff" id="svg_11" class="" fill-opacity="1"/><path d="M435.69515027343755,284.4713153076172 a14.147,14.147 0 0 0 -10.22,4.22 a11.883610000000001,11.883610000000001 0 0 0 -3.48,8.34 c0,6.92 6.14,12.55 13.7,12.55 h45.67 c0.27,-0.33000000000000007 0.54,-0.6700000000000002 0.81,-1 c0.27,-0.33000000000000007 0.53,-0.6600000000000001 0.79,-1 h-47.27 c-6.35,0 -11.52,-4.73 -11.52,-10.55 a10.0271,10.0271 0 0 1 3.03,-7.12 a11.96215,11.96215 0 0 1 8.49,-3.44 h62.15 c0.2,-0.31000000000000005 0.3899500000000001,-0.6200000000000001 0.5800000000000001,-0.93 c0.22000000000000003,-0.36000000000000004 0.44000000000000006,-0.7100000000000001 0.6500000000000001,-1.07 z" fill="#f2f2f2" id="svg_12"/><path d="M284.9501602734375,124.4755253076172 h-10.61 a2.18934,2.18934 0 0 0 -2.19,2.19 v10.620000000000001 a2.18938,2.18938 0 0 0 2.19,2.19 h10.61 a2.19794,2.19794 0 0 0 2.2,-2.19 v-10.620000000000001 A2.1979,2.1979 0 0 0 284.9501602734375,124.4755253076172 z" fill="#f2f2f2" id="svg_13"/><path d="M284.9501602734375,411.4755253076172 h-10.61 a2.18934,2.18934 0 0 0 -2.19,2.19 v10.620000000000001 a2.18938,2.18938 0 0 0 2.19,2.19 h10.61 a2.19794,2.19794 0 0 0 2.2,-2.19 v-10.620000000000001 A2.1979,2.1979 0 0 0 284.9501602734375,411.4755253076172 z" fill="#f2f2f2" id="svg_14"/><path d="M431.3051402734375,130.9713153076172 h-33 a6.11,6.11 0 0 0 0,12.22 h33 a6.11,6.11 0 0 0 0,-12.22 z" fill="#ffffff" id="svg_15" class="" fill-opacity="1"/><path d="M475.11513027343744,160.80708957630156 h-120.63 a22.17533,22.17533 0 0 0 -22.16,22.15 v36.33 a22.19245,22.19245 0 0 0 22.16,22.17 h120.63 a22.186,22.186 0 0 0 22.16,-22.17 V182.95702957630158 A22.16892,22.16892 0 0 0 475.11513027343744,160.80708957630156 zm19.72,58.48 a19.72775,19.72775 0 0 1 -19.72,19.72 h-86.6 a53.08067,53.08067 0 0 1 -7.17,-0.4800000000000001 h-0.010000000000000004 c-0.18000000000000005,-0.020000000000000007 -0.3700000000000001,-0.05000000000000002 -0.55,-0.08000000000000003 a53.73389,53.73389 0 0 1 -46.02,-53.19 v-2.3 a19.74491,19.74491 0 0 1 19.72,-19.71 h120.63 a19.73853,19.73853 0 0 1 19.72,19.71 z" fill="#ffffff" id="svg_16" class="" fill-opacity="1"/><path d="M320.1708645421219,357.8056010389328 h-0.020000000000000007 c-69.11,-12.81 -122.37,-95.23 -122.37,-194.94995 V154.43560103893282 c0,-39.74 23.25,-72.13 51.81,-72.13 L486.6542445421219,74.2656010389328 c-1.53,-3.02 0.7066300000000002,2.05 -0.9434,-0.8900000000000002 h-236.12 c-32.11,0 -58.23,36.34 -58.23,81.06 V287.3856010389328 c0,44.73 26.12,81.14 58.23,81.14 h194.41 c2.95,-2.92 -3.14669,2.8 -0.3466400000000001,-0.26 l-104.64341,-8.71 A101.052,101.052 0 0 1 320.1708645421219,357.8056010389328 z" fill="#ffffff" id="svg_17" class="" fill-opacity="1"/><path d="M114.15017027343748,219.11210530761718 a38.58882,38.58882 0 0 1 -3.7772,1.5384799999999998 a31.02374,31.02374 0 0 0 -5.70825,-6.748 a31.52232,31.52232 0 0 1 0.7640000000000001,8.22285 a65.43456,65.43456 0 0 1 -21.337,1.43234 q1.11408,-4.02649 2.22817,-8.06367 a15.42176,15.42176 0 0 1 -15.97884,3.98942 a26.67848,26.67848 0 0 0 11.77721,-9.98416 a18.39543,18.39543 0 0 0 2.09022,-15.04515 c-1.20957,-3.6605 -3.72416,-6.81168 -4.64723,-10.53584 c-1.18833,-4.79579 2.88592,-8.90191 3.6923000000000004,-13.75074 c0.98673,-5.9416400000000005 27.35292,2.90716 26.4086,5.825 c1.9522300000000001,1.3157100000000002 2.01589,4.20163 1.20957,6.40855 c-0.80638,2.21748 -2.2812,4.15915 -2.8010900000000003,6.451 c-0.5092599999999999,2.29176 6.33422,24.08492 3.6392700000000002,23.00274 A14.09847,14.09847 0 0 1 114.15017027343748,219.11210530761718 z" fill="#dadada" id="svg_18" class="" fill-opacity="1"/><path d="M150.34341027343748,284.0854753076172 L98.7159302734375,259.8283153076172 a9.20713,9.20713 0 0 1 -4.44274,-12.12958 l0,0 a9.20715,9.20715 0 0 1 12.63,-4.361 l52.85584,26.84133 l32.80471,14.95592 a8.03455,8.03455 0 1 1 -1.3446,10.22357 z" fill="#3f3d56" id="svg_19"/><path d="M107.00718027343748,269.51514530761716 h0 a2.715,2.715 0 0 1 -3.159,-0.923 a3.52208,3.52208 0 0 0 -1.76532,-1.2248 a3.23871,3.23871 0 0 0 -0.41495000000000004,-0.09255000000000002 a5.312,5.312 0 0 1 -4.02538,-2.81413 c-1.26391,-2.51465 -3.91878,-4.619 -6.44459,-6.12961 c-2.76392,-1.6529000000000003 -5.65894,-3.18089 -7.94685,-5.44741 c-3.30028,-3.26952 -5.23647,-8.49091 -1.35514,-12.77588 a10.693,10.693 0 0 1 6.36278,-3.2936 c5.085,-0.7650700000000001 9.92613,1.3112300000000001 14.538499999999999,3.34187 l-1.43336,-1.6960000000000002 a40.8832,40.8832 0 0 0 15.915,3.74066 c-0.7048900000000001,1.025 0.45430000000000004,2.472 1.69346,2.581 a7.14885,7.14885 0 0 0 3.51111,-1.11091 c1.41884,-0.6674300000000001 3.27145,-1.07381 4.279,0.5710000000000001 a3.34743,3.34743 0 0 1 0.29273,2.6660000000000004 A63.26269,63.26269 0 0 1 114.92476027343753,269.7833153076172 c-1.23962,1.489 -2.72579,3.01667 -4.651,3.23414 S106.2089502734375,271.2804853076172 107.00718027343748,269.51514530761716 z" fill="#3f3d56" id="svg_20"/><path d="M150.34341027343748,284.0854753076172 L98.7159302734375,259.8283153076172 a9.20713,9.20713 0 0 1 -4.44274,-12.12958 l0,0 a9.20715,9.20715 0 0 1 12.63,-4.361 l52.85584,26.84133 l32.80471,14.95592 a8.03455,8.03455 0 1 1 -1.3446,10.22357 z" fill="#a0616a" id="svg_21"/><path d="M107.00718027343748,269.51514530761716 h0 a2.715,2.715 0 0 1 -3.159,-0.923 a3.52208,3.52208 0 0 0 -1.76532,-1.2248 a3.23871,3.23871 0 0 0 -0.41495000000000004,-0.09255000000000002 a5.312,5.312 0 0 1 -4.02538,-2.81413 c-1.26391,-2.51465 -3.91878,-4.619 -6.44459,-6.12961 c-2.76392,-1.6529000000000003 -5.65894,-3.18089 -7.94685,-5.44741 c-3.30028,-3.26952 -5.23647,-8.49091 -1.35514,-12.77588 a10.693,10.693 0 0 1 6.36278,-3.2936 c5.085,-0.7650700000000001 9.92613,1.3112300000000001 14.538499999999999,3.34187 l-1.43336,-1.6960000000000002 a40.8832,40.8832 0 0 0 15.915,3.74066 c-0.7048900000000001,1.025 0.45430000000000004,2.472 1.69346,2.581 a7.14885,7.14885 0 0 0 3.51111,-1.11091 c1.41884,-0.6674300000000001 3.27145,-1.07381 4.279,0.5710000000000001 a3.34743,3.34743 0 0 1 0.29273,2.6660000000000004 A63.26269,63.26269 0 0 1 114.92476027343753,269.7833153076172 c-1.23962,1.489 -2.72579,3.01667 -4.651,3.23414 S106.2089502734375,271.2804853076172 107.00718027343748,269.51514530761716 z" fill="#21be7f" id="svg_22"/><polygon points="104.5 595.099 115.977 595.099 121.437 550.828 104.498 550.829 104.5 595.099" fill="#a0616a" id="svg_23"/><path d="M119.7965302734375,596.1323953076172 v-7.781 l-3.01734,0.18434000000000003 l-12.28262,0.7276500000000001 l-2.84266,0.17462 l-2.17322,26.05943 l-0.11642000000000002,1.39708 h8.14958 l0.262,-1.3873600000000001 l1.18361,-6.30626 l3.05613,6.30626 l0.6694400000000001,1.3873600000000001 H134.29123027343752 a4.88192,4.88192 0 0 0 4.851,-4.86067 C140.0541802734375,607.7747153076172 122.08618027343749,598.5675853076172 119.7965302734375,596.1323953076172 z" fill="#2f2e41" id="svg_24"/><polygon points="76.899 374.853 94.93 479.213 102.174 562.82 126.15 567.476 130.507 458.192 116.566 383.357 76.899 374.853" fill="#2f2e41" id="svg_25"/><polygon points="194.678 552.577 205.974 550.546 203.517 506.007 186.845 509.005 194.678 552.577" fill="#a0616a" id="svg_26"/><path d="M209.9158502734375,550.8875553076172 L208.53953027343755,543.2293153076172 l-2.93716,0.7151700000000001 L193.64211027343754,546.8333153076172 l-2.76694,0.6747000000000002 l2.47065,26.03292 l0.13255,1.39564 l8.02107,-1.44156 l0.012430000000000002,-1.4118300000000001 l0.049440000000000005,-6.41618 l4.12345,5.66622 l0.90428,1.24707 l21.26551,-3.82188 a4.8819300000000005,4.8819300000000005 0 0 0 3.91468,-5.64211 C231.91343027343748,558.7629453076172 212.60015027343752,552.8793153076172 209.9158502734375,550.8875553076172 z" fill="#2f2e41" id="svg_27"/><path d="M63.055680273437474,334.1559553076172 l-0.7368300000000001,19.79837 s-10.19072,44.79245 21.8203,50.65682 s75.3661,16.46011 75.3661,16.46011 l28.64492,100.40427 l17,-3 s-2,-85 -5,-97 s2.4874,-25.48422 -24.2563,-36.74211 s-53.4376,-29.20935 -53.4376,-29.20935 l-5.88991,-33.53662 z" fill="#2f2e41" id="svg_28"/><path d="M64.9881702734375,237.50644530761718 l3.84532,-11.536 a13.57547,13.57547 0 0 1 12.03736,-9.25642 l3.4166600000000003,-0.21219000000000002 a13.57548,13.57548 0 0 1 13.81337,9.54649 v0 a13.52353,13.52353 0 0 0 11.74051,9.51558 c9.98666,0.8508400000000002 11.30959,21.48024 11.30959,31.91156 c0,15.73031 -10.37159,30.62922 -7.00081,34 s9.49438,18.91259 5,23 c-1.171,1.065 1.62507,11.331150000000001 2,15 c0.6790000000000002,6.64428 -39.30809,-5.777 -52.79122,-1.96924 s-6.74156,-24.71907 -8.98875,-26.96625 c-1.51762,-1.51762 5.89886,-5.67949 4.38129,-8.22189 a13.53363,13.53363 0 0 1 -1.6574400000000002,-4.3209 l-5.8699200000000005,-19.58661 c-0.06442000000000002,-0.32600000000000007 -0.11600000000000002,-0.6454300000000001 -0.15624000000000005,-0.9753299999999999 c-0.51119,-4.19231 -7.35369,-34.80125 4.08228,-38.95978 C72.50970027343749,233.98114530761717 64.9881702734375,237.50644530761718 64.9881702734375,237.50644530761718 z" fill="#21be7f" id="svg_29"/><path d="M251.0567902734375,324.4663153076172 c-3.0835,-6.32611 -9.31781,-10.40564 -15.26343,-14.1709 q-31.534,-19.97031 -63.06805,-39.94049 c-7.21979,-4.5722000000000005 -15.21015,-9.3316 -23.69373,-8.30231 c-10.48535,1.27222 -17.733,10.76728 -23.72363,19.46637 c-5.4328,7.889 -11.05261,16.29523 -11.67713,25.85352 c-0.6244500000000001,9.55835 5.93,20.27875 15.50629,20.49475 q-13.2376,11.3963 -26.47516,22.7926 l37.701,0.5947300000000001 l1.04114,-4.00726 q27.129269999999998,14.2954 54.25842,28.59076 c5.49,2.89288 11.27808,5.861 17.483,5.772 c11.17591,-0.16028000000000003 19.56964,-9.836 26.39716,-18.68536 C248.1813002734375,351.7280253076172 257.2530802734375,337.1785253076172 251.0567902734375,324.4663153076172 z" fill="#fff" id="svg_30"/><path d="M254.5257202734375,331.6561853076172 a23.15264,23.15264 0 0 0 -7.23291,-14.72534 c-4.26629,-4.147 -9.53155,-7.16388 -14.52643,-10.32709 q-18.07956,-11.44959 -36.159,-22.89923 q-9.24994,-5.8579 -18.49994,-11.71588 c-5.47431,-3.4668 -10.89551,-7.202 -16.96161,-9.57538 c-5.47113,-2.14062 -11.51581,-2.77228 -17.10376,-0.6785900000000001 c-4.99353,1.871 -9.1388,5.37885 -12.64258,9.32569 a120.98967,120.98967 0 0 0 -10.05475,13.63177 c-3.41608,5.1521 -6.61468,10.61969 -8.21606,16.63916 a24.95137,24.95137 0 0 0 0.545,15.64087 c1.71185,4.36725 4.68707,8.44336 8.9079,10.667300000000001 a14.93231,14.93231 0 0 0 3.11529,1.2157 l-24.09558,20.744 a1.5151599999999998,1.5151599999999998 0 0 0 1.06067,2.56067 l37.701,0.5947300000000001 a1.50091,1.50091 0 0 0 0,-3 q-16.86923,-0.26615 -33.73852,-0.53223 q11.78667,-10.14724 23.5733,-20.29443 a1.5156100000000001,1.5156100000000001 0 0 0 -1.06061,-2.56067 c-9.32385,-0.32855000000000006 -14.59314,-10.88959 -13.9906,-19.20831 c0.41980000000000006,-5.79682 2.87885,-11.22779 5.78461,-16.17688 a141.902,141.902 0 0 1 9.4331,-13.94879 c3.03913,-3.9961 6.50354,-7.901 10.8086,-10.56318 a19.57138,19.57138 0 0 1 15.079,-2.46643 c5.87939,1.39655 11.09112,4.71827 16.13684,7.91272 q8.40975,5.32425 16.81811,10.65082 q17.23864,10.917 34.47724,21.83411 c5.22271,3.30749 10.5473,6.4967 15.6485,9.99023 c4.36529,2.98963 8.64636,6.594 10.77282,11.5744 c4.52381,10.59528 -1.91357,22.17548 -7.85968,30.76056 a115.13631,115.13631 0 0 1 -10.17871,12.84693 c-3.41235,3.67187 -7.32458,7.1784 -12.02582,9.0907 c-5.277,2.14648 -10.69494,1.5990600000000001 -15.92144,-0.4268200000000001 a80.77318,80.77318 0 0 1 -8.36182,-4.04309 q-4.52151,-2.3825700000000003 -9.04309,-4.765140000000001 c-11.91034,-6.276 -27.79316,-26.6732 -40.95966,-26.54771 c-3.32395,0.03168000000000001 -6.81866,4.75981 -5.10815,5.66111 q19.189,10.11146 38.37793,20.22278 c6.21191,3.27332 12.38513,6.63721 18.65088,9.80627 c5.48236,2.77277 11.43017,5.14972 17.69244,4.37958 c11.03247,-1.35675 18.862000000000002,-10.717 25.23505,-18.965700000000002 a89.29038,89.29038 0 0 0 10.04577,-15.51159 C253.15701027343755,343.2847853076172 255.0161402734375,337.48785530761717 254.5257202734375,331.6561853076172 z" fill="#ccc" id="svg_31"/><path d="M193.47929027343753,310.34171530761716 h0 c-0.03955000000000001,0.008530000000000003 -0.07793000000000001,0.019510000000000003 -0.11732000000000002,0.028420000000000004 a11.5777,11.5777 0 0 0 -13.70907,-8.67022 h0 a11.57808,11.57808 0 0 0 -8.909,13.607 l-0.0038400000000000014,0.0008300000000000002 l0.03277000000000001,0.15206000000000003 v0 l4.84705,22.48792 l22.64,-4.8798200000000005 l-0.014000000000000002,-0.06482000000000002 c0.03776,-0.007740000000000002 0.07546000000000001,-0.013280000000000004 0.11324000000000002,-0.021420000000000005 l0,0 a11.579930000000001,11.579930000000001 0 0 0 8.88008,-13.75987 v0 A11.57994,11.57994 0 0 0 193.47929027343753,310.34171530761716 z" fill="#21be7f" id="svg_32"/><path d="M433.4421602734375,268.1796753076172 v0 c-0.0024200000000000007,0.04039000000000001 -0.0021600000000000005,0.08031 -0.004170000000000001,0.12064000000000001 A11.5777,11.5777 0 0 0 421.4015302734375,279.1739053076172 v0 a11.57806,11.57806 0 0 0 10.71107,12.239 l-0.0002400000000000001,0.003930000000000001 l0.15527000000000002,0.009310000000000002 h0 l22.96311,1.37687 l1.38618,-23.11841 l-0.06619000000000003,-0.004000000000000001 c0.0027000000000000006,-0.03846 0.007500000000000002,-0.07625000000000001 0.009810000000000003,-0.11483000000000002 v0 a11.57994,11.57994 0 0 0 -10.86608,-12.25228 h0 A11.57994,11.57994 0 0 0 433.4421602734375,268.1796753076172 z" fill="#21be7e" id="svg_33" class="" fill-opacity="1"/><path d="M241.44216027343748,107.17967530761717 v0 c-0.0024200000000000007,0.04039000000000001 -0.0021600000000000005,0.08031 -0.004170000000000001,0.12064000000000001 A11.5777,11.5777 0 0 0 229.40153027343752,118.17390530761719 v0 a11.57806,11.57806 0 0 0 10.71107,12.239 l-0.0002400000000000001,0.003930000000000001 l0.15527000000000002,0.009310000000000002 h0 l22.96311,1.37687 l1.38618,-23.11841 l-0.06619000000000003,-0.004000000000000001 c0.0027000000000000006,-0.03846 0.007500000000000002,-0.07625000000000001 0.009810000000000003,-0.11483000000000002 v0 a11.57994,11.57994 0 0 0 -10.86608,-12.25228 h0 A11.57994,11.57994 0 0 0 241.44216027343748,107.17967530761717 z" fill="#21be7e" id="svg_34" class="" fill-opacity="1"/><path d="M130.8390102734375,303.8184753076172 l-47.446,-31.66522 a9.20713,9.20713 0 0 1 -2.58948,-12.6554 l0,0 a9.20715,9.20715 0 0 1 13.13805,-2.43423 l48.27637,34.40334 L172.4337302734375,311.1351153076172 a8.03456,8.03456 0 1 1 -2.85005,9.90993 z" fill="#a0616a" id="svg_35"/><path d="M90.15153027343752,282.9653953076172 h0 a2.715,2.715 0 0 1 -2.9866,-1.38253 a3.5220000000000002,3.5220000000000002 0 0 0 -1.56353,-1.47371 a3.23671,3.23671 0 0 0 -0.3965800000000001,-0.15323000000000003 a5.31206,5.31206 0 0 1 -3.56211,-3.38147 c-0.8758900000000002,-2.67465 -3.1882800000000002,-5.15047 -5.46136,-7.01986 c-2.48738,-2.04556 -5.123,-3.9871 -7.04837,-6.56866 c-2.77735,-3.724 -3.91551,-9.17523 0.5599000000000001,-12.83534 a10.693,10.693 0 0 1 6.78184,-2.31073 c5.14225,-0.0003500000000000001 9.620750000000001,2.7728200000000003 13.87984,5.46681 l-1.1652,-1.8902800000000002 a40.883,40.883 0 0 0 15.18176,6.06587 c-0.84948,0.9088 0.08162000000000003,2.51213 1.2907899999999999,2.80419 a7.14881,7.14881 0 0 0 3.63728,-0.57641 c1.50231,-0.44900000000000007 3.39476,-0.57535 4.14651,1.201 a3.3474500000000003,3.3474500000000003 0 0 1 -0.10700000000000001,2.6799 a63.2624,63.2624 0 0 1 -15.39751,20.81713 c-1.44726,1.28807 -3.1441,2.57776 -5.08021,2.5065 S89.0996202734375,284.5924053076172 90.15153027343752,282.9653953076172 z" fill="#21be7f" id="svg_36"/><circle cx="83.94493865966797" cy="192.7361297607422" r="21.52235984802246" fill="#a0616a" id="svg_37"/><path d="M109.84247027343753,183.35598530761717 a7.33689,7.33689 0 0 1 -4.8276,3.62871 a13.94291,13.94291 0 0 1 -4.35012,0.35009 a9.58533,9.58533 0 0 0 -2.87537,-5.05036 a8.348510000000001,8.348510000000001 0 0 1 -1.10342,4.58351 a48.75482,48.75482 0 0 1 -9.54911,-2.5357700000000003 c1.4111,1.8779500000000002 0.5305,4.636620000000001 -0.9549400000000001,6.45091 c-1.49606,1.8250000000000002 -3.52257,3.183 -4.76393,5.17774 c-1.24143,1.99471 -1.31565,5.08229 0.7002400000000001,6.28124 c0.80638,0.47740000000000005 1.80373,0.5729200000000001 2.5994900000000003,1.07157 c1.6870000000000003,1.09287 1.75069,3.54381 1.32626,5.5066500000000005 l10.61012,10.38735 A79.85447,79.85447 0 0 1 83.6885302734375,221.91319530761717 a18.59172,18.59172 0 0 0 -4.98677,-7.04514 a14.12842,14.12842 0 0 1 -0.08490000000000002,7.66054 c-11.76665,1.22013 -25.093,1.22013 -31.24682,-1.65517 c1.5809000000000002,-2.29182 3.17242,-4.5835799999999995 4.75338,-6.886 a15.43207,15.43207 0 0 1 -16.40327,-1.47476 a26.657,26.657 0 0 0 14.40856,-5.57031 a18.41931,18.41931 0 0 0 6.90714,-13.52791 c0.06365000000000001,-3.85148 -1.28379,-7.64992 -0.9336400000000001,-11.48016 c0.45622999999999997,-4.91249 3.7560000000000002,-9.28385 8,-11.77727 a26.16161,26.16161 0 0 1 14.24939,-3.14055 a76.57768,76.57768 0 0 1 14.56767,2.38727 c1.2732299999999999,0.28643 2.5464599999999997,0.58355 3.81968,0.8806600000000001 a44.1893,44.1893 0 0 1 6.18566,1.7400000000000002 a13.02667,13.02667 0 0 1 6.016,4.26529 A7.10089,7.10089 0 0 1 109.84247027343753,183.35598530761717 z" fill="#eaeaea" id="svg_38" class="" fill-opacity="1"/><path d="M471.05884027343745,47.31338530761718 h-281.52 a1,1 0 0 1 0,-2 h280.4 C470.31885027343753,45.97342530761719 470.68885027343754,46.6434053076172 471.05884027343745,47.31338530761718 z" fill="#f2f2f2" id="svg_40"/><ellipse cx="247.11181640625" cy="8.64507007598877" rx="8.456609725952148" ry="8.64507007598877" fill="#f2f2f2" id="svg_41"/><ellipse cx="276.3255615234375" cy="8.64507007598877" rx="8.456609725952148" ry="8.64507007598877" fill="#f2f2f2" id="svg_42"/><path d="M309.6369902734375,15.477875307617182 a0.9967400000000001,0.9967400000000001 0 0 1 -0.7148400000000001,-0.30078000000000005 l-5.70606,-5.833 a0.99954,0.99954 0 0 1 0,-1.3984400000000001 l5.70606,-5.83252 a1,1 0 0 1 1.42969,1.3984400000000001 l-5.022,5.1333 l5.022,5.13379 a1,1 0 0 1 -0.7148500000000001,1.6992200000000002 z" fill="#f2f2f2" id="svg_43"/><path d="M319.22537027343753,15.477875307617182 a1,1 0 0 1 -0.7148400000000001,-1.6992200000000002 l5.02148,-5.13379 l-5.02148,-5.1333 a1,1 0 0 1 1.42968,-1.3984400000000001 l5.70557,5.83252 a0.99954,0.99954 0 0 1 0,1.3984400000000001 l-5.70557,5.833 A0.99672,0.99672 0 0 1 319.22537027343753,15.477875307617182 z" fill="#f2f2f2" id="svg_44"/><path d="M427.30884027343745,5.543375307617197 h-84.81 a2.67,2.67 0 0 0 0,5.34 h84.81 a2.67,2.67 0 0 0 0,-5.34 z" fill="#f2f2f2" id="svg_45"/><circle cx="415.6707458496094" cy="192.6546347141266" r="20.77252960205078" fill="#ffffff" id="svg_46" class="" fill-opacity="1"/><polygon points="463.4599914550781,241.3537074327469 370.4599914550781,241.02372086048126 399.7860107421875,233.6917201280594 403.4389953613281,221.63170731067657 431.5559997558594,221.47271072864532 439.9750061035156,233.39872086048126 461.2359924316406,238.90970718860626 463.1669921875,239.4107142686844 463.4599914550781,241.3537074327469 " fill="#ffffff" id="svg_47" class="" fill-opacity="1"/><path d="M403.86517027343746,206.63169957630157 c4.45759,-3.48428 -1.6358100000000002,-18.81181 5.72533,-15.54019 c0,0 8.997,-5.72534 10.80454,-1.963 c2.093,4.35646 9.53675,2.38014 14.10886,0.84247 a11.10825,11.10825 0 0 1 -0.7606400000000004,-2.60912 a20.887,20.887 0 0 0 2.67451,1.79121 a5.42883,5.42883 0 0 0 1.6358100000000002,-1.3413700000000004 a3.3222,3.3222 0 0 0 0.41714,-3.77053 c-0.7606400000000004,-1.1696 -2.331,-1.52948 -3.25524,-2.56823 a1.11837,1.11837 0 0 1 -0.15350000000000005,-1.02749 a2.93921,2.93921 0 0 0 -2.6335,-3.68088 a1.05684,1.05684 0 0 1 -0.501,-0.10911000000000003 a11.459,11.459 0 0 1 -2.13472,-1.6848800000000004 c1.07146,0.049070000000000016 -0.23878000000000005,-6.50954 -10.8618,-5.26731 c-2.67451,-0.09814000000000006 -4.07122,2.85153 -6.70485,3.31774 c-6.384,-3.648 -12.0824,1.6142500000000002 -14.85511,6.64434 S391.5965902734375,200.90635957630155 403.86517027343746,206.63169957630157 z" fill="#ffffff" id="svg_48" class="" fill-opacity="1"/></g></svg>