<svg width="81" height="80" xmlns="http://www.w3.org/2000/svg" xmlns:xlink="http://www.w3.org/1999/xlink" overflow="hidden"><defs><clipPath id="clip0"><rect x="24" y="612" width="81" height="80"/></clipPath></defs><g clip-path="url(#clip0)" transform="translate(-24 -612)"><path d="M40 8.3375C22.511 8.3375 8.33333 22.5152 8.33333 40.0042 8.33333 57.4932 22.511 71.6708 40 71.6708 57.489 71.6708 71.6667 57.4932 71.6667 40.0042 71.6667 22.5152 57.489 8.3375 40 8.3375ZM52.7292 57.5042 40 48.6917 27.2692 57.5042 31.675 42.8167 20.4167 33.025 35.1025 33.025 40 18.3375 44.8942 33.025 59.5833 33.025 48.3208 42.8167Z" fill="#D4AF37" transform="matrix(1.0125 0 0 1 24 612)"/></g></svg>