<?xml version="1.0" encoding="UTF-8" standalone="no"?>
<svg
   width="217.64099"
   height="207.56609"
   overflow="hidden"
   version="1.1"
   id="svg96"
   sodipodi:docname="wave.svg"
   inkscape:version="1.1.2 (b8e25be833, 2022-02-05)"
   xmlns:inkscape="http://www.inkscape.org/namespaces/inkscape"
   xmlns:sodipodi="http://sodipodi.sourceforge.net/DTD/sodipodi-0.dtd"
   xmlns="http://www.w3.org/2000/svg"
   xmlns:svg="http://www.w3.org/2000/svg">
  <sodipodi:namedview
     id="namedview98"
     pagecolor="#505050"
     bordercolor="#ffffff"
     borderopacity="1"
     inkscape:pageshadow="0"
     inkscape:pageopacity="0"
     inkscape:pagecheckerboard="1"
     showgrid="false"
     fit-margin-top="0"
     fit-margin-left="0"
     fit-margin-right="0"
     fit-margin-bottom="0"
     inkscape:zoom="3.0402299"
     inkscape:cx="6.4139887"
     inkscape:cy="107.22873"
     inkscape:window-width="1920"
     inkscape:window-height="1017"
     inkscape:window-x="-8"
     inkscape:window-y="-8"
     inkscape:window-maximized="1"
     inkscape:current-layer="svg96" />
  <defs
     id="defs24">
    <clipPath
       id="clip0">
      <rect
         x="473"
         y="25"
         width="348"
         height="263"
         id="rect2" />
    </clipPath>
    <linearGradient
       x1="169.528"
       y1="141.52299"
       x2="165.42999"
       y2="11.2665"
       gradientUnits="userSpaceOnUse"
       spreadMethod="pad"
       id="fill1">
      <stop
         offset="0"
         stop-color="#4D4D4D"
         stop-opacity="0"
         id="stop5" />
      <stop
         offset="0.41"
         stop-color="#344B51"
         stop-opacity="0.41"
         id="stop7" />
      <stop
         offset="0.98"
         stop-color="#114956"
         id="stop9" />
      <stop
         offset="1"
         stop-color="#114956"
         id="stop11" />
    </linearGradient>
    <linearGradient
       x1="126.159"
       y1="193.549"
       x2="185.345"
       y2="129.804"
       gradientUnits="userSpaceOnUse"
       spreadMethod="pad"
       id="fill2">
      <stop
         offset="0"
         stop-color="#808080"
         stop-opacity="0"
         id="stop14" />
      <stop
         offset="1"
         stop-color="#0071BC"
         id="stop16" />
    </linearGradient>
    <linearGradient
       x1="148.58701"
       y1="172.112"
       x2="176.52299"
       y2="128.429"
       gradientUnits="userSpaceOnUse"
       spreadMethod="pad"
       id="fill3">
      <stop
         offset="0"
         stop-color="#808080"
         stop-opacity="0"
         id="stop19" />
      <stop
         offset="1"
         stop-color="#0071BC"
         id="stop21" />
    </linearGradient>
  </defs>
  <g
     clip-path="url(#clip0)"
     transform="translate(-545.93859,-49.347358)"
     id="g94">
    <path
       d="m 97.5792,151.972 -22.62,13.502 c -1.9616,1.167 -2.6059,3.703 -1.4392,5.665 0.3628,0.609 0.8763,1.115 1.4914,1.469 l 97.9796,56.55 c 3.427,1.978 7.648,1.978 11.075,0 L 287.84,169.241 c 2.621,-1.515 3.518,-4.867 2.003,-7.488 -0.48,-0.832 -1.172,-1.522 -2.003,-2.004 L 186.92,101.503"
       fill="#01b1c8"
       transform="matrix(1,0,0,1.00272,473,25.6446)"
       id="path26" />
    <path
       d="m 235.004,57.3069 c 1.74,-4.3935 0.166,-9.6744 -3.802,-12.8325 -4.349,-3.48 -12.597,-4.8285 -17.887,-2.0793 -0.442,-4.3915 -3.055,-8.2692 -6.96,-10.3269 -6.429,-3.3582 -13.737,-1.6791 -19.305,2.4795 v 0 c 0.061,-4.002 -1.531,-7.6299 -6.386,-8.7 -6.177,-1.3746 -12.858,1.6791 -17.208,5.9595 -0.23,-1.3729 -0.769,-2.6759 -1.575,-3.8106 -2.071,-2.7579 -5.968,-3.9411 -9.257,-4.2717 -3.48,-0.348 -7.308,0.3219 -10.057,2.61 -2.097,1.74 -3.402,4.4022 -4.524,7.0383 -1.209,2.3577 -2.027,4.5675 -3.663,5.22 -4.124,1.6182 -3.201,-3.48 -12.51,3.5931 -9.309,7.0731 -6.03,11.7537 -14.729,19.0443 -8.7005,7.2906 -9.614,23.8554 -9.5705,24.2121 L 201.84,87.3393 c 0.78,-7.4897 4.132,-14.4777 9.483,-19.7751 l 12.876,6.2466 c 0,0 -3.802,14.3637 6.473,16.4517 10.275,2.088 12.815,-1.8009 14.859,-18.7659 1.218,-9.8223 -5.046,-13.137 -10.527,-14.1897 z m -14.946,4.1847 -5.925,3.6279 c 1.821,-1.4451 3.81,-2.6633 5.925,-3.6279 z"
       fill="#60eaea"
       transform="matrix(1,0,0,1.00272,473,25.6446)"
       id="path28" />
    <path
       d="m 233.969,141.062 c -17.53,-6.751 -22.977,-34.974 -21.907,-46.1798 1.071,-11.2056 10.658,-21.9762 18.645,-18.183 7.986,3.7932 0,13.5459 0,13.5633 3.897,-4.7589 6.62,-10.2225 4.254,-16.3995 -2.123,-5.5506 -6.96,-9.048 -12.719,-10.1877 -0.992,-0.1914 -12.094,-2.262 -11.563,-3.1146 0,0 -12.267,20.01 -11.893,42.7953 1.479,9.909 3.089,17.522 3.089,17.522 -1.995,-5.629 -3.039,-11.55 -3.089,-17.522 -1.983,-13.2936 -3.706,-30.7284 -0.948,-39.498 -4.154,2.8266 -9.078,4.3059 -14.103,4.2369 0,0 -18.835,7.8735 -14.085,29.7975 -6.366,-12.2732 -7.617,-26.5666 -3.48,-39.759 -7.569,-2.7579 -11.58,5.046 -17.009,9.9702 -6.902,11.0672 -8.933,24.4922 -5.611,37.1054 7.195,28.527 17.992,33.53 17.992,33.53 0,0 -33.774,-10.562 -35.801,-33.53 -1.143,-13.7102 0.045,-27.5155 3.515,-40.829 -0.922,-0.9309 -1.853,-1.8792 -2.801,-2.7927 -9.449,9.8745 -35.6705,45.1707 -5.96,109.8287 0,0 -26.4828,-19.636 -29.7714,-56.367 -0.5203,-5.946 -0.2045,-11.934 0.9396,-17.7917 -6.4815,30.8417 1.9401,59.4207 25.6998,85.5297 29.632,32.564 102.356,19.531 102.356,19.531 43.369,-4.471 31.781,-54.505 14.25,-61.256 z"
       fill="#01b1c8"
       transform="matrix(1,0,0,1.00272,473,25.6446)"
       id="path30" />
    <path
       d="m 99.18,74.0022 c -2.3481,5.39 -4.3187,10.9366 -5.8986,16.5996 4.7415,-16.0776 14.3726,-28.5708 20.1406,-35.0088 -4.289,1.1832 -8.97,6.2814 -14.242,18.4092 z"
       fill="#01b1c8"
       transform="matrix(1,0,0,1.00272,473,25.6446)"
       id="path32" />
    <path
       d="m 91.6719,97.2921 c 0.4637,-2.2159 1.0092,-4.4457 1.6356,-6.6903 -0.6438,2.1663 -1.2006,4.4022 -1.6356,6.6903 z"
       fill="#008caf"
       transform="matrix(1,0,0,1.00272,473,25.6446)"
       id="path34" />
    <path
       d="m 90.7236,115.084 c 3.2886,36.731 29.7714,56.367 29.7714,56.367 -29.7279,-64.658 -3.48,-99.9544 5.96,-109.8289 -4.09,-3.9759 -8.335,-7.308 -13.05,-6.0291 -5.769,6.438 -15.3908,18.9312 -20.141,35.0088 -0.6203,2.2385 -1.1658,4.4692 -1.6356,6.6903 -1.1319,5.8589 -1.4364,11.8479 -0.9048,17.7919 z"
       fill="#008caf"
       transform="matrix(1,0,0,1.00272,473,25.6446)"
       id="path36" />
    <path
       d="m 125.715,105.209 c 2.018,22.968 35.801,33.53 35.801,33.53 0,0 -10.806,-5.003 -17.992,-33.53 -3.303,-12.6175 -1.255,-26.0394 5.664,-37.0967 -2.61,2.3838 -5.586,4.0977 -9.449,3.6105 -3.532,-0.4437 -6.96,-3.7584 -10.44,-7.2993 -3.487,13.2956 -4.699,27.0857 -3.584,40.7855 z"
       fill="#008caf"
       transform="matrix(1,0,0,1.00272,473,25.6446)"
       id="path38" />
    <path
       d="m 169.65,97.8924 c -4.724,-21.9153 14.103,-29.8062 14.103,-29.8062 -16.113,0 -4.237,-3.6018 -16.4,-9.4656 -0.371,-0.1785 -0.751,-0.3382 -1.139,-0.4785 -4.149,13.1841 -2.913,27.4736 3.436,39.7503 z"
       fill="#008caf"
       transform="matrix(1,0,0,1.00272,473,25.6446)"
       id="path40" />
    <path
       d="m 198.778,103.347 c -0.366,-22.7763 11.893,-42.795 11.893,-42.795 -5.168,-3.0363 -8.022,0.174 -12.85,3.2973 -2.75,8.7696 -1.018,26.2044 0.957,39.4977 z"
       fill="#008caf"
       transform="matrix(1,0,0,1.00272,473,25.6446)"
       id="path42" />
    <path
       d="m 198.778,103.347 c 0.041,5.97 1.076,11.892 3.062,17.522 0,0 -1.583,-7.612 -3.062,-17.522 z"
       fill="#008caf"
       transform="matrix(1,0,0,1.00272,473,25.6446)"
       id="path44" />
    <path
       d="m 233.969,141.062 c -17.53,-6.751 -22.977,-34.974 -21.907,-46.1798 1.071,-11.2056 10.658,-21.9762 18.645,-18.183 7.986,3.7932 0,13.5459 0,13.5633 3.897,-4.7589 6.62,-10.2225 4.254,-16.3995 -2.123,-5.5506 -6.96,-9.048 -12.719,-10.1877 -0.992,-0.1914 -12.094,-2.262 -11.563,-3.1146 0,0 -12.267,20.01 -11.893,42.7953 1.479,9.909 3.089,17.522 3.089,17.522 -1.995,-5.629 -3.039,-11.55 -3.089,-17.522 -1.983,-13.2936 -3.706,-30.7284 -0.948,-39.498 -4.154,2.8266 -9.078,4.3059 -14.103,4.2369 0,0 -18.835,7.8735 -14.085,29.7975 -6.366,-12.2732 -7.617,-26.5666 -3.48,-39.759 -7.569,-2.7579 -11.58,5.046 -17.009,9.9702 -6.902,11.0672 -8.933,24.4922 -5.611,37.1054 7.195,28.527 17.992,33.53 17.992,33.53 0,0 -33.774,-10.562 -35.801,-33.53 -1.143,-13.7102 0.045,-27.5155 3.515,-40.829 -0.922,-0.9309 -1.853,-1.8792 -2.801,-2.7927 -9.449,9.8745 -35.6705,45.1707 -5.96,109.8287 0,0 -26.4828,-19.636 -29.7714,-56.367 -0.5203,-5.946 -0.2045,-11.934 0.9396,-17.7917 -6.4815,30.8417 1.9401,59.4207 25.6998,85.5297 29.632,32.564 102.356,19.531 102.356,19.531 43.369,-4.471 31.781,-54.505 14.25,-61.256 z"
       fill="url(#fill1)"
       transform="matrix(1,0,0,1.00272,473,25.6446)"
       id="path46"
       style="fill:url(#fill1)" />
    <path
       d="m 234.308,200.152 c -1.879,0.279 -53.774,-12.119 -85.895,-41.316 0,0 22.838,30.546 42.082,37.201 31.738,11.023 43.813,4.115 43.813,4.115 z"
       fill="#60eaea"
       transform="matrix(1,0,0,1.00272,473,25.6446)"
       id="path48" />
    <path
       d="m 246.053,193.375 c 3.976,-2.427 2.871,-1.653 10.727,-6.195 -8.325,-1.67 -41.499,-7.334 -74.115,-38.975 0,0 5.986,33.32 56.811,48.824 z"
       fill="#60eaea"
       transform="matrix(1,0,0,1.00272,473,25.6446)"
       id="path50" />
    <path
       d="m 283.82,171.503 c 0,0 -51.06,-10.805 -69.957,-29.754 0,0 26.153,29.032 54.097,38.907"
       fill="#60eaea"
       transform="matrix(1,0,0,1.00272,473,25.6446)"
       id="path52" />
    <path
       d="m 148.413,158.845 c 0,0 14.503,45.605 58.647,57.063 0,0 16.878,-9.57 26.692,-15.382 0,0 -30.598,-2.453 -43.222,-11.632"
       fill="#60eaea"
       transform="matrix(1,0,0,1.00272,473,25.6446)"
       id="path54" />
    <path
       d="m 89.5491,82.65 c 0,0 -11.2491,-17.1042 -4.6197,-17.7393 6.6294,-0.6351 -0.1392,9.6483 4.6197,17.7393 z"
       fill="#01b1c8"
       transform="matrix(1,0,0,1.00272,473,25.6446)"
       id="path56" />
    <path
       d="m 94.1949,66.3897 c 1.2424,-3.0941 3.2042,-5.8471 5.7246,-8.0301 3.4795,-3.045 7.6035,-4.9416 9.9525,-8.439 0.026,-0.5568 -0.072,-1.1125 -0.287,-1.6269 -0.933,-2.0245 -3.276,-2.9791 -5.359,-2.1837 -1.173,0.4377 -2.225,1.1473 -3.071,2.0706 -2.758,-1.4094 8.308,-9.657 0.705,-12.5976 -7.465,-2.8884 -8.9266,11.3796 -8.8831,20.3319 -0.0174,2.0554 0.0966,4.1098 0.3393,6.1509 0.087,0.5742 0.5655,2.5665 0.8787,4.3239 z"
       fill="#01b1c8"
       transform="matrix(1,0,0,1.00272,473,25.6446)"
       id="path58" />
    <path
       d="m 137.46,208.678 66.12,-53.592 -80.91,11.623 -28.7709,16.774 c 5.4375,3.35 38.1669,21.706 43.5609,25.195 z"
       fill="url(#fill2)"
       transform="matrix(1,0,0,1.00272,473,25.6446)"
       id="path60"
       style="fill:url(#fill2)" />
    <path
       d="m 220.049,130.169 -2.201,11.58 c 0,0 -33.469,32.712 -48.224,38.907 -14.755,6.194 -40.281,12.005 -42.822,10.205 -2.54,-1.801 -2.697,-6.03 -2.697,-6.03"
       fill="#008caf"
       transform="matrix(1,0,0,1.00272,473,25.6446)"
       id="path62" />
    <path
       d="M 220.049,130.169 204.807,121 c -17.548,7.168 -35.009,14.72 -51.992,23.15 -14.485,7.23 -25.795,15.156 -31.45,30.859 -0.966,2.688 -3.532,8.848 -1.253,11.51 2.897,3.376 33.138,-0.278 51.461,-13.537 18.322,-13.259 48.476,-42.813 48.476,-42.813 z"
       fill="#68e1fd"
       transform="matrix(1,0,0,1.00272,473,25.6446)"
       id="path64" />
    <path
       d="M 220.049,130.169 204.807,121 c -17.548,7.168 -35.009,14.72 -51.992,23.15 -14.485,7.23 -25.795,15.156 -31.45,30.859 -0.966,2.688 -3.532,8.848 -1.253,11.51 2.897,3.376 33.138,-0.278 51.461,-13.537 18.322,-13.259 48.476,-42.813 48.476,-42.813 z"
       fill="#41311a"
       fill-opacity="0.41"
       transform="matrix(1,0,0,1.00272,473,25.6446)"
       id="path66" />
    <path
       d="m 220.049,127.359 -15.242,-9.169 c -17.548,7.168 -35.009,14.72 -51.992,23.15 -14.485,7.186 -25.795,15.156 -31.45,30.859 -0.966,2.688 -3.532,8.848 -1.253,11.51 2.897,3.376 33.138,-0.278 51.461,-13.537 18.322,-13.259 48.476,-42.813 48.476,-42.813 z"
       fill="#68e1fd"
       transform="matrix(1,0,0,1.00272,473,25.6446)"
       id="path68" />
    <path
       d="m 196.62,121 c 0,0 -11.31,15.868 -2.479,30.537 l -6.091,5.368 c 0,0 -4.523,-22.09 5.003,-33.835 z"
       fill="#fffcff"
       transform="matrix(1,0,0,1.00272,473,25.6446)"
       id="path70" />
    <path
       d="m 152.815,141.34 -14.285,42.143 11.232,-2.854 c 0,0 7.83,-27.509 8.552,-41.986 z"
       fill="#fffcff"
       transform="matrix(1,0,0,1.00272,473,25.6446)"
       id="path72" />
    <path
       d="m 140.209,180.656 44.231,-32.121 -10.657,-5.977 -47.32,31.703 c 5.499,3.341 8.387,2.906 13.746,6.395 z"
       fill="url(#fill3)"
       transform="matrix(1,0,0,1.00272,473,25.6446)"
       id="path74"
       style="fill:url(#fill3)" />
    <path
       d="m 152.955,102.825 c 0,0 -5.629,4.037 -3.854,10.936 1.774,6.899 8.874,14.79 8.874,14.79 0,0 -4.089,7.099 -4.611,10.249 -0.522,3.149 -1.897,13.798 -1.897,13.798 0,0 3.115,1.383 5.22,-0.792 0,0 9.387,-18.139 9.979,-22.28 0.592,-4.142 -5.307,-13.607 -5.307,-13.607 0,0 8.856,6.307 10.631,7.099 1.775,0.792 -1.383,16.53 0,17.348 1.384,0.818 5.125,2.166 6.708,0.391 1.583,-1.775 3.158,-20.306 1.183,-22.672 -1.975,-2.366 -14.955,-14.938 -14.955,-14.938"
       fill="#41311a"
       transform="matrix(1,0,0,1.00272,473,25.6446)"
       id="path76" />
    <path
       d="m 161.324,82.65 c -3.525,0.5368 -6.972,1.4978 -10.266,2.8623 -4.35,2.0097 -11.31,5.8029 -10.823,8.9262 0.488,3.1233 6.029,9.3785 6.029,9.3785 l 3.794,-1 -2.61,-7.4824 c 0,0 6.359,-3.7584 6.699,-2.1054 0.339,1.653 -3.828,12.4758 -3.828,12.4758 0,0 9.857,-1.218 14.546,-2.558 0,0 3.541,-12.6148 5.116,-13.1716 3.139,-0.9979 6.523,-0.9179 9.613,0.2262 4.02,1.566 15.069,4.1325 15.069,4.1325 l 0.87,-3.48 c 0,0 -8.483,-3.8106 -16.409,-6.96 -4.939,-1.8766 -10.25,-2.5622 -15.503,-2.001"
       fill="#68e1fd"
       transform="matrix(1,0,0,1.00272,473,25.6446)"
       id="path78" />
    <path
       d="m 157.418,78.4131 c -0.967,-1.5023 -0.967,-3.4306 0,-4.9329 1.67,-2.4969 5.072,-2.0097 5.837,-1.8009 0.766,0.2088 5.412,2.7057 5.003,5.6202 -0.409,2.9145 -4.054,5.8725 -4.054,5.8725"
       fill="#41311a"
       transform="matrix(1,0,0,1.00272,473,25.6446)"
       id="path80" />
    <path
       d="m 157.07,76.0554 c -0.192,-0.6264 0.696,8.8827 5.22,8.1954 1.376,-0.3771 2.493,-1.384 3.01,-2.7144 0,0 0.87,-2.2881 0,-2.7057 -0.87,-0.4176 -1.044,0.5568 -1.044,0.5568 0,0 -0.139,-1.8009 -1.322,-2.0793 -1.184,-0.2784 -5.238,0.7569 -5.864,-1.2528 z"
       fill="#f8c6af"
       transform="matrix(1,0,0,1.00272,473,25.6446)"
       id="path82" />
    <path
       d="m 163.255,71.6793 c 0,0 -0.87,-3.2625 0,-3.4017 0.87,-0.1392 1.462,2.4969 1.462,2.4969 0,0 1.323,-3.6801 2.427,-3.5409 1.105,0.1392 0,3.7497 0,3.7497 0,0 2.08,-3.48 2.985,-3.1233 0.904,0.3567 -0.975,3.1929 -0.975,3.1929 0,0 4.028,0.5568 3.819,1.1832 -0.208,0.6264 -2.914,0.5568 -2.914,0.5568 0,0 2.427,1.4616 2.149,2.2881 -0.279,0.8265 -2.288,-0.2784 -2.497,-0.7656 -0.209,-0.4872 1.74,2.2968 0.974,3.0189 -0.765,0.7221 -1.94,-1.74 -1.94,-1.74 0,0 0.766,2.4273 0.139,2.9841 -0.626,0.5568 -1.679,-2.0184 -1.679,-2.0184"
       fill="#41311a"
       transform="matrix(1,0,0,1.00272,473,25.6446)"
       id="path84" />
    <path
       d="m 155.878,151.806 c 0,0 2.767,3.95 4.794,5.412 2.027,1.461 2.366,1.357 1.574,2.479 -0.791,1.123 -4.619,1.688 -6.203,0.566 -1.583,-1.123 -5.072,-4.176 -4.959,-5.22 0.113,-1.044 0.618,-4.394 0.618,-4.394"
       fill="#f8c6af"
       transform="matrix(1,0,0,1.00272,473,25.6446)"
       id="path86" />
    <path
       d="m 176.897,141.175 c 0,0 2.767,3.95 4.794,5.411 2.027,1.462 2.366,1.357 1.575,2.48 -0.792,1.122 -4.62,1.688 -6.204,0.565 -1.583,-1.122 -5.072,-4.176 -4.959,-5.22 0.113,-1.044 0.618,-4.393 0.618,-4.393"
       fill="#f8c6af"
       transform="matrix(1,0,0,1.00272,473,25.6446)"
       id="path88" />
    <path
       d="m 146.256,103.834 c 0,0 -1.558,3.367 -1.375,5.742 0.183,2.376 3.097,3.385 3.967,2.924 0.87,-0.461 1.053,-4.281 1.053,-4.281 0,0 0.452,2.445 1.183,1.897 0.731,-0.548 -1.026,-7.291 -1.026,-7.291"
       fill="#f8c6af"
       transform="matrix(1,0,0,1.00272,473,25.6446)"
       id="path90" />
    <path
       d="m 195.593,90.8889 c 0,0 2.845,0.5655 4.116,0 2.089,-0.7352 4.264,-1.2006 6.472,-1.3833 2.193,-0.1566 1.984,1.4616 0.792,1.4703 -1.192,0.0087 -3.985,0.6351 -4.446,1.5399 -0.461,0.9048 -1.548,2.7405 -3.645,2.7405 -2.097,0 -5.22,-1.5051 -5.22,-1.5051"
       fill="#f8c6af"
       transform="matrix(1,0,0,1.00272,473,25.6446)"
       id="path92" />
  </g>
</svg>
