<?xml version="1.0" encoding="utf-8"?>
<!-- Generator: Adobe Illustrator 24.0.2, SVG Export Plug-In . SVG Version: 6.00 Build 0)  -->
<svg version="1.1" id="Layer_1" xmlns="http://www.w3.org/2000/svg" xmlns:xlink="http://www.w3.org/1999/xlink" x="0px" y="0px"
	 viewBox="0 0 326.3 214" style="enable-background:new 0 0 326.3 214;" xml:space="preserve">
<style type="text/css">
	.st0{opacity:0.7;}
	.st1{fill:url(#SVGID_1_);}
	.st2{fill:#EEEEEE;}
	.st3{fill:url(#SVGID_2_);}
	.st4{fill:url(#SVGID_3_);}
	.st5{fill:#20B97C;}
	.st6{opacity:0.1;fill:#20B97C;enable-background:new    ;}
	.st7{fill:url(#SVGID_4_);}
	.st8{opacity:0.5;fill:#20B97C;enable-background:new    ;}
	.st9{opacity:0.1;enable-background:new    ;}
	.st10{fill:#535461;}
	.st11{opacity:0.1;}
	.st12{fill:url(#SVGID_5_);}
	.st13{fill:url(#SVGID_6_);}
	.st14{fill:#FFFFFF;}
	.st15{fill:#E0E0E0;}
</style>
<title>houses3</title>
<g class="st0">
	
		<linearGradient id="SVGID_1_" gradientUnits="userSpaceOnUse" x1="164.18" y1="-64.37" x2="164.18" y2="87.6" gradientTransform="matrix(1 0 0 -1 0 149.66)">
		<stop  offset="0" style="stop-color:#808080;stop-opacity:0.25"/>
		<stop  offset="0.54" style="stop-color:#808080;stop-opacity:0.12"/>
		<stop  offset="1" style="stop-color:#808080;stop-opacity:0.1"/>
	</linearGradient>
	<polygon class="st1" points="311.5,214 16.8,214 18.9,76 103.2,62.1 222.3,62.1 309.5,71.9 	"/>
</g>
<polygon class="st2" points="307.4,212.3 20.9,212.3 23,77.8 103.4,63.8 223.7,63.8 305.4,73.7 "/>
<g class="st0">
	
		<linearGradient id="SVGID_2_" gradientUnits="userSpaceOnUse" x1="120.01" y1="94.57" x2="120.01" y2="137" gradientTransform="matrix(1 0 0 -1 0 149.66)">
		<stop  offset="0" style="stop-color:#808080;stop-opacity:0.25"/>
		<stop  offset="0.54" style="stop-color:#808080;stop-opacity:0.12"/>
		<stop  offset="1" style="stop-color:#808080;stop-opacity:0.1"/>
	</linearGradient>
	<rect x="109.3" y="12.7" class="st3" width="21.5" height="42.4"/>
</g>
<g class="st0">
	
		<linearGradient id="SVGID_3_" gradientUnits="userSpaceOnUse" x1="54.92" y1="35.88" x2="54.92" y2="86.44" gradientTransform="matrix(1 0 0 -1 0 149.66)">
		<stop  offset="0" style="stop-color:#808080;stop-opacity:0.25"/>
		<stop  offset="0.54" style="stop-color:#808080;stop-opacity:0.12"/>
		<stop  offset="1" style="stop-color:#808080;stop-opacity:0.1"/>
	</linearGradient>
	<polygon class="st4" points="109.2,109.1 109.2,63.2 15.9,63.2 0,109.1 0,113.8 109.8,113.8 109.8,109.1 	"/>
</g>
<polygon class="st5" points="109.3,109.1 1.2,109.1 16.8,63.8 109.3,63.8 "/>
<polygon class="st6" points="109.7,109.1 1.6,109.1 17.3,63.8 109.7,63.8 "/>
<rect x="1.2" y="109.1" class="st5" width="108.7" height="4.6"/>
<g class="st0">
	
		<linearGradient id="SVGID_4_" gradientUnits="userSpaceOnUse" x1="271.26" y1="35.88" x2="271.26" y2="87.02" gradientTransform="matrix(1 0 0 -1 0 149.66)">
		<stop  offset="0" style="stop-color:#808080;stop-opacity:0.25"/>
		<stop  offset="0.54" style="stop-color:#808080;stop-opacity:0.12"/>
		<stop  offset="1" style="stop-color:#808080;stop-opacity:0.1"/>
	</linearGradient>
	<polygon class="st7" points="310.4,62.6 216.8,62.6 216.8,109 216.2,109 216.2,113.8 326.3,113.8 326.3,109 	"/>
</g>
<polygon class="st5" points="216.8,109.1 324.9,109.1 309.2,63.8 216.8,63.8 "/>
<polygon class="st6" points="216.5,109.1 324.6,109.1 308.9,63.8 216.5,63.8 "/>
<rect x="216.2" y="109.1" class="st5" width="108.7" height="4.6"/>
<rect x="30.2" y="132.1" class="st8" width="58.7" height="36.6"/>
<rect x="26.7" y="166.1" class="st9" width="65.7" height="6.4"/>
<rect x="26.7" y="165.5" class="st10" width="65.7" height="6.4"/>
<g class="st11">
	<rect x="30.2" y="132.1" width="58.7" height="14.5"/>
</g>
<rect x="237.7" y="132.1" class="st8" width="58.7" height="36.6"/>
<rect x="234.2" y="166.1" class="st9" width="65.7" height="6.4"/>
<rect x="234.2" y="165.5" class="st10" width="65.7" height="6.4"/>
<g class="st11">
	<rect x="237.7" y="132.1" width="58.7" height="14.5"/>
</g>
<g class="st0">
	
		<linearGradient id="SVGID_5_" gradientUnits="userSpaceOnUse" x1="164.3" y1="83.14" x2="164.3" y2="149.66" gradientTransform="matrix(1 0 0 -1 0 149.66)">
		<stop  offset="0" style="stop-color:#808080;stop-opacity:0.25"/>
		<stop  offset="0.54" style="stop-color:#808080;stop-opacity:0.12"/>
		<stop  offset="1" style="stop-color:#808080;stop-opacity:0.1"/>
	</linearGradient>
	<polygon class="st12" points="234.9,66.5 163.2,11.1 93.8,66.5 88.4,59.7 163.1,0 240.2,59.6 	"/>
</g>
<rect x="22.4" y="113.8" class="st9" width="77.3" height="0.9"/>
<rect x="227.8" y="113.8" class="st9" width="78.2" height="0.9"/>
<rect x="109.8" y="13.2" class="st10" width="20.3" height="41.8"/>
<g class="st0">
	
		<linearGradient id="SVGID_6_" gradientUnits="userSpaceOnUse" x1="162.73" y1="-62.63" x2="162.73" y2="98.06" gradientTransform="matrix(1 0 0 -1 0 149.66)">
		<stop  offset="0" style="stop-color:#808080;stop-opacity:0.25"/>
		<stop  offset="0.54" style="stop-color:#808080;stop-opacity:0.12"/>
		<stop  offset="1" style="stop-color:#808080;stop-opacity:0.1"/>
	</linearGradient>
	<polygon class="st13" points="227.8,212.3 97.6,212.3 97.6,53.1 163.3,51.6 227.8,53.1 	"/>
</g>
<polygon class="st14" points="226.4,212.3 99.7,212.3 99.7,53.1 163,8 226.4,53.1 "/>
<rect x="147" y="158.8" class="st10" width="32" height="53.5"/>
<rect x="130.2" y="110.9" class="st9" width="65.7" height="6.4"/>
<rect x="133.7" y="76.9" class="st8" width="58.7" height="36.6"/>
<rect x="130.2" y="110.3" class="st10" width="65.7" height="6.4"/>
<g class="st11">
	<rect x="133.7" y="76.9" width="58.7" height="14.5"/>
</g>
<polygon class="st5" points="234.9,67.1 163.2,11.7 93.8,67.1 88.4,60.2 163.1,0.6 240.2,60.2 "/>
<circle class="st15" cx="174.3" cy="185.6" r="2.3"/>
</svg>
