<svg xmlns="http://www.w3.org/2000/svg" xmlns:xlink="http://www.w3.org/1999/xlink" data-name="Layer 1" width="951.2354736328125" height="632.1622314453125"><rect id="backgroundrect" width="100%" height="100%" x="0" y="0" fill="none" stroke="none"/><g class="currentLayer" style=""><title>Layer 1</title><path d="M341.20849681640624,363.8150550976562 c32.59906,-57.34523 94.78224,-101.37694 160.60838,-97.13517 a303.91886,303.91886 0 0 0 -79.93135,192.74415 c-1.08086,27.64353 0.5953,58.50234 -17.75918,79.20149 c-11.42033,12.87974 -28.876640000000002,19.11743 -46.04,20.426 c-17.16419,1.3081800000000001 -34.32439,-1.7928700000000002 -51.25919,-4.88078 l-4.108,1.2610000000000001 C301.15521681640627,489.4868950976562 308.60943681640623,421.16027509765627 341.20849681640624,363.8150550976562 z" fill="#b9e8ff" id="svg_1" class="" fill-opacity="1"/><path d="M501.91487681640626,268.06052509765624 C453.23723681640627,291.49400509765627 411.7307368164063,330.63034509765623 386.2510568164063,378.36016509765625 c-5.50863,10.31908 -10.19864,21.26636 -12.24449,32.84118 c-2.04677,11.58 -0.6171200000000001,22.60314 3.3381,33.60164 c3.61588,10.05484 8.47891,19.92112 9.58764,30.67984 c1.16866,11.34025 -3.00384,21.94364 -10.51467,30.359 c-9.18971,10.29644 -21.531,16.67682 -33.81667,22.49689 c-13.64084,6.46206 -27.9118,12.958 -37.57338,25.01857 c-1.1706400000000001,1.46131 -3.36964,-0.4405700000000001 -2.20077,-1.8996700000000002 c16.8095,-20.9833 45.58314,-24.92774 65.53614,-41.8308 c9.31043,-7.8872800000000005 16.30035,-18.62816 15.85922,-31.21353 c-0.38575000000000004,-11.00537 -5.39185,-21.18385 -9.141,-31.33295 c-3.93666,-10.65673 -5.89983,-21.37183 -4.48809,-32.73356 c1.44413,-11.62241 5.716,-22.77612 10.93669,-33.19077 c11.77384,-23.48755 27.88681,-45.05091 46.345,-63.69115 a264.37529,264.37529 0 0 1 73.0986,-52.15542 c1.6814900000000002,-0.80947 2.612,1.9468900000000002 0.9415,2.75108 z" fill="#fff" id="svg_2"/><path d="M393.71464681640623,362.40884509765624 a38.97361,38.97361 0 0 1 -11.76083,-49.07724 c0.8512500000000001,-1.6656300000000002 3.47954,-0.42109 2.62716,1.24676 a36.0887,36.0887 0 0 0 11.03334,45.62971 c1.51533,1.097 -0.39300000000000007,3.29149 -1.8996700000000002,2.20077 z" fill="#fff" id="svg_3"/><path d="M374.83981681640626,439.9462450976563 A75.11847,75.11847 0 0 0 422.4004368164062,412.83702509765624 c1.17577,-1.4571100000000001 3.37512,0.4443200000000001 2.20077,1.8996700000000002 A78.13447,78.13447 0 0 1 375.05273681640625,442.8457250976562 c-1.85547,0.26565 -2.05831,-2.63524 -0.21291000000000004,-2.8994400000000002 z" fill="#fff" id="svg_4"/><path d="M450.52479681640625,299.61586509765624 a22.06094,22.06094 0 0 0 19.71762,7.02965 c1.8511900000000001,-0.28900000000000003 2.05205,2.6123000000000003 0.21291000000000004,2.89945 a24.7211,24.7211 0 0 1 -21.8302,-7.72833 a1.50247,1.50247 0 0 1 -0.15055000000000002,-2.05022 a1.461,1.461 0 0 1 2.05022,-0.15055000000000002 z" fill="#fff" id="svg_5"/><path d="M632.7910268164062,447.5830350976563 c-1.1507800000000001,0.21336000000000002 -2.30157,0.42671000000000003 -3.46287,0.6622900000000002 a290.53033,290.53033 0 0 0 -45.42472,12.55654 c-1.14909,0.4 -2.3075900000000003,0.8227200000000001 -3.44279,1.2549299999999999 a306.28393,306.28393 0 0 0 -96.32923,58.62179 a297.4401,297.4401 0 0 0 -31.20006,32.695 c-13.1961,16.12271 -26.22121,34.65379 -43.46521,45.16611 a51.02756,51.02756 0 0 1 -5.552,3.00981 l-99.33786,-41.204 c-0.17876000000000003,-0.20694000000000004 -0.36800000000000005,-0.3917800000000001 -0.54786,-0.59918 l-4.04148,-1.46379 c0.45078999999999997,-0.6364900000000001 0.932,-1.28694 1.38279,-1.92343 c0.26,-0.3703000000000001 0.542,-0.7314200000000001 0.802,-1.10173 c0.18032,-0.24400000000000002 0.36179,-0.48759 0.5105599999999999,-0.7180000000000001 c0.05971000000000001,-0.08143000000000002 0.12054000000000001,-0.16239000000000003 0.17090000000000002,-0.22127000000000002 c0.14877,-0.23046000000000003 0.3114200000000001,-0.42872000000000005 0.45078,-0.6364900000000001 q4.01975,-5.46492 8.13029,-10.89234 c0.009410000000000002,-0.022680000000000006 0.009410000000000002,-0.022680000000000006 0.04100000000000001,-0.03619000000000001 c20.95061,-27.51625 44.38244,-53.52519 71.017,-75.1508 c0.80155,-0.6503700000000001 1.61141,-1.3238800000000002 2.45834,-1.95543 a283.82353,283.82353 0 0 1 38.36428,-25.95136 a250.912,250.912 0 0 1 22.75777,-11.25342 A208.65167,208.65167 0 0 1 509.28673681640623,412.31990509765626 c43.43148,-4.033 87.66932,5.869 120.97979,33.15354 C631.1181168164062,446.17203509765625 631.9487968164062,446.8617250976563 632.7910268164062,447.5830350976563 z" fill="#b9e8ff" id="svg_6" class="" fill-opacity="1"/><path d="M632.0447368164063,448.7512050976562 c-52.975,-10.597 -109.67838,-4.3386000000000005 -158.75909,18.43049 c-10.61113,4.92262 -20.94686,10.83971 -29.5492,18.84981 c-8.60619,8.01369 -14.10139,17.67579 -17.56522,28.83879 c-3.16664,10.20524 -5.224,21.0108 -10.81619,30.26856 c-5.89451,9.75817 -15.61,15.712250000000001 -26.6736,17.90941 c-13.53663,2.6883 -27.23193,0.35234000000000004 -40.5454,-2.39747 c-14.78206,-3.05312 -30.08763,-6.45857 -45.06315,-2.64583 c-1.8144900000000002,0.462 -2.42521,-2.3805300000000003 -0.61346,-2.8418 c26.05484,-6.63351 51.40382,7.5408 77.512,6.05773 c12.18255,-0.6920000000000002 24.23036,-5.0596 31.45541,-15.37391 c6.318,-9.01942 8.449,-20.16039 11.566,-30.52112 c3.27289,-10.87894 8.15663,-20.61632 16.12437,-28.838 c8.15056,-8.41037 18.27673,-14.744 28.71548,-19.91633 c23.54187,-11.66483 49.38981,-19.18084 75.35035,-22.95093 a264.37547,264.37547 0 0 1 89.76631,2.36722 c1.82993,0.36606000000000005 0.91338,3.1271 -0.9046000000000001,2.76343 z" fill="#fff" id="svg_7"/><path d="M488.84873681640624,458.93905509765625 a38.97358,38.97358 0 0 1 20.15752,-46.26626 c1.68249,-0.81741 3.03174,1.7587100000000002 1.347,2.5772 a36.0887,36.0887 0 0 0 -18.66273,43.0756 c0.54944,1.78822 -2.2955,2.39145 -2.84179,0.61346 z" fill="#fff" id="svg_8"/><path d="M427.0953368164063,509.4843750976562 a75.11849,75.11849 0 0 0 54.29611,6.98958 c1.81607,-0.45552000000000004 2.42734,2.38682 0.61346,2.8418 a78.13454,78.13454 0 0 1 -56.48524,-7.38815 c-1.6414300000000002,-0.905 -0.05685000000000001,-3.34334 1.5756700000000001,-2.44323 z" fill="#fff" id="svg_9"/><path d="M572.0141368164062,443.00600509765627 a22.06092,22.06092 0 0 0 11.51107,17.48415 c1.6520900000000003,0.8837700000000002 0.06567000000000002,3.32125 -1.5756700000000001,2.44324 a24.7211,24.7211 0 0 1 -12.7772,-19.31393 a1.5024799999999998,1.5024799999999998 0 0 1 1.11417,-1.72763 a1.461,1.461 0 0 1 1.72763,1.11417 z" fill="#fff" id="svg_10"/><path d="M443.55914681640627,515.5614850976563 c-13.912,-67.2669 -31.302,-89.69385 -31.302,-89.69385 l-6.64343,-5.15185 l-7.98926,-6.20581 l0.03858,-0.7978500000000001 l-1.8949000000000003,-0.6441100000000001 l-0.44513,-0.34576000000000007 l-0.72943,-0.56006 l-0.11731000000000001,0.126 l-0.24768,0.25647000000000003 l-36.15234,-12.2887 l-45.86536,-15.57934 L290.97228681640627,357.07072509765624 a36.7343,36.7343 0 0 0 -29.38672,-14.33386 l-67.82916,0.5018900000000001 a36.73449,36.73449 0 0 0 -24.70972,9.80127 l-44.58306,41.35412 l-69.469,33.17786 l-0.11725000000000002,-0.11725000000000002 l-0.7294900000000001,0.52106 l-10.73358,5.13232 l0.44293000000000005,2.30561 l-6.64343,4.79376 s-17.39,20.868 -31.30206,83.459 c-3.53907,15.926 -5.28113,50.08979 -5.90992,92.1883 a16.06908,16.06908 0 0 0 16.06244,16.30737 H387.11181681640625 v-0.00006000000000000002 H433.4233368164063 a16.0717,16.0717 0 0 0 16.06262,-16.29071 C448.87182681640627,570.0617250976562 447.13042681640627,532.8327250976563 443.55914681640627,515.5614850976563 z" fill="#a5e5c5" id="svg_11" class="selected" fill-opacity="1"/><path d="M491.1662068164062,58.66225509765624 a54.43073,54.43073 0 1 0 0,108.86146 H896.8047368164063 a54.43073,54.43073 0 0 0 0,-108.86146 z" fill="#e5e5e5" id="svg_12"/><path d="M491.1662068164062,69.67799509765624 a43.415,43.415 0 1 0 0,86.83 H896.8047368164063 a43.415,43.415 0 0 0 0,-86.83 z" fill="#fff" id="svg_13"/><circle id="e096411a-cdc3-4e6d-bbd4-4630e1fee17e" data-name="ab6171fa-7d69-4734-b81c-8dff60f9761b" cx="238.32290649414062" cy="228.39205932617188" r="88.86282348632812" fill="#9e616a"/><path d="M215.59001681640626,312.90372509765626 q-0.56945,-1.25376 -1.13574,-2.51618 c0.14551000000000003,0.004660000000000001 0.28954,0.025590000000000005 0.43500000000000005,0.029400000000000006 z" fill="#2f2e41" id="svg_14"/><path d="M146.98885681640627,143.57026509765626 c4.4944500000000005,-3.5853 9.74736,-6.88419 15.49373,-6.698770000000001 c5.74613,0.18519000000000002 11.57324,5.37507 10.38275,10.99974 a91.31784,91.31784 0 0 1 109.89524,-41.20778 c14.28183,5.03874 28.28737,15.1192 31.56809,29.90415 c0.8422000000000001,3.79533 1.023,7.9568900000000005 3.39274,11.03885 c2.98786,3.88573 8.70455,4.76475 13.41179,3.3978 q0.07062000000000002,-0.020500000000000004 0.14100000000000001,-0.04154000000000001 a4.1986,4.1986 0 0 1 5.07324,5.92695 l-4.041,7.5365 a32.38317,32.38317 0 0 0 15.428,-0.32810000000000006 a4.195,4.195 0 0 1 4.45469,6.52819 c-13.32473,18.29415 -35.58607,30.10755 -58.30327,29.96873 c-16.14591,-0.09846000000000003 -32.45814,-5.66309 -48.17179,-1.95012 a41.84383,41.84383 0 0 0 -28.14382,58.74019 c-4.82733,-5.28005 -14.159,-4.03 -19.097,1.147 c-4.93774,5.177 -6.21612,12.90385 -5.71853,20.04085 c0.7607700000000002,10.91577 5.03759,21.20144 9.5463,31.21221 c-37.80123,-1.19 -73.555,-27.707 -85.58977,-63.57189 C104.62600681640626,210.19810509765625 117.29173681640626,167.26058509765625 146.98885681640627,143.57026509765626 z" fill="#dadada" id="svg_15" class="" fill-opacity="1"/><polygon points="87.464 495.253 112.388 630.86 127.343 632.162 87.464 495.253" opacity="0.2" id="svg_16"/><polygon points="362.007 485.026 337.083 630.762 322.128 632.162 362.007 485.026" opacity="0.2" id="svg_17"/><path d="M168.24706681640623,97.93207509765625 c-4.77882,1.99547 -9.765320000000001,-0.19144000000000005 -11.85656,-5.19961 c-2.12322,-5.08476 -0.14017,-10.24648 4.71525,-12.27393 c4.85588,-2.02764 9.75359,0.16460000000000002 11.911,5.33137 C175.14190681640628,90.87917509765626 173.18043681640626,95.87207509765625 168.24706681640623,97.93207509765625 zm-9.15419,-27.482 l-3.79972,1.58663 a4.09911,4.09911 0 0 1 -5.20612,-1.9094799999999998 l-0.18790000000000004,-0.36761000000000005 c-4.08846,-7.37337 -4.5566,-16.33467 -1.3840000000000001,-26.62094 c2.939,-9.22731 4.1597,-15.71683 1.7047700000000001,-21.596 c-2.8383599999999998,-6.79741 -8.8993,-8.92671 -16.62838,-5.84218 c-2.99769,1.25173 -3.95159,1.23179 -6.31064,3.572 a5.4161,5.4161 0 0 1 -3.92122,1.5934400000000002 a5.2354,5.2354 0 0 1 -3.7471300000000003,-1.6430000000000002 a5.34757,5.34757 0 0 1 -0.036840000000000005,-7.29733 a41.53525,41.53525 0 0 1 14.04574,-9.64413 c16.60647,-6.93429 24.96626,3.3032 28.79182,12.46479 c3.74183,8.96108 1.637,17.27546 -1.745,28.04341 c-2.83416,8.94752 -2.66908,15.57751 0.55033,22.16977 a4.08088,4.08088 0 0 1 -2.12565,5.49059 z" fill="#0b42a6" id="svg_18"/><path d="M580.7665668164062,139.05272509765626 h-80.707 a1.944,1.944 0 1 1 0,-3.88791 h80.707 a1.944,1.944 0 0 1 0,3.88791 z" fill="#0b42a6" id="svg_19"/><path d="M683.1481768164062,139.70066509765627 h-80.707 a1.944,1.944 0 1 1 0,-3.88791 h80.707 a1.944,1.944 0 1 1 0,3.88791 z" fill="#0b42a6" id="svg_20"/><path d="M785.5297868164063,140.34865509765626 H704.8227368164063 a1.944,1.944 0 0 1 0,-3.88791 h80.707 a1.944,1.944 0 1 1 0,3.88791 z" fill="#0b42a6" id="svg_21"/><path d="M887.9114068164063,140.99663509765622 h-80.707 a1.944,1.944 0 0 1 0,-3.88791 h80.707 a1.944,1.944 0 0 1 0,3.88791 z" fill="#0b42a6" id="svg_22"/><circle cx="540.2354736328125" cy="106.16224670410156" r="15" fill="#0b42a6" id="svg_23"/><circle cx="643.2354736328125" cy="106.16224670410156" r="15" fill="#0b42a6" id="svg_24"/><circle cx="746.2354736328125" cy="106.16224670410156" r="15" fill="#0b42a6" id="svg_25"/><circle cx="849.2354736328125" cy="106.16224670410156" r="15" fill="#0b42a6" id="svg_26"/></g></svg>