<?xml version="1.0" encoding="utf-8"?>
<!-- Generator: Adobe Illustrator 24.0.2, SVG Export Plug-In . SVG Version: 6.00 Build 0)  -->
<svg version="1.1" id="Layer_1" xmlns="http://www.w3.org/2000/svg" xmlns:xlink="http://www.w3.org/1999/xlink" x="0px" y="0px"
	 viewBox="0 0 24 24" style="enable-background:new 0 0 24 24;" xml:space="preserve">
<style type="text/css">
	.st0{fill:none;}
	.st1{fill:#3EB489;}
	.st2{fill:#FFFFFF;}
</style>
<g>
	<rect class="st0" width="24" height="24"/>
</g>
<g>
	<g>
		<g>
			<path class="st1" d="M12,2C8.1,2,5,5.1,5,9c0,5.2,7,13,7,13s7-7.8,7-13C19,5.1,15.9,2,12,2z M12,4c1.1,0,2,0.9,2,2
				c0,1.1-0.9,2-2,2s-2-0.9-2-2C10,4.9,10.9,4,12,4z M12,14c-1.7,0-3.1-0.9-4-2.1c0-1.3,2.7-2.1,4-2.1s4,0.7,4,2.1
				C15.1,13.1,13.7,14,12,14z"/>
			<g>
				<circle class="st2" cx="12" cy="6" r="2"/>
				<path class="st2" d="M12,14c-1.7,0-3.1-0.9-4-2.1c0-1.3,2.7-2.1,4-2.1s4,0.7,4,2.1C15.1,13.1,13.7,14,12,14z"/>
			</g>
		</g>
	</g>
</g>
</svg>
