<svg xmlns="http://www.w3.org/2000/svg" xmlns:xlink="http://www.w3.org/1999/xlink" data-name="Layer 1" width="692" height="499.87671" style=""><rect id="backgroundrect" width="100%" height="100%" x="0" y="0" fill="none" stroke="none"/><g class="currentLayer" style=""><title>Layer 1</title><path d="M691,496.0430844921875 H1 a1,1 0 0 1 0,-2 H691 a1,1 0 0 1 0,2 z" fill="#ccc" id="svg_1"/><path d="M622.70437,321.6413544921875 h-406 a6.5,6.5 0 1 0 0,13 h11.5 v155.5 a6.5,6.5 0 0 0 13,0 l0.09878000000000003,-155.5 H597.20437 v155.5 a6.5,6.5 0 0 0 13,0 V338.0687144921875 l1.89111,-3.4273700000000002 h10.60889 a6.5,6.5 0 1 0 0,-13 z" fill="#ccc" id="svg_2"/><path d="M441.79405999999994,325.0430844921875 H318.81224 a8.992,8.992 0 0 1 -8.98182,-8.98182 V248.3521744921875 a8.992,8.992 0 0 1 8.98182,-8.98182 H441.79405999999994 a8.992,8.992 0 0 1 8.98182,8.98182 v67.70909 A8.992,8.992 0 0 1 441.79405999999994,325.0430844921875 z" fill="#3f3d56" id="svg_3"/><path d="M441.79337999999996,246.2830744921875 H318.81291999999996 a2.07422,2.07422 0 0 0 -2.06983,2.07 v67.71 a2.07427,2.07427 0 0 0 2.06983,2.07 H441.79337999999996 a2.07427,2.07427 0 0 0 2.06983,-2.07 v-67.71 A2.07422,2.07422 0 0 0 441.79337999999996,246.2830744921875 z" fill="#fff" id="svg_4"/><path d="M390.79200000000003,294.2211944921875 s-14.72226,-3.3924700000000003 -22.81951,2.827 s10.30559,20.3548 10.30559,20.3548 z" fill="#2f2e41" id="svg_5"/><circle cx="381.0242004394531" cy="273.92425537109375" r="13.887080192565918" fill="#a0616a" id="svg_6"/><path d="M370.28574000000003,254.4301344921875 a9.89807,9.89807 0 0 1 9.12642,-4.85578 a19.397100000000002,19.397100000000002 0 0 1 5.51548,1.5439 l9.07827,3.54127 c2.34912,0.91634 4.9219100000000005,2.03879 5.94127,4.34508 c0.9461,2.14055 0.24023000000000003,4.61266 -0.47431000000000006,6.84123 l-3.3965300000000003,10.5933 a32.24633,32.24633 0 0 0 -1.9247400000000001,-6.99768 a10.83489,10.83489 0 0 0 -4.70439,-5.36393 c-2.35809,-1.2097 -5.13745,-1.18465 -7.78466,-1.05725 c-3.74914,0.18043000000000003 -7.82552,0.6574200000000001 -10.48931,3.30181 a10.89524,10.89524 0 0 0 -2.76456,5.39929 a32.50033,32.50033 0 0 0 -0.5797400000000001,6.11164 a50.669,50.669 0 0 1 -3.86936,-8.29541 a20.52464,20.52464 0 0 1 -1.43767,-6.71481 a9.44392,9.44392 0 0 1 2.16458,-6.3870000000000005 a6.19534,6.19534 0 0 1 6.23051,-1.9609400000000001 z" fill="#2f2e41" id="svg_7"/><path d="M414.183,306.2630544921875 a2.47182,2.47182 0 0 0 -2.06982,-1.79 a0.8597700000000001,0.8597700000000001 0 0 0 -0.10010000000000001,-0.06000000000000001 L391.28166999999996,292.7948544921875 a2.6367700000000003,2.6367700000000003 0 0 0 -3.52833,0.9082 l-5.66992,9.18006 l-8.54,-8.54 l-0.13574000000000003,-0.13581000000000001 a2.6365,2.6365 0 0 0 -3.3764600000000002,-0.29528000000000004 l-17.03809,11.93109 c-0.029780000000000004,0 -0.06006000000000001,0.010000000000000002 -0.08984000000000002,0.010000000000000002 a3.63267,3.63267 0 0 0 -3.03028,3.39 l-0.43994000000000005,8.89 h68.04 z" fill="#0a42a5" id="svg_8"/><path d="M452.1577,316.75217449218746 H439.03042000000005 a1.3818300000000001,1.3818300000000001 0 0 0 -1.38182,-1.38182 h-4.14545 a1.38184,1.38184 0 0 0 -1.38182,1.38182 h-4.14545 a1.38184,1.38184 0 0 0 -1.38182,-1.38182 H422.44860000000006 a1.3818300000000001,1.3818300000000001 0 0 0 -1.3818100000000002,1.38182 h-4.14546 a1.3818300000000001,1.3818300000000001 0 0 0 -1.38182,-1.38182 h-4.14545 a1.38184,1.38184 0 0 0 -1.38182,1.38182 h-4.14545 A1.38184,1.38184 0 0 0 404.485,315.3703544921875 h-4.14546 a1.3818300000000001,1.3818300000000001 0 0 0 -1.3818100000000002,1.38182 h-4.14546 a1.3818300000000001,1.3818300000000001 0 0 0 -1.38182,-1.38182 H389.28499999999997 a1.3818300000000001,1.3818300000000001 0 0 0 -1.38182,1.38182 H383.7577 a1.38184,1.38184 0 0 0 -1.38182,-1.38182 h-4.14546 a1.38184,1.38184 0 0 0 -1.38182,1.38182 h-4.14545 a1.3818300000000001,1.3818300000000001 0 0 0 -1.38182,-1.38182 h-4.14545 a1.3818300000000001,1.3818300000000001 0 0 0 -1.38182,1.38182 H361.6486 a1.3818300000000001,1.3818300000000001 0 0 0 -1.3818100000000002,-1.38182 h-4.14546 a1.38184,1.38184 0 0 0 -1.38182,1.38182 h-4.14545 a1.38184,1.38184 0 0 0 -1.38182,-1.38182 h-4.14545 a1.3818300000000001,1.3818300000000001 0 0 0 -1.38182,1.38182 h-4.14546 a1.3818300000000001,1.3818300000000001 0 0 0 -1.3818100000000002,-1.38182 h-4.14546 a1.38184,1.38184 0 0 0 -1.38182,1.38182 H328.485 a1.38184,1.38184 0 0 0 -1.38182,-1.38182 H322.95770000000005 a1.3818300000000001,1.3818300000000001 0 0 0 -1.38182,1.38182 H308.44860000000006 a4.14546,4.14546 0 0 0 0,8.29091 H452.1577 a4.14545,4.14545 0 0 0 0,-8.29091 z" fill="#3f3d56" id="svg_9"/><path d="M287.07906,292.6782944921875 v27.52572 H218.11681 a13.77119,13.77119 0 1 1 0,-27.52572 z" fill="#f2f2f2" id="svg_10"/><path d="M288.773,319.99227449218745 a1.05909,1.05909 0 0 1 -1.05868,1.05868 h-70.8258 a14.50393,14.50393 0 1 1 0,-29.00787 h70.8258 a1.05868,1.05868 0 0 1 0,2.11736 h-70.8258 a12.38658,12.38658 0 0 0 0,24.77315 h70.8258 A1.0591,1.0591 0 0 1 288.773,319.99227449218745 z" fill="#0a42a5" id="svg_11"/><path d="M287.07906,299.0303544921875 H212.97134999999997 a0.21174000000000004,0.21174000000000004 0 1 1 0,-0.42347000000000007 h74.10771 a0.21174000000000004,0.21174000000000004 0 0 1 0,0.42347000000000007 z" fill="#ccc" id="svg_12"/><path d="M287.07906,304.1120544921875 H212.97134999999997 a0.21174000000000004,0.21174000000000004 0 1 1 0,-0.42347000000000007 h74.10771 a0.21174000000000004,0.21174000000000004 0 0 1 0,0.42347000000000007 z" fill="#ccc" id="svg_13"/><path d="M287.07906,309.1937244921875 H212.97134999999997 a0.21174000000000004,0.21174000000000004 0 1 1 0,-0.42347000000000007 h74.10771 a0.21174000000000004,0.21174000000000004 0 0 1 0,0.42347000000000007 z" fill="#ccc" id="svg_14"/><path d="M287.07906,314.2753544921875 H212.97134999999997 a0.21174000000000004,0.21174000000000004 0 1 1 0,-0.42347000000000007 h74.10771 a0.21174000000000004,0.21174000000000004 0 0 1 0,0.42347000000000007 z" fill="#ccc" id="svg_15"/><path d="M274.07906,263.6782944921875 v27.52572 H205.11681 a13.77119,13.77119 0 1 1 0,-27.52572 z" fill="#f2f2f2" id="svg_16"/><path d="M275.773,290.9922744921875 a1.05909,1.05909 0 0 1 -1.05868,1.05868 h-70.8258 a14.50393,14.50393 0 1 1 0,-29.00787 h70.8258 a1.05868,1.05868 0 0 1 0,2.11736 h-70.8258 a12.38658,12.38658 0 0 0 0,24.77315 h70.8258 A1.0591,1.0591 0 0 1 275.773,290.9922744921875 z" fill="#3f3d56" id="svg_17"/><path d="M274.07906,270.0303544921875 H199.97134999999997 a0.21174000000000004,0.21174000000000004 0 1 1 0,-0.42347000000000007 h74.10771 a0.21174000000000004,0.21174000000000004 0 0 1 0,0.42347000000000007 z" fill="#ccc" id="svg_18"/><path d="M274.07906,275.1120544921875 H199.97134999999997 a0.21174000000000004,0.21174000000000004 0 1 1 0,-0.42347000000000007 h74.10771 a0.21174000000000004,0.21174000000000004 0 0 1 0,0.42347000000000007 z" fill="#ccc" id="svg_19"/><path d="M274.07906,280.1937244921875 H199.97134999999997 a0.21174000000000004,0.21174000000000004 0 1 1 0,-0.42347000000000007 h74.10771 a0.21174000000000004,0.21174000000000004 0 0 1 0,0.42347000000000007 z" fill="#ccc" id="svg_20"/><path d="M274.07906,285.2753544921875 H199.97134999999997 a0.21174000000000004,0.21174000000000004 0 1 1 0,-0.42347000000000007 h74.10771 a0.21174000000000004,0.21174000000000004 0 0 1 0,0.42347000000000007 z" fill="#ccc" id="svg_21"/><path d="M354.30314999999996,418.0430844921875 v-24 a4.00008,4.00008 0 0 0 -4,-4 h-91 a4.00008,4.00008 0 0 0 -4,4 v24 z" fill="#ccc" id="svg_22"/><rect x="255.3031463623047" y="427.0430908203125" width="99" height="31" fill="#ccc" id="svg_23"/><path d="M255.30315000000002,467.0430844921875 v24 a4.00008,4.00008 0 0 0 4,4 h91 a4.00008,4.00008 0 0 0 4,-4 v-24 z" fill="#ccc" id="svg_24"/><circle cx="304.30316162109375" cy="405.0430908203125" r="3" fill="#fff" id="svg_25"/><circle cx="304.30316162109375" cy="445.0430908203125" r="3" fill="#fff" id="svg_26"/><circle cx="304.46392822265625" cy="484.1960754394531" r="3" fill="#fff" id="svg_27"/><path d="M343.07906,362.67829449218755 v27.52572 H274.11681 a13.77119,13.77119 0 1 1 0,-27.52572 z" fill="#f2f2f2" id="svg_28"/><path d="M344.773,389.99227449218745 a1.05909,1.05909 0 0 1 -1.05868,1.05868 h-70.8258 a14.50394,14.50394 0 1 1 0,-29.00787 h70.8258 a1.05868,1.05868 0 0 1 0,2.11736 h-70.8258 a12.38658,12.38658 0 0 0 0,24.77315 h70.8258 A1.0591,1.0591 0 0 1 344.773,389.99227449218745 z" fill="#3f3d56" id="svg_29"/><path d="M343.07906,369.0303544921875 H268.97135000000003 a0.21174000000000004,0.21174000000000004 0 1 1 0,-0.42347000000000007 h74.10771 a0.21174000000000004,0.21174000000000004 0 0 1 0,0.42347000000000007 z" fill="#ccc" id="svg_30"/><path d="M343.07906,374.11205449218755 H268.97135000000003 a0.21174000000000004,0.21174000000000004 0 1 1 0,-0.42347000000000007 h74.10771 a0.21174000000000004,0.21174000000000004 0 0 1 0,0.42347000000000007 z" fill="#ccc" id="svg_31"/><path d="M343.07906,379.19372449218747 H268.97135000000003 a0.21174000000000004,0.21174000000000004 0 1 1 0,-0.42347000000000007 h74.10771 a0.21174000000000004,0.21174000000000004 0 0 1 0,0.42347000000000007 z" fill="#ccc" id="svg_32"/><path d="M343.07906,384.2753544921875 H268.97135000000003 a0.21174000000000004,0.21174000000000004 0 1 1 0,-0.42347000000000007 h74.10771 a0.21174000000000004,0.21174000000000004 0 0 1 0,0.42347000000000007 z" fill="#ccc" id="svg_33"/><path d="M250.11034999999998,183.0214344921875 v-175.5 a7.53,7.53 0 0 1 7.52143,-7.52143 H396.36035000000004 a7.53005,7.53005 0 0 1 7.52143,7.52143 v175.5 a7.53,7.53 0 0 1 -7.52143,7.52142 H257.63178 A7.53,7.53 0 0 1 250.11034999999998,183.0214344921875 zm7.52143,-181.35 a5.85656,5.85656 0 0 0 -5.85,5.85 v175.5 a5.85657,5.85657 0 0 0 5.85,5.85 H396.36035000000004 a5.85658,5.85658 0 0 0 5.85,-5.85 v-175.5 a5.85657,5.85657 0 0 0 -5.85,-5.85 z" fill="#e6e6e6" id="svg_34"/><path d="M334.77549,80.59771449218749 V44.562024492187504 a3.7649,3.7649 0 0 1 3.76072,-3.76072 h30.537 a3.7649,3.7649 0 0 1 3.76072,3.76072 v36.03569 a3.7648900000000003,3.7648900000000003 0 0 1 -3.76072,3.76071 h-30.537 A3.7648900000000003,3.7648900000000003 0 0 1 334.77549,80.59771449218749 z" fill="#0a42a5" id="svg_35"/><path d="M275.43978000000004,97.31199449218752 V61.27635449218752 a3.7648900000000003,3.7648900000000003 0 0 1 3.76071,-3.76071 h30.537 a3.7648900000000003,3.7648900000000003 0 0 1 3.76071,3.76071 v36.03569 a3.7649,3.7649 0 0 1 -3.76071,3.76072 h-30.537 A3.7649,3.7649 0 0 1 275.43978000000004,97.31199449218752 z" fill="#ccc" id="svg_36"/><path d="M323.07548999999995,148.2905644921875 V112.25487449218753 a3.7649,3.7649 0 0 1 3.76072,-3.76071 h30.537 a3.7649,3.7649 0 0 1 3.76072,3.76071 v36.03569 a3.7649,3.7649 0 0 1 -3.76072,3.76072 h-30.537 A3.7649,3.7649 0 0 1 323.07548999999995,148.2905644921875 z" fill="#0ab224" id="svg_37" class="" fill-opacity="1"/><path d="M505.56291999999996,313.0430844921875 H474.14300000000003 a1.94143,1.94143 0 0 0 -0.8598600000000001,0.2 l-7.93018,3.9699999999999998 a1.44516,1.44516 0 0 0 0,2.66 l7.93018,3.9699999999999998 a1.94143,1.94143 0 0 0 0.8598600000000001,0.2 h31.41993 a1.64908,1.64908 0 0 0 1.74023,-1.53 v-7.93994 A1.64908,1.64908 0 0 0 505.56291999999996,313.0430844921875 z" fill="#3f3d56" id="svg_38"/><path d="M507.30314999999996,314.5731144921875 v7.93994 a1.64908,1.64908 0 0 1 -1.74023,1.53 h-6.25977 v-11 h6.25977 A1.64908,1.64908 0 0 1 507.30314999999996,314.5731144921875 z" fill="#0a42a5" id="svg_39"/><path d="M505.3265,253.64288449218748 a11.00278,11.00278 0 0 1 14.8905,6.9146 a10.58813,10.58813 0 0 1 0.32019000000000003,1.435 l43.93794,21.78816 l10.16835,-6.73853 l12.65178,14.56532 L571.76934,304.2172544921875 a11.1485,11.1485 0 0 1 -13.30125,0.513 l-44.57918,-30.82819 a10.51075,10.51075 0 0 1 -1.01489,0.37010000000000004 a11.00314,11.00314 0 0 1 -14.01048,-8.56076 a10.70772,10.70772 0 0 1 -0.16253000000000004,-1.3395100000000002 A11.036,11.036 0 0 1 505.3265,253.64288449218748 z" fill="#ffb8b8" id="svg_40"/><path d="M596.84106,387.7916544921875 H548.83129 c0,1.3800000000000001 -49.48,2.5 -49.48,2.5 a12.85953,12.85953 0 0 0 -2.10986,2 a12.41025,12.41025 0 0 0 -2.90039,8 v2 a12.5046,12.5046 0 0 0 12.5,12.5 h90 a12.51088,12.51088 0 0 0 12.5,-12.5 v-2 A12.51735,12.51735 0 0 0 596.84106,387.7916544921875 z" fill="#3f3d56" id="svg_41"/><rect x="2154.8524780273438" y="1727.0084228515625" width="13" height="84" transform="rotate(-180 1356.2349853515625,1112.6517333984375) " fill="#3f3d56" id="svg_42"/><path d="M507.61749999999995,497.8383544921875 c0,1.40463 19.69947,0.54331 44,0.54331 s44,0.8613200000000001 44,-0.54331 s-19.69947,-12.54331 -44,-12.54331 S507.61749999999995,496.43374449218754 507.61749999999995,497.8383544921875 z" fill="#3f3d56" id="svg_43"/><polygon points="519.353 487.993 507.094 487.992 501.261 456.195 519.355 456.196 519.353 487.993" fill="#ffb8b8" id="svg_44"/><path d="M522.47983,499.8767044921875 l-39.53052,-0.0014600000000000004 v-0.5 a15.386050000000001,15.386050000000001 0 0 1 15.38647,-15.38623 h0.0010000000000000002 l24.1438,0.0010000000000000002 z" fill="#2f2e41" id="svg_45"/><path d="M501.01662999999996,468.27500449218746 L476.57570999999996,413.4673544921875 a20.086,20.086 0 0 1 8.8186,-25.78418 l53.01343,-28.42773 l24.19116,-2.05762 l22.3147,-2.02832 l0.16089000000000003,0.27246000000000004 c0.20581000000000002,0.3476600000000001 5.00366,8.63477 1.7605,17.72168 c-2.46,6.89258 -8.85889,12.27637 -19.0188,16.00195 c-23.71436,8.69532 -51.10913,16.127 -61.78638,18.918 a3.45079,3.45079 0 0 0 -2.21118,1.75977 a3.49812,3.49812 0 0 0 -0.19629000000000005,2.79883 l22.70654,51.01464 a4.49992,4.49992 0 0 1 -3.80932,6.0293 L505.553,470.92148449218746 q-0.21606000000000003,0.020510000000000004 -0.43017000000000005,0.020510000000000004 A4.49688,4.49688 0 0 1 501.01662999999996,468.27500449218746 z" fill="#2f2e41" id="svg_46"/><polygon points="525.353 487.993 513.094 487.992 507.261 456.195 525.355 456.196 525.353 487.993" fill="#ffb8b8" id="svg_47"/><path d="M528.47983,499.8767044921875 l-39.53052,-0.0014600000000000004 v-0.5 a15.386050000000001,15.386050000000001 0 0 1 15.38647,-15.38623 h0.0010000000000000002 l24.1438,0.0010000000000000002 z" fill="#2f2e41" id="svg_48"/><path d="M508.01662999999996,471.27500449218746 L483.57570999999996,416.4673544921875 a20.086,20.086 0 0 1 8.8186,-25.78418 l53.01343,-28.42773 l24.19116,-2.05762 l22.3147,-2.02832 l0.16089000000000003,0.27246000000000004 c0.20581000000000002,0.3476600000000001 5.00366,8.63477 1.7605,17.72168 c-2.46,6.89258 -8.85889,12.27637 -19.0188,16.00195 c-23.71436,8.69532 -51.10913,16.127 -61.78638,18.918 a3.45079,3.45079 0 0 0 -2.21118,1.75977 a3.49812,3.49812 0 0 0 -0.19629000000000005,2.79883 l22.70654,51.01464 a4.49992,4.49992 0 0 1 -3.80932,6.0293 L512.553,473.92148449218746 q-0.21606000000000003,0.020510000000000004 -0.43017000000000005,0.020510000000000004 A4.49688,4.49688 0 0 1 508.01662999999996,471.27500449218746 z" fill="#2f2e41" id="svg_49"/><path d="M495.83452,303.8442644921875 a167.50633,167.50633 0 0 1 -24.0754,-44.93173 a4.30258,4.30258 0 0 1 2.03179,-5.17938 l35.14526,-18.83159 a4.2466,4.2466 0 0 1 3.72553,-0.15123000000000003 a4.31914,4.31914 0 0 1 2.46131,2.8840000000000003 a102.32846,102.32846 0 0 0 22.44563,41.89073 a4.31809,4.31809 0 0 1 1.03824,3.64654 a4.24658,4.24658 0 0 1 -2.1894,3.01811 L501.27223000000004,305.0213544921875 A4.30258,4.30258 0 0 1 495.83452,303.8442644921875 z" fill="#ccc" id="svg_50"/><path d="M498.23284,302.0421044921875 a1.29853,1.29853 0 0 0 1.6220700000000001,0.3350000000000001 l35.14551,-18.832 a1.24591,1.24591 0 0 0 0.65258,-0.8970000000000001 a1.31807,1.31807 0 0 0 -0.32500000000000007,-1.12793 a105.34018,105.34018 0 0 1 -23.10693,-43.125 a1.31863,1.31863 0 0 0 -0.7580600000000001,-0.8950000000000001 a1.24691,1.24691 0 0 0 -1.11035,0.04590000000000001 L475.20793000000003,256.3775544921875 a1.29831,1.29831 0 0 0 -0.6196200000000002,1.53711 a164.50711,164.50711 0 0 0 23.64453,44.12744 z" fill="#fff" id="svg_51"/><path d="M612.59251,298.8209044921875 l-27.52466,10.45937 l-6.72,-18.66664 a11.16823,11.16823 0 0 1 5.002,-13.4995 l0,0 a11.16823,11.16823 0 0 1 14.26249,2.78445 z" fill="#0a42a5" id="svg_52"/><path d="M542.58273,372.78091449218755 a4.99862,4.99862 0 0 1 -2.0835,-3.54883 c-3.52539,-32.90967 -1.06982,-58.66406 7.50586,-78.73486 a24.99166,24.99166 0 0 1 16.5669,-14.17969 l22.24951,-1.12305 l0.11523000000000003,0.05567000000000001 A26.00516,26.00516 0 0 1 601.156,302.8385344921875 c-7.15625,18.86328 -13.14844,38.50293 -8.57861,54.34619 a5.12194,5.12194 0 0 1 -0.48389000000000004,3.9834 a4.88411,4.88411 0 0 1 -3.11572,2.3090800000000002 L546.59933,373.55825449218753 a4.96422,4.96422 0 0 1 -4.0166,-0.77734 z" fill="#0a42a5" id="svg_53"/><circle cx="579.3961181640625" cy="242.3231964111328" r="24.5610294342041" fill="#ffb8b8" id="svg_54"/><path d="M511.24342,261.7762244921875 l-19.1416,8.44957 a3.00328,3.00328 0 0 1 -3.956,-1.533 l-0.47343,-1.07251 a3.00328,3.00328 0 0 1 1.533,-3.956 l19.1416,-8.44957 a3.00328,3.00328 0 0 1 3.956,1.533 l0.47343,1.07251 A3.00328,3.00328 0 0 1 511.24342,261.7762244921875 z" fill="#ccc" id="svg_55"/><path d="M518.24342,274.7762244921875 l-19.1416,8.44957 a3.00328,3.00328 0 0 1 -3.956,-1.533 l-0.47343,-1.07251 a3.00328,3.00328 0 0 1 1.533,-3.956 l19.1416,-8.44957 a3.00328,3.00328 0 0 1 3.956,1.533 l0.47343,1.07251 A3.00328,3.00328 0 0 1 518.24342,274.7762244921875 z" fill="#ccc" id="svg_56"/><path d="M533.00509,325.5533544921875 l-42.67431,-33.666 a10.51709,10.51709 0 0 1 -1.03614,0.30566000000000004 a11.02708,11.02708 0 0 1 -8.81787,-1.69141 a10.912700000000001,10.912700000000001 0 0 1 -4.62646,-7.73339 a11.02293,11.02293 0 0 1 7.209,-11.63819 a11.00361,11.00361 0 0 1 14.42627,7.8374 a10.5714,10.5714 0 0 1 0.22900000000000004,1.45215 L540.196,304.9269144921875 l10.57178,-6.08643 l11.71093,15.332 l-16.41406,11.69922 a10.94192,10.94192 0 0 1 -13.05957,-0.3183600000000001 z" fill="#ffb8b8" id="svg_57"/><path d="M567.686,318.94719449218746 l-24.34869,-16.55738 l11.44288,-16.20686 a11.16823,11.16823 0 0 1 13.92862,-3.64 l0,0 a11.16822,11.16822 0 0 1 5.89441,13.2826 z" fill="#0a42a5" id="svg_58"/><path d="M570.39127,238.6650244921875 c-6.31271,4.3205100000000005 -14.60145,8.76174 -21.04891,4.16075 c-4.23352,-3.02109 -5.56737,-8.61545 -3.8506,-13.52486 c3.08726,-8.82857 11.56943,-12.71531 19.68052,-15.69459 c10.54441,-3.87305 22.02573,-6.95424 32.91112,-4.18055 s20.5056,13.31292 18.54058,24.37293 c-1.5802200000000002,8.89423 -9.97,16.29492 -8.779,25.24958 c1.19867,9.01215 11.33379,13.75589 20.28149,15.36658 s18.96039,2.12822 25.39074,8.5552 c8.2031,8.1988 6.15465,22.85325 -1.56414,31.50955 s-19.36683,12.58011 -30.6538,15.24757 c-14.95454,3.53422 -31.12905,5.39161 -45.33209,-0.47378000000000003 s-25.25565,-21.65433 -21.14126,-36.45976 c1.73791,-6.2538 5.83191,-11.5391 9.78854,-16.68451 s7.9631,-10.526 9.47238,-16.83888 c1.25772,-5.26073 0.3268200000000001,-11.36869 -3.16182,-15.31484 a4.437,4.437 0 0 1 -0.5943900000000001,-5.18643 z" fill="#2f2e41" id="svg_59"/><path d="M109.07218999999998,357.99844449218745 a39.063,39.063 0 0 1 -37.72112,-6.6447400000000005 c-13.212,-11.08918 -17.35436,-29.35854 -20.72485,-46.275 q-4.98462,-25.01781 -9.96925,-50.0356 l20.87166,14.37144 c15.00965,10.33508 30.35744,21.00126 40.75007,35.97112 s14.929,35.40506 6.57885,51.60315 " fill="#e6e6e6" id="svg_60"/><path d="M107.28809000000001,418.5769544921875 c2.11249,-15.38745 4.28468,-30.97255 2.80288,-46.52494 c-1.316,-13.81219 -5.52988,-27.30283 -14.10882,-38.36423 A63.8196,63.8196 0 0 0 79.60831000000002,318.85035449218753 c-1.6374,-1.03351 -3.14442,1.5614 -1.51416,2.59042 A60.67179,60.67179 0 0 1 102.09300000000002,350.3971544921875 c5.22488,13.28947 6.06392,27.77612 5.16355,41.89337 c-0.54449,8.53723 -1.6984700000000001,17.01851 -2.86134,25.48891 a1.5543,1.5543 0 0 0 1.04766,1.84518 a1.50916,1.50916 0 0 0 1.84518,-1.04766 z" fill="#f2f2f2" id="svg_61"/><path d="M86.94099999999997,391.3484344921875 a28.75526,28.75526 0 0 1 -25.05474,12.931329999999999 c-12.68314,-0.6020800000000001 -23.25684,-9.45412 -32.77515,-17.85807 l-28.15329,-24.85721 l18.63281,-0.8917000000000002 c13.399610000000001,-0.64126 27.14492,-1.2394100000000001 39.90759,2.89278 s24.53307,14.0769 26.8668,27.2873 " fill="#e6e6e6" id="svg_62"/><path d="M113.25813,427.42247449218746 c-10.16773,-17.99115 -21.96141,-37.98627 -43.03473,-44.377 a48.02218,48.02218 0 0 0 -18.10109,-1.8690000000000002 c-1.9218000000000002,0.16571000000000005 -1.44191,3.12811 0.47640000000000005,2.9627 a44.61381,44.61381 0 0 1 28.88649,7.64231 c8.1449,5.5440000000000005 14.48659,13.25166 19.85414,21.42526 c3.28779,5.00657 6.23278,10.22555 9.17833,15.43753 c0.9413400000000001,1.6656300000000002 3.6927900000000005,0.46329 2.74046,-1.22181 z" fill="#f2f2f2" id="svg_63"/><path d="M129.54973,446.35949449218754 A21.77376,21.77376 0 0 0 116.207,428.12267449218746 v-10.401 H98.76213000000001 v10.72876 a21.76258,21.76258 0 0 0 -12.61621,17.90906 l-4.102,47.68359 h51.60791 z" fill="#f2f2f2" id="svg_64"/></g></svg>