<svg xmlns="http://www.w3.org/2000/svg" xmlns:xlink="http://www.w3.org/1999/xlink" data-name="Layer 1" width="825.20213" height="591.41898"><rect id="backgroundrect" width="100%" height="100%" x="0" y="0" fill="none" stroke="none"/><g class="currentLayer" style=""><title>Layer 1</title><path d="M667.82498421875,376.31715791503905 a3.6132400000000002,3.6132400000000002 0 0 0 2.90706,-6.13407 c-0.07417000000000001,-0.36600000000000005 -0.12736999999999998,-0.6287800000000001 -0.20154000000000002,-0.99475 q0.05434000000000001,-0.11581000000000001 0.10925000000000001,-0.23144000000000003 a9.7031,9.7031 0 0 1 17.876,0.8987800000000001 c2.59635,7.179 5.991,14.40726 6.561,21.8966 a28.70516,28.70516 0 0 1 -0.96247,9.83823 a115.08607,115.08607 0 0 0 12.68043,-47.26037 a111.08146,111.08146 0 0 0 -0.11200000000000002,-12.41061 q-0.3348900000000001,-5.08075 -1.11483,-10.11009 a116.41936,116.41936 0 0 0 -20.7675,-50.36176 a30.98251,30.98251 0 0 1 -12.24992,-13.95369 a23.63369,23.63369 0 0 1 -1.84668,-6.5511800000000004 c0.6227900000000002,0.11137000000000001 1.25731,0.19237 1.8820000000000001,0.2626 c0.19474000000000005,0.019310000000000004 0.39969000000000005,0.039180000000000006 0.59443,0.05857000000000001 l0.07346000000000001,0.006730000000000002 a3.5799000000000003,3.5799000000000003 0 0 0 3.20814,-5.689220000000001 q-0.38259000000000004,-0.51834 -0.7657000000000002,-1.03621 c-0.38700000000000007,-0.5328 -0.78478,-1.05577 -1.17173,-1.5884800000000001 a1.78375,1.78375 0 0 1 -0.12638,-0.16038000000000002 c-0.4453500000000001,-0.60755 -0.8910000000000001,-1.2048 -1.33637,-1.81235 a10.3517,10.3517 0 0 1 3.54254,-3.11908 c4.86483,-2.55314 11.30882,-0.32800000000000007 14.53022,4.11493 c3.23163,4.44334 3.599,10.48308 2.15829,15.77961 a41.485,41.485 0 0 1 -6.32713,12.51228 c0.24157,0.3407200000000001 0.49384000000000006,0.6716100000000002 0.73533,1.01232 a117.17152,117.17152 0 0 1 11.3155,19.92258 a48.709270000000004,48.709270000000004 0 0 1 3.957,-22.46476 c3.09271,-6.57809 8.56723,-11.98458 13.42656,-17.56958 c5.8368400000000005,-6.70843 16.99941,-3.14247 17.55956,5.73205 q0.008130000000000002,0.12888 0.015600000000000003,0.25766 q-1.04937,0.52926 -2.05883,1.13134 a4.9011,4.9011 0 0 0 1.55911,9.00132 l0.09912000000000004,0.020060000000000005 a48.76709,48.76709 0 0 1 -1.6231200000000001,7.22358 a50.20985,50.20985 0 0 1 -26.43617,30.27174 c-0.41021,0.18678000000000003 -0.8102,0.37400000000000005 -1.21994,0.5506000000000001 a119.59729,119.59729 0 0 1 5.02184,30.56259 a113.43466,113.43466 0 0 1 -0.9339200000000001,18.29177 l0.04087000000000001,-0.21430000000000002 a29.97406,29.97406 0 0 1 11.02621,-16.813 c8.16666,-6.09535 19.39042,-7.95739 28.11808,-12.75615 a5.62528,5.62528 0 0 1 8.3519,5.86726 q-0.02235000000000001,0.11259000000000002 -0.04527000000000001,0.22517 a32.92431,32.92431 0 0 0 -3.77057,1.60542 q-1.04937,0.52938 -2.05883,1.13133 a4.90116,4.90116 0 0 0 1.55911,9.00141 l0.09920000000000004,0.020000000000000004 c0.0714,0.013650000000000002 0.13259,0.026830000000000003 0.20391000000000004,0.04048 a48.808,48.808 0 0 1 -9.6217,13.62515 a50.25442,50.25442 0 0 1 -37.14994,14.27914 l-0.010310000000000001,-0.0004800000000000002 a119.56225,119.56225 0 0 1 -9.11335,23.04815 l-28.66063,-1.33426 c-0.08800000000000002,-0.32324 -0.16508000000000003,-0.6563100000000001 -0.24275000000000002,-0.97907 a32.59881,32.59881 0 0 0 7.95257,-0.10325000000000001 c-2.005,-2.70831 -4.009,-5.43714 -6.014,-8.14536 a1.7811400000000002,1.7811400000000002 0 0 1 -0.12638,-0.16029000000000004 c-1.01644,-1.38562 -2.04367,-2.7615 -3.06011,-4.14712 l-0.0005000000000000001,-0.0016700000000000003 a47.75014,47.75014 0 0 1 1.96332,-12.08589 z" fill="#f2f2f2" id="svg_1"/><path d="M90.34385421874998,128.48218791503905 a3.6132400000000002,3.6132400000000002 0 0 1 -3.28049,-5.94275 c0.05141000000000001,-0.36985000000000007 0.08827000000000003,-0.6354400000000001 0.13969,-1.00529 q-0.06140000000000001,-0.11225000000000002 -0.12334,-0.22425000000000003 a9.70311,9.70311 0 0 0 -17.78635,2.00152 c-2.14784,7.3257200000000005 -5.08937,14.749880000000001 -5.19559,22.26013 a28.70519,28.70519 0 0 0 1.56847,9.76 A115.08612,115.08612 0 0 1 50.090074218750004,108.94488791503909 a111.08,111.08 0 0 1 -0.6550000000000001,-12.39382 q0.020320000000000005,-5.09173 0.48800000000000004,-10.15965 a116.41941,116.41941 0 0 1 17.61625,-51.54865 a30.9826,30.9826 0 0 0 11.36441,-14.68388 a23.63353,23.63353 0 0 0 1.43838,-6.65276 c-0.6147100000000001,0.14962 -1.243,0.26968000000000003 -1.86218,0.3783700000000001 c-0.19317,0.03130000000000001 -0.3965000000000001,0.06380000000000001 -0.5896700000000001,0.09518000000000003 l-0.0729,0.011260000000000003 a3.5799000000000003,3.5799000000000003 0 0 1 -3.55352,-5.4801400000000005 q0.3498500000000001,-0.541 0.70021,-1.08154 c0.3533800000000001,-0.5556900000000001 0.7180500000000001,-1.10224 1.07136,-1.6578400000000002 a1.783,1.783 0 0 0 0.11622000000000003,-0.16788000000000003 c0.40700000000000003,-0.6339100000000001 0.81488,-1.25754 1.22185,-1.89145 a10.35181,10.35181 0 0 0 -3.72849,-2.89425 c-5.01327,-2.24769 -11.30748,0.3713100000000001 -14.24822,5.0048 c-2.95093,4.63452 -2.94443,10.68542 -1.17923,15.88282 a41.485,41.485 0 0 0 7.0881,12.09746 c-0.22006000000000003,0.35500000000000004 -0.4514,0.7008300000000001 -0.6713800000000001,1.05582 a117.17159,117.17159 0 0 0 -10.063,20.58363 a48.70935,48.70935 0 0 0 -5.33737,-22.17736 c-3.49323,-6.37444 -9.29133,-11.43236 -14.48644,-16.70646 c-6.24017,-6.335 -17.16108,-2.08617 -17.17187,6.806 q-0.00015000000000000007,0.12915 0.0003500000000000001,0.25814 q1.08007,0.46341000000000004 2.12481,1.002 a4.9011,4.9011 0 0 1 -1,9.08046 l-0.09769000000000004,0.026150000000000007 a48.76726,48.76726 0 0 0 2.06632,7.10949 a50.20987,50.20987 0 0 0 28.256,28.58057 c0.42100000000000004,0.16108000000000003 0.83176,0.32327000000000006 1.25162,0.47418000000000005 a119.5973,119.5973 0 0 0 -3.124,30.81447 a113.4334,113.4334 0 0 0 2.06228,18.19912 l-0.05400000000000001,-0.21137 a29.974,29.974 0 0 0 -12.04392,-16.09966 c-8.527660000000001,-5.57913 -19.845,-6.74416 -28.85249,-10.99452 a5.62528,5.62528 0 0 0 -7.97344,6.37206 q0.029250000000000005,0.11100000000000002 0.05909000000000001,0.22194000000000005 a32.92391,32.92391 0 0 1 3.86256,1.3694000000000002 q1.08007,0.46353 2.1248,1.002 a4.90116,4.90116 0 0 1 -1,9.08054 l-0.09777000000000004,0.026080000000000006 c-0.07043,0.018000000000000002 -0.13068,0.035 -0.201,0.05300000000000001 a48.80794,48.80794 0 0 0 10.44514,13.00466 a50.25449,50.25449 0 0 0 37.9612,11.95658 l0.010250000000000002,-0.0011200000000000003 a119.563,119.563 0 0 0 10.51995,22.44105 l28.52344,-3.10249 c0.06784000000000001,-0.3280600000000001 0.12422000000000002,-0.6652500000000001 0.18180000000000002,-0.99219 a32.5995,32.5995 0 0 1 -7.94375,0.38829 c1.8338400000000001,-2.827 3.6653700000000002,-5.674440000000001 5.49922,-8.50137 a1.7786,1.7786 0 0 0 0.11623000000000003,-0.16780000000000003 c0.9289000000000001,-1.44577 1.86915,-2.88248 2.798,-4.32825 l0.00040000000000000013,-0.0017100000000000006 a47.75009,47.75009 0 0 0 -2.70629,-11.94149 z" fill="#f2f2f2" id="svg_2"/><path d="M484.41907421875,117.91185791503904 a10.016,10.016 0 0 1 6.38343,13.969 l15.30646,17.01743 l-8.07279,11.82394 L476.75807421875004,136.38674791503905 a10.07034,10.07034 0 0 1 7.6610000000000005,-18.47489 z" fill="#a0616a" id="svg_3"/><path d="M627.71526421875,159.69834791503905 l0,0 a20.02625,20.02625 0 0 0 -27.60778,-6.54222 l-50.33925,31.17727 l-54.30081,-46.15769 L481.95727421874994,150.75441791503908 l59.987,77.82961 l77.96532,-40.64446 C618.09007421875,188.8881079150391 629.91380421875,163.27687791503905 627.71526421875,159.69834791503905 z" fill="#ccc" id="svg_4"/><path d="M527.99195421875,263.3644279150391 a189.27007,189.27007 0 0 1 -189.308,189.308 c-104.55063,0 -189.308,-84.75749 -189.308,-189.308 a189.24483,189.24483 0 0 1 9.65476,-59.84238 A189.50618,189.50618 0 0 1 338.68396421875,74.05648791503907 A189.24453,189.24453 0 0 1 505.62217421875005,174.04255791503908 a186.77361,186.77361 0 0 1 10.46447,23.10619 c0.41000000000000003,1.10421 0.8098400000000001,2.20843 1.1988400000000001,3.32331 v0.010530000000000003 q2.60321,7.35132 4.58557,14.97635 A189.32006,189.32006 0 0 1 527.99195421875,263.3644279150391 z" fill="#3f3d56" id="svg_5"/><path d="M317.97207421875,135.64063791503906 a63.51666,63.51666 0 0 0 -55.7615,-2.2813600000000003 c-7.79648,3.3930000000000002 -16.00583,9.47972 -18.6067,20.47116 c10.519,-6.20795 24.13568,3.60058 26.8425,19.33555 l-0.6318600000000001,0.17419 c-1.42965,10.89863 1.76186,22.76429 7.94073,29.52228 c0.81123,-7.01955 5.42678,-11.797 9.96657,-14.78135 c4.53979,-2.9843 9.562,-5.15219 13.02707,-10.28189 c4.10787,-6.08133 5.151,-14.96914 6.7829,-23.077 C309.16370421875,146.61431791503907 312.25976421875,137.89988791503907 317.97207421875,135.64063791503906 z" fill="#fff" id="svg_6"/><path d="M259.09041421875,228.38448791503907 c-2.91326,4.375 -6.80454,7.12011 -10.29617,10.538170000000001 c-3.48109,3.42859 -6.7941400000000005,8.056 -7.48817,13.99821 c-0.44177000000000005,3.80718 0.24187,7.67741 0.14712,11.52684 c-0.09449000000000003,3.84917 -1.3776700000000002,8.18221 -3.99642,9.1393 c-4.13328,1.49335 -7.28842,-6.18406 -11.53724,-6.72045 c-3.37608,-0.42071000000000003 -6.41541,4.89049 -5.43739,9.497 c0.97814,4.6065000000000005 5.57412,6.64675 8.21392,3.6388800000000003 c2.38741,4.007 0.70457,11.27444 -2.8816800000000002,12.50486 c-0.37873,2.52413 -0.7572000000000001,5.03773 -1.1254,7.56174 c-9.06574,-6.34185 -18.22611,-12.78872 -25.9351,-22.07541 a67.00679,67.00679 0 0 1 -15.27087,-36.09467 c-0.99907,-10.67489 0.48375,-22.88524 -4.41713,-31.099 c-3.923,-6.57319 -10.654,-8.02468 -16.71184,-7.61437 c-1.10421,0.07356000000000001 -2.219,0.19976000000000005 -3.32331,0.33649000000000007 a187.23535,187.23535 0 0 1 13.55644,-31.02548 a13.2821,13.2821 0 0 0 3.3970000000000002,-2.11395 c5.6372800000000005,-4.78521 8.14036,-14.47155 12.71528,-21.171 q0.44177000000000005,-0.6468600000000001 0.915,-1.262 c4.6801900000000005,-6.1105 10.94835,-9.25511 17.00622,-12.1789 c13.40931,-6.51 27.20763,-13.10427 41.36375,-12.19982 l-4.028,0.38913000000000003 q-7.05168,19.75116 -14.114,39.50233 q-1.07283,3.0288 -2.16646,6.06839 c-2.67138,7.48805 -5.4268600000000005,15.4601 -5.01668,23.84221 c0.24187,4.964 1.96657,10.264710000000001 5.248,11.96848 c3.06039,1.57756 6.40488,-0.35755000000000003 9.36012,-2.27173 c1.25161,-0.79932 2.49268,-1.59863 3.74416,-2.40846 c4.49082,-2.89221 9.4654,-5.8580000000000005 14.20862,-3.92287 c4.34358,1.7669400000000002 7.55122,7.667 8.16129,14.02992 A28.04928,28.04928 0 0 1 259.09041421875,228.38448791503907 z" fill="#fff" id="svg_7"/><path d="M285.79949421875,318.28175791503907 q-19.67374,-12.11336 -39.34763,-24.22672 l0.22263000000000002,-0.57342 c-8.15482,3.106 -11.54047,17.60169 -10.19276,29.456 c1.3476400000000002,11.85442 5.91745,22.45144 8.226,34.00207 a90.25226,90.25226 0 0 1 -3.40267,47.35761 a387.843,387.843 0 0 0 45.56027,-62.78054 a33.58822,33.58822 0 0 0 4.12118,-9.13813 c0.83321,-3.44179 0.70508,-7.57955 -0.96357,-10.33953 A11.5109,11.5109 0 0 0 285.79949421875,318.28175791503907 z" fill="#fff" id="svg_8"/><path d="M234.03563421874998,171.36269791503906 c-1.3927,3.13139 -1.92854,7.30684 -0.6646800000000002,10.5469 c1.29075,3.309 4.01943,4.80443 6.5316600000000005,6.04952 l7.24713,3.5922400000000003 c2.411,1.19506 5.00969,2.40208 7.46752,1.41883 c2.96442,-1.18591 5.01982,-5.83337 4.48812,-10.14785 c-0.5659200000000001,-4.59118 -3.45988,-7.7493 -6.13638,-10.43868 q-5.6183700000000005,-5.64531 -11.23667,-11.290610000000001 l-2.11089,2.58543 A28.19193,28.19193 0 0 0 234.03563421874998,171.36269791503906 z" fill="#fff" id="svg_9"/><path d="M489.14168421875,220.44403791503908 q4.89062,1.1515900000000001 9.781,2.30319 c-0.5680000000000001,11.01151 -6.02628,21.20266 -13.34615,24.894 c-3.05,1.53558 -6.447,2.10342 -8.97113,4.9747 c-2.28213,2.60822 -3.43911,6.66768 -4.50135,10.54856 q-2.7923299999999998,10.15963 -5.58465,20.319 c-1.9981499999999999,7.29894 -4.56426,15.40772 -9.75978,18.037 c-4.45924,2.26108 -9.56,-0.50493 -12.9886,-5.143 c-3.42859,-4.638 -5.52149,-10.87466 -7.55135,-16.95345 c0.1262,6.6257 -2.95524,13.12534 -7.31986,15.42852 c-4.37516,2.30319 -9.69688,0.22082000000000002 -12.62054,-4.92193 c-2.10342,-3.69152 -2.97629,-8.56108 -5.03773,-12.3051 c-2.06132,-3.744 -6.38383,-5.88956 -8.63451,-2.37688 c-1.48295,2.3349 -1.29371,5.91061 -2.02986,8.87651 c-1.14633,4.60637 -4.6169,7.4985800000000005 -8.056,7.7511 c-3.42859,0.25241 -6.77309,-1.7248200000000002 -9.64424,-4.40673 c-5.92114,-5.55307 -10.28577,-14.36628 -11.979,-24.15777 c-0.7466700000000002,-4.36463 -0.9570000000000001,-9.11826 0.3366200000000001,-13.20956 c1.29359,-4.091 4.41714,-7.24617 7.51964,-6.46792 c2.04038,-4.31211 -1.98763,-10.03336 -5.61611,-9.52856 c-3.6390000000000002,0.5048 -6.4891,4.40661 -9.47592,7.40409 c-2.9763,2.99735 -7.141,5.17433 -10.13851,2.198 c0.021050000000000006,2.766 -2.2296300000000002,4.596 -4.17526,4.36462 c-1.93525,-0.22082000000000002 -3.65994,-1.77733 -5.43727,-2.8816800000000002 c-6.8677,-4.28053 -15.58643,-1.44083 -20.46638,6.65729 c3.05,-12.97808 7.51976,-27.87034 16.89041,-30.92033 c3.82837,-1.25148 8.00363,-0.22082000000000002 11.62146,-2.38741 c6.405,-3.8386400000000003 7.69859,-18.34178 2.16658,-24.326 c0.70457,5.65808 0.5680000000000001,12.26286 -2.419,16.13321 c-2.98683,3.87036 -9.25511,1.34609 -8.87638,-4.37515 c-0.86248,3.94391 -5.15341,4.54346 -7.13063,1.5144 c-1.9877500000000001,-3.0288 -1.8194400000000002,-7.98232 -0.41019,-11.60028 s3.8071900000000003,-6.21564 6.13143,-8.70819 c4.99563,-5.35318 10.06495,-10.76951 15.84936,-14.13507 c5.79494,-3.3654200000000003 12.48381,-4.50122 18.28914,-1.15673 c3.06065,1.76681 5.753,4.711650000000001 8.87651,6.26816 c3.1236800000000002,1.5670000000000002 7.08852,1.36728 9.16049,-2.29279 c2.32424,-4.08064 1.23042,-10.13851 2.0929,-15.23928 c1.546,-9.01311 10.55909,-13.23048 15.55472,-7.27789 c-3.7335000000000003,-0.9570000000000001 -7.59333,3.4601800000000003 -8.05615,8.81348 c-0.47322000000000003,5.35317 2.22975,10.759 5.84758,12.37866 c6.07892,2.69231 12.03151,-4.08078 16.62761,-10.34893 q7.19361,-9.844 14.40839,-19.67748 a23.78177,23.78177 0 0 1 2.5766400000000003,-3.13407 a8.291,8.291 0 0 1 11.327,-0.23135 c4.8589,3.96484 7.14116,12.09468 11.12719,17.68972 c5.78441,8.12971 14.44,10.10693 22.496,11.6845 q9.00784,1.7510700000000001 18.02648,3.5232099999999997 a186.77361,186.77361 0 0 1 10.46447,23.10619 C505.90607421874995,201.47112791503906 496.51418421874996,209.55885791503908 489.14168421875,220.44403791503908 z" fill="#fff" id="svg_10"/><path d="M508.55635421875,346.98598791503906 a188.54566,188.54566 0 0 1 -15.67052,26.21909 c-3.78613,-1.6196800000000002 -7.85625,1.27253 -11.40051,3.9859999999999998 c-3.702,2.83957 -8.15076,5.60558 -11.94742,3.01841 c-3.88076,-2.6503300000000003 -5.13236,-10.06482 -3.9018100000000002,-15.944 c1.23042,-5.8685 4.30133,-10.53816 7.27776,-14.97635 c3.15513,-4.711650000000001 6.53108,-9.60213 10.91676,-11.4321 c4.39621,-1.83 10.04377,0.7572000000000001 11.327,7.00443 l3.113,-0.10527000000000002 c-1.74588,-2.3978 -0.8307700000000001,-7.362 1.51453,-8.23485 c2.70284,-1.02013 5.04826,2.69231 6.6467600000000004,5.97377 C507.14707421875005,343.97797791503905 507.87271421875005,345.47148791503906 508.55635421875,346.98598791503906 z" fill="#fff" id="svg_11"/><path d="M389.32842421875,302.56255791503906 c-6.69134,0.42080000000000006 -11.99157,-7.8166400000000005 -15.51364,-15.92031 c-3.5220599999999997,-8.10375 -6.73574,-17.37094 -12.77336,-21.495730000000002 c-3.4498100000000003,-2.35695 -7.3829,-2.68032 -11.12485,-3.82245 c-3.742,-1.142 -7.65866,-3.50524 -9.44741,-8.31792 l-4.2446,-1.71473 c-5.60569,3.152 -11.28535,6.36156 -16.11556,11.4909 a36.01807,36.01807 0 0 0 -9.60269,20.99346 c-0.8108400000000001,8.4961 2.18328,17.96965 7.77788,21.16122 c4.42058,2.52189 9.56739,0.93232 14.04519,3.24105 c5.59453,2.88442 8.916,11.2636 10.17332,19.53684 s0.93866,16.87112 1.83819,25.23825 s3.37871,17.07349 8.50933,21.36133 c6.4203600000000005,5.36571 15.8412,0.907 18.72178,-8.86044 c1.413,-4.79111 1.36427,-10.197330000000001 2.42106,-15.1707 c1.8610000000000002,-8.75838 6.88293,-15.25634 10.866,-22.44083 C388.84221421875,320.65809791503904 391.97752421875,310.90023791503904 389.32842421875,302.56255791503906 z" fill="#fff" id="svg_12"/><path d="M323.20800421875,216.49948791503908 a17.86027,17.86027 0 0 1 1.74249,1.8497700000000001 a6.0774,6.0774 0 0 1 -0.10700000000000001,6.27583 a5.83861,5.83861 0 0 0 4.18126,-2.12511 a26.87915,26.87915 0 0 0 3.20585,-4.51587 c0.6825200000000001,-1.11285 1.40836,-2.6175100000000002 0.9452200000000001,-3.93927 c-0.31610000000000005,-0.90214 -1.06361,-1.287 -1.5876700000000001,-1.96542 c-0.83059,-1.0753300000000001 -1.03646,-2.78336 -1.46641,-4.25929 c-0.92846,-3.18785 -3.15264,-5.53192 -5.56707,-5.86707 l0.3353300000000001,0.06416000000000002 c-1.00855,0.3454900000000001 -1.7128,1.94712 -1.4898600000000002,3.38824 c0.20313,1.3124200000000001 1.04646,2.402 0.96255,3.74051 c-0.12061000000000001,1.92473 -2.04418,2.8280000000000003 -2.1630000000000003,4.753 A3.67445,3.67445 0 0 0 323.20800421875,216.49948791503908 z" fill="#fff" id="svg_13"/><path d="M311.74354421875,183.79099791503904 c0.009940000000000003,-0.0027100000000000006 0.019940000000000003,-0.003260000000000001 0.029880000000000004,-0.005800000000000001 a5.35694,5.35694 0 0 0 0.5708900000000001,-0.6081300000000001 z" fill="#e6e6e6" id="svg_14"/><path d="M313.75032421875,192.82562791503904 c1.4794800000000001,-0.95135 2.30574,-3.58245 1.81653,-5.7846 c-0.48608000000000007,-2.18856 -2.20646,-3.66 -3.79343,-3.25583 a3.86646,3.86646 0 0 1 -3.59495,1.05839 c-0.98109,-0.25259 -2.0582,-0.90305 -2.90906,-0.16386000000000003 a4.40412,4.40412 0 0 0 -0.9909,1.93479 q-0.47242000000000006,1.45027 -0.9449000000000001,2.90028 a1.83,1.83 0 0 0 -0.11163000000000002,1.09908 a0.93106,0.93106 0 0 0 0.7140000000000001,0.5676200000000001 q2.83452,0.8356600000000001 5.6690000000000005,1.67123 C310.98201421875,193.25866791503904 312.46888421875,193.64982791503905 313.75032421875,192.82562791503904 z" fill="#fff" id="svg_15"/><path d="M456.40623421875,317.5574879150391 q-1.31031,-2.14511 -2.62049,-4.29038 a14.334,14.334 0 0 0 -3.45325,-4.33578 a3.05981,3.05981 0 0 0 -4.356,0.43639000000000006 l0.10640000000000001,0.81686 c1.991,2.498 4.09755,5.2729 4.60255,8.98025 c0.19918000000000002,1.46151 0.12986,2.9741400000000002 0.30450000000000005,4.442 s0.6710000000000002,2.9901 1.61837,3.623 c1.3754300000000002,0.91891 2.99049,-0.43593000000000004 3.96942,-2.08913 a7.19317,7.19317 0 0 0 1.1145100000000001,-4.57885 A8.02966,8.02966 0 0 0 456.40623421875,317.5574879150391 z" fill="#fff" id="svg_16"/><path d="M495.28153421875004,262.9400279150391 q0.3789200000000001,-2.4849200000000002 0.7580000000000001,-4.96988 a14.334,14.334 0 0 0 0.15018,-5.54088 a3.05981,3.05981 0 0 0 -3.61357,-2.47124 l-0.44463,0.6934600000000001 c-0.08540000000000002,3.1932 -0.26072999999999996,6.6727300000000005 -2.26178,9.83426 c-0.78878,1.2464 -1.8159,2.359 -2.62754,3.59445 s-1.41218,2.7196800000000003 -1.09493,3.814 c0.46053,1.58874 2.56861,1.59226 4.38215,0.9578700000000001 a7.19314,7.19314 0 0 0 3.80128,-2.78536 A8.02963,8.02963 0 0 0 495.28153421875004,262.9400279150391 z" fill="#e6e6e6" id="svg_17"/><path d="M470.10901421874996,319.41862791503905 c0.42709,-1.2275 -0.18949000000000005,-2.63572 -0.31972000000000006,-3.99283 a8.76489,8.76489 0 0 1 1.3338200000000002,-4.96911 a16.1539,16.1539 0 0 0 2.0783300000000002,-4.55638 a3.81152,3.81152 0 0 0 -0.09971000000000003,-2.23133 c-0.28914,-0.6495500000000001 -0.9894999999999999,-0.9458200000000001 -1.3911600000000002,-0.43149000000000004 l0.8596400000000002,0.55366 a7.82867,7.82867 0 0 0 -3.48867,0.16894000000000006 a4.3178,4.3178 0 0 0 -2.64407,2.98058 a18.44055,18.44055 0 0 1 -0.6933500000000001,3.09241 c-0.51278,1.054 -1.50541,1.4046 -2.12918,2.3297600000000003 a5.57021,5.57021 0 0 0 0.08774000000000003,5.29184 a6.1768,6.1768 0 0 0 3.4939,2.74757 C468.24635421874996,320.77890791503904 469.62873421874997,320.79875791503906 470.10901421874996,319.41862791503905 z" fill="#fff" id="svg_18"/><path d="M494.51107421874997,326.7810279150391 a12.00485,12.00485 0 0 0 1.512,2.7751200000000003 c1.16822,1.17675 2.7559500000000003,0.4536 4.17324,0.16757000000000002 a7.21546,7.21546 0 0 1 6.86407,2.75319 A17.471330000000002,17.471330000000002 0 0 0 497.01198421874994,319.94048791503906 c-3.341,-1.362 -6.85973,-1.49359 -10.33414,-1.616 l-0.60013,0.15380000000000002 C487.60694421874996,322.9298479150391 492.40907421875,322.8302479150391 494.51107421874997,326.7810279150391 z" fill="#fff" id="svg_19"/><path d="M391.15890421874997,335.88607791503904 l0.008790000000000003,0.019390000000000004 q0.08736000000000002,-0.16800000000000004 0.17459000000000002,-0.33624000000000004 z" fill="#e6e6e6" id="svg_20"/><path d="M387.45697421875,343.05148791503905 a32.88905,32.88905 0 0 0 -2.07687,4.56227 a39.71126,39.71126 0 0 0 -1.50522,7.80631 c-0.18800000000000003,1.50447 -0.24600000000000002,3.42594 0.6965400000000002,4.15905 a1.3370000000000002,1.3370000000000002 0 0 0 1.74906,-0.23754000000000003 a6.91827,6.91827 0 0 0 1.26793,-1.8846700000000003 a43.41661,43.41661 0 0 0 4.28028,-10.15882 c0.90215,-3.74378 0.8936800000000001,-8.15134 -0.7010000000000001,-11.39266 Q389.31243421875,339.4785479150391 387.45697421875,343.05148791503905 z" fill="#fff" id="svg_21"/><path d="M351.74438421875004,152.14931791503903 a4.21456,4.21456 0 0 0 4.54215,0.8864700000000001 a14.99873,14.99873 0 0 0 4.27371,-2.823 a10.0548,10.0548 0 0 0 2.5907400000000003,-2.8262400000000003 a5.7317800000000005,5.7317800000000005 0 0 0 0.53,-4.36641 c-0.5852900000000001,-1.71175 -2.07037,-2.28553 -3.38049,-2.67406 q-3.14617,-0.933 -6.29241,-1.86591 l1.5172599999999998,-1.36753 c-1.561,-0.8377900000000001 -3.2880000000000003,0.7170700000000001 -4.26378,2.6420700000000004 a14.22382,14.22382 0 0 0 -1.2943200000000001,3.98431 C349.44501421875,146.76048791503905 349.95563421875,150.35854791503908 351.74438421875004,152.14931791503903 z" fill="#e6e6e6" id="svg_22"/><path d="M388.77480421875,139.71784791503904 a3.46486,3.46486 0 0 0 4.72246,0.38419000000000003 a5.27918,5.27918 0 0 0 2.08866,-3.76209 c0.14845000000000003,-1.6498400000000002 -0.6672900000000002,-3.48358 -1.8324,-3.6260000000000003 l0.26665,-1.54471 c-2.24437,-0.40530000000000005 -5.00619,-0.48651000000000005 -6.20894,2.239 A6.399,6.399 0 0 0 388.77480421875,139.71784791503904 z" fill="#e6e6e6" id="svg_23"/><path d="M383.82816421875,57.57402791503907 a49.9257,49.9257 0 0 0 -55.20724,44.0149 c-3.0906700000000003,27.39943 11.34417,86.89808 37.661880000000004,111.52805 c12.39171,-47.189 55.81463,-75.17882 61.56026,-100.33572 C433.98245421875004,85.90024791503907 411.22759421875,60.66470791503906 383.82816421875,57.57402791503907 z" fill="#0a42a5" id="svg_24"/><circle id="a2705e7e-530b-43fb-b0c6-4087ca2c8018" data-name="b262ea8c-1946-46c9-a449-3a1996c39394" cx="374.72808837890625" cy="102.20342254638672" r="16.282419204711914" fill="#fff"/><circle id="bb575e01-1284-49d3-8651-037e5b7ffa75" data-name="bcc29a3a-8123-4529-80aa-6f70df2823cf" cx="357.6078186035156" cy="225.92930603027344" r="10.664629936218262" fill="#0a42a5"/><path d="M388.20018421875,90.53790791503906 A16.28211,16.28211 0 0 1 371.42769421875005,118.45048791503905 a16.28,16.28 0 0 0 11.9092,-29.8527 A16.28211,16.28211 0 0 1 388.20018421875,90.53790791503906 z" fill="#231f20" opacity="0.2" style="isolation:isolate" id="svg_25"/><path d="M427.90681421875,112.83387791503907 c-5.745620000000001,25.15687 -49.16855,53.14674 -61.56025,100.33571 a69.06074,69.06074 0 0 1 -6.87746,-7.53474 c13.92474,-44.35631 54.64494,-71.30876 60.19629,-95.61482 c4.96849,-21.75442 -8.98817,-42.429 -29.01462,-51.16258 C414.89280421875003,64.95141791503906 433.53298421875,88.19999791503906 427.90681421875,112.83387791503907 z" fill="#231f20" opacity="0.2" style="isolation:isolate" id="svg_26"/><path d="M231.24541421875,121.10556791503905 a37.4925,37.4925 0 0 0 -41.45875,33.05369 c-2.321,20.576 8.51909,65.25748 28.28279,83.75375 c9.30575,-35.43731 41.91488,-56.45672 46.22965,-75.34869 C268.90957421875,142.37758791503904 251.82145421874998,123.42656791503907 231.24541421875,121.10556791503905 z" fill="#0a42a5" id="svg_27"/><circle id="b2d5ab8a-e71c-4a1a-aadf-98f8ab95825b" data-name="b262ea8c-1946-46c9-a449-3a1996c39394" cx="224.4115753173828" cy="154.6207275390625" r="12.227540016174316" fill="#fff"/><circle id="bac33ac8-32b5-423c-9bc5-6c03ceb8d8dc" data-name="bcc29a3a-8123-4529-80aa-6f70df2823cf" cx="211.55484008789062" cy="247.5346221923828" r="8.008769989013672" fill="#0a42a5"/><path d="M234.52864421875,145.86031791503905 A12.2273,12.2273 0 1 1 221.93307421875,166.82169791503907 a12.22574,12.22574 0 0 0 8.9434,-22.41835 A12.22721,12.22721 0 0 1 234.52864421875,145.86031791503905 z" fill="#231f20" opacity="0.2" style="isolation:isolate" id="svg_28"/><path d="M264.34697421875,162.60382791503906 c-4.31476,18.892 -36.9239,39.91138 -46.22964,75.34869 a51.86155,51.86155 0 0 1 -5.16474,-5.65834 c10.457,-33.31006 41.03648,-53.55043 45.20536,-71.80345 c3.73116,-16.33682 -6.74982,-31.8627 -21.789,-38.42135 C254.57389421875,126.64573791503904 268.57207421875,144.1046279150391 264.34697421875,162.60382791503906 z" fill="#231f20" opacity="0.2" style="isolation:isolate" id="svg_29"/><polygon points="614.063 564.054 600.638 564.054 594.251 512.27 614.066 512.271 614.063 564.054" fill="#a0616a" id="svg_30"/><path d="M621.28548421875,589.5456679150391 H611.75907421875 l-1.70042,-8.99408 l-4.355,8.99408 H580.43723421875 a5.6796500000000005,5.6796500000000005 0 0 1 -3.22736,-10.35347 l20.177,-13.934940000000001 v-9.0927 l21.22264,1.2667 z" fill="#2f2e41" id="svg_31"/><polygon points="562.063 564.054 548.638 564.054 542.251 512.27 562.066 512.271 562.063 564.054" fill="#a0616a" id="svg_32"/><path d="M569.28548421875,589.5456679150391 H559.75907421875 l-1.70042,-8.99408 l-4.355,8.99408 H528.43723421875 a5.6796500000000005,5.6796500000000005 0 0 1 -3.22736,-10.35347 l20.177,-13.934940000000001 v-9.0927 l21.22264,1.2667 z" fill="#2f2e41" id="svg_33"/><path d="M511.05892421875,427.33300791503905 C513.62807421875,431.186767915039 541.57776421875,537.1264879150391 541.57776421875,537.1264879150391 l24.78267,2.8261000000000003 l-2.9416700000000002,-26.65516 l-4.49613,-47.1699 l-6.96244,-31.48522 s24.58692,-55.95658 26.1413,-60.41406 l1.10473,-3.19861 L586.88807421875,440.744087915039 a19.577,19.577 0 0 1 1.16894,7.78459 c-0.23122,4.35477 4.1364,69.86859 4.1364,69.86859 l2.09977,23.49506 l21.23324,2.94958 L624.14107421875,504.1896679150391 c7.19365,-13.20558 3.07,-60.13148 0.12843000000000002,-64.49911 s-1.77275,-34.78661 -1.77275,-34.78661 c3.75647,-1.3218400000000001 26.15662,-77.70611 14.95252,-77.25506 c0.71936,-4.07209 1.28453,-7.70751 1.28453,-7.70751 L619.28517421875,304.25654791503905 l-48.67284,-12.65291 l-12.27964,-5.89628 s-21.93185,40.55432 -21.71349,42.57113 a11.21429,11.21429 0 0 1 -1.6570900000000002,7.3093 l-22.14331,74.10779 S508.46407421875006,423.4407479150391 511.05892421875,427.33300791503905 z" fill="#2f2e41" id="svg_34"/><path d="M633.34128421875,162.14748791503905 L625.59807421875,145.70735791503904 l-26.35436,1.01288 l-8.59627,17.10337 s-24.56687,29.34271 -25.362,38.88375 c-1,12 7.31164,70.81225 -1,67 c0,0 -19.59459,23 -8,23 s64.04242,32.924 67.48383,36.62652 s18.80446,6.10321 17.51617,-1.6265200000000002 s-7.9442,-49.53382 -7.9442,-49.53382 l18.01876,-65.733 c5.18564,-14.19171 6.79951,-30.11048 -4.923,-39.64345 z" fill="#ccc" id="svg_35"/><path d="M535.72215421875,113.75979791503909 A28.8805,28.8805 0 0 0 498.22380421875005,129.94748791503906 c-5.88478,14.825 -6.86,50.22813 4.09122,67.97179 c14.08087,-24.45936 42.56848,-33.49094 49.59479,-46.6611 C559.41767421875,137.18537791503906 550.54713421875,119.64458791503904 535.72215421875,113.75979791503909 z" fill="#0a42a5" id="svg_36"/><circle id="f50692ea-d13f-4759-b5e2-05248e17533e" data-name="b262ea8c-1946-46c9-a449-3a1996c39394" cx="523.8672485351562" cy="137.29013061523438" r="9.418880462646484" fill="#fff"/><circle id="aec6a1c4-a00c-42b6-a49d-0158b63ca54a" data-name="bcc29a3a-8123-4529-80aa-6f70df2823cf" cx="495.5276184082031" cy="203.7540283203125" r="6.169169902801514" fill="#0a42a5"/><path d="M533.15824421875,132.82374791503906 a9.41871,9.41871 0 0 1 -13.59978,13.03434 A9.4175,9.4175 0 0 0 530.73812421875,131.00248791503907 A9.41862,9.41862 0 0 1 533.15824421875,132.82374791503906 z" fill="#231f20" opacity="0.2" style="isolation:isolate" id="svg_37"/><path d="M551.93741421875,151.29719791503908 c-7.0263,13.17015 -35.51393,22.20174 -49.59479,46.6611 a39.949,39.949 0 0 1 -2.69508,-5.24993 c14.50656,-22.64545 41.328,-31.50828 48.11674,-44.233 c6.076,-11.3889 1.42413,-25.0481 -8.42863,-32.96342 C551.94225421875,122.59382791503907 558.81765421875,138.40085791503907 551.93741421875,151.29719791503908 z" fill="#231f20" opacity="0.2" style="isolation:isolate" id="svg_38"/><path d="M492.74734421874996,201.62980791503907 a10.01609,10.01609 0 0 1 12.03458,9.542 l21.36828,8.20224 l-1.81735,14.20115 l-30.01347,-12.007 a10.07034,10.07034 0 0 1 -1.572,-19.93845 z" fill="#a0616a" id="svg_39"/><path d="M642.05322421875,172.36501791503906 l0,0 a20.02625,20.02625 0 0 0 -27.56523,6.71925 l-30.67136,50.64907 L514.47027421875,213.2956179150391 l-6.3177200000000004,17.34458 l88.80518000000001,42.06574 l44.97713,-71.63724 C648.66888421875,191.60548791503908 651.96644421875,178.41702791503906 642.05322421875,172.36501791503906 z" fill="#ccc" id="svg_40"/><path d="M643.19855421875,110.29294791503906 a29.82287,29.82287 0 1 1 -51.29533,-20.68525 l0.14314000000000002,-0.14300000000000002 c0.2386,-0.25061 0.4772,-0.50108 0.7277300000000001,-0.7397500000000001 a0.011670000000000003,0.011670000000000003 0 0 0 0.011870000000000004,-0.011940000000000003 c0.31017000000000006,-0.28629 0.6203400000000001,-0.57258 0.94245,-0.8469200000000001 a29.815,29.815 0 0 1 49.47014,22.42685 z" fill="#2f2e41" id="svg_41"/><circle cx="606.0281982421875" cy="117.19309997558594" r="25.007749557495117" fill="#9e616a" id="svg_42"/><path d="M632.58431421875,124.32485791503905 l-4.14356,-0.7319300000000001 a11.55433,11.55433 0 0 1 -9.30469,-9.31739 l-4.043,6.77588 l-0.17675000000000002,0.05860000000000001 c-9.63282,3.19824 -19.65528,2.2417 -30.63379,-2.92041 a85.46475,85.46475 0 0 1 -9.11817,-5.02735 l-0.21679000000000004,-0.13525 l-0.017580000000000005,-0.2544 c-0.55957,-8.13525 1.26562,-14.93164 5.1416,-19.1372 a15.41707,15.41707 0 0 1 11.63379,-4.84961 a0.9572700000000001,0.9572700000000001 0 0 0 0.41309,-0.22800000000000004 c0.05566000000000001,-0.04100000000000001 0.11132000000000002,-0.08154000000000002 0.16700000000000004,-0.12012000000000002 v-0.04200000000000001 l0.28711000000000003,-0.13525 c0.6171800000000001,-0.29000000000000004 1.2460900000000001,-0.5678700000000001 1.875,-0.8217800000000001 a28.19911,28.19911 0 0 1 29.44824,5.708 c7.70312,7.354 11.23633,19.69531 8.792,30.71093 z" fill="#2f2e41" id="svg_43"/><path d="M685.33084421875,145.63158791503906 c-8.51007,-4.39247 2.43483,-20.33442 0.23554000000000003,-29.65523 c-2.19937,-9.32081 -18.037,-12.31871 -19.04593,-21.84222 s-3.38245,-19.346 -9.6668,-26.57249 c-4.01568,-4.61774 -9.93278,-8.02669 -16.02492,-7.44829 a14.40868,14.40868 0 0 0 -12.628260000000001,17.79207 c-1.73455,-2.45776 -6.22341,-1.92509 -7.33449,0.8705200000000001 c-0.98788,2.48528 1.19437,5.49568 3.7625200000000003,5.71556 c3.3604600000000002,4.15 7.2086,8.55427 12.47325,9.39144 a5.68063,5.68063 0 0 0 4.84076,-1.11734 c1.23856,-1.1894200000000001 1.3348900000000001,-3.56739 -0.13434000000000001,-4.45625 c6.61615,2.62814 10.49509,9.78155 11.47678,16.83259 c0.98162,7.051 -0.37650000000000006,14.18523 -1.27148,21.24778 s-1.28057,14.492 1.4886,21.05045 c3.27178,7.74885 10.80453,13.30263 19.02518,15.0837 s16.97552,0.04034000000000001 24.4166,-3.88148 c7.44108,-3.92212 13.64622,-9.90941 18.71523,-16.62188 C706.92737421875,148.22069791503907 694.84700421875,150.54348791503907 685.33084421875,145.63158791503906 z" fill="#2f2e41" id="svg_44"/><path d="M631.51994421875,123.62964791503907 s-7.408,-27.65168 -39.16341,-34.03389 c-0.035750000000000004,-0.011790000000000004 -0.15508000000000002,-0.05955000000000001 -0.31017000000000006,-0.131 c-0.09538000000000002,-0.05971000000000001 -0.21472000000000002,-0.11941000000000002 -0.3340000000000001,-0.17900000000000002 c0.35786000000000007,-0.20285 0.7037800000000001,-0.38167000000000006 1.06171,-0.5607800000000001 a0.011670000000000003,0.011670000000000003 0 0 0 0.011870000000000004,-0.011940000000000003 c0.31017000000000006,-0.28629 0.6203400000000001,-0.57258 0.94245,-0.8469200000000001 l0.90663,0.035820000000000005 S626.49774421875,82.85590791503907 631.51994421875,123.62964791503907 z" fill="#089b1f" id="svg_45" class="selected" fill-opacity="1"/><polygon points="614.934 212.357 596.999 233.136 567.364 224.385 599.671 239.273 614.934 212.357" opacity="0.2" id="svg_46"/><path d="M722.58567421875,591.1116379150391 l-275.75,0.30734000000000006 a1.19069,1.19069 0 0 1 0,-2.38137 l275.75,-0.30733000000000005 a1.19068,1.19068 0 1 1 0,2.38136 z" fill="#cacaca" id="svg_47"/><path d="M734.68947421875,406.0719079150391 q-19.36816,0 -42.45654,-1.46387 c-79.61377,-5.05566 -182.73779,-22.63281 -290.376,-49.49218 C294.21920421875,328.2564879150391 194.92672421875,295.32190791503905 122.27144421874999,262.3814879150391 c-35.39257,-16.04687 -62.55615,-31.23633 -80.73535,-45.14746 c-19.24707,-14.727 -27.666,-27.564 -25.02392,-38.15283 c5.148,-20.62891 50.731,-25.14209 88.064,-25.29541 l0.012700000000000003,3 c-51.26807,0.21045000000000003 -81.51367,8.38672 -85.16553,23.022 c-4.6518500000000005,18.64014 33.28662,47.74072 104.08691,79.84131 c72.49561,32.86813 171.60547,65.73923 279.07322,92.55661 c107.46728,26.81641 210.40136,44.36328 289.83984,49.4082 c77.57861,4.92774 124.74316,-2.9375 129.39453,-21.57812 c3.8618200000000003,-15.47657 -21.59814,-38.27539 -71.68945,-64.19825 l1.3789,-2.66406 c36.397,18.83594 78.64551,45.85156 73.22168,67.58887 c-2.64251,10.58887 -16.1054,17.96484 -40.01507,21.92285 C771.08449421875,404.941047915039 754.34377421875,406.0719079150391 734.68947421875,406.0719079150391 z" fill="#0a42a5" id="svg_48"/></g></svg>