<svg xmlns="http://www.w3.org/2000/svg" xmlns:xlink="http://www.w3.org/1999/xlink" data-name="Layer 1" width="1137.1199951171875" height="824.5900268554688" style=""><rect id="backgroundrect" width="100%" height="100%" x="0" y="0" fill="none" stroke="none"/><defs><linearGradient id="38e3d8fd-16c6-494d-bdf0-b7b543d88498-1108" x1="0.4999481439590454" y1="1.0000427961349487" x2="0.4999481439590454" y2="0.00014571713109035045"><stop offset="0" stop-color="gray" stop-opacity="0.25"/><stop offset="0.54" stop-color="gray" stop-opacity="0.12"/><stop offset="1" stop-color="gray" stop-opacity="0.1"/></linearGradient></defs><title>running wild</title><g class="currentLayer" style=""><title>Layer 1</title><path d="M1106.7699994659424,185.67000091552734 c-45.43,-72.74 -122,-123.89 -204.79,-136.89 C827.2699994659424,37.06000091552734 748.5599994659424,56.570000915527345 686.6699994659424,101.29000091552734 l13.64,-10.77 C651.5599994659424,122.37000091552736 588.2299994659423,120.29000091552734 532.7699994659424,103.71000091552733 S426.3699994659424,57.56000091552734 372.3199994659424,36.56000091552734 A551.27,551.27 0 0 0 231.36999946594239,2.2900009155273438 C162.49999946594238,-5.109999084472655 85.55999946594238,3.850000915527346 37.60999946594238,55.42000091552734 c-53.43,57.43 -49.33,161 8.47,213.74 c29.39,26.82 67.89,40 101.46,60.91 s64.65,55.71 61.79,96.12 C206.6799994659424,463.60000091552735 175.90999946594238,492.29000091552734 144.06999946594237,510.29000091552734 c-24.62,13.93 -54.93,29.13 -57.9,58 c-2.87,27.9 22.62,49.76 47,62.2 c79.4,40.55 177.22,40.16 256.32,-1 c28.22,-14.69 54.16,-34.24 83.75,-45.69 c77.7,-30.07 163.32,0.2 245.6,11.27 a524.39,524.39 0 0 0 208.88,-14.2 c40.75,-11.24 81.65,-28.42 110.27,-60.42 C1058.5599994659424,497.29000091552734 1071.4499994659425,468.1200009155273 1083.5599994659424,439.29000091552734 q19.32,-46.14 37.13,-92.93 c7.12,-18.73 14.14,-37.82 16,-57.85 C1139.9699994659425,252.19000091552732 1125.9099994659423,216.29000091552734 1106.7699994659424,185.67000091552734 zm-800.47,5.13 H233.45999946594236 a7.5600000000000005,7.5600000000000005 0 0 1 0,-15.12 h25 a7.53,7.53 0 0 1 2.94,-10.68 h-8.19 a7.5600000000000005,7.5600000000000005 0 0 1 0,-15.12 h72.83 A7.5600000000000005,7.5600000000000005 0 0 1 329.5599994659424,164.15000091552736 h8.2 a7.5600000000000005,7.5600000000000005 0 1 1 0,15.12 h-25 a7.46,7.46 0 0 1 1.15,4 A7.58,7.58 0 0 1 306.2999994659424,190.80000091552733 zM426.3799994659424,298.6300009155273 h-25 a7.54,7.54 0 0 1 -6.41,11.54 H322.13999946594237 a7.5600000000000005,7.5600000000000005 0 0 1 0,-15.12 h25 a7.53,7.53 0 0 1 2.95,-10.68 h-8.2 a7.5600000000000005,7.5600000000000005 0 1 1 0,-15.12 h72.83 a7.55,7.55 0 0 1 3.48,14.26 h8.19 a7.5600000000000005,7.5600000000000005 0 1 1 0,15.12 zM536.0199994659424,217.69000091552735 l1.18,1.84 a17.39,17.39 0 0 1 -7.4,-0.7400000000000001 a19.17,19.17 0 0 1 -10.09,-3.83 l6.39,-1.07 c-0.08000000000000002,-1.9100000000000001 0.6100000000000001,-4.44 2.51,-7.8 l4.26,6.67 l11.42,-1.9 A19.9,19.9 0 0 1 536.0199994659424,217.69000091552735 zm168.25,76.84 l1.18,1.84 a17.57,17.57 0 0 1 -7.4,-0.7400000000000001 a19.17,19.17 0 0 1 -10.09,-3.83 l6.39,-1.07 c-0.08000000000000002,-1.9100000000000001 0.6100000000000001,-4.44 2.51,-7.8 l4.26,6.67 l11.42,-1.9 A19.9,19.9 0 0 1 704.2699994659424,294.53000091552735 zM836.8999994659424,231.29000091552734 l1.18,1.84 a17.39,17.39 0 0 1 -7.4,-0.7400000000000001 A19.17,19.17 0 0 1 820.5599994659424,228.51000091552737 l6.39,-1.07 c-0.08000000000000002,-1.9100000000000001 0.6100000000000001,-4.44 2.51,-7.8 l4.26,6.67 l11.41,-1.9 A19.84,19.84 0 0 1 836.8999994659424,231.29000091552734 zM926.5599994659424,151.98000091552734 H901.5599994659424 a7.54,7.54 0 0 1 -6.41,11.54 H822.3399994659424 a7.5600000000000005,7.5600000000000005 0 1 1 0,-15.12 h25 a7.53,7.53 0 0 1 3,-10.68 h-8.2 a7.5600000000000005,7.5600000000000005 0 1 1 0,-15.12 h72.83 a7.55,7.55 0 0 1 3.48,14.26 H926.5599994659424 a7.5600000000000005,7.5600000000000005 0 1 1 0,15.12 z" fill="#ffffff" opacity="0.68" id="svg_1" class="selected" fill-opacity="1"/><ellipse cx="623.3900146484375" cy="806.5499877929688" rx="57.72999954223633" ry="18.040000915527344" fill="#0a42a5" opacity="0.1" id="svg_2"/><ellipse cx="711.4500122070312" cy="694.9000244140625" rx="31.079999923706055" ry="9.710000038146973" fill="#0a42a5" opacity="0.1" id="svg_3"/><ellipse cx="872.0999755859375" cy="722.0999755859375" rx="31.079999923706055" ry="9.710000038146973" fill="#0a42a5" opacity="0.1" id="svg_4"/><ellipse cx="934.010009765625" cy="795.8900146484375" rx="57.72999954223633" ry="18.040000915527344" fill="#0a42a5" opacity="0.1" id="svg_5"/><path d="M1085.9999994659424,323.8200009155273 c-4.36,-8.6 -10.24,13.76 -10.24,16.41 c0,1.1400000000000001 -1.3,2.44 -2.79,3.55 c-0.25,0.19000000000000003 -0.5,0.37000000000000005 -0.7600000000000001,0.54 a4.45,4.45 0 0 0 -2.13,-2 c-5.12,-1.4300000000000002 -12.79,6.88 -12.79,6.88 s-13.93,5.45 -22.17,6.88 s-15.34,7.17 -15.34,7.17 s-13.36,4.88 -18.19,2.3 c-3.06,-1.6400000000000001 -12.28,-2.58 -19.71,-3.13 c-0.08000000000000002,-0.16000000000000003 -0.15000000000000002,-0.32000000000000006 -0.22000000000000003,-0.48000000000000004 a42.93,42.93 0 0 0 -7.2,-10.53 c-2.51,-2.6900000000000004 -5.44,-5.17 -6.82,-8.58 c-0.12000000000000001,-0.30000000000000004 -0.22000000000000003,-0.6000000000000001 -0.32000000000000006,-0.91 c5.16,-4.72 10.53,-10.89 10.63,-16.23 c0.11000000000000001,-6 -8.82,-7.12 -16.26,-7 c-1.9,0 -3.77,0 -5.45,0.13 a21.47,21.47 0 0 0 -3.9,-4.51 l-0.2,-1.33 l-2.52,-16.54 A29.57,29.57 0 0 0 921.5599994659424,282.16000091552735 s-22,2.48 -23.48,12.23 A153.49,153.49 0 0 1 894.6399994659424,310.29000091552734 c-0.15000000000000002,0.51 -0.27,0.92 -0.36000000000000004,1.24 c-2.08,0.5700000000000001 -3.6100000000000003,1 -4.4,1.28 c-7.7,0.81 -17.05,3.48 -17.61,11.63 s0,15 4.51,19.8 c0.7500000000000001,1.44 1.54,2.8600000000000003 2.15,4.36 a19.65,19.65 0 0 1 -2.06,18.3 c-3.1,4.42 -7.890000000000001,7.3100000000000005 -11.64,11.18 a21,21 0 0 0 -5.83,11.85 l-0.48000000000000004,0.07 a51.56,51.56 0 0 0 -6,13.47 c-1.71,6.88 -15.06,21.22 -15.06,21.22 S825.0999994659423,440.99000091552733 819.6999994659424,443.29000091552734 s-7.39,4.3 -7.39,4.3 l-2.85,2 s-2.27,3.44 -4.54,4.87 s-33,24.95 -33,24.95 s-14.49,5.44 -16.48,9.74 c-0.51,1.09 0.21000000000000002,3 1.56,5.17 l-1.37,0.7300000000000001 c-3.7,2 -8.27,4.34 -12.08,6 a1.62,1.62 0 0 0 0,-0.18000000000000002 s-2.29,-4.91 -4.17,-9.45 c-0.33000000000000007,-0.81 -0.6600000000000001,-1.61 -1,-2.37 c1.78,0.14 2.9,0.26 2.9,0.26 s-0.7600000000000001,-7.65 1.52,-8 s-1.6500000000000001,-6.5 -1.6500000000000001,-6.5 l-1,-5.73 s2.2800000000000002,-14.15 0,-17.21 s-4.92,-11.46 -4.92,-11.46 s2.27,-7.27 0,-9.56 s-3.41,-9.18 -3.41,-9.18 s-1.9,-14.52 -6.82,-23.7 s-13.27,-26.76 -13.27,-26.76 l-6.44,-21 h0 s-19.32,-35.56 -38.27,-47.78 s-46,-14 -46,-14 c-0.09000000000000002,-0.23 -0.19000000000000003,-0.45 -0.28,-0.6800000000000002 a48.82,48.82 0 0 1 -1.84,-5.65 c-0.08000000000000002,-0.32000000000000006 -0.14,-0.6400000000000001 -0.21000000000000002,-1 a36.56,36.56 0 0 0 7.16,-47.22 c-0.28,-0.44000000000000006 -0.5700000000000001,-0.8600000000000001 -0.8700000000000001,-1.28 a13.44,13.44 0 0 0 7,-10.19 c0.6000000000000001,-5.26 -6,-9.82 -9.89,-12.54 c-0.39000000000000007,-0.28 -0.8,-0.55 -1.21,-0.8 l-0.52,-0.32000000000000006 l-0.7000000000000001,-0.4 c-0.22000000000000003,-0.12000000000000001 -0.45,-0.25 -0.6900000000000002,-0.36000000000000004 l-0.53,-0.27 a18.19,18.19 0 0 0 -8.47,-2 c-3.6500000000000004,0.12000000000000001 -7.15,1.56 -10.79,1.78 c-8.1,0.5 -16.44,-5 -23.95,-1.87 c-5.52,2.2800000000000002 -9.08,8.76 -15,9.39 c-1.6600000000000001,0.18000000000000002 -3.33,-0.15000000000000002 -5,-0.06000000000000001 a4.93,4.93 0 0 0 -4.25,2.2 c-0.6600000000000001,1.25 -0.44000000000000006,2.77 -0.27,4.18 A39.58,39.58 0 0 1 548.5599994659424,239.58000091552736 c-5.65,-2.09 -23.23,5.58 -24.45,9 c-0.93,2.64 -7.51,10.23 -11.91,15.13 l-1.12,1.24 a3.5300000000000002,3.5300000000000002 0 0 1 0.24000000000000002,-1.56 l-11,6.88 s-11.36,2.27 -15.53,11.84 S468.5599994659424,294.01000091552737 468.5599994659424,294.01000091552737 l-7.57,12.61 s-18.95,8 -20.09,32.11 S455.2499994659424,361.29000091552734 455.2499994659424,361.29000091552734 h0 c6.43,1.9100000000000001 37.12,0 37.12,0 s24.26,-16.06 26.15,-4.21 s9.48,51.6 15.17,55.81 s8.33,18.73 8.33,18.73 s-11,22.56 -2.6500000000000004,34.79 a133.52,133.52 0 0 1 13.25,25.61 l1.21,0.31000000000000005 l-0.77,2.09 l-4.6,12.32 s9.85,6.3 9.47,9.37 s-2.6500000000000004,15.67 -2.6500000000000004,15.67 s9.1,17.58 7.58,20.64 s0.17,8.79 0.17,8.79 s6.27,38.23 11.19,48.17 a61.16,61.16 0 0 1 5.63,20.64 s-4.1,9.17 -1.83,12.23 s1.83,8.41 1.83,8.41 s-0.36000000000000004,6.5 0,8.42 s1.1600000000000001,8.78 2.29,9.93 s1.53,32.88 17,65 v7.65 s-3.41,4.2 0,8 c1,1.08 4.6,0.93 9.27,0.15000000000000002 c0.35000000000000003,0.6700000000000002 0.7000000000000001,1.3800000000000001 1.07,2.12 a68.07,68.07 0 0 1 5.35,14 c0.09000000000000002,0.35000000000000003 0.16000000000000003,0.7000000000000001 0.23,1.05 c-2.16,1 -3.77,2.5 -3.22,4.83 c1.42,6 -4.54,22.94 -4.54,22.94 s-6.26,9.46 -2.2800000000000002,13.76 s38.65,7.46 40.07,3.73 s-4,-27 -4,-27 l-5.13,-17.39 l-0.30000000000000004,-1.32 c-1.08,-4.7 -2.94,-13 -4.4,-20.09 c-0.15000000000000002,-0.7400000000000001 -0.29000000000000004,-1.46 -0.44000000000000006,-2.17 c4.54,-1.31 7.71,-2.3200000000000003 7.71,-2.3200000000000003 s-6.82,-9.18 -5.3100000000000005,-13 s-4.16,-66.9 -4.16,-66.9 S626.5599994659424,654.4900009155274 628.0499994659424,650.2900009155273 s-4.93,-10.7 -4.93,-10.7 l2.66,-70.72 s17.43,56.19 37.51,69.58 c0,0 25.39,3.05 30.7,-6.51 c0.28,-0.5 0.54,-1 0.79,-1.6 c0.24000000000000002,0.31000000000000005 0.47000000000000003,0.6200000000000001 0.6800000000000002,0.9400000000000001 a28.58,28.58 0 0 1 2.08,3.6 q0.42000000000000004,0.8400000000000001 0.7500000000000001,1.6500000000000001 h0 s5.73,16.62 7.06,23.79 s15.44,-5.45 19.71,-8 s1.7000000000000002,-20.35 -4.27,-25.8 c-3,-2.6900000000000004 -3.74,-7.42 -4.59,-12.92 l-0.22000000000000003,-3 s-0.1,-0.13 -0.30000000000000004,-0.35000000000000003 c-0.78,-4.77 -1.8800000000000001,-9.9 -4.55,-14.71 c-3,-5.3 -7.9,-6.4 -12.45,-6 a8.92,8.92 0 0 0 -7.79,6.44 l-0.41000000000000003,0.2 a16.64,16.64 0 0 0 -2.94,0.24000000000000002 s0,-9.55 -1.9,-14.53 s0.7600000000000001,-19.49 0.7600000000000001,-19.49 s0.77,-3.8200000000000003 -1.51,-11.08 s-1.13,-48.17 -1.13,-48.17 a91.22,91.22 0 0 0 -2.64,-8.89 c-0.12000000000000001,-0.33000000000000007 -0.25,-0.6600000000000001 -0.38000000000000006,-1 a1.83,1.83 0 0 0 0.36000000000000004,-0.8200000000000001 c0.38000000000000006,-3.44 -4.93,-15.29 1.8900000000000001,-19.11 s-3,-20.64 -3,-20.64 l-2.2800000000000002,-50.46 s-7.44,-13.6 -6.39,-16.63 l11.7,14.33 s8,15.3 8.34,17.59 s1.9,8 4.17,7.26 s3.41,10.71 3.41,10.71 s6.06,13 4.93,17.58 s1.51,8.79 1.51,8.79 s6.06,10.32 5.3100000000000005,14.15 s3.35,15.13 3.4,15.28 h0 s0.15000000000000002,0.6300000000000001 0.36000000000000004,1.6700000000000002 c0.6800000000000002,3.29 2,10.620000000000001 1.59,13.82 c-0.6200000000000001,4.2 -2.6100000000000003,33.73 12.74,27.43 a16.87,16.87 0 0 0 4.94,-3.15 a4.86,4.86 0 0 0 2.54,1.1400000000000001 c7.24,1 22.67,-15.16 30.34,-23.8 l1.07,-1.21 c1.7000000000000002,1.78 2.89,2.93 2.89,2.93 l8,-4 S827.9399994659424,486.29000091552734 832.7699994659424,477.6900009155273 s33.08,-27.24 33.08,-27.24 s4.43,21.5 1.31,24.66 c-3,3 -12.39,23.14 -10.82,29.53 a3.23,3.23 0 0 0 0.30000000000000004,0.8600000000000001 c-4.54,3.15 0,43.58 0,43.58 S858.0599994659424,567.7100009155273 855.5599994659424,580.2900009155273 a30.25,30.25 0 0 0 -0.08000000000000002,9.620000000000001 c1,8.37 4.26,17.57 5.59,23.42 c0.53,2.3 0.7600000000000001,4.09 0.45,5.09 c-1.42,4.59 2,20.07 5.4,22.36 s1.1400000000000001,12 1.1400000000000001,12 s-2.56,14.620000000000001 0,18.92 a21,21 0 0 1 1.3,2.6 l-0.6700000000000002,0.8500000000000001 c-4.71,6 -12,17.51 -9.25,28 c4,15.09 13.65,23.32 20.84,14.52 S886.8599994659423,693.2900009155273 886.8599994659423,693.2900009155273 s0,-3 0.18000000000000002,-6.5600000000000005 c0,-0.7500000000000001 0.11000000000000001,-1.52 0.18000000000000002,-2.3 a14.61,14.61 0 0 0 2.11,0 c6,-0.5700000000000001 6.82,-4.3 12.5,-6.59 s10.8,-12 10.8,-12 l0.29000000000000004,-31 s2.84,29 4.54,36.12 s-2,37.28 -2,37.28 l-2.84,27 l-1.42,9.74 c0.7400000000000001,1.81 2.93,3.16 5.890000000000001,4.16 c-0.15000000000000002,0.6600000000000001 -0.30000000000000004,1.37 -0.47000000000000003,2.14 c-1.15,5.4 -2.63,13.1 -2.8600000000000003,17.59 c-0.38000000000000006,7.46 5.88,29.06 7.19,29.25 s37.14,10.32 33,-2.68 s-10.8,-14.14 -9.84,-19.11 c0.6200000000000001,-3.29 -0.41000000000000003,-14.74 -1.19,-22.08 c-0.08000000000000002,-0.8300000000000001 -0.17,-1.59 -0.24000000000000002,-2.29 c3.46,0 5.78,-0.09000000000000002 5.78,-0.09000000000000002 l-0.5700000000000001,-11.19 s11.09,-43.29 10,-51.6 S961.5599994659424,662.2900009155273 961.5599994659424,662.2900009155273 s4.27,-35.83 4,-41.72 s5.12,-26.8 5.12,-26.8 a387.87,387.87 0 0 0 10,-44.15 c3.6900000000000004,-23.22 -6.26,-46.45 -6.26,-46.45 s-0.09000000000000002,-0.41000000000000003 -0.22000000000000003,-1.13 c-1,-5.13 -4.74,-26.14 0.22000000000000003,-34.42 c5.69,-9.46 7.39,-28.95 7.39,-28.95 s14.5,-22.37 13.08,-28.1 c0,0 46.61,-15.2 49.45,-20.07 s22.73,-15.17 22.73,-15.17 l13.65,-4.33 s-0.6200000000000001,-3.09 -1.6300000000000001,-7.24 l0.9400000000000001,-0.78 c3.27,-2.72 7.13,-5.74 8.17,-5.74 C1089.9699994659425,357.29000091552734 1090.3499994659423,332.42000091552734 1085.9999994659424,323.8200009155273 zM534.0699994659424,293.23000091552734 h-9.09 s-2,1 -4.91,2.68 c-0.8600000000000001,0.48000000000000004 -1.78,1 -2.75,1.61 c1.18,-4 2.35,-7.8100000000000005 2.35,-7.8100000000000005 l7.2,-7.57 s-0.8800000000000001,-0.6000000000000001 -2.21,-1.62 c0.52,-0.24000000000000002 1.08,-0.5 1.6700000000000002,-0.7400000000000001 a14.86,14.86 0 0 1 5.18,-1.35 c3.7,0 11.94,-13.48 11.94,-13.48 a124,124 0 0 0 4.71,-11.77 a14.61,14.61 0 0 0 1.75,1.77 a6.09,6.09 0 0 0 1.6700000000000002,2.67 c1.51,1.42 3.49,2.5 4.26,4.43 c1.19,2.94 -1,6.63 0.6200000000000001,9.37 a7.5,7.5 0 0 0 2.81,2.42 c2.6500000000000004,1.58 5.36,3.05 8.1,4.47 h0 l2.15,1.12 v0.27 c-0.05000000000000001,2.94 -0.19000000000000003,6.09 -0.48000000000000004,9.28 c0,0.33000000000000007 -0.07,0.6600000000000001 -0.1,1 h0 s-18.58,-8.19 -22.36,-4.75 s-10.61,2.67 -10.61,2.67 S537.4799994659423,293.23000091552734 534.0699994659424,293.23000091552734 z" fill="url(#38e3d8fd-16c6-494d-bdf0-b7b543d88498-1108)" id="svg_6"/><path d="M636.7599994659424,318.55000091552733 l-41.29,24.25 s-49.66,-12.88 -36,-23.88 c6.08,-4.890000000000001 8.63,-15.34 9.57,-25.44 c0.29000000000000004,-3.16 0.43000000000000005,-6.29 0.48000000000000004,-9.2 a142.63,142.63 0 0 0 -0.5800000000000001,-15.38 s57.59,-9.84 50.39,4.94 c-1.75,3.59 -1.61,8.07 -0.42000000000000004,12.81 a47.5,47.5 0 0 0 1.84,5.6 C625.9599994659424,305.42000091552734 636.7599994659424,318.55000091552733 636.7599994659424,318.55000091552733 z" fill="#ffccd0" id="svg_7"/><path d="M619.3299994659424,273.84000091552736 c-1.75,3.59 -1.61,8.07 -0.42000000000000004,12.81 a35.8,35.8 0 0 1 -23.44,8.7 c-9.47,0 -13.1,-8.06 -19.53,-14 c-0.5,-0.47000000000000003 -3.58,0.81 -4,0.32000000000000006 c0.14,-8.65 -3,-12.74 -3,-12.74 S626.5599994659424,259.0600009155273 619.3299994659424,273.84000091552736 z" opacity="0.1" id="svg_8"/><path d="M631.4699994659424,258.21000091552736 a36,36 0 1 1 -5.61,-19.32 A36,36 0 0 1 631.4699994659424,258.21000091552736 z" fill="#ffccd0" id="svg_9"/><path d="M625.8599994659423,238.89000091552737 a10,10 0 0 1 -2,0.7400000000000001 c-2.84,0.7200000000000001 -5.8100000000000005,0.41000000000000003 -8.72,0.13 a2.11,2.11 0 0 0 -1.36,0.17 c-0.51,0.33000000000000007 -0.6400000000000001,1 -0.8300000000000001,1.6 c-0.79,2.33 -3.2,3.6900000000000004 -5.52,4.49 a24.77,24.77 0 0 1 -14.66,0.37000000000000005 a5,5 0 0 0 -2,-0.31000000000000005 c-1.57,0.19000000000000003 -2.5,1.8800000000000001 -2.75,3.44 s-0.1,3.22 -0.6900000000000002,4.67 c-1,2.54 -3.8600000000000003,3.7 -6.34,4.82 s-5.21,2.91 -5.33,5.640000000000001 c-0.08000000000000002,1.57 0.7500000000000001,3 1,4.5600000000000005 a7,7 0 0 1 -3.41,7 a64.53,64.53 0 0 1 -2.25,8.34 A36,36 0 1 1 625.8599994659423,238.89000091552737 z" opacity="0.1" id="svg_10"/><path d="M622.1299994659424,215.09000091552736 a20.46,20.46 0 0 0 -12.12,-4.07 c-3.6500000000000004,0.12000000000000001 -7.15,1.54 -10.79,1.7600000000000002 c-8.1,0.5 -16.44,-4.92 -23.95,-1.85 c-5.52,2.26 -9.08,8.68 -15,9.31 c-1.6600000000000001,0.17 -3.33,-0.15000000000000002 -5,-0.07 s-3.46,0.7100000000000001 -4.25,2.18 a7,7 0 0 0 -0.27,4.15 a38.76,38.76 0 0 1 -2.43,18.73 c-1.13,2.85 -2.63,5.8100000000000005 -2.1,8.83 a10,10 0 0 0 3.7,5.69 a6.08,6.08 0 0 0 1.6700000000000002,2.6500000000000004 c1.51,1.4 3.49,2.47 4.26,4.38 c1.19,2.93 -1,6.58 0.6200000000000001,9.3 a7.43,7.43 0 0 0 2.81,2.39 q5.07,3 10.36,5.6 a69.11,69.11 0 0 0 2.45,-9 a7,7 0 0 0 3.41,-7 c-0.28,-1.54 -1.11,-3 -1,-4.5600000000000005 c0.13,-2.73 2.84,-4.53 5.33,-5.65 s5.33,-2.2800000000000002 6.35,-4.8100000000000005 c0.5900000000000001,-1.46 0.43000000000000005,-3.11 0.6800000000000002,-4.67 s1.18,-3.26 2.75,-3.45 a5,5 0 0 1 2,0.32000000000000006 a24.85,24.85 0 0 0 14.66,-0.38000000000000006 c2.33,-0.79 4.74,-2.16 5.52,-4.49 c0.19000000000000003,-0.5900000000000001 0.32000000000000006,-1.27 0.8400000000000001,-1.6 a2.07,2.07 0 0 1 1.35,-0.17 c2.91,0.28 5.890000000000001,0.5800000000000001 8.72,-0.12000000000000001 a13.08,13.08 0 0 0 9.35,-11 C632.6199994659423,222.29000091552734 625.9999994659424,217.79000091552734 622.1299994659424,215.09000091552736 z" fill="#dadada" id="svg_11" class="" fill-opacity="1"/><path d="M622.1299994659424,215.09000091552736 a25.9,25.9 0 0 0 -4.45,-2.5 c0.7400000000000001,0.42000000000000004 1.48,0.8700000000000001 2.18,1.36 c3.87,2.7 10.49,7.22 9.88,12.43 a13.06,13.06 0 0 1 -9.34,11 c-2.84,0.7100000000000001 -5.8100000000000005,0.4 -8.72,0.12000000000000001 a2.17,2.17 0 0 0 -1.36,0.17 c-0.52,0.33000000000000007 -0.6400000000000001,1 -0.8400000000000001,1.6 c-0.77,2.34 -3.18,3.7 -5.51,4.49 a24.72,24.72 0 0 1 -14.67,0.38000000000000006 a5.09,5.09 0 0 0 -2,-0.32000000000000006 c-1.57,0.19000000000000003 -2.5,1.8900000000000001 -2.75,3.45 s-0.09000000000000002,3.21 -0.6800000000000002,4.67 c-1,2.5300000000000002 -3.87,3.7 -6.36,4.82 s-5.19,2.91 -5.32,5.640000000000001 c-0.08000000000000002,1.56 0.7400000000000001,3 1,4.5600000000000005 a7,7 0 0 1 -3.41,7 a70.57,70.57 0 0 1 -2.44,8.93 c0.7600000000000001,0.39000000000000007 1.5,0.8 2.26,1.17 a69.11,69.11 0 0 0 2.45,-9 a7,7 0 0 0 3.41,-7 c-0.28,-1.54 -1.11,-3 -1,-4.5600000000000005 c0.13,-2.73 2.84,-4.53 5.33,-5.65 s5.33,-2.2800000000000002 6.35,-4.8100000000000005 c0.5900000000000001,-1.46 0.43000000000000005,-3.11 0.6800000000000002,-4.67 s1.18,-3.26 2.75,-3.45 a5,5 0 0 1 2,0.32000000000000006 a24.85,24.85 0 0 0 14.66,-0.38000000000000006 c2.33,-0.79 4.74,-2.16 5.52,-4.49 c0.19000000000000003,-0.5900000000000001 0.32000000000000006,-1.27 0.8400000000000001,-1.6 a2.07,2.07 0 0 1 1.35,-0.17 c2.91,0.28 5.890000000000001,0.5800000000000001 8.72,-0.12000000000000001 a13.08,13.08 0 0 0 9.35,-11 C632.6199994659423,222.29000091552734 625.9999994659424,217.79000091552734 622.1299994659424,215.09000091552736 z" opacity="0.1" id="svg_12"/><path d="M543.4499994659424,269.66000091552735 s-8.24,13.36 -11.94,13.36 a15.05,15.05 0 0 0 -5.18,1.34 a40.6,40.6 0 0 0 -4.76,2.35 L508.20999946594236,272.79000091552734 s1.7000000000000002,-1.8 4,-4.33 c4.4,-4.85 11,-12.38 11.91,-15 c1.42,-4 25,-13.65 26.15,-7.11 S543.4499994659424,269.66000091552735 543.4499994659424,269.66000091552735 z" fill="#ffccd0" id="svg_13"/><path d="M771.0999994659423,505.7500009155274 s-1.7600000000000002,2.11 -4.53,5.2 c-7.67,8.56 -23.1,24.57 -30.34,23.59 c-9.84,-1.33 -4.55,-27.47 1.33,-28.61 c3.5700000000000003,-0.6900000000000002 12,-4.93 18.1,-8.17 c4,-2.1 6.91,-3.77 6.91,-3.77 z" fill="#ce828d" id="svg_14"/><path d="M728.7499994659424,536.5300009155274 c-15.35,6.26 -13.36,-23 -12.74,-27.19 c0.46,-3.17 -0.91,-10.44 -1.59,-13.7 c-0.21000000000000002,-1 -0.36000000000000004,-1.6500000000000001 -0.36000000000000004,-1.6500000000000001 l3.89,-9.84 s19,0.37000000000000005 19,2.93 c0,1.05 1.11,4 2.41,7.12 c1.8800000000000001,4.5 4.17,9.37 4.17,9.37 S744.0999994659423,530.2900009155273 728.7499994659424,536.5300009155274 z" fill="#ffccd0" id="svg_15"/><path d="M636.6699994659424,770.7200009155273 s-23.59,13.07 -21.32,3.41 a17.61,17.61 0 0 0 -0.42000000000000004,-7.82 a67.34,67.34 0 0 0 -5.35,-13.9 c-2.33,-4.7 -4.46,-8.12 -4.46,-8.12 s23.87,-15.07 24.16,-9.38 a119.69,119.69 0 0 0 2.11,12.13 c1.46,7.06 3.3200000000000003,15.25 4.4,19.91 z" fill="#ffffff" id="svg_16" class="" fill-opacity="1"/><path d="M636.6699994659424,770.7200009155273 s-23.59,13.07 -21.32,3.41 a17.61,17.61 0 0 0 -0.42000000000000004,-7.82 a26.46,26.46 0 0 1 8.45,-1.85 c3.11,-2.2800000000000002 10.82,1.6300000000000001 12.41,2.49 z" opacity="0.1" id="svg_17"/><path d="M623.3799994659424,765.6000009155273 s-12.86,0.5700000000000001 -11.44,6.54 s-4.54,22.73 -4.54,22.73 s-6.26,9.38 -2.2800000000000002,13.65 s38.65,7.39 40.07,3.6900000000000004 s-4,-26.71 -4,-26.71 L636.0899994659424,768.2900009155273 S626.8599994659423,763.0400009155273 623.3799994659424,765.6000009155273 z" fill="#4d507f" id="svg_18"/><path d="M717.9499994659424,638.6600009155273 l-17.72,5 a38,38 0 0 0 -2.6900000000000004,-7.32 a28.26,28.26 0 0 0 -2.08,-3.5700000000000003 c-2.81,-4.06 -7,-7.3 -12.94,-5.48 c-13,4 0,-25.72 0,-25.72 s3.52,-1.5 7.07,-3.18 l0.8300000000000001,-0.41000000000000003 c2.87,-1.4100000000000001 5.6,-2.89 6.27,-3.75 c1.28,-1.62 13.1,11.16 17.59,16.12 c1.06,1.17 1.7000000000000002,1.9100000000000001 1.7000000000000002,1.9100000000000001 l0.8300000000000001,11.15 z" fill="#ffffff" id="svg_19" class="" fill-opacity="1"/><path d="M717.9499994659424,638.6600009155273 l-17.72,5 a38,38 0 0 0 -2.6900000000000004,-7.32 c0.7200000000000001,-2.37 2.6500000000000004,-6.36 7.34,-5.76 c5.4,0.7000000000000001 4.640000000000001,-18.18 -2.94,-22.73 s-12.13,-4.83 -12.13,-4.83 a8.83,8.83 0 0 1 -0.22000000000000003,-4.63 l0.8300000000000001,-0.41000000000000003 c2.87,-1.4100000000000001 5.6,-2.89 6.27,-3.75 c1.28,-1.62 13.1,11.16 17.59,16.12 c0.8900000000000001,4.9 1.28,9.51 2.5300000000000002,13.06 z" opacity="0.1" id="svg_20"/><path d="M690.9499994659424,603.0400009155273 a8.93,8.93 0 0 1 7.73,-11.65 c4.55,-0.39000000000000007 9.5,0.7100000000000001 12.45,6 c6.54,11.66 3.6900000000000004,25.31 9.66,30.71 s8.53,23 4.27,25.57 s-18.38,15.06 -19.71,7.95 s-7.06,-23.58 -7.06,-23.58 s1.1400000000000001,-8.25 7.72,-7.4 c5.41,0.7000000000000001 4.65,-18.18 -2.93,-22.73 s-12.13,-4.83 -12.13,-4.83 z" fill="#4d507f" id="svg_21"/><path d="M631.3899994659424,747.0400009155273 c-6.1,1.7600000000000002 -14.92,4.15 -21.81,5.37 c-2.33,-4.7 -4.46,-8.12 -4.46,-8.12 s23.87,-15.07 24.16,-9.38 A119.69,119.69 0 0 0 631.3899994659424,747.0400009155273 z" opacity="0.1" id="svg_22"/><path d="M695.4599994659424,632.7900009155273 c-2.81,-4.06 -7,-7.3 -12.94,-5.48 c-13,4 0,-25.72 0,-25.72 s4.09,-1.7400000000000002 7.9,-3.59 c2.35,-0.16000000000000003 6.42,0.08000000000000002 7.73,3.24 C699.9999994659424,605.6900009155273 700.3999994659424,623.1600009155273 695.4599994659424,632.7900009155273 z" opacity="0.1" id="svg_23"/><path d="M693.9899994659423,633.4500009155273 c-5.3100000000000005,9.47 -30.7,6.44 -30.7,6.44 c-20.08,-13.26 -37.51,-69 -37.51,-69 l-2.66,70.11 s6.44,6.43 4.93,10.61 s1.1400000000000001,11.74 1.1400000000000001,11.74 s5.68,62.52 4.16,66.32 s5.3100000000000005,12.88 5.3100000000000005,12.88 s-36,11.37 -39.42,7.58 s0,-8 0,-8 v-7.59 c-15.52,-31.83 -15.91,-63.28 -17,-64.42 s-1.8900000000000001,-8 -2.29,-9.84 s0,-8.35 0,-8.35 s0.44000000000000006,-5.3 -1.83,-8.33 s1.83,-12.13 1.83,-12.13 a60.18,60.18 0 0 0 -5.63,-20.46 c-4.92,-9.85 -11.19,-47.75 -11.19,-47.75 s-1.6900000000000002,-5.69 -0.17,-8.71 s-7.58,-20.46 -7.58,-20.46 s2.2800000000000002,-12.51 2.6500000000000004,-15.54 s-9.47,-9.29 -9.47,-9.29 l4.6,-12.21 l4.87,-13 s112.92,2.27 117.47,3.7800000000000002 c2.2,0.7300000000000001 4.21,4.890000000000001 5.71,9 a88.91,88.91 0 0 1 2.64,8.81 s-1.1400000000000001,40.54 1.13,47.74 s1.51,11 1.51,11 s-2.64,14.4 -0.7600000000000001,19.32 s1.9,14.41 1.9,14.41 s7.58,-1.52 9.47,3 S699.2799994659424,623.9800009155274 693.9899994659423,633.4500009155273 z" fill="#aacaf5" id="svg_24"/><path d="M920.9599994659424,798.0900009155273 c-1.31,-0.18000000000000002 -7.57,-21.6 -7.19,-29 c0.23,-4.45 1.71,-12.08 2.8600000000000003,-17.44 c0.7600000000000001,-3.51 1.37,-6 1.37,-6 L942.1899994659424,748.2900009155273 s0.32000000000000006,2.64 0.7100000000000001,6.34 c0.78,7.27 1.81,18.62 1.19,21.88 c-1,4.94 5.68,6.07 9.84,18.95 S922.2899994659424,798.2900009155273 920.9599994659424,798.0900009155273 z" fill="#4d507f" id="svg_25"/><path d="M889.1299994659424,677.0200009155274 c-1.29,2.1 -1.85,6.79 -2.09,10.74 c-0.23,3.55 -0.18000000000000002,6.51 -0.18000000000000002,6.51 s0.5700000000000001,15.54 -6.63,24.24 s-16.86,0.5700000000000001 -20.84,-14.39 c-2.7600000000000002,-10.4 4.54,-21.78 9.25,-27.76 c2.07,-2.62 3.63,-4.2 3.63,-4.2 S891.5599994659424,673.0400009155273 889.1299994659424,677.0200009155274 z" fill="#4d507f" id="svg_26"/><path d="M900.0199994659424,316.84000091552736 s-26.8,-2.08 -27.75,11.75 s1.4100000000000001,24.48 21.93,26.17 s13.12,-37.65 13.12,-37.65 z" fill="#575a89" id="svg_27"/><path d="M949.6199994659423,323.78000091552735 s26.29,-4.1 26.1,6.14 s-20.07,23.55 -20.07,23.55 z" fill="#575a89" id="svg_28"/><path d="M901.0099994659424,316.84000091552736 s-26.79,-2.08 -27.74,11.75 s1.4,24.48 21.92,26.17 s13.13,-37.65 13.13,-37.65 z" opacity="0.15" id="svg_29"/><path d="M951.8499994659423,323.78000091552735 s26.29,-4.1 26.1,6.14 s-20.08,23.55 -20.08,23.55 z" opacity="0.15" id="svg_30"/><path d="M907.5599994659424,312.92000091552734 a87.16,87.16 0 0 0 -20.57,11.73 a4.42,4.42 0 0 0 -1.8900000000000001,2.37 a13.68,13.68 0 0 0 0.05000000000000001,2.39 c-0.16000000000000003,4 -6.21,4.34 -8.93,7.3100000000000005 c-1.9300000000000002,2.1 -1.9,5.4 -1,8.1 s2.6100000000000003,5.08 3.6900000000000004,7.72 a19.33,19.33 0 0 1 -2.06,18.14 c-3.1,4.39 -7.890000000000001,7.25 -11.64,11.09 c-5,5.17 -8.07,13.58 -4.09,19.62 c2.43,3.7 6.88,5.63 9.48,9.2 c2.8,3.87 3,9.06 2.33,13.79 s-2.1,9.38 -2.14,14.16 c-0.09000000000000002,9.34 5.33,18.2 12.88,23.71 s17,8 26.31,8.5 c3.31,0.19000000000000003 6.75,0.13 9.76,-1.25 s5.37,-4 7.43,-6.66 a87,87 0 0 0 14.09,-26.64 c1.35,-4.17 2.47,-8.6 5.37,-11.88 a26.79,26.79 0 0 1 7.3,-5.22 l13.32,-7.46 c4.37,-2.45 9.16,-5.43 10.31,-10.3 c1.3,-5.52 -2.54,-11.94 0.5800000000000001,-16.68 c1,-1.54 2.64,-2.59 3.79,-4 c3.23,-4.08 2,-10.1 -0.29000000000000004,-14.77 a42.68,42.68 0 0 0 -7.2,-10.45 c-2.51,-2.66 -5.44,-5.11 -6.82,-8.5 c-1.06,-2.6 -1.1,-5.53 -2.05,-8.17 c-2,-5.5 -7.42,-8.85 -11.06,-13.42 c-3,-3.79 -4.83,-8.5 -8.34,-11.81 c-5.69,-5.38 -12,-3.66 -19,-3.45 c-3.46,0.11000000000000001 -6.68,-1.17 -10.09,-1.23 C913.0799994659424,308.7500009155273 911.3299994659424,311.41000091552735 907.5599994659424,312.92000091552734 z" fill="#b6b6b6" id="svg_31" class="" fill-opacity="1"/><path d="M952.9299994659424,322.5000009155273 l-58.86,-6 s0.21000000000000002,-0.7000000000000001 0.5700000000000001,-2 a151.32,151.32 0 0 0 3.41,-15.72 C899.5599994659424,289.18000091552733 921.5599994659424,286.72000091552735 921.5599994659424,286.72000091552735 a29.62,29.62 0 0 1 28.09,14.21 L952.1399994659424,317.29000091552734 z" fill="#6767e7" id="svg_32" class="" fill-opacity="1"/><path d="M964.0699994659424,386.1900009155273 l-9.09,23.3 l-38.37,6.54 s-44.9,-9.66 -24.16,-29.84 a65.89,65.89 0 0 0 6.68,-7.47 a33.34,33.34 0 0 0 4.83,-8.61 c3.3200000000000003,-9.26 -1.84,-13.76 -1.84,-13.76 s37.79,-17.34 38.36,2.27 a24.39,24.39 0 0 0 3.8200000000000003,12.43 a31.38,31.38 0 0 0 4.63,5.65 A46,46 0 0 0 964.0699994659424,386.1900009155273 z" fill="#ce828d" id="svg_33"/><path d="M1088.0799994659424,361.18000091552733 c-1,0 -4.9,3 -8.17,5.68 c-2.66,2.19 -4.91,4.17 -4.91,4.17 l-6.25,-20.65 a33.5,33.5 0 0 0 4.22,-2.5700000000000003 c1.49,-1.1 2.79,-2.4 2.79,-3.52 c0,-2.63 5.88,-24.8 10.24,-16.27 S1089.9699994659425,361.18000091552733 1088.0799994659424,361.18000091552733 z" fill="#ce828d" id="svg_34"/><path d="M636.7599994659424,318.55000091552733 l-41.29,24.25 s-49.66,-12.88 -36,-23.88 c6.08,-4.890000000000001 8.63,-15.34 9.57,-25.44 c8.28,14.13 21.86,15 28.07,14.51 c1.87,-0.13 3.75,-0.12000000000000001 5.62,-0.17 c8.6,-0.24000000000000002 16.5,-12.95 18,-15.57 C625.9599994659424,305.42000091552734 636.7599994659424,318.55000091552733 636.7599994659424,318.55000091552733 z" opacity="0.1" id="svg_35"/><path d="M681.1199994659423,496.9400009155273 c0,0.17 0,0.33000000000000007 0,0.46 c-0.38000000000000006,3.41 -16.3,9.1 -16.3,9.1 s-73.13,9.09 -79.57,3 c-6,-5.6 -28.74,-11.52 -32.16,-12.4 l4.87,-13 s112.92,2.27 117.47,3.7800000000000002 C677.6099994659423,488.66000091552735 679.6199994659423,492.8200009155273 681.1199994659423,496.9400009155273 z" opacity="0.1" id="svg_36"/><path d="M679.9599994659424,455.73000091552734 s9.85,16.66 3,20.46 s-1.51,15.53 -1.8900000000000001,18.94 s-16.3,9.09 -16.3,9.09 s-73.13,9.1 -79.57,3 s-32.6,-12.51 -32.6,-12.51 a131.85,131.85 0 0 0 -13.25,-25.38 c-8.34,-12.13 2.6500000000000004,-34.49 2.6500000000000004,-34.49 s-2.6500000000000004,-14.39 -8.33,-18.57 S520.4299994659424,372.74000091552733 518.5599994659424,360.99000091552733 s-26.15,4.17 -26.15,4.17 s-30.69,1.9 -37.12,0 a1.2,1.2 0 0 1 -0.36000000000000004,-0.17 c-4.78,-3.23 25.36,-38.11 25.36,-38.11 s22.74,-4.16 22.35,-11 c-0.26,-4.78 10.79,-11.78 17.45,-15.55 c2.87,-1.6300000000000001 4.92,-2.6500000000000004 4.92,-2.6500000000000004 h9.09 c3.41,0 1.9,-5.3 1.9,-5.3 s6.82,0.7600000000000001 10.61,-2.6500000000000004 s22.36,4.71 22.36,4.71 c8.27,14.28 21.94,15.12 28.17,14.66 c1.87,-0.12000000000000001 3.75,-0.11000000000000001 5.62,-0.17 c9.59,-0.26 18.3,-16 18.3,-16 s27.1,1.75 46,13.88 s38.27,47.36 38.27,47.36 s-28.42,35.25 -33,34.5 s5.29,17.05 5.29,17.05 z" fill="#dce6f2" id="svg_37"/><path d="M520.0599994659424,300.35000091552735 c-1.06,3.5700000000000003 -2.27,7.71 -2.67,9.48 c-0.7500000000000001,3.41 -8.7,6.83 -8.7,6.83 s-7.59,10.22 -6.83,12.12 s-6.44,9.09 -9.48,15.91 S457.5599994659424,365.16000091552735 457.5599994659424,365.16000091552735 a11,11 0 0 1 -2.63,-0.17 c-4.78,-3.23 25.36,-38.11 25.36,-38.11 s22.74,-4.16 22.35,-11 C502.34999946594235,311.1200009155273 513.3999994659424,304.1200009155273 520.0599994659424,300.35000091552735 z" opacity="0.1" id="svg_38"/><path d="M526.3299994659424,284.36000091552734 a40.6,40.6 0 0 0 -4.76,2.35 L508.20999946594236,272.79000091552734 s1.7000000000000002,-1.8 4,-4.33 C512.3699994659423,273.55000091552733 522.2899994659424,281.39000091552737 526.3299994659424,284.36000091552734 z" opacity="0.1" id="svg_39"/><path d="M511.32999946594236,268.15000091552736 l-11,6.82 s-11.37,2.25 -15.54,11.73 S468.5599994659424,298.46000091552736 468.5599994659424,298.46000091552736 l-7.57,12.51 s-18.95,8 -20.09,31.83 s14.4,22.36 14.4,22.36 s31.83,-13.64 34.86,-20.47 s10.24,-14 9.48,-15.91 s6.82,-12.12 6.82,-12.12 s8,-3.42 8.71,-6.83 s4.55,-15.620000000000001 4.55,-15.620000000000001 l7.2,-7.51 S508.6799994659424,274.21000091552736 511.32999946594236,268.15000091552736 z" fill="#dce6f2" id="svg_40"/><path d="M739.3999994659424,494.2000009155273 c-5.72,-0.48000000000000004 -22.24,-1.58 -25,1.44 c-0.21000000000000002,-1 -0.36000000000000004,-1.6500000000000001 -0.36000000000000004,-1.6500000000000001 l3.89,-9.84 s19,0.37000000000000005 19,2.93 C736.9899994659423,488.1300009155274 738.0999994659423,491.0800009155273 739.3999994659424,494.2000009155273 z" opacity="0.1" id="svg_41"/><path d="M691.3299994659424,342.80000091552733 l14,11.37 l6.44,20.84 s8.34,17.43 13.27,26.53 s6.82,23.49 6.82,23.49 s1.13,6.82 3.41,9.09 s0,9.48 0,9.48 s2.6500000000000004,8.33 4.92,11.37 s0,17.05 0,17.05 l1,5.68 s3.92,6.07 1.6500000000000001,6.44 s-1.52,8 -1.52,8 s-26.15,-2.6500000000000004 -27.28,1.9 c0,0 -4.17,-11.37 -3.41,-15.16 s-5.3100000000000005,-14 -5.3100000000000005,-14 s-2.6500000000000004,-4.17 -1.51,-8.72 s-4.93,-17.43 -4.93,-17.43 s-1.1400000000000001,-11.37 -3.41,-10.61 s-3.79,-4.92 -4.17,-7.2 s-8.34,-17.43 -8.34,-17.43 l-15.91,-19.33 z" fill="#dce6f2" id="svg_42"/><path d="M944.2999994659424,371.05000091552733 a32.2,32.2 0 0 1 -40.34,-0.9400000000000001 c3.3200000000000003,-9.26 -1.84,-13.76 -1.84,-13.76 s37.79,-17.34 38.36,2.27 A24.39,24.39 0 0 0 944.2999994659424,371.05000091552733 z" opacity="0.1" id="svg_43"/><circle cx="924.7100219726562" cy="344.2900085449219" r="32.2599983215332" fill="#ce828d" id="svg_44"/><path d="M964.0699994659424,386.1900009155273 l-9.09,23.3 l-38.37,6.54 s-44.9,-9.66 -24.16,-29.84 a65.89,65.89 0 0 0 6.68,-7.47 C908.9499994659424,403.29000091552734 925.5599994659424,400.97000091552735 925.5599994659424,400.97000091552735 c23,-4.35 23.73,-19.72 23.41,-24.27 A46,46 0 0 0 964.0699994659424,386.1900009155273 z" opacity="0.1" id="svg_45"/><path d="M1079.9099994659423,366.86000091552734 c-2.66,2.19 -4.91,4.17 -4.91,4.17 l-6.25,-20.65 a33.5,33.5 0 0 0 4.22,-2.5700000000000003 C1075.6699994659423,351.29000091552734 1078.2699994659424,360.22000091552735 1079.9099994659423,366.86000091552734 z" opacity="0.1" id="svg_46"/><path d="M771.0999994659423,505.7500009155274 s-1.7600000000000002,2.11 -4.53,5.2 c-3.24,-3.33 -8.4,-8.94 -10.91,-13.19 c4,-2.1 6.91,-3.77 6.91,-3.77 z" opacity="0.1" id="svg_47"/><path d="M1080.5599994659424,374.8200009155273 l-13.65,4.29 s-19.89,10.21 -22.73,15 s-49.45,19.89 -49.45,19.89 c1.42,5.68 -13.08,27.85 -13.08,27.85 s-1.7000000000000002,19.33 -7.39,28.71 c-5,8.21 -1.24,29 -0.22000000000000003,34.11 c0.13,0.7200000000000001 0.22000000000000003,1.13 0.22000000000000003,1.13 s-114.82,7.39 -117.66,2.27 a3,3 0 0 1 -0.30000000000000004,-0.8500000000000001 c-1.57,-6.33 7.84,-26.29 10.82,-29.27 c3.12,-3.13 -1.31,-24.44 -1.31,-24.44 s-28.25,18.47 -33.08,27 s-54.28,28.14 -54.28,28.14 l-8,4 s-17.05,-16.48 -15.06,-20.75 S771.9499994659424,482.29000091552734 771.9499994659424,482.29000091552734 s30.69,-23.3 33,-24.73 a19.8,19.8 0 0 0 4.54,-4.83 l2.85,-2 s2,-2 7.39,-4.26 s18.19,-18.47 18.19,-18.47 s13.35,-14.21 15.06,-21 a50.83,50.83 0 0 1 6,-13.36 a35.81,35.81 0 0 0 17,-7.68 c8.47,-6.77 22.67,-6.79 22.86,-6.79 c9.78,25.31 26.69,23 26.69,23 c27.1,-5.11 23.27,-25.55 23.27,-25.55 s19.26,-11.11 23.52,-10.82 s24.45,1.13 29.28,3.6900000000000004 s18.19,-2.27 18.19,-2.27 s7.1,-5.69 15.34,-7.11 s22.17,-6.82 22.17,-6.82 s7.67,-8.24 12.79,-6.82 S1080.5599994659424,374.8200009155273 1080.5599994659424,374.8200009155273 z" fill="#6767e7" id="svg_48" class="" fill-opacity="1"/><path d="M974.2999994659424,505.8400009155273 s-114.82,7.39 -117.66,2.27 a3,3 0 0 1 -0.30000000000000004,-0.8500000000000001 a2,2 0 0 1 0.30000000000000004,-0.28 l18.48,1.79 s8.37,-13.73 11.85,-21.69 c0,0 12.3,-21.6 12.3,-28.7 c0,0 54.85,-1.1400000000000001 63.1,-5.12 c0,0 1.53,49 6,51.81 l5.69,-0.36000000000000004 C974.2099994659424,505.43000091552733 974.2999994659424,505.8400009155273 974.2999994659424,505.8400009155273 z" opacity="0.1" id="svg_49"/><path d="M889.1299994659424,677.0200009155274 c-1.29,2.1 -1.85,6.79 -2.09,10.74 c-6.33,-0.33000000000000007 -15.9,-3.44 -15.9,-3.44 a26.57,26.57 0 0 0 -2.5,-8 c2.07,-2.62 3.63,-4.2 3.63,-4.2 S891.5599994659424,673.0400009155273 889.1299994659424,677.0200009155274 z" opacity="0.1" id="svg_50"/><path d="M942.8999994659424,754.6100009155274 c-7,0 -19.14,-0.4 -26.27,-3 c0.7600000000000001,-3.51 1.37,-6 1.37,-6 L942.1899994659424,748.2900009155273 S942.5599994659424,750.9100009155273 942.8999994659424,754.6100009155274 z" opacity="0.1" id="svg_51"/><path d="M980.5599994659424,551.8800009155274 a381.75,381.75 0 0 1 -10,43.77 s-5.4,20.73 -5.12,26.56 s-4,41.36 -4,41.36 s-4.83,18.19 -3.6900000000000004,26.43 s-10,51.16 -10,51.16 l0.5700000000000001,11.08 s-33.82,1.4300000000000002 -37.23,-6.82 l1.42,-9.66 l2.84,-26.71 s3.7,-29.85 2,-37 S912.9199994659424,636.2900009155273 912.9199994659424,636.2900009155273 l-0.29000000000000004,30.69 s-5.11,9.67 -10.8,11.94 s-6.54,6 -12.5,6.54 s-18.19,-3.41 -18.19,-3.41 a25.8,25.8 0 0 0 -3.13,-9.1 c-2.56,-4.26 0,-18.76 0,-18.76 s2.27,-9.66 -1.1400000000000001,-11.93 s-6.82,-17.62 -5.4,-22.17 c0.31000000000000005,-1 0.08000000000000002,-2.7600000000000002 -0.45,-5 c-1.33,-5.8 -4.55,-14.91 -5.59,-23.21 A29.75,29.75 0 0 1 855.5599994659424,582.2900009155273 c2.55,-12.51 1.13,-31 1.13,-31 s-4.54,-40.07 0,-43.2 l18.48,1.8 s8.37,-13.73 11.85,-21.69 c0,0 12.3,-21.6 12.3,-28.71 c0,0 54.85,-1.13 63.1,-5.11 c0,0 1.53,49 6,51.8 l5.91,-0.36000000000000004 S984.2499994659424,528.8600009155274 980.5599994659424,551.8800009155274 z" fill="#575a89" id="svg_52"/><path d="M953.6699994659424,658.2900009155273 a6.91,6.91 0 0 1 -0.92,3 c-1.6900000000000002,3.71 -5.36,9.37 -7.44,10.57 c-3.41,2 -18.75,-5.4 -19,-8.1 a18.82,18.82 0 0 1 0.7000000000000001,-5.46 c0.36000000000000004,-1.5 0.7200000000000001,-2.64 0.7200000000000001,-2.64 s21.32,4.84 25,2.56 l0.06000000000000001,0 C953.3499994659423,657.8000009155273 953.6199994659423,657.8800009155274 953.6699994659424,658.2900009155273 z" fill="#ce828d" id="svg_53"/><path d="M912.9799994659423,434.1900009155273 c-0.09000000000000002,3.7800000000000002 0,12.49 0,18.64 c0,3.84 0.07,6.68 0.07,6.68 H898.1399994659424 s-0.14,-2.6 -0.29000000000000004,-6.68 c-0.17,-4.71 -0.35000000000000003,-11.37 -0.32000000000000006,-18.27 c0,-1.75 0,-3.51 0.06000000000000001,-5.27 c0.1,-5.1 0.35000000000000003,-10.08 0.8300000000000001,-14.25 c1.84,-16.21 -13.74,-34 -13.74,-34 c3.59,-4.26 13,-2 13,-2 s5.28,15.17 9.39,26.4 a118.7,118.7 0 0 1 5.72,23.06 a21.49,21.49 0 0 1 0.26,3.94 C913.0299994659424,432.8100009155273 913.0099994659424,433.39000091552737 912.9799994659423,434.1900009155273 z" opacity="0.1" id="svg_54"/><path d="M914.1199994659423,434.1900009155273 c-0.09000000000000002,3.7800000000000002 0,12.49 0,18.64 c0,3.84 0.07,6.68 0.07,6.68 H899.2699994659424 s-0.13,-2.6 -0.28,-6.68 c-0.17,-4.71 -0.35000000000000003,-11.37 -0.32000000000000006,-18.27 c0,-1.75 0,-3.51 0.06000000000000001,-5.27 c0.1,-5.1 0.35000000000000003,-10.08 0.8300000000000001,-14.25 c1.84,-16.21 -13.75,-34 -13.75,-34 c3.6,-4.26 13,-2 13,-2 s5.27,15.17 9.39,26.4 a119.43,119.43 0 0 1 5.72,23.06 a21.49,21.49 0 0 1 0.26,3.94 C914.1699994659424,432.8100009155273 914.1399994659424,433.39000091552737 914.1199994659423,434.1900009155273 z" fill="#575a89" id="svg_55"/><path d="M975.8599994659423,424.14000091552737 c-0.27,1.37 -0.52,3.62 -0.78,6.25 c-0.54,5.3100000000000005 -1.11,12.18 -2,16.62 c-0.5,2.42 -1.11,4.1 -1.86,4.41 L967.5599994659424,452.83000091552736 l-4.1,1.57 l-5.38,0.8500000000000001 l1,-2.42 c0.6400000000000001,-1.51 1.51,-3.6 2.42,-5.82 c2.08,-5.06 4.34,-10.85 4.49,-12.37 c0.07,-0.6700000000000002 0.30000000000000004,-2.21 0.5700000000000001,-4.25 c0.24000000000000002,-1.78 0.5,-3.94 0.7000000000000001,-6.25 c0.5700000000000001,-6.29 0.7100000000000001,-13.68 -1.27,-17.49 c-3.55,-6.82 -12,-32.42 -12,-32.42 a7.83,7.83 0 0 1 9.4,-4.890000000000001 s7.71,25.37 7.84,28.79 S976.9999994659424,418.45000091552737 975.8599994659423,424.14000091552737 z" opacity="0.1" id="svg_56"/><path d="M974.7199994659424,424.14000091552737 c-0.27,1.37 -0.52,3.62 -0.78,6.25 c-0.53,5.3100000000000005 -1.1,12.18 -2,16.62 c-0.5,2.42 -1.11,4.1 -1.86,4.41 l-3.58,1.4100000000000001 a16.8,16.8 0 0 0 -4.06,2.42 l-5.93,0.92 s0.92,-1.86 1.54,-3.34 s1.51,-3.6 2.42,-5.82 c2.08,-5.06 4.35,-10.85 4.49,-12.37 c0.07,-0.6700000000000002 0.30000000000000004,-2.21 0.5700000000000001,-4.25 c0.24000000000000002,-1.78 0.5,-3.94 0.7100000000000001,-6.25 c0.5700000000000001,-6.29 0.7000000000000001,-13.68 -1.28,-17.49 c-3.54,-6.82 -12,-32.42 -12,-32.42 a7.83,7.83 0 0 1 9.4,-4.890000000000001 s7.71,25.37 7.85,28.79 S975.8599994659423,418.45000091552737 974.7199994659424,424.14000091552737 z" fill="#575a89" id="svg_57"/><path d="M914.1999994659424,432.51000091552737 c0,0.30000000000000004 -0.06000000000000001,0.8800000000000001 -0.08000000000000002,1.6800000000000002 l-15.45,0.37000000000000005 c0,-1.75 0,-3.51 0.06000000000000001,-5.27 l15.21,-0.7200000000000001 A21.49,21.49 0 0 1 914.1999994659424,432.51000091552737 z" fill="#fff" id="svg_58"/><path d="M914.1999994659424,459.51000091552737 H899.2699994659424 s-0.13,-2.6 -0.28,-6.68 h15.14 C914.1699994659424,456.67000091552734 914.1999994659424,459.51000091552737 914.1999994659424,459.51000091552737 z" fill="#fff" id="svg_59"/><path d="M974.7199994659424,424.14000091552737 c-0.27,1.37 -0.52,3.62 -0.78,6.25 h-8.45 c0.24000000000000002,-1.78 0.5,-3.94 0.7100000000000001,-6.25 z" fill="#fff" id="svg_60"/><path d="M971.8999994659424,447.01000091552737 c-0.5,2.42 -1.11,4.1 -1.86,4.41 l-3.58,1.4100000000000001 h-8.45 c0.6400000000000001,-1.51 1.51,-3.6 2.42,-5.82 z" fill="#fff" id="svg_61"/><path d="M644.3199994659424,342.80000091552733 s3.49,30.72 14.45,33.75 s5.48,-11.37 5.48,-11.37 l-9.28,-11.71 z" opacity="0.05" id="svg_62" class=""/><path d="M571.5599994659424,398.02000091552736 s41.65,41.61 59.69,33.54 S591.0099994659424,427.86000091552734 571.5599994659424,398.02000091552736 z" opacity="0.05" id="svg_63"/><path d="M618.9099994659424,454.40000091552736 s27.78,1.6700000000000002 36.06,-7.39 S618.9099994659424,454.40000091552736 618.9099994659424,454.40000091552736 z" opacity="0.05" id="svg_64"/><path d="M598.9799994659423,489.77000091552736 c-1.22,-0.8700000000000001 50.33,-2.49 64.28,-13 S632.3599994659423,513.6800009155273 598.9799994659423,489.77000091552736 z" opacity="0.05" id="svg_65"/><path d="M511.2799994659424,326.08000091552736 s11,11.16 12,20.16 S511.2799994659424,326.08000091552736 511.2799994659424,326.08000091552736 z" opacity="0.05" id="svg_66"/><path d="M539.1899994659424,335.77000091552736 s-1,29.63 11.19,35.26 S535.1999994659424,358.16000091552735 539.1899994659424,335.77000091552736 z" opacity="0.05" id="svg_67"/><path d="M698.2899994659424,415.29000091552734 s21.77,-9 25.26,-3.15 s-3,6.84 -3,6.84 z" opacity="0.05" id="svg_68"/><path d="M726.5599994659424,444.29000091552734 c-9,5.63 -15.75,5.14 -15.1,10.12 s1.45,3.05 7.53,1.77 S726.5599994659424,444.29000091552734 726.5599994659424,444.29000091552734 z" opacity="0.05" id="svg_69"/><path d="M733.1899994659424,467.47000091552735 s-10.83,9.34 -14.22,9.84 S733.1899994659424,467.47000091552735 733.1899994659424,467.47000091552735 z" opacity="0.05" id="svg_70"/><path d="M886.9799994659423,543.5800009155273 c-1.42,-1.4100000000000001 46.84,0 58.3,-3 c0,0 5.8100000000000005,8.47 -5.32,10.47 s-60.45,5 -60.45,5 S894.4399994659424,551.0600009155273 886.9799994659423,543.5800009155273 z" opacity="0.1" id="svg_71"/><path d="M874.0699994659424,603.3700009155274 c-1.7600000000000002,3 -7.63,7.7 -13,11.67 c-1.33,-5.8 -4.55,-14.91 -5.59,-23.21 l10.42,-4.9 C865.5599994659424,586.9300009155273 877.5599994659424,597.3900009155274 874.0699994659424,603.3700009155274 z" opacity="0.1" id="svg_72"/><path d="M822.8199994659424,450.96000091552736 s32.3,-5.34 42.25,-16.4 C865.0699994659424,434.5600009155273 861.3099994659424,453.51000091552737 822.8199994659424,450.96000091552736 z" opacity="0.1" id="svg_73"/><path d="M814.7299994659423,469.84000091552736 s5,2 13.46,0 S814.7299994659423,469.84000091552736 814.7299994659423,469.84000091552736 z" opacity="0.1" id="svg_74"/><path d="M885.8099994659424,467.47000091552735 s-18.13,15.14 -13.71,18.47 S885.8099994659424,467.47000091552735 885.8099994659424,467.47000091552735 z" opacity="0.1" id="svg_75"/><path d="M885.8099994659424,439.4400009155273 s-15.69,-0.31000000000000005 -11.74,7.57 S885.8099994659424,439.4400009155273 885.8099994659424,439.4400009155273 z" opacity="0.1" id="svg_76"/><path d="M915.3499994659423,336.21000091552736 a6.92,6.92 0 0 0 2.7800000000000002,-0.92 a19.81,19.81 0 0 1 12.67,-1.29 c6.09,1.42 11.16,5.66 17.1,7.63 c3.42,1.1400000000000001 8,1.05 9.69,-2.14 c1.49,-2.83 -0.27,-6.22 -2,-8.92 c-3,-4.79 -6.29,-9.78 -11.28,-12.5 a31.49,31.49 0 0 0 -9.1,-2.83 c-6.34,-1.23 -12.84,-2.17 -19.25,-1.33 c-5,0.6600000000000001 -19.47,4 -17.19,11.69 c1.1400000000000001,3.85 5.16,3.31 8.17,4.62 C909.7999994659424,331.48000091552734 912.1599994659424,336.29000091552734 915.3499994659423,336.21000091552736 z" opacity="0.1" id="svg_77"/><path d="M915.3499994659423,333.9400009155273 a7.25,7.25 0 0 0 2.7800000000000002,-0.92 a19.74,19.74 0 0 1 12.67,-1.29 c6.09,1.42 11.16,5.65 17.1,7.63 c3.42,1.1400000000000001 8,1.05 9.69,-2.14 c1.49,-2.84 -0.27,-6.22 -2,-8.92 c-3,-4.79 -6.29,-9.78 -11.28,-12.5 a31.18,31.18 0 0 0 -9.1,-2.83 c-6.34,-1.23 -12.84,-2.17 -19.25,-1.34 c-5,0.6600000000000001 -19.47,4 -17.19,11.7 c1.1400000000000001,3.85 5.16,3.3 8.17,4.62 C909.7999994659424,329.20000091552737 912.1599994659424,333.99000091552733 915.3499994659423,333.9400009155273 z" fill="#b6b6b6" id="svg_78" class="" fill-opacity="1"/><path d="M952.9299994659424,322.5000009155273 l-58.86,-6 s0.21000000000000002,-0.7000000000000001 0.5700000000000001,-2 c12.35,-3.27 42.88,-9.63 57.5,2.75 z" opacity="0.1" id="svg_79"/><path d="M889.2699994659424,317.29000091552734 s53.88,-17.69 67.71,7.07 C956.9799994659423,324.29000091552734 928.3399994659424,328.5000009155273 889.2699994659424,317.29000091552734 z" fill="#575a89" id="svg_80"/><path d="M914.7299994659423,618.5000009155274 a2,2 0 0 1 -2.68,-0.9 a5.69,5.69 0 0 1 -0.41000000000000003,-3.12 l0.27,-4.74 c0.41000000000000003,-7.22 0.8300000000000001,-14.54 3.07,-21.42 a52.43,52.43 0 0 1 12,-19.42 " opacity="0.1" id="svg_81"/><path d="M906.5599994659424,475.29000091552734 s27,-7 33.37,-4.5600000000000005 s4.22,6.23 0,6.61 S906.5599994659424,475.29000091552734 906.5599994659424,475.29000091552734 z" opacity="0.1" id="svg_82"/><path d="M898.6699994659424,494.0000009155274 c6,4.17 54.26,4.17 54.26,4.17 z" opacity="0.1" id="svg_83"/><path d="M676.7399994659423,506.5000009155274 s2,4.93 -10.870000000000001,9.85 S676.7399994659423,506.5000009155274 676.7399994659423,506.5000009155274 z" opacity="0.1" id="svg_84"/><path d="M667.0799994659424,544.0200009155274 s-16.84,-0.38000000000000006 -11.07,7.58 S667.0799994659424,544.0200009155274 667.0799994659424,544.0200009155274 z" opacity="0.1" id="svg_85"/><path d="M563.6299994659424,510.77000091552736 s26.52,14.3 37.51,15.82 S581.0599994659424,532.8600009155274 563.6299994659424,510.77000091552736 z" opacity="0.1" id="svg_86"/><path d="M586.3599994659423,627.7600009155274 s1.32,6.82 12.6,10.23 s19.91,0.7600000000000001 20,0 S586.3599994659423,627.7600009155274 586.3599994659423,627.7600009155274 z" opacity="0.1" id="svg_87"/><path d="M616.4899994659423,777.6900009155273 s13.93,7 17.05,0 " opacity="0.1" id="svg_88"/><path d="M712.2699994659424,639.6900009155273 s-2.3,7.42 -6.54,7.68 " opacity="0.1" id="svg_89"/><path d="M957.5599994659424,334.9400009155273 c-1.6800000000000002,3.2 -6.27,3.2800000000000002 -9.69,2.14 c-5.94,-2 -11,-6.2 -17.1,-7.63 a19.81,19.81 0 0 0 -12.67,1.29 a6.87,6.87 0 0 1 -2.7800000000000002,0.92 c-3.19,0.05000000000000001 -5.55,-4.73 -8.4,-6 c-3,-1.32 -7,-0.78 -8.17,-4.63 a3.6900000000000004,3.6900000000000004 0 0 1 -0.11000000000000001,-0.45 a5.22,5.22 0 0 0 0.11000000000000001,2.73 c1.1400000000000001,3.85 5.16,3.3 8.17,4.62 c2.85,1.25 5.21,6 8.4,6 a7.19,7.19 0 0 0 2.7800000000000002,-0.92 a19.74,19.74 0 0 1 12.67,-1.29 c6.09,1.42 11.16,5.65 17.1,7.63 c3.42,1.13 8,1.05 9.69,-2.14 a5.33,5.33 0 0 0 0.45,-3.5300000000000002 A4.58,4.58 0 0 1 957.5599994659424,334.9400009155273 z" opacity="0.1" id="svg_90"/><path d="M953.6699994659424,658.2900009155273 a6.91,6.91 0 0 1 -0.92,3 l-25.78,-3 c0.36000000000000004,-1.5 0.7200000000000001,-2.64 0.7200000000000001,-2.64 s21.32,4.84 25,2.56 l0.06000000000000001,0 z" opacity="0.1" id="svg_91"/><path d="M926.7499994659424,653.1500009155274 c-0.1,0.29000000000000004 -0.51,3.89 -0.51,3.89 l28.64,3.31 v-3 z" fill="#575a89" id="svg_92"/><ellipse cx="123.62999725341797" cy="680.5999755859375" rx="30.649999618530273" ry="4.210000038146973" fill="#0a42a5" opacity="0.1" id="svg_93"/><ellipse cx="241.0399932861328" cy="692.510009765625" rx="30.649999618530273" ry="4.210000038146973" fill="#0a42a5" opacity="0.1" id="svg_94"/><ellipse cx="379.3299865722656" cy="676.3900146484375" rx="30.649999618530273" ry="4.210000038146973" fill="#0a42a5" opacity="0.1" id="svg_95"/><ellipse cx="194.0500030517578" cy="726.4000244140625" rx="21.790000915527344" ry="2.990000009536743" fill="#0a42a5" opacity="0.1" id="svg_96"/><ellipse cx="315.8999938964844" cy="723.4099731445312" rx="21.790000915527344" ry="2.990000009536743" fill="#0a42a5" opacity="0.1" id="svg_97"/><path d="M241.68999946594238,691.5600009155273 s-43,-140.92 6.73,-197.36 c37.19,-42.22 79.4,-37.17 98.31,-31.95 a34.91,34.91 0 0 1 22.55,18.74 c6.61,14.26 5.41,37.41 -41.24,64.42 c-78.12,45.23 -83,107.27 -83,107.27 z" fill="#0a42a5" id="svg_98"/><path d="M339.9999994659424,482.29000091552734 s-126.71,39.62 -98.31,209.32 " fill="none" stroke="#565987" stroke-miterlimit="10" id="svg_99"/><path d="M265.9899994659424,496.4400009155273 s17.45,11.76 11.9,29.43 " fill="none" stroke="#565987" stroke-miterlimit="10" id="svg_100"/><path d="M327.2899994659424,506.91000091552735 s-10.67,-10.85 -23.65,-4.87 " fill="none" stroke="#565987" stroke-miterlimit="10" id="svg_101"/><path d="M277.19999946594237,561.4800009155274 s-18.73,-9.51 -23.57,2.4 " fill="none" stroke="#565987" stroke-miterlimit="10" id="svg_102"/><path d="M230.8499994659424,581.2900009155273 s14.07,-1.12 14.32,5.61 " fill="none" stroke="#565987" stroke-miterlimit="10" id="svg_103"/><path d="M239.95999946594236,692.6800009155273 S290.2999994659424,590.2900009155273 304.1299994659424,592.5000009155274 c6.57,1.07 9.6,7.53 11,14 a41.18,41.18 0 0 1 -2.74,24.93 C305.20999946594236,647.8400009155273 286.01999946594236,678.9700009155273 239.95999946594236,692.6800009155273 z" fill="#0a42a5" id="svg_104"/><path d="M303.75999946594237,611.9400009155273 s-52.85,76.63 -63.06,80 " fill="none" stroke="#565987" stroke-miterlimit="10" id="svg_105"/><line x1="308.6199951171875" y1="623.9099731445312" x2="296.2799987792969" y2="623.9099731445312" fill="none" stroke="#565987" stroke-miterlimit="10" id="svg_106"/><line x1="293.8399963378906" y1="651.9400024414062" x2="274.510009765625" y2="652.77001953125" fill="none" stroke="#565987" stroke-miterlimit="10" id="svg_107"/><line x1="282.0799865722656" y1="629.510009765625" x2="284.17999267578125" y2="639.5800170898438" fill="none" stroke="#565987" stroke-miterlimit="10" id="svg_108"/><line x1="261.5199890136719" y1="660.1599731445312" x2="261.8900146484375" y2="669.3200073242188" fill="none" stroke="#565987" stroke-miterlimit="10" id="svg_109"/><path d="M241.44999946594237,692.6800009155273 S191.1099994659424,590.2900009155273 177.27999946594238,592.5000009155274 c-6.57,1.07 -9.6,7.53 -11,14 a41.25,41.25 0 0 0 2.74,24.93 C176.19999946594237,647.8400009155273 195.3899994659424,678.9700009155273 241.44999946594237,692.6800009155273 z" fill="#0a42a5" id="svg_110"/><path d="M177.6499994659424,611.9400009155273 s52.84,76.63 63,80 " fill="none" stroke="#565987" stroke-miterlimit="10" id="svg_111"/><line x1="172.7899932861328" y1="623.9099731445312" x2="185.1300048828125" y2="623.9099731445312" fill="none" stroke="#565987" stroke-miterlimit="10" id="svg_112"/><line x1="187.57000732421875" y1="651.9400024414062" x2="206.89999389648438" y2="652.77001953125" fill="none" stroke="#565987" stroke-miterlimit="10" id="svg_113"/><line x1="199.3300018310547" y1="629.510009765625" x2="197.22999572753906" y2="639.5800170898438" fill="none" stroke="#565987" stroke-miterlimit="10" id="svg_114"/><line x1="219.88999938964844" y1="660.1599731445312" x2="219.52000427246094" y2="669.3200073242188" fill="none" stroke="#565987" stroke-miterlimit="10" id="svg_115"/><path d="M327.88999946594237,716.6000009155273 A8.73,8.73 0 0 0 330.75999946594237,712.2900009155273 a3.85,3.85 0 0 0 -2,-4.4 c-1.84,-0.7000000000000001 -3.81,0.5700000000000001 -5.3,1.86 s-3.19,2.75 -5.14,2.48 a7.82,7.82 0 0 0 2.42,-7.33 a3.08,3.08 0 0 0 -0.6700000000000002,-1.49 c-1,-1.09 -2.88,-0.6200000000000001 -4.1,0.24000000000000002 c-3.89,2.73 -5,8 -5,12.76 c-0.39000000000000007,-1.71 -0.06000000000000001,-3.5 -0.07,-5.26 s-0.49000000000000005,-3.7 -2,-4.65 a6,6 0 0 0 -3,-0.7100000000000001 c-1.75,-0.06000000000000001 -3.6900000000000004,0.11000000000000001 -4.890000000000001,1.3900000000000001 c-1.48,1.59 -1.1,4.25 0.19000000000000003,6 s3.26,2.85 5.06,4 a11.26,11.26 0 0 1 3.62,3.45 a5,5 0 0 1 0.27,0.6200000000000001 h10.95 A30.39,30.39 0 0 0 327.88999946594237,716.6000009155273 z" fill="#0a42a5" id="svg_116"/><path d="M136.05999946594238,675.3500009155273 a8.79,8.79 0 0 0 2.8600000000000003,-4.32 a3.85,3.85 0 0 0 -2,-4.41 c-1.84,-0.7000000000000001 -3.8,0.5700000000000001 -5.29,1.86 s-3.2,2.7600000000000002 -5.15,2.48 a7.8100000000000005,7.8100000000000005 0 0 0 2.42,-7.33 a3.08,3.08 0 0 0 -0.6700000000000002,-1.49 c-1,-1.09 -2.87,-0.6200000000000001 -4.1,0.24000000000000002 c-3.88,2.73 -5,8 -5,12.76 c-0.39000000000000007,-1.71 -0.06000000000000001,-3.5 -0.07,-5.25 s-0.49000000000000005,-3.71 -2,-4.66 a6,6 0 0 0 -3,-0.7100000000000001 c-1.75,-0.06000000000000001 -3.6900000000000004,0.12000000000000001 -4.890000000000001,1.3900000000000001 c-1.48,1.59 -1.09,4.26 0.2,6 s3.25,2.85 5,4.06 a11.23,11.23 0 0 1 3.62,3.44 a3.87,3.87 0 0 1 0.27,0.6200000000000001 h10.95 A30.45,30.45 0 0 0 136.05999946594238,675.3500009155273 z" fill="#0a42a5" id="svg_117"/><path d="M199.9899994659424,716.6000009155273 A8.73,8.73 0 0 0 202.8599994659424,712.2900009155273 a3.85,3.85 0 0 0 -2,-4.4 c-1.84,-0.7000000000000001 -3.81,0.5700000000000001 -5.3,1.86 s-3.2,2.75 -5.15,2.48 a7.85,7.85 0 0 0 2.43,-7.33 a3.09,3.09 0 0 0 -0.6800000000000002,-1.49 c-1,-1.09 -2.87,-0.6200000000000001 -4.09,0.24000000000000002 c-3.89,2.73 -5,8 -5,12.76 c-0.4,-1.71 -0.07,-3.5 -0.07,-5.26 s-0.5,-3.7 -2,-4.65 a6,6 0 0 0 -3,-0.7100000000000001 c-1.75,-0.06000000000000001 -3.7,0.11000000000000001 -4.890000000000001,1.3900000000000001 c-1.48,1.59 -1.1,4.25 0.19000000000000003,6 s3.25,2.85 5.06,4 a11.26,11.26 0 0 1 3.62,3.45 a3.84,3.84 0 0 1 0.26,0.6200000000000001 h11 A30.39,30.39 0 0 0 199.9899994659424,716.6000009155273 z" fill="#0a42a5" id="svg_118"/><path d="M381.3199994659424,633.2200009155273 s4.1,5.37 -1.9,13.48 s-10.95,15 -8.95,20 c0,0 9.06,-15 16.43,-15.26 S389.4199994659424,642.2900009155273 381.3199994659424,633.2200009155273 z" fill="#0a42a5" id="svg_119"/><path d="M381.3199994659424,633.2200009155273 a6.55,6.55 0 0 1 0.8300000000000001,1.6800000000000002 c7.2,8.45 11,16.34 4.12,16.54 c-6.44,0.18000000000000002 -14.17,11.69 -16,14.6 a4.640000000000001,4.640000000000001 0 0 0 0.22000000000000003,0.6600000000000001 s9.06,-15 16.43,-15.26 S389.4199994659424,642.2900009155273 381.3199994659424,633.2200009155273 z" opacity="0.1" id="svg_120"/><path d="M388.94999946594237,640.0600009155273 c0,1.8900000000000001 -0.21000000000000002,3.43 -0.47000000000000003,3.43 s-0.48000000000000004,-1.54 -0.48000000000000004,-3.43 s0.27,-1 0.53,-1 S388.94999946594237,638.1700009155273 388.94999946594237,640.0600009155273 z" fill="#ffd037" id="svg_121"/><path d="M391.5599994659424,642.2900009155273 c-1.6600000000000001,0.9 -3.11,1.45 -3.23,1.22 s1.12,-1.15 2.7800000000000002,-2 s1,-0.25 1.13,0 S393.2299994659424,641.4200009155273 391.5599994659424,642.2900009155273 z" fill="#ffd037" id="svg_122"/><path d="M359.6199994659424,633.2200009155273 s-4.1,5.37 1.9,13.48 s11,15 9,20 c0,0 -9.06,-15 -16.43,-15.26 S351.5599994659424,642.2900009155273 359.6199994659424,633.2200009155273 z" fill="#0a42a5" id="svg_123"/><path d="M359.6199994659424,633.2200009155273 a6.74,6.74 0 0 0 -0.8400000000000001,1.6800000000000002 c-7.19,8.45 -11,16.34 -4.11,16.54 c6.44,0.18000000000000002 14.17,11.69 16,14.6 a4.640000000000001,4.640000000000001 0 0 1 -0.22000000000000003,0.6600000000000001 s-9.06,-15 -16.43,-15.26 S351.5599994659424,642.2900009155273 359.6199994659424,633.2200009155273 z" opacity="0.1" id="svg_124"/><path d="M351.9899994659424,640.0600009155273 c0,1.8900000000000001 0.21000000000000002,3.43 0.47000000000000003,3.43 s0.48000000000000004,-1.54 0.48000000000000004,-3.43 s-0.27,-1 -0.53,-1 S351.9899994659424,638.1700009155273 351.9899994659424,640.0600009155273 z" fill="#ffd037" id="svg_125"/><path d="M349.3699994659424,642.2900009155273 c1.6600000000000001,0.9 3.11,1.45 3.23,1.22 s-1.12,-1.15 -2.7800000000000002,-2 s-1,-0.25 -1.13,0 S347.70999946594236,641.4200009155273 349.3699994659424,642.2900009155273 z" fill="#ffd037" id="svg_126"/><path d="M353.2999994659424,666.0000009155274 s11.48,-0.35000000000000003 14.94,-2.8200000000000003 s17.66,-5.4 18.52,-1.45 s17.26,19.65 4.29,19.76 s-30.12,-2 -33.57,-4.12 S353.2999994659424,666.0000009155274 353.2999994659424,666.0000009155274 z" fill="#a8a8a8" id="svg_127"/><path d="M391.2799994659424,680.1100009155274 c-13,0.11000000000000001 -30.12,-2 -33.57,-4.12 c-2.63,-1.6 -3.68,-7.35 -4,-10 h-0.38000000000000006 s0.7200000000000001,9.26 4.18,11.37 s20.61,4.22 33.57,4.12 c3.74,0 5,-1.36 5,-3.33 C395.4999994659424,679.3500009155273 394.0699994659424,680.0900009155273 391.2799994659424,680.1100009155274 z" opacity="0.2" id="svg_128"/></g></svg>