<?xml version="1.0" encoding="utf-8"?>
<!-- Generator: Adobe Illustrator 25.2.3, SVG Export Plug-In . SVG Version: 6.00 Build 0)  -->
<svg version="1.1" id="Layer_1" xmlns="http://www.w3.org/2000/svg" xmlns:xlink="http://www.w3.org/1999/xlink" x="0px" y="0px"
	 viewBox="0 0 1200 191.85" style="enable-background:new 0 0 1200 191.85;" xml:space="preserve">
<style type="text/css">
	.st0{fill:#0A42A5;}
	.st1{fill:#20B97C;}
	.st2{fill:#6AD39E;}
	.st3{fill:#8AD7FF;}
	.st4{fill:#007D71;}
	.st5{opacity:0.77;fill:url(#SVGID_1_);}
	.st6{opacity:0.77;fill:url(#SVGID_2_);}
</style>
<g>
	<g>
		<path class="st0" d="M532.47,136.82c-2.82,1.92-6.09,2.87-9.81,2.87c-2.93,0-5.27-0.93-7.02-2.79c-1.75-1.86-2.62-4.42-2.62-7.69
			V98.77v-0.51h22.53V72.03h-22.53V42.59h-32.05v29.44h-14.53v26.23h14.45v0.51v30.78c0,11.61,3.21,20.35,9.64,26.21
			c6.43,5.86,15.61,8.79,27.56,8.79c4.4,0,8.54-0.45,12.43-1.35c3.89-0.9,7.19-2.2,9.89-3.89L532.47,136.82z"/>
		<path class="st0" d="M302.09,27.97c10.01,0,22.83,1.6,32.64,11.82c7.61,7.81,11.41,19.43,11.41,30.04
			c0,11.41-4.01,21.43-10.61,27.84c-5.21,5-12.22,8.01-18.42,9.21l41.86,54.67h-43.06l-33.24-51.27v51.27H249.2V27.97H302.09z
			 M282.67,87.85h6.61c5.21,0,12.62-1.4,16.82-5.41c2.6-2.6,4.41-7.01,4.41-11.22c0-4.01-1.6-8.41-4.61-11.21
			c-3.21-3.21-9.01-5.21-16.62-5.21h-6.61V87.85z"/>
		<path class="st0" d="M457.7,122.7h-66.69c0,4.81,1.8,11.22,5.61,15.02c2,2,6.01,4.41,13.22,4.41c0.8,0,6.41-0.2,10.42-2.41
			c2-1.2,4.2-3.2,5.61-6.01h30.64c-1.4,5.01-4.21,12.02-10.82,18.42c-6.61,6.41-17.02,12.42-36.45,12.42
			c-11.82,0-26.04-2.6-37.05-13.62c-5.81-5.81-13.22-16.82-13.22-33.84c0-15.02,5.61-27.04,13.42-34.65
			c7.41-7.21,19.03-13.02,36.65-13.02c10.42,0,23.83,2.2,34.45,12.22c12.62,12.02,14.22,27.64,14.22,37.65V122.7z M428.27,104.27
			c-0.8-3.41-2.81-7.21-5.21-9.62c-4.2-4.2-10.01-4.81-13.22-4.81c-5.4,0-9.61,1.4-13.02,4.81c-2.2,2.41-4.21,5.61-4.81,9.62H428.27
			z"/>
		<path class="st0" d="M571.37,16.75c10.01,0,18.02,8.01,18.02,18.02c0,10.01-8.01,18.02-18.02,18.02
			c-10.02,0-18.03-8.01-18.03-18.02C553.34,24.76,561.35,16.75,571.37,16.75z"/>
		<rect x="555.34" y="72.03" class="st0" width="32.04" height="89.52"/>
		<path class="st0" d="M606.85,72.03h32.04v14.62c3.21-6.01,7.81-10.01,12.62-12.41c4.81-2.61,10.61-3.61,16.62-3.61
			c0.8,0,2.2,0.2,6.41,0.4v30.24c-1.6-0.8-6.01-3.2-13.82-3.2c-4.21,0-10.01,0.6-14.62,4.81c-6.81,6.21-7.21,15.62-7.21,20.43v38.25
			h-32.04V72.03z"/>
		<path class="st0" d="M781.02,122.7h-66.69c0,4.81,1.8,11.22,5.61,15.02c2,2,6.01,4.41,13.22,4.41c0.8,0,6.41-0.2,10.41-2.41
			c2.01-1.2,4.21-3.2,5.61-6.01h30.64c-1.4,5.01-4.2,12.02-10.81,18.42c-6.61,6.41-17.03,12.42-36.45,12.42
			c-11.82,0-26.04-2.6-37.05-13.62c-5.81-5.81-13.22-16.82-13.22-33.84c0-15.02,5.61-27.04,13.42-34.65
			c7.41-7.21,19.03-13.02,36.65-13.02c10.41,0,23.83,2.2,34.45,12.22c12.62,12.02,14.22,27.64,14.22,37.65V122.7z M751.58,104.27
			c-0.8-3.41-2.8-7.21-5.21-9.62c-4.21-4.2-10.01-4.81-13.22-4.81c-5.41,0-9.61,1.4-13.02,4.81c-2.2,2.41-4.2,5.61-4.81,9.62H751.58
			z"/>
		<path class="st1" d="M998.02,72.03v89.52h-32.05V72.03H998.02z"/>
		<path class="st1" d="M1017.48,72.03h32.05v11.21c8.81-11.62,20.63-13.22,28.44-13.22c9.21,0,19.03,2.2,26.44,9.61
			c7.61,7.61,8.41,15.22,8.41,25.04v56.88h-32.04v-45.26c0-5.21,0.2-13.02-4.01-17.42c-3-3.21-7.01-3.81-10.21-3.81
			c-5.01,0-9.21,1.8-11.82,4.21c-3.21,3-5.21,8.81-5.21,14.22v48.06h-32.05V72.03z"/>
		<path class="st1" d="M965.97,56.31c24.52-0.36,43.68-4.22,45.77-45.75c0-0.01,0-0.01,0-0.02c-0.01,0-0.01,0-0.02,0
			C970.19,12.63,966.33,31.79,965.97,56.31z"/>
		<path class="st1" d="M1189.14,136.82c-2.82,1.92-6.09,2.87-9.81,2.87c-2.93,0-5.27-0.93-7.02-2.79c-1.75-1.86-2.62-4.42-2.62-7.69
			V98.77v-0.51h22.53V72.03h-22.53V42.59h-32.05v29.44h-14.53v26.23h14.45v0.51v30.78c0,11.61,3.21,20.35,9.64,26.21
			c6.43,5.86,15.61,8.79,27.56,8.79c4.4,0,8.54-0.45,12.43-1.35c3.89-0.9,7.19-2.2,9.89-3.89L1189.14,136.82z"/>
		<polygon class="st1" points="945.29,27.97 915.24,27.97 873.76,100.75 831.13,27.97 801.26,27.97 801.26,161.55 834.94,161.55 
			834.94,92.66 869.1,148.38 878.62,148.38 911.62,90.75 912,161.55 945.68,161.55 		"/>
	</g>
	<g>
		<path class="st2" d="M162.58,27.79C38.43,34.03,26.97,91.36,25.92,164.69c-0.18,12.55,9.91,22.83,22.46,22.83h115.28
			c12.4,0,22.46-10.05,22.46-22.46V50.22C186.11,37.4,175.38,27.14,162.58,27.79z"/>
		<path class="st3" d="M25.74,164.52C99.07,163.46,156.4,152,162.65,27.85c0.64-12.81-9.61-23.53-22.43-23.53H25.36
			c-12.4,0-22.46,10.05-22.46,22.46v115.28C2.91,154.61,13.19,164.7,25.74,164.52z"/>
		<path class="st4" d="M25.92,164.51c73.24-1.07,130.49-12.62,136.73-136.66c0-0.02,0-0.04,0-0.07c-0.02,0-0.04,0-0.07,0
			C38.54,34.02,27,91.27,25.92,164.51z"/>
		
			<linearGradient id="SVGID_1_" gradientUnits="userSpaceOnUse" x1="-5114.7095" y1="-5044.4888" x2="-4977.9819" y2="-5044.4888" gradientTransform="matrix(4.489700e-11 -1 -1 -4.489700e-11 -4950.1997 -4950.1997)">
			<stop  offset="0" style="stop-color:#42BE91"/>
			<stop  offset="1" style="stop-color:#42BE91;stop-opacity:0"/>
		</linearGradient>
		<path class="st5" d="M25.92,164.51C27,91.27,38.54,34.02,162.58,27.78c0.02,0,0.04,0,0.07,0c0,0.02,0.02,0.08,0,0.07
			C162.58,27.78,25.92,164.51,25.92,164.51z"/>
	</g>
</g>
</svg>
