<?xml version="1.0" encoding="UTF-8"?>
<svg width="455px" height="450px" viewBox="0 0 455 450" version="1.1" xmlns="http://www.w3.org/2000/svg" xmlns:xlink="http://www.w3.org/1999/xlink">
    <!-- Generator: Sketch 50.2 (55047) - http://www.bohemiancoding.com/sketch -->
    <title>PBLLogopink</title>
    <desc>Created with Sketch.</desc>
    <defs></defs>
    <g id="Page-1" stroke="none" stroke-width="1" fill="none" fill-rule="evenodd">
        <g id="PBLLogopink" fill="#9999CB">
            <g id="Welcome">
                <g id="Home-Copy">
                    <g id="PBLLogo" transform="translate(0.040000, 0.000000)">
                        <path d="M141.917841,413.049148 L141.917841,413.823938 L49.9508425,413.823938 L50.8383292,45.1135456 L51.0952278,45.6391867 L51.0952278,44.1857759 L133.266325,45.3263735 L143.023519,46.0887717 L149.551518,46.9942581 L157.607433,49.0422344 L164.480832,52.4143294 L170.944541,55.6087825 L175.905608,59.9607874 L181.305186,64.6463693 L184.72149,70.307431 L188.308054,77.4693675 L190.570219,84.4284112 L192.032956,91.9695532 L192.190802,108.200972 L190.456712,114.880928 L185.509833,125.301995 L179.720961,132.10466 L172.443635,138.272954 L172.289336,140.552175 L180.639661,147.542228 L186.586379,153.912086 L192.755235,165.686067 L194.449863,170.913877 L194.31596,194.620431 L192.052022,202.966943 L188.031824,211.187642 L183.740716,217.985435 L177.474314,225.733457 L179.775941,227.663153 L183.930042,229.750113 L188.265489,233.289218 L191.911911,237.089691 L195.203623,242.090687 L196.962986,246.512243 L197.874148,251.095492 L197.869271,256.501387 L197.233896,261.620221 L196.05138,266.292069 L193.680585,270.595345 L191.005183,274.81002 L186.397052,279.296254 L182.421193,281.924999 L177.627283,284.026135 L174.803789,284.927192 L170.871825,285.202736 L166.388287,284.966618 L162.505539,284.174096 L158.485785,282.485834 L154.987454,280.949962 L152.085037,278.916605 L149.37505,276.996655 L147.256099,274.5203 L145.053792,272.019138 L144.860549,271.683794 L144.586229,271.416935 L142.382017,268.043837 L140.983403,264.74906 L140.078157,260.073273 L139.492227,257.225853 L139.492227,253.612041 L139.827641,250.330568 L141.004333,245.257381 L143.139159,239.469313 L98.2226397,239.469313 L98.2226397,369.936721 L142.467635,369.936721 L142.467635,413.049148 L141.917841,413.049148 L141.917841,413.049148 Z M0,10.9979782 C0,4.92396255 4.92472036,0 10.997581,0 L443.002419,0 C449.076215,0 454,4.91939066 454,10.9979782 L454,439.002022 C454,445.076037 449.07528,450 443.002419,450 L10.997581,450 C4.92378474,450 0,445.080609 0,439.002022 L0,10.9979782 L0,10.9979782 Z M144.126984,298.8 L194.571429,298.8 L194.571429,414 L144.126984,414 L144.126984,298.8 L144.126984,298.8 Z M198.277862,118.382379 L198.277862,413.810087 L246.371466,413.810087 L246.371466,342.205222 L292.099828,342.205222 L292.099828,298.021308 L246.793302,298.021308 L246.793302,282.166499 L301.525235,282.166499 L301.525235,237.681485 L247.050731,237.681485 L247.050731,118.526583 L198.277862,118.382379 L198.277862,118.382379 Z M223.396825,108 C240.311642,108 254.02381,94.2999133 254.02381,77.4 C254.02381,60.5000867 240.311642,46.8 223.396825,46.8 C206.482009,46.8 192.769841,60.5000867 192.769841,77.4 C192.769841,94.2999133 206.482009,108 223.396825,108 L223.396825,108 Z M249.04947,114.422678 L249.04947,182.264411 L251.582737,192.295885 L254.701149,201.168664 L258.811332,208.70373 L264.827133,215.608869 L269.944672,221.729784 L276.055399,226.2596 L284.336688,230.899831 L291.046729,233.873938 L300.165356,236.974032 L305.408992,238.468871 L305.408992,413.424922 L408.870562,413.424922 L408.870562,370.969725 L354.131744,370.969725 L354.131744,340.948891 L399.342287,340.948891 L399.342287,297.094604 L353.99564,297.094604 L353.99564,282.669971 L408.656114,282.669971 L408.656114,239.177697 L355.160301,239.177697 L363.457358,235.908109 L374.147234,230.889922 L383.325368,223.732812 L390.932253,216.339302 L397.561535,206.901712 L401.923911,199.161389 L405.042323,189.266571 L407.671933,179.385909 L408.760048,166.708085 L408.760048,127.665313 L314.866035,127.665313 L314.866035,167.29991 L361.925782,167.29991 L361.92578,171.312926 L360.82208,177.322011 L357.940277,184.307837 L354.348648,188.445541 L349.452132,193.353315 L343.940718,196.357149 L337.423365,199.125999 L331.030691,199.125999 L323.313295,198.8896 L315.67524,197.39476 L308.588327,193.806296 L304.00351,188.847563 L299.721893,180.951526 L296.855674,171.529508 L296.855674,158.206185 L296.729577,118.026713 L298.351832,107.976183 L302.114895,99.7319169 L308.915611,91.9462948 L314.677802,88.0605616 L321.499771,86.4538923 L327.892444,86.0773513 L336.158148,86.7058634 L344.188661,89.4591425 L349.824755,92.6852211 L354.549836,96.8073541 L358.519754,101.402287 L360.28369,105.384279 L360.28369,107.759601 L408.220241,107.759601 L406.991862,98.5895538 L403.162208,88.226183 L399.41473,80.4547166 L393.873563,72.1807237 L387.999444,64.9429263 L382.86632,60.1922813 L376.599743,55.4402207 L368.695327,51.7767316 L361.01335,48.0014127 L352.747646,46.114461 L341.821162,43.8339816 L332.168395,43.456025 L319.494976,43.079484 L313.524514,43.3158838 L305.399074,45.07685 L298.028798,47.0912027 L290.628768,50.3172814 L281.495972,54.9419409 L275.78337,58.857401 L268.998239,65.2600135 L262.62115,72.2458398 L258.982767,77.5301539 L255.708505,84.029025 L252.842287,90.9638909 L250.969256,99.2081569 L249.502852,105.656068 L249.04947,114.422678 L249.04947,114.422678 Z" id="Rectangle-20"></path>
                        <polygon id="Path-36084" points="98.4200963 87.6678161 134.284644 87.6678161 138.564704 90.5814586 141.754268 93.5938571 143.707271 96.5524506 145.086303 100.216639 145.086303 102.940942 145.389649 106.370159 144.904977 109.360763 143.532762 111.767685 141.594074 114.303331 139.381352 116.506611 136.90414 118.194317 133.9034 119.148504 129.691322 119.632749 98.4211117 119.632749"></polygon>
                        <polygon id="Path-36084-Copy" points="98.4200963 165.067816 134.284644 165.067816 138.564704 167.981459 141.754268 170.993857 143.707271 173.952451 145.086303 177.616639 145.086303 180.340942 145.389649 183.770159 144.904977 186.760763 143.532762 189.167685 141.594074 191.703331 139.381352 193.906611 136.90414 195.594317 133.9034 196.548504 129.691322 197.032749 98.4211117 197.032749"></polygon>
                    </g>
                </g>
            </g>
        </g>
    </g>
</svg>